%TF.GenerationSoftware,KiCad,Pcbnew,10.0.5*%
%TF.CreationDate,2026-10-07T20:43:11+01:00*%
%TF.ProjectId,CAN-Unit,43414e2d-556e-4697-942e-6b696361645f,rev?*%
%TF.SameCoordinates,Original*%
%TF.FileFunction,Copper,L1,Top*%
%TF.FilePolarity,Positive*%
%FSLAX46Y46*%
G04 Gerber Fmt 4.6, Leading zero omitted, Abs format (unit mm)*
G04 Created by KiCad (PCBNEW 10.0.5) date 2026-10-07 20:43:11*
%MOMM*%
%LPD*%
G01*
G04 APERTURE LIST*
G04 Aperture macros list*
%AMRoundRect*
0 Rectangle with rounded corners*
0 $1 Rounding radius*
0 $2 $3 $4 $5 $6 $7 $8 $9 X,Y pos of 4 corners*
0 Add a 4 corners polygon primitive as box body*
4,1,4,$2,$3,$4,$5,$6,$7,$8,$9,$2,$3,0*
0 Add four circle primitives for the rounded corners*
1,1,$1+$1,$2,$3*
1,1,$1+$1,$4,$5*
1,1,$1+$1,$6,$7*
1,1,$1+$1,$8,$9*
0 Add four rect primitives between the rounded corners*
20,1,$1+$1,$2,$3,$4,$5,0*
20,1,$1+$1,$4,$5,$6,$7,0*
20,1,$1+$1,$6,$7,$8,$9,0*
20,1,$1+$1,$8,$9,$2,$3,0*%
%AMFreePoly0*
4,1,6,1.000000,0.000000,0.500000,-0.750000,-0.500000,-0.750000,-0.500000,0.750000,0.500000,0.750000,1.000000,0.000000,1.000000,0.000000,$1*%
%AMFreePoly1*
4,1,6,0.500000,-0.750000,-0.650000,-0.750000,-0.150000,0.000000,-0.650000,0.750000,0.500000,0.750000,0.500000,-0.750000,0.500000,-0.750000,$1*%
G04 Aperture macros list end*
%TA.AperFunction,SMDPad,CuDef*%
%ADD10RoundRect,0.140000X0.170000X-0.140000X0.170000X0.140000X-0.170000X0.140000X-0.170000X-0.140000X0*%
%TD*%
%TA.AperFunction,SMDPad,CuDef*%
%ADD11RoundRect,0.200000X-0.200000X-0.275000X0.200000X-0.275000X0.200000X0.275000X-0.200000X0.275000X0*%
%TD*%
%TA.AperFunction,SMDPad,CuDef*%
%ADD12RoundRect,0.225000X0.250000X-0.225000X0.250000X0.225000X-0.250000X0.225000X-0.250000X-0.225000X0*%
%TD*%
%TA.AperFunction,SMDPad,CuDef*%
%ADD13FreePoly0,90.000000*%
%TD*%
%TA.AperFunction,SMDPad,CuDef*%
%ADD14FreePoly1,90.000000*%
%TD*%
%TA.AperFunction,ComponentPad*%
%ADD15R,1.700000X1.700000*%
%TD*%
%TA.AperFunction,ComponentPad*%
%ADD16C,1.700000*%
%TD*%
%TA.AperFunction,SMDPad,CuDef*%
%ADD17RoundRect,0.125000X0.125000X-0.537500X0.125000X0.537500X-0.125000X0.537500X-0.125000X-0.537500X0*%
%TD*%
%TA.AperFunction,ViaPad*%
%ADD18C,0.600000*%
%TD*%
%TA.AperFunction,ViaPad*%
%ADD19C,0.500000*%
%TD*%
%TA.AperFunction,Conductor*%
%ADD20C,0.400000*%
%TD*%
%TA.AperFunction,Conductor*%
%ADD21C,0.250000*%
%TD*%
G04 APERTURE END LIST*
D10*
%TO.P,C1,1*%
%TO.N,+3V3*%
X150000000Y-99960000D03*
%TO.P,C1,2*%
%TO.N,GND*%
X150000000Y-99000000D03*
%TD*%
D11*
%TO.P,R1,1*%
%TO.N,CANH*%
X152355000Y-95500000D03*
%TO.P,R1,2*%
%TO.N,TERM*%
X154005000Y-95500000D03*
%TD*%
D12*
%TO.P,C2,1*%
%TO.N,+3V3*%
X152000000Y-100055000D03*
%TO.P,C2,2*%
%TO.N,GND*%
X152000000Y-98505000D03*
%TD*%
D13*
%TO.P,JP1,1*%
%TO.N,TERM*%
X156000000Y-95445000D03*
D14*
%TO.P,JP1,2*%
%TO.N,CANL*%
X156000000Y-93995000D03*
%TD*%
D15*
%TO.P,J2,1*%
%TO.N,CAN_TX*%
X148460000Y-104500000D03*
D16*
%TO.P,J2,2*%
%TO.N,CAN_RX*%
X151000000Y-104500000D03*
%TD*%
D17*
%TO.P,U1,1*%
%TO.N,CAN_TX*%
X146025000Y-100137500D03*
%TO.P,U1,2*%
%TO.N,GND*%
X146675000Y-100137500D03*
%TO.P,U1,3*%
%TO.N,+3V3*%
X147325000Y-100137500D03*
%TO.P,U1,4*%
%TO.N,CAN_RX*%
X147975000Y-100137500D03*
%TO.P,U1,5*%
%TO.N,N/C*%
X147975000Y-97862500D03*
%TO.P,U1,6*%
%TO.N,CANL*%
X147325000Y-97862500D03*
%TO.P,U1,7*%
%TO.N,CANH*%
X146675000Y-97862500D03*
%TO.P,U1,8*%
%TO.N,N/C*%
X146025000Y-97862500D03*
%TD*%
D15*
%TO.P,J1,1*%
%TO.N,+3V3*%
X155500000Y-101540000D03*
D16*
%TO.P,J1,2*%
%TO.N,GND*%
X155500000Y-99000000D03*
%TD*%
D15*
%TO.P,J3,1*%
%TO.N,CANL*%
X147220000Y-94000000D03*
D16*
%TO.P,J3,2*%
%TO.N,CANH*%
X149760000Y-94000000D03*
%TD*%
D18*
%TO.N,+3V3*%
X150000000Y-100900000D03*
X147325000Y-101050000D03*
D19*
%TO.N,GND*%
X146675000Y-102000000D03*
%TO.N,CANL*%
X154400000Y-96900000D03*
X156750000Y-94000000D03*
%TD*%
%TO.N,+3V3*%
D20*
X150000000Y-100900000D02*
X152000000Y-100900000D01*
X155500000Y-100900000D02*
X155500000Y-101540000D01*
X152000000Y-100900000D02*
X155500000Y-100900000D01*
X152000000Y-100900000D02*
X152000000Y-100055000D01*
X147325000Y-100137500D02*
X147325000Y-101050000D01*
X150000000Y-100900000D02*
X150000000Y-99960000D01*
%TO.N,GND*%
D21*
X146675000Y-100137500D02*
X146675000Y-102000000D01*
%TO.N,CANH*%
X146675000Y-97862500D02*
X146675000Y-95500000D01*
X149760000Y-95500000D02*
X149760000Y-94000000D01*
X146675000Y-95500000D02*
X152355000Y-95500000D01*
%TO.N,TERM*%
X154005000Y-95500000D02*
X156000000Y-95445000D01*
%TO.N,CANL*%
X156750000Y-94000000D02*
X156000000Y-93995000D01*
X154400000Y-96500000D02*
X154400000Y-96900000D01*
X147325000Y-97862500D02*
X147325000Y-96500000D01*
X147325000Y-96500000D02*
X154400000Y-96500000D01*
%TO.N,CAN_TX*%
X146025000Y-103300000D02*
X148460000Y-103300000D01*
X146025000Y-100137500D02*
X146025000Y-103300000D01*
X148460000Y-103300000D02*
X148460000Y-104500000D01*
%TO.N,CAN_RX*%
X151000000Y-102600000D02*
X151000000Y-104500000D01*
X147975000Y-102600000D02*
X151000000Y-102600000D01*
X147975000Y-100137500D02*
X147975000Y-102600000D01*
%TD*%
%TA.AperFunction,Conductor*%
%TO.N,GND*%
G36*
X146108411Y-92919407D02*
G01*
X146144375Y-92968907D01*
X146144375Y-93030093D01*
X146136437Y-93046459D01*
X146134033Y-93052263D01*
X146119501Y-93125315D01*
X146119500Y-93125327D01*
X146119500Y-94874672D01*
X146119501Y-94874684D01*
X146134033Y-94947736D01*
X146134035Y-94947742D01*
X146189397Y-95030599D01*
X146189400Y-95030602D01*
X146216365Y-95048619D01*
X146272260Y-95085966D01*
X146295952Y-95090678D01*
X146328933Y-95097240D01*
X146382317Y-95127137D01*
X146407932Y-95182702D01*
X146395994Y-95242712D01*
X146379625Y-95264337D01*
X146374525Y-95269437D01*
X146325091Y-95355057D01*
X146299500Y-95450566D01*
X146299500Y-96851620D01*
X146280593Y-96909811D01*
X146231093Y-96945775D01*
X146189236Y-96949333D01*
X146189206Y-96949759D01*
X146186519Y-96949564D01*
X146186241Y-96949588D01*
X146185639Y-96949500D01*
X146185636Y-96949500D01*
X145864364Y-96949500D01*
X145820570Y-96955880D01*
X145791373Y-96960134D01*
X145678790Y-97015173D01*
X145590173Y-97103790D01*
X145535134Y-97216373D01*
X145535134Y-97216375D01*
X145524500Y-97289364D01*
X145524500Y-98435636D01*
X145533007Y-98494027D01*
X145535134Y-98508626D01*
X145559545Y-98558559D01*
X145590174Y-98621211D01*
X145678789Y-98709826D01*
X145791375Y-98764866D01*
X145864364Y-98775500D01*
X145864367Y-98775500D01*
X146185632Y-98775500D01*
X146185636Y-98775500D01*
X146258625Y-98764866D01*
X146306520Y-98741450D01*
X146367102Y-98732880D01*
X146393478Y-98741450D01*
X146441375Y-98764866D01*
X146514364Y-98775500D01*
X146514367Y-98775500D01*
X146835632Y-98775500D01*
X146835636Y-98775500D01*
X146908625Y-98764866D01*
X146956520Y-98741450D01*
X147017102Y-98732880D01*
X147043478Y-98741450D01*
X147091375Y-98764866D01*
X147164364Y-98775500D01*
X147164367Y-98775500D01*
X147485632Y-98775500D01*
X147485636Y-98775500D01*
X147558625Y-98764866D01*
X147606520Y-98741450D01*
X147667102Y-98732880D01*
X147693478Y-98741450D01*
X147741375Y-98764866D01*
X147814364Y-98775500D01*
X147814367Y-98775500D01*
X148135632Y-98775500D01*
X148135636Y-98775500D01*
X148208625Y-98764866D01*
X148321211Y-98709826D01*
X148409826Y-98621211D01*
X148464866Y-98508625D01*
X148475500Y-98435636D01*
X148475500Y-98238895D01*
X151225000Y-98238895D01*
X151225000Y-98304999D01*
X151225001Y-98305000D01*
X151799999Y-98305000D01*
X151800000Y-98304999D01*
X151800000Y-97755001D01*
X152200000Y-97755001D01*
X152200000Y-98304999D01*
X152200001Y-98305000D01*
X152774999Y-98305000D01*
X152775000Y-98304999D01*
X152775000Y-98238899D01*
X152774999Y-98238895D01*
X152764867Y-98154529D01*
X152755872Y-98131719D01*
X152755871Y-98131718D01*
X152755871Y-98131717D01*
X152711922Y-98020271D01*
X152624723Y-97905282D01*
X152624717Y-97905276D01*
X152509729Y-97818077D01*
X152375468Y-97765132D01*
X152291104Y-97755000D01*
X152200001Y-97755000D01*
X152200000Y-97755001D01*
X151800000Y-97755001D01*
X151799999Y-97755000D01*
X151708895Y-97755000D01*
X151624531Y-97765132D01*
X151490270Y-97818077D01*
X151375282Y-97905276D01*
X151375276Y-97905282D01*
X151288077Y-98020270D01*
X151235132Y-98154531D01*
X151225000Y-98238895D01*
X148475500Y-98238895D01*
X148475500Y-97289364D01*
X148464866Y-97216375D01*
X148409826Y-97103789D01*
X148350538Y-97044501D01*
X148322763Y-96989987D01*
X148332334Y-96929555D01*
X148375599Y-96886290D01*
X148420544Y-96875500D01*
X153800779Y-96875500D01*
X153858970Y-96894407D01*
X153894934Y-96943907D01*
X153898932Y-96961577D01*
X153899499Y-96965889D01*
X153933609Y-97093190D01*
X153999496Y-97207309D01*
X153999498Y-97207311D01*
X153999500Y-97207314D01*
X154092686Y-97300500D01*
X154092688Y-97300501D01*
X154092690Y-97300503D01*
X154206810Y-97366390D01*
X154206808Y-97366390D01*
X154206812Y-97366391D01*
X154206814Y-97366392D01*
X154334108Y-97400500D01*
X154334110Y-97400500D01*
X154465890Y-97400500D01*
X154465892Y-97400500D01*
X154593186Y-97366392D01*
X154593188Y-97366390D01*
X154593190Y-97366390D01*
X154707309Y-97300503D01*
X154707309Y-97300502D01*
X154707314Y-97300500D01*
X154800500Y-97207314D01*
X154860270Y-97103790D01*
X154866390Y-97093190D01*
X154866390Y-97093188D01*
X154866392Y-97093186D01*
X154900500Y-96965892D01*
X154900500Y-96834108D01*
X154866392Y-96706814D01*
X154866390Y-96706811D01*
X154866390Y-96706809D01*
X154800503Y-96592690D01*
X154796551Y-96587540D01*
X154798901Y-96585735D01*
X154776706Y-96542082D01*
X154775500Y-96526678D01*
X154775500Y-96450566D01*
X154775500Y-96450565D01*
X154749910Y-96355062D01*
X154749908Y-96355059D01*
X154749908Y-96355057D01*
X154700476Y-96269440D01*
X154700475Y-96269438D01*
X154630562Y-96199525D01*
X154601005Y-96182460D01*
X154560064Y-96136990D01*
X154553670Y-96076139D01*
X154570852Y-96037935D01*
X154604161Y-95992803D01*
X154607793Y-95987882D01*
X154630793Y-95922151D01*
X154667856Y-95873473D01*
X154721505Y-95855888D01*
X154892799Y-95851166D01*
X154951488Y-95868462D01*
X154988802Y-95916952D01*
X154994050Y-95940428D01*
X154994500Y-95944998D01*
X154994500Y-95945000D01*
X155013949Y-96042776D01*
X155069334Y-96125666D01*
X155152224Y-96181051D01*
X155250000Y-96200500D01*
X155250001Y-96200500D01*
X156749999Y-96200500D01*
X156750000Y-96200500D01*
X156847776Y-96181051D01*
X156930666Y-96125666D01*
X156986051Y-96042776D01*
X157005500Y-95945000D01*
X157005500Y-94945000D01*
X157000538Y-94894892D01*
X156976342Y-94836651D01*
X156971478Y-94775662D01*
X156985452Y-94743671D01*
X156986051Y-94742776D01*
X157005500Y-94645000D01*
X157005500Y-94487572D01*
X157024407Y-94429381D01*
X157055006Y-94401832D01*
X157057314Y-94400500D01*
X157130498Y-94327315D01*
X157185013Y-94299540D01*
X157245445Y-94309111D01*
X157288710Y-94352376D01*
X157299500Y-94397321D01*
X157299500Y-104795138D01*
X157299023Y-104804842D01*
X157283171Y-104965780D01*
X157279385Y-104984814D01*
X157233860Y-105134891D01*
X157226433Y-105152822D01*
X157152502Y-105291136D01*
X157141720Y-105307272D01*
X157042227Y-105428504D01*
X157028504Y-105442227D01*
X156907272Y-105541720D01*
X156891136Y-105552502D01*
X156752822Y-105626433D01*
X156734891Y-105633860D01*
X156584814Y-105679385D01*
X156565780Y-105683171D01*
X156404843Y-105699023D01*
X156395139Y-105699500D01*
X151482273Y-105699500D01*
X151424082Y-105680593D01*
X151388118Y-105631093D01*
X151388118Y-105569907D01*
X151424082Y-105520407D01*
X151437328Y-105512290D01*
X151475759Y-105492708D01*
X151576788Y-105441232D01*
X151716928Y-105339414D01*
X151839414Y-105216928D01*
X151941232Y-105076788D01*
X152019873Y-104922445D01*
X152019874Y-104922440D01*
X152019876Y-104922438D01*
X152073401Y-104757706D01*
X152073402Y-104757702D01*
X152100500Y-104586614D01*
X152100500Y-104413385D01*
X152073402Y-104242297D01*
X152073401Y-104242293D01*
X152019876Y-104077561D01*
X152019874Y-104077558D01*
X152019873Y-104077557D01*
X152019873Y-104077555D01*
X151941232Y-103923212D01*
X151839414Y-103783072D01*
X151716928Y-103660586D01*
X151576788Y-103558768D01*
X151576787Y-103558767D01*
X151576785Y-103558766D01*
X151429555Y-103483749D01*
X151386290Y-103440484D01*
X151375500Y-103395539D01*
X151375500Y-102550566D01*
X151375500Y-102550565D01*
X151349910Y-102455062D01*
X151349908Y-102455059D01*
X151349908Y-102455057D01*
X151300476Y-102369440D01*
X151300475Y-102369438D01*
X151230562Y-102299525D01*
X151230559Y-102299523D01*
X151144941Y-102250091D01*
X151144943Y-102250091D01*
X151107885Y-102240161D01*
X151049435Y-102224500D01*
X151049433Y-102224500D01*
X148449500Y-102224500D01*
X148391309Y-102205593D01*
X148355345Y-102156093D01*
X148350500Y-102125500D01*
X148350500Y-100996544D01*
X148369407Y-100938353D01*
X148379490Y-100926546D01*
X148409826Y-100896211D01*
X148464866Y-100783625D01*
X148475500Y-100710636D01*
X148475500Y-99564364D01*
X148464866Y-99491375D01*
X148409826Y-99378789D01*
X148321211Y-99290174D01*
X148208625Y-99235134D01*
X148208626Y-99235134D01*
X148190377Y-99232475D01*
X148135636Y-99224500D01*
X147814364Y-99224500D01*
X147772392Y-99230615D01*
X147741373Y-99235134D01*
X147741367Y-99235136D01*
X147693479Y-99258547D01*
X147632897Y-99267117D01*
X147606521Y-99258547D01*
X147558632Y-99235136D01*
X147558626Y-99235134D01*
X147540377Y-99232475D01*
X147485636Y-99224500D01*
X147164364Y-99224500D01*
X147091375Y-99235134D01*
X147091374Y-99235134D01*
X147091369Y-99235135D01*
X147085354Y-99236994D01*
X147024175Y-99236107D01*
X147011184Y-99230615D01*
X146951099Y-99200000D01*
X149390657Y-99200000D01*
X149392786Y-99222720D01*
X149392787Y-99222726D01*
X149436595Y-99347922D01*
X149436595Y-99347923D01*
X149519014Y-99459593D01*
X149538357Y-99517640D01*
X149519886Y-99575971D01*
X149510853Y-99586628D01*
X149510141Y-99587609D01*
X149453983Y-99697823D01*
X149439500Y-99789263D01*
X149439500Y-100130737D01*
X149453983Y-100222174D01*
X149453984Y-100222178D01*
X149496467Y-100305554D01*
X149510141Y-100332391D01*
X149520505Y-100342755D01*
X149548281Y-100397270D01*
X149549500Y-100412757D01*
X149549500Y-100552761D01*
X149536237Y-100602260D01*
X149487016Y-100687513D01*
X149461263Y-100783624D01*
X149449500Y-100827525D01*
X149449500Y-100972475D01*
X149479087Y-101082896D01*
X149487017Y-101112489D01*
X149559487Y-101238010D01*
X149559489Y-101238012D01*
X149559491Y-101238015D01*
X149661985Y-101340509D01*
X149661987Y-101340510D01*
X149661989Y-101340512D01*
X149787511Y-101412982D01*
X149787512Y-101412982D01*
X149787515Y-101412984D01*
X149927525Y-101450500D01*
X149927526Y-101450500D01*
X150072474Y-101450500D01*
X150072475Y-101450500D01*
X150212485Y-101412984D01*
X150297737Y-101363763D01*
X150347236Y-101350500D01*
X151940691Y-101350500D01*
X152059309Y-101350500D01*
X154300500Y-101350500D01*
X154358691Y-101369407D01*
X154394655Y-101418907D01*
X154399500Y-101449500D01*
X154399500Y-102414672D01*
X154399501Y-102414684D01*
X154414033Y-102487736D01*
X154414035Y-102487742D01*
X154469397Y-102570599D01*
X154469399Y-102570601D01*
X154552260Y-102625966D01*
X154607808Y-102637015D01*
X154625315Y-102640498D01*
X154625320Y-102640498D01*
X154625326Y-102640500D01*
X154625327Y-102640500D01*
X156374673Y-102640500D01*
X156374674Y-102640500D01*
X156447740Y-102625966D01*
X156530601Y-102570601D01*
X156585966Y-102487740D01*
X156600500Y-102414674D01*
X156600500Y-100665326D01*
X156585966Y-100592260D01*
X156530601Y-100509399D01*
X156530599Y-100509397D01*
X156447742Y-100454035D01*
X156447740Y-100454034D01*
X156447737Y-100454033D01*
X156447736Y-100454033D01*
X156374684Y-100439501D01*
X156374674Y-100439500D01*
X154625326Y-100439500D01*
X154625325Y-100439500D01*
X154618559Y-100440846D01*
X154584614Y-100447598D01*
X154565302Y-100449500D01*
X152822381Y-100449500D01*
X152764190Y-100430593D01*
X152728226Y-100381093D01*
X152723948Y-100339918D01*
X152725500Y-100325485D01*
X152725499Y-99784516D01*
X152719412Y-99727886D01*
X152671628Y-99599774D01*
X152589687Y-99490313D01*
X152480226Y-99408372D01*
X152458046Y-99400099D01*
X152455097Y-99398999D01*
X152407184Y-99360948D01*
X152390787Y-99302000D01*
X152412170Y-99244673D01*
X152453378Y-99214144D01*
X152509728Y-99191922D01*
X152624717Y-99104723D01*
X152624723Y-99104717D01*
X152711922Y-98989728D01*
X152711925Y-98989724D01*
X152743565Y-98909489D01*
X154350000Y-98909489D01*
X154350000Y-99090510D01*
X154378316Y-99269289D01*
X154434250Y-99441440D01*
X154516430Y-99602728D01*
X154557667Y-99659488D01*
X155031980Y-99185174D01*
X155034075Y-99192993D01*
X155099901Y-99307007D01*
X155192993Y-99400099D01*
X155307007Y-99465925D01*
X155314821Y-99468019D01*
X154840511Y-99942330D01*
X154897275Y-99983571D01*
X155058559Y-100065749D01*
X155230710Y-100121683D01*
X155409490Y-100150000D01*
X155590510Y-100150000D01*
X155769289Y-100121683D01*
X155941440Y-100065749D01*
X156102728Y-99983569D01*
X156159487Y-99942330D01*
X155685176Y-99468019D01*
X155692993Y-99465925D01*
X155807007Y-99400099D01*
X155900099Y-99307007D01*
X155965925Y-99192993D01*
X155968019Y-99185176D01*
X156442330Y-99659487D01*
X156483569Y-99602728D01*
X156565749Y-99441440D01*
X156621683Y-99269289D01*
X156650000Y-99090510D01*
X156650000Y-98909489D01*
X156621683Y-98730710D01*
X156565749Y-98558559D01*
X156483571Y-98397275D01*
X156442330Y-98340511D01*
X155968019Y-98814821D01*
X155965925Y-98807007D01*
X155900099Y-98692993D01*
X155807007Y-98599901D01*
X155692993Y-98534075D01*
X155685174Y-98531980D01*
X156159488Y-98057667D01*
X156102728Y-98016430D01*
X155941440Y-97934250D01*
X155769289Y-97878316D01*
X155590510Y-97850000D01*
X155409490Y-97850000D01*
X155230710Y-97878316D01*
X155058559Y-97934250D01*
X154897267Y-98016432D01*
X154840510Y-98057667D01*
X155314823Y-98531980D01*
X155307007Y-98534075D01*
X155192993Y-98599901D01*
X155099901Y-98692993D01*
X155034075Y-98807007D01*
X155031980Y-98814823D01*
X154557667Y-98340510D01*
X154516432Y-98397267D01*
X154434250Y-98558559D01*
X154378316Y-98730710D01*
X154350000Y-98909489D01*
X152743565Y-98909489D01*
X152759413Y-98869302D01*
X152759420Y-98869285D01*
X152764867Y-98855470D01*
X152774999Y-98771104D01*
X152775000Y-98771100D01*
X152775000Y-98705001D01*
X152774999Y-98705000D01*
X151225001Y-98705000D01*
X151225000Y-98705001D01*
X151225000Y-98771104D01*
X151235132Y-98855468D01*
X151288077Y-98989729D01*
X151375276Y-99104717D01*
X151375282Y-99104723D01*
X151490271Y-99191922D01*
X151546621Y-99214144D01*
X151593819Y-99253081D01*
X151609116Y-99312323D01*
X151586670Y-99369243D01*
X151544903Y-99398999D01*
X151541954Y-99400099D01*
X151519774Y-99408372D01*
X151519773Y-99408372D01*
X151519772Y-99408373D01*
X151410315Y-99490311D01*
X151410311Y-99490315D01*
X151328373Y-99599771D01*
X151280587Y-99727887D01*
X151274500Y-99784518D01*
X151274500Y-100325478D01*
X151274500Y-100325481D01*
X151274501Y-100325484D01*
X151276052Y-100339918D01*
X151276053Y-100339919D01*
X151263473Y-100399797D01*
X151218100Y-100440846D01*
X151177620Y-100449500D01*
X150591742Y-100449500D01*
X150533551Y-100430593D01*
X150497587Y-100381093D01*
X150497587Y-100319907D01*
X150503533Y-100305554D01*
X150546016Y-100222176D01*
X150546017Y-100222175D01*
X150560500Y-100130735D01*
X150560499Y-99789266D01*
X150560499Y-99789263D01*
X150560499Y-99789262D01*
X150550778Y-99727887D01*
X150546017Y-99697825D01*
X150489859Y-99587609D01*
X150489855Y-99587605D01*
X150485278Y-99581304D01*
X150486554Y-99580376D01*
X150462858Y-99533869D01*
X150472429Y-99473437D01*
X150480985Y-99459592D01*
X150563405Y-99347920D01*
X150607211Y-99222729D01*
X150607212Y-99222727D01*
X150609344Y-99200000D01*
X149390657Y-99200000D01*
X146951099Y-99200000D01*
X146932969Y-99190762D01*
X146932970Y-99190762D01*
X146875000Y-99181580D01*
X146875000Y-99386923D01*
X146864941Y-99430403D01*
X146835135Y-99491371D01*
X146835134Y-99491373D01*
X146824500Y-99564367D01*
X146824500Y-100710634D01*
X146831790Y-100760673D01*
X146827880Y-100783519D01*
X146827594Y-100806698D01*
X146821675Y-100819773D01*
X146821469Y-100820981D01*
X146820765Y-100821784D01*
X146819563Y-100824441D01*
X146812018Y-100837510D01*
X146812017Y-100837512D01*
X146812016Y-100837515D01*
X146774500Y-100977525D01*
X146774500Y-101122475D01*
X146779020Y-101139342D01*
X146812017Y-101262489D01*
X146884487Y-101388010D01*
X146884489Y-101388012D01*
X146884491Y-101388015D01*
X146986985Y-101490509D01*
X146986987Y-101490510D01*
X146986989Y-101490512D01*
X147112511Y-101562982D01*
X147112512Y-101562982D01*
X147112515Y-101562984D01*
X147252525Y-101600500D01*
X147252526Y-101600500D01*
X147397476Y-101600500D01*
X147397476Y-101600499D01*
X147474876Y-101579760D01*
X147535977Y-101582961D01*
X147583528Y-101621466D01*
X147599500Y-101675386D01*
X147599500Y-102649435D01*
X147622067Y-102733657D01*
X147625091Y-102744942D01*
X147643023Y-102776000D01*
X147655745Y-102835848D01*
X147630859Y-102891744D01*
X147577871Y-102922337D01*
X147557287Y-102924500D01*
X146499500Y-102924500D01*
X146441309Y-102905593D01*
X146405345Y-102856093D01*
X146400500Y-102825500D01*
X146400500Y-101197533D01*
X146419407Y-101139342D01*
X146440877Y-101123742D01*
X146440295Y-101123060D01*
X146475000Y-101093418D01*
X146475000Y-100888076D01*
X146480110Y-100865984D01*
X146480230Y-100856323D01*
X146483297Y-100852208D01*
X146485059Y-100844596D01*
X146488523Y-100837510D01*
X146514866Y-100783625D01*
X146525500Y-100710636D01*
X146525500Y-99564364D01*
X146514866Y-99491375D01*
X146499328Y-99459592D01*
X146485059Y-99430403D01*
X146475000Y-99386923D01*
X146475000Y-99181581D01*
X146474999Y-99181580D01*
X146417031Y-99190762D01*
X146417029Y-99190762D01*
X146338814Y-99230615D01*
X146278381Y-99240186D01*
X146264649Y-99236995D01*
X146258627Y-99235134D01*
X146227608Y-99230615D01*
X146185636Y-99224500D01*
X145864364Y-99224500D01*
X145822392Y-99230615D01*
X145791373Y-99235134D01*
X145678790Y-99290173D01*
X145590173Y-99378790D01*
X145535134Y-99491373D01*
X145535134Y-99491375D01*
X145524500Y-99564364D01*
X145524500Y-100710636D01*
X145531790Y-100760673D01*
X145535134Y-100783626D01*
X145556595Y-100827525D01*
X145590174Y-100896211D01*
X145620505Y-100926542D01*
X145648281Y-100981057D01*
X145649500Y-100996544D01*
X145649500Y-103349435D01*
X145657849Y-103380593D01*
X145675091Y-103444942D01*
X145724523Y-103530559D01*
X145724525Y-103530562D01*
X145794438Y-103600475D01*
X145794440Y-103600476D01*
X145880058Y-103649908D01*
X145880056Y-103649908D01*
X145880060Y-103649909D01*
X145880062Y-103649910D01*
X145975565Y-103675500D01*
X146074435Y-103675500D01*
X147260500Y-103675500D01*
X147318691Y-103694407D01*
X147354655Y-103743907D01*
X147359500Y-103774500D01*
X147359500Y-105374672D01*
X147359501Y-105374684D01*
X147374033Y-105447736D01*
X147374035Y-105447742D01*
X147434816Y-105538709D01*
X147433818Y-105539375D01*
X147457071Y-105585013D01*
X147447500Y-105645445D01*
X147404235Y-105688710D01*
X147359290Y-105699500D01*
X145804860Y-105699500D01*
X145795156Y-105699023D01*
X145634218Y-105683171D01*
X145615184Y-105679385D01*
X145465107Y-105633860D01*
X145447176Y-105626433D01*
X145308862Y-105552502D01*
X145292726Y-105541720D01*
X145171494Y-105442228D01*
X145157771Y-105428505D01*
X145113591Y-105374672D01*
X145058274Y-105307267D01*
X145047496Y-105291136D01*
X144973565Y-105152820D01*
X144966139Y-105134893D01*
X144966138Y-105134891D01*
X144920613Y-104984813D01*
X144916827Y-104965778D01*
X144900977Y-104804843D01*
X144900500Y-104795140D01*
X144900500Y-98800000D01*
X149390656Y-98800000D01*
X149799999Y-98800000D01*
X149800000Y-98799999D01*
X149800000Y-98420001D01*
X150200000Y-98420001D01*
X150200000Y-98799999D01*
X150200001Y-98800000D01*
X150609343Y-98800000D01*
X150609343Y-98799999D01*
X150607213Y-98777279D01*
X150607212Y-98777273D01*
X150563405Y-98652079D01*
X150484641Y-98545360D01*
X150484639Y-98545358D01*
X150377920Y-98466594D01*
X150252727Y-98422787D01*
X150223000Y-98420000D01*
X150200001Y-98420000D01*
X150200000Y-98420001D01*
X149800000Y-98420001D01*
X149800000Y-98420000D01*
X149799999Y-98419999D01*
X149776997Y-98420000D01*
X149776996Y-98420000D01*
X149747278Y-98422786D01*
X149747273Y-98422787D01*
X149622079Y-98466594D01*
X149515360Y-98545358D01*
X149515358Y-98545360D01*
X149436594Y-98652079D01*
X149392788Y-98777270D01*
X149392787Y-98777272D01*
X149390656Y-98800000D01*
X144900500Y-98800000D01*
X144900500Y-93804860D01*
X144900977Y-93795156D01*
X144916828Y-93634218D01*
X144920614Y-93615187D01*
X144932029Y-93577558D01*
X144966142Y-93465100D01*
X144973564Y-93447183D01*
X145047501Y-93308856D01*
X145058271Y-93292737D01*
X145157775Y-93171491D01*
X145171491Y-93157775D01*
X145292728Y-93058278D01*
X145308863Y-93047498D01*
X145310807Y-93046459D01*
X145447187Y-92973561D01*
X145465097Y-92966143D01*
X145615188Y-92920613D01*
X145634217Y-92916828D01*
X145795157Y-92900976D01*
X145804861Y-92900500D01*
X145847594Y-92900500D01*
X146050220Y-92900500D01*
X146108411Y-92919407D01*
G37*
%TD.AperFunction*%
%TD*%
M02*
