%TF.GenerationSoftware,KiCad,Pcbnew,10.0.5*%
%TF.CreationDate,2026-10-07T20:43:11+01:00*%
%TF.ProjectId,CAN-Unit,43414e2d-556e-4697-942e-6b696361645f,rev?*%
%TF.SameCoordinates,Original*%
%TF.FileFunction,Legend,Top*%
%TF.FilePolarity,Positive*%
%FSLAX46Y46*%
G04 Gerber Fmt 4.6, Leading zero omitted, Abs format (unit mm)*
G04 Created by KiCad (PCBNEW 10.0.5) date 2026-10-07 20:43:11*
%MOMM*%
%LPD*%
G01*
G04 APERTURE LIST*
%ADD10C,0.100000*%
%ADD11C,0.130000*%
%ADD12C,0.120000*%
G04 APERTURE END LIST*
D10*
X145437646Y-104250104D02*
X145723360Y-104250104D01*
X145580503Y-104750104D02*
X145580503Y-104250104D01*
X145842407Y-104250104D02*
X146175740Y-104750104D01*
X146175740Y-104250104D02*
X145842407Y-104750104D01*
X146801190Y-96678490D02*
X146777381Y-96702300D01*
X146777381Y-96702300D02*
X146705952Y-96726109D01*
X146705952Y-96726109D02*
X146658333Y-96726109D01*
X146658333Y-96726109D02*
X146586905Y-96702300D01*
X146586905Y-96702300D02*
X146539286Y-96654680D01*
X146539286Y-96654680D02*
X146515476Y-96607061D01*
X146515476Y-96607061D02*
X146491667Y-96511823D01*
X146491667Y-96511823D02*
X146491667Y-96440395D01*
X146491667Y-96440395D02*
X146515476Y-96345157D01*
X146515476Y-96345157D02*
X146539286Y-96297538D01*
X146539286Y-96297538D02*
X146586905Y-96249919D01*
X146586905Y-96249919D02*
X146658333Y-96226109D01*
X146658333Y-96226109D02*
X146705952Y-96226109D01*
X146705952Y-96226109D02*
X146777381Y-96249919D01*
X146777381Y-96249919D02*
X146801190Y-96273728D01*
X146991667Y-96583252D02*
X147229762Y-96583252D01*
X146944048Y-96726109D02*
X147110714Y-96226109D01*
X147110714Y-96226109D02*
X147277381Y-96726109D01*
X147444047Y-96726109D02*
X147444047Y-96226109D01*
X147444047Y-96226109D02*
X147729761Y-96726109D01*
X147729761Y-96726109D02*
X147729761Y-96226109D01*
X148205952Y-96726109D02*
X147967857Y-96726109D01*
X147967857Y-96726109D02*
X147967857Y-96226109D01*
X149229060Y-96678490D02*
X149205251Y-96702300D01*
X149205251Y-96702300D02*
X149133822Y-96726109D01*
X149133822Y-96726109D02*
X149086203Y-96726109D01*
X149086203Y-96726109D02*
X149014775Y-96702300D01*
X149014775Y-96702300D02*
X148967156Y-96654680D01*
X148967156Y-96654680D02*
X148943346Y-96607061D01*
X148943346Y-96607061D02*
X148919537Y-96511823D01*
X148919537Y-96511823D02*
X148919537Y-96440395D01*
X148919537Y-96440395D02*
X148943346Y-96345157D01*
X148943346Y-96345157D02*
X148967156Y-96297538D01*
X148967156Y-96297538D02*
X149014775Y-96249919D01*
X149014775Y-96249919D02*
X149086203Y-96226109D01*
X149086203Y-96226109D02*
X149133822Y-96226109D01*
X149133822Y-96226109D02*
X149205251Y-96249919D01*
X149205251Y-96249919D02*
X149229060Y-96273728D01*
X149419537Y-96583252D02*
X149657632Y-96583252D01*
X149371918Y-96726109D02*
X149538584Y-96226109D01*
X149538584Y-96226109D02*
X149705251Y-96726109D01*
X149871917Y-96726109D02*
X149871917Y-96226109D01*
X149871917Y-96226109D02*
X150157631Y-96726109D01*
X150157631Y-96726109D02*
X150157631Y-96226109D01*
X150395727Y-96726109D02*
X150395727Y-96226109D01*
X150395727Y-96464204D02*
X150681441Y-96464204D01*
X150681441Y-96726109D02*
X150681441Y-96226109D01*
X153567156Y-104725501D02*
X153400490Y-104487406D01*
X153281442Y-104725501D02*
X153281442Y-104225501D01*
X153281442Y-104225501D02*
X153471918Y-104225501D01*
X153471918Y-104225501D02*
X153519537Y-104249311D01*
X153519537Y-104249311D02*
X153543347Y-104273120D01*
X153543347Y-104273120D02*
X153567156Y-104320739D01*
X153567156Y-104320739D02*
X153567156Y-104392168D01*
X153567156Y-104392168D02*
X153543347Y-104439787D01*
X153543347Y-104439787D02*
X153519537Y-104463596D01*
X153519537Y-104463596D02*
X153471918Y-104487406D01*
X153471918Y-104487406D02*
X153281442Y-104487406D01*
X153733823Y-104225501D02*
X154067156Y-104725501D01*
X154067156Y-104225501D02*
X153733823Y-104725501D01*
X153036993Y-92996456D02*
X153322707Y-92996456D01*
X153179850Y-93496456D02*
X153179850Y-92996456D01*
X153489373Y-93234551D02*
X153656040Y-93234551D01*
X153727468Y-93496456D02*
X153489373Y-93496456D01*
X153489373Y-93496456D02*
X153489373Y-92996456D01*
X153489373Y-92996456D02*
X153727468Y-92996456D01*
X154227468Y-93496456D02*
X154060802Y-93258361D01*
X153941754Y-93496456D02*
X153941754Y-92996456D01*
X153941754Y-92996456D02*
X154132230Y-92996456D01*
X154132230Y-92996456D02*
X154179849Y-93020266D01*
X154179849Y-93020266D02*
X154203659Y-93044075D01*
X154203659Y-93044075D02*
X154227468Y-93091694D01*
X154227468Y-93091694D02*
X154227468Y-93163123D01*
X154227468Y-93163123D02*
X154203659Y-93210742D01*
X154203659Y-93210742D02*
X154179849Y-93234551D01*
X154179849Y-93234551D02*
X154132230Y-93258361D01*
X154132230Y-93258361D02*
X153941754Y-93258361D01*
X154441754Y-93496456D02*
X154441754Y-92996456D01*
X154441754Y-92996456D02*
X154608421Y-93353599D01*
X154608421Y-93353599D02*
X154775087Y-92996456D01*
X154775087Y-92996456D02*
X154775087Y-93496456D01*
X154815088Y-103450618D02*
X155124612Y-103450618D01*
X155124612Y-103450618D02*
X154957945Y-103641094D01*
X154957945Y-103641094D02*
X155029374Y-103641094D01*
X155029374Y-103641094D02*
X155076993Y-103664904D01*
X155076993Y-103664904D02*
X155100802Y-103688713D01*
X155100802Y-103688713D02*
X155124612Y-103736332D01*
X155124612Y-103736332D02*
X155124612Y-103855380D01*
X155124612Y-103855380D02*
X155100802Y-103902999D01*
X155100802Y-103902999D02*
X155076993Y-103926809D01*
X155076993Y-103926809D02*
X155029374Y-103950618D01*
X155029374Y-103950618D02*
X154886517Y-103950618D01*
X154886517Y-103950618D02*
X154838898Y-103926809D01*
X154838898Y-103926809D02*
X154815088Y-103902999D01*
X155267469Y-103450618D02*
X155434135Y-103950618D01*
X155434135Y-103950618D02*
X155600802Y-103450618D01*
X155719849Y-103450618D02*
X156029373Y-103450618D01*
X156029373Y-103450618D02*
X155862706Y-103641094D01*
X155862706Y-103641094D02*
X155934135Y-103641094D01*
X155934135Y-103641094D02*
X155981754Y-103664904D01*
X155981754Y-103664904D02*
X156005563Y-103688713D01*
X156005563Y-103688713D02*
X156029373Y-103736332D01*
X156029373Y-103736332D02*
X156029373Y-103855380D01*
X156029373Y-103855380D02*
X156005563Y-103902999D01*
X156005563Y-103902999D02*
X155981754Y-103926809D01*
X155981754Y-103926809D02*
X155934135Y-103950618D01*
X155934135Y-103950618D02*
X155791278Y-103950618D01*
X155791278Y-103950618D02*
X155743659Y-103926809D01*
X155743659Y-103926809D02*
X155719849Y-103902999D01*
X155126990Y-96561040D02*
X155079371Y-96537230D01*
X155079371Y-96537230D02*
X155007942Y-96537230D01*
X155007942Y-96537230D02*
X154936514Y-96561040D01*
X154936514Y-96561040D02*
X154888895Y-96608659D01*
X154888895Y-96608659D02*
X154865085Y-96656278D01*
X154865085Y-96656278D02*
X154841276Y-96751516D01*
X154841276Y-96751516D02*
X154841276Y-96822944D01*
X154841276Y-96822944D02*
X154865085Y-96918182D01*
X154865085Y-96918182D02*
X154888895Y-96965801D01*
X154888895Y-96965801D02*
X154936514Y-97013421D01*
X154936514Y-97013421D02*
X155007942Y-97037230D01*
X155007942Y-97037230D02*
X155055561Y-97037230D01*
X155055561Y-97037230D02*
X155126990Y-97013421D01*
X155126990Y-97013421D02*
X155150799Y-96989611D01*
X155150799Y-96989611D02*
X155150799Y-96822944D01*
X155150799Y-96822944D02*
X155055561Y-96822944D01*
X155365085Y-97037230D02*
X155365085Y-96537230D01*
X155365085Y-96537230D02*
X155650799Y-97037230D01*
X155650799Y-97037230D02*
X155650799Y-96537230D01*
X155888895Y-97037230D02*
X155888895Y-96537230D01*
X155888895Y-96537230D02*
X156007943Y-96537230D01*
X156007943Y-96537230D02*
X156079371Y-96561040D01*
X156079371Y-96561040D02*
X156126990Y-96608659D01*
X156126990Y-96608659D02*
X156150800Y-96656278D01*
X156150800Y-96656278D02*
X156174609Y-96751516D01*
X156174609Y-96751516D02*
X156174609Y-96822944D01*
X156174609Y-96822944D02*
X156150800Y-96918182D01*
X156150800Y-96918182D02*
X156126990Y-96965801D01*
X156126990Y-96965801D02*
X156079371Y-97013421D01*
X156079371Y-97013421D02*
X156007943Y-97037230D01*
X156007943Y-97037230D02*
X155888895Y-97037230D01*
D11*
X147100000Y-102117073D02*
X147433333Y-102117073D01*
X147033333Y-102317073D02*
X147266667Y-101617073D01*
X147266667Y-101617073D02*
X147500000Y-102317073D01*
X147700000Y-102283740D02*
X147800000Y-102317073D01*
X147800000Y-102317073D02*
X147966667Y-102317073D01*
X147966667Y-102317073D02*
X148033333Y-102283740D01*
X148033333Y-102283740D02*
X148066667Y-102250406D01*
X148066667Y-102250406D02*
X148100000Y-102183740D01*
X148100000Y-102183740D02*
X148100000Y-102117073D01*
X148100000Y-102117073D02*
X148066667Y-102050406D01*
X148066667Y-102050406D02*
X148033333Y-102017073D01*
X148033333Y-102017073D02*
X147966667Y-101983740D01*
X147966667Y-101983740D02*
X147833333Y-101950406D01*
X147833333Y-101950406D02*
X147766667Y-101917073D01*
X147766667Y-101917073D02*
X147733333Y-101883740D01*
X147733333Y-101883740D02*
X147700000Y-101817073D01*
X147700000Y-101817073D02*
X147700000Y-101750406D01*
X147700000Y-101750406D02*
X147733333Y-101683740D01*
X147733333Y-101683740D02*
X147766667Y-101650406D01*
X147766667Y-101650406D02*
X147833333Y-101617073D01*
X147833333Y-101617073D02*
X148000000Y-101617073D01*
X148000000Y-101617073D02*
X148100000Y-101650406D01*
X148300000Y-101617073D02*
X148700000Y-101617073D01*
X148500000Y-102317073D02*
X148500000Y-101617073D01*
X149200000Y-102283740D02*
X149133333Y-102317073D01*
X149133333Y-102317073D02*
X149000000Y-102317073D01*
X149000000Y-102317073D02*
X148933333Y-102283740D01*
X148933333Y-102283740D02*
X148900000Y-102217073D01*
X148900000Y-102217073D02*
X148900000Y-101950406D01*
X148900000Y-101950406D02*
X148933333Y-101883740D01*
X148933333Y-101883740D02*
X149000000Y-101850406D01*
X149000000Y-101850406D02*
X149133333Y-101850406D01*
X149133333Y-101850406D02*
X149200000Y-101883740D01*
X149200000Y-101883740D02*
X149233333Y-101950406D01*
X149233333Y-101950406D02*
X149233333Y-102017073D01*
X149233333Y-102017073D02*
X148900000Y-102083740D01*
X149833333Y-102283740D02*
X149766667Y-102317073D01*
X149766667Y-102317073D02*
X149633333Y-102317073D01*
X149633333Y-102317073D02*
X149566667Y-102283740D01*
X149566667Y-102283740D02*
X149533333Y-102250406D01*
X149533333Y-102250406D02*
X149500000Y-102183740D01*
X149500000Y-102183740D02*
X149500000Y-101983740D01*
X149500000Y-101983740D02*
X149533333Y-101917073D01*
X149533333Y-101917073D02*
X149566667Y-101883740D01*
X149566667Y-101883740D02*
X149633333Y-101850406D01*
X149633333Y-101850406D02*
X149766667Y-101850406D01*
X149766667Y-101850406D02*
X149833333Y-101883740D01*
X150133333Y-102317073D02*
X150133333Y-101617073D01*
X150433333Y-102317073D02*
X150433333Y-101950406D01*
X150433333Y-101950406D02*
X150400000Y-101883740D01*
X150400000Y-101883740D02*
X150333333Y-101850406D01*
X150333333Y-101850406D02*
X150233333Y-101850406D01*
X150233333Y-101850406D02*
X150166667Y-101883740D01*
X150166667Y-101883740D02*
X150133333Y-101917073D01*
X151100000Y-102317073D02*
X150766666Y-102317073D01*
X150766666Y-102317073D02*
X150766666Y-101617073D01*
X151633333Y-102317073D02*
X151633333Y-101950406D01*
X151633333Y-101950406D02*
X151600000Y-101883740D01*
X151600000Y-101883740D02*
X151533333Y-101850406D01*
X151533333Y-101850406D02*
X151400000Y-101850406D01*
X151400000Y-101850406D02*
X151333333Y-101883740D01*
X151633333Y-102283740D02*
X151566667Y-102317073D01*
X151566667Y-102317073D02*
X151400000Y-102317073D01*
X151400000Y-102317073D02*
X151333333Y-102283740D01*
X151333333Y-102283740D02*
X151300000Y-102217073D01*
X151300000Y-102217073D02*
X151300000Y-102150406D01*
X151300000Y-102150406D02*
X151333333Y-102083740D01*
X151333333Y-102083740D02*
X151400000Y-102050406D01*
X151400000Y-102050406D02*
X151566667Y-102050406D01*
X151566667Y-102050406D02*
X151633333Y-102017073D01*
X151966666Y-102317073D02*
X151966666Y-101617073D01*
X151966666Y-101883740D02*
X152033333Y-101850406D01*
X152033333Y-101850406D02*
X152166666Y-101850406D01*
X152166666Y-101850406D02*
X152233333Y-101883740D01*
X152233333Y-101883740D02*
X152266666Y-101917073D01*
X152266666Y-101917073D02*
X152300000Y-101983740D01*
X152300000Y-101983740D02*
X152300000Y-102183740D01*
X152300000Y-102183740D02*
X152266666Y-102250406D01*
X152266666Y-102250406D02*
X152233333Y-102283740D01*
X152233333Y-102283740D02*
X152166666Y-102317073D01*
X152166666Y-102317073D02*
X152033333Y-102317073D01*
X152033333Y-102317073D02*
X151966666Y-102283740D01*
D10*
X149916666Y-98178490D02*
X149892857Y-98202300D01*
X149892857Y-98202300D02*
X149821428Y-98226109D01*
X149821428Y-98226109D02*
X149773809Y-98226109D01*
X149773809Y-98226109D02*
X149702381Y-98202300D01*
X149702381Y-98202300D02*
X149654762Y-98154680D01*
X149654762Y-98154680D02*
X149630952Y-98107061D01*
X149630952Y-98107061D02*
X149607143Y-98011823D01*
X149607143Y-98011823D02*
X149607143Y-97940395D01*
X149607143Y-97940395D02*
X149630952Y-97845157D01*
X149630952Y-97845157D02*
X149654762Y-97797538D01*
X149654762Y-97797538D02*
X149702381Y-97749919D01*
X149702381Y-97749919D02*
X149773809Y-97726109D01*
X149773809Y-97726109D02*
X149821428Y-97726109D01*
X149821428Y-97726109D02*
X149892857Y-97749919D01*
X149892857Y-97749919D02*
X149916666Y-97773728D01*
X150392857Y-98226109D02*
X150107143Y-98226109D01*
X150250000Y-98226109D02*
X150250000Y-97726109D01*
X150250000Y-97726109D02*
X150202381Y-97797538D01*
X150202381Y-97797538D02*
X150154762Y-97845157D01*
X150154762Y-97845157D02*
X150107143Y-97868966D01*
X153124306Y-94646552D02*
X152957640Y-94408457D01*
X152838592Y-94646552D02*
X152838592Y-94146552D01*
X152838592Y-94146552D02*
X153029068Y-94146552D01*
X153029068Y-94146552D02*
X153076687Y-94170362D01*
X153076687Y-94170362D02*
X153100497Y-94194171D01*
X153100497Y-94194171D02*
X153124306Y-94241790D01*
X153124306Y-94241790D02*
X153124306Y-94313219D01*
X153124306Y-94313219D02*
X153100497Y-94360838D01*
X153100497Y-94360838D02*
X153076687Y-94384647D01*
X153076687Y-94384647D02*
X153029068Y-94408457D01*
X153029068Y-94408457D02*
X152838592Y-94408457D01*
X153600497Y-94646552D02*
X153314783Y-94646552D01*
X153457640Y-94646552D02*
X153457640Y-94146552D01*
X153457640Y-94146552D02*
X153410021Y-94217981D01*
X153410021Y-94217981D02*
X153362402Y-94265600D01*
X153362402Y-94265600D02*
X153314783Y-94289409D01*
X151918768Y-97543069D02*
X151894959Y-97566879D01*
X151894959Y-97566879D02*
X151823530Y-97590688D01*
X151823530Y-97590688D02*
X151775911Y-97590688D01*
X151775911Y-97590688D02*
X151704483Y-97566879D01*
X151704483Y-97566879D02*
X151656864Y-97519259D01*
X151656864Y-97519259D02*
X151633054Y-97471640D01*
X151633054Y-97471640D02*
X151609245Y-97376402D01*
X151609245Y-97376402D02*
X151609245Y-97304974D01*
X151609245Y-97304974D02*
X151633054Y-97209736D01*
X151633054Y-97209736D02*
X151656864Y-97162117D01*
X151656864Y-97162117D02*
X151704483Y-97114498D01*
X151704483Y-97114498D02*
X151775911Y-97090688D01*
X151775911Y-97090688D02*
X151823530Y-97090688D01*
X151823530Y-97090688D02*
X151894959Y-97114498D01*
X151894959Y-97114498D02*
X151918768Y-97138307D01*
X152109245Y-97138307D02*
X152133054Y-97114498D01*
X152133054Y-97114498D02*
X152180673Y-97090688D01*
X152180673Y-97090688D02*
X152299721Y-97090688D01*
X152299721Y-97090688D02*
X152347340Y-97114498D01*
X152347340Y-97114498D02*
X152371149Y-97138307D01*
X152371149Y-97138307D02*
X152394959Y-97185926D01*
X152394959Y-97185926D02*
X152394959Y-97233545D01*
X152394959Y-97233545D02*
X152371149Y-97304974D01*
X152371149Y-97304974D02*
X152085435Y-97590688D01*
X152085435Y-97590688D02*
X152394959Y-97590688D01*
%TO.C,C1*%
D12*
X149640000Y-99587836D02*
X149640000Y-99372164D01*
X150360000Y-99587836D02*
X150360000Y-99372164D01*
%TO.C,R1*%
X152942742Y-94977500D02*
X153417258Y-94977500D01*
X152942742Y-96022500D02*
X153417258Y-96022500D01*
%TO.C,C2*%
X151490000Y-99420580D02*
X151490000Y-99139420D01*
X152510000Y-99420580D02*
X152510000Y-99139420D01*
%TO.C,JP1*%
X155000000Y-93320000D02*
X157000000Y-93320000D01*
X155000000Y-96120000D02*
X155000000Y-93320000D01*
X157000000Y-93320000D02*
X157000000Y-96120000D01*
X157000000Y-96120000D02*
X155000000Y-96120000D01*
%TO.C,J2*%
X147080000Y-105880000D02*
X147080000Y-104500000D01*
X148460000Y-105880000D02*
X147080000Y-105880000D01*
X149730000Y-103120000D02*
X152380000Y-103120000D01*
X149730000Y-105880000D02*
X149730000Y-103120000D01*
X149730000Y-105880000D02*
X152380000Y-105880000D01*
X152380000Y-105880000D02*
X152380000Y-103120000D01*
%TO.C,U1*%
X145440000Y-98090000D02*
X145515000Y-98090000D01*
X145440000Y-99910000D02*
X145440000Y-98090000D01*
X145515000Y-99910000D02*
X145440000Y-99910000D01*
X148485000Y-98090000D02*
X148560000Y-98090000D01*
X148560000Y-98090000D02*
X148560000Y-99910000D01*
X148560000Y-99910000D02*
X148485000Y-99910000D01*
X145510000Y-100450000D02*
X145180000Y-100690000D01*
X145180000Y-100210000D01*
X145510000Y-100450000D01*
G36*
X145510000Y-100450000D02*
G01*
X145180000Y-100690000D01*
X145180000Y-100210000D01*
X145510000Y-100450000D01*
G37*
%TO.C,J1*%
X154120000Y-100270000D02*
X154120000Y-97620000D01*
X156880000Y-97620000D02*
X154120000Y-97620000D01*
X156880000Y-100270000D02*
X154120000Y-100270000D01*
X156880000Y-100270000D02*
X156880000Y-97620000D01*
X156880000Y-101540000D02*
X156880000Y-102920000D01*
X156880000Y-102920000D02*
X155500000Y-102920000D01*
%TO.C,J3*%
X145840000Y-95380000D02*
X145840000Y-94000000D01*
X147220000Y-95380000D02*
X145840000Y-95380000D01*
X148490000Y-92620000D02*
X151140000Y-92620000D01*
X148490000Y-95380000D02*
X148490000Y-92620000D01*
X148490000Y-95380000D02*
X151140000Y-95380000D01*
X151140000Y-95380000D02*
X151140000Y-92620000D01*
%TD*%
M02*
