%TF.GenerationSoftware,KiCad,Pcbnew,7.0.11+dfsg-1build4*%
%TF.CreationDate,2026-08-17T07:07:22+00:00*%
%TF.ProjectId,STM32G474RE-CoreBoard,53544d33-3247-4343-9734-52452d436f72,rev?*%
%TF.SameCoordinates,Original*%
%TF.FileFunction,Paste,Bot*%
%TF.FilePolarity,Positive*%
%FSLAX46Y46*%
G04 Gerber Fmt 4.6, Leading zero omitted, Abs format (unit mm)*
G04 Created by KiCad (PCBNEW 7.0.11+dfsg-1build4) date 2026-08-17 07:07:22*
%MOMM*%
%LPD*%
G01*
G04 APERTURE LIST*
G04 Aperture macros list*
%AMRoundRect*
0 Rectangle with rounded corners*
0 $1 Rounding radius*
0 $2 $3 $4 $5 $6 $7 $8 $9 X,Y pos of 4 corners*
0 Add a 4 corners polygon primitive as box body*
4,1,4,$2,$3,$4,$5,$6,$7,$8,$9,$2,$3,0*
0 Add four circle primitives for the rounded corners*
1,1,$1+$1,$2,$3*
1,1,$1+$1,$4,$5*
1,1,$1+$1,$6,$7*
1,1,$1+$1,$8,$9*
0 Add four rect primitives between the rounded corners*
20,1,$1+$1,$2,$3,$4,$5,0*
20,1,$1+$1,$4,$5,$6,$7,0*
20,1,$1+$1,$6,$7,$8,$9,0*
20,1,$1+$1,$8,$9,$2,$3,0*%
G04 Aperture macros list end*
%ADD10RoundRect,0.225000X-0.335876X-0.017678X-0.017678X-0.335876X0.335876X0.017678X0.017678X0.335876X0*%
%ADD11RoundRect,0.140000X-0.140000X-0.170000X0.140000X-0.170000X0.140000X0.170000X-0.140000X0.170000X0*%
%ADD12RoundRect,0.140000X0.021213X-0.219203X0.219203X-0.021213X-0.021213X0.219203X-0.219203X0.021213X0*%
%ADD13RoundRect,0.140000X0.140000X0.170000X-0.140000X0.170000X-0.140000X-0.170000X0.140000X-0.170000X0*%
%ADD14RoundRect,0.135000X-0.135000X-0.185000X0.135000X-0.185000X0.135000X0.185000X-0.135000X0.185000X0*%
%ADD15RoundRect,0.250000X-0.250000X-0.475000X0.250000X-0.475000X0.250000X0.475000X-0.250000X0.475000X0*%
%ADD16RoundRect,0.140000X-0.219203X-0.021213X-0.021213X-0.219203X0.219203X0.021213X0.021213X0.219203X0*%
%ADD17R,1.800000X1.000000*%
%ADD18RoundRect,0.225000X-0.225000X-0.250000X0.225000X-0.250000X0.225000X0.250000X-0.225000X0.250000X0*%
%ADD19R,2.400000X2.000000*%
%ADD20RoundRect,0.250000X-0.159099X0.512652X-0.512652X0.159099X0.159099X-0.512652X0.512652X-0.159099X0*%
%ADD21RoundRect,0.150000X-0.512500X-0.150000X0.512500X-0.150000X0.512500X0.150000X-0.512500X0.150000X0*%
%ADD22RoundRect,0.135000X0.226274X0.035355X0.035355X0.226274X-0.226274X-0.035355X-0.035355X-0.226274X0*%
G04 APERTURE END LIST*
D10*
%TO.C,C10*%
X166051992Y-116051992D03*
X167148008Y-117148008D03*
%TD*%
D11*
%TO.C,C15*%
X142660000Y-84850000D03*
X143620000Y-84850000D03*
%TD*%
%TO.C,C14*%
X142660000Y-94230000D03*
X143620000Y-94230000D03*
%TD*%
D12*
%TO.C,C3*%
X157560589Y-92439411D03*
X158239411Y-91760589D03*
%TD*%
D13*
%TO.C,C17*%
X124680000Y-93000000D03*
X123720000Y-93000000D03*
%TD*%
D14*
%TO.C,R1*%
X186090000Y-93550000D03*
X187110000Y-93550000D03*
%TD*%
D15*
%TO.C,C7*%
X184050000Y-109500000D03*
X185950000Y-109500000D03*
%TD*%
D14*
%TO.C,R2*%
X186090000Y-90550000D03*
X187110000Y-90550000D03*
%TD*%
D11*
%TO.C,C13*%
X142660000Y-90530000D03*
X143620000Y-90530000D03*
%TD*%
D16*
%TO.C,C2*%
X157560589Y-107560589D03*
X158239411Y-108239411D03*
%TD*%
D17*
%TO.C,Y2*%
X137140000Y-84850000D03*
X137140000Y-87350000D03*
%TD*%
D18*
%TO.C,C6*%
X184225000Y-116500000D03*
X185775000Y-116500000D03*
%TD*%
D15*
%TO.C,C8*%
X184050000Y-113000000D03*
X185950000Y-113000000D03*
%TD*%
D16*
%TO.C,C4*%
X141760589Y-91760589D03*
X142439411Y-92439411D03*
%TD*%
D19*
%TO.C,Y1*%
X137140000Y-90530000D03*
X137140000Y-94230000D03*
%TD*%
D16*
%TO.C,C9*%
X163460589Y-113460589D03*
X164139411Y-114139411D03*
%TD*%
D20*
%TO.C,C5*%
X138671751Y-111328249D03*
X137328249Y-112671751D03*
%TD*%
D21*
%TO.C,U2*%
X183862500Y-106250000D03*
X183862500Y-105300000D03*
X183862500Y-104350000D03*
X186137500Y-104350000D03*
X186137500Y-106250000D03*
%TD*%
D22*
%TO.C,R3*%
X161560624Y-111560624D03*
X160839376Y-110839376D03*
%TD*%
D12*
%TO.C,C1*%
X141760589Y-108239411D03*
X142439411Y-107560589D03*
%TD*%
D11*
%TO.C,C16*%
X142660000Y-87350000D03*
X143620000Y-87350000D03*
%TD*%
M02*
