%TF.GenerationSoftware,KiCad,Pcbnew,7.0.11+dfsg-1build4*%
%TF.CreationDate,2026-08-17T02:14:06+00:00*%
%TF.ProjectId,STM32G474RE-CoreBoard,53544d33-3247-4343-9734-52452d436f72,rev?*%
%TF.SameCoordinates,Original*%
%TF.FileFunction,Copper,L2,Inr*%
%TF.FilePolarity,Positive*%
%FSLAX46Y46*%
G04 Gerber Fmt 4.6, Leading zero omitted, Abs format (unit mm)*
G04 Created by KiCad (PCBNEW 7.0.11+dfsg-1build4) date 2026-08-17 02:14:06*
%MOMM*%
%LPD*%
G01*
G04 APERTURE LIST*
%TA.AperFunction,ComponentPad*%
%ADD10O,2.100000X1.000000*%
%TD*%
%TA.AperFunction,ComponentPad*%
%ADD11O,1.600000X1.000000*%
%TD*%
%TA.AperFunction,ComponentPad*%
%ADD12R,1.700000X1.700000*%
%TD*%
%TA.AperFunction,ComponentPad*%
%ADD13O,1.700000X1.700000*%
%TD*%
%TA.AperFunction,ViaPad*%
%ADD14C,0.600000*%
%TD*%
%TA.AperFunction,ViaPad*%
%ADD15C,0.500000*%
%TD*%
%TA.AperFunction,ViaPad*%
%ADD16C,0.450000*%
%TD*%
G04 APERTURE END LIST*
D10*
%TO.N,GND*%
%TO.C,J1*%
X183220000Y-96620000D03*
D11*
X187400000Y-96620000D03*
D10*
X183220000Y-87980000D03*
D11*
X187400000Y-87980000D03*
%TD*%
D12*
%TO.N,+3V3*%
%TO.C,J5*%
X130949999Y-77140000D03*
D13*
%TO.N,GND*%
X133489999Y-77140000D03*
%TO.N,PB9*%
X136029999Y-77140000D03*
%TO.N,BOOT0*%
X138569999Y-77140000D03*
%TO.N,PB7*%
X141109999Y-77140000D03*
%TO.N,PB6*%
X143649999Y-77140000D03*
%TO.N,PB5*%
X146189999Y-77140000D03*
%TO.N,PB4*%
X148729999Y-77140000D03*
%TO.N,SWO*%
X151269999Y-77140000D03*
%TO.N,PD2*%
X153809999Y-77140000D03*
%TO.N,PC12*%
X156349999Y-77140000D03*
%TO.N,PC11*%
X158889999Y-77140000D03*
%TO.N,PC10*%
X161429999Y-77140000D03*
%TO.N,PA15*%
X163969999Y-77140000D03*
%TO.N,SWCLK*%
X166509999Y-77140000D03*
%TO.N,SWDIO*%
X169049999Y-77140000D03*
%TD*%
D12*
%TO.N,PA3*%
%TO.C,J3*%
X130949999Y-122860000D03*
D13*
%TO.N,PA4*%
X133489999Y-122860000D03*
%TO.N,LED_A*%
X136029999Y-122860000D03*
%TO.N,PA6*%
X138569999Y-122860000D03*
%TO.N,PA7*%
X141109999Y-122860000D03*
%TO.N,PC4*%
X143649999Y-122860000D03*
%TO.N,PC5*%
X146189999Y-122860000D03*
%TO.N,PB0*%
X148729999Y-122860000D03*
%TO.N,PB1*%
X151269999Y-122860000D03*
%TO.N,PB2*%
X153809999Y-122860000D03*
%TO.N,GND*%
X156349999Y-122860000D03*
%TO.N,+3V3A*%
X158889999Y-122860000D03*
X161429999Y-122860000D03*
%TO.N,PB10*%
X163969999Y-122860000D03*
%TO.N,GND*%
X166509999Y-122860000D03*
%TO.N,+3V3*%
X169049999Y-122860000D03*
%TD*%
D12*
%TO.N,+3V3*%
%TO.C,J4*%
X172860000Y-80950000D03*
D13*
%TO.N,GND*%
X172860000Y-83490000D03*
%TO.N,USB_DP*%
X172860000Y-86030000D03*
%TO.N,USB_DM*%
X172860000Y-88570000D03*
%TO.N,PA10*%
X172860000Y-91110000D03*
%TO.N,PA9*%
X172860000Y-93650000D03*
%TO.N,PA8*%
X172860000Y-96190000D03*
%TO.N,PC9*%
X172860000Y-98730000D03*
%TO.N,PC8*%
X172860000Y-101270000D03*
%TO.N,PC7*%
X172860000Y-103810000D03*
%TO.N,PC6*%
X172860000Y-106350000D03*
%TO.N,PB15*%
X172860000Y-108890000D03*
%TO.N,PB14*%
X172860000Y-111430000D03*
%TO.N,PB13*%
X172860000Y-113970000D03*
%TO.N,PB12*%
X172860000Y-116510000D03*
%TO.N,PB11*%
X172860000Y-119050000D03*
%TD*%
D12*
%TO.N,VBUS*%
%TO.C,J6*%
X184400000Y-68600000D03*
D13*
%TO.N,GND*%
X181860000Y-68600000D03*
%TO.N,PB6*%
X179320000Y-68600000D03*
%TO.N,PB7*%
X176780000Y-68600000D03*
%TO.N,NRST*%
X174240000Y-68600000D03*
%TO.N,SWO*%
X171700000Y-68600000D03*
%TO.N,GND*%
X169160000Y-68600000D03*
%TO.N,SWCLK*%
X166620000Y-68600000D03*
%TO.N,SWDIO*%
X164080000Y-68600000D03*
%TO.N,+3V3*%
X161540000Y-68600000D03*
%TD*%
D12*
%TO.N,+3V3*%
%TO.C,J2*%
X127140000Y-80950000D03*
D13*
%TO.N,PC13*%
X127140000Y-83490000D03*
%TO.N,N/C*%
X127140000Y-86030000D03*
X127140000Y-88570000D03*
X127140000Y-91110000D03*
X127140000Y-93650000D03*
%TO.N,NRST*%
X127140000Y-96190000D03*
%TO.N,PC0*%
X127140000Y-98730000D03*
%TO.N,PC1*%
X127140000Y-101270000D03*
%TO.N,PC2*%
X127140000Y-103810000D03*
%TO.N,PC3*%
X127140000Y-106350000D03*
%TO.N,PA0*%
X127140000Y-108890000D03*
%TO.N,PA1*%
X127140000Y-111430000D03*
%TO.N,PA2*%
X127140000Y-113970000D03*
%TO.N,GND*%
X127140000Y-116510000D03*
%TO.N,+3V3*%
X127140000Y-119050000D03*
%TD*%
D14*
%TO.N,+3V3*%
X184225000Y-118000000D03*
D15*
X146250000Y-97325000D03*
D14*
X184050000Y-114500000D03*
X160570674Y-112550573D03*
X158409117Y-106712060D03*
X158409117Y-93287939D03*
X142609117Y-109087939D03*
X187519053Y-107403824D03*
X159739999Y-68600000D03*
X154600000Y-61750000D03*
X140912060Y-92609117D03*
X137681801Y-110338299D03*
D15*
X153750000Y-102675000D03*
X147325000Y-103750000D03*
X152675000Y-96250000D03*
X145674999Y-96250000D03*
%TO.N,LSE_IN*%
X131139999Y-86030000D03*
%TO.N,LSE_OUT*%
X131139999Y-88570000D03*
%TO.N,HSE_IN*%
X131139999Y-91110000D03*
%TO.N,HSE_OUT*%
X131139999Y-93650000D03*
%TO.N,NRST*%
X134760000Y-72300000D03*
X174240000Y-72300000D03*
D14*
X125400000Y-93000000D03*
D15*
%TO.N,GND*%
X146125000Y-102900000D03*
X153875000Y-97100000D03*
X152900000Y-103875000D03*
X150900000Y-103875000D03*
X147100000Y-96125000D03*
D14*
%TO.N,LED_A*%
X129337500Y-66200000D03*
D15*
%TO.N,+3V3A*%
X152250000Y-102675000D03*
X151750000Y-101475000D03*
D16*
%TO.N,USB_DM*%
X178005000Y-93050000D03*
X178005000Y-92050000D03*
%TO.N,USB_DP*%
X180005000Y-91550000D03*
X180005000Y-92550000D03*
D15*
%TO.N,SWDIO*%
X169049999Y-70899999D03*
X164080000Y-70899999D03*
%TO.N,SWO*%
X151269999Y-71600000D03*
X171700000Y-71600000D03*
%TO.N,PB6*%
X143649999Y-73699999D03*
X179320000Y-73699999D03*
%TO.N,PB7*%
X176780000Y-73000000D03*
X141109999Y-73000000D03*
D14*
%TO.N,VBUS*%
X176005000Y-94750000D03*
X181455000Y-89850000D03*
X184400000Y-70100000D03*
D15*
%TO.N,CC1*%
X183505000Y-93550000D03*
%TO.N,CC2*%
X183505000Y-90550000D03*
%TD*%
%TA.AperFunction,Conductor*%
%TO.N,GND*%
G36*
X187724567Y-59403869D02*
G01*
X187886251Y-59450449D01*
X187896722Y-59454113D01*
X188166134Y-59565708D01*
X188176136Y-59570525D01*
X188431354Y-59711578D01*
X188440755Y-59717485D01*
X188678575Y-59886228D01*
X188687254Y-59893149D01*
X188717388Y-59920078D01*
X188904697Y-60087467D01*
X188912532Y-60095302D01*
X189006053Y-60199952D01*
X189106850Y-60312745D01*
X189113771Y-60321424D01*
X189282514Y-60559244D01*
X189288421Y-60568645D01*
X189429474Y-60823863D01*
X189434291Y-60833865D01*
X189545884Y-61103273D01*
X189549551Y-61113752D01*
X189572887Y-61194750D01*
X189595505Y-61273261D01*
X189596131Y-61275432D01*
X189600000Y-61302839D01*
X189600000Y-126697159D01*
X189596131Y-126724566D01*
X189549551Y-126886247D01*
X189545884Y-126896726D01*
X189434291Y-127166134D01*
X189429474Y-127176136D01*
X189288421Y-127431354D01*
X189282514Y-127440755D01*
X189113771Y-127678575D01*
X189106850Y-127687254D01*
X188912540Y-127904689D01*
X188904689Y-127912540D01*
X188687254Y-128106850D01*
X188678575Y-128113771D01*
X188440755Y-128282514D01*
X188431354Y-128288421D01*
X188176136Y-128429474D01*
X188166134Y-128434291D01*
X187896726Y-128545884D01*
X187886247Y-128549551D01*
X187724567Y-128596131D01*
X187697160Y-128600000D01*
X122302840Y-128600000D01*
X122275433Y-128596131D01*
X122113752Y-128549551D01*
X122103273Y-128545884D01*
X121833865Y-128434291D01*
X121823863Y-128429474D01*
X121568645Y-128288421D01*
X121559244Y-128282514D01*
X121321424Y-128113771D01*
X121312745Y-128106850D01*
X121211695Y-128016547D01*
X121095302Y-127912532D01*
X121087467Y-127904697D01*
X120969745Y-127772966D01*
X120893149Y-127687254D01*
X120886228Y-127678575D01*
X120717485Y-127440755D01*
X120711578Y-127431354D01*
X120570525Y-127176136D01*
X120565708Y-127166134D01*
X120454115Y-126896726D01*
X120450448Y-126886246D01*
X120403869Y-126724565D01*
X120400000Y-126697159D01*
X120400000Y-126000003D01*
X121694532Y-126000003D01*
X121714363Y-126226684D01*
X121773262Y-126446500D01*
X121869426Y-126652723D01*
X121869434Y-126652737D01*
X121999946Y-126839130D01*
X121999947Y-126839132D01*
X121999950Y-126839135D01*
X121999953Y-126839139D01*
X122160861Y-127000047D01*
X122160864Y-127000049D01*
X122160867Y-127000052D01*
X122160869Y-127000053D01*
X122285131Y-127087061D01*
X122347266Y-127130568D01*
X122347272Y-127130571D01*
X122347276Y-127130573D01*
X122553500Y-127226737D01*
X122553504Y-127226739D01*
X122773308Y-127285635D01*
X122773312Y-127285635D01*
X122773315Y-127285636D01*
X122943208Y-127300500D01*
X122943216Y-127300500D01*
X123056792Y-127300500D01*
X123226684Y-127285636D01*
X123226685Y-127285635D01*
X123226692Y-127285635D01*
X123446496Y-127226739D01*
X123652734Y-127130568D01*
X123839139Y-127000047D01*
X124000047Y-126839139D01*
X124130568Y-126652734D01*
X124226739Y-126446496D01*
X124285635Y-126226692D01*
X124292106Y-126152737D01*
X124305468Y-126000003D01*
X124305468Y-125999996D01*
X124285636Y-125773315D01*
X124285635Y-125773312D01*
X124285635Y-125773308D01*
X124226739Y-125553504D01*
X124201791Y-125500003D01*
X185194532Y-125500003D01*
X185214363Y-125726684D01*
X185273262Y-125946500D01*
X185369426Y-126152723D01*
X185369434Y-126152737D01*
X185499946Y-126339130D01*
X185499947Y-126339132D01*
X185499950Y-126339135D01*
X185499953Y-126339139D01*
X185660861Y-126500047D01*
X185660864Y-126500049D01*
X185660867Y-126500052D01*
X185660869Y-126500053D01*
X185685101Y-126517020D01*
X185847266Y-126630568D01*
X185847272Y-126630571D01*
X185847276Y-126630573D01*
X186053500Y-126726737D01*
X186053504Y-126726739D01*
X186273308Y-126785635D01*
X186273312Y-126785635D01*
X186273315Y-126785636D01*
X186443208Y-126800500D01*
X186443216Y-126800500D01*
X186556792Y-126800500D01*
X186726684Y-126785636D01*
X186726685Y-126785635D01*
X186726692Y-126785635D01*
X186946496Y-126726739D01*
X187152734Y-126630568D01*
X187339139Y-126500047D01*
X187500047Y-126339139D01*
X187630568Y-126152734D01*
X187726739Y-125946496D01*
X187785635Y-125726692D01*
X187800788Y-125553499D01*
X187805468Y-125500003D01*
X187805468Y-125499996D01*
X187785636Y-125273315D01*
X187785635Y-125273312D01*
X187785635Y-125273308D01*
X187726739Y-125053504D01*
X187701765Y-124999947D01*
X187630573Y-124847276D01*
X187630571Y-124847272D01*
X187630568Y-124847266D01*
X187500053Y-124660869D01*
X187500052Y-124660867D01*
X187500049Y-124660864D01*
X187500047Y-124660861D01*
X187339139Y-124499953D01*
X187339135Y-124499950D01*
X187339132Y-124499947D01*
X187339130Y-124499946D01*
X187152737Y-124369434D01*
X187152736Y-124369433D01*
X187152734Y-124369432D01*
X187152731Y-124369430D01*
X187152723Y-124369426D01*
X186946499Y-124273262D01*
X186946500Y-124273262D01*
X186873228Y-124253629D01*
X186726692Y-124214365D01*
X186726691Y-124214364D01*
X186726684Y-124214363D01*
X186556792Y-124199500D01*
X186556784Y-124199500D01*
X186443216Y-124199500D01*
X186443208Y-124199500D01*
X186273315Y-124214363D01*
X186053499Y-124273262D01*
X185847276Y-124369426D01*
X185847262Y-124369434D01*
X185660869Y-124499946D01*
X185660867Y-124499947D01*
X185499947Y-124660867D01*
X185499946Y-124660869D01*
X185369434Y-124847262D01*
X185369426Y-124847276D01*
X185273262Y-125053499D01*
X185214363Y-125273315D01*
X185194532Y-125499996D01*
X185194532Y-125500003D01*
X124201791Y-125500003D01*
X124130568Y-125347266D01*
X124000053Y-125160869D01*
X124000052Y-125160867D01*
X124000049Y-125160864D01*
X124000047Y-125160861D01*
X123839139Y-124999953D01*
X123839135Y-124999950D01*
X123839132Y-124999947D01*
X123839130Y-124999946D01*
X123652737Y-124869434D01*
X123652736Y-124869433D01*
X123652734Y-124869432D01*
X123652731Y-124869430D01*
X123652723Y-124869426D01*
X123446499Y-124773262D01*
X123446500Y-124773262D01*
X123373228Y-124753629D01*
X123226692Y-124714365D01*
X123226691Y-124714364D01*
X123226684Y-124714363D01*
X123056792Y-124699500D01*
X123056784Y-124699500D01*
X122943216Y-124699500D01*
X122943208Y-124699500D01*
X122773315Y-124714363D01*
X122553499Y-124773262D01*
X122347276Y-124869426D01*
X122347262Y-124869434D01*
X122160869Y-124999946D01*
X122160867Y-124999947D01*
X121999947Y-125160867D01*
X121999946Y-125160869D01*
X121869434Y-125347262D01*
X121869426Y-125347276D01*
X121773262Y-125553499D01*
X121714363Y-125773315D01*
X121694532Y-125999996D01*
X121694532Y-126000003D01*
X120400000Y-126000003D01*
X120400000Y-123734672D01*
X129849499Y-123734672D01*
X129849500Y-123734684D01*
X129864032Y-123807736D01*
X129864034Y-123807742D01*
X129919396Y-123890599D01*
X129919398Y-123890601D01*
X130002259Y-123945966D01*
X130057807Y-123957015D01*
X130075314Y-123960498D01*
X130075319Y-123960498D01*
X130075325Y-123960500D01*
X130075326Y-123960500D01*
X131824672Y-123960500D01*
X131824673Y-123960500D01*
X131897739Y-123945966D01*
X131980600Y-123890601D01*
X132035965Y-123807740D01*
X132050499Y-123734674D01*
X132050499Y-122860000D01*
X132384784Y-122860000D01*
X132403602Y-123063083D01*
X132459417Y-123259250D01*
X132550326Y-123441821D01*
X132673235Y-123604579D01*
X132823958Y-123741981D01*
X132997362Y-123849348D01*
X133187543Y-123923024D01*
X133388023Y-123960500D01*
X133591975Y-123960500D01*
X133792455Y-123923024D01*
X133982636Y-123849348D01*
X134156040Y-123741981D01*
X134306763Y-123604579D01*
X134429672Y-123441821D01*
X134520581Y-123259250D01*
X134576396Y-123063083D01*
X134595214Y-122860000D01*
X134924784Y-122860000D01*
X134943602Y-123063083D01*
X134999417Y-123259250D01*
X135090326Y-123441821D01*
X135213235Y-123604579D01*
X135363958Y-123741981D01*
X135537362Y-123849348D01*
X135727543Y-123923024D01*
X135928023Y-123960500D01*
X136131975Y-123960500D01*
X136332455Y-123923024D01*
X136522636Y-123849348D01*
X136696040Y-123741981D01*
X136846763Y-123604579D01*
X136969672Y-123441821D01*
X137060581Y-123259250D01*
X137116396Y-123063083D01*
X137135214Y-122860000D01*
X137464784Y-122860000D01*
X137483602Y-123063083D01*
X137539417Y-123259250D01*
X137630326Y-123441821D01*
X137753235Y-123604579D01*
X137903958Y-123741981D01*
X138077362Y-123849348D01*
X138267543Y-123923024D01*
X138468023Y-123960500D01*
X138671975Y-123960500D01*
X138872455Y-123923024D01*
X139062636Y-123849348D01*
X139236040Y-123741981D01*
X139386763Y-123604579D01*
X139509672Y-123441821D01*
X139600581Y-123259250D01*
X139656396Y-123063083D01*
X139675214Y-122860000D01*
X140004784Y-122860000D01*
X140023602Y-123063083D01*
X140079417Y-123259250D01*
X140170326Y-123441821D01*
X140293235Y-123604579D01*
X140443958Y-123741981D01*
X140617362Y-123849348D01*
X140807543Y-123923024D01*
X141008023Y-123960500D01*
X141211975Y-123960500D01*
X141412455Y-123923024D01*
X141602636Y-123849348D01*
X141776040Y-123741981D01*
X141926763Y-123604579D01*
X142049672Y-123441821D01*
X142140581Y-123259250D01*
X142196396Y-123063083D01*
X142215214Y-122860000D01*
X142544784Y-122860000D01*
X142563602Y-123063083D01*
X142619417Y-123259250D01*
X142710326Y-123441821D01*
X142833235Y-123604579D01*
X142983958Y-123741981D01*
X143157362Y-123849348D01*
X143347543Y-123923024D01*
X143548023Y-123960500D01*
X143751975Y-123960500D01*
X143952455Y-123923024D01*
X144142636Y-123849348D01*
X144316040Y-123741981D01*
X144466763Y-123604579D01*
X144589672Y-123441821D01*
X144680581Y-123259250D01*
X144736396Y-123063083D01*
X144755214Y-122860000D01*
X145084784Y-122860000D01*
X145103602Y-123063083D01*
X145159417Y-123259250D01*
X145250326Y-123441821D01*
X145373235Y-123604579D01*
X145523958Y-123741981D01*
X145697362Y-123849348D01*
X145887543Y-123923024D01*
X146088023Y-123960500D01*
X146291975Y-123960500D01*
X146492455Y-123923024D01*
X146682636Y-123849348D01*
X146856040Y-123741981D01*
X147006763Y-123604579D01*
X147129672Y-123441821D01*
X147220581Y-123259250D01*
X147276396Y-123063083D01*
X147295214Y-122860000D01*
X147624784Y-122860000D01*
X147643602Y-123063083D01*
X147699417Y-123259250D01*
X147790326Y-123441821D01*
X147913235Y-123604579D01*
X148063958Y-123741981D01*
X148237362Y-123849348D01*
X148427543Y-123923024D01*
X148628023Y-123960500D01*
X148831975Y-123960500D01*
X149032455Y-123923024D01*
X149222636Y-123849348D01*
X149396040Y-123741981D01*
X149546763Y-123604579D01*
X149669672Y-123441821D01*
X149760581Y-123259250D01*
X149816396Y-123063083D01*
X149835214Y-122860000D01*
X150164784Y-122860000D01*
X150183602Y-123063083D01*
X150239417Y-123259250D01*
X150330326Y-123441821D01*
X150453235Y-123604579D01*
X150603958Y-123741981D01*
X150777362Y-123849348D01*
X150967543Y-123923024D01*
X151168023Y-123960500D01*
X151371975Y-123960500D01*
X151572455Y-123923024D01*
X151762636Y-123849348D01*
X151936040Y-123741981D01*
X152086763Y-123604579D01*
X152209672Y-123441821D01*
X152300581Y-123259250D01*
X152356396Y-123063083D01*
X152375214Y-122860000D01*
X152704784Y-122860000D01*
X152723602Y-123063083D01*
X152779417Y-123259250D01*
X152870326Y-123441821D01*
X152993235Y-123604579D01*
X153143958Y-123741981D01*
X153317362Y-123849348D01*
X153507543Y-123923024D01*
X153708023Y-123960500D01*
X153911975Y-123960500D01*
X154112455Y-123923024D01*
X154302636Y-123849348D01*
X154476040Y-123741981D01*
X154626763Y-123604579D01*
X154749672Y-123441821D01*
X154840581Y-123259250D01*
X154896396Y-123063083D01*
X154896682Y-123060000D01*
X155213606Y-123060000D01*
X155214737Y-123072216D01*
X155273063Y-123277210D01*
X155368056Y-123467983D01*
X155368061Y-123467992D01*
X155496495Y-123638064D01*
X155496505Y-123638075D01*
X155653994Y-123781647D01*
X155653993Y-123781647D01*
X155835205Y-123893847D01*
X156033940Y-123970838D01*
X156149998Y-123992533D01*
X156149999Y-123992533D01*
X156149999Y-123318335D01*
X156207684Y-123344680D01*
X156314236Y-123360000D01*
X156385762Y-123360000D01*
X156492314Y-123344680D01*
X156549999Y-123318335D01*
X156549999Y-123992533D01*
X156666057Y-123970838D01*
X156864792Y-123893847D01*
X157046003Y-123781647D01*
X157203492Y-123638075D01*
X157203502Y-123638064D01*
X157331936Y-123467992D01*
X157331941Y-123467983D01*
X157426934Y-123277210D01*
X157485260Y-123072216D01*
X157486392Y-123060000D01*
X156812382Y-123060000D01*
X156849999Y-122931889D01*
X156849999Y-122860000D01*
X157784784Y-122860000D01*
X157803602Y-123063083D01*
X157859417Y-123259250D01*
X157950326Y-123441821D01*
X158073235Y-123604579D01*
X158223958Y-123741981D01*
X158397362Y-123849348D01*
X158587543Y-123923024D01*
X158788023Y-123960500D01*
X158991975Y-123960500D01*
X159192455Y-123923024D01*
X159382636Y-123849348D01*
X159556040Y-123741981D01*
X159706763Y-123604579D01*
X159829672Y-123441821D01*
X159920581Y-123259250D01*
X159976396Y-123063083D01*
X159995214Y-122860000D01*
X160324784Y-122860000D01*
X160343602Y-123063083D01*
X160399417Y-123259250D01*
X160490326Y-123441821D01*
X160613235Y-123604579D01*
X160763958Y-123741981D01*
X160937362Y-123849348D01*
X161127543Y-123923024D01*
X161328023Y-123960500D01*
X161531975Y-123960500D01*
X161732455Y-123923024D01*
X161922636Y-123849348D01*
X162096040Y-123741981D01*
X162246763Y-123604579D01*
X162369672Y-123441821D01*
X162460581Y-123259250D01*
X162516396Y-123063083D01*
X162535214Y-122860000D01*
X162864784Y-122860000D01*
X162883602Y-123063083D01*
X162939417Y-123259250D01*
X163030326Y-123441821D01*
X163153235Y-123604579D01*
X163303958Y-123741981D01*
X163477362Y-123849348D01*
X163667543Y-123923024D01*
X163868023Y-123960500D01*
X164071975Y-123960500D01*
X164272455Y-123923024D01*
X164462636Y-123849348D01*
X164636040Y-123741981D01*
X164786763Y-123604579D01*
X164909672Y-123441821D01*
X165000581Y-123259250D01*
X165056396Y-123063083D01*
X165056682Y-123060000D01*
X165373606Y-123060000D01*
X165374737Y-123072216D01*
X165433063Y-123277210D01*
X165528056Y-123467983D01*
X165528061Y-123467992D01*
X165656495Y-123638064D01*
X165656505Y-123638075D01*
X165813994Y-123781647D01*
X165813993Y-123781647D01*
X165995205Y-123893847D01*
X166193940Y-123970838D01*
X166309998Y-123992533D01*
X166309999Y-123992533D01*
X166309999Y-123318335D01*
X166367684Y-123344680D01*
X166474236Y-123360000D01*
X166545762Y-123360000D01*
X166652314Y-123344680D01*
X166709999Y-123318335D01*
X166709999Y-123992533D01*
X166826057Y-123970838D01*
X167024792Y-123893847D01*
X167206003Y-123781647D01*
X167363492Y-123638075D01*
X167363502Y-123638064D01*
X167491936Y-123467992D01*
X167491941Y-123467983D01*
X167586934Y-123277210D01*
X167645260Y-123072216D01*
X167646392Y-123060000D01*
X166972382Y-123060000D01*
X167009999Y-122931889D01*
X167009999Y-122860000D01*
X167944784Y-122860000D01*
X167963602Y-123063083D01*
X168019417Y-123259250D01*
X168110326Y-123441821D01*
X168233235Y-123604579D01*
X168383958Y-123741981D01*
X168557362Y-123849348D01*
X168747543Y-123923024D01*
X168948023Y-123960500D01*
X169151975Y-123960500D01*
X169352455Y-123923024D01*
X169542636Y-123849348D01*
X169716040Y-123741981D01*
X169866763Y-123604579D01*
X169989672Y-123441821D01*
X170080581Y-123259250D01*
X170136396Y-123063083D01*
X170155214Y-122860000D01*
X170136396Y-122656917D01*
X170080581Y-122460750D01*
X169989672Y-122278179D01*
X169866763Y-122115421D01*
X169716040Y-121978019D01*
X169542636Y-121870652D01*
X169352455Y-121796976D01*
X169352454Y-121796975D01*
X169352452Y-121796975D01*
X169151975Y-121759500D01*
X168948023Y-121759500D01*
X168747545Y-121796975D01*
X168677631Y-121824059D01*
X168557362Y-121870652D01*
X168490163Y-121912260D01*
X168383958Y-121978019D01*
X168233236Y-122115420D01*
X168110327Y-122278177D01*
X168110322Y-122278186D01*
X168032215Y-122435048D01*
X168019417Y-122460750D01*
X167963602Y-122656917D01*
X167944784Y-122860000D01*
X167009999Y-122860000D01*
X167009999Y-122788111D01*
X166972382Y-122660000D01*
X167646392Y-122660000D01*
X167645260Y-122647783D01*
X167586934Y-122442789D01*
X167491941Y-122252016D01*
X167491936Y-122252007D01*
X167363502Y-122081935D01*
X167363492Y-122081924D01*
X167206003Y-121938352D01*
X167206004Y-121938352D01*
X167024792Y-121826152D01*
X166826060Y-121749162D01*
X166826054Y-121749160D01*
X166709999Y-121727465D01*
X166709999Y-122401664D01*
X166652314Y-122375320D01*
X166545762Y-122360000D01*
X166474236Y-122360000D01*
X166367684Y-122375320D01*
X166309999Y-122401664D01*
X166309999Y-121727466D01*
X166309998Y-121727465D01*
X166193943Y-121749160D01*
X166193937Y-121749162D01*
X165995205Y-121826152D01*
X165813994Y-121938352D01*
X165656505Y-122081924D01*
X165656495Y-122081935D01*
X165528061Y-122252007D01*
X165528056Y-122252016D01*
X165433063Y-122442789D01*
X165374737Y-122647783D01*
X165373606Y-122660000D01*
X166047616Y-122660000D01*
X166009999Y-122788111D01*
X166009999Y-122931889D01*
X166047616Y-123060000D01*
X165373606Y-123060000D01*
X165056682Y-123060000D01*
X165075214Y-122860000D01*
X165056396Y-122656917D01*
X165000581Y-122460750D01*
X164909672Y-122278179D01*
X164786763Y-122115421D01*
X164636040Y-121978019D01*
X164462636Y-121870652D01*
X164272455Y-121796976D01*
X164272454Y-121796975D01*
X164272452Y-121796975D01*
X164071975Y-121759500D01*
X163868023Y-121759500D01*
X163667545Y-121796975D01*
X163597631Y-121824059D01*
X163477362Y-121870652D01*
X163410163Y-121912260D01*
X163303958Y-121978019D01*
X163153236Y-122115420D01*
X163030327Y-122278177D01*
X163030322Y-122278186D01*
X162952215Y-122435048D01*
X162939417Y-122460750D01*
X162883602Y-122656917D01*
X162864784Y-122860000D01*
X162535214Y-122860000D01*
X162516396Y-122656917D01*
X162460581Y-122460750D01*
X162369672Y-122278179D01*
X162246763Y-122115421D01*
X162096040Y-121978019D01*
X161922636Y-121870652D01*
X161732455Y-121796976D01*
X161732454Y-121796975D01*
X161732452Y-121796975D01*
X161531975Y-121759500D01*
X161328023Y-121759500D01*
X161127545Y-121796975D01*
X161057631Y-121824059D01*
X160937362Y-121870652D01*
X160870163Y-121912260D01*
X160763958Y-121978019D01*
X160613236Y-122115420D01*
X160490327Y-122278177D01*
X160490322Y-122278186D01*
X160412215Y-122435048D01*
X160399417Y-122460750D01*
X160343602Y-122656917D01*
X160324784Y-122860000D01*
X159995214Y-122860000D01*
X159976396Y-122656917D01*
X159920581Y-122460750D01*
X159829672Y-122278179D01*
X159706763Y-122115421D01*
X159556040Y-121978019D01*
X159382636Y-121870652D01*
X159192455Y-121796976D01*
X159192454Y-121796975D01*
X159192452Y-121796975D01*
X158991975Y-121759500D01*
X158788023Y-121759500D01*
X158587545Y-121796975D01*
X158517631Y-121824059D01*
X158397362Y-121870652D01*
X158330163Y-121912260D01*
X158223958Y-121978019D01*
X158073236Y-122115420D01*
X157950327Y-122278177D01*
X157950322Y-122278186D01*
X157872215Y-122435048D01*
X157859417Y-122460750D01*
X157803602Y-122656917D01*
X157784784Y-122860000D01*
X156849999Y-122860000D01*
X156849999Y-122788111D01*
X156812382Y-122660000D01*
X157486392Y-122660000D01*
X157485260Y-122647783D01*
X157426934Y-122442789D01*
X157331941Y-122252016D01*
X157331936Y-122252007D01*
X157203502Y-122081935D01*
X157203492Y-122081924D01*
X157046003Y-121938352D01*
X157046004Y-121938352D01*
X156864792Y-121826152D01*
X156666060Y-121749162D01*
X156666054Y-121749160D01*
X156549999Y-121727465D01*
X156549999Y-122401664D01*
X156492314Y-122375320D01*
X156385762Y-122360000D01*
X156314236Y-122360000D01*
X156207684Y-122375320D01*
X156149999Y-122401664D01*
X156149999Y-121727466D01*
X156149998Y-121727465D01*
X156033943Y-121749160D01*
X156033937Y-121749162D01*
X155835205Y-121826152D01*
X155653994Y-121938352D01*
X155496505Y-122081924D01*
X155496495Y-122081935D01*
X155368061Y-122252007D01*
X155368056Y-122252016D01*
X155273063Y-122442789D01*
X155214737Y-122647783D01*
X155213606Y-122660000D01*
X155887616Y-122660000D01*
X155849999Y-122788111D01*
X155849999Y-122931889D01*
X155887616Y-123060000D01*
X155213606Y-123060000D01*
X154896682Y-123060000D01*
X154915214Y-122860000D01*
X154896396Y-122656917D01*
X154840581Y-122460750D01*
X154749672Y-122278179D01*
X154626763Y-122115421D01*
X154476040Y-121978019D01*
X154302636Y-121870652D01*
X154112455Y-121796976D01*
X154112454Y-121796975D01*
X154112452Y-121796975D01*
X153911975Y-121759500D01*
X153708023Y-121759500D01*
X153507545Y-121796975D01*
X153437631Y-121824059D01*
X153317362Y-121870652D01*
X153250163Y-121912260D01*
X153143958Y-121978019D01*
X152993236Y-122115420D01*
X152870327Y-122278177D01*
X152870322Y-122278186D01*
X152792215Y-122435048D01*
X152779417Y-122460750D01*
X152723602Y-122656917D01*
X152704784Y-122860000D01*
X152375214Y-122860000D01*
X152356396Y-122656917D01*
X152300581Y-122460750D01*
X152209672Y-122278179D01*
X152086763Y-122115421D01*
X151936040Y-121978019D01*
X151762636Y-121870652D01*
X151572455Y-121796976D01*
X151572454Y-121796975D01*
X151572452Y-121796975D01*
X151371975Y-121759500D01*
X151168023Y-121759500D01*
X150967545Y-121796975D01*
X150897631Y-121824059D01*
X150777362Y-121870652D01*
X150710163Y-121912260D01*
X150603958Y-121978019D01*
X150453236Y-122115420D01*
X150330327Y-122278177D01*
X150330322Y-122278186D01*
X150252215Y-122435048D01*
X150239417Y-122460750D01*
X150183602Y-122656917D01*
X150164784Y-122860000D01*
X149835214Y-122860000D01*
X149816396Y-122656917D01*
X149760581Y-122460750D01*
X149669672Y-122278179D01*
X149546763Y-122115421D01*
X149396040Y-121978019D01*
X149222636Y-121870652D01*
X149032455Y-121796976D01*
X149032454Y-121796975D01*
X149032452Y-121796975D01*
X148831975Y-121759500D01*
X148628023Y-121759500D01*
X148427545Y-121796975D01*
X148357631Y-121824059D01*
X148237362Y-121870652D01*
X148170163Y-121912260D01*
X148063958Y-121978019D01*
X147913236Y-122115420D01*
X147790327Y-122278177D01*
X147790322Y-122278186D01*
X147712215Y-122435048D01*
X147699417Y-122460750D01*
X147643602Y-122656917D01*
X147624784Y-122860000D01*
X147295214Y-122860000D01*
X147276396Y-122656917D01*
X147220581Y-122460750D01*
X147129672Y-122278179D01*
X147006763Y-122115421D01*
X146856040Y-121978019D01*
X146682636Y-121870652D01*
X146492455Y-121796976D01*
X146492454Y-121796975D01*
X146492452Y-121796975D01*
X146291975Y-121759500D01*
X146088023Y-121759500D01*
X145887545Y-121796975D01*
X145817631Y-121824059D01*
X145697362Y-121870652D01*
X145630163Y-121912260D01*
X145523958Y-121978019D01*
X145373236Y-122115420D01*
X145250327Y-122278177D01*
X145250322Y-122278186D01*
X145172215Y-122435048D01*
X145159417Y-122460750D01*
X145103602Y-122656917D01*
X145084784Y-122860000D01*
X144755214Y-122860000D01*
X144736396Y-122656917D01*
X144680581Y-122460750D01*
X144589672Y-122278179D01*
X144466763Y-122115421D01*
X144316040Y-121978019D01*
X144142636Y-121870652D01*
X143952455Y-121796976D01*
X143952454Y-121796975D01*
X143952452Y-121796975D01*
X143751975Y-121759500D01*
X143548023Y-121759500D01*
X143347545Y-121796975D01*
X143277631Y-121824059D01*
X143157362Y-121870652D01*
X143090163Y-121912260D01*
X142983958Y-121978019D01*
X142833236Y-122115420D01*
X142710327Y-122278177D01*
X142710322Y-122278186D01*
X142632215Y-122435048D01*
X142619417Y-122460750D01*
X142563602Y-122656917D01*
X142544784Y-122860000D01*
X142215214Y-122860000D01*
X142196396Y-122656917D01*
X142140581Y-122460750D01*
X142049672Y-122278179D01*
X141926763Y-122115421D01*
X141776040Y-121978019D01*
X141602636Y-121870652D01*
X141412455Y-121796976D01*
X141412454Y-121796975D01*
X141412452Y-121796975D01*
X141211975Y-121759500D01*
X141008023Y-121759500D01*
X140807545Y-121796975D01*
X140737631Y-121824059D01*
X140617362Y-121870652D01*
X140550163Y-121912260D01*
X140443958Y-121978019D01*
X140293236Y-122115420D01*
X140170327Y-122278177D01*
X140170322Y-122278186D01*
X140092215Y-122435048D01*
X140079417Y-122460750D01*
X140023602Y-122656917D01*
X140004784Y-122860000D01*
X139675214Y-122860000D01*
X139656396Y-122656917D01*
X139600581Y-122460750D01*
X139509672Y-122278179D01*
X139386763Y-122115421D01*
X139236040Y-121978019D01*
X139062636Y-121870652D01*
X138872455Y-121796976D01*
X138872454Y-121796975D01*
X138872452Y-121796975D01*
X138671975Y-121759500D01*
X138468023Y-121759500D01*
X138267545Y-121796975D01*
X138197631Y-121824059D01*
X138077362Y-121870652D01*
X138010163Y-121912260D01*
X137903958Y-121978019D01*
X137753236Y-122115420D01*
X137630327Y-122278177D01*
X137630322Y-122278186D01*
X137552215Y-122435048D01*
X137539417Y-122460750D01*
X137483602Y-122656917D01*
X137464784Y-122860000D01*
X137135214Y-122860000D01*
X137116396Y-122656917D01*
X137060581Y-122460750D01*
X136969672Y-122278179D01*
X136846763Y-122115421D01*
X136696040Y-121978019D01*
X136522636Y-121870652D01*
X136332455Y-121796976D01*
X136332454Y-121796975D01*
X136332452Y-121796975D01*
X136131975Y-121759500D01*
X135928023Y-121759500D01*
X135727545Y-121796975D01*
X135657631Y-121824059D01*
X135537362Y-121870652D01*
X135470163Y-121912260D01*
X135363958Y-121978019D01*
X135213236Y-122115420D01*
X135090327Y-122278177D01*
X135090322Y-122278186D01*
X135012215Y-122435048D01*
X134999417Y-122460750D01*
X134943602Y-122656917D01*
X134924784Y-122860000D01*
X134595214Y-122860000D01*
X134576396Y-122656917D01*
X134520581Y-122460750D01*
X134429672Y-122278179D01*
X134306763Y-122115421D01*
X134156040Y-121978019D01*
X133982636Y-121870652D01*
X133792455Y-121796976D01*
X133792454Y-121796975D01*
X133792452Y-121796975D01*
X133591975Y-121759500D01*
X133388023Y-121759500D01*
X133187545Y-121796975D01*
X133117631Y-121824059D01*
X132997362Y-121870652D01*
X132930163Y-121912260D01*
X132823958Y-121978019D01*
X132673236Y-122115420D01*
X132550327Y-122278177D01*
X132550322Y-122278186D01*
X132472215Y-122435048D01*
X132459417Y-122460750D01*
X132403602Y-122656917D01*
X132384784Y-122860000D01*
X132050499Y-122860000D01*
X132050499Y-121985326D01*
X132035965Y-121912260D01*
X131980600Y-121829399D01*
X131980598Y-121829397D01*
X131897741Y-121774035D01*
X131897739Y-121774034D01*
X131897736Y-121774033D01*
X131897735Y-121774033D01*
X131824683Y-121759501D01*
X131824673Y-121759500D01*
X130075325Y-121759500D01*
X130075324Y-121759500D01*
X130075314Y-121759501D01*
X130002262Y-121774033D01*
X130002256Y-121774035D01*
X129919399Y-121829397D01*
X129919396Y-121829400D01*
X129864034Y-121912257D01*
X129864032Y-121912263D01*
X129849500Y-121985315D01*
X129849499Y-121985327D01*
X129849499Y-123734672D01*
X120400000Y-123734672D01*
X120400000Y-119050000D01*
X126034785Y-119050000D01*
X126053603Y-119253083D01*
X126109418Y-119449250D01*
X126200327Y-119631821D01*
X126323236Y-119794579D01*
X126473959Y-119931981D01*
X126647363Y-120039348D01*
X126837544Y-120113024D01*
X127038024Y-120150500D01*
X127241976Y-120150500D01*
X127442456Y-120113024D01*
X127632637Y-120039348D01*
X127806041Y-119931981D01*
X127956764Y-119794579D01*
X128079673Y-119631821D01*
X128170582Y-119449250D01*
X128226397Y-119253083D01*
X128245215Y-119050000D01*
X171754785Y-119050000D01*
X171773603Y-119253083D01*
X171829418Y-119449250D01*
X171920327Y-119631821D01*
X172043236Y-119794579D01*
X172193959Y-119931981D01*
X172367363Y-120039348D01*
X172557544Y-120113024D01*
X172758024Y-120150500D01*
X172961976Y-120150500D01*
X173162456Y-120113024D01*
X173352637Y-120039348D01*
X173526041Y-119931981D01*
X173676764Y-119794579D01*
X173799673Y-119631821D01*
X173890582Y-119449250D01*
X173946397Y-119253083D01*
X173965215Y-119050000D01*
X173946397Y-118846917D01*
X173890582Y-118650750D01*
X173799673Y-118468179D01*
X173676764Y-118305421D01*
X173526041Y-118168019D01*
X173352637Y-118060652D01*
X173196075Y-118000000D01*
X183669750Y-118000000D01*
X183688669Y-118143708D01*
X183688670Y-118143709D01*
X183744139Y-118277625D01*
X183832379Y-118392621D01*
X183947375Y-118480861D01*
X184081291Y-118536330D01*
X184225000Y-118555250D01*
X184368709Y-118536330D01*
X184502625Y-118480861D01*
X184617621Y-118392621D01*
X184705861Y-118277625D01*
X184761330Y-118143709D01*
X184780250Y-118000000D01*
X184773601Y-117949500D01*
X184761330Y-117856291D01*
X184705861Y-117722375D01*
X184617621Y-117607379D01*
X184502625Y-117519139D01*
X184502621Y-117519137D01*
X184368709Y-117463670D01*
X184368708Y-117463669D01*
X184225000Y-117444750D01*
X184081291Y-117463669D01*
X184081290Y-117463670D01*
X183947378Y-117519137D01*
X183947374Y-117519139D01*
X183832381Y-117607377D01*
X183832377Y-117607381D01*
X183744139Y-117722374D01*
X183744137Y-117722378D01*
X183688670Y-117856290D01*
X183688669Y-117856291D01*
X183669750Y-117999999D01*
X183669750Y-118000000D01*
X173196075Y-118000000D01*
X173162456Y-117986976D01*
X173162455Y-117986975D01*
X173162453Y-117986975D01*
X172961976Y-117949500D01*
X172758024Y-117949500D01*
X172557546Y-117986975D01*
X172523925Y-118000000D01*
X172367363Y-118060652D01*
X172233223Y-118143708D01*
X172193959Y-118168019D01*
X172043237Y-118305420D01*
X171920328Y-118468177D01*
X171920323Y-118468186D01*
X171886392Y-118536330D01*
X171829418Y-118650750D01*
X171773603Y-118846917D01*
X171754785Y-119050000D01*
X128245215Y-119050000D01*
X128226397Y-118846917D01*
X128170582Y-118650750D01*
X128079673Y-118468179D01*
X127956764Y-118305421D01*
X127806041Y-118168019D01*
X127632637Y-118060652D01*
X127442456Y-117986976D01*
X127442455Y-117986975D01*
X127442453Y-117986975D01*
X127241976Y-117949500D01*
X127038024Y-117949500D01*
X126837546Y-117986975D01*
X126803925Y-118000000D01*
X126647363Y-118060652D01*
X126513223Y-118143708D01*
X126473959Y-118168019D01*
X126323237Y-118305420D01*
X126200328Y-118468177D01*
X126200323Y-118468186D01*
X126166392Y-118536330D01*
X126109418Y-118650750D01*
X126053603Y-118846917D01*
X126034785Y-119050000D01*
X120400000Y-119050000D01*
X120400000Y-116710000D01*
X126003607Y-116710000D01*
X126004738Y-116722216D01*
X126063064Y-116927210D01*
X126158057Y-117117983D01*
X126158062Y-117117992D01*
X126286496Y-117288064D01*
X126286506Y-117288075D01*
X126443995Y-117431647D01*
X126443994Y-117431647D01*
X126625206Y-117543847D01*
X126823941Y-117620838D01*
X126939999Y-117642533D01*
X126940000Y-117642533D01*
X126940000Y-116968335D01*
X126997685Y-116994680D01*
X127104237Y-117010000D01*
X127175763Y-117010000D01*
X127282315Y-116994680D01*
X127340000Y-116968335D01*
X127340000Y-117642533D01*
X127456058Y-117620838D01*
X127654793Y-117543847D01*
X127836004Y-117431647D01*
X127993493Y-117288075D01*
X127993503Y-117288064D01*
X128121937Y-117117992D01*
X128121942Y-117117983D01*
X128216935Y-116927210D01*
X128275261Y-116722216D01*
X128276393Y-116710000D01*
X127602383Y-116710000D01*
X127640000Y-116581889D01*
X127640000Y-116510000D01*
X171754785Y-116510000D01*
X171773603Y-116713083D01*
X171829418Y-116909250D01*
X171920327Y-117091821D01*
X172043236Y-117254579D01*
X172193959Y-117391981D01*
X172367363Y-117499348D01*
X172557544Y-117573024D01*
X172758024Y-117610500D01*
X172961976Y-117610500D01*
X173162456Y-117573024D01*
X173352637Y-117499348D01*
X173526041Y-117391981D01*
X173676764Y-117254579D01*
X173799673Y-117091821D01*
X173890582Y-116909250D01*
X173946397Y-116713083D01*
X173965215Y-116510000D01*
X173946397Y-116306917D01*
X173890582Y-116110750D01*
X173799673Y-115928179D01*
X173676764Y-115765421D01*
X173526041Y-115628019D01*
X173352637Y-115520652D01*
X173162456Y-115446976D01*
X173162455Y-115446975D01*
X173162453Y-115446975D01*
X172961976Y-115409500D01*
X172758024Y-115409500D01*
X172557546Y-115446975D01*
X172487632Y-115474059D01*
X172367363Y-115520652D01*
X172258024Y-115588352D01*
X172193959Y-115628019D01*
X172043237Y-115765420D01*
X171920328Y-115928177D01*
X171920323Y-115928186D01*
X171842216Y-116085048D01*
X171829418Y-116110750D01*
X171773603Y-116306917D01*
X171754785Y-116510000D01*
X127640000Y-116510000D01*
X127640000Y-116438111D01*
X127602383Y-116310000D01*
X128276393Y-116310000D01*
X128275261Y-116297783D01*
X128216935Y-116092789D01*
X128121942Y-115902016D01*
X128121937Y-115902007D01*
X127993503Y-115731935D01*
X127993493Y-115731924D01*
X127836004Y-115588352D01*
X127836005Y-115588352D01*
X127654793Y-115476152D01*
X127456061Y-115399162D01*
X127456055Y-115399160D01*
X127340000Y-115377465D01*
X127340000Y-116051664D01*
X127282315Y-116025320D01*
X127175763Y-116010000D01*
X127104237Y-116010000D01*
X126997685Y-116025320D01*
X126940000Y-116051664D01*
X126940000Y-115377466D01*
X126939999Y-115377465D01*
X126823944Y-115399160D01*
X126823938Y-115399162D01*
X126625206Y-115476152D01*
X126443995Y-115588352D01*
X126286506Y-115731924D01*
X126286496Y-115731935D01*
X126158062Y-115902007D01*
X126158057Y-115902016D01*
X126063064Y-116092789D01*
X126004738Y-116297783D01*
X126003607Y-116310000D01*
X126677617Y-116310000D01*
X126640000Y-116438111D01*
X126640000Y-116581889D01*
X126677617Y-116710000D01*
X126003607Y-116710000D01*
X120400000Y-116710000D01*
X120400000Y-113970000D01*
X126034785Y-113970000D01*
X126053603Y-114173083D01*
X126109418Y-114369250D01*
X126200327Y-114551821D01*
X126323236Y-114714579D01*
X126473959Y-114851981D01*
X126647363Y-114959348D01*
X126837544Y-115033024D01*
X127038024Y-115070500D01*
X127241976Y-115070500D01*
X127442456Y-115033024D01*
X127632637Y-114959348D01*
X127806041Y-114851981D01*
X127956764Y-114714579D01*
X128079673Y-114551821D01*
X128170582Y-114369250D01*
X128226397Y-114173083D01*
X128245215Y-113970000D01*
X171754785Y-113970000D01*
X171773603Y-114173083D01*
X171829418Y-114369250D01*
X171920327Y-114551821D01*
X172043236Y-114714579D01*
X172193959Y-114851981D01*
X172367363Y-114959348D01*
X172557544Y-115033024D01*
X172758024Y-115070500D01*
X172961976Y-115070500D01*
X173162456Y-115033024D01*
X173352637Y-114959348D01*
X173526041Y-114851981D01*
X173676764Y-114714579D01*
X173799673Y-114551821D01*
X173825477Y-114500000D01*
X183494750Y-114500000D01*
X183513669Y-114643708D01*
X183513670Y-114643709D01*
X183569139Y-114777625D01*
X183657379Y-114892621D01*
X183772375Y-114980861D01*
X183906291Y-115036330D01*
X184050000Y-115055250D01*
X184193709Y-115036330D01*
X184327625Y-114980861D01*
X184442621Y-114892621D01*
X184530861Y-114777625D01*
X184586330Y-114643709D01*
X184605250Y-114500000D01*
X184586330Y-114356291D01*
X184530861Y-114222375D01*
X184442621Y-114107379D01*
X184327625Y-114019139D01*
X184327621Y-114019137D01*
X184193709Y-113963670D01*
X184193708Y-113963669D01*
X184050000Y-113944750D01*
X183906291Y-113963669D01*
X183906290Y-113963670D01*
X183772378Y-114019137D01*
X183772374Y-114019139D01*
X183657381Y-114107377D01*
X183657377Y-114107381D01*
X183569139Y-114222374D01*
X183569137Y-114222378D01*
X183513670Y-114356290D01*
X183513669Y-114356291D01*
X183494750Y-114499999D01*
X183494750Y-114500000D01*
X173825477Y-114500000D01*
X173890582Y-114369250D01*
X173946397Y-114173083D01*
X173965215Y-113970000D01*
X173946397Y-113766917D01*
X173890582Y-113570750D01*
X173799673Y-113388179D01*
X173676764Y-113225421D01*
X173526041Y-113088019D01*
X173352637Y-112980652D01*
X173162456Y-112906976D01*
X173162455Y-112906975D01*
X173162453Y-112906975D01*
X172961976Y-112869500D01*
X172758024Y-112869500D01*
X172557546Y-112906975D01*
X172487632Y-112934059D01*
X172367363Y-112980652D01*
X172195763Y-113086902D01*
X172193959Y-113088019D01*
X172043237Y-113225420D01*
X171920328Y-113388177D01*
X171920323Y-113388186D01*
X171829419Y-113570747D01*
X171829418Y-113570750D01*
X171773603Y-113766917D01*
X171754785Y-113970000D01*
X128245215Y-113970000D01*
X128226397Y-113766917D01*
X128170582Y-113570750D01*
X128079673Y-113388179D01*
X127956764Y-113225421D01*
X127806041Y-113088019D01*
X127632637Y-112980652D01*
X127442456Y-112906976D01*
X127442455Y-112906975D01*
X127442453Y-112906975D01*
X127241976Y-112869500D01*
X127038024Y-112869500D01*
X126837546Y-112906975D01*
X126767632Y-112934059D01*
X126647363Y-112980652D01*
X126475763Y-113086902D01*
X126473959Y-113088019D01*
X126323237Y-113225420D01*
X126200328Y-113388177D01*
X126200323Y-113388186D01*
X126109419Y-113570747D01*
X126109418Y-113570750D01*
X126053603Y-113766917D01*
X126034785Y-113970000D01*
X120400000Y-113970000D01*
X120400000Y-112550573D01*
X160015424Y-112550573D01*
X160034343Y-112694281D01*
X160034344Y-112694282D01*
X160089813Y-112828198D01*
X160178053Y-112943194D01*
X160293049Y-113031434D01*
X160426965Y-113086903D01*
X160570674Y-113105823D01*
X160714383Y-113086903D01*
X160848299Y-113031434D01*
X160963295Y-112943194D01*
X161051535Y-112828198D01*
X161107004Y-112694282D01*
X161125924Y-112550573D01*
X161107004Y-112406864D01*
X161051535Y-112272948D01*
X160963295Y-112157952D01*
X160848299Y-112069712D01*
X160848295Y-112069710D01*
X160714383Y-112014243D01*
X160714382Y-112014242D01*
X160570674Y-111995323D01*
X160426965Y-112014242D01*
X160426964Y-112014243D01*
X160293052Y-112069710D01*
X160293048Y-112069712D01*
X160178055Y-112157950D01*
X160178051Y-112157954D01*
X160089813Y-112272947D01*
X160089811Y-112272951D01*
X160034344Y-112406863D01*
X160034343Y-112406864D01*
X160015424Y-112550572D01*
X160015424Y-112550573D01*
X120400000Y-112550573D01*
X120400000Y-111430000D01*
X126034785Y-111430000D01*
X126053603Y-111633083D01*
X126109418Y-111829250D01*
X126200327Y-112011821D01*
X126323236Y-112174579D01*
X126473959Y-112311981D01*
X126647363Y-112419348D01*
X126837544Y-112493024D01*
X127038024Y-112530500D01*
X127241976Y-112530500D01*
X127442456Y-112493024D01*
X127632637Y-112419348D01*
X127806041Y-112311981D01*
X127956764Y-112174579D01*
X128079673Y-112011821D01*
X128170582Y-111829250D01*
X128226397Y-111633083D01*
X128245215Y-111430000D01*
X171754785Y-111430000D01*
X171773603Y-111633083D01*
X171829418Y-111829250D01*
X171920327Y-112011821D01*
X172043236Y-112174579D01*
X172193959Y-112311981D01*
X172367363Y-112419348D01*
X172557544Y-112493024D01*
X172758024Y-112530500D01*
X172961976Y-112530500D01*
X173162456Y-112493024D01*
X173352637Y-112419348D01*
X173526041Y-112311981D01*
X173676764Y-112174579D01*
X173799673Y-112011821D01*
X173890582Y-111829250D01*
X173946397Y-111633083D01*
X173965215Y-111430000D01*
X173946397Y-111226917D01*
X173890582Y-111030750D01*
X173799673Y-110848179D01*
X173676764Y-110685421D01*
X173526041Y-110548019D01*
X173352637Y-110440652D01*
X173162456Y-110366976D01*
X173162455Y-110366975D01*
X173162453Y-110366975D01*
X172961976Y-110329500D01*
X172758024Y-110329500D01*
X172557546Y-110366975D01*
X172487632Y-110394059D01*
X172367363Y-110440652D01*
X172300571Y-110482008D01*
X172193959Y-110548019D01*
X172043237Y-110685420D01*
X171920328Y-110848177D01*
X171920323Y-110848186D01*
X171829419Y-111030747D01*
X171829418Y-111030750D01*
X171773603Y-111226917D01*
X171754785Y-111430000D01*
X128245215Y-111430000D01*
X128226397Y-111226917D01*
X128170582Y-111030750D01*
X128079673Y-110848179D01*
X127956764Y-110685421D01*
X127806041Y-110548019D01*
X127632637Y-110440652D01*
X127442456Y-110366976D01*
X127442455Y-110366975D01*
X127442453Y-110366975D01*
X127289047Y-110338299D01*
X137126551Y-110338299D01*
X137145470Y-110482007D01*
X137145471Y-110482008D01*
X137200940Y-110615924D01*
X137289180Y-110730920D01*
X137404176Y-110819160D01*
X137538092Y-110874629D01*
X137681801Y-110893549D01*
X137825510Y-110874629D01*
X137959426Y-110819160D01*
X138074422Y-110730920D01*
X138162662Y-110615924D01*
X138218131Y-110482008D01*
X138237051Y-110338299D01*
X138218131Y-110194590D01*
X138162662Y-110060674D01*
X138074422Y-109945678D01*
X137959426Y-109857438D01*
X137959422Y-109857436D01*
X137825510Y-109801969D01*
X137825509Y-109801968D01*
X137681801Y-109783049D01*
X137538092Y-109801968D01*
X137538091Y-109801969D01*
X137404179Y-109857436D01*
X137404175Y-109857438D01*
X137289182Y-109945676D01*
X137289178Y-109945680D01*
X137200940Y-110060673D01*
X137200938Y-110060677D01*
X137145471Y-110194589D01*
X137145470Y-110194590D01*
X137126551Y-110338298D01*
X137126551Y-110338299D01*
X127289047Y-110338299D01*
X127241976Y-110329500D01*
X127038024Y-110329500D01*
X126837546Y-110366975D01*
X126767632Y-110394059D01*
X126647363Y-110440652D01*
X126580571Y-110482008D01*
X126473959Y-110548019D01*
X126323237Y-110685420D01*
X126200328Y-110848177D01*
X126200323Y-110848186D01*
X126109419Y-111030747D01*
X126109418Y-111030750D01*
X126053603Y-111226917D01*
X126034785Y-111430000D01*
X120400000Y-111430000D01*
X120400000Y-108890000D01*
X126034785Y-108890000D01*
X126053603Y-109093083D01*
X126109418Y-109289250D01*
X126200327Y-109471821D01*
X126323236Y-109634579D01*
X126473959Y-109771981D01*
X126647363Y-109879348D01*
X126837544Y-109953024D01*
X127038024Y-109990500D01*
X127241976Y-109990500D01*
X127442456Y-109953024D01*
X127632637Y-109879348D01*
X127806041Y-109771981D01*
X127956764Y-109634579D01*
X128079673Y-109471821D01*
X128170582Y-109289250D01*
X128226397Y-109093083D01*
X128226874Y-109087939D01*
X142053867Y-109087939D01*
X142072786Y-109231647D01*
X142072787Y-109231648D01*
X142128256Y-109365564D01*
X142216496Y-109480560D01*
X142331492Y-109568800D01*
X142465408Y-109624269D01*
X142609117Y-109643189D01*
X142752826Y-109624269D01*
X142886742Y-109568800D01*
X143001738Y-109480560D01*
X143089978Y-109365564D01*
X143145447Y-109231648D01*
X143164367Y-109087939D01*
X143145447Y-108944230D01*
X143122985Y-108890000D01*
X171754785Y-108890000D01*
X171773603Y-109093083D01*
X171829418Y-109289250D01*
X171920327Y-109471821D01*
X172043236Y-109634579D01*
X172193959Y-109771981D01*
X172367363Y-109879348D01*
X172557544Y-109953024D01*
X172758024Y-109990500D01*
X172961976Y-109990500D01*
X173162456Y-109953024D01*
X173352637Y-109879348D01*
X173526041Y-109771981D01*
X173676764Y-109634579D01*
X173799673Y-109471821D01*
X173890582Y-109289250D01*
X173946397Y-109093083D01*
X173965215Y-108890000D01*
X173946397Y-108686917D01*
X173890582Y-108490750D01*
X173799673Y-108308179D01*
X173676764Y-108145421D01*
X173526041Y-108008019D01*
X173352637Y-107900652D01*
X173162456Y-107826976D01*
X173162455Y-107826975D01*
X173162453Y-107826975D01*
X172961976Y-107789500D01*
X172758024Y-107789500D01*
X172557546Y-107826975D01*
X172487632Y-107854059D01*
X172367363Y-107900652D01*
X172193959Y-108008019D01*
X172043237Y-108145420D01*
X171920328Y-108308177D01*
X171920323Y-108308186D01*
X171829419Y-108490747D01*
X171829418Y-108490750D01*
X171773603Y-108686917D01*
X171754785Y-108890000D01*
X143122985Y-108890000D01*
X143089978Y-108810314D01*
X143001738Y-108695318D01*
X142886742Y-108607078D01*
X142886738Y-108607076D01*
X142752826Y-108551609D01*
X142752825Y-108551608D01*
X142609117Y-108532689D01*
X142465408Y-108551608D01*
X142465407Y-108551609D01*
X142331495Y-108607076D01*
X142331491Y-108607078D01*
X142216498Y-108695316D01*
X142216494Y-108695320D01*
X142128256Y-108810313D01*
X142128254Y-108810317D01*
X142072787Y-108944229D01*
X142072786Y-108944230D01*
X142053867Y-109087938D01*
X142053867Y-109087939D01*
X128226874Y-109087939D01*
X128245215Y-108890000D01*
X128226397Y-108686917D01*
X128170582Y-108490750D01*
X128079673Y-108308179D01*
X127956764Y-108145421D01*
X127806041Y-108008019D01*
X127632637Y-107900652D01*
X127442456Y-107826976D01*
X127442455Y-107826975D01*
X127442453Y-107826975D01*
X127241976Y-107789500D01*
X127038024Y-107789500D01*
X126837546Y-107826975D01*
X126767632Y-107854059D01*
X126647363Y-107900652D01*
X126473959Y-108008019D01*
X126323237Y-108145420D01*
X126200328Y-108308177D01*
X126200323Y-108308186D01*
X126109419Y-108490747D01*
X126109418Y-108490750D01*
X126053603Y-108686917D01*
X126034785Y-108890000D01*
X120400000Y-108890000D01*
X120400000Y-106350000D01*
X126034785Y-106350000D01*
X126053603Y-106553083D01*
X126109418Y-106749250D01*
X126200327Y-106931821D01*
X126323236Y-107094579D01*
X126473959Y-107231981D01*
X126647363Y-107339348D01*
X126837544Y-107413024D01*
X127038024Y-107450500D01*
X127241976Y-107450500D01*
X127442456Y-107413024D01*
X127632637Y-107339348D01*
X127806041Y-107231981D01*
X127956764Y-107094579D01*
X128079673Y-106931821D01*
X128170582Y-106749250D01*
X128181164Y-106712060D01*
X157853867Y-106712060D01*
X157872786Y-106855768D01*
X157872787Y-106855769D01*
X157928256Y-106989685D01*
X158016496Y-107104681D01*
X158131492Y-107192921D01*
X158265408Y-107248390D01*
X158409117Y-107267310D01*
X158552826Y-107248390D01*
X158686742Y-107192921D01*
X158801738Y-107104681D01*
X158889978Y-106989685D01*
X158945447Y-106855769D01*
X158964367Y-106712060D01*
X158945447Y-106568351D01*
X158889978Y-106434435D01*
X158825188Y-106350000D01*
X171754785Y-106350000D01*
X171773603Y-106553083D01*
X171829418Y-106749250D01*
X171920327Y-106931821D01*
X172043236Y-107094579D01*
X172193959Y-107231981D01*
X172367363Y-107339348D01*
X172557544Y-107413024D01*
X172758024Y-107450500D01*
X172961976Y-107450500D01*
X173162456Y-107413024D01*
X173186204Y-107403824D01*
X186963803Y-107403824D01*
X186982722Y-107547532D01*
X186982723Y-107547533D01*
X187038192Y-107681449D01*
X187126432Y-107796445D01*
X187241428Y-107884685D01*
X187375344Y-107940154D01*
X187519053Y-107959074D01*
X187662762Y-107940154D01*
X187796678Y-107884685D01*
X187911674Y-107796445D01*
X187999914Y-107681449D01*
X188055383Y-107547533D01*
X188074303Y-107403824D01*
X188055383Y-107260115D01*
X187999914Y-107126199D01*
X187911674Y-107011203D01*
X187796678Y-106922963D01*
X187796674Y-106922961D01*
X187662762Y-106867494D01*
X187662761Y-106867493D01*
X187519053Y-106848574D01*
X187375344Y-106867493D01*
X187375343Y-106867494D01*
X187241431Y-106922961D01*
X187241427Y-106922963D01*
X187126434Y-107011201D01*
X187126430Y-107011205D01*
X187038192Y-107126198D01*
X187038190Y-107126202D01*
X186982723Y-107260114D01*
X186982722Y-107260115D01*
X186963803Y-107403823D01*
X186963803Y-107403824D01*
X173186204Y-107403824D01*
X173352637Y-107339348D01*
X173526041Y-107231981D01*
X173676764Y-107094579D01*
X173799673Y-106931821D01*
X173890582Y-106749250D01*
X173946397Y-106553083D01*
X173965215Y-106350000D01*
X173946397Y-106146917D01*
X173890582Y-105950750D01*
X173799673Y-105768179D01*
X173676764Y-105605421D01*
X173526041Y-105468019D01*
X173352637Y-105360652D01*
X173162456Y-105286976D01*
X173162455Y-105286975D01*
X173162453Y-105286975D01*
X172961976Y-105249500D01*
X172758024Y-105249500D01*
X172557546Y-105286975D01*
X172487632Y-105314059D01*
X172367363Y-105360652D01*
X172193959Y-105468019D01*
X172043237Y-105605420D01*
X171920328Y-105768177D01*
X171920323Y-105768186D01*
X171829419Y-105950747D01*
X171829418Y-105950750D01*
X171773603Y-106146917D01*
X171754785Y-106350000D01*
X158825188Y-106350000D01*
X158801738Y-106319439D01*
X158686742Y-106231199D01*
X158686738Y-106231197D01*
X158552826Y-106175730D01*
X158552825Y-106175729D01*
X158409117Y-106156810D01*
X158265408Y-106175729D01*
X158265407Y-106175730D01*
X158131495Y-106231197D01*
X158131491Y-106231199D01*
X158016498Y-106319437D01*
X158016494Y-106319441D01*
X157928256Y-106434434D01*
X157928254Y-106434438D01*
X157872787Y-106568350D01*
X157872786Y-106568351D01*
X157853867Y-106712059D01*
X157853867Y-106712060D01*
X128181164Y-106712060D01*
X128226397Y-106553083D01*
X128245215Y-106350000D01*
X128226397Y-106146917D01*
X128170582Y-105950750D01*
X128079673Y-105768179D01*
X127956764Y-105605421D01*
X127806041Y-105468019D01*
X127632637Y-105360652D01*
X127442456Y-105286976D01*
X127442455Y-105286975D01*
X127442453Y-105286975D01*
X127241976Y-105249500D01*
X127038024Y-105249500D01*
X126837546Y-105286975D01*
X126767632Y-105314059D01*
X126647363Y-105360652D01*
X126473959Y-105468019D01*
X126323237Y-105605420D01*
X126200328Y-105768177D01*
X126200323Y-105768186D01*
X126109419Y-105950747D01*
X126109418Y-105950750D01*
X126053603Y-106146917D01*
X126034785Y-106350000D01*
X120400000Y-106350000D01*
X120400000Y-103810000D01*
X126034785Y-103810000D01*
X126053603Y-104013083D01*
X126109418Y-104209250D01*
X126200327Y-104391821D01*
X126323236Y-104554579D01*
X126473959Y-104691981D01*
X126647363Y-104799348D01*
X126837544Y-104873024D01*
X127038024Y-104910500D01*
X127241976Y-104910500D01*
X127442456Y-104873024D01*
X127632637Y-104799348D01*
X127806041Y-104691981D01*
X127956764Y-104554579D01*
X128079673Y-104391821D01*
X128170582Y-104209250D01*
X128226397Y-104013083D01*
X128245215Y-103810000D01*
X128239655Y-103750002D01*
X146819353Y-103750002D01*
X146839834Y-103892456D01*
X146894923Y-104013082D01*
X146899623Y-104023373D01*
X146993872Y-104132143D01*
X146993873Y-104132144D01*
X147113853Y-104209250D01*
X147114947Y-104209953D01*
X147221403Y-104241211D01*
X147253035Y-104250499D01*
X147253036Y-104250499D01*
X147253039Y-104250500D01*
X147253041Y-104250500D01*
X147396959Y-104250500D01*
X147396961Y-104250500D01*
X147535053Y-104209953D01*
X147656128Y-104132143D01*
X147750377Y-104023373D01*
X147810165Y-103892457D01*
X147816992Y-103844971D01*
X147822020Y-103810000D01*
X171754785Y-103810000D01*
X171773603Y-104013083D01*
X171829418Y-104209250D01*
X171920327Y-104391821D01*
X172043236Y-104554579D01*
X172193959Y-104691981D01*
X172367363Y-104799348D01*
X172557544Y-104873024D01*
X172758024Y-104910500D01*
X172961976Y-104910500D01*
X173162456Y-104873024D01*
X173352637Y-104799348D01*
X173526041Y-104691981D01*
X173676764Y-104554579D01*
X173799673Y-104391821D01*
X173890582Y-104209250D01*
X173946397Y-104013083D01*
X173965215Y-103810000D01*
X173946397Y-103606917D01*
X173890582Y-103410750D01*
X173799673Y-103228179D01*
X173676764Y-103065421D01*
X173526041Y-102928019D01*
X173352637Y-102820652D01*
X173162456Y-102746976D01*
X173162455Y-102746975D01*
X173162453Y-102746975D01*
X172961976Y-102709500D01*
X172758024Y-102709500D01*
X172557546Y-102746975D01*
X172487632Y-102774059D01*
X172367363Y-102820652D01*
X172193959Y-102928019D01*
X172043237Y-103065420D01*
X171920328Y-103228177D01*
X171920323Y-103228186D01*
X171850777Y-103367855D01*
X171829418Y-103410750D01*
X171773603Y-103606917D01*
X171754785Y-103810000D01*
X147822020Y-103810000D01*
X147830647Y-103750002D01*
X147830647Y-103749997D01*
X147810165Y-103607543D01*
X147750377Y-103476628D01*
X147750377Y-103476627D01*
X147656128Y-103367857D01*
X147656127Y-103367856D01*
X147656126Y-103367855D01*
X147535057Y-103290049D01*
X147535054Y-103290047D01*
X147535053Y-103290047D01*
X147535050Y-103290046D01*
X147396964Y-103249500D01*
X147396961Y-103249500D01*
X147253039Y-103249500D01*
X147253035Y-103249500D01*
X147114949Y-103290046D01*
X147114942Y-103290049D01*
X146993873Y-103367855D01*
X146899622Y-103476628D01*
X146839834Y-103607543D01*
X146819353Y-103749997D01*
X146819353Y-103750002D01*
X128239655Y-103750002D01*
X128226397Y-103606917D01*
X128170582Y-103410750D01*
X128079673Y-103228179D01*
X127956764Y-103065421D01*
X127806041Y-102928019D01*
X127632637Y-102820652D01*
X127442456Y-102746976D01*
X127442455Y-102746975D01*
X127442453Y-102746975D01*
X127241976Y-102709500D01*
X127038024Y-102709500D01*
X126837546Y-102746975D01*
X126767632Y-102774059D01*
X126647363Y-102820652D01*
X126473959Y-102928019D01*
X126323237Y-103065420D01*
X126200328Y-103228177D01*
X126200323Y-103228186D01*
X126130777Y-103367855D01*
X126109418Y-103410750D01*
X126053603Y-103606917D01*
X126034785Y-103810000D01*
X120400000Y-103810000D01*
X120400000Y-102675002D01*
X151744353Y-102675002D01*
X151764834Y-102817456D01*
X151824622Y-102948371D01*
X151824623Y-102948373D01*
X151918872Y-103057143D01*
X151918873Y-103057144D01*
X152039942Y-103134950D01*
X152039947Y-103134953D01*
X152146403Y-103166211D01*
X152178035Y-103175499D01*
X152178036Y-103175499D01*
X152178039Y-103175500D01*
X152178041Y-103175500D01*
X152321959Y-103175500D01*
X152321961Y-103175500D01*
X152460053Y-103134953D01*
X152581128Y-103057143D01*
X152675377Y-102948373D01*
X152735165Y-102817457D01*
X152755647Y-102675002D01*
X153244353Y-102675002D01*
X153264834Y-102817456D01*
X153324622Y-102948371D01*
X153324623Y-102948373D01*
X153418872Y-103057143D01*
X153418873Y-103057144D01*
X153539942Y-103134950D01*
X153539947Y-103134953D01*
X153646403Y-103166211D01*
X153678035Y-103175499D01*
X153678036Y-103175499D01*
X153678039Y-103175500D01*
X153678041Y-103175500D01*
X153821959Y-103175500D01*
X153821961Y-103175500D01*
X153960053Y-103134953D01*
X154081128Y-103057143D01*
X154175377Y-102948373D01*
X154235165Y-102817457D01*
X154255647Y-102675000D01*
X154235165Y-102532543D01*
X154175377Y-102401627D01*
X154081128Y-102292857D01*
X154081127Y-102292856D01*
X154081126Y-102292855D01*
X153960057Y-102215049D01*
X153960054Y-102215047D01*
X153960053Y-102215047D01*
X153960050Y-102215046D01*
X153821964Y-102174500D01*
X153821961Y-102174500D01*
X153678039Y-102174500D01*
X153678035Y-102174500D01*
X153539949Y-102215046D01*
X153539942Y-102215049D01*
X153418873Y-102292855D01*
X153324622Y-102401628D01*
X153264834Y-102532543D01*
X153244353Y-102674997D01*
X153244353Y-102675002D01*
X152755647Y-102675002D01*
X152755647Y-102675000D01*
X152735165Y-102532543D01*
X152675377Y-102401627D01*
X152581128Y-102292857D01*
X152581127Y-102292856D01*
X152581126Y-102292855D01*
X152460057Y-102215049D01*
X152460054Y-102215047D01*
X152460053Y-102215047D01*
X152460050Y-102215046D01*
X152321964Y-102174500D01*
X152321961Y-102174500D01*
X152178039Y-102174500D01*
X152178035Y-102174500D01*
X152039949Y-102215046D01*
X152039942Y-102215049D01*
X151918873Y-102292855D01*
X151824622Y-102401628D01*
X151764834Y-102532543D01*
X151744353Y-102674997D01*
X151744353Y-102675002D01*
X120400000Y-102675002D01*
X120400000Y-101270000D01*
X126034785Y-101270000D01*
X126053603Y-101473083D01*
X126109418Y-101669250D01*
X126200327Y-101851821D01*
X126323236Y-102014579D01*
X126473959Y-102151981D01*
X126647363Y-102259348D01*
X126837544Y-102333024D01*
X127038024Y-102370500D01*
X127241976Y-102370500D01*
X127442456Y-102333024D01*
X127632637Y-102259348D01*
X127806041Y-102151981D01*
X127956764Y-102014579D01*
X128079673Y-101851821D01*
X128170582Y-101669250D01*
X128225851Y-101475002D01*
X151244353Y-101475002D01*
X151264834Y-101617456D01*
X151288488Y-101669250D01*
X151324623Y-101748373D01*
X151418872Y-101857143D01*
X151418873Y-101857144D01*
X151539942Y-101934950D01*
X151539947Y-101934953D01*
X151646403Y-101966211D01*
X151678035Y-101975499D01*
X151678036Y-101975499D01*
X151678039Y-101975500D01*
X151678041Y-101975500D01*
X151821959Y-101975500D01*
X151821961Y-101975500D01*
X151960053Y-101934953D01*
X152081128Y-101857143D01*
X152175377Y-101748373D01*
X152235165Y-101617457D01*
X152255647Y-101475000D01*
X152255371Y-101473083D01*
X152235165Y-101332543D01*
X152206602Y-101270000D01*
X171754785Y-101270000D01*
X171773603Y-101473083D01*
X171829418Y-101669250D01*
X171920327Y-101851821D01*
X172043236Y-102014579D01*
X172193959Y-102151981D01*
X172367363Y-102259348D01*
X172557544Y-102333024D01*
X172758024Y-102370500D01*
X172961976Y-102370500D01*
X173162456Y-102333024D01*
X173352637Y-102259348D01*
X173526041Y-102151981D01*
X173676764Y-102014579D01*
X173799673Y-101851821D01*
X173890582Y-101669250D01*
X173946397Y-101473083D01*
X173965215Y-101270000D01*
X173946397Y-101066917D01*
X173890582Y-100870750D01*
X173799673Y-100688179D01*
X173676764Y-100525421D01*
X173526041Y-100388019D01*
X173352637Y-100280652D01*
X173162456Y-100206976D01*
X173162455Y-100206975D01*
X173162453Y-100206975D01*
X172961976Y-100169500D01*
X172758024Y-100169500D01*
X172557546Y-100206975D01*
X172487632Y-100234059D01*
X172367363Y-100280652D01*
X172193959Y-100388019D01*
X172043237Y-100525420D01*
X171920328Y-100688177D01*
X171920323Y-100688186D01*
X171829419Y-100870747D01*
X171829418Y-100870750D01*
X171773603Y-101066917D01*
X171754785Y-101270000D01*
X152206602Y-101270000D01*
X152175377Y-101201628D01*
X152175377Y-101201627D01*
X152081128Y-101092857D01*
X152081127Y-101092856D01*
X152081126Y-101092855D01*
X151960057Y-101015049D01*
X151960054Y-101015047D01*
X151960053Y-101015047D01*
X151960050Y-101015046D01*
X151821964Y-100974500D01*
X151821961Y-100974500D01*
X151678039Y-100974500D01*
X151678035Y-100974500D01*
X151539949Y-101015046D01*
X151539942Y-101015049D01*
X151418873Y-101092855D01*
X151324622Y-101201628D01*
X151264834Y-101332543D01*
X151244353Y-101474997D01*
X151244353Y-101475002D01*
X128225851Y-101475002D01*
X128226397Y-101473083D01*
X128245215Y-101270000D01*
X128226397Y-101066917D01*
X128170582Y-100870750D01*
X128079673Y-100688179D01*
X127956764Y-100525421D01*
X127806041Y-100388019D01*
X127632637Y-100280652D01*
X127442456Y-100206976D01*
X127442455Y-100206975D01*
X127442453Y-100206975D01*
X127241976Y-100169500D01*
X127038024Y-100169500D01*
X126837546Y-100206975D01*
X126767632Y-100234059D01*
X126647363Y-100280652D01*
X126473959Y-100388019D01*
X126323237Y-100525420D01*
X126200328Y-100688177D01*
X126200323Y-100688186D01*
X126109419Y-100870747D01*
X126109418Y-100870750D01*
X126053603Y-101066917D01*
X126034785Y-101270000D01*
X120400000Y-101270000D01*
X120400000Y-98730000D01*
X126034785Y-98730000D01*
X126053603Y-98933083D01*
X126109418Y-99129250D01*
X126200327Y-99311821D01*
X126323236Y-99474579D01*
X126473959Y-99611981D01*
X126647363Y-99719348D01*
X126837544Y-99793024D01*
X127038024Y-99830500D01*
X127241976Y-99830500D01*
X127442456Y-99793024D01*
X127632637Y-99719348D01*
X127806041Y-99611981D01*
X127956764Y-99474579D01*
X128079673Y-99311821D01*
X128170582Y-99129250D01*
X128226397Y-98933083D01*
X128245215Y-98730000D01*
X171754785Y-98730000D01*
X171773603Y-98933083D01*
X171829418Y-99129250D01*
X171920327Y-99311821D01*
X172043236Y-99474579D01*
X172193959Y-99611981D01*
X172367363Y-99719348D01*
X172557544Y-99793024D01*
X172758024Y-99830500D01*
X172961976Y-99830500D01*
X173162456Y-99793024D01*
X173352637Y-99719348D01*
X173526041Y-99611981D01*
X173676764Y-99474579D01*
X173799673Y-99311821D01*
X173890582Y-99129250D01*
X173946397Y-98933083D01*
X173965215Y-98730000D01*
X173946397Y-98526917D01*
X173890582Y-98330750D01*
X173799673Y-98148179D01*
X173676764Y-97985421D01*
X173526041Y-97848019D01*
X173352637Y-97740652D01*
X173162456Y-97666976D01*
X173162455Y-97666975D01*
X173162453Y-97666975D01*
X172961976Y-97629500D01*
X172758024Y-97629500D01*
X172557546Y-97666975D01*
X172487632Y-97694059D01*
X172367363Y-97740652D01*
X172230330Y-97825499D01*
X172193959Y-97848019D01*
X172043237Y-97985420D01*
X171920328Y-98148177D01*
X171920323Y-98148186D01*
X171829419Y-98330747D01*
X171829418Y-98330750D01*
X171773603Y-98526917D01*
X171754785Y-98730000D01*
X128245215Y-98730000D01*
X128226397Y-98526917D01*
X128170582Y-98330750D01*
X128079673Y-98148179D01*
X127956764Y-97985421D01*
X127806041Y-97848019D01*
X127632637Y-97740652D01*
X127442456Y-97666976D01*
X127442455Y-97666975D01*
X127442453Y-97666975D01*
X127241976Y-97629500D01*
X127038024Y-97629500D01*
X126837546Y-97666975D01*
X126767632Y-97694059D01*
X126647363Y-97740652D01*
X126510330Y-97825499D01*
X126473959Y-97848019D01*
X126323237Y-97985420D01*
X126200328Y-98148177D01*
X126200323Y-98148186D01*
X126109419Y-98330747D01*
X126109418Y-98330750D01*
X126053603Y-98526917D01*
X126034785Y-98730000D01*
X120400000Y-98730000D01*
X120400000Y-97325002D01*
X145744353Y-97325002D01*
X145764834Y-97467456D01*
X145824622Y-97598371D01*
X145824623Y-97598373D01*
X145918872Y-97707143D01*
X145918873Y-97707144D01*
X145971013Y-97740652D01*
X146039947Y-97784953D01*
X146146403Y-97816211D01*
X146178035Y-97825499D01*
X146178036Y-97825499D01*
X146178039Y-97825500D01*
X146178041Y-97825500D01*
X146321959Y-97825500D01*
X146321961Y-97825500D01*
X146460053Y-97784953D01*
X146581128Y-97707143D01*
X146675377Y-97598373D01*
X146735165Y-97467457D01*
X146755647Y-97325000D01*
X146735165Y-97182543D01*
X146675377Y-97051627D01*
X146581128Y-96942857D01*
X146581127Y-96942856D01*
X146581126Y-96942855D01*
X146460057Y-96865049D01*
X146460054Y-96865047D01*
X146460053Y-96865047D01*
X146460050Y-96865046D01*
X146321964Y-96824500D01*
X146321961Y-96824500D01*
X146178039Y-96824500D01*
X146178035Y-96824500D01*
X146039949Y-96865046D01*
X146039942Y-96865049D01*
X145918873Y-96942855D01*
X145824622Y-97051628D01*
X145764834Y-97182543D01*
X145744353Y-97324997D01*
X145744353Y-97325002D01*
X120400000Y-97325002D01*
X120400000Y-96190000D01*
X126034785Y-96190000D01*
X126053603Y-96393083D01*
X126109418Y-96589250D01*
X126200327Y-96771821D01*
X126323236Y-96934579D01*
X126473959Y-97071981D01*
X126647363Y-97179348D01*
X126837544Y-97253024D01*
X127038024Y-97290500D01*
X127241976Y-97290500D01*
X127442456Y-97253024D01*
X127632637Y-97179348D01*
X127806041Y-97071981D01*
X127956764Y-96934579D01*
X128079673Y-96771821D01*
X128170582Y-96589250D01*
X128226397Y-96393083D01*
X128239655Y-96250002D01*
X145169352Y-96250002D01*
X145189833Y-96392456D01*
X145249621Y-96523371D01*
X145249622Y-96523373D01*
X145306706Y-96589252D01*
X145343872Y-96632144D01*
X145464941Y-96709950D01*
X145464946Y-96709953D01*
X145571402Y-96741211D01*
X145603034Y-96750499D01*
X145603035Y-96750499D01*
X145603038Y-96750500D01*
X145603040Y-96750500D01*
X145746958Y-96750500D01*
X145746960Y-96750500D01*
X145885052Y-96709953D01*
X146006127Y-96632143D01*
X146100376Y-96523373D01*
X146160164Y-96392457D01*
X146180646Y-96250002D01*
X152169353Y-96250002D01*
X152189834Y-96392456D01*
X152249622Y-96523371D01*
X152249623Y-96523373D01*
X152306707Y-96589252D01*
X152343873Y-96632144D01*
X152464942Y-96709950D01*
X152464947Y-96709953D01*
X152571403Y-96741211D01*
X152603035Y-96750499D01*
X152603036Y-96750499D01*
X152603039Y-96750500D01*
X152603041Y-96750500D01*
X152746959Y-96750500D01*
X152746961Y-96750500D01*
X152885053Y-96709953D01*
X153006128Y-96632143D01*
X153100377Y-96523373D01*
X153160165Y-96392457D01*
X153180647Y-96250000D01*
X153172020Y-96190000D01*
X171754785Y-96190000D01*
X171773603Y-96393083D01*
X171829418Y-96589250D01*
X171920327Y-96771821D01*
X172043236Y-96934579D01*
X172193959Y-97071981D01*
X172367363Y-97179348D01*
X172557544Y-97253024D01*
X172758024Y-97290500D01*
X172961976Y-97290500D01*
X173162456Y-97253024D01*
X173352637Y-97179348D01*
X173526041Y-97071981D01*
X173676764Y-96934579D01*
X173799673Y-96771821D01*
X173890582Y-96589250D01*
X173946397Y-96393083D01*
X173965215Y-96190000D01*
X173946397Y-95986917D01*
X173890582Y-95790750D01*
X173799673Y-95608179D01*
X173676764Y-95445421D01*
X173526041Y-95308019D01*
X173352637Y-95200652D01*
X173162456Y-95126976D01*
X173162455Y-95126975D01*
X173162453Y-95126975D01*
X172961976Y-95089500D01*
X172758024Y-95089500D01*
X172557546Y-95126975D01*
X172488305Y-95153799D01*
X172367363Y-95200652D01*
X172228990Y-95286329D01*
X172193959Y-95308019D01*
X172043237Y-95445420D01*
X171920328Y-95608177D01*
X171920323Y-95608186D01*
X171829768Y-95790047D01*
X171829418Y-95790750D01*
X171773603Y-95986917D01*
X171754785Y-96190000D01*
X153172020Y-96190000D01*
X153160165Y-96107543D01*
X153100377Y-95976628D01*
X153100377Y-95976627D01*
X153006128Y-95867857D01*
X153006127Y-95867856D01*
X153006126Y-95867855D01*
X152885057Y-95790049D01*
X152885054Y-95790047D01*
X152885053Y-95790047D01*
X152885050Y-95790046D01*
X152746964Y-95749500D01*
X152746961Y-95749500D01*
X152603039Y-95749500D01*
X152603035Y-95749500D01*
X152464949Y-95790046D01*
X152464942Y-95790049D01*
X152343873Y-95867855D01*
X152249622Y-95976628D01*
X152189834Y-96107543D01*
X152169353Y-96249997D01*
X152169353Y-96250002D01*
X146180646Y-96250002D01*
X146180646Y-96250000D01*
X146172019Y-96190000D01*
X146160164Y-96107543D01*
X146100376Y-95976628D01*
X146100376Y-95976627D01*
X146006127Y-95867857D01*
X146006126Y-95867856D01*
X146006125Y-95867855D01*
X145885056Y-95790049D01*
X145885053Y-95790047D01*
X145885052Y-95790047D01*
X145885049Y-95790046D01*
X145746963Y-95749500D01*
X145746960Y-95749500D01*
X145603038Y-95749500D01*
X145603034Y-95749500D01*
X145464948Y-95790046D01*
X145464941Y-95790049D01*
X145343872Y-95867855D01*
X145249621Y-95976628D01*
X145189833Y-96107543D01*
X145169352Y-96249997D01*
X145169352Y-96250002D01*
X128239655Y-96250002D01*
X128245215Y-96190000D01*
X128226397Y-95986917D01*
X128170582Y-95790750D01*
X128079673Y-95608179D01*
X127956764Y-95445421D01*
X127806041Y-95308019D01*
X127632637Y-95200652D01*
X127442456Y-95126976D01*
X127442455Y-95126975D01*
X127442453Y-95126975D01*
X127241976Y-95089500D01*
X127038024Y-95089500D01*
X126837546Y-95126975D01*
X126768305Y-95153799D01*
X126647363Y-95200652D01*
X126508990Y-95286329D01*
X126473959Y-95308019D01*
X126323237Y-95445420D01*
X126200328Y-95608177D01*
X126200323Y-95608186D01*
X126109768Y-95790047D01*
X126109418Y-95790750D01*
X126053603Y-95986917D01*
X126034785Y-96190000D01*
X120400000Y-96190000D01*
X120400000Y-93650000D01*
X126034785Y-93650000D01*
X126053603Y-93853083D01*
X126109418Y-94049250D01*
X126200327Y-94231821D01*
X126323236Y-94394579D01*
X126473959Y-94531981D01*
X126647363Y-94639348D01*
X126837544Y-94713024D01*
X127038024Y-94750500D01*
X127241976Y-94750500D01*
X127442456Y-94713024D01*
X127632637Y-94639348D01*
X127806041Y-94531981D01*
X127956764Y-94394579D01*
X128079673Y-94231821D01*
X128170582Y-94049250D01*
X128226397Y-93853083D01*
X128245215Y-93650002D01*
X130634352Y-93650002D01*
X130654833Y-93792456D01*
X130682521Y-93853083D01*
X130714622Y-93923373D01*
X130808871Y-94032143D01*
X130808872Y-94032144D01*
X130837435Y-94050500D01*
X130929946Y-94109953D01*
X131036402Y-94141211D01*
X131068034Y-94150499D01*
X131068035Y-94150499D01*
X131068038Y-94150500D01*
X131068040Y-94150500D01*
X131211958Y-94150500D01*
X131211960Y-94150500D01*
X131350052Y-94109953D01*
X131471127Y-94032143D01*
X131565376Y-93923373D01*
X131625164Y-93792457D01*
X131645646Y-93650000D01*
X131633505Y-93565560D01*
X131625164Y-93507543D01*
X131597477Y-93446917D01*
X131565376Y-93376627D01*
X131488528Y-93287939D01*
X157853867Y-93287939D01*
X157872786Y-93431647D01*
X157872787Y-93431648D01*
X157916146Y-93536329D01*
X157928256Y-93565564D01*
X158016496Y-93680560D01*
X158131492Y-93768800D01*
X158265408Y-93824269D01*
X158409117Y-93843189D01*
X158552826Y-93824269D01*
X158686742Y-93768800D01*
X158801738Y-93680560D01*
X158825188Y-93650000D01*
X171754785Y-93650000D01*
X171773603Y-93853083D01*
X171829418Y-94049250D01*
X171920327Y-94231821D01*
X172043236Y-94394579D01*
X172193959Y-94531981D01*
X172367363Y-94639348D01*
X172557544Y-94713024D01*
X172758024Y-94750500D01*
X172961976Y-94750500D01*
X172964651Y-94750000D01*
X175449750Y-94750000D01*
X175468669Y-94893708D01*
X175468670Y-94893709D01*
X175517820Y-95012371D01*
X175524139Y-95027625D01*
X175612379Y-95142621D01*
X175727375Y-95230861D01*
X175861291Y-95286330D01*
X176005000Y-95305250D01*
X176148709Y-95286330D01*
X176282625Y-95230861D01*
X176288701Y-95226199D01*
X183220796Y-95226199D01*
X183250184Y-95367628D01*
X183250186Y-95367636D01*
X183290492Y-95445421D01*
X183316646Y-95495895D01*
X183415245Y-95601469D01*
X183538672Y-95676526D01*
X183677772Y-95715500D01*
X183677773Y-95715500D01*
X183785943Y-95715500D01*
X183785949Y-95715500D01*
X183893111Y-95700771D01*
X184025609Y-95643219D01*
X184137665Y-95552054D01*
X184220971Y-95434037D01*
X184269346Y-95297921D01*
X184279204Y-95153801D01*
X184276880Y-95142618D01*
X184249815Y-95012371D01*
X184249813Y-95012363D01*
X184183355Y-94884107D01*
X184183353Y-94884104D01*
X184084754Y-94778530D01*
X183961328Y-94703474D01*
X183822228Y-94664500D01*
X183714051Y-94664500D01*
X183606888Y-94679228D01*
X183474389Y-94736781D01*
X183362334Y-94827945D01*
X183279029Y-94945962D01*
X183230653Y-95082078D01*
X183220796Y-95226199D01*
X176288701Y-95226199D01*
X176397621Y-95142621D01*
X176485861Y-95027625D01*
X176541330Y-94893709D01*
X176560250Y-94750000D01*
X176541330Y-94606291D01*
X176485861Y-94472375D01*
X176397621Y-94357379D01*
X176282625Y-94269139D01*
X176282621Y-94269137D01*
X176148709Y-94213670D01*
X176148708Y-94213669D01*
X176005000Y-94194750D01*
X175861291Y-94213669D01*
X175861290Y-94213670D01*
X175727378Y-94269137D01*
X175727374Y-94269139D01*
X175612381Y-94357377D01*
X175612377Y-94357381D01*
X175524139Y-94472374D01*
X175524137Y-94472378D01*
X175468670Y-94606290D01*
X175468669Y-94606291D01*
X175449750Y-94749999D01*
X175449750Y-94750000D01*
X172964651Y-94750000D01*
X173162456Y-94713024D01*
X173352637Y-94639348D01*
X173526041Y-94531981D01*
X173676764Y-94394579D01*
X173799673Y-94231821D01*
X173890582Y-94049250D01*
X173946397Y-93853083D01*
X173965215Y-93650000D01*
X173955949Y-93550002D01*
X182999353Y-93550002D01*
X183019834Y-93692456D01*
X183065504Y-93792457D01*
X183079623Y-93823373D01*
X183096794Y-93843189D01*
X183173873Y-93932144D01*
X183294942Y-94009950D01*
X183294947Y-94009953D01*
X183401403Y-94041211D01*
X183433035Y-94050499D01*
X183433036Y-94050499D01*
X183433039Y-94050500D01*
X183433041Y-94050500D01*
X183576959Y-94050500D01*
X183576961Y-94050500D01*
X183715053Y-94009953D01*
X183836128Y-93932143D01*
X183930377Y-93823373D01*
X183990165Y-93692457D01*
X184010647Y-93550000D01*
X184008681Y-93536329D01*
X183990165Y-93407543D01*
X183935543Y-93287939D01*
X183930377Y-93276627D01*
X183836128Y-93167857D01*
X183836127Y-93167856D01*
X183836126Y-93167855D01*
X183715057Y-93090049D01*
X183715054Y-93090047D01*
X183715053Y-93090047D01*
X183715050Y-93090046D01*
X183576964Y-93049500D01*
X183576961Y-93049500D01*
X183433039Y-93049500D01*
X183433035Y-93049500D01*
X183294949Y-93090046D01*
X183294942Y-93090049D01*
X183173873Y-93167855D01*
X183079622Y-93276628D01*
X183019834Y-93407543D01*
X182999353Y-93549997D01*
X182999353Y-93550002D01*
X173955949Y-93550002D01*
X173946397Y-93446917D01*
X173890582Y-93250750D01*
X173799673Y-93068179D01*
X173785946Y-93050002D01*
X177524610Y-93050002D01*
X177544067Y-93185337D01*
X177544069Y-93185345D01*
X177600868Y-93309715D01*
X177600869Y-93309716D01*
X177600870Y-93309718D01*
X177690411Y-93413055D01*
X177805439Y-93486978D01*
X177936633Y-93525500D01*
X177936634Y-93525500D01*
X178073366Y-93525500D01*
X178073367Y-93525500D01*
X178204561Y-93486978D01*
X178319589Y-93413055D01*
X178409130Y-93309718D01*
X178437530Y-93247530D01*
X178465930Y-93185345D01*
X178465932Y-93185337D01*
X178485390Y-93050002D01*
X178485390Y-93049997D01*
X178465932Y-92914662D01*
X178465930Y-92914654D01*
X178409131Y-92790284D01*
X178409130Y-92790283D01*
X178409130Y-92790282D01*
X178319589Y-92686945D01*
X178319588Y-92686944D01*
X178294202Y-92670630D01*
X178236088Y-92633283D01*
X178197358Y-92585919D01*
X178195304Y-92550002D01*
X179524610Y-92550002D01*
X179544067Y-92685337D01*
X179544069Y-92685345D01*
X179600868Y-92809715D01*
X179600869Y-92809716D01*
X179600870Y-92809718D01*
X179690411Y-92913055D01*
X179805439Y-92986978D01*
X179936633Y-93025500D01*
X179936634Y-93025500D01*
X180073366Y-93025500D01*
X180073367Y-93025500D01*
X180204561Y-92986978D01*
X180319589Y-92913055D01*
X180409130Y-92809718D01*
X180449017Y-92722378D01*
X180465930Y-92685345D01*
X180465932Y-92685337D01*
X180485390Y-92550002D01*
X180485390Y-92549997D01*
X180465932Y-92414662D01*
X180465930Y-92414654D01*
X180409131Y-92290284D01*
X180409130Y-92290283D01*
X180409130Y-92290282D01*
X180319589Y-92186945D01*
X180319588Y-92186944D01*
X180294202Y-92170630D01*
X180236088Y-92133283D01*
X180197358Y-92085919D01*
X180193864Y-92024834D01*
X180226943Y-91973361D01*
X180236080Y-91966722D01*
X180319589Y-91913055D01*
X180409130Y-91809718D01*
X180462976Y-91691813D01*
X180465930Y-91685345D01*
X180465932Y-91685337D01*
X180485390Y-91550002D01*
X180485390Y-91549997D01*
X180465932Y-91414662D01*
X180465930Y-91414654D01*
X180409131Y-91290284D01*
X180409130Y-91290283D01*
X180409130Y-91290282D01*
X180319589Y-91186945D01*
X180204561Y-91113022D01*
X180194259Y-91109997D01*
X180073368Y-91074500D01*
X180073367Y-91074500D01*
X179936633Y-91074500D01*
X179936631Y-91074500D01*
X179805441Y-91113021D01*
X179805439Y-91113021D01*
X179805439Y-91113022D01*
X179690411Y-91186945D01*
X179690410Y-91186945D01*
X179690410Y-91186946D01*
X179600868Y-91290284D01*
X179544069Y-91414654D01*
X179544067Y-91414662D01*
X179524610Y-91549997D01*
X179524610Y-91550002D01*
X179544067Y-91685337D01*
X179544069Y-91685345D01*
X179600868Y-91809715D01*
X179600869Y-91809716D01*
X179600870Y-91809718D01*
X179639742Y-91854579D01*
X179690412Y-91913056D01*
X179773910Y-91966716D01*
X179812641Y-92014081D01*
X179816135Y-92075167D01*
X179783056Y-92126640D01*
X179773910Y-92133284D01*
X179690412Y-92186943D01*
X179600868Y-92290284D01*
X179544069Y-92414654D01*
X179544067Y-92414662D01*
X179524610Y-92549997D01*
X179524610Y-92550002D01*
X178195304Y-92550002D01*
X178193864Y-92524834D01*
X178226943Y-92473361D01*
X178236080Y-92466722D01*
X178319589Y-92413055D01*
X178409130Y-92309718D01*
X178437530Y-92247530D01*
X178465930Y-92185345D01*
X178465932Y-92185337D01*
X178485390Y-92050002D01*
X178485390Y-92049997D01*
X178465932Y-91914662D01*
X178465930Y-91914654D01*
X178409131Y-91790284D01*
X178409130Y-91790283D01*
X178409130Y-91790282D01*
X178319589Y-91686945D01*
X178204561Y-91613022D01*
X178195972Y-91610500D01*
X178073368Y-91574500D01*
X178073367Y-91574500D01*
X177936633Y-91574500D01*
X177936631Y-91574500D01*
X177805441Y-91613021D01*
X177805439Y-91613021D01*
X177805439Y-91613022D01*
X177690411Y-91686945D01*
X177690410Y-91686945D01*
X177690410Y-91686946D01*
X177600868Y-91790284D01*
X177544069Y-91914654D01*
X177544067Y-91914662D01*
X177524610Y-92049997D01*
X177524610Y-92050002D01*
X177544067Y-92185337D01*
X177544069Y-92185345D01*
X177600868Y-92309715D01*
X177600869Y-92309716D01*
X177600870Y-92309718D01*
X177619740Y-92331495D01*
X177690412Y-92413056D01*
X177773910Y-92466716D01*
X177812641Y-92514081D01*
X177816135Y-92575167D01*
X177783056Y-92626640D01*
X177773910Y-92633284D01*
X177690412Y-92686943D01*
X177600868Y-92790284D01*
X177544069Y-92914654D01*
X177544067Y-92914662D01*
X177524610Y-93049997D01*
X177524610Y-93050002D01*
X173785946Y-93050002D01*
X173676764Y-92905421D01*
X173526041Y-92768019D01*
X173352637Y-92660652D01*
X173162456Y-92586976D01*
X173162455Y-92586975D01*
X173162453Y-92586975D01*
X172961976Y-92549500D01*
X172758024Y-92549500D01*
X172557546Y-92586975D01*
X172504877Y-92607379D01*
X172367363Y-92660652D01*
X172267677Y-92722375D01*
X172193959Y-92768019D01*
X172043237Y-92905420D01*
X171920328Y-93068177D01*
X171920323Y-93068186D01*
X171859644Y-93190047D01*
X171829418Y-93250750D01*
X171773603Y-93446917D01*
X171754785Y-93650000D01*
X158825188Y-93650000D01*
X158889978Y-93565564D01*
X158945447Y-93431648D01*
X158964367Y-93287939D01*
X158959470Y-93250747D01*
X158945447Y-93144230D01*
X158889978Y-93010314D01*
X158801738Y-92895318D01*
X158686742Y-92807078D01*
X158686738Y-92807076D01*
X158552826Y-92751609D01*
X158552825Y-92751608D01*
X158409117Y-92732689D01*
X158265408Y-92751608D01*
X158265407Y-92751609D01*
X158131495Y-92807076D01*
X158131491Y-92807078D01*
X158016498Y-92895316D01*
X158016494Y-92895320D01*
X157928256Y-93010313D01*
X157928254Y-93010317D01*
X157872787Y-93144229D01*
X157872786Y-93144230D01*
X157853867Y-93287938D01*
X157853867Y-93287939D01*
X131488528Y-93287939D01*
X131471127Y-93267857D01*
X131471126Y-93267856D01*
X131471125Y-93267855D01*
X131350056Y-93190049D01*
X131350053Y-93190047D01*
X131350052Y-93190047D01*
X131350049Y-93190046D01*
X131211963Y-93149500D01*
X131211960Y-93149500D01*
X131068038Y-93149500D01*
X131068034Y-93149500D01*
X130929948Y-93190046D01*
X130929941Y-93190049D01*
X130808872Y-93267855D01*
X130714621Y-93376628D01*
X130654833Y-93507543D01*
X130634352Y-93649997D01*
X130634352Y-93650002D01*
X128245215Y-93650002D01*
X128245215Y-93650000D01*
X128226397Y-93446917D01*
X128170582Y-93250750D01*
X128079673Y-93068179D01*
X127956764Y-92905421D01*
X127806041Y-92768019D01*
X127632637Y-92660652D01*
X127499609Y-92609117D01*
X140356810Y-92609117D01*
X140375729Y-92752825D01*
X140375730Y-92752826D01*
X140418585Y-92856290D01*
X140431199Y-92886742D01*
X140519439Y-93001738D01*
X140634435Y-93089978D01*
X140768351Y-93145447D01*
X140912060Y-93164367D01*
X141055769Y-93145447D01*
X141189685Y-93089978D01*
X141304681Y-93001738D01*
X141392921Y-92886742D01*
X141448390Y-92752826D01*
X141467310Y-92609117D01*
X141467081Y-92607381D01*
X141448390Y-92465408D01*
X141392921Y-92331492D01*
X141304681Y-92216496D01*
X141189685Y-92128256D01*
X141189681Y-92128254D01*
X141055769Y-92072787D01*
X141055768Y-92072786D01*
X140912060Y-92053867D01*
X140768351Y-92072786D01*
X140768350Y-92072787D01*
X140634438Y-92128254D01*
X140634434Y-92128256D01*
X140519441Y-92216494D01*
X140519437Y-92216498D01*
X140431199Y-92331491D01*
X140431197Y-92331495D01*
X140375730Y-92465407D01*
X140375729Y-92465408D01*
X140356810Y-92609116D01*
X140356810Y-92609117D01*
X127499609Y-92609117D01*
X127442456Y-92586976D01*
X127442455Y-92586975D01*
X127442453Y-92586975D01*
X127241976Y-92549500D01*
X127038024Y-92549500D01*
X126837546Y-92586975D01*
X126784877Y-92607379D01*
X126647363Y-92660652D01*
X126547677Y-92722375D01*
X126473959Y-92768019D01*
X126323237Y-92905420D01*
X126200328Y-93068177D01*
X126200323Y-93068186D01*
X126139644Y-93190047D01*
X126109418Y-93250750D01*
X126053603Y-93446917D01*
X126034785Y-93650000D01*
X120400000Y-93650000D01*
X120400000Y-93000000D01*
X124844750Y-93000000D01*
X124863669Y-93143708D01*
X124863670Y-93143709D01*
X124918725Y-93276627D01*
X124919139Y-93277625D01*
X125007379Y-93392621D01*
X125122375Y-93480861D01*
X125256291Y-93536330D01*
X125400000Y-93555250D01*
X125543709Y-93536330D01*
X125677625Y-93480861D01*
X125792621Y-93392621D01*
X125880861Y-93277625D01*
X125936330Y-93143709D01*
X125955250Y-93000000D01*
X125940338Y-92886738D01*
X125936330Y-92856291D01*
X125880861Y-92722375D01*
X125792621Y-92607379D01*
X125677625Y-92519139D01*
X125677621Y-92519137D01*
X125543709Y-92463670D01*
X125543708Y-92463669D01*
X125400000Y-92444750D01*
X125256291Y-92463669D01*
X125256290Y-92463670D01*
X125122378Y-92519137D01*
X125122374Y-92519139D01*
X125007381Y-92607377D01*
X125007377Y-92607381D01*
X124919139Y-92722374D01*
X124919137Y-92722378D01*
X124863670Y-92856290D01*
X124863669Y-92856291D01*
X124844750Y-92999999D01*
X124844750Y-93000000D01*
X120400000Y-93000000D01*
X120400000Y-91110000D01*
X126034785Y-91110000D01*
X126053603Y-91313083D01*
X126073602Y-91383373D01*
X126109419Y-91509252D01*
X126161089Y-91613021D01*
X126200327Y-91691821D01*
X126323236Y-91854579D01*
X126473959Y-91991981D01*
X126647363Y-92099348D01*
X126837544Y-92173024D01*
X127038024Y-92210500D01*
X127241976Y-92210500D01*
X127442456Y-92173024D01*
X127632637Y-92099348D01*
X127806041Y-91991981D01*
X127956764Y-91854579D01*
X128079673Y-91691821D01*
X128170582Y-91509250D01*
X128226397Y-91313083D01*
X128245215Y-91110002D01*
X130634352Y-91110002D01*
X130654833Y-91252456D01*
X130682521Y-91313083D01*
X130714622Y-91383373D01*
X130741734Y-91414662D01*
X130808872Y-91492144D01*
X130929941Y-91569950D01*
X130929946Y-91569953D01*
X131036402Y-91601211D01*
X131068034Y-91610499D01*
X131068035Y-91610499D01*
X131068038Y-91610500D01*
X131068040Y-91610500D01*
X131211958Y-91610500D01*
X131211960Y-91610500D01*
X131350052Y-91569953D01*
X131471127Y-91492143D01*
X131565376Y-91383373D01*
X131625164Y-91252457D01*
X131645646Y-91110000D01*
X171754785Y-91110000D01*
X171773603Y-91313083D01*
X171793602Y-91383373D01*
X171829419Y-91509252D01*
X171881089Y-91613021D01*
X171920327Y-91691821D01*
X172043236Y-91854579D01*
X172193959Y-91991981D01*
X172367363Y-92099348D01*
X172557544Y-92173024D01*
X172758024Y-92210500D01*
X172961976Y-92210500D01*
X173162456Y-92173024D01*
X173352637Y-92099348D01*
X173526041Y-91991981D01*
X173676764Y-91854579D01*
X173799673Y-91691821D01*
X173890582Y-91509250D01*
X173946397Y-91313083D01*
X173965215Y-91110000D01*
X173946397Y-90906917D01*
X173890582Y-90710750D01*
X173810539Y-90550002D01*
X182999353Y-90550002D01*
X183019834Y-90692456D01*
X183079622Y-90823371D01*
X183079623Y-90823373D01*
X183152014Y-90906917D01*
X183173873Y-90932144D01*
X183294942Y-91009950D01*
X183294947Y-91009953D01*
X183401403Y-91041211D01*
X183433035Y-91050499D01*
X183433036Y-91050499D01*
X183433039Y-91050500D01*
X183433041Y-91050500D01*
X183576959Y-91050500D01*
X183576961Y-91050500D01*
X183715053Y-91009953D01*
X183836128Y-90932143D01*
X183930377Y-90823373D01*
X183990165Y-90692457D01*
X184010647Y-90550000D01*
X184007509Y-90528177D01*
X183990165Y-90407543D01*
X183970928Y-90365420D01*
X183930377Y-90276627D01*
X183836128Y-90167857D01*
X183754860Y-90115629D01*
X183716130Y-90068264D01*
X183712637Y-90007178D01*
X183745717Y-89955706D01*
X183794902Y-89934269D01*
X183893111Y-89920771D01*
X184025609Y-89863219D01*
X184137665Y-89772054D01*
X184220971Y-89654037D01*
X184269346Y-89517921D01*
X184279204Y-89373801D01*
X184278235Y-89369139D01*
X184249815Y-89232371D01*
X184249813Y-89232363D01*
X184183355Y-89104107D01*
X184183353Y-89104104D01*
X184084754Y-88998530D01*
X183961328Y-88923474D01*
X183822228Y-88884500D01*
X183714051Y-88884500D01*
X183606888Y-88899228D01*
X183474389Y-88956781D01*
X183362334Y-89047945D01*
X183279029Y-89165962D01*
X183230653Y-89302078D01*
X183220796Y-89446199D01*
X183250184Y-89587628D01*
X183250186Y-89587636D01*
X183316644Y-89715892D01*
X183316646Y-89715895D01*
X183415245Y-89821469D01*
X183488329Y-89865912D01*
X183528225Y-89912302D01*
X183533234Y-89973282D01*
X183501443Y-90025560D01*
X183444996Y-90049168D01*
X183436891Y-90049500D01*
X183433035Y-90049500D01*
X183294949Y-90090046D01*
X183294942Y-90090049D01*
X183173873Y-90167855D01*
X183079622Y-90276628D01*
X183019834Y-90407543D01*
X182999353Y-90549997D01*
X182999353Y-90550002D01*
X173810539Y-90550002D01*
X173799673Y-90528179D01*
X173676764Y-90365421D01*
X173526041Y-90228019D01*
X173352637Y-90120652D01*
X173162456Y-90046976D01*
X173162455Y-90046975D01*
X173162453Y-90046975D01*
X172961976Y-90009500D01*
X172758024Y-90009500D01*
X172557546Y-90046975D01*
X172502593Y-90068264D01*
X172367363Y-90120652D01*
X172193959Y-90228019D01*
X172043237Y-90365420D01*
X171920328Y-90528177D01*
X171920323Y-90528186D01*
X171829419Y-90710747D01*
X171829418Y-90710750D01*
X171773603Y-90906917D01*
X171754785Y-91110000D01*
X131645646Y-91110000D01*
X131637091Y-91050500D01*
X131625164Y-90967543D01*
X131565376Y-90836628D01*
X131565376Y-90836627D01*
X131471127Y-90727857D01*
X131471126Y-90727856D01*
X131471125Y-90727855D01*
X131350056Y-90650049D01*
X131350053Y-90650047D01*
X131350052Y-90650047D01*
X131350049Y-90650046D01*
X131211963Y-90609500D01*
X131211960Y-90609500D01*
X131068038Y-90609500D01*
X131068034Y-90609500D01*
X130929948Y-90650046D01*
X130929941Y-90650049D01*
X130808872Y-90727855D01*
X130714621Y-90836628D01*
X130654833Y-90967543D01*
X130634352Y-91109997D01*
X130634352Y-91110002D01*
X128245215Y-91110002D01*
X128245215Y-91110000D01*
X128226397Y-90906917D01*
X128170582Y-90710750D01*
X128079673Y-90528179D01*
X127956764Y-90365421D01*
X127806041Y-90228019D01*
X127632637Y-90120652D01*
X127442456Y-90046976D01*
X127442455Y-90046975D01*
X127442453Y-90046975D01*
X127241976Y-90009500D01*
X127038024Y-90009500D01*
X126837546Y-90046975D01*
X126782593Y-90068264D01*
X126647363Y-90120652D01*
X126473959Y-90228019D01*
X126323237Y-90365420D01*
X126200328Y-90528177D01*
X126200323Y-90528186D01*
X126109419Y-90710747D01*
X126109418Y-90710750D01*
X126053603Y-90906917D01*
X126034785Y-91110000D01*
X120400000Y-91110000D01*
X120400000Y-89850000D01*
X180899750Y-89850000D01*
X180918669Y-89993708D01*
X180918670Y-89993709D01*
X180971250Y-90120652D01*
X180974139Y-90127625D01*
X181062379Y-90242621D01*
X181177375Y-90330861D01*
X181311291Y-90386330D01*
X181455000Y-90405250D01*
X181598709Y-90386330D01*
X181732625Y-90330861D01*
X181847621Y-90242621D01*
X181935861Y-90127625D01*
X181991330Y-89993709D01*
X182010250Y-89850000D01*
X181991330Y-89706291D01*
X181935861Y-89572375D01*
X181847621Y-89457379D01*
X181732625Y-89369139D01*
X181732621Y-89369137D01*
X181598709Y-89313670D01*
X181598708Y-89313669D01*
X181455000Y-89294750D01*
X181311291Y-89313669D01*
X181311290Y-89313670D01*
X181177378Y-89369137D01*
X181177374Y-89369139D01*
X181062381Y-89457377D01*
X181062377Y-89457381D01*
X180974139Y-89572374D01*
X180974137Y-89572378D01*
X180918670Y-89706290D01*
X180918669Y-89706291D01*
X180899750Y-89849999D01*
X180899750Y-89850000D01*
X120400000Y-89850000D01*
X120400000Y-88570000D01*
X126034785Y-88570000D01*
X126053603Y-88773083D01*
X126109418Y-88969250D01*
X126200327Y-89151821D01*
X126323236Y-89314579D01*
X126473959Y-89451981D01*
X126647363Y-89559348D01*
X126837544Y-89633024D01*
X127038024Y-89670500D01*
X127241976Y-89670500D01*
X127442456Y-89633024D01*
X127632637Y-89559348D01*
X127806041Y-89451981D01*
X127956764Y-89314579D01*
X128079673Y-89151821D01*
X128170582Y-88969250D01*
X128226397Y-88773083D01*
X128245215Y-88570002D01*
X130634352Y-88570002D01*
X130654833Y-88712456D01*
X130682521Y-88773083D01*
X130714622Y-88843373D01*
X130808871Y-88952143D01*
X130808872Y-88952144D01*
X130881052Y-88998531D01*
X130929946Y-89029953D01*
X131036402Y-89061211D01*
X131068034Y-89070499D01*
X131068035Y-89070499D01*
X131068038Y-89070500D01*
X131068040Y-89070500D01*
X131211958Y-89070500D01*
X131211960Y-89070500D01*
X131350052Y-89029953D01*
X131471127Y-88952143D01*
X131565376Y-88843373D01*
X131625164Y-88712457D01*
X131645646Y-88570000D01*
X171754785Y-88570000D01*
X171773603Y-88773083D01*
X171829418Y-88969250D01*
X171920327Y-89151821D01*
X172043236Y-89314579D01*
X172193959Y-89451981D01*
X172367363Y-89559348D01*
X172557544Y-89633024D01*
X172758024Y-89670500D01*
X172961976Y-89670500D01*
X173162456Y-89633024D01*
X173352637Y-89559348D01*
X173526041Y-89451981D01*
X173676764Y-89314579D01*
X173799673Y-89151821D01*
X173890582Y-88969250D01*
X173946397Y-88773083D01*
X173965215Y-88570000D01*
X173946397Y-88366917D01*
X173890582Y-88170750D01*
X173799673Y-87988179D01*
X173676764Y-87825421D01*
X173526041Y-87688019D01*
X173352637Y-87580652D01*
X173162456Y-87506976D01*
X173162455Y-87506975D01*
X173162453Y-87506975D01*
X172961976Y-87469500D01*
X172758024Y-87469500D01*
X172557546Y-87506975D01*
X172487632Y-87534059D01*
X172367363Y-87580652D01*
X172193959Y-87688019D01*
X172043237Y-87825420D01*
X171920328Y-87988177D01*
X171920323Y-87988186D01*
X171859644Y-88110047D01*
X171829418Y-88170750D01*
X171773603Y-88366917D01*
X171754785Y-88570000D01*
X131645646Y-88570000D01*
X131625164Y-88427543D01*
X131565376Y-88296627D01*
X131471127Y-88187857D01*
X131471126Y-88187856D01*
X131471125Y-88187855D01*
X131350056Y-88110049D01*
X131350053Y-88110047D01*
X131350052Y-88110047D01*
X131350049Y-88110046D01*
X131211963Y-88069500D01*
X131211960Y-88069500D01*
X131068038Y-88069500D01*
X131068034Y-88069500D01*
X130929948Y-88110046D01*
X130929941Y-88110049D01*
X130808872Y-88187855D01*
X130714621Y-88296628D01*
X130654833Y-88427543D01*
X130634352Y-88569997D01*
X130634352Y-88570002D01*
X128245215Y-88570002D01*
X128245215Y-88570000D01*
X128226397Y-88366917D01*
X128170582Y-88170750D01*
X128079673Y-87988179D01*
X127956764Y-87825421D01*
X127806041Y-87688019D01*
X127632637Y-87580652D01*
X127442456Y-87506976D01*
X127442455Y-87506975D01*
X127442453Y-87506975D01*
X127241976Y-87469500D01*
X127038024Y-87469500D01*
X126837546Y-87506975D01*
X126767632Y-87534059D01*
X126647363Y-87580652D01*
X126473959Y-87688019D01*
X126323237Y-87825420D01*
X126200328Y-87988177D01*
X126200323Y-87988186D01*
X126139644Y-88110047D01*
X126109418Y-88170750D01*
X126053603Y-88366917D01*
X126034785Y-88570000D01*
X120400000Y-88570000D01*
X120400000Y-86030000D01*
X126034785Y-86030000D01*
X126053603Y-86233083D01*
X126109418Y-86429250D01*
X126200327Y-86611821D01*
X126323236Y-86774579D01*
X126473959Y-86911981D01*
X126647363Y-87019348D01*
X126837544Y-87093024D01*
X127038024Y-87130500D01*
X127241976Y-87130500D01*
X127442456Y-87093024D01*
X127632637Y-87019348D01*
X127806041Y-86911981D01*
X127956764Y-86774579D01*
X128079673Y-86611821D01*
X128170582Y-86429250D01*
X128226397Y-86233083D01*
X128245215Y-86030002D01*
X130634352Y-86030002D01*
X130654833Y-86172456D01*
X130682521Y-86233083D01*
X130714622Y-86303373D01*
X130808871Y-86412143D01*
X130808872Y-86412144D01*
X130835490Y-86429250D01*
X130929946Y-86489953D01*
X131036402Y-86521211D01*
X131068034Y-86530499D01*
X131068035Y-86530499D01*
X131068038Y-86530500D01*
X131068040Y-86530500D01*
X131211958Y-86530500D01*
X131211960Y-86530500D01*
X131350052Y-86489953D01*
X131471127Y-86412143D01*
X131565376Y-86303373D01*
X131625164Y-86172457D01*
X131645646Y-86030000D01*
X171754785Y-86030000D01*
X171773603Y-86233083D01*
X171829418Y-86429250D01*
X171920327Y-86611821D01*
X172043236Y-86774579D01*
X172193959Y-86911981D01*
X172367363Y-87019348D01*
X172557544Y-87093024D01*
X172758024Y-87130500D01*
X172961976Y-87130500D01*
X173162456Y-87093024D01*
X173352637Y-87019348D01*
X173526041Y-86911981D01*
X173676764Y-86774579D01*
X173799673Y-86611821D01*
X173890582Y-86429250D01*
X173946397Y-86233083D01*
X173965215Y-86030000D01*
X173946397Y-85826917D01*
X173890582Y-85630750D01*
X173799673Y-85448179D01*
X173676764Y-85285421D01*
X173526041Y-85148019D01*
X173352637Y-85040652D01*
X173162456Y-84966976D01*
X173162455Y-84966975D01*
X173162453Y-84966975D01*
X172961976Y-84929500D01*
X172758024Y-84929500D01*
X172557546Y-84966975D01*
X172487632Y-84994059D01*
X172367363Y-85040652D01*
X172193959Y-85148019D01*
X172043237Y-85285420D01*
X171920328Y-85448177D01*
X171920323Y-85448186D01*
X171859644Y-85570047D01*
X171829418Y-85630750D01*
X171773603Y-85826917D01*
X171754785Y-86030000D01*
X131645646Y-86030000D01*
X131625164Y-85887543D01*
X131565376Y-85756627D01*
X131471127Y-85647857D01*
X131471126Y-85647856D01*
X131471125Y-85647855D01*
X131350056Y-85570049D01*
X131350053Y-85570047D01*
X131350052Y-85570047D01*
X131350049Y-85570046D01*
X131211963Y-85529500D01*
X131211960Y-85529500D01*
X131068038Y-85529500D01*
X131068034Y-85529500D01*
X130929948Y-85570046D01*
X130929941Y-85570049D01*
X130808872Y-85647855D01*
X130714621Y-85756628D01*
X130654833Y-85887543D01*
X130634352Y-86029997D01*
X130634352Y-86030002D01*
X128245215Y-86030002D01*
X128245215Y-86030000D01*
X128226397Y-85826917D01*
X128170582Y-85630750D01*
X128079673Y-85448179D01*
X127956764Y-85285421D01*
X127806041Y-85148019D01*
X127632637Y-85040652D01*
X127442456Y-84966976D01*
X127442455Y-84966975D01*
X127442453Y-84966975D01*
X127241976Y-84929500D01*
X127038024Y-84929500D01*
X126837546Y-84966975D01*
X126767632Y-84994059D01*
X126647363Y-85040652D01*
X126473959Y-85148019D01*
X126323237Y-85285420D01*
X126200328Y-85448177D01*
X126200323Y-85448186D01*
X126139644Y-85570047D01*
X126109418Y-85630750D01*
X126053603Y-85826917D01*
X126034785Y-86030000D01*
X120400000Y-86030000D01*
X120400000Y-83490000D01*
X126034785Y-83490000D01*
X126053603Y-83693083D01*
X126109418Y-83889250D01*
X126200327Y-84071821D01*
X126323236Y-84234579D01*
X126473959Y-84371981D01*
X126647363Y-84479348D01*
X126837544Y-84553024D01*
X127038024Y-84590500D01*
X127241976Y-84590500D01*
X127442456Y-84553024D01*
X127632637Y-84479348D01*
X127806041Y-84371981D01*
X127956764Y-84234579D01*
X128079673Y-84071821D01*
X128170582Y-83889250D01*
X128226397Y-83693083D01*
X128226683Y-83690000D01*
X171723607Y-83690000D01*
X171724738Y-83702216D01*
X171783064Y-83907210D01*
X171878057Y-84097983D01*
X171878062Y-84097992D01*
X172006496Y-84268064D01*
X172006506Y-84268075D01*
X172163995Y-84411647D01*
X172163994Y-84411647D01*
X172345206Y-84523847D01*
X172543941Y-84600838D01*
X172659999Y-84622533D01*
X172660000Y-84622533D01*
X172660000Y-83948335D01*
X172717685Y-83974680D01*
X172824237Y-83990000D01*
X172895763Y-83990000D01*
X173002315Y-83974680D01*
X173060000Y-83948335D01*
X173060000Y-84622533D01*
X173176058Y-84600838D01*
X173374793Y-84523847D01*
X173556004Y-84411647D01*
X173713493Y-84268075D01*
X173713503Y-84268064D01*
X173841937Y-84097992D01*
X173841942Y-84097983D01*
X173936935Y-83907210D01*
X173995261Y-83702216D01*
X173996393Y-83690000D01*
X173322383Y-83690000D01*
X173360000Y-83561889D01*
X173360000Y-83418111D01*
X173322383Y-83290000D01*
X173996393Y-83290000D01*
X173995261Y-83277783D01*
X173936935Y-83072789D01*
X173841942Y-82882016D01*
X173841937Y-82882007D01*
X173713503Y-82711935D01*
X173713493Y-82711924D01*
X173556004Y-82568352D01*
X173556005Y-82568352D01*
X173374793Y-82456152D01*
X173176061Y-82379162D01*
X173176055Y-82379160D01*
X173060000Y-82357465D01*
X173060000Y-83031664D01*
X173002315Y-83005320D01*
X172895763Y-82990000D01*
X172824237Y-82990000D01*
X172717685Y-83005320D01*
X172660000Y-83031664D01*
X172660000Y-82357466D01*
X172659999Y-82357465D01*
X172543944Y-82379160D01*
X172543938Y-82379162D01*
X172345206Y-82456152D01*
X172163995Y-82568352D01*
X172006506Y-82711924D01*
X172006496Y-82711935D01*
X171878062Y-82882007D01*
X171878057Y-82882016D01*
X171783064Y-83072789D01*
X171724738Y-83277783D01*
X171723607Y-83290000D01*
X172397617Y-83290000D01*
X172360000Y-83418111D01*
X172360000Y-83561889D01*
X172397617Y-83690000D01*
X171723607Y-83690000D01*
X128226683Y-83690000D01*
X128245215Y-83490000D01*
X128226397Y-83286917D01*
X128170582Y-83090750D01*
X128079673Y-82908179D01*
X127956764Y-82745421D01*
X127806041Y-82608019D01*
X127632637Y-82500652D01*
X127442456Y-82426976D01*
X127442455Y-82426975D01*
X127442453Y-82426975D01*
X127241976Y-82389500D01*
X127038024Y-82389500D01*
X126837546Y-82426975D01*
X126767632Y-82454059D01*
X126647363Y-82500652D01*
X126538024Y-82568352D01*
X126473959Y-82608019D01*
X126323237Y-82745420D01*
X126200328Y-82908177D01*
X126200323Y-82908186D01*
X126122216Y-83065048D01*
X126109418Y-83090750D01*
X126053603Y-83286917D01*
X126034785Y-83490000D01*
X120400000Y-83490000D01*
X120400000Y-81824672D01*
X126039500Y-81824672D01*
X126039501Y-81824684D01*
X126054033Y-81897736D01*
X126054035Y-81897742D01*
X126109397Y-81980599D01*
X126109399Y-81980601D01*
X126192260Y-82035966D01*
X126247808Y-82047015D01*
X126265315Y-82050498D01*
X126265320Y-82050498D01*
X126265326Y-82050500D01*
X126265327Y-82050500D01*
X128014673Y-82050500D01*
X128014674Y-82050500D01*
X128087740Y-82035966D01*
X128170601Y-81980601D01*
X128225966Y-81897740D01*
X128240500Y-81824674D01*
X128240500Y-81824672D01*
X171759500Y-81824672D01*
X171759501Y-81824684D01*
X171774033Y-81897736D01*
X171774035Y-81897742D01*
X171829397Y-81980599D01*
X171829399Y-81980601D01*
X171912260Y-82035966D01*
X171967808Y-82047015D01*
X171985315Y-82050498D01*
X171985320Y-82050498D01*
X171985326Y-82050500D01*
X171985327Y-82050500D01*
X173734673Y-82050500D01*
X173734674Y-82050500D01*
X173807740Y-82035966D01*
X173890601Y-81980601D01*
X173945966Y-81897740D01*
X173960500Y-81824674D01*
X173960500Y-80075326D01*
X173945966Y-80002260D01*
X173890601Y-79919399D01*
X173890599Y-79919397D01*
X173807742Y-79864035D01*
X173807740Y-79864034D01*
X173807737Y-79864033D01*
X173807736Y-79864033D01*
X173734684Y-79849501D01*
X173734674Y-79849500D01*
X171985326Y-79849500D01*
X171985325Y-79849500D01*
X171985315Y-79849501D01*
X171912263Y-79864033D01*
X171912257Y-79864035D01*
X171829400Y-79919397D01*
X171829397Y-79919400D01*
X171774035Y-80002257D01*
X171774033Y-80002263D01*
X171759501Y-80075315D01*
X171759500Y-80075327D01*
X171759500Y-81824672D01*
X128240500Y-81824672D01*
X128240500Y-80075326D01*
X128225966Y-80002260D01*
X128170601Y-79919399D01*
X128170599Y-79919397D01*
X128087742Y-79864035D01*
X128087740Y-79864034D01*
X128087737Y-79864033D01*
X128087736Y-79864033D01*
X128014684Y-79849501D01*
X128014674Y-79849500D01*
X126265326Y-79849500D01*
X126265325Y-79849500D01*
X126265315Y-79849501D01*
X126192263Y-79864033D01*
X126192257Y-79864035D01*
X126109400Y-79919397D01*
X126109397Y-79919400D01*
X126054035Y-80002257D01*
X126054033Y-80002263D01*
X126039501Y-80075315D01*
X126039500Y-80075327D01*
X126039500Y-81824672D01*
X120400000Y-81824672D01*
X120400000Y-78014672D01*
X129849499Y-78014672D01*
X129849500Y-78014684D01*
X129864032Y-78087736D01*
X129864034Y-78087742D01*
X129919396Y-78170599D01*
X129919398Y-78170601D01*
X130002259Y-78225966D01*
X130057807Y-78237015D01*
X130075314Y-78240498D01*
X130075319Y-78240498D01*
X130075325Y-78240500D01*
X130075326Y-78240500D01*
X131824672Y-78240500D01*
X131824673Y-78240500D01*
X131897739Y-78225966D01*
X131980600Y-78170601D01*
X132035965Y-78087740D01*
X132050499Y-78014674D01*
X132050499Y-77340000D01*
X132353606Y-77340000D01*
X132354737Y-77352216D01*
X132413063Y-77557210D01*
X132508056Y-77747983D01*
X132508061Y-77747992D01*
X132636495Y-77918064D01*
X132636505Y-77918075D01*
X132793994Y-78061647D01*
X132793993Y-78061647D01*
X132975205Y-78173847D01*
X133173940Y-78250838D01*
X133289998Y-78272533D01*
X133289999Y-78272533D01*
X133289999Y-77598335D01*
X133347684Y-77624680D01*
X133454236Y-77640000D01*
X133525762Y-77640000D01*
X133632314Y-77624680D01*
X133689999Y-77598335D01*
X133689999Y-78272533D01*
X133806057Y-78250838D01*
X134004792Y-78173847D01*
X134186003Y-78061647D01*
X134343492Y-77918075D01*
X134343502Y-77918064D01*
X134471936Y-77747992D01*
X134471941Y-77747983D01*
X134566934Y-77557210D01*
X134625260Y-77352216D01*
X134626392Y-77340000D01*
X133952382Y-77340000D01*
X133989999Y-77211889D01*
X133989999Y-77140000D01*
X134924784Y-77140000D01*
X134943602Y-77343083D01*
X134999417Y-77539250D01*
X135090326Y-77721821D01*
X135213235Y-77884579D01*
X135363958Y-78021981D01*
X135537362Y-78129348D01*
X135727543Y-78203024D01*
X135928023Y-78240500D01*
X136131975Y-78240500D01*
X136332455Y-78203024D01*
X136522636Y-78129348D01*
X136696040Y-78021981D01*
X136846763Y-77884579D01*
X136969672Y-77721821D01*
X137060581Y-77539250D01*
X137116396Y-77343083D01*
X137135214Y-77140000D01*
X137464784Y-77140000D01*
X137483602Y-77343083D01*
X137539417Y-77539250D01*
X137630326Y-77721821D01*
X137753235Y-77884579D01*
X137903958Y-78021981D01*
X138077362Y-78129348D01*
X138267543Y-78203024D01*
X138468023Y-78240500D01*
X138671975Y-78240500D01*
X138872455Y-78203024D01*
X139062636Y-78129348D01*
X139236040Y-78021981D01*
X139386763Y-77884579D01*
X139509672Y-77721821D01*
X139600581Y-77539250D01*
X139656396Y-77343083D01*
X139675214Y-77140000D01*
X140004784Y-77140000D01*
X140023602Y-77343083D01*
X140079417Y-77539250D01*
X140170326Y-77721821D01*
X140293235Y-77884579D01*
X140443958Y-78021981D01*
X140617362Y-78129348D01*
X140807543Y-78203024D01*
X141008023Y-78240500D01*
X141211975Y-78240500D01*
X141412455Y-78203024D01*
X141602636Y-78129348D01*
X141776040Y-78021981D01*
X141926763Y-77884579D01*
X142049672Y-77721821D01*
X142140581Y-77539250D01*
X142196396Y-77343083D01*
X142215214Y-77140000D01*
X142544784Y-77140000D01*
X142563602Y-77343083D01*
X142619417Y-77539250D01*
X142710326Y-77721821D01*
X142833235Y-77884579D01*
X142983958Y-78021981D01*
X143157362Y-78129348D01*
X143347543Y-78203024D01*
X143548023Y-78240500D01*
X143751975Y-78240500D01*
X143952455Y-78203024D01*
X144142636Y-78129348D01*
X144316040Y-78021981D01*
X144466763Y-77884579D01*
X144589672Y-77721821D01*
X144680581Y-77539250D01*
X144736396Y-77343083D01*
X144755214Y-77140000D01*
X145084784Y-77140000D01*
X145103602Y-77343083D01*
X145159417Y-77539250D01*
X145250326Y-77721821D01*
X145373235Y-77884579D01*
X145523958Y-78021981D01*
X145697362Y-78129348D01*
X145887543Y-78203024D01*
X146088023Y-78240500D01*
X146291975Y-78240500D01*
X146492455Y-78203024D01*
X146682636Y-78129348D01*
X146856040Y-78021981D01*
X147006763Y-77884579D01*
X147129672Y-77721821D01*
X147220581Y-77539250D01*
X147276396Y-77343083D01*
X147295214Y-77140000D01*
X147624784Y-77140000D01*
X147643602Y-77343083D01*
X147699417Y-77539250D01*
X147790326Y-77721821D01*
X147913235Y-77884579D01*
X148063958Y-78021981D01*
X148237362Y-78129348D01*
X148427543Y-78203024D01*
X148628023Y-78240500D01*
X148831975Y-78240500D01*
X149032455Y-78203024D01*
X149222636Y-78129348D01*
X149396040Y-78021981D01*
X149546763Y-77884579D01*
X149669672Y-77721821D01*
X149760581Y-77539250D01*
X149816396Y-77343083D01*
X149835214Y-77140000D01*
X150164784Y-77140000D01*
X150183602Y-77343083D01*
X150239417Y-77539250D01*
X150330326Y-77721821D01*
X150453235Y-77884579D01*
X150603958Y-78021981D01*
X150777362Y-78129348D01*
X150967543Y-78203024D01*
X151168023Y-78240500D01*
X151371975Y-78240500D01*
X151572455Y-78203024D01*
X151762636Y-78129348D01*
X151936040Y-78021981D01*
X152086763Y-77884579D01*
X152209672Y-77721821D01*
X152300581Y-77539250D01*
X152356396Y-77343083D01*
X152375214Y-77140000D01*
X152704784Y-77140000D01*
X152723602Y-77343083D01*
X152779417Y-77539250D01*
X152870326Y-77721821D01*
X152993235Y-77884579D01*
X153143958Y-78021981D01*
X153317362Y-78129348D01*
X153507543Y-78203024D01*
X153708023Y-78240500D01*
X153911975Y-78240500D01*
X154112455Y-78203024D01*
X154302636Y-78129348D01*
X154476040Y-78021981D01*
X154626763Y-77884579D01*
X154749672Y-77721821D01*
X154840581Y-77539250D01*
X154896396Y-77343083D01*
X154915214Y-77140000D01*
X155244784Y-77140000D01*
X155263602Y-77343083D01*
X155319417Y-77539250D01*
X155410326Y-77721821D01*
X155533235Y-77884579D01*
X155683958Y-78021981D01*
X155857362Y-78129348D01*
X156047543Y-78203024D01*
X156248023Y-78240500D01*
X156451975Y-78240500D01*
X156652455Y-78203024D01*
X156842636Y-78129348D01*
X157016040Y-78021981D01*
X157166763Y-77884579D01*
X157289672Y-77721821D01*
X157380581Y-77539250D01*
X157436396Y-77343083D01*
X157455214Y-77140000D01*
X157784784Y-77140000D01*
X157803602Y-77343083D01*
X157859417Y-77539250D01*
X157950326Y-77721821D01*
X158073235Y-77884579D01*
X158223958Y-78021981D01*
X158397362Y-78129348D01*
X158587543Y-78203024D01*
X158788023Y-78240500D01*
X158991975Y-78240500D01*
X159192455Y-78203024D01*
X159382636Y-78129348D01*
X159556040Y-78021981D01*
X159706763Y-77884579D01*
X159829672Y-77721821D01*
X159920581Y-77539250D01*
X159976396Y-77343083D01*
X159995214Y-77140000D01*
X160324784Y-77140000D01*
X160343602Y-77343083D01*
X160399417Y-77539250D01*
X160490326Y-77721821D01*
X160613235Y-77884579D01*
X160763958Y-78021981D01*
X160937362Y-78129348D01*
X161127543Y-78203024D01*
X161328023Y-78240500D01*
X161531975Y-78240500D01*
X161732455Y-78203024D01*
X161922636Y-78129348D01*
X162096040Y-78021981D01*
X162246763Y-77884579D01*
X162369672Y-77721821D01*
X162460581Y-77539250D01*
X162516396Y-77343083D01*
X162535214Y-77140000D01*
X162864784Y-77140000D01*
X162883602Y-77343083D01*
X162939417Y-77539250D01*
X163030326Y-77721821D01*
X163153235Y-77884579D01*
X163303958Y-78021981D01*
X163477362Y-78129348D01*
X163667543Y-78203024D01*
X163868023Y-78240500D01*
X164071975Y-78240500D01*
X164272455Y-78203024D01*
X164462636Y-78129348D01*
X164636040Y-78021981D01*
X164786763Y-77884579D01*
X164909672Y-77721821D01*
X165000581Y-77539250D01*
X165056396Y-77343083D01*
X165075214Y-77140000D01*
X165404784Y-77140000D01*
X165423602Y-77343083D01*
X165479417Y-77539250D01*
X165570326Y-77721821D01*
X165693235Y-77884579D01*
X165843958Y-78021981D01*
X166017362Y-78129348D01*
X166207543Y-78203024D01*
X166408023Y-78240500D01*
X166611975Y-78240500D01*
X166812455Y-78203024D01*
X167002636Y-78129348D01*
X167176040Y-78021981D01*
X167326763Y-77884579D01*
X167449672Y-77721821D01*
X167540581Y-77539250D01*
X167596396Y-77343083D01*
X167615214Y-77140000D01*
X167944784Y-77140000D01*
X167963602Y-77343083D01*
X168019417Y-77539250D01*
X168110326Y-77721821D01*
X168233235Y-77884579D01*
X168383958Y-78021981D01*
X168557362Y-78129348D01*
X168747543Y-78203024D01*
X168948023Y-78240500D01*
X169151975Y-78240500D01*
X169352455Y-78203024D01*
X169542636Y-78129348D01*
X169716040Y-78021981D01*
X169866763Y-77884579D01*
X169989672Y-77721821D01*
X170080581Y-77539250D01*
X170136396Y-77343083D01*
X170155214Y-77140000D01*
X170136396Y-76936917D01*
X170080581Y-76740750D01*
X169989672Y-76558179D01*
X169866763Y-76395421D01*
X169716040Y-76258019D01*
X169542636Y-76150652D01*
X169352455Y-76076976D01*
X169352454Y-76076975D01*
X169352452Y-76076975D01*
X169151975Y-76039500D01*
X168948023Y-76039500D01*
X168747545Y-76076975D01*
X168677631Y-76104059D01*
X168557362Y-76150652D01*
X168490163Y-76192260D01*
X168383958Y-76258019D01*
X168233236Y-76395420D01*
X168110327Y-76558177D01*
X168110322Y-76558186D01*
X168032215Y-76715048D01*
X168019417Y-76740750D01*
X167963602Y-76936917D01*
X167944784Y-77140000D01*
X167615214Y-77140000D01*
X167596396Y-76936917D01*
X167540581Y-76740750D01*
X167449672Y-76558179D01*
X167326763Y-76395421D01*
X167176040Y-76258019D01*
X167002636Y-76150652D01*
X166812455Y-76076976D01*
X166812454Y-76076975D01*
X166812452Y-76076975D01*
X166611975Y-76039500D01*
X166408023Y-76039500D01*
X166207545Y-76076975D01*
X166137631Y-76104059D01*
X166017362Y-76150652D01*
X165950163Y-76192260D01*
X165843958Y-76258019D01*
X165693236Y-76395420D01*
X165570327Y-76558177D01*
X165570322Y-76558186D01*
X165492215Y-76715048D01*
X165479417Y-76740750D01*
X165423602Y-76936917D01*
X165404784Y-77140000D01*
X165075214Y-77140000D01*
X165056396Y-76936917D01*
X165000581Y-76740750D01*
X164909672Y-76558179D01*
X164786763Y-76395421D01*
X164636040Y-76258019D01*
X164462636Y-76150652D01*
X164272455Y-76076976D01*
X164272454Y-76076975D01*
X164272452Y-76076975D01*
X164071975Y-76039500D01*
X163868023Y-76039500D01*
X163667545Y-76076975D01*
X163597631Y-76104059D01*
X163477362Y-76150652D01*
X163410163Y-76192260D01*
X163303958Y-76258019D01*
X163153236Y-76395420D01*
X163030327Y-76558177D01*
X163030322Y-76558186D01*
X162952215Y-76715048D01*
X162939417Y-76740750D01*
X162883602Y-76936917D01*
X162864784Y-77140000D01*
X162535214Y-77140000D01*
X162516396Y-76936917D01*
X162460581Y-76740750D01*
X162369672Y-76558179D01*
X162246763Y-76395421D01*
X162096040Y-76258019D01*
X161922636Y-76150652D01*
X161732455Y-76076976D01*
X161732454Y-76076975D01*
X161732452Y-76076975D01*
X161531975Y-76039500D01*
X161328023Y-76039500D01*
X161127545Y-76076975D01*
X161057631Y-76104059D01*
X160937362Y-76150652D01*
X160870163Y-76192260D01*
X160763958Y-76258019D01*
X160613236Y-76395420D01*
X160490327Y-76558177D01*
X160490322Y-76558186D01*
X160412215Y-76715048D01*
X160399417Y-76740750D01*
X160343602Y-76936917D01*
X160324784Y-77140000D01*
X159995214Y-77140000D01*
X159976396Y-76936917D01*
X159920581Y-76740750D01*
X159829672Y-76558179D01*
X159706763Y-76395421D01*
X159556040Y-76258019D01*
X159382636Y-76150652D01*
X159192455Y-76076976D01*
X159192454Y-76076975D01*
X159192452Y-76076975D01*
X158991975Y-76039500D01*
X158788023Y-76039500D01*
X158587545Y-76076975D01*
X158517631Y-76104059D01*
X158397362Y-76150652D01*
X158330163Y-76192260D01*
X158223958Y-76258019D01*
X158073236Y-76395420D01*
X157950327Y-76558177D01*
X157950322Y-76558186D01*
X157872215Y-76715048D01*
X157859417Y-76740750D01*
X157803602Y-76936917D01*
X157784784Y-77140000D01*
X157455214Y-77140000D01*
X157436396Y-76936917D01*
X157380581Y-76740750D01*
X157289672Y-76558179D01*
X157166763Y-76395421D01*
X157016040Y-76258019D01*
X156842636Y-76150652D01*
X156652455Y-76076976D01*
X156652454Y-76076975D01*
X156652452Y-76076975D01*
X156451975Y-76039500D01*
X156248023Y-76039500D01*
X156047545Y-76076975D01*
X155977631Y-76104059D01*
X155857362Y-76150652D01*
X155790163Y-76192260D01*
X155683958Y-76258019D01*
X155533236Y-76395420D01*
X155410327Y-76558177D01*
X155410322Y-76558186D01*
X155332215Y-76715048D01*
X155319417Y-76740750D01*
X155263602Y-76936917D01*
X155244784Y-77140000D01*
X154915214Y-77140000D01*
X154896396Y-76936917D01*
X154840581Y-76740750D01*
X154749672Y-76558179D01*
X154626763Y-76395421D01*
X154476040Y-76258019D01*
X154302636Y-76150652D01*
X154112455Y-76076976D01*
X154112454Y-76076975D01*
X154112452Y-76076975D01*
X153911975Y-76039500D01*
X153708023Y-76039500D01*
X153507545Y-76076975D01*
X153437631Y-76104059D01*
X153317362Y-76150652D01*
X153250163Y-76192260D01*
X153143958Y-76258019D01*
X152993236Y-76395420D01*
X152870327Y-76558177D01*
X152870322Y-76558186D01*
X152792215Y-76715048D01*
X152779417Y-76740750D01*
X152723602Y-76936917D01*
X152704784Y-77140000D01*
X152375214Y-77140000D01*
X152356396Y-76936917D01*
X152300581Y-76740750D01*
X152209672Y-76558179D01*
X152086763Y-76395421D01*
X151936040Y-76258019D01*
X151762636Y-76150652D01*
X151572455Y-76076976D01*
X151572454Y-76076975D01*
X151572452Y-76076975D01*
X151371975Y-76039500D01*
X151168023Y-76039500D01*
X150967545Y-76076975D01*
X150897631Y-76104059D01*
X150777362Y-76150652D01*
X150710163Y-76192260D01*
X150603958Y-76258019D01*
X150453236Y-76395420D01*
X150330327Y-76558177D01*
X150330322Y-76558186D01*
X150252215Y-76715048D01*
X150239417Y-76740750D01*
X150183602Y-76936917D01*
X150164784Y-77140000D01*
X149835214Y-77140000D01*
X149816396Y-76936917D01*
X149760581Y-76740750D01*
X149669672Y-76558179D01*
X149546763Y-76395421D01*
X149396040Y-76258019D01*
X149222636Y-76150652D01*
X149032455Y-76076976D01*
X149032454Y-76076975D01*
X149032452Y-76076975D01*
X148831975Y-76039500D01*
X148628023Y-76039500D01*
X148427545Y-76076975D01*
X148357631Y-76104059D01*
X148237362Y-76150652D01*
X148170163Y-76192260D01*
X148063958Y-76258019D01*
X147913236Y-76395420D01*
X147790327Y-76558177D01*
X147790322Y-76558186D01*
X147712215Y-76715048D01*
X147699417Y-76740750D01*
X147643602Y-76936917D01*
X147624784Y-77140000D01*
X147295214Y-77140000D01*
X147276396Y-76936917D01*
X147220581Y-76740750D01*
X147129672Y-76558179D01*
X147006763Y-76395421D01*
X146856040Y-76258019D01*
X146682636Y-76150652D01*
X146492455Y-76076976D01*
X146492454Y-76076975D01*
X146492452Y-76076975D01*
X146291975Y-76039500D01*
X146088023Y-76039500D01*
X145887545Y-76076975D01*
X145817631Y-76104059D01*
X145697362Y-76150652D01*
X145630163Y-76192260D01*
X145523958Y-76258019D01*
X145373236Y-76395420D01*
X145250327Y-76558177D01*
X145250322Y-76558186D01*
X145172215Y-76715048D01*
X145159417Y-76740750D01*
X145103602Y-76936917D01*
X145084784Y-77140000D01*
X144755214Y-77140000D01*
X144736396Y-76936917D01*
X144680581Y-76740750D01*
X144589672Y-76558179D01*
X144466763Y-76395421D01*
X144316040Y-76258019D01*
X144142636Y-76150652D01*
X143952455Y-76076976D01*
X143952454Y-76076975D01*
X143952452Y-76076975D01*
X143751975Y-76039500D01*
X143548023Y-76039500D01*
X143347545Y-76076975D01*
X143277631Y-76104059D01*
X143157362Y-76150652D01*
X143090163Y-76192260D01*
X142983958Y-76258019D01*
X142833236Y-76395420D01*
X142710327Y-76558177D01*
X142710322Y-76558186D01*
X142632215Y-76715048D01*
X142619417Y-76740750D01*
X142563602Y-76936917D01*
X142544784Y-77140000D01*
X142215214Y-77140000D01*
X142196396Y-76936917D01*
X142140581Y-76740750D01*
X142049672Y-76558179D01*
X141926763Y-76395421D01*
X141776040Y-76258019D01*
X141602636Y-76150652D01*
X141412455Y-76076976D01*
X141412454Y-76076975D01*
X141412452Y-76076975D01*
X141211975Y-76039500D01*
X141008023Y-76039500D01*
X140807545Y-76076975D01*
X140737631Y-76104059D01*
X140617362Y-76150652D01*
X140550163Y-76192260D01*
X140443958Y-76258019D01*
X140293236Y-76395420D01*
X140170327Y-76558177D01*
X140170322Y-76558186D01*
X140092215Y-76715048D01*
X140079417Y-76740750D01*
X140023602Y-76936917D01*
X140004784Y-77140000D01*
X139675214Y-77140000D01*
X139656396Y-76936917D01*
X139600581Y-76740750D01*
X139509672Y-76558179D01*
X139386763Y-76395421D01*
X139236040Y-76258019D01*
X139062636Y-76150652D01*
X138872455Y-76076976D01*
X138872454Y-76076975D01*
X138872452Y-76076975D01*
X138671975Y-76039500D01*
X138468023Y-76039500D01*
X138267545Y-76076975D01*
X138197631Y-76104059D01*
X138077362Y-76150652D01*
X138010163Y-76192260D01*
X137903958Y-76258019D01*
X137753236Y-76395420D01*
X137630327Y-76558177D01*
X137630322Y-76558186D01*
X137552215Y-76715048D01*
X137539417Y-76740750D01*
X137483602Y-76936917D01*
X137464784Y-77140000D01*
X137135214Y-77140000D01*
X137116396Y-76936917D01*
X137060581Y-76740750D01*
X136969672Y-76558179D01*
X136846763Y-76395421D01*
X136696040Y-76258019D01*
X136522636Y-76150652D01*
X136332455Y-76076976D01*
X136332454Y-76076975D01*
X136332452Y-76076975D01*
X136131975Y-76039500D01*
X135928023Y-76039500D01*
X135727545Y-76076975D01*
X135657631Y-76104059D01*
X135537362Y-76150652D01*
X135470163Y-76192260D01*
X135363958Y-76258019D01*
X135213236Y-76395420D01*
X135090327Y-76558177D01*
X135090322Y-76558186D01*
X135012215Y-76715048D01*
X134999417Y-76740750D01*
X134943602Y-76936917D01*
X134924784Y-77140000D01*
X133989999Y-77140000D01*
X133989999Y-77068111D01*
X133952382Y-76940000D01*
X134626392Y-76940000D01*
X134625260Y-76927783D01*
X134566934Y-76722789D01*
X134471941Y-76532016D01*
X134471936Y-76532007D01*
X134343502Y-76361935D01*
X134343492Y-76361924D01*
X134186003Y-76218352D01*
X134186004Y-76218352D01*
X134004792Y-76106152D01*
X133806060Y-76029162D01*
X133806054Y-76029160D01*
X133689999Y-76007465D01*
X133689999Y-76681664D01*
X133632314Y-76655320D01*
X133525762Y-76640000D01*
X133454236Y-76640000D01*
X133347684Y-76655320D01*
X133289999Y-76681664D01*
X133289999Y-76007466D01*
X133289998Y-76007465D01*
X133173943Y-76029160D01*
X133173937Y-76029162D01*
X132975205Y-76106152D01*
X132793994Y-76218352D01*
X132636505Y-76361924D01*
X132636495Y-76361935D01*
X132508061Y-76532007D01*
X132508056Y-76532016D01*
X132413063Y-76722789D01*
X132354737Y-76927783D01*
X132353606Y-76940000D01*
X133027616Y-76940000D01*
X132989999Y-77068111D01*
X132989999Y-77211889D01*
X133027616Y-77340000D01*
X132353606Y-77340000D01*
X132050499Y-77340000D01*
X132050499Y-76265326D01*
X132035965Y-76192260D01*
X131980600Y-76109399D01*
X131980598Y-76109397D01*
X131897741Y-76054035D01*
X131897739Y-76054034D01*
X131897736Y-76054033D01*
X131897735Y-76054033D01*
X131824683Y-76039501D01*
X131824673Y-76039500D01*
X130075325Y-76039500D01*
X130075324Y-76039500D01*
X130075314Y-76039501D01*
X130002262Y-76054033D01*
X130002256Y-76054035D01*
X129919399Y-76109397D01*
X129919396Y-76109400D01*
X129864034Y-76192257D01*
X129864032Y-76192263D01*
X129849500Y-76265315D01*
X129849499Y-76265327D01*
X129849499Y-78014672D01*
X120400000Y-78014672D01*
X120400000Y-73700001D01*
X143144352Y-73700001D01*
X143164833Y-73842455D01*
X143224621Y-73973370D01*
X143224622Y-73973372D01*
X143318871Y-74082142D01*
X143318872Y-74082143D01*
X143439941Y-74159949D01*
X143439946Y-74159952D01*
X143546402Y-74191210D01*
X143578034Y-74200498D01*
X143578035Y-74200498D01*
X143578038Y-74200499D01*
X143578040Y-74200499D01*
X143721958Y-74200499D01*
X143721960Y-74200499D01*
X143860052Y-74159952D01*
X143981127Y-74082142D01*
X144075376Y-73973372D01*
X144135164Y-73842456D01*
X144155646Y-73700001D01*
X178814353Y-73700001D01*
X178834834Y-73842455D01*
X178894622Y-73973370D01*
X178894623Y-73973372D01*
X178988872Y-74082142D01*
X178988873Y-74082143D01*
X179109942Y-74159949D01*
X179109947Y-74159952D01*
X179216403Y-74191210D01*
X179248035Y-74200498D01*
X179248036Y-74200498D01*
X179248039Y-74200499D01*
X179248041Y-74200499D01*
X179391959Y-74200499D01*
X179391961Y-74200499D01*
X179530053Y-74159952D01*
X179651128Y-74082142D01*
X179745377Y-73973372D01*
X179805165Y-73842456D01*
X179825647Y-73699999D01*
X179805165Y-73557542D01*
X179745377Y-73426626D01*
X179651128Y-73317856D01*
X179651127Y-73317855D01*
X179651126Y-73317854D01*
X179530057Y-73240048D01*
X179530054Y-73240046D01*
X179530053Y-73240046D01*
X179530050Y-73240045D01*
X179391964Y-73199499D01*
X179391961Y-73199499D01*
X179248039Y-73199499D01*
X179248035Y-73199499D01*
X179109949Y-73240045D01*
X179109942Y-73240048D01*
X178988873Y-73317854D01*
X178894622Y-73426627D01*
X178834834Y-73557542D01*
X178814353Y-73699996D01*
X178814353Y-73700001D01*
X144155646Y-73700001D01*
X144155646Y-73699999D01*
X144135164Y-73557542D01*
X144075376Y-73426626D01*
X143981127Y-73317856D01*
X143981126Y-73317855D01*
X143981125Y-73317854D01*
X143860056Y-73240048D01*
X143860053Y-73240046D01*
X143860052Y-73240046D01*
X143860049Y-73240045D01*
X143721963Y-73199499D01*
X143721960Y-73199499D01*
X143578038Y-73199499D01*
X143578034Y-73199499D01*
X143439948Y-73240045D01*
X143439941Y-73240048D01*
X143318872Y-73317854D01*
X143224621Y-73426627D01*
X143164833Y-73557542D01*
X143144352Y-73699996D01*
X143144352Y-73700001D01*
X120400000Y-73700001D01*
X120400000Y-73000002D01*
X140604352Y-73000002D01*
X140624833Y-73142456D01*
X140650884Y-73199499D01*
X140684622Y-73273373D01*
X140778871Y-73382143D01*
X140778872Y-73382144D01*
X140899941Y-73459950D01*
X140899946Y-73459953D01*
X141006402Y-73491211D01*
X141038034Y-73500499D01*
X141038035Y-73500499D01*
X141038038Y-73500500D01*
X141038040Y-73500500D01*
X141181958Y-73500500D01*
X141181960Y-73500500D01*
X141320052Y-73459953D01*
X141441127Y-73382143D01*
X141535376Y-73273373D01*
X141595164Y-73142457D01*
X141615646Y-73000002D01*
X176274353Y-73000002D01*
X176294834Y-73142456D01*
X176320885Y-73199499D01*
X176354623Y-73273373D01*
X176448872Y-73382143D01*
X176448873Y-73382144D01*
X176569942Y-73459950D01*
X176569947Y-73459953D01*
X176676403Y-73491211D01*
X176708035Y-73500499D01*
X176708036Y-73500499D01*
X176708039Y-73500500D01*
X176708041Y-73500500D01*
X176851959Y-73500500D01*
X176851961Y-73500500D01*
X176990053Y-73459953D01*
X177111128Y-73382143D01*
X177205377Y-73273373D01*
X177265165Y-73142457D01*
X177285647Y-73000000D01*
X177265165Y-72857543D01*
X177205377Y-72726627D01*
X177111128Y-72617857D01*
X177111127Y-72617856D01*
X177111126Y-72617855D01*
X176990057Y-72540049D01*
X176990054Y-72540047D01*
X176990053Y-72540047D01*
X176990050Y-72540046D01*
X176851964Y-72499500D01*
X176851961Y-72499500D01*
X176708039Y-72499500D01*
X176708035Y-72499500D01*
X176569949Y-72540046D01*
X176569942Y-72540049D01*
X176448873Y-72617855D01*
X176354622Y-72726628D01*
X176294834Y-72857543D01*
X176274353Y-72999997D01*
X176274353Y-73000002D01*
X141615646Y-73000002D01*
X141615646Y-73000000D01*
X141595164Y-72857543D01*
X141535376Y-72726627D01*
X141441127Y-72617857D01*
X141441126Y-72617856D01*
X141441125Y-72617855D01*
X141320056Y-72540049D01*
X141320053Y-72540047D01*
X141320052Y-72540047D01*
X141320049Y-72540046D01*
X141181963Y-72499500D01*
X141181960Y-72499500D01*
X141038038Y-72499500D01*
X141038034Y-72499500D01*
X140899948Y-72540046D01*
X140899941Y-72540049D01*
X140778872Y-72617855D01*
X140684621Y-72726628D01*
X140624833Y-72857543D01*
X140604352Y-72999997D01*
X140604352Y-73000002D01*
X120400000Y-73000002D01*
X120400000Y-72300002D01*
X134254353Y-72300002D01*
X134274834Y-72442456D01*
X134300886Y-72499500D01*
X134334623Y-72573373D01*
X134428872Y-72682143D01*
X134428873Y-72682144D01*
X134498092Y-72726628D01*
X134549947Y-72759953D01*
X134656403Y-72791211D01*
X134688035Y-72800499D01*
X134688036Y-72800499D01*
X134688039Y-72800500D01*
X134688041Y-72800500D01*
X134831959Y-72800500D01*
X134831961Y-72800500D01*
X134970053Y-72759953D01*
X135091128Y-72682143D01*
X135185377Y-72573373D01*
X135245165Y-72442457D01*
X135265647Y-72300002D01*
X173734353Y-72300002D01*
X173754834Y-72442456D01*
X173780886Y-72499500D01*
X173814623Y-72573373D01*
X173908872Y-72682143D01*
X173908873Y-72682144D01*
X173978092Y-72726628D01*
X174029947Y-72759953D01*
X174136403Y-72791211D01*
X174168035Y-72800499D01*
X174168036Y-72800499D01*
X174168039Y-72800500D01*
X174168041Y-72800500D01*
X174311959Y-72800500D01*
X174311961Y-72800500D01*
X174450053Y-72759953D01*
X174571128Y-72682143D01*
X174665377Y-72573373D01*
X174725165Y-72442457D01*
X174745647Y-72300000D01*
X174725165Y-72157543D01*
X174665377Y-72026627D01*
X174571128Y-71917857D01*
X174571127Y-71917856D01*
X174571126Y-71917855D01*
X174450057Y-71840049D01*
X174450054Y-71840047D01*
X174450053Y-71840047D01*
X174450050Y-71840046D01*
X174311964Y-71799500D01*
X174311961Y-71799500D01*
X174168039Y-71799500D01*
X174168035Y-71799500D01*
X174029949Y-71840046D01*
X174029942Y-71840049D01*
X173908873Y-71917855D01*
X173814622Y-72026628D01*
X173754834Y-72157543D01*
X173734353Y-72299997D01*
X173734353Y-72300002D01*
X135265647Y-72300002D01*
X135265647Y-72300000D01*
X135245165Y-72157543D01*
X135185377Y-72026627D01*
X135091128Y-71917857D01*
X135091127Y-71917856D01*
X135091126Y-71917855D01*
X134970057Y-71840049D01*
X134970054Y-71840047D01*
X134970053Y-71840047D01*
X134970050Y-71840046D01*
X134831964Y-71799500D01*
X134831961Y-71799500D01*
X134688039Y-71799500D01*
X134688035Y-71799500D01*
X134549949Y-71840046D01*
X134549942Y-71840049D01*
X134428873Y-71917855D01*
X134334622Y-72026628D01*
X134274834Y-72157543D01*
X134254353Y-72299997D01*
X134254353Y-72300002D01*
X120400000Y-72300002D01*
X120400000Y-71600002D01*
X150764352Y-71600002D01*
X150784833Y-71742456D01*
X150810885Y-71799500D01*
X150844622Y-71873373D01*
X150938871Y-71982143D01*
X150938872Y-71982144D01*
X151008091Y-72026628D01*
X151059946Y-72059953D01*
X151166402Y-72091211D01*
X151198034Y-72100499D01*
X151198035Y-72100499D01*
X151198038Y-72100500D01*
X151198040Y-72100500D01*
X151341958Y-72100500D01*
X151341960Y-72100500D01*
X151480052Y-72059953D01*
X151601127Y-71982143D01*
X151695376Y-71873373D01*
X151755164Y-71742457D01*
X151775646Y-71600002D01*
X171194353Y-71600002D01*
X171214834Y-71742456D01*
X171240886Y-71799500D01*
X171274623Y-71873373D01*
X171368872Y-71982143D01*
X171368873Y-71982144D01*
X171438092Y-72026628D01*
X171489947Y-72059953D01*
X171596403Y-72091211D01*
X171628035Y-72100499D01*
X171628036Y-72100499D01*
X171628039Y-72100500D01*
X171628041Y-72100500D01*
X171771959Y-72100500D01*
X171771961Y-72100500D01*
X171910053Y-72059953D01*
X172031128Y-71982143D01*
X172125377Y-71873373D01*
X172185165Y-71742457D01*
X172205647Y-71600000D01*
X172185165Y-71457543D01*
X172125377Y-71326627D01*
X172031128Y-71217857D01*
X172031127Y-71217856D01*
X172031126Y-71217855D01*
X171910057Y-71140049D01*
X171910054Y-71140047D01*
X171910053Y-71140047D01*
X171910050Y-71140046D01*
X171771964Y-71099500D01*
X171771961Y-71099500D01*
X171628039Y-71099500D01*
X171628035Y-71099500D01*
X171489949Y-71140046D01*
X171489942Y-71140049D01*
X171368873Y-71217855D01*
X171274622Y-71326628D01*
X171214834Y-71457543D01*
X171194353Y-71599997D01*
X171194353Y-71600002D01*
X151775646Y-71600002D01*
X151775646Y-71600000D01*
X151755164Y-71457543D01*
X151695376Y-71326627D01*
X151601127Y-71217857D01*
X151601126Y-71217856D01*
X151601125Y-71217855D01*
X151480056Y-71140049D01*
X151480053Y-71140047D01*
X151480052Y-71140047D01*
X151480049Y-71140046D01*
X151341963Y-71099500D01*
X151341960Y-71099500D01*
X151198038Y-71099500D01*
X151198034Y-71099500D01*
X151059948Y-71140046D01*
X151059941Y-71140049D01*
X150938872Y-71217855D01*
X150844621Y-71326628D01*
X150784833Y-71457543D01*
X150764352Y-71599997D01*
X150764352Y-71600002D01*
X120400000Y-71600002D01*
X120400000Y-70900001D01*
X163574353Y-70900001D01*
X163594834Y-71042455D01*
X163620886Y-71099500D01*
X163654623Y-71173372D01*
X163748872Y-71282142D01*
X163748873Y-71282143D01*
X163869942Y-71359949D01*
X163869947Y-71359952D01*
X163976403Y-71391210D01*
X164008035Y-71400498D01*
X164008036Y-71400498D01*
X164008039Y-71400499D01*
X164008041Y-71400499D01*
X164151959Y-71400499D01*
X164151961Y-71400499D01*
X164290053Y-71359952D01*
X164411128Y-71282142D01*
X164505377Y-71173372D01*
X164565165Y-71042456D01*
X164585647Y-70900001D01*
X168544352Y-70900001D01*
X168564833Y-71042455D01*
X168590885Y-71099500D01*
X168624622Y-71173372D01*
X168718871Y-71282142D01*
X168718872Y-71282143D01*
X168839941Y-71359949D01*
X168839946Y-71359952D01*
X168946402Y-71391210D01*
X168978034Y-71400498D01*
X168978035Y-71400498D01*
X168978038Y-71400499D01*
X168978040Y-71400499D01*
X169121958Y-71400499D01*
X169121960Y-71400499D01*
X169260052Y-71359952D01*
X169381127Y-71282142D01*
X169475376Y-71173372D01*
X169535164Y-71042456D01*
X169555646Y-70899999D01*
X169535164Y-70757542D01*
X169475376Y-70626626D01*
X169381127Y-70517856D01*
X169381126Y-70517855D01*
X169381125Y-70517854D01*
X169260056Y-70440048D01*
X169260053Y-70440046D01*
X169260052Y-70440046D01*
X169260049Y-70440045D01*
X169121963Y-70399499D01*
X169121960Y-70399499D01*
X168978038Y-70399499D01*
X168978034Y-70399499D01*
X168839948Y-70440045D01*
X168839941Y-70440048D01*
X168718872Y-70517854D01*
X168624621Y-70626627D01*
X168564833Y-70757542D01*
X168544352Y-70899996D01*
X168544352Y-70900001D01*
X164585647Y-70900001D01*
X164585647Y-70899999D01*
X164565165Y-70757542D01*
X164505377Y-70626626D01*
X164411128Y-70517856D01*
X164411127Y-70517855D01*
X164411126Y-70517854D01*
X164290057Y-70440048D01*
X164290054Y-70440046D01*
X164290053Y-70440046D01*
X164290050Y-70440045D01*
X164151964Y-70399499D01*
X164151961Y-70399499D01*
X164008039Y-70399499D01*
X164008035Y-70399499D01*
X163869949Y-70440045D01*
X163869942Y-70440048D01*
X163748873Y-70517854D01*
X163654622Y-70626627D01*
X163594834Y-70757542D01*
X163574353Y-70899996D01*
X163574353Y-70900001D01*
X120400000Y-70900001D01*
X120400000Y-68600000D01*
X159184749Y-68600000D01*
X159203668Y-68743708D01*
X159203669Y-68743709D01*
X159231062Y-68809844D01*
X159259138Y-68877625D01*
X159347378Y-68992621D01*
X159462374Y-69080861D01*
X159596290Y-69136330D01*
X159739999Y-69155250D01*
X159883708Y-69136330D01*
X160017624Y-69080861D01*
X160132620Y-68992621D01*
X160220860Y-68877625D01*
X160263578Y-68774491D01*
X160303311Y-68727969D01*
X160362806Y-68713685D01*
X160419334Y-68737099D01*
X160451304Y-68789267D01*
X160453505Y-68802559D01*
X160453601Y-68803075D01*
X160453602Y-68803081D01*
X160453603Y-68803083D01*
X160509418Y-68999250D01*
X160600327Y-69181821D01*
X160723236Y-69344579D01*
X160873959Y-69481981D01*
X161047363Y-69589348D01*
X161237544Y-69663024D01*
X161438024Y-69700500D01*
X161641976Y-69700500D01*
X161842456Y-69663024D01*
X162032637Y-69589348D01*
X162206041Y-69481981D01*
X162356764Y-69344579D01*
X162479673Y-69181821D01*
X162570582Y-68999250D01*
X162626397Y-68803083D01*
X162645215Y-68600000D01*
X162974785Y-68600000D01*
X162993603Y-68803083D01*
X163049418Y-68999250D01*
X163140327Y-69181821D01*
X163263236Y-69344579D01*
X163413959Y-69481981D01*
X163587363Y-69589348D01*
X163777544Y-69663024D01*
X163978024Y-69700500D01*
X164181976Y-69700500D01*
X164382456Y-69663024D01*
X164572637Y-69589348D01*
X164746041Y-69481981D01*
X164896764Y-69344579D01*
X165019673Y-69181821D01*
X165110582Y-68999250D01*
X165166397Y-68803083D01*
X165185215Y-68600000D01*
X165514785Y-68600000D01*
X165533603Y-68803083D01*
X165589418Y-68999250D01*
X165680327Y-69181821D01*
X165803236Y-69344579D01*
X165953959Y-69481981D01*
X166127363Y-69589348D01*
X166317544Y-69663024D01*
X166518024Y-69700500D01*
X166721976Y-69700500D01*
X166922456Y-69663024D01*
X167112637Y-69589348D01*
X167286041Y-69481981D01*
X167436764Y-69344579D01*
X167559673Y-69181821D01*
X167650582Y-68999250D01*
X167706397Y-68803083D01*
X167706683Y-68800000D01*
X168023607Y-68800000D01*
X168024738Y-68812216D01*
X168083064Y-69017210D01*
X168178057Y-69207983D01*
X168178062Y-69207992D01*
X168306496Y-69378064D01*
X168306506Y-69378075D01*
X168463995Y-69521647D01*
X168463994Y-69521647D01*
X168645206Y-69633847D01*
X168843941Y-69710838D01*
X168959999Y-69732533D01*
X168960000Y-69732533D01*
X168960000Y-69058335D01*
X169017685Y-69084680D01*
X169124237Y-69100000D01*
X169195763Y-69100000D01*
X169302315Y-69084680D01*
X169360000Y-69058335D01*
X169360000Y-69732533D01*
X169476058Y-69710838D01*
X169674793Y-69633847D01*
X169856004Y-69521647D01*
X170013493Y-69378075D01*
X170013503Y-69378064D01*
X170141937Y-69207992D01*
X170141942Y-69207983D01*
X170236935Y-69017210D01*
X170295261Y-68812216D01*
X170296393Y-68800000D01*
X169622383Y-68800000D01*
X169660000Y-68671889D01*
X169660000Y-68600000D01*
X170594785Y-68600000D01*
X170613603Y-68803083D01*
X170669418Y-68999250D01*
X170760327Y-69181821D01*
X170883236Y-69344579D01*
X171033959Y-69481981D01*
X171207363Y-69589348D01*
X171397544Y-69663024D01*
X171598024Y-69700500D01*
X171801976Y-69700500D01*
X172002456Y-69663024D01*
X172192637Y-69589348D01*
X172366041Y-69481981D01*
X172516764Y-69344579D01*
X172639673Y-69181821D01*
X172730582Y-68999250D01*
X172786397Y-68803083D01*
X172805215Y-68600000D01*
X173134785Y-68600000D01*
X173153603Y-68803083D01*
X173209418Y-68999250D01*
X173300327Y-69181821D01*
X173423236Y-69344579D01*
X173573959Y-69481981D01*
X173747363Y-69589348D01*
X173937544Y-69663024D01*
X174138024Y-69700500D01*
X174341976Y-69700500D01*
X174542456Y-69663024D01*
X174732637Y-69589348D01*
X174906041Y-69481981D01*
X175056764Y-69344579D01*
X175179673Y-69181821D01*
X175270582Y-68999250D01*
X175326397Y-68803083D01*
X175345215Y-68600000D01*
X175674785Y-68600000D01*
X175693603Y-68803083D01*
X175749418Y-68999250D01*
X175840327Y-69181821D01*
X175963236Y-69344579D01*
X176113959Y-69481981D01*
X176287363Y-69589348D01*
X176477544Y-69663024D01*
X176678024Y-69700500D01*
X176881976Y-69700500D01*
X177082456Y-69663024D01*
X177272637Y-69589348D01*
X177446041Y-69481981D01*
X177596764Y-69344579D01*
X177719673Y-69181821D01*
X177810582Y-68999250D01*
X177866397Y-68803083D01*
X177885215Y-68600000D01*
X178214785Y-68600000D01*
X178233603Y-68803083D01*
X178289418Y-68999250D01*
X178380327Y-69181821D01*
X178503236Y-69344579D01*
X178653959Y-69481981D01*
X178827363Y-69589348D01*
X179017544Y-69663024D01*
X179218024Y-69700500D01*
X179421976Y-69700500D01*
X179622456Y-69663024D01*
X179812637Y-69589348D01*
X179986041Y-69481981D01*
X180136764Y-69344579D01*
X180259673Y-69181821D01*
X180350582Y-68999250D01*
X180406397Y-68803083D01*
X180406683Y-68800000D01*
X180723607Y-68800000D01*
X180724738Y-68812216D01*
X180783064Y-69017210D01*
X180878057Y-69207983D01*
X180878062Y-69207992D01*
X181006496Y-69378064D01*
X181006506Y-69378075D01*
X181163995Y-69521647D01*
X181163994Y-69521647D01*
X181345206Y-69633847D01*
X181543941Y-69710838D01*
X181659999Y-69732533D01*
X181660000Y-69732533D01*
X181660000Y-69058335D01*
X181717685Y-69084680D01*
X181824237Y-69100000D01*
X181895763Y-69100000D01*
X182002315Y-69084680D01*
X182060000Y-69058335D01*
X182060000Y-69732533D01*
X182176058Y-69710838D01*
X182374793Y-69633847D01*
X182556004Y-69521647D01*
X182607532Y-69474672D01*
X183299500Y-69474672D01*
X183299501Y-69474684D01*
X183314033Y-69547736D01*
X183314035Y-69547742D01*
X183369397Y-69630599D01*
X183369399Y-69630601D01*
X183452260Y-69685966D01*
X183507808Y-69697015D01*
X183525315Y-69700498D01*
X183525320Y-69700498D01*
X183525326Y-69700500D01*
X183821458Y-69700500D01*
X183879649Y-69719407D01*
X183915613Y-69768907D01*
X183915613Y-69830093D01*
X183912922Y-69837385D01*
X183863670Y-69956291D01*
X183863669Y-69956291D01*
X183844750Y-70099999D01*
X183844750Y-70100000D01*
X183863669Y-70243708D01*
X183863670Y-70243709D01*
X183919139Y-70377625D01*
X184007379Y-70492621D01*
X184122375Y-70580861D01*
X184256291Y-70636330D01*
X184400000Y-70655250D01*
X184543709Y-70636330D01*
X184677625Y-70580861D01*
X184792621Y-70492621D01*
X184880861Y-70377625D01*
X184936330Y-70243709D01*
X184955250Y-70100000D01*
X184936330Y-69956291D01*
X184887077Y-69837384D01*
X184882277Y-69776388D01*
X184914247Y-69724220D01*
X184970775Y-69700805D01*
X184978542Y-69700500D01*
X185274673Y-69700500D01*
X185274674Y-69700500D01*
X185347740Y-69685966D01*
X185430601Y-69630601D01*
X185485966Y-69547740D01*
X185500500Y-69474674D01*
X185500500Y-67725326D01*
X185485966Y-67652260D01*
X185430601Y-67569399D01*
X185430599Y-67569397D01*
X185347742Y-67514035D01*
X185347740Y-67514034D01*
X185347737Y-67514033D01*
X185347736Y-67514033D01*
X185274684Y-67499501D01*
X185274674Y-67499500D01*
X183525326Y-67499500D01*
X183525325Y-67499500D01*
X183525315Y-67499501D01*
X183452263Y-67514033D01*
X183452257Y-67514035D01*
X183369400Y-67569397D01*
X183369397Y-67569400D01*
X183314035Y-67652257D01*
X183314033Y-67652263D01*
X183299501Y-67725315D01*
X183299500Y-67725327D01*
X183299500Y-69474672D01*
X182607532Y-69474672D01*
X182713493Y-69378075D01*
X182713503Y-69378064D01*
X182841937Y-69207992D01*
X182841942Y-69207983D01*
X182936935Y-69017210D01*
X182995261Y-68812216D01*
X182996393Y-68800000D01*
X182322383Y-68800000D01*
X182360000Y-68671889D01*
X182360000Y-68528111D01*
X182322383Y-68400000D01*
X182996393Y-68400000D01*
X182995261Y-68387783D01*
X182936935Y-68182789D01*
X182841942Y-67992016D01*
X182841937Y-67992007D01*
X182713503Y-67821935D01*
X182713493Y-67821924D01*
X182556004Y-67678352D01*
X182556005Y-67678352D01*
X182374793Y-67566152D01*
X182176061Y-67489162D01*
X182176055Y-67489160D01*
X182060000Y-67467465D01*
X182060000Y-68141664D01*
X182002315Y-68115320D01*
X181895763Y-68100000D01*
X181824237Y-68100000D01*
X181717685Y-68115320D01*
X181660000Y-68141664D01*
X181660000Y-67467466D01*
X181659999Y-67467465D01*
X181543944Y-67489160D01*
X181543938Y-67489162D01*
X181345206Y-67566152D01*
X181163995Y-67678352D01*
X181006506Y-67821924D01*
X181006496Y-67821935D01*
X180878062Y-67992007D01*
X180878057Y-67992016D01*
X180783064Y-68182789D01*
X180724738Y-68387783D01*
X180723607Y-68400000D01*
X181397617Y-68400000D01*
X181360000Y-68528111D01*
X181360000Y-68671889D01*
X181397617Y-68800000D01*
X180723607Y-68800000D01*
X180406683Y-68800000D01*
X180425215Y-68600000D01*
X180406397Y-68396917D01*
X180350582Y-68200750D01*
X180259673Y-68018179D01*
X180136764Y-67855421D01*
X179986041Y-67718019D01*
X179812637Y-67610652D01*
X179622456Y-67536976D01*
X179622455Y-67536975D01*
X179622453Y-67536975D01*
X179421976Y-67499500D01*
X179218024Y-67499500D01*
X179017546Y-67536975D01*
X178947632Y-67564059D01*
X178827363Y-67610652D01*
X178760164Y-67652260D01*
X178653959Y-67718019D01*
X178503237Y-67855420D01*
X178380328Y-68018177D01*
X178380323Y-68018186D01*
X178330056Y-68119137D01*
X178289418Y-68200750D01*
X178233603Y-68396917D01*
X178214785Y-68600000D01*
X177885215Y-68600000D01*
X177866397Y-68396917D01*
X177810582Y-68200750D01*
X177719673Y-68018179D01*
X177596764Y-67855421D01*
X177446041Y-67718019D01*
X177272637Y-67610652D01*
X177082456Y-67536976D01*
X177082455Y-67536975D01*
X177082453Y-67536975D01*
X176881976Y-67499500D01*
X176678024Y-67499500D01*
X176477546Y-67536975D01*
X176407632Y-67564059D01*
X176287363Y-67610652D01*
X176220164Y-67652260D01*
X176113959Y-67718019D01*
X175963237Y-67855420D01*
X175840328Y-68018177D01*
X175840323Y-68018186D01*
X175790056Y-68119137D01*
X175749418Y-68200750D01*
X175693603Y-68396917D01*
X175674785Y-68600000D01*
X175345215Y-68600000D01*
X175326397Y-68396917D01*
X175270582Y-68200750D01*
X175179673Y-68018179D01*
X175056764Y-67855421D01*
X174906041Y-67718019D01*
X174732637Y-67610652D01*
X174542456Y-67536976D01*
X174542455Y-67536975D01*
X174542453Y-67536975D01*
X174341976Y-67499500D01*
X174138024Y-67499500D01*
X173937546Y-67536975D01*
X173867632Y-67564059D01*
X173747363Y-67610652D01*
X173680164Y-67652260D01*
X173573959Y-67718019D01*
X173423237Y-67855420D01*
X173300328Y-68018177D01*
X173300323Y-68018186D01*
X173250056Y-68119137D01*
X173209418Y-68200750D01*
X173153603Y-68396917D01*
X173134785Y-68600000D01*
X172805215Y-68600000D01*
X172786397Y-68396917D01*
X172730582Y-68200750D01*
X172639673Y-68018179D01*
X172516764Y-67855421D01*
X172366041Y-67718019D01*
X172192637Y-67610652D01*
X172002456Y-67536976D01*
X172002455Y-67536975D01*
X172002453Y-67536975D01*
X171801976Y-67499500D01*
X171598024Y-67499500D01*
X171397546Y-67536975D01*
X171327632Y-67564059D01*
X171207363Y-67610652D01*
X171140164Y-67652260D01*
X171033959Y-67718019D01*
X170883237Y-67855420D01*
X170760328Y-68018177D01*
X170760323Y-68018186D01*
X170710056Y-68119137D01*
X170669418Y-68200750D01*
X170613603Y-68396917D01*
X170594785Y-68600000D01*
X169660000Y-68600000D01*
X169660000Y-68528111D01*
X169622383Y-68400000D01*
X170296393Y-68400000D01*
X170295261Y-68387783D01*
X170236935Y-68182789D01*
X170141942Y-67992016D01*
X170141937Y-67992007D01*
X170013503Y-67821935D01*
X170013493Y-67821924D01*
X169856004Y-67678352D01*
X169856005Y-67678352D01*
X169674793Y-67566152D01*
X169476061Y-67489162D01*
X169476055Y-67489160D01*
X169360000Y-67467465D01*
X169360000Y-68141664D01*
X169302315Y-68115320D01*
X169195763Y-68100000D01*
X169124237Y-68100000D01*
X169017685Y-68115320D01*
X168960000Y-68141664D01*
X168960000Y-67467466D01*
X168959999Y-67467465D01*
X168843944Y-67489160D01*
X168843938Y-67489162D01*
X168645206Y-67566152D01*
X168463995Y-67678352D01*
X168306506Y-67821924D01*
X168306496Y-67821935D01*
X168178062Y-67992007D01*
X168178057Y-67992016D01*
X168083064Y-68182789D01*
X168024738Y-68387783D01*
X168023607Y-68400000D01*
X168697617Y-68400000D01*
X168660000Y-68528111D01*
X168660000Y-68671889D01*
X168697617Y-68800000D01*
X168023607Y-68800000D01*
X167706683Y-68800000D01*
X167725215Y-68600000D01*
X167706397Y-68396917D01*
X167650582Y-68200750D01*
X167559673Y-68018179D01*
X167436764Y-67855421D01*
X167286041Y-67718019D01*
X167112637Y-67610652D01*
X166922456Y-67536976D01*
X166922455Y-67536975D01*
X166922453Y-67536975D01*
X166721976Y-67499500D01*
X166518024Y-67499500D01*
X166317546Y-67536975D01*
X166247632Y-67564059D01*
X166127363Y-67610652D01*
X166060164Y-67652260D01*
X165953959Y-67718019D01*
X165803237Y-67855420D01*
X165680328Y-68018177D01*
X165680323Y-68018186D01*
X165630056Y-68119137D01*
X165589418Y-68200750D01*
X165533603Y-68396917D01*
X165514785Y-68600000D01*
X165185215Y-68600000D01*
X165166397Y-68396917D01*
X165110582Y-68200750D01*
X165019673Y-68018179D01*
X164896764Y-67855421D01*
X164746041Y-67718019D01*
X164572637Y-67610652D01*
X164382456Y-67536976D01*
X164382455Y-67536975D01*
X164382453Y-67536975D01*
X164181976Y-67499500D01*
X163978024Y-67499500D01*
X163777546Y-67536975D01*
X163707632Y-67564059D01*
X163587363Y-67610652D01*
X163520164Y-67652260D01*
X163413959Y-67718019D01*
X163263237Y-67855420D01*
X163140328Y-68018177D01*
X163140323Y-68018186D01*
X163090056Y-68119137D01*
X163049418Y-68200750D01*
X162993603Y-68396917D01*
X162974785Y-68600000D01*
X162645215Y-68600000D01*
X162626397Y-68396917D01*
X162570582Y-68200750D01*
X162479673Y-68018179D01*
X162356764Y-67855421D01*
X162206041Y-67718019D01*
X162032637Y-67610652D01*
X161842456Y-67536976D01*
X161842455Y-67536975D01*
X161842453Y-67536975D01*
X161641976Y-67499500D01*
X161438024Y-67499500D01*
X161237546Y-67536975D01*
X161167632Y-67564059D01*
X161047363Y-67610652D01*
X160980164Y-67652260D01*
X160873959Y-67718019D01*
X160723237Y-67855420D01*
X160600328Y-68018177D01*
X160600323Y-68018186D01*
X160550056Y-68119137D01*
X160509418Y-68200750D01*
X160474813Y-68322374D01*
X160453601Y-68396924D01*
X160452762Y-68401416D01*
X160451700Y-68401217D01*
X160429410Y-68452966D01*
X160376796Y-68484199D01*
X160315873Y-68478542D01*
X160269910Y-68438155D01*
X160263583Y-68425518D01*
X160220860Y-68322375D01*
X160132620Y-68207379D01*
X160017624Y-68119139D01*
X160017620Y-68119137D01*
X159883708Y-68063670D01*
X159883707Y-68063669D01*
X159739999Y-68044750D01*
X159596290Y-68063669D01*
X159596289Y-68063670D01*
X159462377Y-68119137D01*
X159462373Y-68119139D01*
X159347380Y-68207377D01*
X159347376Y-68207381D01*
X159259138Y-68322374D01*
X159259136Y-68322378D01*
X159203669Y-68456290D01*
X159203668Y-68456291D01*
X159184749Y-68599999D01*
X159184749Y-68600000D01*
X120400000Y-68600000D01*
X120400000Y-66200000D01*
X128782250Y-66200000D01*
X128801169Y-66343708D01*
X128801170Y-66343709D01*
X128856639Y-66477625D01*
X128944879Y-66592621D01*
X129059875Y-66680861D01*
X129193791Y-66736330D01*
X129337500Y-66755250D01*
X129481209Y-66736330D01*
X129615125Y-66680861D01*
X129730121Y-66592621D01*
X129818361Y-66477625D01*
X129873830Y-66343709D01*
X129892750Y-66200000D01*
X129873830Y-66056291D01*
X129818361Y-65922375D01*
X129730121Y-65807379D01*
X129615125Y-65719139D01*
X129615121Y-65719137D01*
X129481209Y-65663670D01*
X129481208Y-65663669D01*
X129337500Y-65644750D01*
X129193791Y-65663669D01*
X129193790Y-65663670D01*
X129059878Y-65719137D01*
X129059874Y-65719139D01*
X128944881Y-65807377D01*
X128944877Y-65807381D01*
X128856639Y-65922374D01*
X128856637Y-65922378D01*
X128801170Y-66056290D01*
X128801169Y-66056291D01*
X128782250Y-66199999D01*
X128782250Y-66200000D01*
X120400000Y-66200000D01*
X120400000Y-62000003D01*
X121694532Y-62000003D01*
X121714363Y-62226684D01*
X121714364Y-62226691D01*
X121714365Y-62226692D01*
X121753629Y-62373228D01*
X121773262Y-62446500D01*
X121869426Y-62652723D01*
X121869434Y-62652737D01*
X121999946Y-62839130D01*
X121999947Y-62839132D01*
X121999950Y-62839135D01*
X121999953Y-62839139D01*
X122160861Y-63000047D01*
X122160864Y-63000049D01*
X122160867Y-63000052D01*
X122160869Y-63000053D01*
X122285131Y-63087061D01*
X122347266Y-63130568D01*
X122347272Y-63130571D01*
X122347276Y-63130573D01*
X122553500Y-63226737D01*
X122553504Y-63226739D01*
X122773308Y-63285635D01*
X122773312Y-63285635D01*
X122773315Y-63285636D01*
X122943208Y-63300500D01*
X122943216Y-63300500D01*
X123056792Y-63300500D01*
X123226684Y-63285636D01*
X123226685Y-63285635D01*
X123226692Y-63285635D01*
X123446496Y-63226739D01*
X123652734Y-63130568D01*
X123839139Y-63000047D01*
X124000047Y-62839139D01*
X124130568Y-62652734D01*
X124201788Y-62500003D01*
X185194532Y-62500003D01*
X185214363Y-62726684D01*
X185273262Y-62946500D01*
X185369426Y-63152723D01*
X185369434Y-63152737D01*
X185499946Y-63339130D01*
X185499947Y-63339132D01*
X185499950Y-63339135D01*
X185499953Y-63339139D01*
X185660861Y-63500047D01*
X185660864Y-63500049D01*
X185660867Y-63500052D01*
X185660869Y-63500053D01*
X185785131Y-63587061D01*
X185847266Y-63630568D01*
X185847272Y-63630571D01*
X185847276Y-63630573D01*
X186053500Y-63726737D01*
X186053504Y-63726739D01*
X186273308Y-63785635D01*
X186273312Y-63785635D01*
X186273315Y-63785636D01*
X186443208Y-63800500D01*
X186443216Y-63800500D01*
X186556792Y-63800500D01*
X186726684Y-63785636D01*
X186726685Y-63785635D01*
X186726692Y-63785635D01*
X186946496Y-63726739D01*
X187152734Y-63630568D01*
X187339139Y-63500047D01*
X187500047Y-63339139D01*
X187630568Y-63152734D01*
X187726739Y-62946496D01*
X187785635Y-62726692D01*
X187792106Y-62652737D01*
X187805468Y-62500003D01*
X187805468Y-62499996D01*
X187785636Y-62273315D01*
X187785635Y-62273312D01*
X187785635Y-62273308D01*
X187726739Y-62053504D01*
X187723984Y-62047595D01*
X187630573Y-61847276D01*
X187630571Y-61847272D01*
X187630568Y-61847266D01*
X187500053Y-61660869D01*
X187500052Y-61660867D01*
X187500049Y-61660864D01*
X187500047Y-61660861D01*
X187339139Y-61499953D01*
X187339135Y-61499950D01*
X187339132Y-61499947D01*
X187339130Y-61499946D01*
X187152737Y-61369434D01*
X187152736Y-61369433D01*
X187152734Y-61369432D01*
X187152731Y-61369430D01*
X187152723Y-61369426D01*
X186946499Y-61273262D01*
X186946500Y-61273262D01*
X186873228Y-61253629D01*
X186726692Y-61214365D01*
X186726691Y-61214364D01*
X186726684Y-61214363D01*
X186556792Y-61199500D01*
X186556784Y-61199500D01*
X186443216Y-61199500D01*
X186443208Y-61199500D01*
X186273315Y-61214363D01*
X186053499Y-61273262D01*
X185847276Y-61369426D01*
X185847262Y-61369434D01*
X185660869Y-61499946D01*
X185660867Y-61499947D01*
X185499947Y-61660867D01*
X185499946Y-61660869D01*
X185369434Y-61847262D01*
X185369426Y-61847276D01*
X185273262Y-62053499D01*
X185214363Y-62273315D01*
X185194532Y-62499996D01*
X185194532Y-62500003D01*
X124201788Y-62500003D01*
X124226739Y-62446496D01*
X124285635Y-62226692D01*
X124292991Y-62142621D01*
X124305468Y-62000003D01*
X124305468Y-61999996D01*
X124285636Y-61773315D01*
X124285635Y-61773312D01*
X124285635Y-61773308D01*
X124279390Y-61750000D01*
X154044750Y-61750000D01*
X154063669Y-61893708D01*
X154063670Y-61893709D01*
X154107697Y-62000003D01*
X154119139Y-62027625D01*
X154207379Y-62142621D01*
X154322375Y-62230861D01*
X154456291Y-62286330D01*
X154600000Y-62305250D01*
X154743709Y-62286330D01*
X154877625Y-62230861D01*
X154992621Y-62142621D01*
X155080861Y-62027625D01*
X155136330Y-61893709D01*
X155155250Y-61750000D01*
X155143515Y-61660869D01*
X155136330Y-61606291D01*
X155080861Y-61472375D01*
X154992621Y-61357379D01*
X154877625Y-61269139D01*
X154877621Y-61269137D01*
X154743709Y-61213670D01*
X154743708Y-61213669D01*
X154600000Y-61194750D01*
X154456291Y-61213669D01*
X154456290Y-61213670D01*
X154322378Y-61269137D01*
X154322374Y-61269139D01*
X154207381Y-61357377D01*
X154207377Y-61357381D01*
X154119139Y-61472374D01*
X154119137Y-61472378D01*
X154063670Y-61606290D01*
X154063669Y-61606291D01*
X154044750Y-61749999D01*
X154044750Y-61750000D01*
X124279390Y-61750000D01*
X124226739Y-61553504D01*
X124201765Y-61499947D01*
X124130573Y-61347276D01*
X124130571Y-61347272D01*
X124130568Y-61347266D01*
X124000053Y-61160869D01*
X124000052Y-61160867D01*
X124000049Y-61160864D01*
X124000047Y-61160861D01*
X123839139Y-60999953D01*
X123839135Y-60999950D01*
X123839132Y-60999947D01*
X123839130Y-60999946D01*
X123652737Y-60869434D01*
X123652736Y-60869433D01*
X123652734Y-60869432D01*
X123652731Y-60869430D01*
X123652723Y-60869426D01*
X123446499Y-60773262D01*
X123446500Y-60773262D01*
X123373228Y-60753629D01*
X123226692Y-60714365D01*
X123226691Y-60714364D01*
X123226684Y-60714363D01*
X123056792Y-60699500D01*
X123056784Y-60699500D01*
X122943216Y-60699500D01*
X122943208Y-60699500D01*
X122773315Y-60714363D01*
X122553499Y-60773262D01*
X122347276Y-60869426D01*
X122347262Y-60869434D01*
X122160869Y-60999946D01*
X122160867Y-60999947D01*
X121999947Y-61160867D01*
X121999946Y-61160869D01*
X121869434Y-61347262D01*
X121869426Y-61347276D01*
X121773262Y-61553499D01*
X121714363Y-61773315D01*
X121694532Y-61999996D01*
X121694532Y-62000003D01*
X120400000Y-62000003D01*
X120400000Y-61302839D01*
X120403869Y-61275432D01*
X120404494Y-61273262D01*
X120450451Y-61113742D01*
X120454111Y-61103283D01*
X120565711Y-60833858D01*
X120570525Y-60823863D01*
X120598492Y-60773261D01*
X120711583Y-60568636D01*
X120717479Y-60559253D01*
X120886230Y-60321421D01*
X120893149Y-60312745D01*
X121087475Y-60095293D01*
X121095293Y-60087475D01*
X121312748Y-59893146D01*
X121321424Y-59886228D01*
X121559253Y-59717479D01*
X121568636Y-59711583D01*
X121823869Y-59570522D01*
X121833858Y-59565711D01*
X122103283Y-59454111D01*
X122113748Y-59450449D01*
X122191044Y-59428180D01*
X122275434Y-59403869D01*
X122302840Y-59400000D01*
X187697160Y-59400000D01*
X187724567Y-59403869D01*
G37*
%TD.AperFunction*%
%TD*%
M02*
