%TF.GenerationSoftware,KiCad,Pcbnew,10.0.5*%
%TF.CreationDate,2026-10-07T16:54:32+01:00*%
%TF.ProjectId,STM32G474RE-CoreBoard,53544d33-3247-4343-9734-52452d436f72,rev?*%
%TF.SameCoordinates,Original*%
%TF.FileFunction,Legend,Bot*%
%TF.FilePolarity,Positive*%
%FSLAX46Y46*%
G04 Gerber Fmt 4.6, Leading zero omitted, Abs format (unit mm)*
G04 Created by KiCad (PCBNEW 10.0.5) date 2026-10-07 16:54:32*
%MOMM*%
%LPD*%
G01*
G04 APERTURE LIST*
%ADD10C,0.150000*%
%ADD11C,0.120000*%
G04 APERTURE END LIST*
D10*
X155095238Y-80081342D02*
X155095238Y-80462295D01*
X155361905Y-79662295D02*
X155095238Y-80081342D01*
X155095238Y-80081342D02*
X154828572Y-79662295D01*
X154142858Y-80462295D02*
X154600001Y-80462295D01*
X154371429Y-80462295D02*
X154371429Y-79662295D01*
X154371429Y-79662295D02*
X154447620Y-79776580D01*
X154447620Y-79776580D02*
X154523810Y-79852771D01*
X154523810Y-79852771D02*
X154600001Y-79890866D01*
X152466667Y-80005152D02*
X152542857Y-79967057D01*
X152542857Y-79967057D02*
X152580952Y-79928961D01*
X152580952Y-79928961D02*
X152619048Y-79852771D01*
X152619048Y-79852771D02*
X152619048Y-79814676D01*
X152619048Y-79814676D02*
X152580952Y-79738485D01*
X152580952Y-79738485D02*
X152542857Y-79700390D01*
X152542857Y-79700390D02*
X152466667Y-79662295D01*
X152466667Y-79662295D02*
X152314286Y-79662295D01*
X152314286Y-79662295D02*
X152238095Y-79700390D01*
X152238095Y-79700390D02*
X152200000Y-79738485D01*
X152200000Y-79738485D02*
X152161905Y-79814676D01*
X152161905Y-79814676D02*
X152161905Y-79852771D01*
X152161905Y-79852771D02*
X152200000Y-79928961D01*
X152200000Y-79928961D02*
X152238095Y-79967057D01*
X152238095Y-79967057D02*
X152314286Y-80005152D01*
X152314286Y-80005152D02*
X152466667Y-80005152D01*
X152466667Y-80005152D02*
X152542857Y-80043247D01*
X152542857Y-80043247D02*
X152580952Y-80081342D01*
X152580952Y-80081342D02*
X152619048Y-80157533D01*
X152619048Y-80157533D02*
X152619048Y-80309914D01*
X152619048Y-80309914D02*
X152580952Y-80386104D01*
X152580952Y-80386104D02*
X152542857Y-80424200D01*
X152542857Y-80424200D02*
X152466667Y-80462295D01*
X152466667Y-80462295D02*
X152314286Y-80462295D01*
X152314286Y-80462295D02*
X152238095Y-80424200D01*
X152238095Y-80424200D02*
X152200000Y-80386104D01*
X152200000Y-80386104D02*
X152161905Y-80309914D01*
X152161905Y-80309914D02*
X152161905Y-80157533D01*
X152161905Y-80157533D02*
X152200000Y-80081342D01*
X152200000Y-80081342D02*
X152238095Y-80043247D01*
X152238095Y-80043247D02*
X152314286Y-80005152D01*
X151819047Y-80462295D02*
X151819047Y-79662295D01*
X151819047Y-79662295D02*
X151552381Y-80233723D01*
X151552381Y-80233723D02*
X151285714Y-79662295D01*
X151285714Y-79662295D02*
X151285714Y-80462295D01*
X150904761Y-80462295D02*
X150904761Y-79662295D01*
X150904761Y-80043247D02*
X150447618Y-80043247D01*
X150447618Y-80462295D02*
X150447618Y-79662295D01*
X150142857Y-79928961D02*
X149723809Y-79928961D01*
X149723809Y-79928961D02*
X150142857Y-80462295D01*
X150142857Y-80462295D02*
X149723809Y-80462295D01*
X155152380Y-81781342D02*
X155152380Y-82162295D01*
X155419047Y-81362295D02*
X155152380Y-81781342D01*
X155152380Y-81781342D02*
X154885714Y-81362295D01*
X154657143Y-81438485D02*
X154619047Y-81400390D01*
X154619047Y-81400390D02*
X154542857Y-81362295D01*
X154542857Y-81362295D02*
X154352381Y-81362295D01*
X154352381Y-81362295D02*
X154276190Y-81400390D01*
X154276190Y-81400390D02*
X154238095Y-81438485D01*
X154238095Y-81438485D02*
X154200000Y-81514676D01*
X154200000Y-81514676D02*
X154200000Y-81590866D01*
X154200000Y-81590866D02*
X154238095Y-81705152D01*
X154238095Y-81705152D02*
X154695238Y-82162295D01*
X154695238Y-82162295D02*
X154200000Y-82162295D01*
X152714285Y-81362295D02*
X152219047Y-81362295D01*
X152219047Y-81362295D02*
X152485713Y-81667057D01*
X152485713Y-81667057D02*
X152371428Y-81667057D01*
X152371428Y-81667057D02*
X152295237Y-81705152D01*
X152295237Y-81705152D02*
X152257142Y-81743247D01*
X152257142Y-81743247D02*
X152219047Y-81819438D01*
X152219047Y-81819438D02*
X152219047Y-82009914D01*
X152219047Y-82009914D02*
X152257142Y-82086104D01*
X152257142Y-82086104D02*
X152295237Y-82124200D01*
X152295237Y-82124200D02*
X152371428Y-82162295D01*
X152371428Y-82162295D02*
X152599999Y-82162295D01*
X152599999Y-82162295D02*
X152676190Y-82124200D01*
X152676190Y-82124200D02*
X152714285Y-82086104D01*
X151914285Y-81438485D02*
X151876189Y-81400390D01*
X151876189Y-81400390D02*
X151799999Y-81362295D01*
X151799999Y-81362295D02*
X151609523Y-81362295D01*
X151609523Y-81362295D02*
X151533332Y-81400390D01*
X151533332Y-81400390D02*
X151495237Y-81438485D01*
X151495237Y-81438485D02*
X151457142Y-81514676D01*
X151457142Y-81514676D02*
X151457142Y-81590866D01*
X151457142Y-81590866D02*
X151495237Y-81705152D01*
X151495237Y-81705152D02*
X151952380Y-82162295D01*
X151952380Y-82162295D02*
X151457142Y-82162295D01*
X151114284Y-82086104D02*
X151076189Y-82124200D01*
X151076189Y-82124200D02*
X151114284Y-82162295D01*
X151114284Y-82162295D02*
X151152380Y-82124200D01*
X151152380Y-82124200D02*
X151114284Y-82086104D01*
X151114284Y-82086104D02*
X151114284Y-82162295D01*
X150809523Y-81362295D02*
X150276189Y-81362295D01*
X150276189Y-81362295D02*
X150619047Y-82162295D01*
X149628570Y-81362295D02*
X149780951Y-81362295D01*
X149780951Y-81362295D02*
X149857142Y-81400390D01*
X149857142Y-81400390D02*
X149895237Y-81438485D01*
X149895237Y-81438485D02*
X149971427Y-81552771D01*
X149971427Y-81552771D02*
X150009523Y-81705152D01*
X150009523Y-81705152D02*
X150009523Y-82009914D01*
X150009523Y-82009914D02*
X149971427Y-82086104D01*
X149971427Y-82086104D02*
X149933332Y-82124200D01*
X149933332Y-82124200D02*
X149857142Y-82162295D01*
X149857142Y-82162295D02*
X149704761Y-82162295D01*
X149704761Y-82162295D02*
X149628570Y-82124200D01*
X149628570Y-82124200D02*
X149590475Y-82086104D01*
X149590475Y-82086104D02*
X149552380Y-82009914D01*
X149552380Y-82009914D02*
X149552380Y-81819438D01*
X149552380Y-81819438D02*
X149590475Y-81743247D01*
X149590475Y-81743247D02*
X149628570Y-81705152D01*
X149628570Y-81705152D02*
X149704761Y-81667057D01*
X149704761Y-81667057D02*
X149857142Y-81667057D01*
X149857142Y-81667057D02*
X149933332Y-81705152D01*
X149933332Y-81705152D02*
X149971427Y-81743247D01*
X149971427Y-81743247D02*
X150009523Y-81819438D01*
X149095237Y-81705152D02*
X149171427Y-81667057D01*
X149171427Y-81667057D02*
X149209522Y-81628961D01*
X149209522Y-81628961D02*
X149247618Y-81552771D01*
X149247618Y-81552771D02*
X149247618Y-81514676D01*
X149247618Y-81514676D02*
X149209522Y-81438485D01*
X149209522Y-81438485D02*
X149171427Y-81400390D01*
X149171427Y-81400390D02*
X149095237Y-81362295D01*
X149095237Y-81362295D02*
X148942856Y-81362295D01*
X148942856Y-81362295D02*
X148866665Y-81400390D01*
X148866665Y-81400390D02*
X148828570Y-81438485D01*
X148828570Y-81438485D02*
X148790475Y-81514676D01*
X148790475Y-81514676D02*
X148790475Y-81552771D01*
X148790475Y-81552771D02*
X148828570Y-81628961D01*
X148828570Y-81628961D02*
X148866665Y-81667057D01*
X148866665Y-81667057D02*
X148942856Y-81705152D01*
X148942856Y-81705152D02*
X149095237Y-81705152D01*
X149095237Y-81705152D02*
X149171427Y-81743247D01*
X149171427Y-81743247D02*
X149209522Y-81781342D01*
X149209522Y-81781342D02*
X149247618Y-81857533D01*
X149247618Y-81857533D02*
X149247618Y-82009914D01*
X149247618Y-82009914D02*
X149209522Y-82086104D01*
X149209522Y-82086104D02*
X149171427Y-82124200D01*
X149171427Y-82124200D02*
X149095237Y-82162295D01*
X149095237Y-82162295D02*
X148942856Y-82162295D01*
X148942856Y-82162295D02*
X148866665Y-82124200D01*
X148866665Y-82124200D02*
X148828570Y-82086104D01*
X148828570Y-82086104D02*
X148790475Y-82009914D01*
X148790475Y-82009914D02*
X148790475Y-81857533D01*
X148790475Y-81857533D02*
X148828570Y-81781342D01*
X148828570Y-81781342D02*
X148866665Y-81743247D01*
X148866665Y-81743247D02*
X148942856Y-81705152D01*
X148447617Y-82162295D02*
X148447617Y-81362295D01*
X148371427Y-81857533D02*
X148142855Y-82162295D01*
X148142855Y-81628961D02*
X148447617Y-81933723D01*
X147799998Y-82162295D02*
X147799998Y-81362295D01*
X147799998Y-81743247D02*
X147342855Y-81743247D01*
X147342855Y-82162295D02*
X147342855Y-81362295D01*
X147038094Y-81628961D02*
X146619046Y-81628961D01*
X146619046Y-81628961D02*
X147038094Y-82162295D01*
X147038094Y-82162295D02*
X146619046Y-82162295D01*
X154599999Y-83862295D02*
X154866666Y-83481342D01*
X155057142Y-83862295D02*
X155057142Y-83062295D01*
X155057142Y-83062295D02*
X154752380Y-83062295D01*
X154752380Y-83062295D02*
X154676190Y-83100390D01*
X154676190Y-83100390D02*
X154638095Y-83138485D01*
X154638095Y-83138485D02*
X154599999Y-83214676D01*
X154599999Y-83214676D02*
X154599999Y-83328961D01*
X154599999Y-83328961D02*
X154638095Y-83405152D01*
X154638095Y-83405152D02*
X154676190Y-83443247D01*
X154676190Y-83443247D02*
X154752380Y-83481342D01*
X154752380Y-83481342D02*
X155057142Y-83481342D01*
X153838095Y-83862295D02*
X154295238Y-83862295D01*
X154066666Y-83862295D02*
X154066666Y-83062295D01*
X154066666Y-83062295D02*
X154142857Y-83176580D01*
X154142857Y-83176580D02*
X154219047Y-83252771D01*
X154219047Y-83252771D02*
X154295238Y-83290866D01*
X153457142Y-83824200D02*
X153457142Y-83862295D01*
X153457142Y-83862295D02*
X153495237Y-83938485D01*
X153495237Y-83938485D02*
X153533333Y-83976580D01*
X152657142Y-83862295D02*
X152923809Y-83481342D01*
X153114285Y-83862295D02*
X153114285Y-83062295D01*
X153114285Y-83062295D02*
X152809523Y-83062295D01*
X152809523Y-83062295D02*
X152733333Y-83100390D01*
X152733333Y-83100390D02*
X152695238Y-83138485D01*
X152695238Y-83138485D02*
X152657142Y-83214676D01*
X152657142Y-83214676D02*
X152657142Y-83328961D01*
X152657142Y-83328961D02*
X152695238Y-83405152D01*
X152695238Y-83405152D02*
X152733333Y-83443247D01*
X152733333Y-83443247D02*
X152809523Y-83481342D01*
X152809523Y-83481342D02*
X153114285Y-83481342D01*
X152352381Y-83138485D02*
X152314285Y-83100390D01*
X152314285Y-83100390D02*
X152238095Y-83062295D01*
X152238095Y-83062295D02*
X152047619Y-83062295D01*
X152047619Y-83062295D02*
X151971428Y-83100390D01*
X151971428Y-83100390D02*
X151933333Y-83138485D01*
X151933333Y-83138485D02*
X151895238Y-83214676D01*
X151895238Y-83214676D02*
X151895238Y-83290866D01*
X151895238Y-83290866D02*
X151933333Y-83405152D01*
X151933333Y-83405152D02*
X152390476Y-83862295D01*
X152390476Y-83862295D02*
X151895238Y-83862295D01*
X149952380Y-83062295D02*
X150333332Y-83062295D01*
X150333332Y-83062295D02*
X150371428Y-83443247D01*
X150371428Y-83443247D02*
X150333332Y-83405152D01*
X150333332Y-83405152D02*
X150257142Y-83367057D01*
X150257142Y-83367057D02*
X150066666Y-83367057D01*
X150066666Y-83367057D02*
X149990475Y-83405152D01*
X149990475Y-83405152D02*
X149952380Y-83443247D01*
X149952380Y-83443247D02*
X149914285Y-83519438D01*
X149914285Y-83519438D02*
X149914285Y-83709914D01*
X149914285Y-83709914D02*
X149952380Y-83786104D01*
X149952380Y-83786104D02*
X149990475Y-83824200D01*
X149990475Y-83824200D02*
X150066666Y-83862295D01*
X150066666Y-83862295D02*
X150257142Y-83862295D01*
X150257142Y-83862295D02*
X150333332Y-83824200D01*
X150333332Y-83824200D02*
X150371428Y-83786104D01*
X149571427Y-83786104D02*
X149533332Y-83824200D01*
X149533332Y-83824200D02*
X149571427Y-83862295D01*
X149571427Y-83862295D02*
X149609523Y-83824200D01*
X149609523Y-83824200D02*
X149571427Y-83786104D01*
X149571427Y-83786104D02*
X149571427Y-83862295D01*
X148771428Y-83862295D02*
X149228571Y-83862295D01*
X148999999Y-83862295D02*
X148999999Y-83062295D01*
X148999999Y-83062295D02*
X149076190Y-83176580D01*
X149076190Y-83176580D02*
X149152380Y-83252771D01*
X149152380Y-83252771D02*
X149228571Y-83290866D01*
X148428570Y-83862295D02*
X148428570Y-83062295D01*
X148352380Y-83557533D02*
X148123808Y-83862295D01*
X148123808Y-83328961D02*
X148428570Y-83633723D01*
X154904761Y-85562294D02*
X155171428Y-85181341D01*
X155361904Y-85562294D02*
X155361904Y-84762294D01*
X155361904Y-84762294D02*
X155057142Y-84762294D01*
X155057142Y-84762294D02*
X154980952Y-84800389D01*
X154980952Y-84800389D02*
X154942857Y-84838484D01*
X154942857Y-84838484D02*
X154904761Y-84914675D01*
X154904761Y-84914675D02*
X154904761Y-85028960D01*
X154904761Y-85028960D02*
X154942857Y-85105151D01*
X154942857Y-85105151D02*
X154980952Y-85143246D01*
X154980952Y-85143246D02*
X155057142Y-85181341D01*
X155057142Y-85181341D02*
X155361904Y-85181341D01*
X154638095Y-84762294D02*
X154142857Y-84762294D01*
X154142857Y-84762294D02*
X154409523Y-85067056D01*
X154409523Y-85067056D02*
X154295238Y-85067056D01*
X154295238Y-85067056D02*
X154219047Y-85105151D01*
X154219047Y-85105151D02*
X154180952Y-85143246D01*
X154180952Y-85143246D02*
X154142857Y-85219437D01*
X154142857Y-85219437D02*
X154142857Y-85409913D01*
X154142857Y-85409913D02*
X154180952Y-85486103D01*
X154180952Y-85486103D02*
X154219047Y-85524199D01*
X154219047Y-85524199D02*
X154295238Y-85562294D01*
X154295238Y-85562294D02*
X154523809Y-85562294D01*
X154523809Y-85562294D02*
X154600000Y-85524199D01*
X154600000Y-85524199D02*
X154638095Y-85486103D01*
X152428570Y-84762294D02*
X152352380Y-84762294D01*
X152352380Y-84762294D02*
X152276189Y-84800389D01*
X152276189Y-84800389D02*
X152238094Y-84838484D01*
X152238094Y-84838484D02*
X152199999Y-84914675D01*
X152199999Y-84914675D02*
X152161904Y-85067056D01*
X152161904Y-85067056D02*
X152161904Y-85257532D01*
X152161904Y-85257532D02*
X152199999Y-85409913D01*
X152199999Y-85409913D02*
X152238094Y-85486103D01*
X152238094Y-85486103D02*
X152276189Y-85524199D01*
X152276189Y-85524199D02*
X152352380Y-85562294D01*
X152352380Y-85562294D02*
X152428570Y-85562294D01*
X152428570Y-85562294D02*
X152504761Y-85524199D01*
X152504761Y-85524199D02*
X152542856Y-85486103D01*
X152542856Y-85486103D02*
X152580951Y-85409913D01*
X152580951Y-85409913D02*
X152619047Y-85257532D01*
X152619047Y-85257532D02*
X152619047Y-85067056D01*
X152619047Y-85067056D02*
X152580951Y-84914675D01*
X152580951Y-84914675D02*
X152542856Y-84838484D01*
X152542856Y-84838484D02*
X152504761Y-84800389D01*
X152504761Y-84800389D02*
X152428570Y-84762294D01*
X151361903Y-85562294D02*
X151628570Y-85181341D01*
X151819046Y-85562294D02*
X151819046Y-84762294D01*
X151819046Y-84762294D02*
X151514284Y-84762294D01*
X151514284Y-84762294D02*
X151438094Y-84800389D01*
X151438094Y-84800389D02*
X151399999Y-84838484D01*
X151399999Y-84838484D02*
X151361903Y-84914675D01*
X151361903Y-84914675D02*
X151361903Y-85028960D01*
X151361903Y-85028960D02*
X151399999Y-85105151D01*
X151399999Y-85105151D02*
X151438094Y-85143246D01*
X151438094Y-85143246D02*
X151514284Y-85181341D01*
X151514284Y-85181341D02*
X151819046Y-85181341D01*
X150447618Y-84724199D02*
X151133332Y-85752770D01*
X149914285Y-85143246D02*
X150180951Y-85143246D01*
X150180951Y-85562294D02*
X150180951Y-84762294D01*
X150180951Y-84762294D02*
X149799999Y-84762294D01*
X149228571Y-85143246D02*
X149114285Y-85181341D01*
X149114285Y-85181341D02*
X149076190Y-85219437D01*
X149076190Y-85219437D02*
X149038094Y-85295627D01*
X149038094Y-85295627D02*
X149038094Y-85409913D01*
X149038094Y-85409913D02*
X149076190Y-85486103D01*
X149076190Y-85486103D02*
X149114285Y-85524199D01*
X149114285Y-85524199D02*
X149190475Y-85562294D01*
X149190475Y-85562294D02*
X149495237Y-85562294D01*
X149495237Y-85562294D02*
X149495237Y-84762294D01*
X149495237Y-84762294D02*
X149228571Y-84762294D01*
X149228571Y-84762294D02*
X149152380Y-84800389D01*
X149152380Y-84800389D02*
X149114285Y-84838484D01*
X149114285Y-84838484D02*
X149076190Y-84914675D01*
X149076190Y-84914675D02*
X149076190Y-84990865D01*
X149076190Y-84990865D02*
X149114285Y-85067056D01*
X149114285Y-85067056D02*
X149152380Y-85105151D01*
X149152380Y-85105151D02*
X149228571Y-85143246D01*
X149228571Y-85143246D02*
X149495237Y-85143246D01*
X154657143Y-87262294D02*
X154923810Y-86881341D01*
X155114286Y-87262294D02*
X155114286Y-86462294D01*
X155114286Y-86462294D02*
X154809524Y-86462294D01*
X154809524Y-86462294D02*
X154733334Y-86500389D01*
X154733334Y-86500389D02*
X154695239Y-86538484D01*
X154695239Y-86538484D02*
X154657143Y-86614675D01*
X154657143Y-86614675D02*
X154657143Y-86728960D01*
X154657143Y-86728960D02*
X154695239Y-86805151D01*
X154695239Y-86805151D02*
X154733334Y-86843246D01*
X154733334Y-86843246D02*
X154809524Y-86881341D01*
X154809524Y-86881341D02*
X155114286Y-86881341D01*
X153971429Y-86728960D02*
X153971429Y-87262294D01*
X154161905Y-86424199D02*
X154352382Y-86995627D01*
X154352382Y-86995627D02*
X153857143Y-86995627D01*
X151914286Y-87262294D02*
X152371429Y-87262294D01*
X152142857Y-87262294D02*
X152142857Y-86462294D01*
X152142857Y-86462294D02*
X152219048Y-86576579D01*
X152219048Y-86576579D02*
X152295238Y-86652770D01*
X152295238Y-86652770D02*
X152371429Y-86690865D01*
X151419047Y-86462294D02*
X151342857Y-86462294D01*
X151342857Y-86462294D02*
X151266666Y-86500389D01*
X151266666Y-86500389D02*
X151228571Y-86538484D01*
X151228571Y-86538484D02*
X151190476Y-86614675D01*
X151190476Y-86614675D02*
X151152381Y-86767056D01*
X151152381Y-86767056D02*
X151152381Y-86957532D01*
X151152381Y-86957532D02*
X151190476Y-87109913D01*
X151190476Y-87109913D02*
X151228571Y-87186103D01*
X151228571Y-87186103D02*
X151266666Y-87224199D01*
X151266666Y-87224199D02*
X151342857Y-87262294D01*
X151342857Y-87262294D02*
X151419047Y-87262294D01*
X151419047Y-87262294D02*
X151495238Y-87224199D01*
X151495238Y-87224199D02*
X151533333Y-87186103D01*
X151533333Y-87186103D02*
X151571428Y-87109913D01*
X151571428Y-87109913D02*
X151609524Y-86957532D01*
X151609524Y-86957532D02*
X151609524Y-86767056D01*
X151609524Y-86767056D02*
X151571428Y-86614675D01*
X151571428Y-86614675D02*
X151533333Y-86538484D01*
X151533333Y-86538484D02*
X151495238Y-86500389D01*
X151495238Y-86500389D02*
X151419047Y-86462294D01*
X150809523Y-87262294D02*
X150809523Y-86462294D01*
X150733333Y-86957532D02*
X150504761Y-87262294D01*
X150504761Y-86728960D02*
X150809523Y-87033722D01*
X154580952Y-88962295D02*
X154847619Y-88581342D01*
X155038095Y-88962295D02*
X155038095Y-88162295D01*
X155038095Y-88162295D02*
X154733333Y-88162295D01*
X154733333Y-88162295D02*
X154657143Y-88200390D01*
X154657143Y-88200390D02*
X154619048Y-88238485D01*
X154619048Y-88238485D02*
X154580952Y-88314676D01*
X154580952Y-88314676D02*
X154580952Y-88428961D01*
X154580952Y-88428961D02*
X154619048Y-88505152D01*
X154619048Y-88505152D02*
X154657143Y-88543247D01*
X154657143Y-88543247D02*
X154733333Y-88581342D01*
X154733333Y-88581342D02*
X155038095Y-88581342D01*
X153857143Y-88162295D02*
X154238095Y-88162295D01*
X154238095Y-88162295D02*
X154276191Y-88543247D01*
X154276191Y-88543247D02*
X154238095Y-88505152D01*
X154238095Y-88505152D02*
X154161905Y-88467057D01*
X154161905Y-88467057D02*
X153971429Y-88467057D01*
X153971429Y-88467057D02*
X153895238Y-88505152D01*
X153895238Y-88505152D02*
X153857143Y-88543247D01*
X153857143Y-88543247D02*
X153819048Y-88619438D01*
X153819048Y-88619438D02*
X153819048Y-88809914D01*
X153819048Y-88809914D02*
X153857143Y-88886104D01*
X153857143Y-88886104D02*
X153895238Y-88924200D01*
X153895238Y-88924200D02*
X153971429Y-88962295D01*
X153971429Y-88962295D02*
X154161905Y-88962295D01*
X154161905Y-88962295D02*
X154238095Y-88924200D01*
X154238095Y-88924200D02*
X154276191Y-88886104D01*
X151838095Y-88962295D02*
X152295238Y-88962295D01*
X152066666Y-88962295D02*
X152066666Y-88162295D01*
X152066666Y-88162295D02*
X152142857Y-88276580D01*
X152142857Y-88276580D02*
X152219047Y-88352771D01*
X152219047Y-88352771D02*
X152295238Y-88390866D01*
X151495237Y-88962295D02*
X151495237Y-88162295D01*
X151419047Y-88657533D02*
X151190475Y-88962295D01*
X151190475Y-88428961D02*
X151495237Y-88733723D01*
X165661904Y-72686104D02*
X165700000Y-72724200D01*
X165700000Y-72724200D02*
X165814285Y-72762295D01*
X165814285Y-72762295D02*
X165890476Y-72762295D01*
X165890476Y-72762295D02*
X166004762Y-72724200D01*
X166004762Y-72724200D02*
X166080952Y-72648009D01*
X166080952Y-72648009D02*
X166119047Y-72571819D01*
X166119047Y-72571819D02*
X166157143Y-72419438D01*
X166157143Y-72419438D02*
X166157143Y-72305152D01*
X166157143Y-72305152D02*
X166119047Y-72152771D01*
X166119047Y-72152771D02*
X166080952Y-72076580D01*
X166080952Y-72076580D02*
X166004762Y-72000390D01*
X166004762Y-72000390D02*
X165890476Y-71962295D01*
X165890476Y-71962295D02*
X165814285Y-71962295D01*
X165814285Y-71962295D02*
X165700000Y-72000390D01*
X165700000Y-72000390D02*
X165661904Y-72038485D01*
X164900000Y-72762295D02*
X165357143Y-72762295D01*
X165128571Y-72762295D02*
X165128571Y-71962295D01*
X165128571Y-71962295D02*
X165204762Y-72076580D01*
X165204762Y-72076580D02*
X165280952Y-72152771D01*
X165280952Y-72152771D02*
X165357143Y-72190866D01*
X164557142Y-72457533D02*
X163947619Y-72457533D01*
X163109523Y-72686104D02*
X163147619Y-72724200D01*
X163147619Y-72724200D02*
X163261904Y-72762295D01*
X163261904Y-72762295D02*
X163338095Y-72762295D01*
X163338095Y-72762295D02*
X163452381Y-72724200D01*
X163452381Y-72724200D02*
X163528571Y-72648009D01*
X163528571Y-72648009D02*
X163566666Y-72571819D01*
X163566666Y-72571819D02*
X163604762Y-72419438D01*
X163604762Y-72419438D02*
X163604762Y-72305152D01*
X163604762Y-72305152D02*
X163566666Y-72152771D01*
X163566666Y-72152771D02*
X163528571Y-72076580D01*
X163528571Y-72076580D02*
X163452381Y-72000390D01*
X163452381Y-72000390D02*
X163338095Y-71962295D01*
X163338095Y-71962295D02*
X163261904Y-71962295D01*
X163261904Y-71962295D02*
X163147619Y-72000390D01*
X163147619Y-72000390D02*
X163109523Y-72038485D01*
X162423809Y-72228961D02*
X162423809Y-72762295D01*
X162614285Y-71924200D02*
X162804762Y-72495628D01*
X162804762Y-72495628D02*
X162309523Y-72495628D01*
X161966666Y-72724200D02*
X161966666Y-72762295D01*
X161966666Y-72762295D02*
X162004761Y-72838485D01*
X162004761Y-72838485D02*
X162042857Y-72876580D01*
X161166666Y-72686104D02*
X161204762Y-72724200D01*
X161204762Y-72724200D02*
X161319047Y-72762295D01*
X161319047Y-72762295D02*
X161395238Y-72762295D01*
X161395238Y-72762295D02*
X161509524Y-72724200D01*
X161509524Y-72724200D02*
X161585714Y-72648009D01*
X161585714Y-72648009D02*
X161623809Y-72571819D01*
X161623809Y-72571819D02*
X161661905Y-72419438D01*
X161661905Y-72419438D02*
X161661905Y-72305152D01*
X161661905Y-72305152D02*
X161623809Y-72152771D01*
X161623809Y-72152771D02*
X161585714Y-72076580D01*
X161585714Y-72076580D02*
X161509524Y-72000390D01*
X161509524Y-72000390D02*
X161395238Y-71962295D01*
X161395238Y-71962295D02*
X161319047Y-71962295D01*
X161319047Y-71962295D02*
X161204762Y-72000390D01*
X161204762Y-72000390D02*
X161166666Y-72038485D01*
X160480952Y-71962295D02*
X160633333Y-71962295D01*
X160633333Y-71962295D02*
X160709524Y-72000390D01*
X160709524Y-72000390D02*
X160747619Y-72038485D01*
X160747619Y-72038485D02*
X160823809Y-72152771D01*
X160823809Y-72152771D02*
X160861905Y-72305152D01*
X160861905Y-72305152D02*
X160861905Y-72609914D01*
X160861905Y-72609914D02*
X160823809Y-72686104D01*
X160823809Y-72686104D02*
X160785714Y-72724200D01*
X160785714Y-72724200D02*
X160709524Y-72762295D01*
X160709524Y-72762295D02*
X160557143Y-72762295D01*
X160557143Y-72762295D02*
X160480952Y-72724200D01*
X160480952Y-72724200D02*
X160442857Y-72686104D01*
X160442857Y-72686104D02*
X160404762Y-72609914D01*
X160404762Y-72609914D02*
X160404762Y-72419438D01*
X160404762Y-72419438D02*
X160442857Y-72343247D01*
X160442857Y-72343247D02*
X160480952Y-72305152D01*
X160480952Y-72305152D02*
X160557143Y-72267057D01*
X160557143Y-72267057D02*
X160709524Y-72267057D01*
X160709524Y-72267057D02*
X160785714Y-72305152D01*
X160785714Y-72305152D02*
X160823809Y-72343247D01*
X160823809Y-72343247D02*
X160861905Y-72419438D01*
X160023809Y-72724200D02*
X160023809Y-72762295D01*
X160023809Y-72762295D02*
X160061904Y-72838485D01*
X160061904Y-72838485D02*
X160100000Y-72876580D01*
X159223809Y-72686104D02*
X159261905Y-72724200D01*
X159261905Y-72724200D02*
X159376190Y-72762295D01*
X159376190Y-72762295D02*
X159452381Y-72762295D01*
X159452381Y-72762295D02*
X159566667Y-72724200D01*
X159566667Y-72724200D02*
X159642857Y-72648009D01*
X159642857Y-72648009D02*
X159680952Y-72571819D01*
X159680952Y-72571819D02*
X159719048Y-72419438D01*
X159719048Y-72419438D02*
X159719048Y-72305152D01*
X159719048Y-72305152D02*
X159680952Y-72152771D01*
X159680952Y-72152771D02*
X159642857Y-72076580D01*
X159642857Y-72076580D02*
X159566667Y-72000390D01*
X159566667Y-72000390D02*
X159452381Y-71962295D01*
X159452381Y-71962295D02*
X159376190Y-71962295D01*
X159376190Y-71962295D02*
X159261905Y-72000390D01*
X159261905Y-72000390D02*
X159223809Y-72038485D01*
X158842857Y-72762295D02*
X158690476Y-72762295D01*
X158690476Y-72762295D02*
X158614286Y-72724200D01*
X158614286Y-72724200D02*
X158576190Y-72686104D01*
X158576190Y-72686104D02*
X158500000Y-72571819D01*
X158500000Y-72571819D02*
X158461905Y-72419438D01*
X158461905Y-72419438D02*
X158461905Y-72114676D01*
X158461905Y-72114676D02*
X158500000Y-72038485D01*
X158500000Y-72038485D02*
X158538095Y-72000390D01*
X158538095Y-72000390D02*
X158614286Y-71962295D01*
X158614286Y-71962295D02*
X158766667Y-71962295D01*
X158766667Y-71962295D02*
X158842857Y-72000390D01*
X158842857Y-72000390D02*
X158880952Y-72038485D01*
X158880952Y-72038485D02*
X158919048Y-72114676D01*
X158919048Y-72114676D02*
X158919048Y-72305152D01*
X158919048Y-72305152D02*
X158880952Y-72381342D01*
X158880952Y-72381342D02*
X158842857Y-72419438D01*
X158842857Y-72419438D02*
X158766667Y-72457533D01*
X158766667Y-72457533D02*
X158614286Y-72457533D01*
X158614286Y-72457533D02*
X158538095Y-72419438D01*
X158538095Y-72419438D02*
X158500000Y-72381342D01*
X158500000Y-72381342D02*
X158461905Y-72305152D01*
X158080952Y-72724200D02*
X158080952Y-72762295D01*
X158080952Y-72762295D02*
X158119047Y-72838485D01*
X158119047Y-72838485D02*
X158157143Y-72876580D01*
X157280952Y-72686104D02*
X157319048Y-72724200D01*
X157319048Y-72724200D02*
X157433333Y-72762295D01*
X157433333Y-72762295D02*
X157509524Y-72762295D01*
X157509524Y-72762295D02*
X157623810Y-72724200D01*
X157623810Y-72724200D02*
X157700000Y-72648009D01*
X157700000Y-72648009D02*
X157738095Y-72571819D01*
X157738095Y-72571819D02*
X157776191Y-72419438D01*
X157776191Y-72419438D02*
X157776191Y-72305152D01*
X157776191Y-72305152D02*
X157738095Y-72152771D01*
X157738095Y-72152771D02*
X157700000Y-72076580D01*
X157700000Y-72076580D02*
X157623810Y-72000390D01*
X157623810Y-72000390D02*
X157509524Y-71962295D01*
X157509524Y-71962295D02*
X157433333Y-71962295D01*
X157433333Y-71962295D02*
X157319048Y-72000390D01*
X157319048Y-72000390D02*
X157280952Y-72038485D01*
X156519048Y-72762295D02*
X156976191Y-72762295D01*
X156747619Y-72762295D02*
X156747619Y-71962295D01*
X156747619Y-71962295D02*
X156823810Y-72076580D01*
X156823810Y-72076580D02*
X156900000Y-72152771D01*
X156900000Y-72152771D02*
X156976191Y-72190866D01*
X156252381Y-71962295D02*
X155719047Y-71962295D01*
X155719047Y-71962295D02*
X156061905Y-72762295D01*
X153776190Y-72762295D02*
X154233333Y-72762295D01*
X154004761Y-72762295D02*
X154004761Y-71962295D01*
X154004761Y-71962295D02*
X154080952Y-72076580D01*
X154080952Y-72076580D02*
X154157142Y-72152771D01*
X154157142Y-72152771D02*
X154233333Y-72190866D01*
X153280951Y-71962295D02*
X153204761Y-71962295D01*
X153204761Y-71962295D02*
X153128570Y-72000390D01*
X153128570Y-72000390D02*
X153090475Y-72038485D01*
X153090475Y-72038485D02*
X153052380Y-72114676D01*
X153052380Y-72114676D02*
X153014285Y-72267057D01*
X153014285Y-72267057D02*
X153014285Y-72457533D01*
X153014285Y-72457533D02*
X153052380Y-72609914D01*
X153052380Y-72609914D02*
X153090475Y-72686104D01*
X153090475Y-72686104D02*
X153128570Y-72724200D01*
X153128570Y-72724200D02*
X153204761Y-72762295D01*
X153204761Y-72762295D02*
X153280951Y-72762295D01*
X153280951Y-72762295D02*
X153357142Y-72724200D01*
X153357142Y-72724200D02*
X153395237Y-72686104D01*
X153395237Y-72686104D02*
X153433332Y-72609914D01*
X153433332Y-72609914D02*
X153471428Y-72457533D01*
X153471428Y-72457533D02*
X153471428Y-72267057D01*
X153471428Y-72267057D02*
X153433332Y-72114676D01*
X153433332Y-72114676D02*
X153395237Y-72038485D01*
X153395237Y-72038485D02*
X153357142Y-72000390D01*
X153357142Y-72000390D02*
X153280951Y-71962295D01*
X152519046Y-71962295D02*
X152442856Y-71962295D01*
X152442856Y-71962295D02*
X152366665Y-72000390D01*
X152366665Y-72000390D02*
X152328570Y-72038485D01*
X152328570Y-72038485D02*
X152290475Y-72114676D01*
X152290475Y-72114676D02*
X152252380Y-72267057D01*
X152252380Y-72267057D02*
X152252380Y-72457533D01*
X152252380Y-72457533D02*
X152290475Y-72609914D01*
X152290475Y-72609914D02*
X152328570Y-72686104D01*
X152328570Y-72686104D02*
X152366665Y-72724200D01*
X152366665Y-72724200D02*
X152442856Y-72762295D01*
X152442856Y-72762295D02*
X152519046Y-72762295D01*
X152519046Y-72762295D02*
X152595237Y-72724200D01*
X152595237Y-72724200D02*
X152633332Y-72686104D01*
X152633332Y-72686104D02*
X152671427Y-72609914D01*
X152671427Y-72609914D02*
X152709523Y-72457533D01*
X152709523Y-72457533D02*
X152709523Y-72267057D01*
X152709523Y-72267057D02*
X152671427Y-72114676D01*
X152671427Y-72114676D02*
X152633332Y-72038485D01*
X152633332Y-72038485D02*
X152595237Y-72000390D01*
X152595237Y-72000390D02*
X152519046Y-71962295D01*
X151909522Y-72228961D02*
X151909522Y-72762295D01*
X151909522Y-72305152D02*
X151871427Y-72267057D01*
X151871427Y-72267057D02*
X151795237Y-72228961D01*
X151795237Y-72228961D02*
X151680951Y-72228961D01*
X151680951Y-72228961D02*
X151604760Y-72267057D01*
X151604760Y-72267057D02*
X151566665Y-72343247D01*
X151566665Y-72343247D02*
X151566665Y-72762295D01*
X150919046Y-72343247D02*
X151185712Y-72343247D01*
X151185712Y-72762295D02*
X151185712Y-71962295D01*
X151185712Y-71962295D02*
X150804760Y-71962295D01*
X167223810Y-73662295D02*
X167223810Y-74309914D01*
X167223810Y-74309914D02*
X167185715Y-74386104D01*
X167185715Y-74386104D02*
X167147620Y-74424200D01*
X167147620Y-74424200D02*
X167071429Y-74462295D01*
X167071429Y-74462295D02*
X166919048Y-74462295D01*
X166919048Y-74462295D02*
X166842858Y-74424200D01*
X166842858Y-74424200D02*
X166804763Y-74386104D01*
X166804763Y-74386104D02*
X166766667Y-74309914D01*
X166766667Y-74309914D02*
X166766667Y-73662295D01*
X166423811Y-73738485D02*
X166385715Y-73700390D01*
X166385715Y-73700390D02*
X166309525Y-73662295D01*
X166309525Y-73662295D02*
X166119049Y-73662295D01*
X166119049Y-73662295D02*
X166042858Y-73700390D01*
X166042858Y-73700390D02*
X166004763Y-73738485D01*
X166004763Y-73738485D02*
X165966668Y-73814676D01*
X165966668Y-73814676D02*
X165966668Y-73890866D01*
X165966668Y-73890866D02*
X166004763Y-74005152D01*
X166004763Y-74005152D02*
X166461906Y-74462295D01*
X166461906Y-74462295D02*
X165966668Y-74462295D01*
X164442858Y-74233723D02*
X164061905Y-74233723D01*
X164519048Y-74462295D02*
X164252381Y-73662295D01*
X164252381Y-73662295D02*
X163985715Y-74462295D01*
X163719048Y-74462295D02*
X163719048Y-73662295D01*
X163719048Y-73662295D02*
X163414286Y-73662295D01*
X163414286Y-73662295D02*
X163338096Y-73700390D01*
X163338096Y-73700390D02*
X163300001Y-73738485D01*
X163300001Y-73738485D02*
X163261905Y-73814676D01*
X163261905Y-73814676D02*
X163261905Y-73928961D01*
X163261905Y-73928961D02*
X163300001Y-74005152D01*
X163300001Y-74005152D02*
X163338096Y-74043247D01*
X163338096Y-74043247D02*
X163414286Y-74081342D01*
X163414286Y-74081342D02*
X163719048Y-74081342D01*
X162957144Y-73738485D02*
X162919048Y-73700390D01*
X162919048Y-73700390D02*
X162842858Y-73662295D01*
X162842858Y-73662295D02*
X162652382Y-73662295D01*
X162652382Y-73662295D02*
X162576191Y-73700390D01*
X162576191Y-73700390D02*
X162538096Y-73738485D01*
X162538096Y-73738485D02*
X162500001Y-73814676D01*
X162500001Y-73814676D02*
X162500001Y-73890866D01*
X162500001Y-73890866D02*
X162538096Y-74005152D01*
X162538096Y-74005152D02*
X162995239Y-74462295D01*
X162995239Y-74462295D02*
X162500001Y-74462295D01*
X161738096Y-74462295D02*
X162195239Y-74462295D01*
X161966667Y-74462295D02*
X161966667Y-73662295D01*
X161966667Y-73662295D02*
X162042858Y-73776580D01*
X162042858Y-73776580D02*
X162119048Y-73852771D01*
X162119048Y-73852771D02*
X162195239Y-73890866D01*
X160976191Y-74462295D02*
X161433334Y-74462295D01*
X161204762Y-74462295D02*
X161204762Y-73662295D01*
X161204762Y-73662295D02*
X161280953Y-73776580D01*
X161280953Y-73776580D02*
X161357143Y-73852771D01*
X161357143Y-73852771D02*
X161433334Y-73890866D01*
X160671429Y-73738485D02*
X160633333Y-73700390D01*
X160633333Y-73700390D02*
X160557143Y-73662295D01*
X160557143Y-73662295D02*
X160366667Y-73662295D01*
X160366667Y-73662295D02*
X160290476Y-73700390D01*
X160290476Y-73700390D02*
X160252381Y-73738485D01*
X160252381Y-73738485D02*
X160214286Y-73814676D01*
X160214286Y-73814676D02*
X160214286Y-73890866D01*
X160214286Y-73890866D02*
X160252381Y-74005152D01*
X160252381Y-74005152D02*
X160709524Y-74462295D01*
X160709524Y-74462295D02*
X160214286Y-74462295D01*
X159871428Y-74462295D02*
X159871428Y-73662295D01*
X159414285Y-74462295D02*
X159757143Y-74005152D01*
X159414285Y-73662295D02*
X159871428Y-74119438D01*
X159071428Y-74157533D02*
X158461905Y-74157533D01*
X158157143Y-73662295D02*
X157661905Y-73662295D01*
X157661905Y-73662295D02*
X157928571Y-73967057D01*
X157928571Y-73967057D02*
X157814286Y-73967057D01*
X157814286Y-73967057D02*
X157738095Y-74005152D01*
X157738095Y-74005152D02*
X157700000Y-74043247D01*
X157700000Y-74043247D02*
X157661905Y-74119438D01*
X157661905Y-74119438D02*
X157661905Y-74309914D01*
X157661905Y-74309914D02*
X157700000Y-74386104D01*
X157700000Y-74386104D02*
X157738095Y-74424200D01*
X157738095Y-74424200D02*
X157814286Y-74462295D01*
X157814286Y-74462295D02*
X158042857Y-74462295D01*
X158042857Y-74462295D02*
X158119048Y-74424200D01*
X158119048Y-74424200D02*
X158157143Y-74386104D01*
X157319047Y-74386104D02*
X157280952Y-74424200D01*
X157280952Y-74424200D02*
X157319047Y-74462295D01*
X157319047Y-74462295D02*
X157357143Y-74424200D01*
X157357143Y-74424200D02*
X157319047Y-74386104D01*
X157319047Y-74386104D02*
X157319047Y-74462295D01*
X157014286Y-73662295D02*
X156519048Y-73662295D01*
X156519048Y-73662295D02*
X156785714Y-73967057D01*
X156785714Y-73967057D02*
X156671429Y-73967057D01*
X156671429Y-73967057D02*
X156595238Y-74005152D01*
X156595238Y-74005152D02*
X156557143Y-74043247D01*
X156557143Y-74043247D02*
X156519048Y-74119438D01*
X156519048Y-74119438D02*
X156519048Y-74309914D01*
X156519048Y-74309914D02*
X156557143Y-74386104D01*
X156557143Y-74386104D02*
X156595238Y-74424200D01*
X156595238Y-74424200D02*
X156671429Y-74462295D01*
X156671429Y-74462295D02*
X156900000Y-74462295D01*
X156900000Y-74462295D02*
X156976191Y-74424200D01*
X156976191Y-74424200D02*
X157014286Y-74386104D01*
X154347618Y-74462295D02*
X154347618Y-73662295D01*
X154347618Y-73662295D02*
X154157142Y-73662295D01*
X154157142Y-73662295D02*
X154042856Y-73700390D01*
X154042856Y-73700390D02*
X153966666Y-73776580D01*
X153966666Y-73776580D02*
X153928571Y-73852771D01*
X153928571Y-73852771D02*
X153890475Y-74005152D01*
X153890475Y-74005152D02*
X153890475Y-74119438D01*
X153890475Y-74119438D02*
X153928571Y-74271819D01*
X153928571Y-74271819D02*
X153966666Y-74348009D01*
X153966666Y-74348009D02*
X154042856Y-74424200D01*
X154042856Y-74424200D02*
X154157142Y-74462295D01*
X154157142Y-74462295D02*
X154347618Y-74462295D01*
X153128571Y-74462295D02*
X153585714Y-74462295D01*
X153357142Y-74462295D02*
X153357142Y-73662295D01*
X153357142Y-73662295D02*
X153433333Y-73776580D01*
X153433333Y-73776580D02*
X153509523Y-73852771D01*
X153509523Y-73852771D02*
X153585714Y-73890866D01*
X151185713Y-74462295D02*
X151566665Y-74462295D01*
X151566665Y-74462295D02*
X151566665Y-73662295D01*
X150919046Y-74043247D02*
X150652380Y-74043247D01*
X150538094Y-74462295D02*
X150919046Y-74462295D01*
X150919046Y-74462295D02*
X150919046Y-73662295D01*
X150919046Y-73662295D02*
X150538094Y-73662295D01*
X150195236Y-74462295D02*
X150195236Y-73662295D01*
X150195236Y-73662295D02*
X150004760Y-73662295D01*
X150004760Y-73662295D02*
X149890474Y-73700390D01*
X149890474Y-73700390D02*
X149814284Y-73776580D01*
X149814284Y-73776580D02*
X149776189Y-73852771D01*
X149776189Y-73852771D02*
X149738093Y-74005152D01*
X149738093Y-74005152D02*
X149738093Y-74119438D01*
X149738093Y-74119438D02*
X149776189Y-74271819D01*
X149776189Y-74271819D02*
X149814284Y-74348009D01*
X149814284Y-74348009D02*
X149890474Y-74424200D01*
X149890474Y-74424200D02*
X150004760Y-74462295D01*
X150004760Y-74462295D02*
X150195236Y-74462295D01*
X168119047Y-80386104D02*
X168157143Y-80424200D01*
X168157143Y-80424200D02*
X168271428Y-80462295D01*
X168271428Y-80462295D02*
X168347619Y-80462295D01*
X168347619Y-80462295D02*
X168461905Y-80424200D01*
X168461905Y-80424200D02*
X168538095Y-80348009D01*
X168538095Y-80348009D02*
X168576190Y-80271819D01*
X168576190Y-80271819D02*
X168614286Y-80119438D01*
X168614286Y-80119438D02*
X168614286Y-80005152D01*
X168614286Y-80005152D02*
X168576190Y-79852771D01*
X168576190Y-79852771D02*
X168538095Y-79776580D01*
X168538095Y-79776580D02*
X168461905Y-79700390D01*
X168461905Y-79700390D02*
X168347619Y-79662295D01*
X168347619Y-79662295D02*
X168271428Y-79662295D01*
X168271428Y-79662295D02*
X168157143Y-79700390D01*
X168157143Y-79700390D02*
X168119047Y-79738485D01*
X167395238Y-79662295D02*
X167776190Y-79662295D01*
X167776190Y-79662295D02*
X167814286Y-80043247D01*
X167814286Y-80043247D02*
X167776190Y-80005152D01*
X167776190Y-80005152D02*
X167700000Y-79967057D01*
X167700000Y-79967057D02*
X167509524Y-79967057D01*
X167509524Y-79967057D02*
X167433333Y-80005152D01*
X167433333Y-80005152D02*
X167395238Y-80043247D01*
X167395238Y-80043247D02*
X167357143Y-80119438D01*
X167357143Y-80119438D02*
X167357143Y-80309914D01*
X167357143Y-80309914D02*
X167395238Y-80386104D01*
X167395238Y-80386104D02*
X167433333Y-80424200D01*
X167433333Y-80424200D02*
X167509524Y-80462295D01*
X167509524Y-80462295D02*
X167700000Y-80462295D01*
X167700000Y-80462295D02*
X167776190Y-80424200D01*
X167776190Y-80424200D02*
X167814286Y-80386104D01*
X165452380Y-79928961D02*
X165452380Y-80462295D01*
X165642856Y-79624200D02*
X165833333Y-80195628D01*
X165833333Y-80195628D02*
X165338094Y-80195628D01*
X165033332Y-80386104D02*
X164995237Y-80424200D01*
X164995237Y-80424200D02*
X165033332Y-80462295D01*
X165033332Y-80462295D02*
X165071428Y-80424200D01*
X165071428Y-80424200D02*
X165033332Y-80386104D01*
X165033332Y-80386104D02*
X165033332Y-80462295D01*
X164728571Y-79662295D02*
X164195237Y-79662295D01*
X164195237Y-79662295D02*
X164538095Y-80462295D01*
X163547618Y-79928961D02*
X163547618Y-80462295D01*
X163890475Y-79928961D02*
X163890475Y-80348009D01*
X163890475Y-80348009D02*
X163852380Y-80424200D01*
X163852380Y-80424200D02*
X163776190Y-80462295D01*
X163776190Y-80462295D02*
X163661904Y-80462295D01*
X163661904Y-80462295D02*
X163585713Y-80424200D01*
X163585713Y-80424200D02*
X163547618Y-80386104D01*
X162899999Y-80043247D02*
X163166665Y-80043247D01*
X163166665Y-80462295D02*
X163166665Y-79662295D01*
X163166665Y-79662295D02*
X162785713Y-79662295D01*
X168290476Y-82086104D02*
X168328572Y-82124200D01*
X168328572Y-82124200D02*
X168442857Y-82162295D01*
X168442857Y-82162295D02*
X168519048Y-82162295D01*
X168519048Y-82162295D02*
X168633334Y-82124200D01*
X168633334Y-82124200D02*
X168709524Y-82048009D01*
X168709524Y-82048009D02*
X168747619Y-81971819D01*
X168747619Y-81971819D02*
X168785715Y-81819438D01*
X168785715Y-81819438D02*
X168785715Y-81705152D01*
X168785715Y-81705152D02*
X168747619Y-81552771D01*
X168747619Y-81552771D02*
X168709524Y-81476580D01*
X168709524Y-81476580D02*
X168633334Y-81400390D01*
X168633334Y-81400390D02*
X168519048Y-81362295D01*
X168519048Y-81362295D02*
X168442857Y-81362295D01*
X168442857Y-81362295D02*
X168328572Y-81400390D01*
X168328572Y-81400390D02*
X168290476Y-81438485D01*
X168023810Y-81362295D02*
X167490476Y-81362295D01*
X167490476Y-81362295D02*
X167833334Y-82162295D01*
X167147619Y-82124200D02*
X167147619Y-82162295D01*
X167147619Y-82162295D02*
X167185714Y-82238485D01*
X167185714Y-82238485D02*
X167223810Y-82276580D01*
X166347619Y-82086104D02*
X166385715Y-82124200D01*
X166385715Y-82124200D02*
X166500000Y-82162295D01*
X166500000Y-82162295D02*
X166576191Y-82162295D01*
X166576191Y-82162295D02*
X166690477Y-82124200D01*
X166690477Y-82124200D02*
X166766667Y-82048009D01*
X166766667Y-82048009D02*
X166804762Y-81971819D01*
X166804762Y-81971819D02*
X166842858Y-81819438D01*
X166842858Y-81819438D02*
X166842858Y-81705152D01*
X166842858Y-81705152D02*
X166804762Y-81552771D01*
X166804762Y-81552771D02*
X166766667Y-81476580D01*
X166766667Y-81476580D02*
X166690477Y-81400390D01*
X166690477Y-81400390D02*
X166576191Y-81362295D01*
X166576191Y-81362295D02*
X166500000Y-81362295D01*
X166500000Y-81362295D02*
X166385715Y-81400390D01*
X166385715Y-81400390D02*
X166347619Y-81438485D01*
X165890477Y-81705152D02*
X165966667Y-81667057D01*
X165966667Y-81667057D02*
X166004762Y-81628961D01*
X166004762Y-81628961D02*
X166042858Y-81552771D01*
X166042858Y-81552771D02*
X166042858Y-81514676D01*
X166042858Y-81514676D02*
X166004762Y-81438485D01*
X166004762Y-81438485D02*
X165966667Y-81400390D01*
X165966667Y-81400390D02*
X165890477Y-81362295D01*
X165890477Y-81362295D02*
X165738096Y-81362295D01*
X165738096Y-81362295D02*
X165661905Y-81400390D01*
X165661905Y-81400390D02*
X165623810Y-81438485D01*
X165623810Y-81438485D02*
X165585715Y-81514676D01*
X165585715Y-81514676D02*
X165585715Y-81552771D01*
X165585715Y-81552771D02*
X165623810Y-81628961D01*
X165623810Y-81628961D02*
X165661905Y-81667057D01*
X165661905Y-81667057D02*
X165738096Y-81705152D01*
X165738096Y-81705152D02*
X165890477Y-81705152D01*
X165890477Y-81705152D02*
X165966667Y-81743247D01*
X165966667Y-81743247D02*
X166004762Y-81781342D01*
X166004762Y-81781342D02*
X166042858Y-81857533D01*
X166042858Y-81857533D02*
X166042858Y-82009914D01*
X166042858Y-82009914D02*
X166004762Y-82086104D01*
X166004762Y-82086104D02*
X165966667Y-82124200D01*
X165966667Y-82124200D02*
X165890477Y-82162295D01*
X165890477Y-82162295D02*
X165738096Y-82162295D01*
X165738096Y-82162295D02*
X165661905Y-82124200D01*
X165661905Y-82124200D02*
X165623810Y-82086104D01*
X165623810Y-82086104D02*
X165585715Y-82009914D01*
X165585715Y-82009914D02*
X165585715Y-81857533D01*
X165585715Y-81857533D02*
X165623810Y-81781342D01*
X165623810Y-81781342D02*
X165661905Y-81743247D01*
X165661905Y-81743247D02*
X165738096Y-81705152D01*
X163604762Y-82162295D02*
X164061905Y-82162295D01*
X163833333Y-82162295D02*
X163833333Y-81362295D01*
X163833333Y-81362295D02*
X163909524Y-81476580D01*
X163909524Y-81476580D02*
X163985714Y-81552771D01*
X163985714Y-81552771D02*
X164061905Y-81590866D01*
X163109523Y-81362295D02*
X163033333Y-81362295D01*
X163033333Y-81362295D02*
X162957142Y-81400390D01*
X162957142Y-81400390D02*
X162919047Y-81438485D01*
X162919047Y-81438485D02*
X162880952Y-81514676D01*
X162880952Y-81514676D02*
X162842857Y-81667057D01*
X162842857Y-81667057D02*
X162842857Y-81857533D01*
X162842857Y-81857533D02*
X162880952Y-82009914D01*
X162880952Y-82009914D02*
X162919047Y-82086104D01*
X162919047Y-82086104D02*
X162957142Y-82124200D01*
X162957142Y-82124200D02*
X163033333Y-82162295D01*
X163033333Y-82162295D02*
X163109523Y-82162295D01*
X163109523Y-82162295D02*
X163185714Y-82124200D01*
X163185714Y-82124200D02*
X163223809Y-82086104D01*
X163223809Y-82086104D02*
X163261904Y-82009914D01*
X163261904Y-82009914D02*
X163300000Y-81857533D01*
X163300000Y-81857533D02*
X163300000Y-81667057D01*
X163300000Y-81667057D02*
X163261904Y-81514676D01*
X163261904Y-81514676D02*
X163223809Y-81438485D01*
X163223809Y-81438485D02*
X163185714Y-81400390D01*
X163185714Y-81400390D02*
X163109523Y-81362295D01*
X162157142Y-81628961D02*
X162157142Y-82162295D01*
X162499999Y-81628961D02*
X162499999Y-82048009D01*
X162499999Y-82048009D02*
X162461904Y-82124200D01*
X162461904Y-82124200D02*
X162385714Y-82162295D01*
X162385714Y-82162295D02*
X162271428Y-82162295D01*
X162271428Y-82162295D02*
X162195237Y-82124200D01*
X162195237Y-82124200D02*
X162157142Y-82086104D01*
X161509523Y-81743247D02*
X161776189Y-81743247D01*
X161776189Y-82162295D02*
X161776189Y-81362295D01*
X161776189Y-81362295D02*
X161395237Y-81362295D01*
X168233333Y-83786104D02*
X168271429Y-83824200D01*
X168271429Y-83824200D02*
X168385714Y-83862295D01*
X168385714Y-83862295D02*
X168461905Y-83862295D01*
X168461905Y-83862295D02*
X168576191Y-83824200D01*
X168576191Y-83824200D02*
X168652381Y-83748009D01*
X168652381Y-83748009D02*
X168690476Y-83671819D01*
X168690476Y-83671819D02*
X168728572Y-83519438D01*
X168728572Y-83519438D02*
X168728572Y-83405152D01*
X168728572Y-83405152D02*
X168690476Y-83252771D01*
X168690476Y-83252771D02*
X168652381Y-83176580D01*
X168652381Y-83176580D02*
X168576191Y-83100390D01*
X168576191Y-83100390D02*
X168461905Y-83062295D01*
X168461905Y-83062295D02*
X168385714Y-83062295D01*
X168385714Y-83062295D02*
X168271429Y-83100390D01*
X168271429Y-83100390D02*
X168233333Y-83138485D01*
X167471429Y-83862295D02*
X167928572Y-83862295D01*
X167700000Y-83862295D02*
X167700000Y-83062295D01*
X167700000Y-83062295D02*
X167776191Y-83176580D01*
X167776191Y-83176580D02*
X167852381Y-83252771D01*
X167852381Y-83252771D02*
X167928572Y-83290866D01*
X166976190Y-83062295D02*
X166900000Y-83062295D01*
X166900000Y-83062295D02*
X166823809Y-83100390D01*
X166823809Y-83100390D02*
X166785714Y-83138485D01*
X166785714Y-83138485D02*
X166747619Y-83214676D01*
X166747619Y-83214676D02*
X166709524Y-83367057D01*
X166709524Y-83367057D02*
X166709524Y-83557533D01*
X166709524Y-83557533D02*
X166747619Y-83709914D01*
X166747619Y-83709914D02*
X166785714Y-83786104D01*
X166785714Y-83786104D02*
X166823809Y-83824200D01*
X166823809Y-83824200D02*
X166900000Y-83862295D01*
X166900000Y-83862295D02*
X166976190Y-83862295D01*
X166976190Y-83862295D02*
X167052381Y-83824200D01*
X167052381Y-83824200D02*
X167090476Y-83786104D01*
X167090476Y-83786104D02*
X167128571Y-83709914D01*
X167128571Y-83709914D02*
X167166667Y-83557533D01*
X167166667Y-83557533D02*
X167166667Y-83367057D01*
X167166667Y-83367057D02*
X167128571Y-83214676D01*
X167128571Y-83214676D02*
X167090476Y-83138485D01*
X167090476Y-83138485D02*
X167052381Y-83100390D01*
X167052381Y-83100390D02*
X166976190Y-83062295D01*
X164728571Y-83862295D02*
X165185714Y-83862295D01*
X164957142Y-83862295D02*
X164957142Y-83062295D01*
X164957142Y-83062295D02*
X165033333Y-83176580D01*
X165033333Y-83176580D02*
X165109523Y-83252771D01*
X165109523Y-83252771D02*
X165185714Y-83290866D01*
X164042856Y-83328961D02*
X164042856Y-83862295D01*
X164385713Y-83328961D02*
X164385713Y-83748009D01*
X164385713Y-83748009D02*
X164347618Y-83824200D01*
X164347618Y-83824200D02*
X164271428Y-83862295D01*
X164271428Y-83862295D02*
X164157142Y-83862295D01*
X164157142Y-83862295D02*
X164080951Y-83824200D01*
X164080951Y-83824200D02*
X164042856Y-83786104D01*
X163395237Y-83443247D02*
X163661903Y-83443247D01*
X163661903Y-83862295D02*
X163661903Y-83062295D01*
X163661903Y-83062295D02*
X163280951Y-83062295D01*
X168442857Y-85486103D02*
X168480953Y-85524199D01*
X168480953Y-85524199D02*
X168595238Y-85562294D01*
X168595238Y-85562294D02*
X168671429Y-85562294D01*
X168671429Y-85562294D02*
X168785715Y-85524199D01*
X168785715Y-85524199D02*
X168861905Y-85448008D01*
X168861905Y-85448008D02*
X168900000Y-85371818D01*
X168900000Y-85371818D02*
X168938096Y-85219437D01*
X168938096Y-85219437D02*
X168938096Y-85105151D01*
X168938096Y-85105151D02*
X168900000Y-84952770D01*
X168900000Y-84952770D02*
X168861905Y-84876579D01*
X168861905Y-84876579D02*
X168785715Y-84800389D01*
X168785715Y-84800389D02*
X168671429Y-84762294D01*
X168671429Y-84762294D02*
X168595238Y-84762294D01*
X168595238Y-84762294D02*
X168480953Y-84800389D01*
X168480953Y-84800389D02*
X168442857Y-84838484D01*
X167680953Y-85562294D02*
X168138096Y-85562294D01*
X167909524Y-85562294D02*
X167909524Y-84762294D01*
X167909524Y-84762294D02*
X167985715Y-84876579D01*
X167985715Y-84876579D02*
X168061905Y-84952770D01*
X168061905Y-84952770D02*
X168138096Y-84990865D01*
X167414286Y-84762294D02*
X166919048Y-84762294D01*
X166919048Y-84762294D02*
X167185714Y-85067056D01*
X167185714Y-85067056D02*
X167071429Y-85067056D01*
X167071429Y-85067056D02*
X166995238Y-85105151D01*
X166995238Y-85105151D02*
X166957143Y-85143246D01*
X166957143Y-85143246D02*
X166919048Y-85219437D01*
X166919048Y-85219437D02*
X166919048Y-85409913D01*
X166919048Y-85409913D02*
X166957143Y-85486103D01*
X166957143Y-85486103D02*
X166995238Y-85524199D01*
X166995238Y-85524199D02*
X167071429Y-85562294D01*
X167071429Y-85562294D02*
X167300000Y-85562294D01*
X167300000Y-85562294D02*
X167376191Y-85524199D01*
X167376191Y-85524199D02*
X167414286Y-85486103D01*
X166538095Y-85524199D02*
X166538095Y-85562294D01*
X166538095Y-85562294D02*
X166576190Y-85638484D01*
X166576190Y-85638484D02*
X166614286Y-85676579D01*
X165738095Y-85486103D02*
X165776191Y-85524199D01*
X165776191Y-85524199D02*
X165890476Y-85562294D01*
X165890476Y-85562294D02*
X165966667Y-85562294D01*
X165966667Y-85562294D02*
X166080953Y-85524199D01*
X166080953Y-85524199D02*
X166157143Y-85448008D01*
X166157143Y-85448008D02*
X166195238Y-85371818D01*
X166195238Y-85371818D02*
X166233334Y-85219437D01*
X166233334Y-85219437D02*
X166233334Y-85105151D01*
X166233334Y-85105151D02*
X166195238Y-84952770D01*
X166195238Y-84952770D02*
X166157143Y-84876579D01*
X166157143Y-84876579D02*
X166080953Y-84800389D01*
X166080953Y-84800389D02*
X165966667Y-84762294D01*
X165966667Y-84762294D02*
X165890476Y-84762294D01*
X165890476Y-84762294D02*
X165776191Y-84800389D01*
X165776191Y-84800389D02*
X165738095Y-84838484D01*
X164976191Y-85562294D02*
X165433334Y-85562294D01*
X165204762Y-85562294D02*
X165204762Y-84762294D01*
X165204762Y-84762294D02*
X165280953Y-84876579D01*
X165280953Y-84876579D02*
X165357143Y-84952770D01*
X165357143Y-84952770D02*
X165433334Y-84990865D01*
X164290476Y-85028960D02*
X164290476Y-85562294D01*
X164480952Y-84724199D02*
X164671429Y-85295627D01*
X164671429Y-85295627D02*
X164176190Y-85295627D01*
X162728571Y-84762294D02*
X162233333Y-84762294D01*
X162233333Y-84762294D02*
X162499999Y-85067056D01*
X162499999Y-85067056D02*
X162385714Y-85067056D01*
X162385714Y-85067056D02*
X162309523Y-85105151D01*
X162309523Y-85105151D02*
X162271428Y-85143246D01*
X162271428Y-85143246D02*
X162233333Y-85219437D01*
X162233333Y-85219437D02*
X162233333Y-85409913D01*
X162233333Y-85409913D02*
X162271428Y-85486103D01*
X162271428Y-85486103D02*
X162309523Y-85524199D01*
X162309523Y-85524199D02*
X162385714Y-85562294D01*
X162385714Y-85562294D02*
X162614285Y-85562294D01*
X162614285Y-85562294D02*
X162690476Y-85524199D01*
X162690476Y-85524199D02*
X162728571Y-85486103D01*
X161966666Y-84762294D02*
X161471428Y-84762294D01*
X161471428Y-84762294D02*
X161738094Y-85067056D01*
X161738094Y-85067056D02*
X161623809Y-85067056D01*
X161623809Y-85067056D02*
X161547618Y-85105151D01*
X161547618Y-85105151D02*
X161509523Y-85143246D01*
X161509523Y-85143246D02*
X161471428Y-85219437D01*
X161471428Y-85219437D02*
X161471428Y-85409913D01*
X161471428Y-85409913D02*
X161509523Y-85486103D01*
X161509523Y-85486103D02*
X161547618Y-85524199D01*
X161547618Y-85524199D02*
X161623809Y-85562294D01*
X161623809Y-85562294D02*
X161852380Y-85562294D01*
X161852380Y-85562294D02*
X161928571Y-85524199D01*
X161928571Y-85524199D02*
X161966666Y-85486103D01*
X161128570Y-85028960D02*
X161128570Y-85828960D01*
X161128570Y-85067056D02*
X161052380Y-85028960D01*
X161052380Y-85028960D02*
X160899999Y-85028960D01*
X160899999Y-85028960D02*
X160823808Y-85067056D01*
X160823808Y-85067056D02*
X160785713Y-85105151D01*
X160785713Y-85105151D02*
X160747618Y-85181341D01*
X160747618Y-85181341D02*
X160747618Y-85409913D01*
X160747618Y-85409913D02*
X160785713Y-85486103D01*
X160785713Y-85486103D02*
X160823808Y-85524199D01*
X160823808Y-85524199D02*
X160899999Y-85562294D01*
X160899999Y-85562294D02*
X161052380Y-85562294D01*
X161052380Y-85562294D02*
X161128570Y-85524199D01*
X160138094Y-85143246D02*
X160404760Y-85143246D01*
X160404760Y-85562294D02*
X160404760Y-84762294D01*
X160404760Y-84762294D02*
X160023808Y-84762294D01*
X168442857Y-87186103D02*
X168480953Y-87224199D01*
X168480953Y-87224199D02*
X168595238Y-87262294D01*
X168595238Y-87262294D02*
X168671429Y-87262294D01*
X168671429Y-87262294D02*
X168785715Y-87224199D01*
X168785715Y-87224199D02*
X168861905Y-87148008D01*
X168861905Y-87148008D02*
X168900000Y-87071818D01*
X168900000Y-87071818D02*
X168938096Y-86919437D01*
X168938096Y-86919437D02*
X168938096Y-86805151D01*
X168938096Y-86805151D02*
X168900000Y-86652770D01*
X168900000Y-86652770D02*
X168861905Y-86576579D01*
X168861905Y-86576579D02*
X168785715Y-86500389D01*
X168785715Y-86500389D02*
X168671429Y-86462294D01*
X168671429Y-86462294D02*
X168595238Y-86462294D01*
X168595238Y-86462294D02*
X168480953Y-86500389D01*
X168480953Y-86500389D02*
X168442857Y-86538484D01*
X167680953Y-87262294D02*
X168138096Y-87262294D01*
X167909524Y-87262294D02*
X167909524Y-86462294D01*
X167909524Y-86462294D02*
X167985715Y-86576579D01*
X167985715Y-86576579D02*
X168061905Y-86652770D01*
X168061905Y-86652770D02*
X168138096Y-86690865D01*
X166957143Y-86462294D02*
X167338095Y-86462294D01*
X167338095Y-86462294D02*
X167376191Y-86843246D01*
X167376191Y-86843246D02*
X167338095Y-86805151D01*
X167338095Y-86805151D02*
X167261905Y-86767056D01*
X167261905Y-86767056D02*
X167071429Y-86767056D01*
X167071429Y-86767056D02*
X166995238Y-86805151D01*
X166995238Y-86805151D02*
X166957143Y-86843246D01*
X166957143Y-86843246D02*
X166919048Y-86919437D01*
X166919048Y-86919437D02*
X166919048Y-87109913D01*
X166919048Y-87109913D02*
X166957143Y-87186103D01*
X166957143Y-87186103D02*
X166995238Y-87224199D01*
X166995238Y-87224199D02*
X167071429Y-87262294D01*
X167071429Y-87262294D02*
X167261905Y-87262294D01*
X167261905Y-87262294D02*
X167338095Y-87224199D01*
X167338095Y-87224199D02*
X167376191Y-87186103D01*
X166538095Y-87224199D02*
X166538095Y-87262294D01*
X166538095Y-87262294D02*
X166576190Y-87338484D01*
X166576190Y-87338484D02*
X166614286Y-87376579D01*
X165738095Y-87186103D02*
X165776191Y-87224199D01*
X165776191Y-87224199D02*
X165890476Y-87262294D01*
X165890476Y-87262294D02*
X165966667Y-87262294D01*
X165966667Y-87262294D02*
X166080953Y-87224199D01*
X166080953Y-87224199D02*
X166157143Y-87148008D01*
X166157143Y-87148008D02*
X166195238Y-87071818D01*
X166195238Y-87071818D02*
X166233334Y-86919437D01*
X166233334Y-86919437D02*
X166233334Y-86805151D01*
X166233334Y-86805151D02*
X166195238Y-86652770D01*
X166195238Y-86652770D02*
X166157143Y-86576579D01*
X166157143Y-86576579D02*
X166080953Y-86500389D01*
X166080953Y-86500389D02*
X165966667Y-86462294D01*
X165966667Y-86462294D02*
X165890476Y-86462294D01*
X165890476Y-86462294D02*
X165776191Y-86500389D01*
X165776191Y-86500389D02*
X165738095Y-86538484D01*
X164976191Y-87262294D02*
X165433334Y-87262294D01*
X165204762Y-87262294D02*
X165204762Y-86462294D01*
X165204762Y-86462294D02*
X165280953Y-86576579D01*
X165280953Y-86576579D02*
X165357143Y-86652770D01*
X165357143Y-86652770D02*
X165433334Y-86690865D01*
X164290476Y-86462294D02*
X164442857Y-86462294D01*
X164442857Y-86462294D02*
X164519048Y-86500389D01*
X164519048Y-86500389D02*
X164557143Y-86538484D01*
X164557143Y-86538484D02*
X164633333Y-86652770D01*
X164633333Y-86652770D02*
X164671429Y-86805151D01*
X164671429Y-86805151D02*
X164671429Y-87109913D01*
X164671429Y-87109913D02*
X164633333Y-87186103D01*
X164633333Y-87186103D02*
X164595238Y-87224199D01*
X164595238Y-87224199D02*
X164519048Y-87262294D01*
X164519048Y-87262294D02*
X164366667Y-87262294D01*
X164366667Y-87262294D02*
X164290476Y-87224199D01*
X164290476Y-87224199D02*
X164252381Y-87186103D01*
X164252381Y-87186103D02*
X164214286Y-87109913D01*
X164214286Y-87109913D02*
X164214286Y-86919437D01*
X164214286Y-86919437D02*
X164252381Y-86843246D01*
X164252381Y-86843246D02*
X164290476Y-86805151D01*
X164290476Y-86805151D02*
X164366667Y-86767056D01*
X164366667Y-86767056D02*
X164519048Y-86767056D01*
X164519048Y-86767056D02*
X164595238Y-86805151D01*
X164595238Y-86805151D02*
X164633333Y-86843246D01*
X164633333Y-86843246D02*
X164671429Y-86919437D01*
X162233333Y-87262294D02*
X162690476Y-87262294D01*
X162461904Y-87262294D02*
X162461904Y-86462294D01*
X162461904Y-86462294D02*
X162538095Y-86576579D01*
X162538095Y-86576579D02*
X162614285Y-86652770D01*
X162614285Y-86652770D02*
X162690476Y-86690865D01*
X161776190Y-86805151D02*
X161852380Y-86767056D01*
X161852380Y-86767056D02*
X161890475Y-86728960D01*
X161890475Y-86728960D02*
X161928571Y-86652770D01*
X161928571Y-86652770D02*
X161928571Y-86614675D01*
X161928571Y-86614675D02*
X161890475Y-86538484D01*
X161890475Y-86538484D02*
X161852380Y-86500389D01*
X161852380Y-86500389D02*
X161776190Y-86462294D01*
X161776190Y-86462294D02*
X161623809Y-86462294D01*
X161623809Y-86462294D02*
X161547618Y-86500389D01*
X161547618Y-86500389D02*
X161509523Y-86538484D01*
X161509523Y-86538484D02*
X161471428Y-86614675D01*
X161471428Y-86614675D02*
X161471428Y-86652770D01*
X161471428Y-86652770D02*
X161509523Y-86728960D01*
X161509523Y-86728960D02*
X161547618Y-86767056D01*
X161547618Y-86767056D02*
X161623809Y-86805151D01*
X161623809Y-86805151D02*
X161776190Y-86805151D01*
X161776190Y-86805151D02*
X161852380Y-86843246D01*
X161852380Y-86843246D02*
X161890475Y-86881341D01*
X161890475Y-86881341D02*
X161928571Y-86957532D01*
X161928571Y-86957532D02*
X161928571Y-87109913D01*
X161928571Y-87109913D02*
X161890475Y-87186103D01*
X161890475Y-87186103D02*
X161852380Y-87224199D01*
X161852380Y-87224199D02*
X161776190Y-87262294D01*
X161776190Y-87262294D02*
X161623809Y-87262294D01*
X161623809Y-87262294D02*
X161547618Y-87224199D01*
X161547618Y-87224199D02*
X161509523Y-87186103D01*
X161509523Y-87186103D02*
X161471428Y-87109913D01*
X161471428Y-87109913D02*
X161471428Y-86957532D01*
X161471428Y-86957532D02*
X161509523Y-86881341D01*
X161509523Y-86881341D02*
X161547618Y-86843246D01*
X161547618Y-86843246D02*
X161623809Y-86805151D01*
X161128570Y-86728960D02*
X161128570Y-87528960D01*
X161128570Y-86767056D02*
X161052380Y-86728960D01*
X161052380Y-86728960D02*
X160899999Y-86728960D01*
X160899999Y-86728960D02*
X160823808Y-86767056D01*
X160823808Y-86767056D02*
X160785713Y-86805151D01*
X160785713Y-86805151D02*
X160747618Y-86881341D01*
X160747618Y-86881341D02*
X160747618Y-87109913D01*
X160747618Y-87109913D02*
X160785713Y-87186103D01*
X160785713Y-87186103D02*
X160823808Y-87224199D01*
X160823808Y-87224199D02*
X160899999Y-87262294D01*
X160899999Y-87262294D02*
X161052380Y-87262294D01*
X161052380Y-87262294D02*
X161128570Y-87224199D01*
X160138094Y-86843246D02*
X160404760Y-86843246D01*
X160404760Y-87262294D02*
X160404760Y-86462294D01*
X160404760Y-86462294D02*
X160023808Y-86462294D01*
X159776104Y-105486667D02*
X159814200Y-105448571D01*
X159814200Y-105448571D02*
X159852295Y-105334286D01*
X159852295Y-105334286D02*
X159852295Y-105258095D01*
X159852295Y-105258095D02*
X159814200Y-105143809D01*
X159814200Y-105143809D02*
X159738009Y-105067619D01*
X159738009Y-105067619D02*
X159661819Y-105029524D01*
X159661819Y-105029524D02*
X159509438Y-104991428D01*
X159509438Y-104991428D02*
X159395152Y-104991428D01*
X159395152Y-104991428D02*
X159242771Y-105029524D01*
X159242771Y-105029524D02*
X159166580Y-105067619D01*
X159166580Y-105067619D02*
X159090390Y-105143809D01*
X159090390Y-105143809D02*
X159052295Y-105258095D01*
X159052295Y-105258095D02*
X159052295Y-105334286D01*
X159052295Y-105334286D02*
X159090390Y-105448571D01*
X159090390Y-105448571D02*
X159128485Y-105486667D01*
X159128485Y-105791428D02*
X159090390Y-105829524D01*
X159090390Y-105829524D02*
X159052295Y-105905714D01*
X159052295Y-105905714D02*
X159052295Y-106096190D01*
X159052295Y-106096190D02*
X159090390Y-106172381D01*
X159090390Y-106172381D02*
X159128485Y-106210476D01*
X159128485Y-106210476D02*
X159204676Y-106248571D01*
X159204676Y-106248571D02*
X159280866Y-106248571D01*
X159280866Y-106248571D02*
X159395152Y-106210476D01*
X159395152Y-106210476D02*
X159852295Y-105753333D01*
X159852295Y-105753333D02*
X159852295Y-106248571D01*
X137101342Y-95999048D02*
X137482295Y-95999048D01*
X136682295Y-95732381D02*
X137101342Y-95999048D01*
X137101342Y-95999048D02*
X136682295Y-96265714D01*
X137482295Y-96951428D02*
X137482295Y-96494285D01*
X137482295Y-96722857D02*
X136682295Y-96722857D01*
X136682295Y-96722857D02*
X136796580Y-96646666D01*
X136796580Y-96646666D02*
X136872771Y-96570476D01*
X136872771Y-96570476D02*
X136910866Y-96494285D01*
X168546104Y-114625714D02*
X168584200Y-114587618D01*
X168584200Y-114587618D02*
X168622295Y-114473333D01*
X168622295Y-114473333D02*
X168622295Y-114397142D01*
X168622295Y-114397142D02*
X168584200Y-114282856D01*
X168584200Y-114282856D02*
X168508009Y-114206666D01*
X168508009Y-114206666D02*
X168431819Y-114168571D01*
X168431819Y-114168571D02*
X168279438Y-114130475D01*
X168279438Y-114130475D02*
X168165152Y-114130475D01*
X168165152Y-114130475D02*
X168012771Y-114168571D01*
X168012771Y-114168571D02*
X167936580Y-114206666D01*
X167936580Y-114206666D02*
X167860390Y-114282856D01*
X167860390Y-114282856D02*
X167822295Y-114397142D01*
X167822295Y-114397142D02*
X167822295Y-114473333D01*
X167822295Y-114473333D02*
X167860390Y-114587618D01*
X167860390Y-114587618D02*
X167898485Y-114625714D01*
X168622295Y-115387618D02*
X168622295Y-114930475D01*
X168622295Y-115159047D02*
X167822295Y-115159047D01*
X167822295Y-115159047D02*
X167936580Y-115082856D01*
X167936580Y-115082856D02*
X168012771Y-115006666D01*
X168012771Y-115006666D02*
X168050866Y-114930475D01*
X167822295Y-115882857D02*
X167822295Y-115959047D01*
X167822295Y-115959047D02*
X167860390Y-116035238D01*
X167860390Y-116035238D02*
X167898485Y-116073333D01*
X167898485Y-116073333D02*
X167974676Y-116111428D01*
X167974676Y-116111428D02*
X168127057Y-116149523D01*
X168127057Y-116149523D02*
X168317533Y-116149523D01*
X168317533Y-116149523D02*
X168469914Y-116111428D01*
X168469914Y-116111428D02*
X168546104Y-116073333D01*
X168546104Y-116073333D02*
X168584200Y-116035238D01*
X168584200Y-116035238D02*
X168622295Y-115959047D01*
X168622295Y-115959047D02*
X168622295Y-115882857D01*
X168622295Y-115882857D02*
X168584200Y-115806666D01*
X168584200Y-115806666D02*
X168546104Y-115768571D01*
X168546104Y-115768571D02*
X168469914Y-115730476D01*
X168469914Y-115730476D02*
X168317533Y-115692380D01*
X168317533Y-115692380D02*
X168127057Y-115692380D01*
X168127057Y-115692380D02*
X167974676Y-115730476D01*
X167974676Y-115730476D02*
X167898485Y-115768571D01*
X167898485Y-115768571D02*
X167860390Y-115806666D01*
X167860390Y-115806666D02*
X167822295Y-115882857D01*
X145286104Y-93795714D02*
X145324200Y-93757618D01*
X145324200Y-93757618D02*
X145362295Y-93643333D01*
X145362295Y-93643333D02*
X145362295Y-93567142D01*
X145362295Y-93567142D02*
X145324200Y-93452856D01*
X145324200Y-93452856D02*
X145248009Y-93376666D01*
X145248009Y-93376666D02*
X145171819Y-93338571D01*
X145171819Y-93338571D02*
X145019438Y-93300475D01*
X145019438Y-93300475D02*
X144905152Y-93300475D01*
X144905152Y-93300475D02*
X144752771Y-93338571D01*
X144752771Y-93338571D02*
X144676580Y-93376666D01*
X144676580Y-93376666D02*
X144600390Y-93452856D01*
X144600390Y-93452856D02*
X144562295Y-93567142D01*
X144562295Y-93567142D02*
X144562295Y-93643333D01*
X144562295Y-93643333D02*
X144600390Y-93757618D01*
X144600390Y-93757618D02*
X144638485Y-93795714D01*
X145362295Y-94557618D02*
X145362295Y-94100475D01*
X145362295Y-94329047D02*
X144562295Y-94329047D01*
X144562295Y-94329047D02*
X144676580Y-94252856D01*
X144676580Y-94252856D02*
X144752771Y-94176666D01*
X144752771Y-94176666D02*
X144790866Y-94100475D01*
X144828961Y-95243333D02*
X145362295Y-95243333D01*
X144524200Y-95052857D02*
X145095628Y-94862380D01*
X145095628Y-94862380D02*
X145095628Y-95357619D01*
X145126104Y-83725714D02*
X145164200Y-83687618D01*
X145164200Y-83687618D02*
X145202295Y-83573333D01*
X145202295Y-83573333D02*
X145202295Y-83497142D01*
X145202295Y-83497142D02*
X145164200Y-83382856D01*
X145164200Y-83382856D02*
X145088009Y-83306666D01*
X145088009Y-83306666D02*
X145011819Y-83268571D01*
X145011819Y-83268571D02*
X144859438Y-83230475D01*
X144859438Y-83230475D02*
X144745152Y-83230475D01*
X144745152Y-83230475D02*
X144592771Y-83268571D01*
X144592771Y-83268571D02*
X144516580Y-83306666D01*
X144516580Y-83306666D02*
X144440390Y-83382856D01*
X144440390Y-83382856D02*
X144402295Y-83497142D01*
X144402295Y-83497142D02*
X144402295Y-83573333D01*
X144402295Y-83573333D02*
X144440390Y-83687618D01*
X144440390Y-83687618D02*
X144478485Y-83725714D01*
X145202295Y-84487618D02*
X145202295Y-84030475D01*
X145202295Y-84259047D02*
X144402295Y-84259047D01*
X144402295Y-84259047D02*
X144516580Y-84182856D01*
X144516580Y-84182856D02*
X144592771Y-84106666D01*
X144592771Y-84106666D02*
X144630866Y-84030475D01*
X144402295Y-85211428D02*
X144402295Y-84830476D01*
X144402295Y-84830476D02*
X144783247Y-84792380D01*
X144783247Y-84792380D02*
X144745152Y-84830476D01*
X144745152Y-84830476D02*
X144707057Y-84906666D01*
X144707057Y-84906666D02*
X144707057Y-85097142D01*
X144707057Y-85097142D02*
X144745152Y-85173333D01*
X144745152Y-85173333D02*
X144783247Y-85211428D01*
X144783247Y-85211428D02*
X144859438Y-85249523D01*
X144859438Y-85249523D02*
X145049914Y-85249523D01*
X145049914Y-85249523D02*
X145126104Y-85211428D01*
X145126104Y-85211428D02*
X145164200Y-85173333D01*
X145164200Y-85173333D02*
X145202295Y-85097142D01*
X145202295Y-85097142D02*
X145202295Y-84906666D01*
X145202295Y-84906666D02*
X145164200Y-84830476D01*
X145164200Y-84830476D02*
X145126104Y-84792380D01*
X143730528Y-89563143D02*
X143768624Y-89601239D01*
X143768624Y-89601239D02*
X143882909Y-89639334D01*
X143882909Y-89639334D02*
X143959100Y-89639334D01*
X143959100Y-89639334D02*
X144073386Y-89601239D01*
X144073386Y-89601239D02*
X144149576Y-89525048D01*
X144149576Y-89525048D02*
X144187671Y-89448858D01*
X144187671Y-89448858D02*
X144225767Y-89296477D01*
X144225767Y-89296477D02*
X144225767Y-89182191D01*
X144225767Y-89182191D02*
X144187671Y-89029810D01*
X144187671Y-89029810D02*
X144149576Y-88953619D01*
X144149576Y-88953619D02*
X144073386Y-88877429D01*
X144073386Y-88877429D02*
X143959100Y-88839334D01*
X143959100Y-88839334D02*
X143882909Y-88839334D01*
X143882909Y-88839334D02*
X143768624Y-88877429D01*
X143768624Y-88877429D02*
X143730528Y-88915524D01*
X142968624Y-89639334D02*
X143425767Y-89639334D01*
X143197195Y-89639334D02*
X143197195Y-88839334D01*
X143197195Y-88839334D02*
X143273386Y-88953619D01*
X143273386Y-88953619D02*
X143349576Y-89029810D01*
X143349576Y-89029810D02*
X143425767Y-89067905D01*
X142701957Y-88839334D02*
X142206719Y-88839334D01*
X142206719Y-88839334D02*
X142473385Y-89144096D01*
X142473385Y-89144096D02*
X142359100Y-89144096D01*
X142359100Y-89144096D02*
X142282909Y-89182191D01*
X142282909Y-89182191D02*
X142244814Y-89220286D01*
X142244814Y-89220286D02*
X142206719Y-89296477D01*
X142206719Y-89296477D02*
X142206719Y-89486953D01*
X142206719Y-89486953D02*
X142244814Y-89563143D01*
X142244814Y-89563143D02*
X142282909Y-89601239D01*
X142282909Y-89601239D02*
X142359100Y-89639334D01*
X142359100Y-89639334D02*
X142587671Y-89639334D01*
X142587671Y-89639334D02*
X142663862Y-89601239D01*
X142663862Y-89601239D02*
X142701957Y-89563143D01*
X124094285Y-91786104D02*
X124132381Y-91824200D01*
X124132381Y-91824200D02*
X124246666Y-91862295D01*
X124246666Y-91862295D02*
X124322857Y-91862295D01*
X124322857Y-91862295D02*
X124437143Y-91824200D01*
X124437143Y-91824200D02*
X124513333Y-91748009D01*
X124513333Y-91748009D02*
X124551428Y-91671819D01*
X124551428Y-91671819D02*
X124589524Y-91519438D01*
X124589524Y-91519438D02*
X124589524Y-91405152D01*
X124589524Y-91405152D02*
X124551428Y-91252771D01*
X124551428Y-91252771D02*
X124513333Y-91176580D01*
X124513333Y-91176580D02*
X124437143Y-91100390D01*
X124437143Y-91100390D02*
X124322857Y-91062295D01*
X124322857Y-91062295D02*
X124246666Y-91062295D01*
X124246666Y-91062295D02*
X124132381Y-91100390D01*
X124132381Y-91100390D02*
X124094285Y-91138485D01*
X123332381Y-91862295D02*
X123789524Y-91862295D01*
X123560952Y-91862295D02*
X123560952Y-91062295D01*
X123560952Y-91062295D02*
X123637143Y-91176580D01*
X123637143Y-91176580D02*
X123713333Y-91252771D01*
X123713333Y-91252771D02*
X123789524Y-91290866D01*
X123065714Y-91062295D02*
X122532380Y-91062295D01*
X122532380Y-91062295D02*
X122875238Y-91862295D01*
X188126104Y-109366667D02*
X188164200Y-109328571D01*
X188164200Y-109328571D02*
X188202295Y-109214286D01*
X188202295Y-109214286D02*
X188202295Y-109138095D01*
X188202295Y-109138095D02*
X188164200Y-109023809D01*
X188164200Y-109023809D02*
X188088009Y-108947619D01*
X188088009Y-108947619D02*
X188011819Y-108909524D01*
X188011819Y-108909524D02*
X187859438Y-108871428D01*
X187859438Y-108871428D02*
X187745152Y-108871428D01*
X187745152Y-108871428D02*
X187592771Y-108909524D01*
X187592771Y-108909524D02*
X187516580Y-108947619D01*
X187516580Y-108947619D02*
X187440390Y-109023809D01*
X187440390Y-109023809D02*
X187402295Y-109138095D01*
X187402295Y-109138095D02*
X187402295Y-109214286D01*
X187402295Y-109214286D02*
X187440390Y-109328571D01*
X187440390Y-109328571D02*
X187478485Y-109366667D01*
X187402295Y-109633333D02*
X187402295Y-110166667D01*
X187402295Y-110166667D02*
X188202295Y-109823809D01*
X162906104Y-114816667D02*
X162944200Y-114778571D01*
X162944200Y-114778571D02*
X162982295Y-114664286D01*
X162982295Y-114664286D02*
X162982295Y-114588095D01*
X162982295Y-114588095D02*
X162944200Y-114473809D01*
X162944200Y-114473809D02*
X162868009Y-114397619D01*
X162868009Y-114397619D02*
X162791819Y-114359524D01*
X162791819Y-114359524D02*
X162639438Y-114321428D01*
X162639438Y-114321428D02*
X162525152Y-114321428D01*
X162525152Y-114321428D02*
X162372771Y-114359524D01*
X162372771Y-114359524D02*
X162296580Y-114397619D01*
X162296580Y-114397619D02*
X162220390Y-114473809D01*
X162220390Y-114473809D02*
X162182295Y-114588095D01*
X162182295Y-114588095D02*
X162182295Y-114664286D01*
X162182295Y-114664286D02*
X162220390Y-114778571D01*
X162220390Y-114778571D02*
X162258485Y-114816667D01*
X162982295Y-115197619D02*
X162982295Y-115350000D01*
X162982295Y-115350000D02*
X162944200Y-115426190D01*
X162944200Y-115426190D02*
X162906104Y-115464286D01*
X162906104Y-115464286D02*
X162791819Y-115540476D01*
X162791819Y-115540476D02*
X162639438Y-115578571D01*
X162639438Y-115578571D02*
X162334676Y-115578571D01*
X162334676Y-115578571D02*
X162258485Y-115540476D01*
X162258485Y-115540476D02*
X162220390Y-115502381D01*
X162220390Y-115502381D02*
X162182295Y-115426190D01*
X162182295Y-115426190D02*
X162182295Y-115273809D01*
X162182295Y-115273809D02*
X162220390Y-115197619D01*
X162220390Y-115197619D02*
X162258485Y-115159524D01*
X162258485Y-115159524D02*
X162334676Y-115121428D01*
X162334676Y-115121428D02*
X162525152Y-115121428D01*
X162525152Y-115121428D02*
X162601342Y-115159524D01*
X162601342Y-115159524D02*
X162639438Y-115197619D01*
X162639438Y-115197619D02*
X162677533Y-115273809D01*
X162677533Y-115273809D02*
X162677533Y-115426190D01*
X162677533Y-115426190D02*
X162639438Y-115502381D01*
X162639438Y-115502381D02*
X162601342Y-115540476D01*
X162601342Y-115540476D02*
X162525152Y-115578571D01*
X144015530Y-106994380D02*
X144053626Y-107032476D01*
X144053626Y-107032476D02*
X144167911Y-107070571D01*
X144167911Y-107070571D02*
X144244102Y-107070571D01*
X144244102Y-107070571D02*
X144358388Y-107032476D01*
X144358388Y-107032476D02*
X144434578Y-106956285D01*
X144434578Y-106956285D02*
X144472673Y-106880095D01*
X144472673Y-106880095D02*
X144510769Y-106727714D01*
X144510769Y-106727714D02*
X144510769Y-106613428D01*
X144510769Y-106613428D02*
X144472673Y-106461047D01*
X144472673Y-106461047D02*
X144434578Y-106384856D01*
X144434578Y-106384856D02*
X144358388Y-106308666D01*
X144358388Y-106308666D02*
X144244102Y-106270571D01*
X144244102Y-106270571D02*
X144167911Y-106270571D01*
X144167911Y-106270571D02*
X144053626Y-106308666D01*
X144053626Y-106308666D02*
X144015530Y-106346761D01*
X143253626Y-107070571D02*
X143710769Y-107070571D01*
X143482197Y-107070571D02*
X143482197Y-106270571D01*
X143482197Y-106270571D02*
X143558388Y-106384856D01*
X143558388Y-106384856D02*
X143634578Y-106461047D01*
X143634578Y-106461047D02*
X143710769Y-106499142D01*
X140498128Y-91137841D02*
X140536224Y-91175937D01*
X140536224Y-91175937D02*
X140650509Y-91214032D01*
X140650509Y-91214032D02*
X140726700Y-91214032D01*
X140726700Y-91214032D02*
X140840986Y-91175937D01*
X140840986Y-91175937D02*
X140917176Y-91099746D01*
X140917176Y-91099746D02*
X140955271Y-91023556D01*
X140955271Y-91023556D02*
X140993367Y-90871175D01*
X140993367Y-90871175D02*
X140993367Y-90756889D01*
X140993367Y-90756889D02*
X140955271Y-90604508D01*
X140955271Y-90604508D02*
X140917176Y-90528317D01*
X140917176Y-90528317D02*
X140840986Y-90452127D01*
X140840986Y-90452127D02*
X140726700Y-90414032D01*
X140726700Y-90414032D02*
X140650509Y-90414032D01*
X140650509Y-90414032D02*
X140536224Y-90452127D01*
X140536224Y-90452127D02*
X140498128Y-90490222D01*
X139812414Y-90680698D02*
X139812414Y-91214032D01*
X140002890Y-90375937D02*
X140193367Y-90947365D01*
X140193367Y-90947365D02*
X139698128Y-90947365D01*
X162352295Y-109626667D02*
X161971342Y-109360000D01*
X162352295Y-109169524D02*
X161552295Y-109169524D01*
X161552295Y-109169524D02*
X161552295Y-109474286D01*
X161552295Y-109474286D02*
X161590390Y-109550476D01*
X161590390Y-109550476D02*
X161628485Y-109588571D01*
X161628485Y-109588571D02*
X161704676Y-109626667D01*
X161704676Y-109626667D02*
X161818961Y-109626667D01*
X161818961Y-109626667D02*
X161895152Y-109588571D01*
X161895152Y-109588571D02*
X161933247Y-109550476D01*
X161933247Y-109550476D02*
X161971342Y-109474286D01*
X161971342Y-109474286D02*
X161971342Y-109169524D01*
X161552295Y-109893333D02*
X161552295Y-110388571D01*
X161552295Y-110388571D02*
X161857057Y-110121905D01*
X161857057Y-110121905D02*
X161857057Y-110236190D01*
X161857057Y-110236190D02*
X161895152Y-110312381D01*
X161895152Y-110312381D02*
X161933247Y-110350476D01*
X161933247Y-110350476D02*
X162009438Y-110388571D01*
X162009438Y-110388571D02*
X162199914Y-110388571D01*
X162199914Y-110388571D02*
X162276104Y-110350476D01*
X162276104Y-110350476D02*
X162314200Y-110312381D01*
X162314200Y-110312381D02*
X162352295Y-110236190D01*
X162352295Y-110236190D02*
X162352295Y-110007619D01*
X162352295Y-110007619D02*
X162314200Y-109931428D01*
X162314200Y-109931428D02*
X162276104Y-109893333D01*
X188066104Y-112866667D02*
X188104200Y-112828571D01*
X188104200Y-112828571D02*
X188142295Y-112714286D01*
X188142295Y-112714286D02*
X188142295Y-112638095D01*
X188142295Y-112638095D02*
X188104200Y-112523809D01*
X188104200Y-112523809D02*
X188028009Y-112447619D01*
X188028009Y-112447619D02*
X187951819Y-112409524D01*
X187951819Y-112409524D02*
X187799438Y-112371428D01*
X187799438Y-112371428D02*
X187685152Y-112371428D01*
X187685152Y-112371428D02*
X187532771Y-112409524D01*
X187532771Y-112409524D02*
X187456580Y-112447619D01*
X187456580Y-112447619D02*
X187380390Y-112523809D01*
X187380390Y-112523809D02*
X187342295Y-112638095D01*
X187342295Y-112638095D02*
X187342295Y-112714286D01*
X187342295Y-112714286D02*
X187380390Y-112828571D01*
X187380390Y-112828571D02*
X187418485Y-112866667D01*
X187685152Y-113323809D02*
X187647057Y-113247619D01*
X187647057Y-113247619D02*
X187608961Y-113209524D01*
X187608961Y-113209524D02*
X187532771Y-113171428D01*
X187532771Y-113171428D02*
X187494676Y-113171428D01*
X187494676Y-113171428D02*
X187418485Y-113209524D01*
X187418485Y-113209524D02*
X187380390Y-113247619D01*
X187380390Y-113247619D02*
X187342295Y-113323809D01*
X187342295Y-113323809D02*
X187342295Y-113476190D01*
X187342295Y-113476190D02*
X187380390Y-113552381D01*
X187380390Y-113552381D02*
X187418485Y-113590476D01*
X187418485Y-113590476D02*
X187494676Y-113628571D01*
X187494676Y-113628571D02*
X187532771Y-113628571D01*
X187532771Y-113628571D02*
X187608961Y-113590476D01*
X187608961Y-113590476D02*
X187647057Y-113552381D01*
X187647057Y-113552381D02*
X187685152Y-113476190D01*
X187685152Y-113476190D02*
X187685152Y-113323809D01*
X187685152Y-113323809D02*
X187723247Y-113247619D01*
X187723247Y-113247619D02*
X187761342Y-113209524D01*
X187761342Y-113209524D02*
X187837533Y-113171428D01*
X187837533Y-113171428D02*
X187989914Y-113171428D01*
X187989914Y-113171428D02*
X188066104Y-113209524D01*
X188066104Y-113209524D02*
X188104200Y-113247619D01*
X188104200Y-113247619D02*
X188142295Y-113323809D01*
X188142295Y-113323809D02*
X188142295Y-113476190D01*
X188142295Y-113476190D02*
X188104200Y-113552381D01*
X188104200Y-113552381D02*
X188066104Y-113590476D01*
X188066104Y-113590476D02*
X187989914Y-113628571D01*
X187989914Y-113628571D02*
X187837533Y-113628571D01*
X187837533Y-113628571D02*
X187761342Y-113590476D01*
X187761342Y-113590476D02*
X187723247Y-113552381D01*
X187723247Y-113552381D02*
X187685152Y-113476190D01*
X187582295Y-104430476D02*
X188229914Y-104430476D01*
X188229914Y-104430476D02*
X188306104Y-104468571D01*
X188306104Y-104468571D02*
X188344200Y-104506666D01*
X188344200Y-104506666D02*
X188382295Y-104582857D01*
X188382295Y-104582857D02*
X188382295Y-104735238D01*
X188382295Y-104735238D02*
X188344200Y-104811428D01*
X188344200Y-104811428D02*
X188306104Y-104849523D01*
X188306104Y-104849523D02*
X188229914Y-104887619D01*
X188229914Y-104887619D02*
X187582295Y-104887619D01*
X187658485Y-105230475D02*
X187620390Y-105268571D01*
X187620390Y-105268571D02*
X187582295Y-105344761D01*
X187582295Y-105344761D02*
X187582295Y-105535237D01*
X187582295Y-105535237D02*
X187620390Y-105611428D01*
X187620390Y-105611428D02*
X187658485Y-105649523D01*
X187658485Y-105649523D02*
X187734676Y-105687618D01*
X187734676Y-105687618D02*
X187810866Y-105687618D01*
X187810866Y-105687618D02*
X187925152Y-105649523D01*
X187925152Y-105649523D02*
X188382295Y-105192380D01*
X188382295Y-105192380D02*
X188382295Y-105687618D01*
X185292295Y-90326667D02*
X184911342Y-90060000D01*
X185292295Y-89869524D02*
X184492295Y-89869524D01*
X184492295Y-89869524D02*
X184492295Y-90174286D01*
X184492295Y-90174286D02*
X184530390Y-90250476D01*
X184530390Y-90250476D02*
X184568485Y-90288571D01*
X184568485Y-90288571D02*
X184644676Y-90326667D01*
X184644676Y-90326667D02*
X184758961Y-90326667D01*
X184758961Y-90326667D02*
X184835152Y-90288571D01*
X184835152Y-90288571D02*
X184873247Y-90250476D01*
X184873247Y-90250476D02*
X184911342Y-90174286D01*
X184911342Y-90174286D02*
X184911342Y-89869524D01*
X184568485Y-90631428D02*
X184530390Y-90669524D01*
X184530390Y-90669524D02*
X184492295Y-90745714D01*
X184492295Y-90745714D02*
X184492295Y-90936190D01*
X184492295Y-90936190D02*
X184530390Y-91012381D01*
X184530390Y-91012381D02*
X184568485Y-91050476D01*
X184568485Y-91050476D02*
X184644676Y-91088571D01*
X184644676Y-91088571D02*
X184720866Y-91088571D01*
X184720866Y-91088571D02*
X184835152Y-91050476D01*
X184835152Y-91050476D02*
X185292295Y-90593333D01*
X185292295Y-90593333D02*
X185292295Y-91088571D01*
X185252295Y-93416667D02*
X184871342Y-93150000D01*
X185252295Y-92959524D02*
X184452295Y-92959524D01*
X184452295Y-92959524D02*
X184452295Y-93264286D01*
X184452295Y-93264286D02*
X184490390Y-93340476D01*
X184490390Y-93340476D02*
X184528485Y-93378571D01*
X184528485Y-93378571D02*
X184604676Y-93416667D01*
X184604676Y-93416667D02*
X184718961Y-93416667D01*
X184718961Y-93416667D02*
X184795152Y-93378571D01*
X184795152Y-93378571D02*
X184833247Y-93340476D01*
X184833247Y-93340476D02*
X184871342Y-93264286D01*
X184871342Y-93264286D02*
X184871342Y-92959524D01*
X185252295Y-94178571D02*
X185252295Y-93721428D01*
X185252295Y-93950000D02*
X184452295Y-93950000D01*
X184452295Y-93950000D02*
X184566580Y-93873809D01*
X184566580Y-93873809D02*
X184642771Y-93797619D01*
X184642771Y-93797619D02*
X184680866Y-93721428D01*
X137151342Y-82949048D02*
X137532295Y-82949048D01*
X136732295Y-82682381D02*
X137151342Y-82949048D01*
X137151342Y-82949048D02*
X136732295Y-83215714D01*
X136808485Y-83444285D02*
X136770390Y-83482381D01*
X136770390Y-83482381D02*
X136732295Y-83558571D01*
X136732295Y-83558571D02*
X136732295Y-83749047D01*
X136732295Y-83749047D02*
X136770390Y-83825238D01*
X136770390Y-83825238D02*
X136808485Y-83863333D01*
X136808485Y-83863333D02*
X136884676Y-83901428D01*
X136884676Y-83901428D02*
X136960866Y-83901428D01*
X136960866Y-83901428D02*
X137075152Y-83863333D01*
X137075152Y-83863333D02*
X137532295Y-83406190D01*
X137532295Y-83406190D02*
X137532295Y-83901428D01*
X140232881Y-110412953D02*
X140270977Y-110451049D01*
X140270977Y-110451049D02*
X140385262Y-110489144D01*
X140385262Y-110489144D02*
X140461453Y-110489144D01*
X140461453Y-110489144D02*
X140575739Y-110451049D01*
X140575739Y-110451049D02*
X140651929Y-110374858D01*
X140651929Y-110374858D02*
X140690024Y-110298668D01*
X140690024Y-110298668D02*
X140728120Y-110146287D01*
X140728120Y-110146287D02*
X140728120Y-110032001D01*
X140728120Y-110032001D02*
X140690024Y-109879620D01*
X140690024Y-109879620D02*
X140651929Y-109803429D01*
X140651929Y-109803429D02*
X140575739Y-109727239D01*
X140575739Y-109727239D02*
X140461453Y-109689144D01*
X140461453Y-109689144D02*
X140385262Y-109689144D01*
X140385262Y-109689144D02*
X140270977Y-109727239D01*
X140270977Y-109727239D02*
X140232881Y-109765334D01*
X139509072Y-109689144D02*
X139890024Y-109689144D01*
X139890024Y-109689144D02*
X139928120Y-110070096D01*
X139928120Y-110070096D02*
X139890024Y-110032001D01*
X139890024Y-110032001D02*
X139813834Y-109993906D01*
X139813834Y-109993906D02*
X139623358Y-109993906D01*
X139623358Y-109993906D02*
X139547167Y-110032001D01*
X139547167Y-110032001D02*
X139509072Y-110070096D01*
X139509072Y-110070096D02*
X139470977Y-110146287D01*
X139470977Y-110146287D02*
X139470977Y-110336763D01*
X139470977Y-110336763D02*
X139509072Y-110412953D01*
X139509072Y-110412953D02*
X139547167Y-110451049D01*
X139547167Y-110451049D02*
X139623358Y-110489144D01*
X139623358Y-110489144D02*
X139813834Y-110489144D01*
X139813834Y-110489144D02*
X139890024Y-110451049D01*
X139890024Y-110451049D02*
X139928120Y-110412953D01*
X187541104Y-116366667D02*
X187579200Y-116328571D01*
X187579200Y-116328571D02*
X187617295Y-116214286D01*
X187617295Y-116214286D02*
X187617295Y-116138095D01*
X187617295Y-116138095D02*
X187579200Y-116023809D01*
X187579200Y-116023809D02*
X187503009Y-115947619D01*
X187503009Y-115947619D02*
X187426819Y-115909524D01*
X187426819Y-115909524D02*
X187274438Y-115871428D01*
X187274438Y-115871428D02*
X187160152Y-115871428D01*
X187160152Y-115871428D02*
X187007771Y-115909524D01*
X187007771Y-115909524D02*
X186931580Y-115947619D01*
X186931580Y-115947619D02*
X186855390Y-116023809D01*
X186855390Y-116023809D02*
X186817295Y-116138095D01*
X186817295Y-116138095D02*
X186817295Y-116214286D01*
X186817295Y-116214286D02*
X186855390Y-116328571D01*
X186855390Y-116328571D02*
X186893485Y-116366667D01*
X186817295Y-117052381D02*
X186817295Y-116900000D01*
X186817295Y-116900000D02*
X186855390Y-116823809D01*
X186855390Y-116823809D02*
X186893485Y-116785714D01*
X186893485Y-116785714D02*
X187007771Y-116709524D01*
X187007771Y-116709524D02*
X187160152Y-116671428D01*
X187160152Y-116671428D02*
X187464914Y-116671428D01*
X187464914Y-116671428D02*
X187541104Y-116709524D01*
X187541104Y-116709524D02*
X187579200Y-116747619D01*
X187579200Y-116747619D02*
X187617295Y-116823809D01*
X187617295Y-116823809D02*
X187617295Y-116976190D01*
X187617295Y-116976190D02*
X187579200Y-117052381D01*
X187579200Y-117052381D02*
X187541104Y-117090476D01*
X187541104Y-117090476D02*
X187464914Y-117128571D01*
X187464914Y-117128571D02*
X187274438Y-117128571D01*
X187274438Y-117128571D02*
X187198247Y-117090476D01*
X187198247Y-117090476D02*
X187160152Y-117052381D01*
X187160152Y-117052381D02*
X187122057Y-116976190D01*
X187122057Y-116976190D02*
X187122057Y-116823809D01*
X187122057Y-116823809D02*
X187160152Y-116747619D01*
X187160152Y-116747619D02*
X187198247Y-116709524D01*
X187198247Y-116709524D02*
X187274438Y-116671428D01*
X145246104Y-86655714D02*
X145284200Y-86617618D01*
X145284200Y-86617618D02*
X145322295Y-86503333D01*
X145322295Y-86503333D02*
X145322295Y-86427142D01*
X145322295Y-86427142D02*
X145284200Y-86312856D01*
X145284200Y-86312856D02*
X145208009Y-86236666D01*
X145208009Y-86236666D02*
X145131819Y-86198571D01*
X145131819Y-86198571D02*
X144979438Y-86160475D01*
X144979438Y-86160475D02*
X144865152Y-86160475D01*
X144865152Y-86160475D02*
X144712771Y-86198571D01*
X144712771Y-86198571D02*
X144636580Y-86236666D01*
X144636580Y-86236666D02*
X144560390Y-86312856D01*
X144560390Y-86312856D02*
X144522295Y-86427142D01*
X144522295Y-86427142D02*
X144522295Y-86503333D01*
X144522295Y-86503333D02*
X144560390Y-86617618D01*
X144560390Y-86617618D02*
X144598485Y-86655714D01*
X145322295Y-87417618D02*
X145322295Y-86960475D01*
X145322295Y-87189047D02*
X144522295Y-87189047D01*
X144522295Y-87189047D02*
X144636580Y-87112856D01*
X144636580Y-87112856D02*
X144712771Y-87036666D01*
X144712771Y-87036666D02*
X144750866Y-86960475D01*
X144522295Y-88103333D02*
X144522295Y-87950952D01*
X144522295Y-87950952D02*
X144560390Y-87874761D01*
X144560390Y-87874761D02*
X144598485Y-87836666D01*
X144598485Y-87836666D02*
X144712771Y-87760476D01*
X144712771Y-87760476D02*
X144865152Y-87722380D01*
X144865152Y-87722380D02*
X145169914Y-87722380D01*
X145169914Y-87722380D02*
X145246104Y-87760476D01*
X145246104Y-87760476D02*
X145284200Y-87798571D01*
X145284200Y-87798571D02*
X145322295Y-87874761D01*
X145322295Y-87874761D02*
X145322295Y-88027142D01*
X145322295Y-88027142D02*
X145284200Y-88103333D01*
X145284200Y-88103333D02*
X145246104Y-88141428D01*
X145246104Y-88141428D02*
X145169914Y-88179523D01*
X145169914Y-88179523D02*
X144979438Y-88179523D01*
X144979438Y-88179523D02*
X144903247Y-88141428D01*
X144903247Y-88141428D02*
X144865152Y-88103333D01*
X144865152Y-88103333D02*
X144827057Y-88027142D01*
X144827057Y-88027142D02*
X144827057Y-87874761D01*
X144827057Y-87874761D02*
X144865152Y-87798571D01*
X144865152Y-87798571D02*
X144903247Y-87760476D01*
X144903247Y-87760476D02*
X144979438Y-87722380D01*
X156583332Y-93956104D02*
X156621428Y-93994200D01*
X156621428Y-93994200D02*
X156735713Y-94032295D01*
X156735713Y-94032295D02*
X156811904Y-94032295D01*
X156811904Y-94032295D02*
X156926190Y-93994200D01*
X156926190Y-93994200D02*
X157002380Y-93918009D01*
X157002380Y-93918009D02*
X157040475Y-93841819D01*
X157040475Y-93841819D02*
X157078571Y-93689438D01*
X157078571Y-93689438D02*
X157078571Y-93575152D01*
X157078571Y-93575152D02*
X157040475Y-93422771D01*
X157040475Y-93422771D02*
X157002380Y-93346580D01*
X157002380Y-93346580D02*
X156926190Y-93270390D01*
X156926190Y-93270390D02*
X156811904Y-93232295D01*
X156811904Y-93232295D02*
X156735713Y-93232295D01*
X156735713Y-93232295D02*
X156621428Y-93270390D01*
X156621428Y-93270390D02*
X156583332Y-93308485D01*
X156316666Y-93232295D02*
X155821428Y-93232295D01*
X155821428Y-93232295D02*
X156088094Y-93537057D01*
X156088094Y-93537057D02*
X155973809Y-93537057D01*
X155973809Y-93537057D02*
X155897618Y-93575152D01*
X155897618Y-93575152D02*
X155859523Y-93613247D01*
X155859523Y-93613247D02*
X155821428Y-93689438D01*
X155821428Y-93689438D02*
X155821428Y-93879914D01*
X155821428Y-93879914D02*
X155859523Y-93956104D01*
X155859523Y-93956104D02*
X155897618Y-93994200D01*
X155897618Y-93994200D02*
X155973809Y-94032295D01*
X155973809Y-94032295D02*
X156202380Y-94032295D01*
X156202380Y-94032295D02*
X156278571Y-93994200D01*
X156278571Y-93994200D02*
X156316666Y-93956104D01*
%TO.C,C2*%
D11*
X157569190Y-108078307D02*
X157721693Y-108230810D01*
X158078307Y-107569190D02*
X158230810Y-107721693D01*
%TO.C,Y1*%
X135340000Y-89330000D02*
X138940000Y-89330000D01*
X135340000Y-95080000D02*
X135340000Y-89330000D01*
X138940000Y-89330000D02*
X138940000Y-95080000D01*
%TO.C,C10*%
X166139970Y-116861219D02*
X166338781Y-117060030D01*
X166861219Y-116139970D02*
X167060030Y-116338781D01*
%TO.C,C14*%
X143032164Y-93870000D02*
X143247836Y-93870000D01*
X143032164Y-94590000D02*
X143247836Y-94590000D01*
%TO.C,C15*%
X143032164Y-84490000D02*
X143247836Y-84490000D01*
X143032164Y-85210000D02*
X143247836Y-85210000D01*
%TO.C,C13*%
X143032164Y-90170000D02*
X143247836Y-90170000D01*
X143032164Y-90890000D02*
X143247836Y-90890000D01*
%TO.C,C17*%
X124307836Y-92640000D02*
X124092164Y-92640000D01*
X124307836Y-93360000D02*
X124092164Y-93360000D01*
%TO.C,C7*%
X184738748Y-108765000D02*
X185261252Y-108765000D01*
X184738748Y-110235000D02*
X185261252Y-110235000D01*
%TO.C,C9*%
X163469190Y-113978307D02*
X163621693Y-114130810D01*
X163978307Y-113469190D02*
X164130810Y-113621693D01*
%TO.C,C1*%
X141769190Y-107721693D02*
X141921693Y-107569190D01*
X142278307Y-108230810D02*
X142430810Y-108078307D01*
%TO.C,C4*%
X141769190Y-92278307D02*
X141921693Y-92430810D01*
X142278307Y-91769190D02*
X142430810Y-91921693D01*
%TO.C,R3*%
X161039940Y-111577341D02*
X160822659Y-111360060D01*
X161577341Y-111039940D02*
X161360060Y-110822659D01*
%TO.C,C8*%
X184738748Y-112265000D02*
X185261252Y-112265000D01*
X184738748Y-113735000D02*
X185261252Y-113735000D01*
%TO.C,U2*%
X185000000Y-103740000D02*
X184200000Y-103740000D01*
X185000000Y-103740000D02*
X185800000Y-103740000D01*
X185000000Y-106860000D02*
X184200000Y-106860000D01*
X185000000Y-106860000D02*
X185800000Y-106860000D01*
X183700000Y-106810000D02*
X183460000Y-107140000D01*
X183940000Y-107140000D01*
X183700000Y-106810000D01*
G36*
X183940000Y-107140000D02*
G01*
X183460000Y-107140000D01*
X183700000Y-106810000D01*
X183940000Y-107140000D01*
G37*
%TO.C,R2*%
X186446359Y-90170000D02*
X186753641Y-90170000D01*
X186446359Y-90930000D02*
X186753641Y-90930000D01*
%TO.C,R1*%
X186446359Y-93170000D02*
X186753641Y-93170000D01*
X186446359Y-93930000D02*
X186753641Y-93930000D01*
%TO.C,Y2*%
X136190000Y-85550000D02*
X136190000Y-86650000D01*
X136240000Y-84150000D02*
X138040000Y-84150000D01*
X138090000Y-85550000D02*
X138090000Y-86650000D01*
%TO.C,C5*%
X137665010Y-111295543D02*
X137295543Y-111665010D01*
X138704457Y-112334990D02*
X138334990Y-112704457D01*
%TO.C,C6*%
X184859420Y-115990000D02*
X185140580Y-115990000D01*
X184859420Y-117010000D02*
X185140580Y-117010000D01*
%TO.C,C16*%
X143032164Y-86990000D02*
X143247836Y-86990000D01*
X143032164Y-87710000D02*
X143247836Y-87710000D01*
%TO.C,C3*%
X157569190Y-91921693D02*
X157721693Y-91769190D01*
X158078307Y-92430810D02*
X158230810Y-92278307D01*
%TD*%
M02*
