M48
; DRILL file {KiCad 7.0.11+dfsg-1build4} date Mon Aug 17 02:04:30 2026
; FORMAT={-:-/ absolute / metric / decimal}
; #@! TF.CreationDate,2026-08-17T02:04:30+00:00
; #@! TF.GenerationSoftware,Kicad,Pcbnew,7.0.11+dfsg-1build4
; #@! TF.FileFunction,Plated,1,4,PTH
FMAT,2
METRIC
; #@! TA.AperFunction,Plated,PTH,ViaDrill
T1C0.250
; #@! TA.AperFunction,Plated,PTH,ViaDrill
T2C0.300
; #@! TA.AperFunction,Plated,PTH,ComponentDrill
T3C0.600
; #@! TA.AperFunction,Plated,PTH,ComponentDrill
T4C1.000
%
G90
G05
T1
X131.14Y-86.03
X131.14Y-88.57
X131.14Y-91.11
X131.14Y-93.65
X134.76Y-72.3
X141.11Y-73.0
X143.65Y-73.7
X145.675Y-96.25
X146.125Y-103.25
X146.25Y-97.325
X146.75Y-96.125
X147.325Y-103.75
X151.25Y-103.875
X151.27Y-71.6
X151.75Y-101.475
X152.25Y-102.675
X152.675Y-96.25
X153.25Y-103.875
X153.75Y-102.675
X153.875Y-96.75
X164.08Y-70.9
X169.05Y-70.9
X171.7Y-71.6
X174.24Y-72.3
X176.78Y-73.0
X178.005Y-92.05
X178.005Y-93.05
X179.32Y-73.7
X180.005Y-91.55
X180.005Y-92.55
X183.505Y-90.55
X183.505Y-93.55
T2
X125.4Y-93.0
X129.338Y-66.2
X137.682Y-110.338
X140.912Y-92.609
X142.609Y-109.088
X154.6Y-61.75
X158.409Y-93.288
X158.409Y-106.712
X159.74Y-68.6
X160.571Y-112.551
X176.005Y-94.75
X181.905Y-89.85
X184.05Y-114.5
X184.225Y-118.0
X184.4Y-70.1
X187.519Y-107.404
T4
X127.14Y-80.95
X127.14Y-83.49
X127.14Y-86.03
X127.14Y-88.57
X127.14Y-91.11
X127.14Y-93.65
X127.14Y-96.19
X127.14Y-98.73
X127.14Y-101.27
X127.14Y-103.81
X127.14Y-106.35
X127.14Y-108.89
X127.14Y-111.43
X127.14Y-113.97
X127.14Y-116.51
X127.14Y-119.05
X130.95Y-77.14
X130.95Y-122.86
X133.49Y-77.14
X133.49Y-122.86
X136.03Y-77.14
X136.03Y-122.86
X138.57Y-77.14
X138.57Y-122.86
X141.11Y-77.14
X141.11Y-122.86
X143.65Y-77.14
X143.65Y-122.86
X146.19Y-77.14
X146.19Y-122.86
X148.73Y-77.14
X148.73Y-122.86
X151.27Y-77.14
X151.27Y-122.86
X153.81Y-77.14
X153.81Y-122.86
X156.35Y-77.14
X156.35Y-122.86
X158.89Y-77.14
X158.89Y-122.86
X161.43Y-77.14
X161.43Y-122.86
X161.54Y-68.6
X163.97Y-77.14
X163.97Y-122.86
X164.08Y-68.6
X166.51Y-77.14
X166.51Y-122.86
X166.62Y-68.6
X169.05Y-77.14
X169.05Y-122.86
X169.16Y-68.6
X171.7Y-68.6
X172.86Y-80.95
X172.86Y-83.49
X172.86Y-86.03
X172.86Y-88.57
X172.86Y-91.11
X172.86Y-93.65
X172.86Y-96.19
X172.86Y-98.73
X172.86Y-101.27
X172.86Y-103.81
X172.86Y-106.35
X172.86Y-108.89
X172.86Y-111.43
X172.86Y-113.97
X172.86Y-116.51
X172.86Y-119.05
X174.24Y-68.6
X176.78Y-68.6
X179.32Y-68.6
X181.86Y-68.6
X184.4Y-68.6
T3
X182.67Y-87.98G85X183.77Y-87.98
G05
X182.67Y-96.62G85X183.77Y-96.62
G05
X187.1Y-87.98G85X187.7Y-87.98
G05
X187.1Y-96.62G85X187.7Y-96.62
G05
M30
