M48
; DRILL file {KiCad 7.0.11+dfsg-1build4} date Mon Aug 17 01:54:11 2026
; FORMAT={-:-/ absolute / metric / decimal}
; #@! TF.CreationDate,2026-08-17T01:54:11+00:00
; #@! TF.GenerationSoftware,Kicad,Pcbnew,7.0.11+dfsg-1build4
; #@! TF.FileFunction,Plated,1,4,PTH
FMAT,2
METRIC
; #@! TA.AperFunction,Plated,PTH,ViaDrill
T1C0.250
; #@! TA.AperFunction,Plated,PTH,ViaDrill
T2C0.300
; #@! TA.AperFunction,Plated,PTH,ComponentDrill
T3C0.600
; #@! TA.AperFunction,Plated,PTH,ComponentDrill
T4C1.000
%
G90
G05
T1
X126.0Y-87.3
X126.0Y-88.57
X126.0Y-106.35
X126.0Y-107.62
X141.25Y-91.537
X141.537Y-93.75
X141.537Y-105.75
X141.75Y-92.938
X141.75Y-108.462
X142.25Y-107.062
X142.938Y-98.75
X142.938Y-106.25
X144.338Y-99.25
X147.75Y-94.337
X148.25Y-91.537
X148.25Y-105.662
X148.75Y-108.462
X152.75Y-92.938
X153.25Y-94.337
X153.25Y-107.062
X153.75Y-105.662
X155.662Y-92.25
X155.662Y-103.25
X157.062Y-91.75
X157.062Y-98.25
X158.25Y-108.462
X158.463Y-91.25
X158.463Y-97.75
X158.463Y-103.75
X158.75Y-107.062
X180.605Y-98.74
X180.605Y-99.74
X182.105Y-99.24
X182.105Y-100.24
X185.505Y-97.74
X185.505Y-100.74
T2
X113.5Y-108.89
X113.5Y-116.0
X117.4Y-68.75
X123.6Y-63.45
X124.338Y-76.318
X130.49Y-112.45
X134.938Y-134.0
X144.72Y-96.45
X144.72Y-99.65
X144.72Y-102.85
X147.92Y-96.45
X147.92Y-99.65
X147.92Y-102.85
X151.12Y-96.45
X151.12Y-99.65
X151.12Y-102.85
X154.32Y-99.65
X154.32Y-102.85
X173.0Y-64.8
X173.682Y-122.338
X174.651Y-77.329
X175.54Y-67.4
X180.62Y-69.0
X183.605Y-97.04
X183.605Y-101.94
X186.05Y-122.49
X186.225Y-125.99
X189.519Y-115.594
T4
X121.46Y-78.41
X121.46Y-80.95
X121.46Y-83.49
X121.46Y-86.03
X121.46Y-88.57
X121.46Y-91.11
X121.46Y-93.65
X121.46Y-96.19
X121.46Y-98.73
X121.46Y-101.27
X121.46Y-103.81
X121.46Y-106.35
X121.46Y-108.89
X121.46Y-111.43
X121.46Y-113.97
X121.46Y-116.51
X121.46Y-119.05
X121.46Y-121.59
X124.0Y-78.41
X124.0Y-80.95
X124.0Y-83.49
X124.0Y-86.03
X124.0Y-88.57
X124.0Y-91.11
X124.0Y-93.65
X124.0Y-96.19
X124.0Y-98.73
X124.0Y-101.27
X124.0Y-103.81
X124.0Y-106.35
X124.0Y-108.89
X124.0Y-111.43
X124.0Y-113.97
X124.0Y-116.51
X124.0Y-119.05
X124.0Y-121.59
X128.41Y-71.46
X128.41Y-74.0
X128.41Y-126.0
X128.41Y-128.54
X130.95Y-71.46
X130.95Y-74.0
X130.95Y-126.0
X130.95Y-128.54
X133.49Y-71.46
X133.49Y-74.0
X133.49Y-126.0
X133.49Y-128.54
X136.03Y-71.46
X136.03Y-74.0
X136.03Y-126.0
X136.03Y-128.54
X138.57Y-71.46
X138.57Y-74.0
X138.57Y-126.0
X138.57Y-128.54
X141.11Y-71.46
X141.11Y-74.0
X141.11Y-126.0
X141.11Y-128.54
X143.65Y-71.46
X143.65Y-74.0
X143.65Y-126.0
X143.65Y-128.54
X146.19Y-71.46
X146.19Y-74.0
X146.19Y-126.0
X146.19Y-128.54
X148.73Y-71.46
X148.73Y-74.0
X148.73Y-126.0
X148.73Y-128.54
X151.27Y-71.46
X151.27Y-74.0
X151.27Y-126.0
X151.27Y-128.54
X153.81Y-71.46
X153.81Y-74.0
X153.81Y-126.0
X153.81Y-128.54
X156.35Y-71.46
X156.35Y-74.0
X156.35Y-126.0
X156.35Y-128.54
X158.89Y-71.46
X158.89Y-74.0
X158.89Y-126.0
X158.89Y-128.54
X161.43Y-71.46
X161.43Y-74.0
X161.43Y-126.0
X161.43Y-128.54
X163.97Y-71.46
X163.97Y-74.0
X163.97Y-126.0
X163.97Y-128.54
X166.51Y-71.46
X166.51Y-74.0
X166.51Y-126.0
X166.51Y-128.54
X169.05Y-71.46
X169.05Y-74.0
X169.05Y-126.0
X169.05Y-128.54
X171.59Y-71.46
X171.59Y-74.0
X171.59Y-126.0
X171.59Y-128.54
X173.0Y-64.8
X175.54Y-64.8
X176.0Y-78.41
X176.0Y-80.95
X176.0Y-83.49
X176.0Y-86.03
X176.0Y-88.57
X176.0Y-91.11
X176.0Y-93.65
X176.0Y-96.19
X176.0Y-98.73
X176.0Y-101.27
X176.0Y-103.81
X176.0Y-106.35
X176.0Y-108.89
X176.0Y-111.43
X176.0Y-113.97
X176.0Y-116.51
X176.0Y-119.05
X176.0Y-121.59
X178.08Y-64.8
X178.54Y-78.41
X178.54Y-80.95
X178.54Y-83.49
X178.54Y-86.03
X178.54Y-88.57
X178.54Y-91.11
X178.54Y-93.65
X178.54Y-96.19
X178.54Y-98.73
X178.54Y-101.27
X178.54Y-103.81
X178.54Y-106.35
X178.54Y-108.89
X178.54Y-111.43
X178.54Y-113.97
X178.54Y-116.51
X178.54Y-119.05
X178.54Y-121.59
X180.62Y-64.8
T3
X184.67Y-95.17G85X185.77Y-95.17
G05
X184.67Y-103.81G85X185.77Y-103.81
G05
X189.1Y-95.17G85X189.7Y-95.17
G05
X189.1Y-103.81G85X189.7Y-103.81
G05
M30
