M48
; DRILL file KiCad 10.0.3 date 2026-08-18T05:59:57
; FORMAT={-:-/ absolute / metric / decimal}
; #@! TF.CreationDate,2026-08-18T05:59:57+01:00
; #@! TF.GenerationSoftware,Kicad,Pcbnew,10.0.3
; #@! TF.FileFunction,Plated,1,4,PTH
FMAT,2
METRIC
; #@! TA.AperFunction,Plated,PTH,ViaDrill
T1C0.250
; #@! TA.AperFunction,Plated,PTH,ViaDrill
T2C0.300
; #@! TA.AperFunction,Plated,PTH,ComponentDrill
T3C0.600
; #@! TA.AperFunction,Plated,PTH,ComponentDrill
T4C0.650
; #@! TA.AperFunction,Plated,PTH,ComponentDrill
T5C1.000
%
G90
G05
T1
X124.06Y-87.3
X124.06Y-88.57
X124.06Y-106.35
X124.06Y-107.62
X133.49Y-52.9
X133.49Y-60.93
X136.03Y-53.4
X138.92Y-60.93
X141.05Y-91.537
X141.11Y-58.39
X141.537Y-93.75
X141.537Y-105.55
X141.55Y-108.462
X141.75Y-92.938
X142.25Y-107.062
X142.938Y-98.55
X142.938Y-106.25
X144.338Y-99.25
X147.75Y-94.337
X148.25Y-105.662
X148.45Y-91.537
X148.95Y-108.462
X152.55Y-92.938
X153.05Y-107.062
X153.25Y-94.337
X153.75Y-105.662
X155.662Y-92.25
X155.662Y-103.25
X157.062Y-91.55
X157.062Y-98.25
X158.05Y-108.462
X158.463Y-91.05
X158.463Y-97.55
X158.463Y-103.95
X158.75Y-107.062
X160.21Y-60.93
X185.51Y-98.74
X185.51Y-99.74
X186.71Y-99.24
X186.71Y-100.24
X190.91Y-97.74
X190.91Y-100.74
T2
X117.9Y-67.15
X124.163Y-131.663
X124.338Y-76.318
X127.6Y-62.45
X128.55Y-112.45
X129.1Y-57.15
X130.95Y-61.6
X144.72Y-96.45
X144.72Y-99.65
X144.72Y-102.85
X147.92Y-96.45
X147.92Y-99.65
X147.92Y-102.85
X148.73Y-66.5
X151.12Y-96.45
X151.12Y-99.65
X151.12Y-102.85
X154.32Y-99.65
X154.32Y-102.85
X173.682Y-122.338
X174.651Y-77.329
X187.91Y-82.51
X187.91Y-97.04
X187.91Y-101.94
X192.05Y-122.49
X192.225Y-125.99
X195.519Y-115.594
T4
X157.24Y-54.58
X157.24Y-55.85
X157.24Y-57.12
X157.24Y-58.39
X157.24Y-59.66
X157.24Y-60.93
X157.24Y-62.2
X158.51Y-54.58
X158.51Y-55.85
X158.51Y-57.12
X158.51Y-58.39
X158.51Y-59.66
X158.51Y-60.93
X158.51Y-62.2
T5
X119.52Y-78.41
X119.52Y-80.95
X119.52Y-83.49
X119.52Y-86.03
X119.52Y-88.57
X119.52Y-91.11
X119.52Y-93.65
X119.52Y-96.19
X119.52Y-98.73
X119.52Y-101.27
X119.52Y-103.81
X119.52Y-106.35
X119.52Y-108.89
X119.52Y-111.43
X119.52Y-113.97
X119.52Y-116.51
X119.52Y-119.05
X119.52Y-121.59
X122.06Y-78.41
X122.06Y-80.95
X122.06Y-83.49
X122.06Y-86.03
X122.06Y-88.57
X122.06Y-91.11
X122.06Y-93.65
X122.06Y-96.19
X122.06Y-98.73
X122.06Y-101.27
X122.06Y-103.81
X122.06Y-106.35
X122.06Y-108.89
X122.06Y-111.43
X122.06Y-113.97
X122.06Y-116.51
X122.06Y-119.05
X122.06Y-121.59
X128.41Y-69.52
X128.41Y-72.06
X128.41Y-127.94
X128.41Y-130.48
X130.95Y-63.4
X130.95Y-69.52
X130.95Y-72.06
X130.95Y-127.94
X130.95Y-130.48
X133.49Y-63.4
X133.49Y-69.52
X133.49Y-72.06
X133.49Y-127.94
X133.49Y-130.48
X136.03Y-63.4
X136.03Y-69.52
X136.03Y-72.06
X136.03Y-127.94
X136.03Y-130.48
X138.57Y-63.4
X138.57Y-69.52
X138.57Y-72.06
X138.57Y-127.94
X138.57Y-130.48
X141.11Y-63.4
X141.11Y-69.52
X141.11Y-72.06
X141.11Y-127.94
X141.11Y-130.48
X143.65Y-63.4
X143.65Y-69.52
X143.65Y-72.06
X143.65Y-127.94
X143.65Y-130.48
X146.19Y-63.4
X146.19Y-69.52
X146.19Y-72.06
X146.19Y-127.94
X146.19Y-130.48
X148.73Y-63.4
X148.73Y-69.52
X148.73Y-72.06
X148.73Y-127.94
X148.73Y-130.48
X151.27Y-63.4
X151.27Y-69.52
X151.27Y-72.06
X151.27Y-127.94
X151.27Y-130.48
X153.81Y-63.4
X153.81Y-69.52
X153.81Y-72.06
X153.81Y-127.94
X153.81Y-130.48
X156.35Y-69.52
X156.35Y-72.06
X156.35Y-127.94
X156.35Y-130.48
X158.89Y-69.52
X158.89Y-72.06
X158.89Y-127.94
X158.89Y-130.48
X161.43Y-69.52
X161.43Y-72.06
X161.43Y-127.94
X161.43Y-130.48
X163.97Y-69.52
X163.97Y-72.06
X163.97Y-127.94
X163.97Y-130.48
X166.51Y-69.52
X166.51Y-72.06
X166.51Y-127.94
X166.51Y-130.48
X169.05Y-69.52
X169.05Y-72.06
X169.05Y-127.94
X169.05Y-130.48
X171.59Y-69.52
X171.59Y-72.06
X171.59Y-127.94
X171.59Y-130.48
X177.94Y-78.41
X177.94Y-80.95
X177.94Y-83.49
X177.94Y-86.03
X177.94Y-88.57
X177.94Y-91.11
X177.94Y-93.65
X177.94Y-96.19
X177.94Y-98.73
X177.94Y-101.27
X177.94Y-103.81
X177.94Y-106.35
X177.94Y-108.89
X177.94Y-111.43
X177.94Y-113.97
X177.94Y-116.51
X177.94Y-119.05
X177.94Y-121.59
X180.48Y-78.41
X180.48Y-80.95
X180.48Y-83.49
X180.48Y-86.03
X180.48Y-88.57
X180.48Y-91.11
X180.48Y-93.65
X180.48Y-96.19
X180.48Y-98.73
X180.48Y-101.27
X180.48Y-103.81
X180.48Y-106.35
X180.48Y-108.89
X180.48Y-111.43
X180.48Y-113.97
X180.48Y-116.51
X180.48Y-119.05
X180.48Y-121.59
T3
X190.075Y-95.17G85X191.175Y-95.17
G05
X190.075Y-103.81G85X191.175Y-103.81
G05
X194.505Y-95.17G85X195.105Y-95.17
G05
X194.505Y-103.81G85X195.105Y-103.81
G05
M30
