%TF.GenerationSoftware,KiCad,Pcbnew,10.0.3*%
%TF.CreationDate,2026-08-18T05:59:57+01:00*%
%TF.ProjectId,STM32H723ZG-CoreBoard,53544d33-3248-4373-9233-5a472d436f72,rev?*%
%TF.SameCoordinates,Original*%
%TF.FileFunction,Paste,Bot*%
%TF.FilePolarity,Positive*%
%FSLAX46Y46*%
G04 Gerber Fmt 4.6, Leading zero omitted, Abs format (unit mm)*
G04 Created by KiCad (PCBNEW 10.0.3) date 2026-08-18 05:59:57*
%MOMM*%
%LPD*%
G01*
G04 APERTURE LIST*
G04 Aperture macros list*
%AMRoundRect*
0 Rectangle with rounded corners*
0 $1 Rounding radius*
0 $2 $3 $4 $5 $6 $7 $8 $9 X,Y pos of 4 corners*
0 Add a 4 corners polygon primitive as box body*
4,1,4,$2,$3,$4,$5,$6,$7,$8,$9,$2,$3,0*
0 Add four circle primitives for the rounded corners*
1,1,$1+$1,$2,$3*
1,1,$1+$1,$4,$5*
1,1,$1+$1,$6,$7*
1,1,$1+$1,$8,$9*
0 Add four rect primitives between the rounded corners*
20,1,$1+$1,$2,$3,$4,$5,0*
20,1,$1+$1,$4,$5,$6,$7,0*
20,1,$1+$1,$6,$7,$8,$9,0*
20,1,$1+$1,$8,$9,$2,$3,0*%
G04 Aperture macros list end*
%ADD10RoundRect,0.140000X-0.140000X-0.170000X0.140000X-0.170000X0.140000X0.170000X-0.140000X0.170000X0*%
%ADD11RoundRect,0.250000X-0.159099X0.512652X-0.512652X0.159099X0.159099X-0.512652X0.512652X-0.159099X0*%
%ADD12RoundRect,0.150000X-0.512500X-0.150000X0.512500X-0.150000X0.512500X0.150000X-0.512500X0.150000X0*%
%ADD13RoundRect,0.135000X-0.135000X-0.185000X0.135000X-0.185000X0.135000X0.185000X-0.135000X0.185000X0*%
%ADD14RoundRect,0.225000X-0.225000X-0.250000X0.225000X-0.250000X0.225000X0.250000X-0.225000X0.250000X0*%
%ADD15RoundRect,0.250000X-0.250000X-0.475000X0.250000X-0.475000X0.250000X0.475000X-0.250000X0.475000X0*%
%ADD16RoundRect,0.140000X0.021213X-0.219203X0.219203X-0.021213X-0.021213X0.219203X-0.219203X0.021213X0*%
%ADD17RoundRect,0.140000X0.140000X0.170000X-0.140000X0.170000X-0.140000X-0.170000X0.140000X-0.170000X0*%
%ADD18RoundRect,0.250000X-0.950000X0.750000X-0.950000X-0.750000X0.950000X-0.750000X0.950000X0.750000X0*%
%ADD19RoundRect,0.250000X-0.512652X-0.159099X-0.159099X-0.512652X0.512652X0.159099X0.159099X0.512652X0*%
%ADD20RoundRect,0.250000X-0.650000X0.250000X-0.650000X-0.250000X0.650000X-0.250000X0.650000X0.250000X0*%
%ADD21RoundRect,0.225000X0.225000X0.250000X-0.225000X0.250000X-0.225000X-0.250000X0.225000X-0.250000X0*%
%ADD22RoundRect,0.225000X0.250000X-0.225000X0.250000X0.225000X-0.250000X0.225000X-0.250000X-0.225000X0*%
G04 APERTURE END LIST*
D10*
%TO.C,C63*%
X136580000Y-91250000D03*
X137540000Y-91250000D03*
%TD*%
D11*
%TO.C,C76*%
X174671751Y-123328249D03*
X173328249Y-124671751D03*
%TD*%
D12*
%TO.C,U2*%
X191862500Y-114440000D03*
X191862500Y-113490000D03*
X191862500Y-112540000D03*
X194137500Y-112540000D03*
X194137500Y-114440000D03*
%TD*%
D10*
%TO.C,C10*%
X151120000Y-101600000D03*
X152080000Y-101600000D03*
%TD*%
%TO.C,C9*%
X147920000Y-101600000D03*
X148880000Y-101600000D03*
%TD*%
%TO.C,C6*%
X151120000Y-98400000D03*
X152080000Y-98400000D03*
%TD*%
%TO.C,C62*%
X136580000Y-88750000D03*
X137540000Y-88750000D03*
%TD*%
%TO.C,C60*%
X136580000Y-98150000D03*
X137540000Y-98150000D03*
%TD*%
D13*
%TO.C,R3*%
X128550001Y-114050000D03*
X129569999Y-114050000D03*
%TD*%
D10*
%TO.C,C3*%
X151120000Y-95200000D03*
X152080000Y-95200000D03*
%TD*%
%TO.C,C4*%
X144720000Y-98400000D03*
X145680000Y-98400000D03*
%TD*%
D14*
%TO.C,C52*%
X192225000Y-124490000D03*
X193775000Y-124490000D03*
%TD*%
D10*
%TO.C,C7*%
X154320000Y-98400000D03*
X155280000Y-98400000D03*
%TD*%
%TO.C,C11*%
X154320000Y-101600000D03*
X155280000Y-101600000D03*
%TD*%
D15*
%TO.C,C50*%
X192050000Y-117490000D03*
X193950000Y-117490000D03*
%TD*%
D16*
%TO.C,C74*%
X173660589Y-76339411D03*
X174339411Y-75660589D03*
%TD*%
D13*
%TO.C,R2*%
X195890000Y-97740000D03*
X196910000Y-97740000D03*
%TD*%
D15*
%TO.C,C51*%
X192050000Y-120990000D03*
X193950000Y-120990000D03*
%TD*%
D10*
%TO.C,C77*%
X116920000Y-116000000D03*
X117880000Y-116000000D03*
%TD*%
D17*
%TO.C,C70*%
X129540000Y-111050000D03*
X128580000Y-111050000D03*
%TD*%
D10*
%TO.C,C8*%
X144720000Y-101600000D03*
X145680000Y-101600000D03*
%TD*%
%TO.C,C5*%
X147920000Y-98400000D03*
X148880000Y-98400000D03*
%TD*%
%TO.C,C1*%
X144720000Y-95200000D03*
X145680000Y-95200000D03*
%TD*%
%TO.C,C61*%
X136580000Y-101850000D03*
X137540000Y-101850000D03*
%TD*%
D18*
%TO.C,Y1*%
X131060000Y-98150000D03*
X131060000Y-101850000D03*
%TD*%
D19*
%TO.C,C75*%
X125328249Y-75328249D03*
X126671751Y-76671751D03*
%TD*%
D13*
%TO.C,R1*%
X195890000Y-100740000D03*
X196910000Y-100740000D03*
%TD*%
D20*
%TO.C,Y2*%
X131060000Y-88750000D03*
X131060000Y-91250000D03*
%TD*%
D21*
%TO.C,C73*%
X156175000Y-94600000D03*
X154625000Y-94600000D03*
%TD*%
D10*
%TO.C,C2*%
X147920000Y-95200000D03*
X148880000Y-95200000D03*
%TD*%
D22*
%TO.C,C72*%
X155400000Y-106175000D03*
X155400000Y-104625000D03*
%TD*%
D21*
%TO.C,C71*%
X129835000Y-108050000D03*
X128285000Y-108050000D03*
%TD*%
M02*
