%TF.GenerationSoftware,KiCad,Pcbnew,7.0.11+dfsg-1build4*%
%TF.CreationDate,2026-08-17T01:54:11+00:00*%
%TF.ProjectId,STM32H723ZG-CoreBoard,53544d33-3248-4373-9233-5a472d436f72,rev?*%
%TF.SameCoordinates,Original*%
%TF.FileFunction,Legend,Top*%
%TF.FilePolarity,Positive*%
%FSLAX46Y46*%
G04 Gerber Fmt 4.6, Leading zero omitted, Abs format (unit mm)*
G04 Created by KiCad (PCBNEW 7.0.11+dfsg-1build4) date 2026-08-17 01:54:11*
%MOMM*%
%LPD*%
G01*
G04 APERTURE LIST*
%ADD10C,0.100000*%
%ADD11C,0.280000*%
%ADD12C,0.180000*%
%ADD13C,0.150000*%
%ADD14C,0.120000*%
G04 APERTURE END LIST*
D10*
X126300000Y-93922371D02*
X126300000Y-93322371D01*
X126300000Y-93322371D02*
X126528571Y-93322371D01*
X126528571Y-93322371D02*
X126585714Y-93350942D01*
X126585714Y-93350942D02*
X126614285Y-93379514D01*
X126614285Y-93379514D02*
X126642857Y-93436657D01*
X126642857Y-93436657D02*
X126642857Y-93522371D01*
X126642857Y-93522371D02*
X126614285Y-93579514D01*
X126614285Y-93579514D02*
X126585714Y-93608085D01*
X126585714Y-93608085D02*
X126528571Y-93636657D01*
X126528571Y-93636657D02*
X126300000Y-93636657D01*
X127100000Y-93608085D02*
X126900000Y-93608085D01*
X126900000Y-93922371D02*
X126900000Y-93322371D01*
X126900000Y-93322371D02*
X127185714Y-93322371D01*
X127357143Y-93322371D02*
X127728571Y-93322371D01*
X127728571Y-93322371D02*
X127528571Y-93550942D01*
X127528571Y-93550942D02*
X127614286Y-93550942D01*
X127614286Y-93550942D02*
X127671429Y-93579514D01*
X127671429Y-93579514D02*
X127700000Y-93608085D01*
X127700000Y-93608085D02*
X127728571Y-93665228D01*
X127728571Y-93665228D02*
X127728571Y-93808085D01*
X127728571Y-93808085D02*
X127700000Y-93865228D01*
X127700000Y-93865228D02*
X127671429Y-93893800D01*
X127671429Y-93893800D02*
X127614286Y-93922371D01*
X127614286Y-93922371D02*
X127442857Y-93922371D01*
X127442857Y-93922371D02*
X127385714Y-93893800D01*
X127385714Y-93893800D02*
X127357143Y-93865228D01*
X145890942Y-123457141D02*
X145862371Y-123514284D01*
X145862371Y-123514284D02*
X145862371Y-123599998D01*
X145862371Y-123599998D02*
X145890942Y-123685712D01*
X145890942Y-123685712D02*
X145948085Y-123742855D01*
X145948085Y-123742855D02*
X146005228Y-123771426D01*
X146005228Y-123771426D02*
X146119514Y-123799998D01*
X146119514Y-123799998D02*
X146205228Y-123799998D01*
X146205228Y-123799998D02*
X146319514Y-123771426D01*
X146319514Y-123771426D02*
X146376657Y-123742855D01*
X146376657Y-123742855D02*
X146433800Y-123685712D01*
X146433800Y-123685712D02*
X146462371Y-123599998D01*
X146462371Y-123599998D02*
X146462371Y-123542855D01*
X146462371Y-123542855D02*
X146433800Y-123457141D01*
X146433800Y-123457141D02*
X146405228Y-123428569D01*
X146405228Y-123428569D02*
X146205228Y-123428569D01*
X146205228Y-123428569D02*
X146205228Y-123542855D01*
X146462371Y-123171426D02*
X145862371Y-123171426D01*
X145862371Y-123171426D02*
X146462371Y-122828569D01*
X146462371Y-122828569D02*
X145862371Y-122828569D01*
X146462371Y-122542855D02*
X145862371Y-122542855D01*
X145862371Y-122542855D02*
X145862371Y-122399998D01*
X145862371Y-122399998D02*
X145890942Y-122314284D01*
X145890942Y-122314284D02*
X145948085Y-122257141D01*
X145948085Y-122257141D02*
X146005228Y-122228570D01*
X146005228Y-122228570D02*
X146119514Y-122199998D01*
X146119514Y-122199998D02*
X146205228Y-122199998D01*
X146205228Y-122199998D02*
X146319514Y-122228570D01*
X146319514Y-122228570D02*
X146376657Y-122257141D01*
X146376657Y-122257141D02*
X146433800Y-122314284D01*
X146433800Y-122314284D02*
X146462371Y-122399998D01*
X146462371Y-122399998D02*
X146462371Y-122542855D01*
X161702371Y-77742856D02*
X161102371Y-77742856D01*
X161102371Y-77742856D02*
X161102371Y-77514285D01*
X161102371Y-77514285D02*
X161130942Y-77457142D01*
X161130942Y-77457142D02*
X161159514Y-77428571D01*
X161159514Y-77428571D02*
X161216657Y-77399999D01*
X161216657Y-77399999D02*
X161302371Y-77399999D01*
X161302371Y-77399999D02*
X161359514Y-77428571D01*
X161359514Y-77428571D02*
X161388085Y-77457142D01*
X161388085Y-77457142D02*
X161416657Y-77514285D01*
X161416657Y-77514285D02*
X161416657Y-77742856D01*
X161702371Y-77142856D02*
X161102371Y-77142856D01*
X161102371Y-77142856D02*
X161102371Y-76999999D01*
X161102371Y-76999999D02*
X161130942Y-76914285D01*
X161130942Y-76914285D02*
X161188085Y-76857142D01*
X161188085Y-76857142D02*
X161245228Y-76828571D01*
X161245228Y-76828571D02*
X161359514Y-76799999D01*
X161359514Y-76799999D02*
X161445228Y-76799999D01*
X161445228Y-76799999D02*
X161559514Y-76828571D01*
X161559514Y-76828571D02*
X161616657Y-76857142D01*
X161616657Y-76857142D02*
X161673800Y-76914285D01*
X161673800Y-76914285D02*
X161702371Y-76999999D01*
X161702371Y-76999999D02*
X161702371Y-77142856D01*
X161302371Y-76285714D02*
X161702371Y-76285714D01*
X161073800Y-76428571D02*
X161502371Y-76571428D01*
X161502371Y-76571428D02*
X161502371Y-76199999D01*
X143922371Y-78028571D02*
X143322371Y-78028571D01*
X143322371Y-78028571D02*
X143322371Y-77800000D01*
X143322371Y-77800000D02*
X143350942Y-77742857D01*
X143350942Y-77742857D02*
X143379514Y-77714286D01*
X143379514Y-77714286D02*
X143436657Y-77685714D01*
X143436657Y-77685714D02*
X143522371Y-77685714D01*
X143522371Y-77685714D02*
X143579514Y-77714286D01*
X143579514Y-77714286D02*
X143608085Y-77742857D01*
X143608085Y-77742857D02*
X143636657Y-77800000D01*
X143636657Y-77800000D02*
X143636657Y-78028571D01*
X143350942Y-77114286D02*
X143322371Y-77171429D01*
X143322371Y-77171429D02*
X143322371Y-77257143D01*
X143322371Y-77257143D02*
X143350942Y-77342857D01*
X143350942Y-77342857D02*
X143408085Y-77400000D01*
X143408085Y-77400000D02*
X143465228Y-77428571D01*
X143465228Y-77428571D02*
X143579514Y-77457143D01*
X143579514Y-77457143D02*
X143665228Y-77457143D01*
X143665228Y-77457143D02*
X143779514Y-77428571D01*
X143779514Y-77428571D02*
X143836657Y-77400000D01*
X143836657Y-77400000D02*
X143893800Y-77342857D01*
X143893800Y-77342857D02*
X143922371Y-77257143D01*
X143922371Y-77257143D02*
X143922371Y-77200000D01*
X143922371Y-77200000D02*
X143893800Y-77114286D01*
X143893800Y-77114286D02*
X143865228Y-77085714D01*
X143865228Y-77085714D02*
X143665228Y-77085714D01*
X143665228Y-77085714D02*
X143665228Y-77200000D01*
X143922371Y-76514286D02*
X143922371Y-76857143D01*
X143922371Y-76685714D02*
X143322371Y-76685714D01*
X143322371Y-76685714D02*
X143408085Y-76742857D01*
X143408085Y-76742857D02*
X143465228Y-76800000D01*
X143465228Y-76800000D02*
X143493800Y-76857143D01*
X143322371Y-75971428D02*
X143322371Y-76257142D01*
X143322371Y-76257142D02*
X143608085Y-76285714D01*
X143608085Y-76285714D02*
X143579514Y-76257142D01*
X143579514Y-76257142D02*
X143550942Y-76200000D01*
X143550942Y-76200000D02*
X143550942Y-76057142D01*
X143550942Y-76057142D02*
X143579514Y-76000000D01*
X143579514Y-76000000D02*
X143608085Y-75971428D01*
X143608085Y-75971428D02*
X143665228Y-75942857D01*
X143665228Y-75942857D02*
X143808085Y-75942857D01*
X143808085Y-75942857D02*
X143865228Y-75971428D01*
X143865228Y-75971428D02*
X143893800Y-76000000D01*
X143893800Y-76000000D02*
X143922371Y-76057142D01*
X143922371Y-76057142D02*
X143922371Y-76200000D01*
X143922371Y-76200000D02*
X143893800Y-76257142D01*
X143893800Y-76257142D02*
X143865228Y-76285714D01*
X172257143Y-99002371D02*
X172257143Y-98402371D01*
X172257143Y-98402371D02*
X172485714Y-98402371D01*
X172485714Y-98402371D02*
X172542857Y-98430942D01*
X172542857Y-98430942D02*
X172571428Y-98459514D01*
X172571428Y-98459514D02*
X172600000Y-98516657D01*
X172600000Y-98516657D02*
X172600000Y-98602371D01*
X172600000Y-98602371D02*
X172571428Y-98659514D01*
X172571428Y-98659514D02*
X172542857Y-98688085D01*
X172542857Y-98688085D02*
X172485714Y-98716657D01*
X172485714Y-98716657D02*
X172257143Y-98716657D01*
X173171428Y-98430942D02*
X173114286Y-98402371D01*
X173114286Y-98402371D02*
X173028571Y-98402371D01*
X173028571Y-98402371D02*
X172942857Y-98430942D01*
X172942857Y-98430942D02*
X172885714Y-98488085D01*
X172885714Y-98488085D02*
X172857143Y-98545228D01*
X172857143Y-98545228D02*
X172828571Y-98659514D01*
X172828571Y-98659514D02*
X172828571Y-98745228D01*
X172828571Y-98745228D02*
X172857143Y-98859514D01*
X172857143Y-98859514D02*
X172885714Y-98916657D01*
X172885714Y-98916657D02*
X172942857Y-98973800D01*
X172942857Y-98973800D02*
X173028571Y-99002371D01*
X173028571Y-99002371D02*
X173085714Y-99002371D01*
X173085714Y-99002371D02*
X173171428Y-98973800D01*
X173171428Y-98973800D02*
X173200000Y-98945228D01*
X173200000Y-98945228D02*
X173200000Y-98745228D01*
X173200000Y-98745228D02*
X173085714Y-98745228D01*
X173400000Y-98402371D02*
X173800000Y-98402371D01*
X173800000Y-98402371D02*
X173542857Y-99002371D01*
X171971428Y-121862371D02*
X171971428Y-121262371D01*
X171971428Y-121262371D02*
X172199999Y-121262371D01*
X172199999Y-121262371D02*
X172257142Y-121290942D01*
X172257142Y-121290942D02*
X172285713Y-121319514D01*
X172285713Y-121319514D02*
X172314285Y-121376657D01*
X172314285Y-121376657D02*
X172314285Y-121462371D01*
X172314285Y-121462371D02*
X172285713Y-121519514D01*
X172285713Y-121519514D02*
X172257142Y-121548085D01*
X172257142Y-121548085D02*
X172199999Y-121576657D01*
X172199999Y-121576657D02*
X171971428Y-121576657D01*
X172771428Y-121548085D02*
X172857142Y-121576657D01*
X172857142Y-121576657D02*
X172885713Y-121605228D01*
X172885713Y-121605228D02*
X172914285Y-121662371D01*
X172914285Y-121662371D02*
X172914285Y-121748085D01*
X172914285Y-121748085D02*
X172885713Y-121805228D01*
X172885713Y-121805228D02*
X172857142Y-121833800D01*
X172857142Y-121833800D02*
X172799999Y-121862371D01*
X172799999Y-121862371D02*
X172571428Y-121862371D01*
X172571428Y-121862371D02*
X172571428Y-121262371D01*
X172571428Y-121262371D02*
X172771428Y-121262371D01*
X172771428Y-121262371D02*
X172828571Y-121290942D01*
X172828571Y-121290942D02*
X172857142Y-121319514D01*
X172857142Y-121319514D02*
X172885713Y-121376657D01*
X172885713Y-121376657D02*
X172885713Y-121433800D01*
X172885713Y-121433800D02*
X172857142Y-121490942D01*
X172857142Y-121490942D02*
X172828571Y-121519514D01*
X172828571Y-121519514D02*
X172771428Y-121548085D01*
X172771428Y-121548085D02*
X172571428Y-121548085D01*
X173485713Y-121862371D02*
X173142856Y-121862371D01*
X173314285Y-121862371D02*
X173314285Y-121262371D01*
X173314285Y-121262371D02*
X173257142Y-121348085D01*
X173257142Y-121348085D02*
X173199999Y-121405228D01*
X173199999Y-121405228D02*
X173142856Y-121433800D01*
X173685714Y-121262371D02*
X174057142Y-121262371D01*
X174057142Y-121262371D02*
X173857142Y-121490942D01*
X173857142Y-121490942D02*
X173942857Y-121490942D01*
X173942857Y-121490942D02*
X174000000Y-121519514D01*
X174000000Y-121519514D02*
X174028571Y-121548085D01*
X174028571Y-121548085D02*
X174057142Y-121605228D01*
X174057142Y-121605228D02*
X174057142Y-121748085D01*
X174057142Y-121748085D02*
X174028571Y-121805228D01*
X174028571Y-121805228D02*
X174000000Y-121833800D01*
X174000000Y-121833800D02*
X173942857Y-121862371D01*
X173942857Y-121862371D02*
X173771428Y-121862371D01*
X173771428Y-121862371D02*
X173714285Y-121833800D01*
X173714285Y-121833800D02*
X173685714Y-121805228D01*
X164242371Y-123999998D02*
X163642371Y-123999998D01*
X163642371Y-123999998D02*
X163642371Y-123771427D01*
X163642371Y-123771427D02*
X163670942Y-123714284D01*
X163670942Y-123714284D02*
X163699514Y-123685713D01*
X163699514Y-123685713D02*
X163756657Y-123657141D01*
X163756657Y-123657141D02*
X163842371Y-123657141D01*
X163842371Y-123657141D02*
X163899514Y-123685713D01*
X163899514Y-123685713D02*
X163928085Y-123714284D01*
X163928085Y-123714284D02*
X163956657Y-123771427D01*
X163956657Y-123771427D02*
X163956657Y-123999998D01*
X163928085Y-123399998D02*
X163928085Y-123199998D01*
X164242371Y-123114284D02*
X164242371Y-123399998D01*
X164242371Y-123399998D02*
X163642371Y-123399998D01*
X163642371Y-123399998D02*
X163642371Y-123114284D01*
X164242371Y-122542856D02*
X164242371Y-122885713D01*
X164242371Y-122714284D02*
X163642371Y-122714284D01*
X163642371Y-122714284D02*
X163728085Y-122771427D01*
X163728085Y-122771427D02*
X163785228Y-122828570D01*
X163785228Y-122828570D02*
X163813800Y-122885713D01*
X163699514Y-122314284D02*
X163670942Y-122285712D01*
X163670942Y-122285712D02*
X163642371Y-122228570D01*
X163642371Y-122228570D02*
X163642371Y-122085712D01*
X163642371Y-122085712D02*
X163670942Y-122028570D01*
X163670942Y-122028570D02*
X163699514Y-121999998D01*
X163699514Y-121999998D02*
X163756657Y-121971427D01*
X163756657Y-121971427D02*
X163813800Y-121971427D01*
X163813800Y-121971427D02*
X163899514Y-121999998D01*
X163899514Y-121999998D02*
X164242371Y-122342855D01*
X164242371Y-122342855D02*
X164242371Y-121971427D01*
D11*
X132133331Y-60449440D02*
X132361903Y-60525630D01*
X132361903Y-60525630D02*
X132742855Y-60525630D01*
X132742855Y-60525630D02*
X132895236Y-60449440D01*
X132895236Y-60449440D02*
X132971427Y-60373249D01*
X132971427Y-60373249D02*
X133047617Y-60220868D01*
X133047617Y-60220868D02*
X133047617Y-60068487D01*
X133047617Y-60068487D02*
X132971427Y-59916106D01*
X132971427Y-59916106D02*
X132895236Y-59839916D01*
X132895236Y-59839916D02*
X132742855Y-59763725D01*
X132742855Y-59763725D02*
X132438093Y-59687535D01*
X132438093Y-59687535D02*
X132285712Y-59611344D01*
X132285712Y-59611344D02*
X132209522Y-59535154D01*
X132209522Y-59535154D02*
X132133331Y-59382773D01*
X132133331Y-59382773D02*
X132133331Y-59230392D01*
X132133331Y-59230392D02*
X132209522Y-59078011D01*
X132209522Y-59078011D02*
X132285712Y-59001820D01*
X132285712Y-59001820D02*
X132438093Y-58925630D01*
X132438093Y-58925630D02*
X132819046Y-58925630D01*
X132819046Y-58925630D02*
X133047617Y-59001820D01*
X133504760Y-58925630D02*
X134419046Y-58925630D01*
X133961903Y-60525630D02*
X133961903Y-58925630D01*
X134952380Y-60525630D02*
X134952380Y-58925630D01*
X134952380Y-58925630D02*
X135485713Y-60068487D01*
X135485713Y-60068487D02*
X136019047Y-58925630D01*
X136019047Y-58925630D02*
X136019047Y-60525630D01*
X136628570Y-58925630D02*
X137619046Y-58925630D01*
X137619046Y-58925630D02*
X137085713Y-59535154D01*
X137085713Y-59535154D02*
X137314284Y-59535154D01*
X137314284Y-59535154D02*
X137466665Y-59611344D01*
X137466665Y-59611344D02*
X137542856Y-59687535D01*
X137542856Y-59687535D02*
X137619046Y-59839916D01*
X137619046Y-59839916D02*
X137619046Y-60220868D01*
X137619046Y-60220868D02*
X137542856Y-60373249D01*
X137542856Y-60373249D02*
X137466665Y-60449440D01*
X137466665Y-60449440D02*
X137314284Y-60525630D01*
X137314284Y-60525630D02*
X136857141Y-60525630D01*
X136857141Y-60525630D02*
X136704760Y-60449440D01*
X136704760Y-60449440D02*
X136628570Y-60373249D01*
X138228570Y-59078011D02*
X138304761Y-59001820D01*
X138304761Y-59001820D02*
X138457142Y-58925630D01*
X138457142Y-58925630D02*
X138838094Y-58925630D01*
X138838094Y-58925630D02*
X138990475Y-59001820D01*
X138990475Y-59001820D02*
X139066666Y-59078011D01*
X139066666Y-59078011D02*
X139142856Y-59230392D01*
X139142856Y-59230392D02*
X139142856Y-59382773D01*
X139142856Y-59382773D02*
X139066666Y-59611344D01*
X139066666Y-59611344D02*
X138152380Y-60525630D01*
X138152380Y-60525630D02*
X139142856Y-60525630D01*
X139828571Y-60525630D02*
X139828571Y-58925630D01*
X139828571Y-59687535D02*
X140742857Y-59687535D01*
X140742857Y-60525630D02*
X140742857Y-58925630D01*
X141352380Y-58925630D02*
X142419047Y-58925630D01*
X142419047Y-58925630D02*
X141733332Y-60525630D01*
X142952380Y-59078011D02*
X143028571Y-59001820D01*
X143028571Y-59001820D02*
X143180952Y-58925630D01*
X143180952Y-58925630D02*
X143561904Y-58925630D01*
X143561904Y-58925630D02*
X143714285Y-59001820D01*
X143714285Y-59001820D02*
X143790476Y-59078011D01*
X143790476Y-59078011D02*
X143866666Y-59230392D01*
X143866666Y-59230392D02*
X143866666Y-59382773D01*
X143866666Y-59382773D02*
X143790476Y-59611344D01*
X143790476Y-59611344D02*
X142876190Y-60525630D01*
X142876190Y-60525630D02*
X143866666Y-60525630D01*
X144400000Y-58925630D02*
X145390476Y-58925630D01*
X145390476Y-58925630D02*
X144857143Y-59535154D01*
X144857143Y-59535154D02*
X145085714Y-59535154D01*
X145085714Y-59535154D02*
X145238095Y-59611344D01*
X145238095Y-59611344D02*
X145314286Y-59687535D01*
X145314286Y-59687535D02*
X145390476Y-59839916D01*
X145390476Y-59839916D02*
X145390476Y-60220868D01*
X145390476Y-60220868D02*
X145314286Y-60373249D01*
X145314286Y-60373249D02*
X145238095Y-60449440D01*
X145238095Y-60449440D02*
X145085714Y-60525630D01*
X145085714Y-60525630D02*
X144628571Y-60525630D01*
X144628571Y-60525630D02*
X144476190Y-60449440D01*
X144476190Y-60449440D02*
X144400000Y-60373249D01*
X145923810Y-58925630D02*
X146990477Y-58925630D01*
X146990477Y-58925630D02*
X145923810Y-60525630D01*
X145923810Y-60525630D02*
X146990477Y-60525630D01*
X148438096Y-59001820D02*
X148285715Y-58925630D01*
X148285715Y-58925630D02*
X148057144Y-58925630D01*
X148057144Y-58925630D02*
X147828572Y-59001820D01*
X147828572Y-59001820D02*
X147676191Y-59154201D01*
X147676191Y-59154201D02*
X147600001Y-59306582D01*
X147600001Y-59306582D02*
X147523810Y-59611344D01*
X147523810Y-59611344D02*
X147523810Y-59839916D01*
X147523810Y-59839916D02*
X147600001Y-60144678D01*
X147600001Y-60144678D02*
X147676191Y-60297059D01*
X147676191Y-60297059D02*
X147828572Y-60449440D01*
X147828572Y-60449440D02*
X148057144Y-60525630D01*
X148057144Y-60525630D02*
X148209525Y-60525630D01*
X148209525Y-60525630D02*
X148438096Y-60449440D01*
X148438096Y-60449440D02*
X148514287Y-60373249D01*
X148514287Y-60373249D02*
X148514287Y-59839916D01*
X148514287Y-59839916D02*
X148209525Y-59839916D01*
X148971429Y-58925630D02*
X149885715Y-58925630D01*
X149428572Y-60525630D02*
X149428572Y-58925630D01*
X151104763Y-58925630D02*
X150800001Y-58925630D01*
X150800001Y-58925630D02*
X150647620Y-59001820D01*
X150647620Y-59001820D02*
X150571430Y-59078011D01*
X150571430Y-59078011D02*
X150419049Y-59306582D01*
X150419049Y-59306582D02*
X150342858Y-59611344D01*
X150342858Y-59611344D02*
X150342858Y-60220868D01*
X150342858Y-60220868D02*
X150419049Y-60373249D01*
X150419049Y-60373249D02*
X150495239Y-60449440D01*
X150495239Y-60449440D02*
X150647620Y-60525630D01*
X150647620Y-60525630D02*
X150952382Y-60525630D01*
X150952382Y-60525630D02*
X151104763Y-60449440D01*
X151104763Y-60449440D02*
X151180954Y-60373249D01*
X151180954Y-60373249D02*
X151257144Y-60220868D01*
X151257144Y-60220868D02*
X151257144Y-59839916D01*
X151257144Y-59839916D02*
X151180954Y-59687535D01*
X151180954Y-59687535D02*
X151104763Y-59611344D01*
X151104763Y-59611344D02*
X150952382Y-59535154D01*
X150952382Y-59535154D02*
X150647620Y-59535154D01*
X150647620Y-59535154D02*
X150495239Y-59611344D01*
X150495239Y-59611344D02*
X150419049Y-59687535D01*
X150419049Y-59687535D02*
X150342858Y-59839916D01*
X154076193Y-60373249D02*
X154000002Y-60449440D01*
X154000002Y-60449440D02*
X153771431Y-60525630D01*
X153771431Y-60525630D02*
X153619050Y-60525630D01*
X153619050Y-60525630D02*
X153390478Y-60449440D01*
X153390478Y-60449440D02*
X153238097Y-60297059D01*
X153238097Y-60297059D02*
X153161907Y-60144678D01*
X153161907Y-60144678D02*
X153085716Y-59839916D01*
X153085716Y-59839916D02*
X153085716Y-59611344D01*
X153085716Y-59611344D02*
X153161907Y-59306582D01*
X153161907Y-59306582D02*
X153238097Y-59154201D01*
X153238097Y-59154201D02*
X153390478Y-59001820D01*
X153390478Y-59001820D02*
X153619050Y-58925630D01*
X153619050Y-58925630D02*
X153771431Y-58925630D01*
X153771431Y-58925630D02*
X154000002Y-59001820D01*
X154000002Y-59001820D02*
X154076193Y-59078011D01*
X155066669Y-58925630D02*
X155371431Y-58925630D01*
X155371431Y-58925630D02*
X155523812Y-59001820D01*
X155523812Y-59001820D02*
X155676193Y-59154201D01*
X155676193Y-59154201D02*
X155752383Y-59458963D01*
X155752383Y-59458963D02*
X155752383Y-59992297D01*
X155752383Y-59992297D02*
X155676193Y-60297059D01*
X155676193Y-60297059D02*
X155523812Y-60449440D01*
X155523812Y-60449440D02*
X155371431Y-60525630D01*
X155371431Y-60525630D02*
X155066669Y-60525630D01*
X155066669Y-60525630D02*
X154914288Y-60449440D01*
X154914288Y-60449440D02*
X154761907Y-60297059D01*
X154761907Y-60297059D02*
X154685716Y-59992297D01*
X154685716Y-59992297D02*
X154685716Y-59458963D01*
X154685716Y-59458963D02*
X154761907Y-59154201D01*
X154761907Y-59154201D02*
X154914288Y-59001820D01*
X154914288Y-59001820D02*
X155066669Y-58925630D01*
X157352383Y-60525630D02*
X156819049Y-59763725D01*
X156438097Y-60525630D02*
X156438097Y-58925630D01*
X156438097Y-58925630D02*
X157047621Y-58925630D01*
X157047621Y-58925630D02*
X157200002Y-59001820D01*
X157200002Y-59001820D02*
X157276192Y-59078011D01*
X157276192Y-59078011D02*
X157352383Y-59230392D01*
X157352383Y-59230392D02*
X157352383Y-59458963D01*
X157352383Y-59458963D02*
X157276192Y-59611344D01*
X157276192Y-59611344D02*
X157200002Y-59687535D01*
X157200002Y-59687535D02*
X157047621Y-59763725D01*
X157047621Y-59763725D02*
X156438097Y-59763725D01*
X158038097Y-59687535D02*
X158571430Y-59687535D01*
X158800002Y-60525630D02*
X158038097Y-60525630D01*
X158038097Y-60525630D02*
X158038097Y-58925630D01*
X158038097Y-58925630D02*
X158800002Y-58925630D01*
X161238097Y-59687535D02*
X161466669Y-59763725D01*
X161466669Y-59763725D02*
X161542859Y-59839916D01*
X161542859Y-59839916D02*
X161619050Y-59992297D01*
X161619050Y-59992297D02*
X161619050Y-60220868D01*
X161619050Y-60220868D02*
X161542859Y-60373249D01*
X161542859Y-60373249D02*
X161466669Y-60449440D01*
X161466669Y-60449440D02*
X161314288Y-60525630D01*
X161314288Y-60525630D02*
X160704764Y-60525630D01*
X160704764Y-60525630D02*
X160704764Y-58925630D01*
X160704764Y-58925630D02*
X161238097Y-58925630D01*
X161238097Y-58925630D02*
X161390478Y-59001820D01*
X161390478Y-59001820D02*
X161466669Y-59078011D01*
X161466669Y-59078011D02*
X161542859Y-59230392D01*
X161542859Y-59230392D02*
X161542859Y-59382773D01*
X161542859Y-59382773D02*
X161466669Y-59535154D01*
X161466669Y-59535154D02*
X161390478Y-59611344D01*
X161390478Y-59611344D02*
X161238097Y-59687535D01*
X161238097Y-59687535D02*
X160704764Y-59687535D01*
X162609526Y-58925630D02*
X162914288Y-58925630D01*
X162914288Y-58925630D02*
X163066669Y-59001820D01*
X163066669Y-59001820D02*
X163219050Y-59154201D01*
X163219050Y-59154201D02*
X163295240Y-59458963D01*
X163295240Y-59458963D02*
X163295240Y-59992297D01*
X163295240Y-59992297D02*
X163219050Y-60297059D01*
X163219050Y-60297059D02*
X163066669Y-60449440D01*
X163066669Y-60449440D02*
X162914288Y-60525630D01*
X162914288Y-60525630D02*
X162609526Y-60525630D01*
X162609526Y-60525630D02*
X162457145Y-60449440D01*
X162457145Y-60449440D02*
X162304764Y-60297059D01*
X162304764Y-60297059D02*
X162228573Y-59992297D01*
X162228573Y-59992297D02*
X162228573Y-59458963D01*
X162228573Y-59458963D02*
X162304764Y-59154201D01*
X162304764Y-59154201D02*
X162457145Y-59001820D01*
X162457145Y-59001820D02*
X162609526Y-58925630D01*
X163904763Y-60068487D02*
X164666668Y-60068487D01*
X163752382Y-60525630D02*
X164285716Y-58925630D01*
X164285716Y-58925630D02*
X164819049Y-60525630D01*
X166266669Y-60525630D02*
X165733335Y-59763725D01*
X165352383Y-60525630D02*
X165352383Y-58925630D01*
X165352383Y-58925630D02*
X165961907Y-58925630D01*
X165961907Y-58925630D02*
X166114288Y-59001820D01*
X166114288Y-59001820D02*
X166190478Y-59078011D01*
X166190478Y-59078011D02*
X166266669Y-59230392D01*
X166266669Y-59230392D02*
X166266669Y-59458963D01*
X166266669Y-59458963D02*
X166190478Y-59611344D01*
X166190478Y-59611344D02*
X166114288Y-59687535D01*
X166114288Y-59687535D02*
X165961907Y-59763725D01*
X165961907Y-59763725D02*
X165352383Y-59763725D01*
X166952383Y-60525630D02*
X166952383Y-58925630D01*
X166952383Y-58925630D02*
X167333335Y-58925630D01*
X167333335Y-58925630D02*
X167561907Y-59001820D01*
X167561907Y-59001820D02*
X167714288Y-59154201D01*
X167714288Y-59154201D02*
X167790478Y-59306582D01*
X167790478Y-59306582D02*
X167866669Y-59611344D01*
X167866669Y-59611344D02*
X167866669Y-59839916D01*
X167866669Y-59839916D02*
X167790478Y-60144678D01*
X167790478Y-60144678D02*
X167714288Y-60297059D01*
X167714288Y-60297059D02*
X167561907Y-60449440D01*
X167561907Y-60449440D02*
X167333335Y-60525630D01*
X167333335Y-60525630D02*
X166952383Y-60525630D01*
D10*
X158590942Y-77457142D02*
X158562371Y-77514285D01*
X158562371Y-77514285D02*
X158562371Y-77599999D01*
X158562371Y-77599999D02*
X158590942Y-77685713D01*
X158590942Y-77685713D02*
X158648085Y-77742856D01*
X158648085Y-77742856D02*
X158705228Y-77771427D01*
X158705228Y-77771427D02*
X158819514Y-77799999D01*
X158819514Y-77799999D02*
X158905228Y-77799999D01*
X158905228Y-77799999D02*
X159019514Y-77771427D01*
X159019514Y-77771427D02*
X159076657Y-77742856D01*
X159076657Y-77742856D02*
X159133800Y-77685713D01*
X159133800Y-77685713D02*
X159162371Y-77599999D01*
X159162371Y-77599999D02*
X159162371Y-77542856D01*
X159162371Y-77542856D02*
X159133800Y-77457142D01*
X159133800Y-77457142D02*
X159105228Y-77428570D01*
X159105228Y-77428570D02*
X158905228Y-77428570D01*
X158905228Y-77428570D02*
X158905228Y-77542856D01*
X159162371Y-77171427D02*
X158562371Y-77171427D01*
X158562371Y-77171427D02*
X159162371Y-76828570D01*
X159162371Y-76828570D02*
X158562371Y-76828570D01*
X159162371Y-76542856D02*
X158562371Y-76542856D01*
X158562371Y-76542856D02*
X158562371Y-76399999D01*
X158562371Y-76399999D02*
X158590942Y-76314285D01*
X158590942Y-76314285D02*
X158648085Y-76257142D01*
X158648085Y-76257142D02*
X158705228Y-76228571D01*
X158705228Y-76228571D02*
X158819514Y-76199999D01*
X158819514Y-76199999D02*
X158905228Y-76199999D01*
X158905228Y-76199999D02*
X159019514Y-76228571D01*
X159019514Y-76228571D02*
X159076657Y-76257142D01*
X159076657Y-76257142D02*
X159133800Y-76314285D01*
X159133800Y-76314285D02*
X159162371Y-76399999D01*
X159162371Y-76399999D02*
X159162371Y-76542856D01*
X126300000Y-121862371D02*
X126300000Y-121262371D01*
X126300000Y-121262371D02*
X126528571Y-121262371D01*
X126528571Y-121262371D02*
X126585714Y-121290942D01*
X126585714Y-121290942D02*
X126614285Y-121319514D01*
X126614285Y-121319514D02*
X126642857Y-121376657D01*
X126642857Y-121376657D02*
X126642857Y-121462371D01*
X126642857Y-121462371D02*
X126614285Y-121519514D01*
X126614285Y-121519514D02*
X126585714Y-121548085D01*
X126585714Y-121548085D02*
X126528571Y-121576657D01*
X126528571Y-121576657D02*
X126300000Y-121576657D01*
X126871428Y-121690942D02*
X127157143Y-121690942D01*
X126814285Y-121862371D02*
X127014285Y-121262371D01*
X127014285Y-121262371D02*
X127214285Y-121862371D01*
X127728571Y-121862371D02*
X127385714Y-121862371D01*
X127557143Y-121862371D02*
X127557143Y-121262371D01*
X127557143Y-121262371D02*
X127500000Y-121348085D01*
X127500000Y-121348085D02*
X127442857Y-121405228D01*
X127442857Y-121405228D02*
X127385714Y-121433800D01*
X133762371Y-77742856D02*
X133162371Y-77742856D01*
X133162371Y-77742856D02*
X133162371Y-77514285D01*
X133162371Y-77514285D02*
X133190942Y-77457142D01*
X133190942Y-77457142D02*
X133219514Y-77428571D01*
X133219514Y-77428571D02*
X133276657Y-77399999D01*
X133276657Y-77399999D02*
X133362371Y-77399999D01*
X133362371Y-77399999D02*
X133419514Y-77428571D01*
X133419514Y-77428571D02*
X133448085Y-77457142D01*
X133448085Y-77457142D02*
X133476657Y-77514285D01*
X133476657Y-77514285D02*
X133476657Y-77742856D01*
X133448085Y-76942856D02*
X133476657Y-76857142D01*
X133476657Y-76857142D02*
X133505228Y-76828571D01*
X133505228Y-76828571D02*
X133562371Y-76799999D01*
X133562371Y-76799999D02*
X133648085Y-76799999D01*
X133648085Y-76799999D02*
X133705228Y-76828571D01*
X133705228Y-76828571D02*
X133733800Y-76857142D01*
X133733800Y-76857142D02*
X133762371Y-76914285D01*
X133762371Y-76914285D02*
X133762371Y-77142856D01*
X133762371Y-77142856D02*
X133162371Y-77142856D01*
X133162371Y-77142856D02*
X133162371Y-76942856D01*
X133162371Y-76942856D02*
X133190942Y-76885714D01*
X133190942Y-76885714D02*
X133219514Y-76857142D01*
X133219514Y-76857142D02*
X133276657Y-76828571D01*
X133276657Y-76828571D02*
X133333800Y-76828571D01*
X133333800Y-76828571D02*
X133390942Y-76857142D01*
X133390942Y-76857142D02*
X133419514Y-76885714D01*
X133419514Y-76885714D02*
X133448085Y-76942856D01*
X133448085Y-76942856D02*
X133448085Y-77142856D01*
X133762371Y-76514285D02*
X133762371Y-76399999D01*
X133762371Y-76399999D02*
X133733800Y-76342856D01*
X133733800Y-76342856D02*
X133705228Y-76314285D01*
X133705228Y-76314285D02*
X133619514Y-76257142D01*
X133619514Y-76257142D02*
X133505228Y-76228571D01*
X133505228Y-76228571D02*
X133276657Y-76228571D01*
X133276657Y-76228571D02*
X133219514Y-76257142D01*
X133219514Y-76257142D02*
X133190942Y-76285714D01*
X133190942Y-76285714D02*
X133162371Y-76342856D01*
X133162371Y-76342856D02*
X133162371Y-76457142D01*
X133162371Y-76457142D02*
X133190942Y-76514285D01*
X133190942Y-76514285D02*
X133219514Y-76542856D01*
X133219514Y-76542856D02*
X133276657Y-76571428D01*
X133276657Y-76571428D02*
X133419514Y-76571428D01*
X133419514Y-76571428D02*
X133476657Y-76542856D01*
X133476657Y-76542856D02*
X133505228Y-76514285D01*
X133505228Y-76514285D02*
X133533800Y-76457142D01*
X133533800Y-76457142D02*
X133533800Y-76342856D01*
X133533800Y-76342856D02*
X133505228Y-76285714D01*
X133505228Y-76285714D02*
X133476657Y-76257142D01*
X133476657Y-76257142D02*
X133419514Y-76228571D01*
X126528572Y-88842371D02*
X126528572Y-88242371D01*
X126528572Y-88242371D02*
X126871429Y-88842371D01*
X126871429Y-88842371D02*
X126871429Y-88242371D01*
X127500000Y-88785228D02*
X127471428Y-88813800D01*
X127471428Y-88813800D02*
X127385714Y-88842371D01*
X127385714Y-88842371D02*
X127328571Y-88842371D01*
X127328571Y-88842371D02*
X127242857Y-88813800D01*
X127242857Y-88813800D02*
X127185714Y-88756657D01*
X127185714Y-88756657D02*
X127157143Y-88699514D01*
X127157143Y-88699514D02*
X127128571Y-88585228D01*
X127128571Y-88585228D02*
X127128571Y-88499514D01*
X127128571Y-88499514D02*
X127157143Y-88385228D01*
X127157143Y-88385228D02*
X127185714Y-88328085D01*
X127185714Y-88328085D02*
X127242857Y-88270942D01*
X127242857Y-88270942D02*
X127328571Y-88242371D01*
X127328571Y-88242371D02*
X127385714Y-88242371D01*
X127385714Y-88242371D02*
X127471428Y-88270942D01*
X127471428Y-88270942D02*
X127500000Y-88299514D01*
X164242371Y-77742856D02*
X163642371Y-77742856D01*
X163642371Y-77742856D02*
X163642371Y-77514285D01*
X163642371Y-77514285D02*
X163670942Y-77457142D01*
X163670942Y-77457142D02*
X163699514Y-77428571D01*
X163699514Y-77428571D02*
X163756657Y-77399999D01*
X163756657Y-77399999D02*
X163842371Y-77399999D01*
X163842371Y-77399999D02*
X163899514Y-77428571D01*
X163899514Y-77428571D02*
X163928085Y-77457142D01*
X163928085Y-77457142D02*
X163956657Y-77514285D01*
X163956657Y-77514285D02*
X163956657Y-77742856D01*
X164242371Y-77142856D02*
X163642371Y-77142856D01*
X163642371Y-77142856D02*
X163642371Y-76999999D01*
X163642371Y-76999999D02*
X163670942Y-76914285D01*
X163670942Y-76914285D02*
X163728085Y-76857142D01*
X163728085Y-76857142D02*
X163785228Y-76828571D01*
X163785228Y-76828571D02*
X163899514Y-76799999D01*
X163899514Y-76799999D02*
X163985228Y-76799999D01*
X163985228Y-76799999D02*
X164099514Y-76828571D01*
X164099514Y-76828571D02*
X164156657Y-76857142D01*
X164156657Y-76857142D02*
X164213800Y-76914285D01*
X164213800Y-76914285D02*
X164242371Y-76999999D01*
X164242371Y-76999999D02*
X164242371Y-77142856D01*
X163699514Y-76571428D02*
X163670942Y-76542856D01*
X163670942Y-76542856D02*
X163642371Y-76485714D01*
X163642371Y-76485714D02*
X163642371Y-76342856D01*
X163642371Y-76342856D02*
X163670942Y-76285714D01*
X163670942Y-76285714D02*
X163699514Y-76257142D01*
X163699514Y-76257142D02*
X163756657Y-76228571D01*
X163756657Y-76228571D02*
X163813800Y-76228571D01*
X163813800Y-76228571D02*
X163899514Y-76257142D01*
X163899514Y-76257142D02*
X164242371Y-76599999D01*
X164242371Y-76599999D02*
X164242371Y-76228571D01*
X151542371Y-123985713D02*
X150942371Y-123985713D01*
X150942371Y-123985713D02*
X150942371Y-123757142D01*
X150942371Y-123757142D02*
X150970942Y-123699999D01*
X150970942Y-123699999D02*
X150999514Y-123671428D01*
X150999514Y-123671428D02*
X151056657Y-123642856D01*
X151056657Y-123642856D02*
X151142371Y-123642856D01*
X151142371Y-123642856D02*
X151199514Y-123671428D01*
X151199514Y-123671428D02*
X151228085Y-123699999D01*
X151228085Y-123699999D02*
X151256657Y-123757142D01*
X151256657Y-123757142D02*
X151256657Y-123985713D01*
X151228085Y-123185713D02*
X151228085Y-123385713D01*
X151542371Y-123385713D02*
X150942371Y-123385713D01*
X150942371Y-123385713D02*
X150942371Y-123099999D01*
X151542371Y-122557142D02*
X151542371Y-122899999D01*
X151542371Y-122728570D02*
X150942371Y-122728570D01*
X150942371Y-122728570D02*
X151028085Y-122785713D01*
X151028085Y-122785713D02*
X151085228Y-122842856D01*
X151085228Y-122842856D02*
X151113800Y-122899999D01*
X150942371Y-122014284D02*
X150942371Y-122299998D01*
X150942371Y-122299998D02*
X151228085Y-122328570D01*
X151228085Y-122328570D02*
X151199514Y-122299998D01*
X151199514Y-122299998D02*
X151170942Y-122242856D01*
X151170942Y-122242856D02*
X151170942Y-122099998D01*
X151170942Y-122099998D02*
X151199514Y-122042856D01*
X151199514Y-122042856D02*
X151228085Y-122014284D01*
X151228085Y-122014284D02*
X151285228Y-121985713D01*
X151285228Y-121985713D02*
X151428085Y-121985713D01*
X151428085Y-121985713D02*
X151485228Y-122014284D01*
X151485228Y-122014284D02*
X151513800Y-122042856D01*
X151513800Y-122042856D02*
X151542371Y-122099998D01*
X151542371Y-122099998D02*
X151542371Y-122242856D01*
X151542371Y-122242856D02*
X151513800Y-122299998D01*
X151513800Y-122299998D02*
X151485228Y-122328570D01*
X141382371Y-123742855D02*
X140782371Y-123742855D01*
X140782371Y-123742855D02*
X140782371Y-123514284D01*
X140782371Y-123514284D02*
X140810942Y-123457141D01*
X140810942Y-123457141D02*
X140839514Y-123428570D01*
X140839514Y-123428570D02*
X140896657Y-123399998D01*
X140896657Y-123399998D02*
X140982371Y-123399998D01*
X140982371Y-123399998D02*
X141039514Y-123428570D01*
X141039514Y-123428570D02*
X141068085Y-123457141D01*
X141068085Y-123457141D02*
X141096657Y-123514284D01*
X141096657Y-123514284D02*
X141096657Y-123742855D01*
X141068085Y-122942855D02*
X141096657Y-122857141D01*
X141096657Y-122857141D02*
X141125228Y-122828570D01*
X141125228Y-122828570D02*
X141182371Y-122799998D01*
X141182371Y-122799998D02*
X141268085Y-122799998D01*
X141268085Y-122799998D02*
X141325228Y-122828570D01*
X141325228Y-122828570D02*
X141353800Y-122857141D01*
X141353800Y-122857141D02*
X141382371Y-122914284D01*
X141382371Y-122914284D02*
X141382371Y-123142855D01*
X141382371Y-123142855D02*
X140782371Y-123142855D01*
X140782371Y-123142855D02*
X140782371Y-122942855D01*
X140782371Y-122942855D02*
X140810942Y-122885713D01*
X140810942Y-122885713D02*
X140839514Y-122857141D01*
X140839514Y-122857141D02*
X140896657Y-122828570D01*
X140896657Y-122828570D02*
X140953800Y-122828570D01*
X140953800Y-122828570D02*
X141010942Y-122857141D01*
X141010942Y-122857141D02*
X141039514Y-122885713D01*
X141039514Y-122885713D02*
X141068085Y-122942855D01*
X141068085Y-122942855D02*
X141068085Y-123142855D01*
X141382371Y-122228570D02*
X141382371Y-122571427D01*
X141382371Y-122399998D02*
X140782371Y-122399998D01*
X140782371Y-122399998D02*
X140868085Y-122457141D01*
X140868085Y-122457141D02*
X140925228Y-122514284D01*
X140925228Y-122514284D02*
X140953800Y-122571427D01*
X171971428Y-114242371D02*
X171971428Y-113642371D01*
X171971428Y-113642371D02*
X172199999Y-113642371D01*
X172199999Y-113642371D02*
X172257142Y-113670942D01*
X172257142Y-113670942D02*
X172285713Y-113699514D01*
X172285713Y-113699514D02*
X172314285Y-113756657D01*
X172314285Y-113756657D02*
X172314285Y-113842371D01*
X172314285Y-113842371D02*
X172285713Y-113899514D01*
X172285713Y-113899514D02*
X172257142Y-113928085D01*
X172257142Y-113928085D02*
X172199999Y-113956657D01*
X172199999Y-113956657D02*
X171971428Y-113956657D01*
X172571428Y-114242371D02*
X172571428Y-113642371D01*
X172571428Y-113642371D02*
X172714285Y-113642371D01*
X172714285Y-113642371D02*
X172799999Y-113670942D01*
X172799999Y-113670942D02*
X172857142Y-113728085D01*
X172857142Y-113728085D02*
X172885713Y-113785228D01*
X172885713Y-113785228D02*
X172914285Y-113899514D01*
X172914285Y-113899514D02*
X172914285Y-113985228D01*
X172914285Y-113985228D02*
X172885713Y-114099514D01*
X172885713Y-114099514D02*
X172857142Y-114156657D01*
X172857142Y-114156657D02*
X172799999Y-114213800D01*
X172799999Y-114213800D02*
X172714285Y-114242371D01*
X172714285Y-114242371D02*
X172571428Y-114242371D01*
X173485713Y-114242371D02*
X173142856Y-114242371D01*
X173314285Y-114242371D02*
X173314285Y-113642371D01*
X173314285Y-113642371D02*
X173257142Y-113728085D01*
X173257142Y-113728085D02*
X173199999Y-113785228D01*
X173199999Y-113785228D02*
X173142856Y-113813800D01*
X174057142Y-114242371D02*
X173714285Y-114242371D01*
X173885714Y-114242371D02*
X173885714Y-113642371D01*
X173885714Y-113642371D02*
X173828571Y-113728085D01*
X173828571Y-113728085D02*
X173771428Y-113785228D01*
X173771428Y-113785228D02*
X173714285Y-113813800D01*
X128682371Y-123699998D02*
X128082371Y-123699998D01*
X128082371Y-123699998D02*
X128082371Y-123471427D01*
X128082371Y-123471427D02*
X128110942Y-123414284D01*
X128110942Y-123414284D02*
X128139514Y-123385713D01*
X128139514Y-123385713D02*
X128196657Y-123357141D01*
X128196657Y-123357141D02*
X128282371Y-123357141D01*
X128282371Y-123357141D02*
X128339514Y-123385713D01*
X128339514Y-123385713D02*
X128368085Y-123414284D01*
X128368085Y-123414284D02*
X128396657Y-123471427D01*
X128396657Y-123471427D02*
X128396657Y-123699998D01*
X128510942Y-123128570D02*
X128510942Y-122842856D01*
X128682371Y-123185713D02*
X128082371Y-122985713D01*
X128082371Y-122985713D02*
X128682371Y-122785713D01*
X128082371Y-122642855D02*
X128082371Y-122271427D01*
X128082371Y-122271427D02*
X128310942Y-122471427D01*
X128310942Y-122471427D02*
X128310942Y-122385712D01*
X128310942Y-122385712D02*
X128339514Y-122328570D01*
X128339514Y-122328570D02*
X128368085Y-122299998D01*
X128368085Y-122299998D02*
X128425228Y-122271427D01*
X128425228Y-122271427D02*
X128568085Y-122271427D01*
X128568085Y-122271427D02*
X128625228Y-122299998D01*
X128625228Y-122299998D02*
X128653800Y-122328570D01*
X128653800Y-122328570D02*
X128682371Y-122385712D01*
X128682371Y-122385712D02*
X128682371Y-122557141D01*
X128682371Y-122557141D02*
X128653800Y-122614284D01*
X128653800Y-122614284D02*
X128625228Y-122642855D01*
X126285714Y-81222371D02*
X126285714Y-80622371D01*
X126285714Y-80622371D02*
X126514285Y-80622371D01*
X126514285Y-80622371D02*
X126571428Y-80650942D01*
X126571428Y-80650942D02*
X126599999Y-80679514D01*
X126599999Y-80679514D02*
X126628571Y-80736657D01*
X126628571Y-80736657D02*
X126628571Y-80822371D01*
X126628571Y-80822371D02*
X126599999Y-80879514D01*
X126599999Y-80879514D02*
X126571428Y-80908085D01*
X126571428Y-80908085D02*
X126514285Y-80936657D01*
X126514285Y-80936657D02*
X126285714Y-80936657D01*
X126885714Y-80908085D02*
X127085714Y-80908085D01*
X127171428Y-81222371D02*
X126885714Y-81222371D01*
X126885714Y-81222371D02*
X126885714Y-80622371D01*
X126885714Y-80622371D02*
X127171428Y-80622371D01*
X127685714Y-80822371D02*
X127685714Y-81222371D01*
X127542856Y-80593800D02*
X127399999Y-81022371D01*
X127399999Y-81022371D02*
X127771428Y-81022371D01*
X161702371Y-123999998D02*
X161102371Y-123999998D01*
X161102371Y-123999998D02*
X161102371Y-123771427D01*
X161102371Y-123771427D02*
X161130942Y-123714284D01*
X161130942Y-123714284D02*
X161159514Y-123685713D01*
X161159514Y-123685713D02*
X161216657Y-123657141D01*
X161216657Y-123657141D02*
X161302371Y-123657141D01*
X161302371Y-123657141D02*
X161359514Y-123685713D01*
X161359514Y-123685713D02*
X161388085Y-123714284D01*
X161388085Y-123714284D02*
X161416657Y-123771427D01*
X161416657Y-123771427D02*
X161416657Y-123999998D01*
X161388085Y-123399998D02*
X161388085Y-123199998D01*
X161702371Y-123114284D02*
X161702371Y-123399998D01*
X161702371Y-123399998D02*
X161102371Y-123399998D01*
X161102371Y-123399998D02*
X161102371Y-123114284D01*
X161702371Y-122542856D02*
X161702371Y-122885713D01*
X161702371Y-122714284D02*
X161102371Y-122714284D01*
X161102371Y-122714284D02*
X161188085Y-122771427D01*
X161188085Y-122771427D02*
X161245228Y-122828570D01*
X161245228Y-122828570D02*
X161273800Y-122885713D01*
X161102371Y-122171427D02*
X161102371Y-122114284D01*
X161102371Y-122114284D02*
X161130942Y-122057141D01*
X161130942Y-122057141D02*
X161159514Y-122028570D01*
X161159514Y-122028570D02*
X161216657Y-121999998D01*
X161216657Y-121999998D02*
X161330942Y-121971427D01*
X161330942Y-121971427D02*
X161473800Y-121971427D01*
X161473800Y-121971427D02*
X161588085Y-121999998D01*
X161588085Y-121999998D02*
X161645228Y-122028570D01*
X161645228Y-122028570D02*
X161673800Y-122057141D01*
X161673800Y-122057141D02*
X161702371Y-122114284D01*
X161702371Y-122114284D02*
X161702371Y-122171427D01*
X161702371Y-122171427D02*
X161673800Y-122228570D01*
X161673800Y-122228570D02*
X161645228Y-122257141D01*
X161645228Y-122257141D02*
X161588085Y-122285712D01*
X161588085Y-122285712D02*
X161473800Y-122314284D01*
X161473800Y-122314284D02*
X161330942Y-122314284D01*
X161330942Y-122314284D02*
X161216657Y-122285712D01*
X161216657Y-122285712D02*
X161159514Y-122257141D01*
X161159514Y-122257141D02*
X161130942Y-122228570D01*
X161130942Y-122228570D02*
X161102371Y-122171427D01*
X126257143Y-111702371D02*
X126257143Y-111102371D01*
X126257143Y-111102371D02*
X126485714Y-111102371D01*
X126485714Y-111102371D02*
X126542857Y-111130942D01*
X126542857Y-111130942D02*
X126571428Y-111159514D01*
X126571428Y-111159514D02*
X126600000Y-111216657D01*
X126600000Y-111216657D02*
X126600000Y-111302371D01*
X126600000Y-111302371D02*
X126571428Y-111359514D01*
X126571428Y-111359514D02*
X126542857Y-111388085D01*
X126542857Y-111388085D02*
X126485714Y-111416657D01*
X126485714Y-111416657D02*
X126257143Y-111416657D01*
X127200000Y-111645228D02*
X127171428Y-111673800D01*
X127171428Y-111673800D02*
X127085714Y-111702371D01*
X127085714Y-111702371D02*
X127028571Y-111702371D01*
X127028571Y-111702371D02*
X126942857Y-111673800D01*
X126942857Y-111673800D02*
X126885714Y-111616657D01*
X126885714Y-111616657D02*
X126857143Y-111559514D01*
X126857143Y-111559514D02*
X126828571Y-111445228D01*
X126828571Y-111445228D02*
X126828571Y-111359514D01*
X126828571Y-111359514D02*
X126857143Y-111245228D01*
X126857143Y-111245228D02*
X126885714Y-111188085D01*
X126885714Y-111188085D02*
X126942857Y-111130942D01*
X126942857Y-111130942D02*
X127028571Y-111102371D01*
X127028571Y-111102371D02*
X127085714Y-111102371D01*
X127085714Y-111102371D02*
X127171428Y-111130942D01*
X127171428Y-111130942D02*
X127200000Y-111159514D01*
X127771428Y-111702371D02*
X127428571Y-111702371D01*
X127600000Y-111702371D02*
X127600000Y-111102371D01*
X127600000Y-111102371D02*
X127542857Y-111188085D01*
X127542857Y-111188085D02*
X127485714Y-111245228D01*
X127485714Y-111245228D02*
X127428571Y-111273800D01*
X171414286Y-83162371D02*
X171414286Y-83648085D01*
X171414286Y-83648085D02*
X171442857Y-83705228D01*
X171442857Y-83705228D02*
X171471429Y-83733800D01*
X171471429Y-83733800D02*
X171528571Y-83762371D01*
X171528571Y-83762371D02*
X171642857Y-83762371D01*
X171642857Y-83762371D02*
X171700000Y-83733800D01*
X171700000Y-83733800D02*
X171728571Y-83705228D01*
X171728571Y-83705228D02*
X171757143Y-83648085D01*
X171757143Y-83648085D02*
X171757143Y-83162371D01*
X172014285Y-83733800D02*
X172100000Y-83762371D01*
X172100000Y-83762371D02*
X172242857Y-83762371D01*
X172242857Y-83762371D02*
X172300000Y-83733800D01*
X172300000Y-83733800D02*
X172328571Y-83705228D01*
X172328571Y-83705228D02*
X172357142Y-83648085D01*
X172357142Y-83648085D02*
X172357142Y-83590942D01*
X172357142Y-83590942D02*
X172328571Y-83533800D01*
X172328571Y-83533800D02*
X172300000Y-83505228D01*
X172300000Y-83505228D02*
X172242857Y-83476657D01*
X172242857Y-83476657D02*
X172128571Y-83448085D01*
X172128571Y-83448085D02*
X172071428Y-83419514D01*
X172071428Y-83419514D02*
X172042857Y-83390942D01*
X172042857Y-83390942D02*
X172014285Y-83333800D01*
X172014285Y-83333800D02*
X172014285Y-83276657D01*
X172014285Y-83276657D02*
X172042857Y-83219514D01*
X172042857Y-83219514D02*
X172071428Y-83190942D01*
X172071428Y-83190942D02*
X172128571Y-83162371D01*
X172128571Y-83162371D02*
X172271428Y-83162371D01*
X172271428Y-83162371D02*
X172357142Y-83190942D01*
X172814286Y-83448085D02*
X172900000Y-83476657D01*
X172900000Y-83476657D02*
X172928571Y-83505228D01*
X172928571Y-83505228D02*
X172957143Y-83562371D01*
X172957143Y-83562371D02*
X172957143Y-83648085D01*
X172957143Y-83648085D02*
X172928571Y-83705228D01*
X172928571Y-83705228D02*
X172900000Y-83733800D01*
X172900000Y-83733800D02*
X172842857Y-83762371D01*
X172842857Y-83762371D02*
X172614286Y-83762371D01*
X172614286Y-83762371D02*
X172614286Y-83162371D01*
X172614286Y-83162371D02*
X172814286Y-83162371D01*
X172814286Y-83162371D02*
X172871429Y-83190942D01*
X172871429Y-83190942D02*
X172900000Y-83219514D01*
X172900000Y-83219514D02*
X172928571Y-83276657D01*
X172928571Y-83276657D02*
X172928571Y-83333800D01*
X172928571Y-83333800D02*
X172900000Y-83390942D01*
X172900000Y-83390942D02*
X172871429Y-83419514D01*
X172871429Y-83419514D02*
X172814286Y-83448085D01*
X172814286Y-83448085D02*
X172614286Y-83448085D01*
X173071429Y-83819514D02*
X173528571Y-83819514D01*
X173671429Y-83762371D02*
X173671429Y-83162371D01*
X173671429Y-83162371D02*
X173814286Y-83162371D01*
X173814286Y-83162371D02*
X173900000Y-83190942D01*
X173900000Y-83190942D02*
X173957143Y-83248085D01*
X173957143Y-83248085D02*
X173985714Y-83305228D01*
X173985714Y-83305228D02*
X174014286Y-83419514D01*
X174014286Y-83419514D02*
X174014286Y-83505228D01*
X174014286Y-83505228D02*
X173985714Y-83619514D01*
X173985714Y-83619514D02*
X173957143Y-83676657D01*
X173957143Y-83676657D02*
X173900000Y-83733800D01*
X173900000Y-83733800D02*
X173814286Y-83762371D01*
X173814286Y-83762371D02*
X173671429Y-83762371D01*
X174271429Y-83762371D02*
X174271429Y-83162371D01*
X174271429Y-83162371D02*
X174500000Y-83162371D01*
X174500000Y-83162371D02*
X174557143Y-83190942D01*
X174557143Y-83190942D02*
X174585714Y-83219514D01*
X174585714Y-83219514D02*
X174614286Y-83276657D01*
X174614286Y-83276657D02*
X174614286Y-83362371D01*
X174614286Y-83362371D02*
X174585714Y-83419514D01*
X174585714Y-83419514D02*
X174557143Y-83448085D01*
X174557143Y-83448085D02*
X174500000Y-83476657D01*
X174500000Y-83476657D02*
X174271429Y-83476657D01*
X154082371Y-77742856D02*
X153482371Y-77742856D01*
X153482371Y-77742856D02*
X153482371Y-77514285D01*
X153482371Y-77514285D02*
X153510942Y-77457142D01*
X153510942Y-77457142D02*
X153539514Y-77428571D01*
X153539514Y-77428571D02*
X153596657Y-77399999D01*
X153596657Y-77399999D02*
X153682371Y-77399999D01*
X153682371Y-77399999D02*
X153739514Y-77428571D01*
X153739514Y-77428571D02*
X153768085Y-77457142D01*
X153768085Y-77457142D02*
X153796657Y-77514285D01*
X153796657Y-77514285D02*
X153796657Y-77742856D01*
X153510942Y-76828571D02*
X153482371Y-76885714D01*
X153482371Y-76885714D02*
X153482371Y-76971428D01*
X153482371Y-76971428D02*
X153510942Y-77057142D01*
X153510942Y-77057142D02*
X153568085Y-77114285D01*
X153568085Y-77114285D02*
X153625228Y-77142856D01*
X153625228Y-77142856D02*
X153739514Y-77171428D01*
X153739514Y-77171428D02*
X153825228Y-77171428D01*
X153825228Y-77171428D02*
X153939514Y-77142856D01*
X153939514Y-77142856D02*
X153996657Y-77114285D01*
X153996657Y-77114285D02*
X154053800Y-77057142D01*
X154053800Y-77057142D02*
X154082371Y-76971428D01*
X154082371Y-76971428D02*
X154082371Y-76914285D01*
X154082371Y-76914285D02*
X154053800Y-76828571D01*
X154053800Y-76828571D02*
X154025228Y-76799999D01*
X154025228Y-76799999D02*
X153825228Y-76799999D01*
X153825228Y-76799999D02*
X153825228Y-76914285D01*
X154082371Y-76514285D02*
X154082371Y-76399999D01*
X154082371Y-76399999D02*
X154053800Y-76342856D01*
X154053800Y-76342856D02*
X154025228Y-76314285D01*
X154025228Y-76314285D02*
X153939514Y-76257142D01*
X153939514Y-76257142D02*
X153825228Y-76228571D01*
X153825228Y-76228571D02*
X153596657Y-76228571D01*
X153596657Y-76228571D02*
X153539514Y-76257142D01*
X153539514Y-76257142D02*
X153510942Y-76285714D01*
X153510942Y-76285714D02*
X153482371Y-76342856D01*
X153482371Y-76342856D02*
X153482371Y-76457142D01*
X153482371Y-76457142D02*
X153510942Y-76514285D01*
X153510942Y-76514285D02*
X153539514Y-76542856D01*
X153539514Y-76542856D02*
X153596657Y-76571428D01*
X153596657Y-76571428D02*
X153739514Y-76571428D01*
X153739514Y-76571428D02*
X153796657Y-76542856D01*
X153796657Y-76542856D02*
X153825228Y-76514285D01*
X153825228Y-76514285D02*
X153853800Y-76457142D01*
X153853800Y-76457142D02*
X153853800Y-76342856D01*
X153853800Y-76342856D02*
X153825228Y-76285714D01*
X153825228Y-76285714D02*
X153796657Y-76257142D01*
X153796657Y-76257142D02*
X153739514Y-76228571D01*
X172257143Y-104082371D02*
X172257143Y-103482371D01*
X172257143Y-103482371D02*
X172485714Y-103482371D01*
X172485714Y-103482371D02*
X172542857Y-103510942D01*
X172542857Y-103510942D02*
X172571428Y-103539514D01*
X172571428Y-103539514D02*
X172600000Y-103596657D01*
X172600000Y-103596657D02*
X172600000Y-103682371D01*
X172600000Y-103682371D02*
X172571428Y-103739514D01*
X172571428Y-103739514D02*
X172542857Y-103768085D01*
X172542857Y-103768085D02*
X172485714Y-103796657D01*
X172485714Y-103796657D02*
X172257143Y-103796657D01*
X173171428Y-103510942D02*
X173114286Y-103482371D01*
X173114286Y-103482371D02*
X173028571Y-103482371D01*
X173028571Y-103482371D02*
X172942857Y-103510942D01*
X172942857Y-103510942D02*
X172885714Y-103568085D01*
X172885714Y-103568085D02*
X172857143Y-103625228D01*
X172857143Y-103625228D02*
X172828571Y-103739514D01*
X172828571Y-103739514D02*
X172828571Y-103825228D01*
X172828571Y-103825228D02*
X172857143Y-103939514D01*
X172857143Y-103939514D02*
X172885714Y-103996657D01*
X172885714Y-103996657D02*
X172942857Y-104053800D01*
X172942857Y-104053800D02*
X173028571Y-104082371D01*
X173028571Y-104082371D02*
X173085714Y-104082371D01*
X173085714Y-104082371D02*
X173171428Y-104053800D01*
X173171428Y-104053800D02*
X173200000Y-104025228D01*
X173200000Y-104025228D02*
X173200000Y-103825228D01*
X173200000Y-103825228D02*
X173085714Y-103825228D01*
X173400000Y-103482371D02*
X173771428Y-103482371D01*
X173771428Y-103482371D02*
X173571428Y-103710942D01*
X173571428Y-103710942D02*
X173657143Y-103710942D01*
X173657143Y-103710942D02*
X173714286Y-103739514D01*
X173714286Y-103739514D02*
X173742857Y-103768085D01*
X173742857Y-103768085D02*
X173771428Y-103825228D01*
X173771428Y-103825228D02*
X173771428Y-103968085D01*
X173771428Y-103968085D02*
X173742857Y-104025228D01*
X173742857Y-104025228D02*
X173714286Y-104053800D01*
X173714286Y-104053800D02*
X173657143Y-104082371D01*
X173657143Y-104082371D02*
X173485714Y-104082371D01*
X173485714Y-104082371D02*
X173428571Y-104053800D01*
X173428571Y-104053800D02*
X173400000Y-104025228D01*
X126300000Y-101542371D02*
X126300000Y-100942371D01*
X126300000Y-100942371D02*
X126528571Y-100942371D01*
X126528571Y-100942371D02*
X126585714Y-100970942D01*
X126585714Y-100970942D02*
X126614285Y-100999514D01*
X126614285Y-100999514D02*
X126642857Y-101056657D01*
X126642857Y-101056657D02*
X126642857Y-101142371D01*
X126642857Y-101142371D02*
X126614285Y-101199514D01*
X126614285Y-101199514D02*
X126585714Y-101228085D01*
X126585714Y-101228085D02*
X126528571Y-101256657D01*
X126528571Y-101256657D02*
X126300000Y-101256657D01*
X127100000Y-101228085D02*
X126900000Y-101228085D01*
X126900000Y-101542371D02*
X126900000Y-100942371D01*
X126900000Y-100942371D02*
X127185714Y-100942371D01*
X127357143Y-100942371D02*
X127757143Y-100942371D01*
X127757143Y-100942371D02*
X127500000Y-101542371D01*
X171942857Y-78453800D02*
X172400000Y-78453800D01*
X172171428Y-78682371D02*
X172171428Y-78225228D01*
X172628571Y-78082371D02*
X172999999Y-78082371D01*
X172999999Y-78082371D02*
X172799999Y-78310942D01*
X172799999Y-78310942D02*
X172885714Y-78310942D01*
X172885714Y-78310942D02*
X172942857Y-78339514D01*
X172942857Y-78339514D02*
X172971428Y-78368085D01*
X172971428Y-78368085D02*
X172999999Y-78425228D01*
X172999999Y-78425228D02*
X172999999Y-78568085D01*
X172999999Y-78568085D02*
X172971428Y-78625228D01*
X172971428Y-78625228D02*
X172942857Y-78653800D01*
X172942857Y-78653800D02*
X172885714Y-78682371D01*
X172885714Y-78682371D02*
X172714285Y-78682371D01*
X172714285Y-78682371D02*
X172657142Y-78653800D01*
X172657142Y-78653800D02*
X172628571Y-78625228D01*
X173171428Y-78082371D02*
X173371428Y-78682371D01*
X173371428Y-78682371D02*
X173571428Y-78082371D01*
X173714286Y-78082371D02*
X174085714Y-78082371D01*
X174085714Y-78082371D02*
X173885714Y-78310942D01*
X173885714Y-78310942D02*
X173971429Y-78310942D01*
X173971429Y-78310942D02*
X174028572Y-78339514D01*
X174028572Y-78339514D02*
X174057143Y-78368085D01*
X174057143Y-78368085D02*
X174085714Y-78425228D01*
X174085714Y-78425228D02*
X174085714Y-78568085D01*
X174085714Y-78568085D02*
X174057143Y-78625228D01*
X174057143Y-78625228D02*
X174028572Y-78653800D01*
X174028572Y-78653800D02*
X173971429Y-78682371D01*
X173971429Y-78682371D02*
X173800000Y-78682371D01*
X173800000Y-78682371D02*
X173742857Y-78653800D01*
X173742857Y-78653800D02*
X173714286Y-78625228D01*
X143922371Y-123985713D02*
X143322371Y-123985713D01*
X143322371Y-123985713D02*
X143322371Y-123757142D01*
X143322371Y-123757142D02*
X143350942Y-123699999D01*
X143350942Y-123699999D02*
X143379514Y-123671428D01*
X143379514Y-123671428D02*
X143436657Y-123642856D01*
X143436657Y-123642856D02*
X143522371Y-123642856D01*
X143522371Y-123642856D02*
X143579514Y-123671428D01*
X143579514Y-123671428D02*
X143608085Y-123699999D01*
X143608085Y-123699999D02*
X143636657Y-123757142D01*
X143636657Y-123757142D02*
X143636657Y-123985713D01*
X143608085Y-123185713D02*
X143608085Y-123385713D01*
X143922371Y-123385713D02*
X143322371Y-123385713D01*
X143322371Y-123385713D02*
X143322371Y-123099999D01*
X143922371Y-122557142D02*
X143922371Y-122899999D01*
X143922371Y-122728570D02*
X143322371Y-122728570D01*
X143322371Y-122728570D02*
X143408085Y-122785713D01*
X143408085Y-122785713D02*
X143465228Y-122842856D01*
X143465228Y-122842856D02*
X143493800Y-122899999D01*
X143922371Y-121985713D02*
X143922371Y-122328570D01*
X143922371Y-122157141D02*
X143322371Y-122157141D01*
X143322371Y-122157141D02*
X143408085Y-122214284D01*
X143408085Y-122214284D02*
X143465228Y-122271427D01*
X143465228Y-122271427D02*
X143493800Y-122328570D01*
X125971428Y-86302371D02*
X125971428Y-85702371D01*
X125971428Y-85702371D02*
X126199999Y-85702371D01*
X126199999Y-85702371D02*
X126257142Y-85730942D01*
X126257142Y-85730942D02*
X126285713Y-85759514D01*
X126285713Y-85759514D02*
X126314285Y-85816657D01*
X126314285Y-85816657D02*
X126314285Y-85902371D01*
X126314285Y-85902371D02*
X126285713Y-85959514D01*
X126285713Y-85959514D02*
X126257142Y-85988085D01*
X126257142Y-85988085D02*
X126199999Y-86016657D01*
X126199999Y-86016657D02*
X125971428Y-86016657D01*
X126914285Y-86245228D02*
X126885713Y-86273800D01*
X126885713Y-86273800D02*
X126799999Y-86302371D01*
X126799999Y-86302371D02*
X126742856Y-86302371D01*
X126742856Y-86302371D02*
X126657142Y-86273800D01*
X126657142Y-86273800D02*
X126599999Y-86216657D01*
X126599999Y-86216657D02*
X126571428Y-86159514D01*
X126571428Y-86159514D02*
X126542856Y-86045228D01*
X126542856Y-86045228D02*
X126542856Y-85959514D01*
X126542856Y-85959514D02*
X126571428Y-85845228D01*
X126571428Y-85845228D02*
X126599999Y-85788085D01*
X126599999Y-85788085D02*
X126657142Y-85730942D01*
X126657142Y-85730942D02*
X126742856Y-85702371D01*
X126742856Y-85702371D02*
X126799999Y-85702371D01*
X126799999Y-85702371D02*
X126885713Y-85730942D01*
X126885713Y-85730942D02*
X126914285Y-85759514D01*
X127485713Y-86302371D02*
X127142856Y-86302371D01*
X127314285Y-86302371D02*
X127314285Y-85702371D01*
X127314285Y-85702371D02*
X127257142Y-85788085D01*
X127257142Y-85788085D02*
X127199999Y-85845228D01*
X127199999Y-85845228D02*
X127142856Y-85873800D01*
X127685714Y-85702371D02*
X128057142Y-85702371D01*
X128057142Y-85702371D02*
X127857142Y-85930942D01*
X127857142Y-85930942D02*
X127942857Y-85930942D01*
X127942857Y-85930942D02*
X128000000Y-85959514D01*
X128000000Y-85959514D02*
X128028571Y-85988085D01*
X128028571Y-85988085D02*
X128057142Y-86045228D01*
X128057142Y-86045228D02*
X128057142Y-86188085D01*
X128057142Y-86188085D02*
X128028571Y-86245228D01*
X128028571Y-86245228D02*
X128000000Y-86273800D01*
X128000000Y-86273800D02*
X127942857Y-86302371D01*
X127942857Y-86302371D02*
X127771428Y-86302371D01*
X127771428Y-86302371D02*
X127714285Y-86273800D01*
X127714285Y-86273800D02*
X127685714Y-86245228D01*
X133762371Y-123699998D02*
X133162371Y-123699998D01*
X133162371Y-123699998D02*
X133162371Y-123471427D01*
X133162371Y-123471427D02*
X133190942Y-123414284D01*
X133190942Y-123414284D02*
X133219514Y-123385713D01*
X133219514Y-123385713D02*
X133276657Y-123357141D01*
X133276657Y-123357141D02*
X133362371Y-123357141D01*
X133362371Y-123357141D02*
X133419514Y-123385713D01*
X133419514Y-123385713D02*
X133448085Y-123414284D01*
X133448085Y-123414284D02*
X133476657Y-123471427D01*
X133476657Y-123471427D02*
X133476657Y-123699998D01*
X133590942Y-123128570D02*
X133590942Y-122842856D01*
X133762371Y-123185713D02*
X133162371Y-122985713D01*
X133162371Y-122985713D02*
X133762371Y-122785713D01*
X133162371Y-122299998D02*
X133162371Y-122585712D01*
X133162371Y-122585712D02*
X133448085Y-122614284D01*
X133448085Y-122614284D02*
X133419514Y-122585712D01*
X133419514Y-122585712D02*
X133390942Y-122528570D01*
X133390942Y-122528570D02*
X133390942Y-122385712D01*
X133390942Y-122385712D02*
X133419514Y-122328570D01*
X133419514Y-122328570D02*
X133448085Y-122299998D01*
X133448085Y-122299998D02*
X133505228Y-122271427D01*
X133505228Y-122271427D02*
X133648085Y-122271427D01*
X133648085Y-122271427D02*
X133705228Y-122299998D01*
X133705228Y-122299998D02*
X133733800Y-122328570D01*
X133733800Y-122328570D02*
X133762371Y-122385712D01*
X133762371Y-122385712D02*
X133762371Y-122528570D01*
X133762371Y-122528570D02*
X133733800Y-122585712D01*
X133733800Y-122585712D02*
X133705228Y-122614284D01*
X135988085Y-78099999D02*
X136016657Y-78014285D01*
X136016657Y-78014285D02*
X136045228Y-77985714D01*
X136045228Y-77985714D02*
X136102371Y-77957142D01*
X136102371Y-77957142D02*
X136188085Y-77957142D01*
X136188085Y-77957142D02*
X136245228Y-77985714D01*
X136245228Y-77985714D02*
X136273800Y-78014285D01*
X136273800Y-78014285D02*
X136302371Y-78071428D01*
X136302371Y-78071428D02*
X136302371Y-78299999D01*
X136302371Y-78299999D02*
X135702371Y-78299999D01*
X135702371Y-78299999D02*
X135702371Y-78099999D01*
X135702371Y-78099999D02*
X135730942Y-78042857D01*
X135730942Y-78042857D02*
X135759514Y-78014285D01*
X135759514Y-78014285D02*
X135816657Y-77985714D01*
X135816657Y-77985714D02*
X135873800Y-77985714D01*
X135873800Y-77985714D02*
X135930942Y-78014285D01*
X135930942Y-78014285D02*
X135959514Y-78042857D01*
X135959514Y-78042857D02*
X135988085Y-78099999D01*
X135988085Y-78099999D02*
X135988085Y-78299999D01*
X135702371Y-77585714D02*
X135702371Y-77471428D01*
X135702371Y-77471428D02*
X135730942Y-77414285D01*
X135730942Y-77414285D02*
X135788085Y-77357142D01*
X135788085Y-77357142D02*
X135902371Y-77328571D01*
X135902371Y-77328571D02*
X136102371Y-77328571D01*
X136102371Y-77328571D02*
X136216657Y-77357142D01*
X136216657Y-77357142D02*
X136273800Y-77414285D01*
X136273800Y-77414285D02*
X136302371Y-77471428D01*
X136302371Y-77471428D02*
X136302371Y-77585714D01*
X136302371Y-77585714D02*
X136273800Y-77642857D01*
X136273800Y-77642857D02*
X136216657Y-77699999D01*
X136216657Y-77699999D02*
X136102371Y-77728571D01*
X136102371Y-77728571D02*
X135902371Y-77728571D01*
X135902371Y-77728571D02*
X135788085Y-77699999D01*
X135788085Y-77699999D02*
X135730942Y-77642857D01*
X135730942Y-77642857D02*
X135702371Y-77585714D01*
X135702371Y-76957143D02*
X135702371Y-76842857D01*
X135702371Y-76842857D02*
X135730942Y-76785714D01*
X135730942Y-76785714D02*
X135788085Y-76728571D01*
X135788085Y-76728571D02*
X135902371Y-76700000D01*
X135902371Y-76700000D02*
X136102371Y-76700000D01*
X136102371Y-76700000D02*
X136216657Y-76728571D01*
X136216657Y-76728571D02*
X136273800Y-76785714D01*
X136273800Y-76785714D02*
X136302371Y-76842857D01*
X136302371Y-76842857D02*
X136302371Y-76957143D01*
X136302371Y-76957143D02*
X136273800Y-77014286D01*
X136273800Y-77014286D02*
X136216657Y-77071428D01*
X136216657Y-77071428D02*
X136102371Y-77100000D01*
X136102371Y-77100000D02*
X135902371Y-77100000D01*
X135902371Y-77100000D02*
X135788085Y-77071428D01*
X135788085Y-77071428D02*
X135730942Y-77014286D01*
X135730942Y-77014286D02*
X135702371Y-76957143D01*
X135702371Y-76528572D02*
X135702371Y-76185715D01*
X136302371Y-76357143D02*
X135702371Y-76357143D01*
X135702371Y-75871429D02*
X135702371Y-75814286D01*
X135702371Y-75814286D02*
X135730942Y-75757143D01*
X135730942Y-75757143D02*
X135759514Y-75728572D01*
X135759514Y-75728572D02*
X135816657Y-75700000D01*
X135816657Y-75700000D02*
X135930942Y-75671429D01*
X135930942Y-75671429D02*
X136073800Y-75671429D01*
X136073800Y-75671429D02*
X136188085Y-75700000D01*
X136188085Y-75700000D02*
X136245228Y-75728572D01*
X136245228Y-75728572D02*
X136273800Y-75757143D01*
X136273800Y-75757143D02*
X136302371Y-75814286D01*
X136302371Y-75814286D02*
X136302371Y-75871429D01*
X136302371Y-75871429D02*
X136273800Y-75928572D01*
X136273800Y-75928572D02*
X136245228Y-75957143D01*
X136245228Y-75957143D02*
X136188085Y-75985714D01*
X136188085Y-75985714D02*
X136073800Y-76014286D01*
X136073800Y-76014286D02*
X135930942Y-76014286D01*
X135930942Y-76014286D02*
X135816657Y-75985714D01*
X135816657Y-75985714D02*
X135759514Y-75957143D01*
X135759514Y-75957143D02*
X135730942Y-75928572D01*
X135730942Y-75928572D02*
X135702371Y-75871429D01*
X126285714Y-78682371D02*
X126285714Y-78082371D01*
X126285714Y-78082371D02*
X126514285Y-78082371D01*
X126514285Y-78082371D02*
X126571428Y-78110942D01*
X126571428Y-78110942D02*
X126599999Y-78139514D01*
X126599999Y-78139514D02*
X126628571Y-78196657D01*
X126628571Y-78196657D02*
X126628571Y-78282371D01*
X126628571Y-78282371D02*
X126599999Y-78339514D01*
X126599999Y-78339514D02*
X126571428Y-78368085D01*
X126571428Y-78368085D02*
X126514285Y-78396657D01*
X126514285Y-78396657D02*
X126285714Y-78396657D01*
X126885714Y-78368085D02*
X127085714Y-78368085D01*
X127171428Y-78682371D02*
X126885714Y-78682371D01*
X126885714Y-78682371D02*
X126885714Y-78082371D01*
X126885714Y-78082371D02*
X127171428Y-78082371D01*
X127399999Y-78139514D02*
X127428571Y-78110942D01*
X127428571Y-78110942D02*
X127485714Y-78082371D01*
X127485714Y-78082371D02*
X127628571Y-78082371D01*
X127628571Y-78082371D02*
X127685714Y-78110942D01*
X127685714Y-78110942D02*
X127714285Y-78139514D01*
X127714285Y-78139514D02*
X127742856Y-78196657D01*
X127742856Y-78196657D02*
X127742856Y-78253800D01*
X127742856Y-78253800D02*
X127714285Y-78339514D01*
X127714285Y-78339514D02*
X127371428Y-78682371D01*
X127371428Y-78682371D02*
X127742856Y-78682371D01*
X126300000Y-91382371D02*
X126300000Y-90782371D01*
X126300000Y-90782371D02*
X126528571Y-90782371D01*
X126528571Y-90782371D02*
X126585714Y-90810942D01*
X126585714Y-90810942D02*
X126614285Y-90839514D01*
X126614285Y-90839514D02*
X126642857Y-90896657D01*
X126642857Y-90896657D02*
X126642857Y-90982371D01*
X126642857Y-90982371D02*
X126614285Y-91039514D01*
X126614285Y-91039514D02*
X126585714Y-91068085D01*
X126585714Y-91068085D02*
X126528571Y-91096657D01*
X126528571Y-91096657D02*
X126300000Y-91096657D01*
X127100000Y-91068085D02*
X126900000Y-91068085D01*
X126900000Y-91382371D02*
X126900000Y-90782371D01*
X126900000Y-90782371D02*
X127185714Y-90782371D01*
X127728571Y-91382371D02*
X127385714Y-91382371D01*
X127557143Y-91382371D02*
X127557143Y-90782371D01*
X127557143Y-90782371D02*
X127500000Y-90868085D01*
X127500000Y-90868085D02*
X127442857Y-90925228D01*
X127442857Y-90925228D02*
X127385714Y-90953800D01*
X172014285Y-86302371D02*
X172014285Y-85702371D01*
X172014285Y-85702371D02*
X172242856Y-85702371D01*
X172242856Y-85702371D02*
X172299999Y-85730942D01*
X172299999Y-85730942D02*
X172328570Y-85759514D01*
X172328570Y-85759514D02*
X172357142Y-85816657D01*
X172357142Y-85816657D02*
X172357142Y-85902371D01*
X172357142Y-85902371D02*
X172328570Y-85959514D01*
X172328570Y-85959514D02*
X172299999Y-85988085D01*
X172299999Y-85988085D02*
X172242856Y-86016657D01*
X172242856Y-86016657D02*
X172014285Y-86016657D01*
X172585713Y-86130942D02*
X172871428Y-86130942D01*
X172528570Y-86302371D02*
X172728570Y-85702371D01*
X172728570Y-85702371D02*
X172928570Y-86302371D01*
X173442856Y-86302371D02*
X173099999Y-86302371D01*
X173271428Y-86302371D02*
X173271428Y-85702371D01*
X173271428Y-85702371D02*
X173214285Y-85788085D01*
X173214285Y-85788085D02*
X173157142Y-85845228D01*
X173157142Y-85845228D02*
X173099999Y-85873800D01*
X173814285Y-85702371D02*
X173871428Y-85702371D01*
X173871428Y-85702371D02*
X173928571Y-85730942D01*
X173928571Y-85730942D02*
X173957143Y-85759514D01*
X173957143Y-85759514D02*
X173985714Y-85816657D01*
X173985714Y-85816657D02*
X174014285Y-85930942D01*
X174014285Y-85930942D02*
X174014285Y-86073800D01*
X174014285Y-86073800D02*
X173985714Y-86188085D01*
X173985714Y-86188085D02*
X173957143Y-86245228D01*
X173957143Y-86245228D02*
X173928571Y-86273800D01*
X173928571Y-86273800D02*
X173871428Y-86302371D01*
X173871428Y-86302371D02*
X173814285Y-86302371D01*
X173814285Y-86302371D02*
X173757143Y-86273800D01*
X173757143Y-86273800D02*
X173728571Y-86245228D01*
X173728571Y-86245228D02*
X173700000Y-86188085D01*
X173700000Y-86188085D02*
X173671428Y-86073800D01*
X173671428Y-86073800D02*
X173671428Y-85930942D01*
X173671428Y-85930942D02*
X173700000Y-85816657D01*
X173700000Y-85816657D02*
X173728571Y-85759514D01*
X173728571Y-85759514D02*
X173757143Y-85730942D01*
X173757143Y-85730942D02*
X173814285Y-85702371D01*
X172300000Y-88842371D02*
X172300000Y-88242371D01*
X172300000Y-88242371D02*
X172528571Y-88242371D01*
X172528571Y-88242371D02*
X172585714Y-88270942D01*
X172585714Y-88270942D02*
X172614285Y-88299514D01*
X172614285Y-88299514D02*
X172642857Y-88356657D01*
X172642857Y-88356657D02*
X172642857Y-88442371D01*
X172642857Y-88442371D02*
X172614285Y-88499514D01*
X172614285Y-88499514D02*
X172585714Y-88528085D01*
X172585714Y-88528085D02*
X172528571Y-88556657D01*
X172528571Y-88556657D02*
X172300000Y-88556657D01*
X172871428Y-88670942D02*
X173157143Y-88670942D01*
X172814285Y-88842371D02*
X173014285Y-88242371D01*
X173014285Y-88242371D02*
X173214285Y-88842371D01*
X173500000Y-88499514D02*
X173442857Y-88470942D01*
X173442857Y-88470942D02*
X173414286Y-88442371D01*
X173414286Y-88442371D02*
X173385714Y-88385228D01*
X173385714Y-88385228D02*
X173385714Y-88356657D01*
X173385714Y-88356657D02*
X173414286Y-88299514D01*
X173414286Y-88299514D02*
X173442857Y-88270942D01*
X173442857Y-88270942D02*
X173500000Y-88242371D01*
X173500000Y-88242371D02*
X173614286Y-88242371D01*
X173614286Y-88242371D02*
X173671429Y-88270942D01*
X173671429Y-88270942D02*
X173700000Y-88299514D01*
X173700000Y-88299514D02*
X173728571Y-88356657D01*
X173728571Y-88356657D02*
X173728571Y-88385228D01*
X173728571Y-88385228D02*
X173700000Y-88442371D01*
X173700000Y-88442371D02*
X173671429Y-88470942D01*
X173671429Y-88470942D02*
X173614286Y-88499514D01*
X173614286Y-88499514D02*
X173500000Y-88499514D01*
X173500000Y-88499514D02*
X173442857Y-88528085D01*
X173442857Y-88528085D02*
X173414286Y-88556657D01*
X173414286Y-88556657D02*
X173385714Y-88613800D01*
X173385714Y-88613800D02*
X173385714Y-88728085D01*
X173385714Y-88728085D02*
X173414286Y-88785228D01*
X173414286Y-88785228D02*
X173442857Y-88813800D01*
X173442857Y-88813800D02*
X173500000Y-88842371D01*
X173500000Y-88842371D02*
X173614286Y-88842371D01*
X173614286Y-88842371D02*
X173671429Y-88813800D01*
X173671429Y-88813800D02*
X173700000Y-88785228D01*
X173700000Y-88785228D02*
X173728571Y-88728085D01*
X173728571Y-88728085D02*
X173728571Y-88613800D01*
X173728571Y-88613800D02*
X173700000Y-88556657D01*
X173700000Y-88556657D02*
X173671429Y-88528085D01*
X173671429Y-88528085D02*
X173614286Y-88499514D01*
X125728571Y-114242371D02*
X125728571Y-113642371D01*
X125728571Y-113642371D02*
X125957142Y-113642371D01*
X125957142Y-113642371D02*
X126014285Y-113670942D01*
X126014285Y-113670942D02*
X126042856Y-113699514D01*
X126042856Y-113699514D02*
X126071428Y-113756657D01*
X126071428Y-113756657D02*
X126071428Y-113842371D01*
X126071428Y-113842371D02*
X126042856Y-113899514D01*
X126042856Y-113899514D02*
X126014285Y-113928085D01*
X126014285Y-113928085D02*
X125957142Y-113956657D01*
X125957142Y-113956657D02*
X125728571Y-113956657D01*
X126671428Y-114185228D02*
X126642856Y-114213800D01*
X126642856Y-114213800D02*
X126557142Y-114242371D01*
X126557142Y-114242371D02*
X126499999Y-114242371D01*
X126499999Y-114242371D02*
X126414285Y-114213800D01*
X126414285Y-114213800D02*
X126357142Y-114156657D01*
X126357142Y-114156657D02*
X126328571Y-114099514D01*
X126328571Y-114099514D02*
X126299999Y-113985228D01*
X126299999Y-113985228D02*
X126299999Y-113899514D01*
X126299999Y-113899514D02*
X126328571Y-113785228D01*
X126328571Y-113785228D02*
X126357142Y-113728085D01*
X126357142Y-113728085D02*
X126414285Y-113670942D01*
X126414285Y-113670942D02*
X126499999Y-113642371D01*
X126499999Y-113642371D02*
X126557142Y-113642371D01*
X126557142Y-113642371D02*
X126642856Y-113670942D01*
X126642856Y-113670942D02*
X126671428Y-113699514D01*
X126871428Y-113642371D02*
X127242856Y-113642371D01*
X127242856Y-113642371D02*
X127042856Y-113870942D01*
X127042856Y-113870942D02*
X127128571Y-113870942D01*
X127128571Y-113870942D02*
X127185714Y-113899514D01*
X127185714Y-113899514D02*
X127214285Y-113928085D01*
X127214285Y-113928085D02*
X127242856Y-113985228D01*
X127242856Y-113985228D02*
X127242856Y-114128085D01*
X127242856Y-114128085D02*
X127214285Y-114185228D01*
X127214285Y-114185228D02*
X127185714Y-114213800D01*
X127185714Y-114213800D02*
X127128571Y-114242371D01*
X127128571Y-114242371D02*
X126957142Y-114242371D01*
X126957142Y-114242371D02*
X126899999Y-114213800D01*
X126899999Y-114213800D02*
X126871428Y-114185228D01*
X127357143Y-114299514D02*
X127814285Y-114299514D01*
X128300000Y-114185228D02*
X128271428Y-114213800D01*
X128271428Y-114213800D02*
X128185714Y-114242371D01*
X128185714Y-114242371D02*
X128128571Y-114242371D01*
X128128571Y-114242371D02*
X128042857Y-114213800D01*
X128042857Y-114213800D02*
X127985714Y-114156657D01*
X127985714Y-114156657D02*
X127957143Y-114099514D01*
X127957143Y-114099514D02*
X127928571Y-113985228D01*
X127928571Y-113985228D02*
X127928571Y-113899514D01*
X127928571Y-113899514D02*
X127957143Y-113785228D01*
X127957143Y-113785228D02*
X127985714Y-113728085D01*
X127985714Y-113728085D02*
X128042857Y-113670942D01*
X128042857Y-113670942D02*
X128128571Y-113642371D01*
X128128571Y-113642371D02*
X128185714Y-113642371D01*
X128185714Y-113642371D02*
X128271428Y-113670942D01*
X128271428Y-113670942D02*
X128300000Y-113699514D01*
X171862371Y-123471426D02*
X171262371Y-123471426D01*
X171262371Y-123471426D02*
X171862371Y-123128569D01*
X171862371Y-123128569D02*
X171262371Y-123128569D01*
X171805228Y-122499998D02*
X171833800Y-122528570D01*
X171833800Y-122528570D02*
X171862371Y-122614284D01*
X171862371Y-122614284D02*
X171862371Y-122671427D01*
X171862371Y-122671427D02*
X171833800Y-122757141D01*
X171833800Y-122757141D02*
X171776657Y-122814284D01*
X171776657Y-122814284D02*
X171719514Y-122842855D01*
X171719514Y-122842855D02*
X171605228Y-122871427D01*
X171605228Y-122871427D02*
X171519514Y-122871427D01*
X171519514Y-122871427D02*
X171405228Y-122842855D01*
X171405228Y-122842855D02*
X171348085Y-122814284D01*
X171348085Y-122814284D02*
X171290942Y-122757141D01*
X171290942Y-122757141D02*
X171262371Y-122671427D01*
X171262371Y-122671427D02*
X171262371Y-122614284D01*
X171262371Y-122614284D02*
X171290942Y-122528570D01*
X171290942Y-122528570D02*
X171319514Y-122499998D01*
X149002371Y-123985713D02*
X148402371Y-123985713D01*
X148402371Y-123985713D02*
X148402371Y-123757142D01*
X148402371Y-123757142D02*
X148430942Y-123699999D01*
X148430942Y-123699999D02*
X148459514Y-123671428D01*
X148459514Y-123671428D02*
X148516657Y-123642856D01*
X148516657Y-123642856D02*
X148602371Y-123642856D01*
X148602371Y-123642856D02*
X148659514Y-123671428D01*
X148659514Y-123671428D02*
X148688085Y-123699999D01*
X148688085Y-123699999D02*
X148716657Y-123757142D01*
X148716657Y-123757142D02*
X148716657Y-123985713D01*
X148688085Y-123185713D02*
X148688085Y-123385713D01*
X149002371Y-123385713D02*
X148402371Y-123385713D01*
X148402371Y-123385713D02*
X148402371Y-123099999D01*
X149002371Y-122557142D02*
X149002371Y-122899999D01*
X149002371Y-122728570D02*
X148402371Y-122728570D01*
X148402371Y-122728570D02*
X148488085Y-122785713D01*
X148488085Y-122785713D02*
X148545228Y-122842856D01*
X148545228Y-122842856D02*
X148573800Y-122899999D01*
X148402371Y-122357141D02*
X148402371Y-121985713D01*
X148402371Y-121985713D02*
X148630942Y-122185713D01*
X148630942Y-122185713D02*
X148630942Y-122099998D01*
X148630942Y-122099998D02*
X148659514Y-122042856D01*
X148659514Y-122042856D02*
X148688085Y-122014284D01*
X148688085Y-122014284D02*
X148745228Y-121985713D01*
X148745228Y-121985713D02*
X148888085Y-121985713D01*
X148888085Y-121985713D02*
X148945228Y-122014284D01*
X148945228Y-122014284D02*
X148973800Y-122042856D01*
X148973800Y-122042856D02*
X149002371Y-122099998D01*
X149002371Y-122099998D02*
X149002371Y-122271427D01*
X149002371Y-122271427D02*
X148973800Y-122328570D01*
X148973800Y-122328570D02*
X148945228Y-122357141D01*
X145890942Y-77457142D02*
X145862371Y-77514285D01*
X145862371Y-77514285D02*
X145862371Y-77599999D01*
X145862371Y-77599999D02*
X145890942Y-77685713D01*
X145890942Y-77685713D02*
X145948085Y-77742856D01*
X145948085Y-77742856D02*
X146005228Y-77771427D01*
X146005228Y-77771427D02*
X146119514Y-77799999D01*
X146119514Y-77799999D02*
X146205228Y-77799999D01*
X146205228Y-77799999D02*
X146319514Y-77771427D01*
X146319514Y-77771427D02*
X146376657Y-77742856D01*
X146376657Y-77742856D02*
X146433800Y-77685713D01*
X146433800Y-77685713D02*
X146462371Y-77599999D01*
X146462371Y-77599999D02*
X146462371Y-77542856D01*
X146462371Y-77542856D02*
X146433800Y-77457142D01*
X146433800Y-77457142D02*
X146405228Y-77428570D01*
X146405228Y-77428570D02*
X146205228Y-77428570D01*
X146205228Y-77428570D02*
X146205228Y-77542856D01*
X146462371Y-77171427D02*
X145862371Y-77171427D01*
X145862371Y-77171427D02*
X146462371Y-76828570D01*
X146462371Y-76828570D02*
X145862371Y-76828570D01*
X146462371Y-76542856D02*
X145862371Y-76542856D01*
X145862371Y-76542856D02*
X145862371Y-76399999D01*
X145862371Y-76399999D02*
X145890942Y-76314285D01*
X145890942Y-76314285D02*
X145948085Y-76257142D01*
X145948085Y-76257142D02*
X146005228Y-76228571D01*
X146005228Y-76228571D02*
X146119514Y-76199999D01*
X146119514Y-76199999D02*
X146205228Y-76199999D01*
X146205228Y-76199999D02*
X146319514Y-76228571D01*
X146319514Y-76228571D02*
X146376657Y-76257142D01*
X146376657Y-76257142D02*
X146433800Y-76314285D01*
X146433800Y-76314285D02*
X146462371Y-76399999D01*
X146462371Y-76399999D02*
X146462371Y-76542856D01*
X166782371Y-77742856D02*
X166182371Y-77742856D01*
X166182371Y-77742856D02*
X166182371Y-77514285D01*
X166182371Y-77514285D02*
X166210942Y-77457142D01*
X166210942Y-77457142D02*
X166239514Y-77428571D01*
X166239514Y-77428571D02*
X166296657Y-77399999D01*
X166296657Y-77399999D02*
X166382371Y-77399999D01*
X166382371Y-77399999D02*
X166439514Y-77428571D01*
X166439514Y-77428571D02*
X166468085Y-77457142D01*
X166468085Y-77457142D02*
X166496657Y-77514285D01*
X166496657Y-77514285D02*
X166496657Y-77742856D01*
X166782371Y-77142856D02*
X166182371Y-77142856D01*
X166182371Y-77142856D02*
X166182371Y-76999999D01*
X166182371Y-76999999D02*
X166210942Y-76914285D01*
X166210942Y-76914285D02*
X166268085Y-76857142D01*
X166268085Y-76857142D02*
X166325228Y-76828571D01*
X166325228Y-76828571D02*
X166439514Y-76799999D01*
X166439514Y-76799999D02*
X166525228Y-76799999D01*
X166525228Y-76799999D02*
X166639514Y-76828571D01*
X166639514Y-76828571D02*
X166696657Y-76857142D01*
X166696657Y-76857142D02*
X166753800Y-76914285D01*
X166753800Y-76914285D02*
X166782371Y-76999999D01*
X166782371Y-76999999D02*
X166782371Y-77142856D01*
X166182371Y-76428571D02*
X166182371Y-76371428D01*
X166182371Y-76371428D02*
X166210942Y-76314285D01*
X166210942Y-76314285D02*
X166239514Y-76285714D01*
X166239514Y-76285714D02*
X166296657Y-76257142D01*
X166296657Y-76257142D02*
X166410942Y-76228571D01*
X166410942Y-76228571D02*
X166553800Y-76228571D01*
X166553800Y-76228571D02*
X166668085Y-76257142D01*
X166668085Y-76257142D02*
X166725228Y-76285714D01*
X166725228Y-76285714D02*
X166753800Y-76314285D01*
X166753800Y-76314285D02*
X166782371Y-76371428D01*
X166782371Y-76371428D02*
X166782371Y-76428571D01*
X166782371Y-76428571D02*
X166753800Y-76485714D01*
X166753800Y-76485714D02*
X166725228Y-76514285D01*
X166725228Y-76514285D02*
X166668085Y-76542856D01*
X166668085Y-76542856D02*
X166553800Y-76571428D01*
X166553800Y-76571428D02*
X166410942Y-76571428D01*
X166410942Y-76571428D02*
X166296657Y-76542856D01*
X166296657Y-76542856D02*
X166239514Y-76514285D01*
X166239514Y-76514285D02*
X166210942Y-76485714D01*
X166210942Y-76485714D02*
X166182371Y-76428571D01*
X171942857Y-108933800D02*
X172400000Y-108933800D01*
X172171428Y-109162371D02*
X172171428Y-108705228D01*
X172628571Y-108562371D02*
X172999999Y-108562371D01*
X172999999Y-108562371D02*
X172799999Y-108790942D01*
X172799999Y-108790942D02*
X172885714Y-108790942D01*
X172885714Y-108790942D02*
X172942857Y-108819514D01*
X172942857Y-108819514D02*
X172971428Y-108848085D01*
X172971428Y-108848085D02*
X172999999Y-108905228D01*
X172999999Y-108905228D02*
X172999999Y-109048085D01*
X172999999Y-109048085D02*
X172971428Y-109105228D01*
X172971428Y-109105228D02*
X172942857Y-109133800D01*
X172942857Y-109133800D02*
X172885714Y-109162371D01*
X172885714Y-109162371D02*
X172714285Y-109162371D01*
X172714285Y-109162371D02*
X172657142Y-109133800D01*
X172657142Y-109133800D02*
X172628571Y-109105228D01*
X173171428Y-108562371D02*
X173371428Y-109162371D01*
X173371428Y-109162371D02*
X173571428Y-108562371D01*
X173714286Y-108562371D02*
X174085714Y-108562371D01*
X174085714Y-108562371D02*
X173885714Y-108790942D01*
X173885714Y-108790942D02*
X173971429Y-108790942D01*
X173971429Y-108790942D02*
X174028572Y-108819514D01*
X174028572Y-108819514D02*
X174057143Y-108848085D01*
X174057143Y-108848085D02*
X174085714Y-108905228D01*
X174085714Y-108905228D02*
X174085714Y-109048085D01*
X174085714Y-109048085D02*
X174057143Y-109105228D01*
X174057143Y-109105228D02*
X174028572Y-109133800D01*
X174028572Y-109133800D02*
X173971429Y-109162371D01*
X173971429Y-109162371D02*
X173800000Y-109162371D01*
X173800000Y-109162371D02*
X173742857Y-109133800D01*
X173742857Y-109133800D02*
X173714286Y-109105228D01*
D12*
X139404760Y-140081830D02*
X139309522Y-140034211D01*
X139309522Y-140034211D02*
X139261903Y-139986592D01*
X139261903Y-139986592D02*
X139214284Y-139891354D01*
X139214284Y-139891354D02*
X139214284Y-139843735D01*
X139214284Y-139843735D02*
X139261903Y-139748497D01*
X139261903Y-139748497D02*
X139309522Y-139700878D01*
X139309522Y-139700878D02*
X139404760Y-139653259D01*
X139404760Y-139653259D02*
X139595236Y-139653259D01*
X139595236Y-139653259D02*
X139690474Y-139700878D01*
X139690474Y-139700878D02*
X139738093Y-139748497D01*
X139738093Y-139748497D02*
X139785712Y-139843735D01*
X139785712Y-139843735D02*
X139785712Y-139891354D01*
X139785712Y-139891354D02*
X139738093Y-139986592D01*
X139738093Y-139986592D02*
X139690474Y-140034211D01*
X139690474Y-140034211D02*
X139595236Y-140081830D01*
X139595236Y-140081830D02*
X139404760Y-140081830D01*
X139404760Y-140081830D02*
X139309522Y-140129449D01*
X139309522Y-140129449D02*
X139261903Y-140177068D01*
X139261903Y-140177068D02*
X139214284Y-140272306D01*
X139214284Y-140272306D02*
X139214284Y-140462782D01*
X139214284Y-140462782D02*
X139261903Y-140558020D01*
X139261903Y-140558020D02*
X139309522Y-140605640D01*
X139309522Y-140605640D02*
X139404760Y-140653259D01*
X139404760Y-140653259D02*
X139595236Y-140653259D01*
X139595236Y-140653259D02*
X139690474Y-140605640D01*
X139690474Y-140605640D02*
X139738093Y-140558020D01*
X139738093Y-140558020D02*
X139785712Y-140462782D01*
X139785712Y-140462782D02*
X139785712Y-140272306D01*
X139785712Y-140272306D02*
X139738093Y-140177068D01*
X139738093Y-140177068D02*
X139690474Y-140129449D01*
X139690474Y-140129449D02*
X139595236Y-140081830D01*
X140642855Y-139986592D02*
X140642855Y-140653259D01*
X140404760Y-139605640D02*
X140166665Y-140319925D01*
X140166665Y-140319925D02*
X140785712Y-140319925D01*
X141071427Y-140653259D02*
X141595236Y-139986592D01*
X141071427Y-139986592D02*
X141595236Y-140653259D01*
X142119046Y-140081830D02*
X142023808Y-140034211D01*
X142023808Y-140034211D02*
X141976189Y-139986592D01*
X141976189Y-139986592D02*
X141928570Y-139891354D01*
X141928570Y-139891354D02*
X141928570Y-139843735D01*
X141928570Y-139843735D02*
X141976189Y-139748497D01*
X141976189Y-139748497D02*
X142023808Y-139700878D01*
X142023808Y-139700878D02*
X142119046Y-139653259D01*
X142119046Y-139653259D02*
X142309522Y-139653259D01*
X142309522Y-139653259D02*
X142404760Y-139700878D01*
X142404760Y-139700878D02*
X142452379Y-139748497D01*
X142452379Y-139748497D02*
X142499998Y-139843735D01*
X142499998Y-139843735D02*
X142499998Y-139891354D01*
X142499998Y-139891354D02*
X142452379Y-139986592D01*
X142452379Y-139986592D02*
X142404760Y-140034211D01*
X142404760Y-140034211D02*
X142309522Y-140081830D01*
X142309522Y-140081830D02*
X142119046Y-140081830D01*
X142119046Y-140081830D02*
X142023808Y-140129449D01*
X142023808Y-140129449D02*
X141976189Y-140177068D01*
X141976189Y-140177068D02*
X141928570Y-140272306D01*
X141928570Y-140272306D02*
X141928570Y-140462782D01*
X141928570Y-140462782D02*
X141976189Y-140558020D01*
X141976189Y-140558020D02*
X142023808Y-140605640D01*
X142023808Y-140605640D02*
X142119046Y-140653259D01*
X142119046Y-140653259D02*
X142309522Y-140653259D01*
X142309522Y-140653259D02*
X142404760Y-140605640D01*
X142404760Y-140605640D02*
X142452379Y-140558020D01*
X142452379Y-140558020D02*
X142499998Y-140462782D01*
X142499998Y-140462782D02*
X142499998Y-140272306D01*
X142499998Y-140272306D02*
X142452379Y-140177068D01*
X142452379Y-140177068D02*
X142404760Y-140129449D01*
X142404760Y-140129449D02*
X142309522Y-140081830D01*
X143357141Y-139986592D02*
X143357141Y-140653259D01*
X143119046Y-139605640D02*
X142880951Y-140319925D01*
X142880951Y-140319925D02*
X143499998Y-140319925D01*
X144642856Y-140653259D02*
X144642856Y-139986592D01*
X144642856Y-140081830D02*
X144690475Y-140034211D01*
X144690475Y-140034211D02*
X144785713Y-139986592D01*
X144785713Y-139986592D02*
X144928570Y-139986592D01*
X144928570Y-139986592D02*
X145023808Y-140034211D01*
X145023808Y-140034211D02*
X145071427Y-140129449D01*
X145071427Y-140129449D02*
X145071427Y-140653259D01*
X145071427Y-140129449D02*
X145119046Y-140034211D01*
X145119046Y-140034211D02*
X145214284Y-139986592D01*
X145214284Y-139986592D02*
X145357141Y-139986592D01*
X145357141Y-139986592D02*
X145452380Y-140034211D01*
X145452380Y-140034211D02*
X145499999Y-140129449D01*
X145499999Y-140129449D02*
X145499999Y-140653259D01*
X145976189Y-140653259D02*
X145976189Y-139986592D01*
X145976189Y-140081830D02*
X146023808Y-140034211D01*
X146023808Y-140034211D02*
X146119046Y-139986592D01*
X146119046Y-139986592D02*
X146261903Y-139986592D01*
X146261903Y-139986592D02*
X146357141Y-140034211D01*
X146357141Y-140034211D02*
X146404760Y-140129449D01*
X146404760Y-140129449D02*
X146404760Y-140653259D01*
X146404760Y-140129449D02*
X146452379Y-140034211D01*
X146452379Y-140034211D02*
X146547617Y-139986592D01*
X146547617Y-139986592D02*
X146690474Y-139986592D01*
X146690474Y-139986592D02*
X146785713Y-140034211D01*
X146785713Y-140034211D02*
X146833332Y-140129449D01*
X146833332Y-140129449D02*
X146833332Y-140653259D01*
X148309522Y-140986592D02*
X148309522Y-139558020D01*
X150214284Y-139986592D02*
X150214284Y-140653259D01*
X149976189Y-139605640D02*
X149738094Y-140319925D01*
X149738094Y-140319925D02*
X150357141Y-140319925D01*
X151642856Y-140653259D02*
X151547618Y-140605640D01*
X151547618Y-140605640D02*
X151499999Y-140510401D01*
X151499999Y-140510401D02*
X151499999Y-139653259D01*
X152452380Y-140653259D02*
X152452380Y-140129449D01*
X152452380Y-140129449D02*
X152404761Y-140034211D01*
X152404761Y-140034211D02*
X152309523Y-139986592D01*
X152309523Y-139986592D02*
X152119047Y-139986592D01*
X152119047Y-139986592D02*
X152023809Y-140034211D01*
X152452380Y-140605640D02*
X152357142Y-140653259D01*
X152357142Y-140653259D02*
X152119047Y-140653259D01*
X152119047Y-140653259D02*
X152023809Y-140605640D01*
X152023809Y-140605640D02*
X151976190Y-140510401D01*
X151976190Y-140510401D02*
X151976190Y-140415163D01*
X151976190Y-140415163D02*
X152023809Y-140319925D01*
X152023809Y-140319925D02*
X152119047Y-140272306D01*
X152119047Y-140272306D02*
X152357142Y-140272306D01*
X152357142Y-140272306D02*
X152452380Y-140224687D01*
X152833333Y-139986592D02*
X153071428Y-140653259D01*
X153309523Y-139986592D02*
X153071428Y-140653259D01*
X153071428Y-140653259D02*
X152976190Y-140891354D01*
X152976190Y-140891354D02*
X152928571Y-140938973D01*
X152928571Y-140938973D02*
X152833333Y-140986592D01*
X154071428Y-140605640D02*
X153976190Y-140653259D01*
X153976190Y-140653259D02*
X153785714Y-140653259D01*
X153785714Y-140653259D02*
X153690476Y-140605640D01*
X153690476Y-140605640D02*
X153642857Y-140510401D01*
X153642857Y-140510401D02*
X153642857Y-140129449D01*
X153642857Y-140129449D02*
X153690476Y-140034211D01*
X153690476Y-140034211D02*
X153785714Y-139986592D01*
X153785714Y-139986592D02*
X153976190Y-139986592D01*
X153976190Y-139986592D02*
X154071428Y-140034211D01*
X154071428Y-140034211D02*
X154119047Y-140129449D01*
X154119047Y-140129449D02*
X154119047Y-140224687D01*
X154119047Y-140224687D02*
X153642857Y-140319925D01*
X154547619Y-140653259D02*
X154547619Y-139986592D01*
X154547619Y-140177068D02*
X154595238Y-140081830D01*
X154595238Y-140081830D02*
X154642857Y-140034211D01*
X154642857Y-140034211D02*
X154738095Y-139986592D01*
X154738095Y-139986592D02*
X154833333Y-139986592D01*
X156166667Y-140986592D02*
X156166667Y-139558020D01*
X157642858Y-140653259D02*
X157642858Y-139986592D01*
X157642858Y-140177068D02*
X157690477Y-140081830D01*
X157690477Y-140081830D02*
X157738096Y-140034211D01*
X157738096Y-140034211D02*
X157833334Y-139986592D01*
X157833334Y-139986592D02*
X157928572Y-139986592D01*
X158642858Y-140605640D02*
X158547620Y-140653259D01*
X158547620Y-140653259D02*
X158357144Y-140653259D01*
X158357144Y-140653259D02*
X158261906Y-140605640D01*
X158261906Y-140605640D02*
X158214287Y-140510401D01*
X158214287Y-140510401D02*
X158214287Y-140129449D01*
X158214287Y-140129449D02*
X158261906Y-140034211D01*
X158261906Y-140034211D02*
X158357144Y-139986592D01*
X158357144Y-139986592D02*
X158547620Y-139986592D01*
X158547620Y-139986592D02*
X158642858Y-140034211D01*
X158642858Y-140034211D02*
X158690477Y-140129449D01*
X158690477Y-140129449D02*
X158690477Y-140224687D01*
X158690477Y-140224687D02*
X158214287Y-140319925D01*
X159023811Y-139986592D02*
X159261906Y-140653259D01*
X159261906Y-140653259D02*
X159500001Y-139986592D01*
X159880954Y-140558020D02*
X159928573Y-140605640D01*
X159928573Y-140605640D02*
X159880954Y-140653259D01*
X159880954Y-140653259D02*
X159833335Y-140605640D01*
X159833335Y-140605640D02*
X159880954Y-140558020D01*
X159880954Y-140558020D02*
X159880954Y-140653259D01*
X160309525Y-140367544D02*
X160785715Y-140367544D01*
X160214287Y-140653259D02*
X160547620Y-139653259D01*
X160547620Y-139653259D02*
X160880953Y-140653259D01*
D10*
X156622371Y-123714284D02*
X156022371Y-123714284D01*
X156022371Y-123714284D02*
X156022371Y-123485713D01*
X156022371Y-123485713D02*
X156050942Y-123428570D01*
X156050942Y-123428570D02*
X156079514Y-123399999D01*
X156079514Y-123399999D02*
X156136657Y-123371427D01*
X156136657Y-123371427D02*
X156222371Y-123371427D01*
X156222371Y-123371427D02*
X156279514Y-123399999D01*
X156279514Y-123399999D02*
X156308085Y-123428570D01*
X156308085Y-123428570D02*
X156336657Y-123485713D01*
X156336657Y-123485713D02*
X156336657Y-123714284D01*
X156308085Y-123114284D02*
X156308085Y-122914284D01*
X156622371Y-122828570D02*
X156622371Y-123114284D01*
X156622371Y-123114284D02*
X156022371Y-123114284D01*
X156022371Y-123114284D02*
X156022371Y-122828570D01*
X156279514Y-122485713D02*
X156250942Y-122542856D01*
X156250942Y-122542856D02*
X156222371Y-122571427D01*
X156222371Y-122571427D02*
X156165228Y-122599999D01*
X156165228Y-122599999D02*
X156136657Y-122599999D01*
X156136657Y-122599999D02*
X156079514Y-122571427D01*
X156079514Y-122571427D02*
X156050942Y-122542856D01*
X156050942Y-122542856D02*
X156022371Y-122485713D01*
X156022371Y-122485713D02*
X156022371Y-122371427D01*
X156022371Y-122371427D02*
X156050942Y-122314285D01*
X156050942Y-122314285D02*
X156079514Y-122285713D01*
X156079514Y-122285713D02*
X156136657Y-122257142D01*
X156136657Y-122257142D02*
X156165228Y-122257142D01*
X156165228Y-122257142D02*
X156222371Y-122285713D01*
X156222371Y-122285713D02*
X156250942Y-122314285D01*
X156250942Y-122314285D02*
X156279514Y-122371427D01*
X156279514Y-122371427D02*
X156279514Y-122485713D01*
X156279514Y-122485713D02*
X156308085Y-122542856D01*
X156308085Y-122542856D02*
X156336657Y-122571427D01*
X156336657Y-122571427D02*
X156393800Y-122599999D01*
X156393800Y-122599999D02*
X156508085Y-122599999D01*
X156508085Y-122599999D02*
X156565228Y-122571427D01*
X156565228Y-122571427D02*
X156593800Y-122542856D01*
X156593800Y-122542856D02*
X156622371Y-122485713D01*
X156622371Y-122485713D02*
X156622371Y-122371427D01*
X156622371Y-122371427D02*
X156593800Y-122314285D01*
X156593800Y-122314285D02*
X156565228Y-122285713D01*
X156565228Y-122285713D02*
X156508085Y-122257142D01*
X156508085Y-122257142D02*
X156393800Y-122257142D01*
X156393800Y-122257142D02*
X156336657Y-122285713D01*
X156336657Y-122285713D02*
X156308085Y-122314285D01*
X156308085Y-122314285D02*
X156279514Y-122371427D01*
X151542371Y-78028571D02*
X150942371Y-78028571D01*
X150942371Y-78028571D02*
X150942371Y-77800000D01*
X150942371Y-77800000D02*
X150970942Y-77742857D01*
X150970942Y-77742857D02*
X150999514Y-77714286D01*
X150999514Y-77714286D02*
X151056657Y-77685714D01*
X151056657Y-77685714D02*
X151142371Y-77685714D01*
X151142371Y-77685714D02*
X151199514Y-77714286D01*
X151199514Y-77714286D02*
X151228085Y-77742857D01*
X151228085Y-77742857D02*
X151256657Y-77800000D01*
X151256657Y-77800000D02*
X151256657Y-78028571D01*
X150970942Y-77114286D02*
X150942371Y-77171429D01*
X150942371Y-77171429D02*
X150942371Y-77257143D01*
X150942371Y-77257143D02*
X150970942Y-77342857D01*
X150970942Y-77342857D02*
X151028085Y-77400000D01*
X151028085Y-77400000D02*
X151085228Y-77428571D01*
X151085228Y-77428571D02*
X151199514Y-77457143D01*
X151199514Y-77457143D02*
X151285228Y-77457143D01*
X151285228Y-77457143D02*
X151399514Y-77428571D01*
X151399514Y-77428571D02*
X151456657Y-77400000D01*
X151456657Y-77400000D02*
X151513800Y-77342857D01*
X151513800Y-77342857D02*
X151542371Y-77257143D01*
X151542371Y-77257143D02*
X151542371Y-77200000D01*
X151542371Y-77200000D02*
X151513800Y-77114286D01*
X151513800Y-77114286D02*
X151485228Y-77085714D01*
X151485228Y-77085714D02*
X151285228Y-77085714D01*
X151285228Y-77085714D02*
X151285228Y-77200000D01*
X151542371Y-76514286D02*
X151542371Y-76857143D01*
X151542371Y-76685714D02*
X150942371Y-76685714D01*
X150942371Y-76685714D02*
X151028085Y-76742857D01*
X151028085Y-76742857D02*
X151085228Y-76800000D01*
X151085228Y-76800000D02*
X151113800Y-76857143D01*
X151542371Y-75942857D02*
X151542371Y-76285714D01*
X151542371Y-76114285D02*
X150942371Y-76114285D01*
X150942371Y-76114285D02*
X151028085Y-76171428D01*
X151028085Y-76171428D02*
X151085228Y-76228571D01*
X151085228Y-76228571D02*
X151113800Y-76285714D01*
X172257143Y-91382371D02*
X172257143Y-90782371D01*
X172257143Y-90782371D02*
X172485714Y-90782371D01*
X172485714Y-90782371D02*
X172542857Y-90810942D01*
X172542857Y-90810942D02*
X172571428Y-90839514D01*
X172571428Y-90839514D02*
X172600000Y-90896657D01*
X172600000Y-90896657D02*
X172600000Y-90982371D01*
X172600000Y-90982371D02*
X172571428Y-91039514D01*
X172571428Y-91039514D02*
X172542857Y-91068085D01*
X172542857Y-91068085D02*
X172485714Y-91096657D01*
X172485714Y-91096657D02*
X172257143Y-91096657D01*
X173200000Y-91325228D02*
X173171428Y-91353800D01*
X173171428Y-91353800D02*
X173085714Y-91382371D01*
X173085714Y-91382371D02*
X173028571Y-91382371D01*
X173028571Y-91382371D02*
X172942857Y-91353800D01*
X172942857Y-91353800D02*
X172885714Y-91296657D01*
X172885714Y-91296657D02*
X172857143Y-91239514D01*
X172857143Y-91239514D02*
X172828571Y-91125228D01*
X172828571Y-91125228D02*
X172828571Y-91039514D01*
X172828571Y-91039514D02*
X172857143Y-90925228D01*
X172857143Y-90925228D02*
X172885714Y-90868085D01*
X172885714Y-90868085D02*
X172942857Y-90810942D01*
X172942857Y-90810942D02*
X173028571Y-90782371D01*
X173028571Y-90782371D02*
X173085714Y-90782371D01*
X173085714Y-90782371D02*
X173171428Y-90810942D01*
X173171428Y-90810942D02*
X173200000Y-90839514D01*
X173542857Y-91039514D02*
X173485714Y-91010942D01*
X173485714Y-91010942D02*
X173457143Y-90982371D01*
X173457143Y-90982371D02*
X173428571Y-90925228D01*
X173428571Y-90925228D02*
X173428571Y-90896657D01*
X173428571Y-90896657D02*
X173457143Y-90839514D01*
X173457143Y-90839514D02*
X173485714Y-90810942D01*
X173485714Y-90810942D02*
X173542857Y-90782371D01*
X173542857Y-90782371D02*
X173657143Y-90782371D01*
X173657143Y-90782371D02*
X173714286Y-90810942D01*
X173714286Y-90810942D02*
X173742857Y-90839514D01*
X173742857Y-90839514D02*
X173771428Y-90896657D01*
X173771428Y-90896657D02*
X173771428Y-90925228D01*
X173771428Y-90925228D02*
X173742857Y-90982371D01*
X173742857Y-90982371D02*
X173714286Y-91010942D01*
X173714286Y-91010942D02*
X173657143Y-91039514D01*
X173657143Y-91039514D02*
X173542857Y-91039514D01*
X173542857Y-91039514D02*
X173485714Y-91068085D01*
X173485714Y-91068085D02*
X173457143Y-91096657D01*
X173457143Y-91096657D02*
X173428571Y-91153800D01*
X173428571Y-91153800D02*
X173428571Y-91268085D01*
X173428571Y-91268085D02*
X173457143Y-91325228D01*
X173457143Y-91325228D02*
X173485714Y-91353800D01*
X173485714Y-91353800D02*
X173542857Y-91382371D01*
X173542857Y-91382371D02*
X173657143Y-91382371D01*
X173657143Y-91382371D02*
X173714286Y-91353800D01*
X173714286Y-91353800D02*
X173742857Y-91325228D01*
X173742857Y-91325228D02*
X173771428Y-91268085D01*
X173771428Y-91268085D02*
X173771428Y-91153800D01*
X173771428Y-91153800D02*
X173742857Y-91096657D01*
X173742857Y-91096657D02*
X173714286Y-91068085D01*
X173714286Y-91068085D02*
X173657143Y-91039514D01*
X125942857Y-98773800D02*
X126400000Y-98773800D01*
X126171428Y-99002371D02*
X126171428Y-98545228D01*
X126628571Y-98402371D02*
X126999999Y-98402371D01*
X126999999Y-98402371D02*
X126799999Y-98630942D01*
X126799999Y-98630942D02*
X126885714Y-98630942D01*
X126885714Y-98630942D02*
X126942857Y-98659514D01*
X126942857Y-98659514D02*
X126971428Y-98688085D01*
X126971428Y-98688085D02*
X126999999Y-98745228D01*
X126999999Y-98745228D02*
X126999999Y-98888085D01*
X126999999Y-98888085D02*
X126971428Y-98945228D01*
X126971428Y-98945228D02*
X126942857Y-98973800D01*
X126942857Y-98973800D02*
X126885714Y-99002371D01*
X126885714Y-99002371D02*
X126714285Y-99002371D01*
X126714285Y-99002371D02*
X126657142Y-98973800D01*
X126657142Y-98973800D02*
X126628571Y-98945228D01*
X127171428Y-98402371D02*
X127371428Y-99002371D01*
X127371428Y-99002371D02*
X127571428Y-98402371D01*
X127714286Y-98402371D02*
X128085714Y-98402371D01*
X128085714Y-98402371D02*
X127885714Y-98630942D01*
X127885714Y-98630942D02*
X127971429Y-98630942D01*
X127971429Y-98630942D02*
X128028572Y-98659514D01*
X128028572Y-98659514D02*
X128057143Y-98688085D01*
X128057143Y-98688085D02*
X128085714Y-98745228D01*
X128085714Y-98745228D02*
X128085714Y-98888085D01*
X128085714Y-98888085D02*
X128057143Y-98945228D01*
X128057143Y-98945228D02*
X128028572Y-98973800D01*
X128028572Y-98973800D02*
X127971429Y-99002371D01*
X127971429Y-99002371D02*
X127800000Y-99002371D01*
X127800000Y-99002371D02*
X127742857Y-98973800D01*
X127742857Y-98973800D02*
X127714286Y-98945228D01*
X126528572Y-106622371D02*
X126528572Y-106022371D01*
X126528572Y-106022371D02*
X126871429Y-106622371D01*
X126871429Y-106622371D02*
X126871429Y-106022371D01*
X127500000Y-106565228D02*
X127471428Y-106593800D01*
X127471428Y-106593800D02*
X127385714Y-106622371D01*
X127385714Y-106622371D02*
X127328571Y-106622371D01*
X127328571Y-106622371D02*
X127242857Y-106593800D01*
X127242857Y-106593800D02*
X127185714Y-106536657D01*
X127185714Y-106536657D02*
X127157143Y-106479514D01*
X127157143Y-106479514D02*
X127128571Y-106365228D01*
X127128571Y-106365228D02*
X127128571Y-106279514D01*
X127128571Y-106279514D02*
X127157143Y-106165228D01*
X127157143Y-106165228D02*
X127185714Y-106108085D01*
X127185714Y-106108085D02*
X127242857Y-106050942D01*
X127242857Y-106050942D02*
X127328571Y-106022371D01*
X127328571Y-106022371D02*
X127385714Y-106022371D01*
X127385714Y-106022371D02*
X127471428Y-106050942D01*
X127471428Y-106050942D02*
X127500000Y-106079514D01*
X169322371Y-78028571D02*
X168722371Y-78028571D01*
X168722371Y-78028571D02*
X168722371Y-77800000D01*
X168722371Y-77800000D02*
X168750942Y-77742857D01*
X168750942Y-77742857D02*
X168779514Y-77714286D01*
X168779514Y-77714286D02*
X168836657Y-77685714D01*
X168836657Y-77685714D02*
X168922371Y-77685714D01*
X168922371Y-77685714D02*
X168979514Y-77714286D01*
X168979514Y-77714286D02*
X169008085Y-77742857D01*
X169008085Y-77742857D02*
X169036657Y-77800000D01*
X169036657Y-77800000D02*
X169036657Y-78028571D01*
X169265228Y-77085714D02*
X169293800Y-77114286D01*
X169293800Y-77114286D02*
X169322371Y-77200000D01*
X169322371Y-77200000D02*
X169322371Y-77257143D01*
X169322371Y-77257143D02*
X169293800Y-77342857D01*
X169293800Y-77342857D02*
X169236657Y-77400000D01*
X169236657Y-77400000D02*
X169179514Y-77428571D01*
X169179514Y-77428571D02*
X169065228Y-77457143D01*
X169065228Y-77457143D02*
X168979514Y-77457143D01*
X168979514Y-77457143D02*
X168865228Y-77428571D01*
X168865228Y-77428571D02*
X168808085Y-77400000D01*
X168808085Y-77400000D02*
X168750942Y-77342857D01*
X168750942Y-77342857D02*
X168722371Y-77257143D01*
X168722371Y-77257143D02*
X168722371Y-77200000D01*
X168722371Y-77200000D02*
X168750942Y-77114286D01*
X168750942Y-77114286D02*
X168779514Y-77085714D01*
X169322371Y-76514286D02*
X169322371Y-76857143D01*
X169322371Y-76685714D02*
X168722371Y-76685714D01*
X168722371Y-76685714D02*
X168808085Y-76742857D01*
X168808085Y-76742857D02*
X168865228Y-76800000D01*
X168865228Y-76800000D02*
X168893800Y-76857143D01*
X169322371Y-75942857D02*
X169322371Y-76285714D01*
X169322371Y-76114285D02*
X168722371Y-76114285D01*
X168722371Y-76114285D02*
X168808085Y-76171428D01*
X168808085Y-76171428D02*
X168865228Y-76228571D01*
X168865228Y-76228571D02*
X168893800Y-76285714D01*
X138842371Y-123742855D02*
X138242371Y-123742855D01*
X138242371Y-123742855D02*
X138242371Y-123514284D01*
X138242371Y-123514284D02*
X138270942Y-123457141D01*
X138270942Y-123457141D02*
X138299514Y-123428570D01*
X138299514Y-123428570D02*
X138356657Y-123399998D01*
X138356657Y-123399998D02*
X138442371Y-123399998D01*
X138442371Y-123399998D02*
X138499514Y-123428570D01*
X138499514Y-123428570D02*
X138528085Y-123457141D01*
X138528085Y-123457141D02*
X138556657Y-123514284D01*
X138556657Y-123514284D02*
X138556657Y-123742855D01*
X138785228Y-122799998D02*
X138813800Y-122828570D01*
X138813800Y-122828570D02*
X138842371Y-122914284D01*
X138842371Y-122914284D02*
X138842371Y-122971427D01*
X138842371Y-122971427D02*
X138813800Y-123057141D01*
X138813800Y-123057141D02*
X138756657Y-123114284D01*
X138756657Y-123114284D02*
X138699514Y-123142855D01*
X138699514Y-123142855D02*
X138585228Y-123171427D01*
X138585228Y-123171427D02*
X138499514Y-123171427D01*
X138499514Y-123171427D02*
X138385228Y-123142855D01*
X138385228Y-123142855D02*
X138328085Y-123114284D01*
X138328085Y-123114284D02*
X138270942Y-123057141D01*
X138270942Y-123057141D02*
X138242371Y-122971427D01*
X138242371Y-122971427D02*
X138242371Y-122914284D01*
X138242371Y-122914284D02*
X138270942Y-122828570D01*
X138270942Y-122828570D02*
X138299514Y-122799998D01*
X138242371Y-122257141D02*
X138242371Y-122542855D01*
X138242371Y-122542855D02*
X138528085Y-122571427D01*
X138528085Y-122571427D02*
X138499514Y-122542855D01*
X138499514Y-122542855D02*
X138470942Y-122485713D01*
X138470942Y-122485713D02*
X138470942Y-122342855D01*
X138470942Y-122342855D02*
X138499514Y-122285713D01*
X138499514Y-122285713D02*
X138528085Y-122257141D01*
X138528085Y-122257141D02*
X138585228Y-122228570D01*
X138585228Y-122228570D02*
X138728085Y-122228570D01*
X138728085Y-122228570D02*
X138785228Y-122257141D01*
X138785228Y-122257141D02*
X138813800Y-122285713D01*
X138813800Y-122285713D02*
X138842371Y-122342855D01*
X138842371Y-122342855D02*
X138842371Y-122485713D01*
X138842371Y-122485713D02*
X138813800Y-122542855D01*
X138813800Y-122542855D02*
X138785228Y-122571427D01*
X126014286Y-109162371D02*
X126014286Y-108562371D01*
X126014286Y-108562371D02*
X126357143Y-109162371D01*
X126357143Y-109162371D02*
X126357143Y-108562371D01*
X126985714Y-109162371D02*
X126785714Y-108876657D01*
X126642857Y-109162371D02*
X126642857Y-108562371D01*
X126642857Y-108562371D02*
X126871428Y-108562371D01*
X126871428Y-108562371D02*
X126928571Y-108590942D01*
X126928571Y-108590942D02*
X126957142Y-108619514D01*
X126957142Y-108619514D02*
X126985714Y-108676657D01*
X126985714Y-108676657D02*
X126985714Y-108762371D01*
X126985714Y-108762371D02*
X126957142Y-108819514D01*
X126957142Y-108819514D02*
X126928571Y-108848085D01*
X126928571Y-108848085D02*
X126871428Y-108876657D01*
X126871428Y-108876657D02*
X126642857Y-108876657D01*
X127214285Y-109133800D02*
X127300000Y-109162371D01*
X127300000Y-109162371D02*
X127442857Y-109162371D01*
X127442857Y-109162371D02*
X127500000Y-109133800D01*
X127500000Y-109133800D02*
X127528571Y-109105228D01*
X127528571Y-109105228D02*
X127557142Y-109048085D01*
X127557142Y-109048085D02*
X127557142Y-108990942D01*
X127557142Y-108990942D02*
X127528571Y-108933800D01*
X127528571Y-108933800D02*
X127500000Y-108905228D01*
X127500000Y-108905228D02*
X127442857Y-108876657D01*
X127442857Y-108876657D02*
X127328571Y-108848085D01*
X127328571Y-108848085D02*
X127271428Y-108819514D01*
X127271428Y-108819514D02*
X127242857Y-108790942D01*
X127242857Y-108790942D02*
X127214285Y-108733800D01*
X127214285Y-108733800D02*
X127214285Y-108676657D01*
X127214285Y-108676657D02*
X127242857Y-108619514D01*
X127242857Y-108619514D02*
X127271428Y-108590942D01*
X127271428Y-108590942D02*
X127328571Y-108562371D01*
X127328571Y-108562371D02*
X127471428Y-108562371D01*
X127471428Y-108562371D02*
X127557142Y-108590942D01*
X127728571Y-108562371D02*
X128071429Y-108562371D01*
X127900000Y-109162371D02*
X127900000Y-108562371D01*
X171971428Y-119322371D02*
X171971428Y-118722371D01*
X171971428Y-118722371D02*
X172199999Y-118722371D01*
X172199999Y-118722371D02*
X172257142Y-118750942D01*
X172257142Y-118750942D02*
X172285713Y-118779514D01*
X172285713Y-118779514D02*
X172314285Y-118836657D01*
X172314285Y-118836657D02*
X172314285Y-118922371D01*
X172314285Y-118922371D02*
X172285713Y-118979514D01*
X172285713Y-118979514D02*
X172257142Y-119008085D01*
X172257142Y-119008085D02*
X172199999Y-119036657D01*
X172199999Y-119036657D02*
X171971428Y-119036657D01*
X172771428Y-119008085D02*
X172857142Y-119036657D01*
X172857142Y-119036657D02*
X172885713Y-119065228D01*
X172885713Y-119065228D02*
X172914285Y-119122371D01*
X172914285Y-119122371D02*
X172914285Y-119208085D01*
X172914285Y-119208085D02*
X172885713Y-119265228D01*
X172885713Y-119265228D02*
X172857142Y-119293800D01*
X172857142Y-119293800D02*
X172799999Y-119322371D01*
X172799999Y-119322371D02*
X172571428Y-119322371D01*
X172571428Y-119322371D02*
X172571428Y-118722371D01*
X172571428Y-118722371D02*
X172771428Y-118722371D01*
X172771428Y-118722371D02*
X172828571Y-118750942D01*
X172828571Y-118750942D02*
X172857142Y-118779514D01*
X172857142Y-118779514D02*
X172885713Y-118836657D01*
X172885713Y-118836657D02*
X172885713Y-118893800D01*
X172885713Y-118893800D02*
X172857142Y-118950942D01*
X172857142Y-118950942D02*
X172828571Y-118979514D01*
X172828571Y-118979514D02*
X172771428Y-119008085D01*
X172771428Y-119008085D02*
X172571428Y-119008085D01*
X173485713Y-119322371D02*
X173142856Y-119322371D01*
X173314285Y-119322371D02*
X173314285Y-118722371D01*
X173314285Y-118722371D02*
X173257142Y-118808085D01*
X173257142Y-118808085D02*
X173199999Y-118865228D01*
X173199999Y-118865228D02*
X173142856Y-118893800D01*
X174028571Y-118722371D02*
X173742857Y-118722371D01*
X173742857Y-118722371D02*
X173714285Y-119008085D01*
X173714285Y-119008085D02*
X173742857Y-118979514D01*
X173742857Y-118979514D02*
X173800000Y-118950942D01*
X173800000Y-118950942D02*
X173942857Y-118950942D01*
X173942857Y-118950942D02*
X174000000Y-118979514D01*
X174000000Y-118979514D02*
X174028571Y-119008085D01*
X174028571Y-119008085D02*
X174057142Y-119065228D01*
X174057142Y-119065228D02*
X174057142Y-119208085D01*
X174057142Y-119208085D02*
X174028571Y-119265228D01*
X174028571Y-119265228D02*
X174000000Y-119293800D01*
X174000000Y-119293800D02*
X173942857Y-119322371D01*
X173942857Y-119322371D02*
X173800000Y-119322371D01*
X173800000Y-119322371D02*
X173742857Y-119293800D01*
X173742857Y-119293800D02*
X173714285Y-119265228D01*
X128453800Y-78057142D02*
X128453800Y-77600000D01*
X128682371Y-77828571D02*
X128225228Y-77828571D01*
X128082371Y-77371428D02*
X128082371Y-77000000D01*
X128082371Y-77000000D02*
X128310942Y-77200000D01*
X128310942Y-77200000D02*
X128310942Y-77114285D01*
X128310942Y-77114285D02*
X128339514Y-77057143D01*
X128339514Y-77057143D02*
X128368085Y-77028571D01*
X128368085Y-77028571D02*
X128425228Y-77000000D01*
X128425228Y-77000000D02*
X128568085Y-77000000D01*
X128568085Y-77000000D02*
X128625228Y-77028571D01*
X128625228Y-77028571D02*
X128653800Y-77057143D01*
X128653800Y-77057143D02*
X128682371Y-77114285D01*
X128682371Y-77114285D02*
X128682371Y-77285714D01*
X128682371Y-77285714D02*
X128653800Y-77342857D01*
X128653800Y-77342857D02*
X128625228Y-77371428D01*
X128082371Y-76828571D02*
X128682371Y-76628571D01*
X128682371Y-76628571D02*
X128082371Y-76428571D01*
X128082371Y-76285713D02*
X128082371Y-75914285D01*
X128082371Y-75914285D02*
X128310942Y-76114285D01*
X128310942Y-76114285D02*
X128310942Y-76028570D01*
X128310942Y-76028570D02*
X128339514Y-75971428D01*
X128339514Y-75971428D02*
X128368085Y-75942856D01*
X128368085Y-75942856D02*
X128425228Y-75914285D01*
X128425228Y-75914285D02*
X128568085Y-75914285D01*
X128568085Y-75914285D02*
X128625228Y-75942856D01*
X128625228Y-75942856D02*
X128653800Y-75971428D01*
X128653800Y-75971428D02*
X128682371Y-76028570D01*
X128682371Y-76028570D02*
X128682371Y-76199999D01*
X128682371Y-76199999D02*
X128653800Y-76257142D01*
X128653800Y-76257142D02*
X128625228Y-76285713D01*
X141382371Y-77742856D02*
X140782371Y-77742856D01*
X140782371Y-77742856D02*
X140782371Y-77514285D01*
X140782371Y-77514285D02*
X140810942Y-77457142D01*
X140810942Y-77457142D02*
X140839514Y-77428571D01*
X140839514Y-77428571D02*
X140896657Y-77399999D01*
X140896657Y-77399999D02*
X140982371Y-77399999D01*
X140982371Y-77399999D02*
X141039514Y-77428571D01*
X141039514Y-77428571D02*
X141068085Y-77457142D01*
X141068085Y-77457142D02*
X141096657Y-77514285D01*
X141096657Y-77514285D02*
X141096657Y-77742856D01*
X141068085Y-76942856D02*
X141096657Y-76857142D01*
X141096657Y-76857142D02*
X141125228Y-76828571D01*
X141125228Y-76828571D02*
X141182371Y-76799999D01*
X141182371Y-76799999D02*
X141268085Y-76799999D01*
X141268085Y-76799999D02*
X141325228Y-76828571D01*
X141325228Y-76828571D02*
X141353800Y-76857142D01*
X141353800Y-76857142D02*
X141382371Y-76914285D01*
X141382371Y-76914285D02*
X141382371Y-77142856D01*
X141382371Y-77142856D02*
X140782371Y-77142856D01*
X140782371Y-77142856D02*
X140782371Y-76942856D01*
X140782371Y-76942856D02*
X140810942Y-76885714D01*
X140810942Y-76885714D02*
X140839514Y-76857142D01*
X140839514Y-76857142D02*
X140896657Y-76828571D01*
X140896657Y-76828571D02*
X140953800Y-76828571D01*
X140953800Y-76828571D02*
X141010942Y-76857142D01*
X141010942Y-76857142D02*
X141039514Y-76885714D01*
X141039514Y-76885714D02*
X141068085Y-76942856D01*
X141068085Y-76942856D02*
X141068085Y-77142856D01*
X140982371Y-76285714D02*
X141382371Y-76285714D01*
X140753800Y-76428571D02*
X141182371Y-76571428D01*
X141182371Y-76571428D02*
X141182371Y-76199999D01*
X136302371Y-123699998D02*
X135702371Y-123699998D01*
X135702371Y-123699998D02*
X135702371Y-123471427D01*
X135702371Y-123471427D02*
X135730942Y-123414284D01*
X135730942Y-123414284D02*
X135759514Y-123385713D01*
X135759514Y-123385713D02*
X135816657Y-123357141D01*
X135816657Y-123357141D02*
X135902371Y-123357141D01*
X135902371Y-123357141D02*
X135959514Y-123385713D01*
X135959514Y-123385713D02*
X135988085Y-123414284D01*
X135988085Y-123414284D02*
X136016657Y-123471427D01*
X136016657Y-123471427D02*
X136016657Y-123699998D01*
X136130942Y-123128570D02*
X136130942Y-122842856D01*
X136302371Y-123185713D02*
X135702371Y-122985713D01*
X135702371Y-122985713D02*
X136302371Y-122785713D01*
X135702371Y-122642855D02*
X135702371Y-122242855D01*
X135702371Y-122242855D02*
X136302371Y-122499998D01*
X169322371Y-124028570D02*
X168722371Y-124028570D01*
X168722371Y-124028570D02*
X168722371Y-123799999D01*
X168722371Y-123799999D02*
X168750942Y-123742856D01*
X168750942Y-123742856D02*
X168779514Y-123714285D01*
X168779514Y-123714285D02*
X168836657Y-123685713D01*
X168836657Y-123685713D02*
X168922371Y-123685713D01*
X168922371Y-123685713D02*
X168979514Y-123714285D01*
X168979514Y-123714285D02*
X169008085Y-123742856D01*
X169008085Y-123742856D02*
X169036657Y-123799999D01*
X169036657Y-123799999D02*
X169036657Y-124028570D01*
X169008085Y-123228570D02*
X169036657Y-123142856D01*
X169036657Y-123142856D02*
X169065228Y-123114285D01*
X169065228Y-123114285D02*
X169122371Y-123085713D01*
X169122371Y-123085713D02*
X169208085Y-123085713D01*
X169208085Y-123085713D02*
X169265228Y-123114285D01*
X169265228Y-123114285D02*
X169293800Y-123142856D01*
X169293800Y-123142856D02*
X169322371Y-123199999D01*
X169322371Y-123199999D02*
X169322371Y-123428570D01*
X169322371Y-123428570D02*
X168722371Y-123428570D01*
X168722371Y-123428570D02*
X168722371Y-123228570D01*
X168722371Y-123228570D02*
X168750942Y-123171428D01*
X168750942Y-123171428D02*
X168779514Y-123142856D01*
X168779514Y-123142856D02*
X168836657Y-123114285D01*
X168836657Y-123114285D02*
X168893800Y-123114285D01*
X168893800Y-123114285D02*
X168950942Y-123142856D01*
X168950942Y-123142856D02*
X168979514Y-123171428D01*
X168979514Y-123171428D02*
X169008085Y-123228570D01*
X169008085Y-123228570D02*
X169008085Y-123428570D01*
X169322371Y-122514285D02*
X169322371Y-122857142D01*
X169322371Y-122685713D02*
X168722371Y-122685713D01*
X168722371Y-122685713D02*
X168808085Y-122742856D01*
X168808085Y-122742856D02*
X168865228Y-122799999D01*
X168865228Y-122799999D02*
X168893800Y-122857142D01*
X168722371Y-122142856D02*
X168722371Y-122085713D01*
X168722371Y-122085713D02*
X168750942Y-122028570D01*
X168750942Y-122028570D02*
X168779514Y-121999999D01*
X168779514Y-121999999D02*
X168836657Y-121971427D01*
X168836657Y-121971427D02*
X168950942Y-121942856D01*
X168950942Y-121942856D02*
X169093800Y-121942856D01*
X169093800Y-121942856D02*
X169208085Y-121971427D01*
X169208085Y-121971427D02*
X169265228Y-121999999D01*
X169265228Y-121999999D02*
X169293800Y-122028570D01*
X169293800Y-122028570D02*
X169322371Y-122085713D01*
X169322371Y-122085713D02*
X169322371Y-122142856D01*
X169322371Y-122142856D02*
X169293800Y-122199999D01*
X169293800Y-122199999D02*
X169265228Y-122228570D01*
X169265228Y-122228570D02*
X169208085Y-122257141D01*
X169208085Y-122257141D02*
X169093800Y-122285713D01*
X169093800Y-122285713D02*
X168950942Y-122285713D01*
X168950942Y-122285713D02*
X168836657Y-122257141D01*
X168836657Y-122257141D02*
X168779514Y-122228570D01*
X168779514Y-122228570D02*
X168750942Y-122199999D01*
X168750942Y-122199999D02*
X168722371Y-122142856D01*
X154082371Y-123742855D02*
X153482371Y-123742855D01*
X153482371Y-123742855D02*
X153482371Y-123514284D01*
X153482371Y-123514284D02*
X153510942Y-123457141D01*
X153510942Y-123457141D02*
X153539514Y-123428570D01*
X153539514Y-123428570D02*
X153596657Y-123399998D01*
X153596657Y-123399998D02*
X153682371Y-123399998D01*
X153682371Y-123399998D02*
X153739514Y-123428570D01*
X153739514Y-123428570D02*
X153768085Y-123457141D01*
X153768085Y-123457141D02*
X153796657Y-123514284D01*
X153796657Y-123514284D02*
X153796657Y-123742855D01*
X153510942Y-122828570D02*
X153482371Y-122885713D01*
X153482371Y-122885713D02*
X153482371Y-122971427D01*
X153482371Y-122971427D02*
X153510942Y-123057141D01*
X153510942Y-123057141D02*
X153568085Y-123114284D01*
X153568085Y-123114284D02*
X153625228Y-123142855D01*
X153625228Y-123142855D02*
X153739514Y-123171427D01*
X153739514Y-123171427D02*
X153825228Y-123171427D01*
X153825228Y-123171427D02*
X153939514Y-123142855D01*
X153939514Y-123142855D02*
X153996657Y-123114284D01*
X153996657Y-123114284D02*
X154053800Y-123057141D01*
X154053800Y-123057141D02*
X154082371Y-122971427D01*
X154082371Y-122971427D02*
X154082371Y-122914284D01*
X154082371Y-122914284D02*
X154053800Y-122828570D01*
X154053800Y-122828570D02*
X154025228Y-122799998D01*
X154025228Y-122799998D02*
X153825228Y-122799998D01*
X153825228Y-122799998D02*
X153825228Y-122914284D01*
X154082371Y-122228570D02*
X154082371Y-122571427D01*
X154082371Y-122399998D02*
X153482371Y-122399998D01*
X153482371Y-122399998D02*
X153568085Y-122457141D01*
X153568085Y-122457141D02*
X153625228Y-122514284D01*
X153625228Y-122514284D02*
X153653800Y-122571427D01*
X172542857Y-95890942D02*
X172485715Y-95862371D01*
X172485715Y-95862371D02*
X172400000Y-95862371D01*
X172400000Y-95862371D02*
X172314286Y-95890942D01*
X172314286Y-95890942D02*
X172257143Y-95948085D01*
X172257143Y-95948085D02*
X172228572Y-96005228D01*
X172228572Y-96005228D02*
X172200000Y-96119514D01*
X172200000Y-96119514D02*
X172200000Y-96205228D01*
X172200000Y-96205228D02*
X172228572Y-96319514D01*
X172228572Y-96319514D02*
X172257143Y-96376657D01*
X172257143Y-96376657D02*
X172314286Y-96433800D01*
X172314286Y-96433800D02*
X172400000Y-96462371D01*
X172400000Y-96462371D02*
X172457143Y-96462371D01*
X172457143Y-96462371D02*
X172542857Y-96433800D01*
X172542857Y-96433800D02*
X172571429Y-96405228D01*
X172571429Y-96405228D02*
X172571429Y-96205228D01*
X172571429Y-96205228D02*
X172457143Y-96205228D01*
X172828572Y-96462371D02*
X172828572Y-95862371D01*
X172828572Y-95862371D02*
X173171429Y-96462371D01*
X173171429Y-96462371D02*
X173171429Y-95862371D01*
X173457143Y-96462371D02*
X173457143Y-95862371D01*
X173457143Y-95862371D02*
X173600000Y-95862371D01*
X173600000Y-95862371D02*
X173685714Y-95890942D01*
X173685714Y-95890942D02*
X173742857Y-95948085D01*
X173742857Y-95948085D02*
X173771428Y-96005228D01*
X173771428Y-96005228D02*
X173800000Y-96119514D01*
X173800000Y-96119514D02*
X173800000Y-96205228D01*
X173800000Y-96205228D02*
X173771428Y-96319514D01*
X173771428Y-96319514D02*
X173742857Y-96376657D01*
X173742857Y-96376657D02*
X173685714Y-96433800D01*
X173685714Y-96433800D02*
X173600000Y-96462371D01*
X173600000Y-96462371D02*
X173457143Y-96462371D01*
X171971428Y-111702371D02*
X171971428Y-111102371D01*
X171971428Y-111102371D02*
X172199999Y-111102371D01*
X172199999Y-111102371D02*
X172257142Y-111130942D01*
X172257142Y-111130942D02*
X172285713Y-111159514D01*
X172285713Y-111159514D02*
X172314285Y-111216657D01*
X172314285Y-111216657D02*
X172314285Y-111302371D01*
X172314285Y-111302371D02*
X172285713Y-111359514D01*
X172285713Y-111359514D02*
X172257142Y-111388085D01*
X172257142Y-111388085D02*
X172199999Y-111416657D01*
X172199999Y-111416657D02*
X171971428Y-111416657D01*
X172571428Y-111702371D02*
X172571428Y-111102371D01*
X172571428Y-111102371D02*
X172714285Y-111102371D01*
X172714285Y-111102371D02*
X172799999Y-111130942D01*
X172799999Y-111130942D02*
X172857142Y-111188085D01*
X172857142Y-111188085D02*
X172885713Y-111245228D01*
X172885713Y-111245228D02*
X172914285Y-111359514D01*
X172914285Y-111359514D02*
X172914285Y-111445228D01*
X172914285Y-111445228D02*
X172885713Y-111559514D01*
X172885713Y-111559514D02*
X172857142Y-111616657D01*
X172857142Y-111616657D02*
X172799999Y-111673800D01*
X172799999Y-111673800D02*
X172714285Y-111702371D01*
X172714285Y-111702371D02*
X172571428Y-111702371D01*
X173485713Y-111702371D02*
X173142856Y-111702371D01*
X173314285Y-111702371D02*
X173314285Y-111102371D01*
X173314285Y-111102371D02*
X173257142Y-111188085D01*
X173257142Y-111188085D02*
X173199999Y-111245228D01*
X173199999Y-111245228D02*
X173142856Y-111273800D01*
X173685714Y-111102371D02*
X174057142Y-111102371D01*
X174057142Y-111102371D02*
X173857142Y-111330942D01*
X173857142Y-111330942D02*
X173942857Y-111330942D01*
X173942857Y-111330942D02*
X174000000Y-111359514D01*
X174000000Y-111359514D02*
X174028571Y-111388085D01*
X174028571Y-111388085D02*
X174057142Y-111445228D01*
X174057142Y-111445228D02*
X174057142Y-111588085D01*
X174057142Y-111588085D02*
X174028571Y-111645228D01*
X174028571Y-111645228D02*
X174000000Y-111673800D01*
X174000000Y-111673800D02*
X173942857Y-111702371D01*
X173942857Y-111702371D02*
X173771428Y-111702371D01*
X173771428Y-111702371D02*
X173714285Y-111673800D01*
X173714285Y-111673800D02*
X173685714Y-111645228D01*
X126300000Y-104082371D02*
X126300000Y-103482371D01*
X126300000Y-103482371D02*
X126528571Y-103482371D01*
X126528571Y-103482371D02*
X126585714Y-103510942D01*
X126585714Y-103510942D02*
X126614285Y-103539514D01*
X126614285Y-103539514D02*
X126642857Y-103596657D01*
X126642857Y-103596657D02*
X126642857Y-103682371D01*
X126642857Y-103682371D02*
X126614285Y-103739514D01*
X126614285Y-103739514D02*
X126585714Y-103768085D01*
X126585714Y-103768085D02*
X126528571Y-103796657D01*
X126528571Y-103796657D02*
X126300000Y-103796657D01*
X127100000Y-103768085D02*
X126900000Y-103768085D01*
X126900000Y-104082371D02*
X126900000Y-103482371D01*
X126900000Y-103482371D02*
X127185714Y-103482371D01*
X127442857Y-104082371D02*
X127557143Y-104082371D01*
X127557143Y-104082371D02*
X127614286Y-104053800D01*
X127614286Y-104053800D02*
X127642857Y-104025228D01*
X127642857Y-104025228D02*
X127700000Y-103939514D01*
X127700000Y-103939514D02*
X127728571Y-103825228D01*
X127728571Y-103825228D02*
X127728571Y-103596657D01*
X127728571Y-103596657D02*
X127700000Y-103539514D01*
X127700000Y-103539514D02*
X127671429Y-103510942D01*
X127671429Y-103510942D02*
X127614286Y-103482371D01*
X127614286Y-103482371D02*
X127500000Y-103482371D01*
X127500000Y-103482371D02*
X127442857Y-103510942D01*
X127442857Y-103510942D02*
X127414286Y-103539514D01*
X127414286Y-103539514D02*
X127385714Y-103596657D01*
X127385714Y-103596657D02*
X127385714Y-103739514D01*
X127385714Y-103739514D02*
X127414286Y-103796657D01*
X127414286Y-103796657D02*
X127442857Y-103825228D01*
X127442857Y-103825228D02*
X127500000Y-103853800D01*
X127500000Y-103853800D02*
X127614286Y-103853800D01*
X127614286Y-103853800D02*
X127671429Y-103825228D01*
X127671429Y-103825228D02*
X127700000Y-103796657D01*
X127700000Y-103796657D02*
X127728571Y-103739514D01*
X172257143Y-93922371D02*
X172257143Y-93322371D01*
X172257143Y-93322371D02*
X172485714Y-93322371D01*
X172485714Y-93322371D02*
X172542857Y-93350942D01*
X172542857Y-93350942D02*
X172571428Y-93379514D01*
X172571428Y-93379514D02*
X172600000Y-93436657D01*
X172600000Y-93436657D02*
X172600000Y-93522371D01*
X172600000Y-93522371D02*
X172571428Y-93579514D01*
X172571428Y-93579514D02*
X172542857Y-93608085D01*
X172542857Y-93608085D02*
X172485714Y-93636657D01*
X172485714Y-93636657D02*
X172257143Y-93636657D01*
X173200000Y-93865228D02*
X173171428Y-93893800D01*
X173171428Y-93893800D02*
X173085714Y-93922371D01*
X173085714Y-93922371D02*
X173028571Y-93922371D01*
X173028571Y-93922371D02*
X172942857Y-93893800D01*
X172942857Y-93893800D02*
X172885714Y-93836657D01*
X172885714Y-93836657D02*
X172857143Y-93779514D01*
X172857143Y-93779514D02*
X172828571Y-93665228D01*
X172828571Y-93665228D02*
X172828571Y-93579514D01*
X172828571Y-93579514D02*
X172857143Y-93465228D01*
X172857143Y-93465228D02*
X172885714Y-93408085D01*
X172885714Y-93408085D02*
X172942857Y-93350942D01*
X172942857Y-93350942D02*
X173028571Y-93322371D01*
X173028571Y-93322371D02*
X173085714Y-93322371D01*
X173085714Y-93322371D02*
X173171428Y-93350942D01*
X173171428Y-93350942D02*
X173200000Y-93379514D01*
X173714286Y-93322371D02*
X173600000Y-93322371D01*
X173600000Y-93322371D02*
X173542857Y-93350942D01*
X173542857Y-93350942D02*
X173514286Y-93379514D01*
X173514286Y-93379514D02*
X173457143Y-93465228D01*
X173457143Y-93465228D02*
X173428571Y-93579514D01*
X173428571Y-93579514D02*
X173428571Y-93808085D01*
X173428571Y-93808085D02*
X173457143Y-93865228D01*
X173457143Y-93865228D02*
X173485714Y-93893800D01*
X173485714Y-93893800D02*
X173542857Y-93922371D01*
X173542857Y-93922371D02*
X173657143Y-93922371D01*
X173657143Y-93922371D02*
X173714286Y-93893800D01*
X173714286Y-93893800D02*
X173742857Y-93865228D01*
X173742857Y-93865228D02*
X173771428Y-93808085D01*
X173771428Y-93808085D02*
X173771428Y-93665228D01*
X173771428Y-93665228D02*
X173742857Y-93608085D01*
X173742857Y-93608085D02*
X173714286Y-93579514D01*
X173714286Y-93579514D02*
X173657143Y-93550942D01*
X173657143Y-93550942D02*
X173542857Y-93550942D01*
X173542857Y-93550942D02*
X173485714Y-93579514D01*
X173485714Y-93579514D02*
X173457143Y-93608085D01*
X173457143Y-93608085D02*
X173428571Y-93665228D01*
X171971428Y-106622371D02*
X171971428Y-106022371D01*
X171971428Y-106022371D02*
X172199999Y-106022371D01*
X172199999Y-106022371D02*
X172257142Y-106050942D01*
X172257142Y-106050942D02*
X172285713Y-106079514D01*
X172285713Y-106079514D02*
X172314285Y-106136657D01*
X172314285Y-106136657D02*
X172314285Y-106222371D01*
X172314285Y-106222371D02*
X172285713Y-106279514D01*
X172285713Y-106279514D02*
X172257142Y-106308085D01*
X172257142Y-106308085D02*
X172199999Y-106336657D01*
X172199999Y-106336657D02*
X171971428Y-106336657D01*
X172571428Y-106622371D02*
X172571428Y-106022371D01*
X172571428Y-106022371D02*
X172714285Y-106022371D01*
X172714285Y-106022371D02*
X172799999Y-106050942D01*
X172799999Y-106050942D02*
X172857142Y-106108085D01*
X172857142Y-106108085D02*
X172885713Y-106165228D01*
X172885713Y-106165228D02*
X172914285Y-106279514D01*
X172914285Y-106279514D02*
X172914285Y-106365228D01*
X172914285Y-106365228D02*
X172885713Y-106479514D01*
X172885713Y-106479514D02*
X172857142Y-106536657D01*
X172857142Y-106536657D02*
X172799999Y-106593800D01*
X172799999Y-106593800D02*
X172714285Y-106622371D01*
X172714285Y-106622371D02*
X172571428Y-106622371D01*
X173485713Y-106622371D02*
X173142856Y-106622371D01*
X173314285Y-106622371D02*
X173314285Y-106022371D01*
X173314285Y-106022371D02*
X173257142Y-106108085D01*
X173257142Y-106108085D02*
X173199999Y-106165228D01*
X173199999Y-106165228D02*
X173142856Y-106193800D01*
X174028571Y-106022371D02*
X173742857Y-106022371D01*
X173742857Y-106022371D02*
X173714285Y-106308085D01*
X173714285Y-106308085D02*
X173742857Y-106279514D01*
X173742857Y-106279514D02*
X173800000Y-106250942D01*
X173800000Y-106250942D02*
X173942857Y-106250942D01*
X173942857Y-106250942D02*
X174000000Y-106279514D01*
X174000000Y-106279514D02*
X174028571Y-106308085D01*
X174028571Y-106308085D02*
X174057142Y-106365228D01*
X174057142Y-106365228D02*
X174057142Y-106508085D01*
X174057142Y-106508085D02*
X174028571Y-106565228D01*
X174028571Y-106565228D02*
X174000000Y-106593800D01*
X174000000Y-106593800D02*
X173942857Y-106622371D01*
X173942857Y-106622371D02*
X173800000Y-106622371D01*
X173800000Y-106622371D02*
X173742857Y-106593800D01*
X173742857Y-106593800D02*
X173714285Y-106565228D01*
X172257143Y-116782371D02*
X172257143Y-116182371D01*
X172257143Y-116182371D02*
X172485714Y-116182371D01*
X172485714Y-116182371D02*
X172542857Y-116210942D01*
X172542857Y-116210942D02*
X172571428Y-116239514D01*
X172571428Y-116239514D02*
X172600000Y-116296657D01*
X172600000Y-116296657D02*
X172600000Y-116382371D01*
X172600000Y-116382371D02*
X172571428Y-116439514D01*
X172571428Y-116439514D02*
X172542857Y-116468085D01*
X172542857Y-116468085D02*
X172485714Y-116496657D01*
X172485714Y-116496657D02*
X172257143Y-116496657D01*
X172857143Y-116782371D02*
X172857143Y-116182371D01*
X172857143Y-116182371D02*
X173000000Y-116182371D01*
X173000000Y-116182371D02*
X173085714Y-116210942D01*
X173085714Y-116210942D02*
X173142857Y-116268085D01*
X173142857Y-116268085D02*
X173171428Y-116325228D01*
X173171428Y-116325228D02*
X173200000Y-116439514D01*
X173200000Y-116439514D02*
X173200000Y-116525228D01*
X173200000Y-116525228D02*
X173171428Y-116639514D01*
X173171428Y-116639514D02*
X173142857Y-116696657D01*
X173142857Y-116696657D02*
X173085714Y-116753800D01*
X173085714Y-116753800D02*
X173000000Y-116782371D01*
X173000000Y-116782371D02*
X172857143Y-116782371D01*
X173485714Y-116782371D02*
X173600000Y-116782371D01*
X173600000Y-116782371D02*
X173657143Y-116753800D01*
X173657143Y-116753800D02*
X173685714Y-116725228D01*
X173685714Y-116725228D02*
X173742857Y-116639514D01*
X173742857Y-116639514D02*
X173771428Y-116525228D01*
X173771428Y-116525228D02*
X173771428Y-116296657D01*
X173771428Y-116296657D02*
X173742857Y-116239514D01*
X173742857Y-116239514D02*
X173714286Y-116210942D01*
X173714286Y-116210942D02*
X173657143Y-116182371D01*
X173657143Y-116182371D02*
X173542857Y-116182371D01*
X173542857Y-116182371D02*
X173485714Y-116210942D01*
X173485714Y-116210942D02*
X173457143Y-116239514D01*
X173457143Y-116239514D02*
X173428571Y-116296657D01*
X173428571Y-116296657D02*
X173428571Y-116439514D01*
X173428571Y-116439514D02*
X173457143Y-116496657D01*
X173457143Y-116496657D02*
X173485714Y-116525228D01*
X173485714Y-116525228D02*
X173542857Y-116553800D01*
X173542857Y-116553800D02*
X173657143Y-116553800D01*
X173657143Y-116553800D02*
X173714286Y-116525228D01*
X173714286Y-116525228D02*
X173742857Y-116496657D01*
X173742857Y-116496657D02*
X173771428Y-116439514D01*
X130993799Y-124057141D02*
X130993799Y-123599999D01*
X131222370Y-123828570D02*
X130765227Y-123828570D01*
X130622370Y-123371427D02*
X130622370Y-122999999D01*
X130622370Y-122999999D02*
X130850941Y-123199999D01*
X130850941Y-123199999D02*
X130850941Y-123114284D01*
X130850941Y-123114284D02*
X130879513Y-123057142D01*
X130879513Y-123057142D02*
X130908084Y-123028570D01*
X130908084Y-123028570D02*
X130965227Y-122999999D01*
X130965227Y-122999999D02*
X131108084Y-122999999D01*
X131108084Y-122999999D02*
X131165227Y-123028570D01*
X131165227Y-123028570D02*
X131193799Y-123057142D01*
X131193799Y-123057142D02*
X131222370Y-123114284D01*
X131222370Y-123114284D02*
X131222370Y-123285713D01*
X131222370Y-123285713D02*
X131193799Y-123342856D01*
X131193799Y-123342856D02*
X131165227Y-123371427D01*
X130622370Y-122828570D02*
X131222370Y-122628570D01*
X131222370Y-122628570D02*
X130622370Y-122428570D01*
X130622370Y-122285712D02*
X130622370Y-121914284D01*
X130622370Y-121914284D02*
X130850941Y-122114284D01*
X130850941Y-122114284D02*
X130850941Y-122028569D01*
X130850941Y-122028569D02*
X130879513Y-121971427D01*
X130879513Y-121971427D02*
X130908084Y-121942855D01*
X130908084Y-121942855D02*
X130965227Y-121914284D01*
X130965227Y-121914284D02*
X131108084Y-121914284D01*
X131108084Y-121914284D02*
X131165227Y-121942855D01*
X131165227Y-121942855D02*
X131193799Y-121971427D01*
X131193799Y-121971427D02*
X131222370Y-122028569D01*
X131222370Y-122028569D02*
X131222370Y-122199998D01*
X131222370Y-122199998D02*
X131193799Y-122257141D01*
X131193799Y-122257141D02*
X131165227Y-122285712D01*
X126300000Y-96462371D02*
X126300000Y-95862371D01*
X126300000Y-95862371D02*
X126528571Y-95862371D01*
X126528571Y-95862371D02*
X126585714Y-95890942D01*
X126585714Y-95890942D02*
X126614285Y-95919514D01*
X126614285Y-95919514D02*
X126642857Y-95976657D01*
X126642857Y-95976657D02*
X126642857Y-96062371D01*
X126642857Y-96062371D02*
X126614285Y-96119514D01*
X126614285Y-96119514D02*
X126585714Y-96148085D01*
X126585714Y-96148085D02*
X126528571Y-96176657D01*
X126528571Y-96176657D02*
X126300000Y-96176657D01*
X127100000Y-96148085D02*
X126900000Y-96148085D01*
X126900000Y-96462371D02*
X126900000Y-95862371D01*
X126900000Y-95862371D02*
X127185714Y-95862371D01*
X127700000Y-95862371D02*
X127414286Y-95862371D01*
X127414286Y-95862371D02*
X127385714Y-96148085D01*
X127385714Y-96148085D02*
X127414286Y-96119514D01*
X127414286Y-96119514D02*
X127471429Y-96090942D01*
X127471429Y-96090942D02*
X127614286Y-96090942D01*
X127614286Y-96090942D02*
X127671429Y-96119514D01*
X127671429Y-96119514D02*
X127700000Y-96148085D01*
X127700000Y-96148085D02*
X127728571Y-96205228D01*
X127728571Y-96205228D02*
X127728571Y-96348085D01*
X127728571Y-96348085D02*
X127700000Y-96405228D01*
X127700000Y-96405228D02*
X127671429Y-96433800D01*
X127671429Y-96433800D02*
X127614286Y-96462371D01*
X127614286Y-96462371D02*
X127471429Y-96462371D01*
X127471429Y-96462371D02*
X127414286Y-96433800D01*
X127414286Y-96433800D02*
X127385714Y-96405228D01*
X172528572Y-81222371D02*
X172528572Y-80622371D01*
X172528572Y-80622371D02*
X172871429Y-81222371D01*
X172871429Y-81222371D02*
X172871429Y-80622371D01*
X173500000Y-81165228D02*
X173471428Y-81193800D01*
X173471428Y-81193800D02*
X173385714Y-81222371D01*
X173385714Y-81222371D02*
X173328571Y-81222371D01*
X173328571Y-81222371D02*
X173242857Y-81193800D01*
X173242857Y-81193800D02*
X173185714Y-81136657D01*
X173185714Y-81136657D02*
X173157143Y-81079514D01*
X173157143Y-81079514D02*
X173128571Y-80965228D01*
X173128571Y-80965228D02*
X173128571Y-80879514D01*
X173128571Y-80879514D02*
X173157143Y-80765228D01*
X173157143Y-80765228D02*
X173185714Y-80708085D01*
X173185714Y-80708085D02*
X173242857Y-80650942D01*
X173242857Y-80650942D02*
X173328571Y-80622371D01*
X173328571Y-80622371D02*
X173385714Y-80622371D01*
X173385714Y-80622371D02*
X173471428Y-80650942D01*
X173471428Y-80650942D02*
X173500000Y-80679514D01*
X125685714Y-119093800D02*
X126142857Y-119093800D01*
X125914285Y-119322371D02*
X125914285Y-118865228D01*
X126371428Y-118722371D02*
X126742856Y-118722371D01*
X126742856Y-118722371D02*
X126542856Y-118950942D01*
X126542856Y-118950942D02*
X126628571Y-118950942D01*
X126628571Y-118950942D02*
X126685714Y-118979514D01*
X126685714Y-118979514D02*
X126714285Y-119008085D01*
X126714285Y-119008085D02*
X126742856Y-119065228D01*
X126742856Y-119065228D02*
X126742856Y-119208085D01*
X126742856Y-119208085D02*
X126714285Y-119265228D01*
X126714285Y-119265228D02*
X126685714Y-119293800D01*
X126685714Y-119293800D02*
X126628571Y-119322371D01*
X126628571Y-119322371D02*
X126457142Y-119322371D01*
X126457142Y-119322371D02*
X126399999Y-119293800D01*
X126399999Y-119293800D02*
X126371428Y-119265228D01*
X126914285Y-118722371D02*
X127114285Y-119322371D01*
X127114285Y-119322371D02*
X127314285Y-118722371D01*
X127457143Y-118722371D02*
X127828571Y-118722371D01*
X127828571Y-118722371D02*
X127628571Y-118950942D01*
X127628571Y-118950942D02*
X127714286Y-118950942D01*
X127714286Y-118950942D02*
X127771429Y-118979514D01*
X127771429Y-118979514D02*
X127800000Y-119008085D01*
X127800000Y-119008085D02*
X127828571Y-119065228D01*
X127828571Y-119065228D02*
X127828571Y-119208085D01*
X127828571Y-119208085D02*
X127800000Y-119265228D01*
X127800000Y-119265228D02*
X127771429Y-119293800D01*
X127771429Y-119293800D02*
X127714286Y-119322371D01*
X127714286Y-119322371D02*
X127542857Y-119322371D01*
X127542857Y-119322371D02*
X127485714Y-119293800D01*
X127485714Y-119293800D02*
X127457143Y-119265228D01*
X128057143Y-119150942D02*
X128342858Y-119150942D01*
X128000000Y-119322371D02*
X128200000Y-118722371D01*
X128200000Y-118722371D02*
X128400000Y-119322371D01*
X126542857Y-116210942D02*
X126485715Y-116182371D01*
X126485715Y-116182371D02*
X126400000Y-116182371D01*
X126400000Y-116182371D02*
X126314286Y-116210942D01*
X126314286Y-116210942D02*
X126257143Y-116268085D01*
X126257143Y-116268085D02*
X126228572Y-116325228D01*
X126228572Y-116325228D02*
X126200000Y-116439514D01*
X126200000Y-116439514D02*
X126200000Y-116525228D01*
X126200000Y-116525228D02*
X126228572Y-116639514D01*
X126228572Y-116639514D02*
X126257143Y-116696657D01*
X126257143Y-116696657D02*
X126314286Y-116753800D01*
X126314286Y-116753800D02*
X126400000Y-116782371D01*
X126400000Y-116782371D02*
X126457143Y-116782371D01*
X126457143Y-116782371D02*
X126542857Y-116753800D01*
X126542857Y-116753800D02*
X126571429Y-116725228D01*
X126571429Y-116725228D02*
X126571429Y-116525228D01*
X126571429Y-116525228D02*
X126457143Y-116525228D01*
X126828572Y-116782371D02*
X126828572Y-116182371D01*
X126828572Y-116182371D02*
X127171429Y-116782371D01*
X127171429Y-116782371D02*
X127171429Y-116182371D01*
X127457143Y-116782371D02*
X127457143Y-116182371D01*
X127457143Y-116182371D02*
X127600000Y-116182371D01*
X127600000Y-116182371D02*
X127685714Y-116210942D01*
X127685714Y-116210942D02*
X127742857Y-116268085D01*
X127742857Y-116268085D02*
X127771428Y-116325228D01*
X127771428Y-116325228D02*
X127800000Y-116439514D01*
X127800000Y-116439514D02*
X127800000Y-116525228D01*
X127800000Y-116525228D02*
X127771428Y-116639514D01*
X127771428Y-116639514D02*
X127742857Y-116696657D01*
X127742857Y-116696657D02*
X127685714Y-116753800D01*
X127685714Y-116753800D02*
X127600000Y-116782371D01*
X127600000Y-116782371D02*
X127457143Y-116782371D01*
X131222370Y-77714285D02*
X130622370Y-77714285D01*
X130622370Y-77714285D02*
X130622370Y-77485714D01*
X130622370Y-77485714D02*
X130650941Y-77428571D01*
X130650941Y-77428571D02*
X130679513Y-77400000D01*
X130679513Y-77400000D02*
X130736656Y-77371428D01*
X130736656Y-77371428D02*
X130822370Y-77371428D01*
X130822370Y-77371428D02*
X130879513Y-77400000D01*
X130879513Y-77400000D02*
X130908084Y-77428571D01*
X130908084Y-77428571D02*
X130936656Y-77485714D01*
X130936656Y-77485714D02*
X130936656Y-77714285D01*
X130908084Y-77114285D02*
X130908084Y-76914285D01*
X131222370Y-76828571D02*
X131222370Y-77114285D01*
X131222370Y-77114285D02*
X130622370Y-77114285D01*
X130622370Y-77114285D02*
X130622370Y-76828571D01*
X131222370Y-76257143D02*
X131222370Y-76600000D01*
X131222370Y-76428571D02*
X130622370Y-76428571D01*
X130622370Y-76428571D02*
X130708084Y-76485714D01*
X130708084Y-76485714D02*
X130765227Y-76542857D01*
X130765227Y-76542857D02*
X130793799Y-76600000D01*
X171862371Y-77985714D02*
X171262371Y-77985714D01*
X171262371Y-77985714D02*
X171262371Y-77757143D01*
X171262371Y-77757143D02*
X171290942Y-77700000D01*
X171290942Y-77700000D02*
X171319514Y-77671429D01*
X171319514Y-77671429D02*
X171376657Y-77642857D01*
X171376657Y-77642857D02*
X171462371Y-77642857D01*
X171462371Y-77642857D02*
X171519514Y-77671429D01*
X171519514Y-77671429D02*
X171548085Y-77700000D01*
X171548085Y-77700000D02*
X171576657Y-77757143D01*
X171576657Y-77757143D02*
X171576657Y-77985714D01*
X171690942Y-77414286D02*
X171690942Y-77128572D01*
X171862371Y-77471429D02*
X171262371Y-77271429D01*
X171262371Y-77271429D02*
X171862371Y-77071429D01*
X171862371Y-76557143D02*
X171862371Y-76900000D01*
X171862371Y-76728571D02*
X171262371Y-76728571D01*
X171262371Y-76728571D02*
X171348085Y-76785714D01*
X171348085Y-76785714D02*
X171405228Y-76842857D01*
X171405228Y-76842857D02*
X171433800Y-76900000D01*
X171262371Y-76014285D02*
X171262371Y-76299999D01*
X171262371Y-76299999D02*
X171548085Y-76328571D01*
X171548085Y-76328571D02*
X171519514Y-76299999D01*
X171519514Y-76299999D02*
X171490942Y-76242857D01*
X171490942Y-76242857D02*
X171490942Y-76099999D01*
X171490942Y-76099999D02*
X171519514Y-76042857D01*
X171519514Y-76042857D02*
X171548085Y-76014285D01*
X171548085Y-76014285D02*
X171605228Y-75985714D01*
X171605228Y-75985714D02*
X171748085Y-75985714D01*
X171748085Y-75985714D02*
X171805228Y-76014285D01*
X171805228Y-76014285D02*
X171833800Y-76042857D01*
X171833800Y-76042857D02*
X171862371Y-76099999D01*
X171862371Y-76099999D02*
X171862371Y-76242857D01*
X171862371Y-76242857D02*
X171833800Y-76299999D01*
X171833800Y-76299999D02*
X171805228Y-76328571D01*
X149002371Y-78028571D02*
X148402371Y-78028571D01*
X148402371Y-78028571D02*
X148402371Y-77800000D01*
X148402371Y-77800000D02*
X148430942Y-77742857D01*
X148430942Y-77742857D02*
X148459514Y-77714286D01*
X148459514Y-77714286D02*
X148516657Y-77685714D01*
X148516657Y-77685714D02*
X148602371Y-77685714D01*
X148602371Y-77685714D02*
X148659514Y-77714286D01*
X148659514Y-77714286D02*
X148688085Y-77742857D01*
X148688085Y-77742857D02*
X148716657Y-77800000D01*
X148716657Y-77800000D02*
X148716657Y-78028571D01*
X148430942Y-77114286D02*
X148402371Y-77171429D01*
X148402371Y-77171429D02*
X148402371Y-77257143D01*
X148402371Y-77257143D02*
X148430942Y-77342857D01*
X148430942Y-77342857D02*
X148488085Y-77400000D01*
X148488085Y-77400000D02*
X148545228Y-77428571D01*
X148545228Y-77428571D02*
X148659514Y-77457143D01*
X148659514Y-77457143D02*
X148745228Y-77457143D01*
X148745228Y-77457143D02*
X148859514Y-77428571D01*
X148859514Y-77428571D02*
X148916657Y-77400000D01*
X148916657Y-77400000D02*
X148973800Y-77342857D01*
X148973800Y-77342857D02*
X149002371Y-77257143D01*
X149002371Y-77257143D02*
X149002371Y-77200000D01*
X149002371Y-77200000D02*
X148973800Y-77114286D01*
X148973800Y-77114286D02*
X148945228Y-77085714D01*
X148945228Y-77085714D02*
X148745228Y-77085714D01*
X148745228Y-77085714D02*
X148745228Y-77200000D01*
X149002371Y-76514286D02*
X149002371Y-76857143D01*
X149002371Y-76685714D02*
X148402371Y-76685714D01*
X148402371Y-76685714D02*
X148488085Y-76742857D01*
X148488085Y-76742857D02*
X148545228Y-76800000D01*
X148545228Y-76800000D02*
X148573800Y-76857143D01*
X148402371Y-76314285D02*
X148402371Y-75942857D01*
X148402371Y-75942857D02*
X148630942Y-76142857D01*
X148630942Y-76142857D02*
X148630942Y-76057142D01*
X148630942Y-76057142D02*
X148659514Y-76000000D01*
X148659514Y-76000000D02*
X148688085Y-75971428D01*
X148688085Y-75971428D02*
X148745228Y-75942857D01*
X148745228Y-75942857D02*
X148888085Y-75942857D01*
X148888085Y-75942857D02*
X148945228Y-75971428D01*
X148945228Y-75971428D02*
X148973800Y-76000000D01*
X148973800Y-76000000D02*
X149002371Y-76057142D01*
X149002371Y-76057142D02*
X149002371Y-76228571D01*
X149002371Y-76228571D02*
X148973800Y-76285714D01*
X148973800Y-76285714D02*
X148945228Y-76314285D01*
X126285714Y-83762371D02*
X126285714Y-83162371D01*
X126285714Y-83162371D02*
X126514285Y-83162371D01*
X126514285Y-83162371D02*
X126571428Y-83190942D01*
X126571428Y-83190942D02*
X126599999Y-83219514D01*
X126599999Y-83219514D02*
X126628571Y-83276657D01*
X126628571Y-83276657D02*
X126628571Y-83362371D01*
X126628571Y-83362371D02*
X126599999Y-83419514D01*
X126599999Y-83419514D02*
X126571428Y-83448085D01*
X126571428Y-83448085D02*
X126514285Y-83476657D01*
X126514285Y-83476657D02*
X126285714Y-83476657D01*
X126885714Y-83448085D02*
X127085714Y-83448085D01*
X127171428Y-83762371D02*
X126885714Y-83762371D01*
X126885714Y-83762371D02*
X126885714Y-83162371D01*
X126885714Y-83162371D02*
X127171428Y-83162371D01*
X127685714Y-83162371D02*
X127571428Y-83162371D01*
X127571428Y-83162371D02*
X127514285Y-83190942D01*
X127514285Y-83190942D02*
X127485714Y-83219514D01*
X127485714Y-83219514D02*
X127428571Y-83305228D01*
X127428571Y-83305228D02*
X127399999Y-83419514D01*
X127399999Y-83419514D02*
X127399999Y-83648085D01*
X127399999Y-83648085D02*
X127428571Y-83705228D01*
X127428571Y-83705228D02*
X127457142Y-83733800D01*
X127457142Y-83733800D02*
X127514285Y-83762371D01*
X127514285Y-83762371D02*
X127628571Y-83762371D01*
X127628571Y-83762371D02*
X127685714Y-83733800D01*
X127685714Y-83733800D02*
X127714285Y-83705228D01*
X127714285Y-83705228D02*
X127742856Y-83648085D01*
X127742856Y-83648085D02*
X127742856Y-83505228D01*
X127742856Y-83505228D02*
X127714285Y-83448085D01*
X127714285Y-83448085D02*
X127685714Y-83419514D01*
X127685714Y-83419514D02*
X127628571Y-83390942D01*
X127628571Y-83390942D02*
X127514285Y-83390942D01*
X127514285Y-83390942D02*
X127457142Y-83419514D01*
X127457142Y-83419514D02*
X127428571Y-83448085D01*
X127428571Y-83448085D02*
X127399999Y-83505228D01*
X172257143Y-101542371D02*
X172257143Y-100942371D01*
X172257143Y-100942371D02*
X172485714Y-100942371D01*
X172485714Y-100942371D02*
X172542857Y-100970942D01*
X172542857Y-100970942D02*
X172571428Y-100999514D01*
X172571428Y-100999514D02*
X172600000Y-101056657D01*
X172600000Y-101056657D02*
X172600000Y-101142371D01*
X172600000Y-101142371D02*
X172571428Y-101199514D01*
X172571428Y-101199514D02*
X172542857Y-101228085D01*
X172542857Y-101228085D02*
X172485714Y-101256657D01*
X172485714Y-101256657D02*
X172257143Y-101256657D01*
X173171428Y-100970942D02*
X173114286Y-100942371D01*
X173114286Y-100942371D02*
X173028571Y-100942371D01*
X173028571Y-100942371D02*
X172942857Y-100970942D01*
X172942857Y-100970942D02*
X172885714Y-101028085D01*
X172885714Y-101028085D02*
X172857143Y-101085228D01*
X172857143Y-101085228D02*
X172828571Y-101199514D01*
X172828571Y-101199514D02*
X172828571Y-101285228D01*
X172828571Y-101285228D02*
X172857143Y-101399514D01*
X172857143Y-101399514D02*
X172885714Y-101456657D01*
X172885714Y-101456657D02*
X172942857Y-101513800D01*
X172942857Y-101513800D02*
X173028571Y-101542371D01*
X173028571Y-101542371D02*
X173085714Y-101542371D01*
X173085714Y-101542371D02*
X173171428Y-101513800D01*
X173171428Y-101513800D02*
X173200000Y-101485228D01*
X173200000Y-101485228D02*
X173200000Y-101285228D01*
X173200000Y-101285228D02*
X173085714Y-101285228D01*
X173742857Y-100942371D02*
X173457143Y-100942371D01*
X173457143Y-100942371D02*
X173428571Y-101228085D01*
X173428571Y-101228085D02*
X173457143Y-101199514D01*
X173457143Y-101199514D02*
X173514286Y-101170942D01*
X173514286Y-101170942D02*
X173657143Y-101170942D01*
X173657143Y-101170942D02*
X173714286Y-101199514D01*
X173714286Y-101199514D02*
X173742857Y-101228085D01*
X173742857Y-101228085D02*
X173771428Y-101285228D01*
X173771428Y-101285228D02*
X173771428Y-101428085D01*
X173771428Y-101428085D02*
X173742857Y-101485228D01*
X173742857Y-101485228D02*
X173714286Y-101513800D01*
X173714286Y-101513800D02*
X173657143Y-101542371D01*
X173657143Y-101542371D02*
X173514286Y-101542371D01*
X173514286Y-101542371D02*
X173457143Y-101513800D01*
X173457143Y-101513800D02*
X173428571Y-101485228D01*
X166782371Y-123999998D02*
X166182371Y-123999998D01*
X166182371Y-123999998D02*
X166182371Y-123771427D01*
X166182371Y-123771427D02*
X166210942Y-123714284D01*
X166210942Y-123714284D02*
X166239514Y-123685713D01*
X166239514Y-123685713D02*
X166296657Y-123657141D01*
X166296657Y-123657141D02*
X166382371Y-123657141D01*
X166382371Y-123657141D02*
X166439514Y-123685713D01*
X166439514Y-123685713D02*
X166468085Y-123714284D01*
X166468085Y-123714284D02*
X166496657Y-123771427D01*
X166496657Y-123771427D02*
X166496657Y-123999998D01*
X166468085Y-123399998D02*
X166468085Y-123199998D01*
X166782371Y-123114284D02*
X166782371Y-123399998D01*
X166782371Y-123399998D02*
X166182371Y-123399998D01*
X166182371Y-123399998D02*
X166182371Y-123114284D01*
X166782371Y-122542856D02*
X166782371Y-122885713D01*
X166782371Y-122714284D02*
X166182371Y-122714284D01*
X166182371Y-122714284D02*
X166268085Y-122771427D01*
X166268085Y-122771427D02*
X166325228Y-122828570D01*
X166325228Y-122828570D02*
X166353800Y-122885713D01*
X166382371Y-122028570D02*
X166782371Y-122028570D01*
X166153800Y-122171427D02*
X166582371Y-122314284D01*
X166582371Y-122314284D02*
X166582371Y-121942855D01*
X158590942Y-123457141D02*
X158562371Y-123514284D01*
X158562371Y-123514284D02*
X158562371Y-123599998D01*
X158562371Y-123599998D02*
X158590942Y-123685712D01*
X158590942Y-123685712D02*
X158648085Y-123742855D01*
X158648085Y-123742855D02*
X158705228Y-123771426D01*
X158705228Y-123771426D02*
X158819514Y-123799998D01*
X158819514Y-123799998D02*
X158905228Y-123799998D01*
X158905228Y-123799998D02*
X159019514Y-123771426D01*
X159019514Y-123771426D02*
X159076657Y-123742855D01*
X159076657Y-123742855D02*
X159133800Y-123685712D01*
X159133800Y-123685712D02*
X159162371Y-123599998D01*
X159162371Y-123599998D02*
X159162371Y-123542855D01*
X159162371Y-123542855D02*
X159133800Y-123457141D01*
X159133800Y-123457141D02*
X159105228Y-123428569D01*
X159105228Y-123428569D02*
X158905228Y-123428569D01*
X158905228Y-123428569D02*
X158905228Y-123542855D01*
X159162371Y-123171426D02*
X158562371Y-123171426D01*
X158562371Y-123171426D02*
X159162371Y-122828569D01*
X159162371Y-122828569D02*
X158562371Y-122828569D01*
X159162371Y-122542855D02*
X158562371Y-122542855D01*
X158562371Y-122542855D02*
X158562371Y-122399998D01*
X158562371Y-122399998D02*
X158590942Y-122314284D01*
X158590942Y-122314284D02*
X158648085Y-122257141D01*
X158648085Y-122257141D02*
X158705228Y-122228570D01*
X158705228Y-122228570D02*
X158819514Y-122199998D01*
X158819514Y-122199998D02*
X158905228Y-122199998D01*
X158905228Y-122199998D02*
X159019514Y-122228570D01*
X159019514Y-122228570D02*
X159076657Y-122257141D01*
X159076657Y-122257141D02*
X159133800Y-122314284D01*
X159133800Y-122314284D02*
X159162371Y-122399998D01*
X159162371Y-122399998D02*
X159162371Y-122542855D01*
X156622371Y-77742856D02*
X156022371Y-77742856D01*
X156022371Y-77742856D02*
X156022371Y-77514285D01*
X156022371Y-77514285D02*
X156050942Y-77457142D01*
X156050942Y-77457142D02*
X156079514Y-77428571D01*
X156079514Y-77428571D02*
X156136657Y-77399999D01*
X156136657Y-77399999D02*
X156222371Y-77399999D01*
X156222371Y-77399999D02*
X156279514Y-77428571D01*
X156279514Y-77428571D02*
X156308085Y-77457142D01*
X156308085Y-77457142D02*
X156336657Y-77514285D01*
X156336657Y-77514285D02*
X156336657Y-77742856D01*
X156622371Y-77142856D02*
X156022371Y-77142856D01*
X156022371Y-77142856D02*
X156022371Y-76999999D01*
X156022371Y-76999999D02*
X156050942Y-76914285D01*
X156050942Y-76914285D02*
X156108085Y-76857142D01*
X156108085Y-76857142D02*
X156165228Y-76828571D01*
X156165228Y-76828571D02*
X156279514Y-76799999D01*
X156279514Y-76799999D02*
X156365228Y-76799999D01*
X156365228Y-76799999D02*
X156479514Y-76828571D01*
X156479514Y-76828571D02*
X156536657Y-76857142D01*
X156536657Y-76857142D02*
X156593800Y-76914285D01*
X156593800Y-76914285D02*
X156622371Y-76999999D01*
X156622371Y-76999999D02*
X156622371Y-77142856D01*
X156022371Y-76285714D02*
X156022371Y-76399999D01*
X156022371Y-76399999D02*
X156050942Y-76457142D01*
X156050942Y-76457142D02*
X156079514Y-76485714D01*
X156079514Y-76485714D02*
X156165228Y-76542856D01*
X156165228Y-76542856D02*
X156279514Y-76571428D01*
X156279514Y-76571428D02*
X156508085Y-76571428D01*
X156508085Y-76571428D02*
X156565228Y-76542856D01*
X156565228Y-76542856D02*
X156593800Y-76514285D01*
X156593800Y-76514285D02*
X156622371Y-76457142D01*
X156622371Y-76457142D02*
X156622371Y-76342856D01*
X156622371Y-76342856D02*
X156593800Y-76285714D01*
X156593800Y-76285714D02*
X156565228Y-76257142D01*
X156565228Y-76257142D02*
X156508085Y-76228571D01*
X156508085Y-76228571D02*
X156365228Y-76228571D01*
X156365228Y-76228571D02*
X156308085Y-76257142D01*
X156308085Y-76257142D02*
X156279514Y-76285714D01*
X156279514Y-76285714D02*
X156250942Y-76342856D01*
X156250942Y-76342856D02*
X156250942Y-76457142D01*
X156250942Y-76457142D02*
X156279514Y-76514285D01*
X156279514Y-76514285D02*
X156308085Y-76542856D01*
X156308085Y-76542856D02*
X156365228Y-76571428D01*
X138842371Y-77742856D02*
X138242371Y-77742856D01*
X138242371Y-77742856D02*
X138242371Y-77514285D01*
X138242371Y-77514285D02*
X138270942Y-77457142D01*
X138270942Y-77457142D02*
X138299514Y-77428571D01*
X138299514Y-77428571D02*
X138356657Y-77399999D01*
X138356657Y-77399999D02*
X138442371Y-77399999D01*
X138442371Y-77399999D02*
X138499514Y-77428571D01*
X138499514Y-77428571D02*
X138528085Y-77457142D01*
X138528085Y-77457142D02*
X138556657Y-77514285D01*
X138556657Y-77514285D02*
X138556657Y-77742856D01*
X138528085Y-76942856D02*
X138556657Y-76857142D01*
X138556657Y-76857142D02*
X138585228Y-76828571D01*
X138585228Y-76828571D02*
X138642371Y-76799999D01*
X138642371Y-76799999D02*
X138728085Y-76799999D01*
X138728085Y-76799999D02*
X138785228Y-76828571D01*
X138785228Y-76828571D02*
X138813800Y-76857142D01*
X138813800Y-76857142D02*
X138842371Y-76914285D01*
X138842371Y-76914285D02*
X138842371Y-77142856D01*
X138842371Y-77142856D02*
X138242371Y-77142856D01*
X138242371Y-77142856D02*
X138242371Y-76942856D01*
X138242371Y-76942856D02*
X138270942Y-76885714D01*
X138270942Y-76885714D02*
X138299514Y-76857142D01*
X138299514Y-76857142D02*
X138356657Y-76828571D01*
X138356657Y-76828571D02*
X138413800Y-76828571D01*
X138413800Y-76828571D02*
X138470942Y-76857142D01*
X138470942Y-76857142D02*
X138499514Y-76885714D01*
X138499514Y-76885714D02*
X138528085Y-76942856D01*
X138528085Y-76942856D02*
X138528085Y-77142856D01*
X138242371Y-76285714D02*
X138242371Y-76399999D01*
X138242371Y-76399999D02*
X138270942Y-76457142D01*
X138270942Y-76457142D02*
X138299514Y-76485714D01*
X138299514Y-76485714D02*
X138385228Y-76542856D01*
X138385228Y-76542856D02*
X138499514Y-76571428D01*
X138499514Y-76571428D02*
X138728085Y-76571428D01*
X138728085Y-76571428D02*
X138785228Y-76542856D01*
X138785228Y-76542856D02*
X138813800Y-76514285D01*
X138813800Y-76514285D02*
X138842371Y-76457142D01*
X138842371Y-76457142D02*
X138842371Y-76342856D01*
X138842371Y-76342856D02*
X138813800Y-76285714D01*
X138813800Y-76285714D02*
X138785228Y-76257142D01*
X138785228Y-76257142D02*
X138728085Y-76228571D01*
X138728085Y-76228571D02*
X138585228Y-76228571D01*
X138585228Y-76228571D02*
X138528085Y-76257142D01*
X138528085Y-76257142D02*
X138499514Y-76285714D01*
X138499514Y-76285714D02*
X138470942Y-76342856D01*
X138470942Y-76342856D02*
X138470942Y-76457142D01*
X138470942Y-76457142D02*
X138499514Y-76514285D01*
X138499514Y-76514285D02*
X138528085Y-76542856D01*
X138528085Y-76542856D02*
X138585228Y-76571428D01*
D13*
X119666667Y-131307200D02*
X119809524Y-131354819D01*
X119809524Y-131354819D02*
X120047619Y-131354819D01*
X120047619Y-131354819D02*
X120142857Y-131307200D01*
X120142857Y-131307200D02*
X120190476Y-131259580D01*
X120190476Y-131259580D02*
X120238095Y-131164342D01*
X120238095Y-131164342D02*
X120238095Y-131069104D01*
X120238095Y-131069104D02*
X120190476Y-130973866D01*
X120190476Y-130973866D02*
X120142857Y-130926247D01*
X120142857Y-130926247D02*
X120047619Y-130878628D01*
X120047619Y-130878628D02*
X119857143Y-130831009D01*
X119857143Y-130831009D02*
X119761905Y-130783390D01*
X119761905Y-130783390D02*
X119714286Y-130735771D01*
X119714286Y-130735771D02*
X119666667Y-130640533D01*
X119666667Y-130640533D02*
X119666667Y-130545295D01*
X119666667Y-130545295D02*
X119714286Y-130450057D01*
X119714286Y-130450057D02*
X119761905Y-130402438D01*
X119761905Y-130402438D02*
X119857143Y-130354819D01*
X119857143Y-130354819D02*
X120095238Y-130354819D01*
X120095238Y-130354819D02*
X120238095Y-130402438D01*
X120571429Y-130354819D02*
X120809524Y-131354819D01*
X120809524Y-131354819D02*
X121000000Y-130640533D01*
X121000000Y-130640533D02*
X121190476Y-131354819D01*
X121190476Y-131354819D02*
X121428572Y-130354819D01*
X122333333Y-131354819D02*
X121761905Y-131354819D01*
X122047619Y-131354819D02*
X122047619Y-130354819D01*
X122047619Y-130354819D02*
X121952381Y-130497676D01*
X121952381Y-130497676D02*
X121857143Y-130592914D01*
X121857143Y-130592914D02*
X121761905Y-130640533D01*
X182159819Y-99823333D02*
X182874104Y-99823333D01*
X182874104Y-99823333D02*
X183016961Y-99870952D01*
X183016961Y-99870952D02*
X183112200Y-99966190D01*
X183112200Y-99966190D02*
X183159819Y-100109047D01*
X183159819Y-100109047D02*
X183159819Y-100204285D01*
X183159819Y-98823333D02*
X183159819Y-99394761D01*
X183159819Y-99109047D02*
X182159819Y-99109047D01*
X182159819Y-99109047D02*
X182302676Y-99204285D01*
X182302676Y-99204285D02*
X182397914Y-99299523D01*
X182397914Y-99299523D02*
X182445533Y-99394761D01*
X127833333Y-60684819D02*
X127500000Y-60208628D01*
X127261905Y-60684819D02*
X127261905Y-59684819D01*
X127261905Y-59684819D02*
X127642857Y-59684819D01*
X127642857Y-59684819D02*
X127738095Y-59732438D01*
X127738095Y-59732438D02*
X127785714Y-59780057D01*
X127785714Y-59780057D02*
X127833333Y-59875295D01*
X127833333Y-59875295D02*
X127833333Y-60018152D01*
X127833333Y-60018152D02*
X127785714Y-60113390D01*
X127785714Y-60113390D02*
X127738095Y-60161009D01*
X127738095Y-60161009D02*
X127642857Y-60208628D01*
X127642857Y-60208628D02*
X127261905Y-60208628D01*
X128690476Y-60018152D02*
X128690476Y-60684819D01*
X128452381Y-59637200D02*
X128214286Y-60351485D01*
X128214286Y-60351485D02*
X128833333Y-60351485D01*
X125534819Y-127603332D02*
X126249104Y-127603332D01*
X126249104Y-127603332D02*
X126391961Y-127650951D01*
X126391961Y-127650951D02*
X126487200Y-127746189D01*
X126487200Y-127746189D02*
X126534819Y-127889046D01*
X126534819Y-127889046D02*
X126534819Y-127984284D01*
X125534819Y-127222379D02*
X125534819Y-126603332D01*
X125534819Y-126603332D02*
X125915771Y-126936665D01*
X125915771Y-126936665D02*
X125915771Y-126793808D01*
X125915771Y-126793808D02*
X125963390Y-126698570D01*
X125963390Y-126698570D02*
X126011009Y-126650951D01*
X126011009Y-126650951D02*
X126106247Y-126603332D01*
X126106247Y-126603332D02*
X126344342Y-126603332D01*
X126344342Y-126603332D02*
X126439580Y-126650951D01*
X126439580Y-126650951D02*
X126487200Y-126698570D01*
X126487200Y-126698570D02*
X126534819Y-126793808D01*
X126534819Y-126793808D02*
X126534819Y-127079522D01*
X126534819Y-127079522D02*
X126487200Y-127174760D01*
X126487200Y-127174760D02*
X126439580Y-127222379D01*
X170124819Y-65133333D02*
X170839104Y-65133333D01*
X170839104Y-65133333D02*
X170981961Y-65180952D01*
X170981961Y-65180952D02*
X171077200Y-65276190D01*
X171077200Y-65276190D02*
X171124819Y-65419047D01*
X171124819Y-65419047D02*
X171124819Y-65514285D01*
X170124819Y-64228571D02*
X170124819Y-64419047D01*
X170124819Y-64419047D02*
X170172438Y-64514285D01*
X170172438Y-64514285D02*
X170220057Y-64561904D01*
X170220057Y-64561904D02*
X170362914Y-64657142D01*
X170362914Y-64657142D02*
X170553390Y-64704761D01*
X170553390Y-64704761D02*
X170934342Y-64704761D01*
X170934342Y-64704761D02*
X171029580Y-64657142D01*
X171029580Y-64657142D02*
X171077200Y-64609523D01*
X171077200Y-64609523D02*
X171124819Y-64514285D01*
X171124819Y-64514285D02*
X171124819Y-64323809D01*
X171124819Y-64323809D02*
X171077200Y-64228571D01*
X171077200Y-64228571D02*
X171029580Y-64180952D01*
X171029580Y-64180952D02*
X170934342Y-64133333D01*
X170934342Y-64133333D02*
X170696247Y-64133333D01*
X170696247Y-64133333D02*
X170601009Y-64180952D01*
X170601009Y-64180952D02*
X170553390Y-64228571D01*
X170553390Y-64228571D02*
X170505771Y-64323809D01*
X170505771Y-64323809D02*
X170505771Y-64514285D01*
X170505771Y-64514285D02*
X170553390Y-64609523D01*
X170553390Y-64609523D02*
X170601009Y-64657142D01*
X170601009Y-64657142D02*
X170696247Y-64704761D01*
X137333333Y-136784819D02*
X137000000Y-136308628D01*
X136761905Y-136784819D02*
X136761905Y-135784819D01*
X136761905Y-135784819D02*
X137142857Y-135784819D01*
X137142857Y-135784819D02*
X137238095Y-135832438D01*
X137238095Y-135832438D02*
X137285714Y-135880057D01*
X137285714Y-135880057D02*
X137333333Y-135975295D01*
X137333333Y-135975295D02*
X137333333Y-136118152D01*
X137333333Y-136118152D02*
X137285714Y-136213390D01*
X137285714Y-136213390D02*
X137238095Y-136261009D01*
X137238095Y-136261009D02*
X137142857Y-136308628D01*
X137142857Y-136308628D02*
X136761905Y-136308628D01*
X138238095Y-135784819D02*
X137761905Y-135784819D01*
X137761905Y-135784819D02*
X137714286Y-136261009D01*
X137714286Y-136261009D02*
X137761905Y-136213390D01*
X137761905Y-136213390D02*
X137857143Y-136165771D01*
X137857143Y-136165771D02*
X138095238Y-136165771D01*
X138095238Y-136165771D02*
X138190476Y-136213390D01*
X138190476Y-136213390D02*
X138238095Y-136261009D01*
X138238095Y-136261009D02*
X138285714Y-136356247D01*
X138285714Y-136356247D02*
X138285714Y-136594342D01*
X138285714Y-136594342D02*
X138238095Y-136689580D01*
X138238095Y-136689580D02*
X138190476Y-136737200D01*
X138190476Y-136737200D02*
X138095238Y-136784819D01*
X138095238Y-136784819D02*
X137857143Y-136784819D01*
X137857143Y-136784819D02*
X137761905Y-136737200D01*
X137761905Y-136737200D02*
X137714286Y-136689580D01*
X149238095Y-87104819D02*
X149238095Y-87914342D01*
X149238095Y-87914342D02*
X149285714Y-88009580D01*
X149285714Y-88009580D02*
X149333333Y-88057200D01*
X149333333Y-88057200D02*
X149428571Y-88104819D01*
X149428571Y-88104819D02*
X149619047Y-88104819D01*
X149619047Y-88104819D02*
X149714285Y-88057200D01*
X149714285Y-88057200D02*
X149761904Y-88009580D01*
X149761904Y-88009580D02*
X149809523Y-87914342D01*
X149809523Y-87914342D02*
X149809523Y-87104819D01*
X150809523Y-88104819D02*
X150238095Y-88104819D01*
X150523809Y-88104819D02*
X150523809Y-87104819D01*
X150523809Y-87104819D02*
X150428571Y-87247676D01*
X150428571Y-87247676D02*
X150333333Y-87342914D01*
X150333333Y-87342914D02*
X150238095Y-87390533D01*
X122396666Y-75534819D02*
X122396666Y-76249104D01*
X122396666Y-76249104D02*
X122349047Y-76391961D01*
X122349047Y-76391961D02*
X122253809Y-76487200D01*
X122253809Y-76487200D02*
X122110952Y-76534819D01*
X122110952Y-76534819D02*
X122015714Y-76534819D01*
X122825238Y-75630057D02*
X122872857Y-75582438D01*
X122872857Y-75582438D02*
X122968095Y-75534819D01*
X122968095Y-75534819D02*
X123206190Y-75534819D01*
X123206190Y-75534819D02*
X123301428Y-75582438D01*
X123301428Y-75582438D02*
X123349047Y-75630057D01*
X123349047Y-75630057D02*
X123396666Y-75725295D01*
X123396666Y-75725295D02*
X123396666Y-75820533D01*
X123396666Y-75820533D02*
X123349047Y-75963390D01*
X123349047Y-75963390D02*
X122777619Y-76534819D01*
X122777619Y-76534819D02*
X123396666Y-76534819D01*
X133261905Y-136304819D02*
X133261905Y-135304819D01*
X133261905Y-135304819D02*
X133500000Y-135304819D01*
X133500000Y-135304819D02*
X133642857Y-135352438D01*
X133642857Y-135352438D02*
X133738095Y-135447676D01*
X133738095Y-135447676D02*
X133785714Y-135542914D01*
X133785714Y-135542914D02*
X133833333Y-135733390D01*
X133833333Y-135733390D02*
X133833333Y-135876247D01*
X133833333Y-135876247D02*
X133785714Y-136066723D01*
X133785714Y-136066723D02*
X133738095Y-136161961D01*
X133738095Y-136161961D02*
X133642857Y-136257200D01*
X133642857Y-136257200D02*
X133500000Y-136304819D01*
X133500000Y-136304819D02*
X133261905Y-136304819D01*
X134785714Y-136304819D02*
X134214286Y-136304819D01*
X134500000Y-136304819D02*
X134500000Y-135304819D01*
X134500000Y-135304819D02*
X134404762Y-135447676D01*
X134404762Y-135447676D02*
X134309524Y-135542914D01*
X134309524Y-135542914D02*
X134214286Y-135590533D01*
X125534819Y-73063333D02*
X126249104Y-73063333D01*
X126249104Y-73063333D02*
X126391961Y-73110952D01*
X126391961Y-73110952D02*
X126487200Y-73206190D01*
X126487200Y-73206190D02*
X126534819Y-73349047D01*
X126534819Y-73349047D02*
X126534819Y-73444285D01*
X125534819Y-72110952D02*
X125534819Y-72587142D01*
X125534819Y-72587142D02*
X126011009Y-72634761D01*
X126011009Y-72634761D02*
X125963390Y-72587142D01*
X125963390Y-72587142D02*
X125915771Y-72491904D01*
X125915771Y-72491904D02*
X125915771Y-72253809D01*
X125915771Y-72253809D02*
X125963390Y-72158571D01*
X125963390Y-72158571D02*
X126011009Y-72110952D01*
X126011009Y-72110952D02*
X126106247Y-72063333D01*
X126106247Y-72063333D02*
X126344342Y-72063333D01*
X126344342Y-72063333D02*
X126439580Y-72110952D01*
X126439580Y-72110952D02*
X126487200Y-72158571D01*
X126487200Y-72158571D02*
X126534819Y-72253809D01*
X126534819Y-72253809D02*
X126534819Y-72491904D01*
X126534819Y-72491904D02*
X126487200Y-72587142D01*
X126487200Y-72587142D02*
X126439580Y-72634761D01*
X119166667Y-62107200D02*
X119309524Y-62154819D01*
X119309524Y-62154819D02*
X119547619Y-62154819D01*
X119547619Y-62154819D02*
X119642857Y-62107200D01*
X119642857Y-62107200D02*
X119690476Y-62059580D01*
X119690476Y-62059580D02*
X119738095Y-61964342D01*
X119738095Y-61964342D02*
X119738095Y-61869104D01*
X119738095Y-61869104D02*
X119690476Y-61773866D01*
X119690476Y-61773866D02*
X119642857Y-61726247D01*
X119642857Y-61726247D02*
X119547619Y-61678628D01*
X119547619Y-61678628D02*
X119357143Y-61631009D01*
X119357143Y-61631009D02*
X119261905Y-61583390D01*
X119261905Y-61583390D02*
X119214286Y-61535771D01*
X119214286Y-61535771D02*
X119166667Y-61440533D01*
X119166667Y-61440533D02*
X119166667Y-61345295D01*
X119166667Y-61345295D02*
X119214286Y-61250057D01*
X119214286Y-61250057D02*
X119261905Y-61202438D01*
X119261905Y-61202438D02*
X119357143Y-61154819D01*
X119357143Y-61154819D02*
X119595238Y-61154819D01*
X119595238Y-61154819D02*
X119738095Y-61202438D01*
X120071429Y-61154819D02*
X120309524Y-62154819D01*
X120309524Y-62154819D02*
X120500000Y-61440533D01*
X120500000Y-61440533D02*
X120690476Y-62154819D01*
X120690476Y-62154819D02*
X120928572Y-61154819D01*
X121261905Y-61250057D02*
X121309524Y-61202438D01*
X121309524Y-61202438D02*
X121404762Y-61154819D01*
X121404762Y-61154819D02*
X121642857Y-61154819D01*
X121642857Y-61154819D02*
X121738095Y-61202438D01*
X121738095Y-61202438D02*
X121785714Y-61250057D01*
X121785714Y-61250057D02*
X121833333Y-61345295D01*
X121833333Y-61345295D02*
X121833333Y-61440533D01*
X121833333Y-61440533D02*
X121785714Y-61583390D01*
X121785714Y-61583390D02*
X121214286Y-62154819D01*
X121214286Y-62154819D02*
X121833333Y-62154819D01*
X176936666Y-75534819D02*
X176936666Y-76249104D01*
X176936666Y-76249104D02*
X176889047Y-76391961D01*
X176889047Y-76391961D02*
X176793809Y-76487200D01*
X176793809Y-76487200D02*
X176650952Y-76534819D01*
X176650952Y-76534819D02*
X176555714Y-76534819D01*
X177841428Y-75868152D02*
X177841428Y-76534819D01*
X177603333Y-75487200D02*
X177365238Y-76201485D01*
X177365238Y-76201485D02*
X177984285Y-76201485D01*
D14*
%TO.C,SW1*%
X118280000Y-135540000D02*
X118280000Y-133460000D01*
X119550000Y-131780000D02*
X119060000Y-132270000D01*
X119550000Y-131780000D02*
X122450000Y-131780000D01*
X119550000Y-137220000D02*
X119060000Y-136730000D01*
X119550000Y-137220000D02*
X122450000Y-137220000D01*
X122450000Y-131780000D02*
X122940000Y-132270000D01*
X122450000Y-137220000D02*
X122940000Y-136730000D01*
X123720000Y-135540000D02*
X123720000Y-133460000D01*
%TO.C,J1*%
X186450000Y-104190000D02*
X188450000Y-104190000D01*
X190350000Y-104190000D02*
X192250000Y-104190000D01*
X192250000Y-104190000D02*
X192250000Y-94790000D01*
X186450000Y-94790000D02*
X188450000Y-94790000D01*
X190350000Y-94790000D02*
X192250000Y-94790000D01*
%TO.C,R4*%
X127846359Y-61020000D02*
X128153641Y-61020000D01*
X127846359Y-61780000D02*
X128153641Y-61780000D01*
%TO.C,J3*%
X127080000Y-129869999D02*
X127080000Y-128539999D01*
X128410000Y-129869999D02*
X127080000Y-129869999D01*
X129680000Y-129869999D02*
X172920000Y-129869999D01*
X129680000Y-129869999D02*
X129680000Y-127269999D01*
X172920000Y-129869999D02*
X172920000Y-124669999D01*
X127080000Y-127269999D02*
X127080000Y-124669999D01*
X129680000Y-127269999D02*
X127080000Y-127269999D01*
X127080000Y-124669999D02*
X172920000Y-124669999D01*
%TO.C,J6*%
X171670000Y-66130000D02*
X171670000Y-64800000D01*
X173000000Y-66130000D02*
X171670000Y-66130000D01*
X174270000Y-66130000D02*
X181950000Y-66130000D01*
X174270000Y-66130000D02*
X174270000Y-63470000D01*
X181950000Y-66130000D02*
X181950000Y-63470000D01*
X174270000Y-63470000D02*
X181950000Y-63470000D01*
%TO.C,R5*%
X137346359Y-137120000D02*
X137653641Y-137120000D01*
X137346359Y-137880000D02*
X137653641Y-137880000D01*
%TO.C,U1*%
X139890000Y-89890000D02*
X139890000Y-90840000D01*
X139890000Y-110110000D02*
X139890000Y-109160000D01*
X140840000Y-89890000D02*
X139890000Y-89890000D01*
X140840000Y-110110000D02*
X139890000Y-110110000D01*
X159160000Y-89890000D02*
X160110000Y-89890000D01*
X159160000Y-110110000D02*
X160110000Y-110110000D01*
X160110000Y-89890000D02*
X160110000Y-90840000D01*
X160110000Y-110110000D02*
X160110000Y-109160000D01*
X139300000Y-90840000D02*
X138960000Y-90370000D01*
X139640000Y-90370000D01*
X139300000Y-90840000D01*
G36*
X139300000Y-90840000D02*
G01*
X138960000Y-90370000D01*
X139640000Y-90370000D01*
X139300000Y-90840000D01*
G37*
%TO.C,J2*%
X120130000Y-77080000D02*
X121460000Y-77080000D01*
X120130000Y-78410000D02*
X120130000Y-77080000D01*
X120130000Y-79680000D02*
X120130000Y-122920000D01*
X120130000Y-79680000D02*
X122730000Y-79680000D01*
X120130000Y-122920000D02*
X125330000Y-122920000D01*
X122730000Y-77080000D02*
X125330000Y-77080000D01*
X122730000Y-79680000D02*
X122730000Y-77080000D01*
X125330000Y-77080000D02*
X125330000Y-122920000D01*
%TO.C,D1*%
X132315000Y-136540000D02*
X132315000Y-138460000D01*
X132315000Y-138460000D02*
X135000000Y-138460000D01*
X135000000Y-136540000D02*
X132315000Y-136540000D01*
%TO.C,J5*%
X127080000Y-75330000D02*
X127080000Y-74000000D01*
X128410000Y-75330000D02*
X127080000Y-75330000D01*
X129680000Y-75330000D02*
X172920000Y-75330000D01*
X129680000Y-75330000D02*
X129680000Y-72730000D01*
X172920000Y-75330000D02*
X172920000Y-70130000D01*
X127080000Y-72730000D02*
X127080000Y-70130000D01*
X129680000Y-72730000D02*
X127080000Y-72730000D01*
X127080000Y-70130000D02*
X172920000Y-70130000D01*
%TO.C,SW2*%
X117780000Y-66340000D02*
X117780000Y-64260000D01*
X119050000Y-62580000D02*
X118560000Y-63070000D01*
X119050000Y-62580000D02*
X121950000Y-62580000D01*
X119050000Y-68020000D02*
X118560000Y-67530000D01*
X119050000Y-68020000D02*
X121950000Y-68020000D01*
X121950000Y-62580000D02*
X122440000Y-63070000D01*
X121950000Y-68020000D02*
X122440000Y-67530000D01*
X123220000Y-66340000D02*
X123220000Y-64260000D01*
%TO.C,J4*%
X174670000Y-77080000D02*
X176000000Y-77080000D01*
X174670000Y-78410000D02*
X174670000Y-77080000D01*
X174670000Y-79680000D02*
X174670000Y-122920000D01*
X174670000Y-79680000D02*
X177270000Y-79680000D01*
X174670000Y-122920000D02*
X179870000Y-122920000D01*
X177270000Y-77080000D02*
X179870000Y-77080000D01*
X177270000Y-79680000D02*
X177270000Y-77080000D01*
X179870000Y-77080000D02*
X179870000Y-122920000D01*
%TD*%
M02*
