%TF.GenerationSoftware,KiCad,Pcbnew,10.0.3*%
%TF.CreationDate,2026-08-18T23:42:30+01:00*%
%TF.ProjectId,STM32H723ZG-CoreBoard,53544d33-3248-4373-9233-5a472d436f72,rev?*%
%TF.SameCoordinates,Original*%
%TF.FileFunction,Legend,Bot*%
%TF.FilePolarity,Positive*%
%FSLAX46Y46*%
G04 Gerber Fmt 4.6, Leading zero omitted, Abs format (unit mm)*
G04 Created by KiCad (PCBNEW 10.0.3) date 2026-08-18 23:42:30*
%MOMM*%
%LPD*%
G01*
G04 APERTURE LIST*
%ADD10C,0.150000*%
%ADD11C,0.120000*%
G04 APERTURE END LIST*
D10*
X156085714Y-74981342D02*
X156085714Y-75362295D01*
X156352381Y-74562295D02*
X156085714Y-74981342D01*
X156085714Y-74981342D02*
X155819048Y-74562295D01*
X155133334Y-75362295D02*
X155590477Y-75362295D01*
X155361905Y-75362295D02*
X155361905Y-74562295D01*
X155361905Y-74562295D02*
X155438096Y-74676580D01*
X155438096Y-74676580D02*
X155514286Y-74752771D01*
X155514286Y-74752771D02*
X155590477Y-74790866D01*
X153000000Y-74638485D02*
X152961904Y-74600390D01*
X152961904Y-74600390D02*
X152885714Y-74562295D01*
X152885714Y-74562295D02*
X152695238Y-74562295D01*
X152695238Y-74562295D02*
X152619047Y-74600390D01*
X152619047Y-74600390D02*
X152580952Y-74638485D01*
X152580952Y-74638485D02*
X152542857Y-74714676D01*
X152542857Y-74714676D02*
X152542857Y-74790866D01*
X152542857Y-74790866D02*
X152580952Y-74905152D01*
X152580952Y-74905152D02*
X153038095Y-75362295D01*
X153038095Y-75362295D02*
X152542857Y-75362295D01*
X151819047Y-74562295D02*
X152199999Y-74562295D01*
X152199999Y-74562295D02*
X152238095Y-74943247D01*
X152238095Y-74943247D02*
X152199999Y-74905152D01*
X152199999Y-74905152D02*
X152123809Y-74867057D01*
X152123809Y-74867057D02*
X151933333Y-74867057D01*
X151933333Y-74867057D02*
X151857142Y-74905152D01*
X151857142Y-74905152D02*
X151819047Y-74943247D01*
X151819047Y-74943247D02*
X151780952Y-75019438D01*
X151780952Y-75019438D02*
X151780952Y-75209914D01*
X151780952Y-75209914D02*
X151819047Y-75286104D01*
X151819047Y-75286104D02*
X151857142Y-75324200D01*
X151857142Y-75324200D02*
X151933333Y-75362295D01*
X151933333Y-75362295D02*
X152123809Y-75362295D01*
X152123809Y-75362295D02*
X152199999Y-75324200D01*
X152199999Y-75324200D02*
X152238095Y-75286104D01*
X151438094Y-75362295D02*
X151438094Y-74562295D01*
X151438094Y-74562295D02*
X151171428Y-75133723D01*
X151171428Y-75133723D02*
X150904761Y-74562295D01*
X150904761Y-74562295D02*
X150904761Y-75362295D01*
X150523808Y-75362295D02*
X150523808Y-74562295D01*
X150523808Y-74943247D02*
X150066665Y-74943247D01*
X150066665Y-75362295D02*
X150066665Y-74562295D01*
X149761904Y-74828961D02*
X149342856Y-74828961D01*
X149342856Y-74828961D02*
X149761904Y-75362295D01*
X149761904Y-75362295D02*
X149342856Y-75362295D01*
X156066666Y-76681342D02*
X156066666Y-77062295D01*
X156333333Y-76262295D02*
X156066666Y-76681342D01*
X156066666Y-76681342D02*
X155800000Y-76262295D01*
X155571429Y-76338485D02*
X155533333Y-76300390D01*
X155533333Y-76300390D02*
X155457143Y-76262295D01*
X155457143Y-76262295D02*
X155266667Y-76262295D01*
X155266667Y-76262295D02*
X155190476Y-76300390D01*
X155190476Y-76300390D02*
X155152381Y-76338485D01*
X155152381Y-76338485D02*
X155114286Y-76414676D01*
X155114286Y-76414676D02*
X155114286Y-76490866D01*
X155114286Y-76490866D02*
X155152381Y-76605152D01*
X155152381Y-76605152D02*
X155609524Y-77062295D01*
X155609524Y-77062295D02*
X155114286Y-77062295D01*
X153019047Y-76262295D02*
X152523809Y-76262295D01*
X152523809Y-76262295D02*
X152790475Y-76567057D01*
X152790475Y-76567057D02*
X152676190Y-76567057D01*
X152676190Y-76567057D02*
X152599999Y-76605152D01*
X152599999Y-76605152D02*
X152561904Y-76643247D01*
X152561904Y-76643247D02*
X152523809Y-76719438D01*
X152523809Y-76719438D02*
X152523809Y-76909914D01*
X152523809Y-76909914D02*
X152561904Y-76986104D01*
X152561904Y-76986104D02*
X152599999Y-77024200D01*
X152599999Y-77024200D02*
X152676190Y-77062295D01*
X152676190Y-77062295D02*
X152904761Y-77062295D01*
X152904761Y-77062295D02*
X152980952Y-77024200D01*
X152980952Y-77024200D02*
X153019047Y-76986104D01*
X152219047Y-76338485D02*
X152180951Y-76300390D01*
X152180951Y-76300390D02*
X152104761Y-76262295D01*
X152104761Y-76262295D02*
X151914285Y-76262295D01*
X151914285Y-76262295D02*
X151838094Y-76300390D01*
X151838094Y-76300390D02*
X151799999Y-76338485D01*
X151799999Y-76338485D02*
X151761904Y-76414676D01*
X151761904Y-76414676D02*
X151761904Y-76490866D01*
X151761904Y-76490866D02*
X151799999Y-76605152D01*
X151799999Y-76605152D02*
X152257142Y-77062295D01*
X152257142Y-77062295D02*
X151761904Y-77062295D01*
X151419046Y-76986104D02*
X151380951Y-77024200D01*
X151380951Y-77024200D02*
X151419046Y-77062295D01*
X151419046Y-77062295D02*
X151457142Y-77024200D01*
X151457142Y-77024200D02*
X151419046Y-76986104D01*
X151419046Y-76986104D02*
X151419046Y-77062295D01*
X151114285Y-76262295D02*
X150580951Y-76262295D01*
X150580951Y-76262295D02*
X150923809Y-77062295D01*
X149933332Y-76262295D02*
X150085713Y-76262295D01*
X150085713Y-76262295D02*
X150161904Y-76300390D01*
X150161904Y-76300390D02*
X150199999Y-76338485D01*
X150199999Y-76338485D02*
X150276189Y-76452771D01*
X150276189Y-76452771D02*
X150314285Y-76605152D01*
X150314285Y-76605152D02*
X150314285Y-76909914D01*
X150314285Y-76909914D02*
X150276189Y-76986104D01*
X150276189Y-76986104D02*
X150238094Y-77024200D01*
X150238094Y-77024200D02*
X150161904Y-77062295D01*
X150161904Y-77062295D02*
X150009523Y-77062295D01*
X150009523Y-77062295D02*
X149933332Y-77024200D01*
X149933332Y-77024200D02*
X149895237Y-76986104D01*
X149895237Y-76986104D02*
X149857142Y-76909914D01*
X149857142Y-76909914D02*
X149857142Y-76719438D01*
X149857142Y-76719438D02*
X149895237Y-76643247D01*
X149895237Y-76643247D02*
X149933332Y-76605152D01*
X149933332Y-76605152D02*
X150009523Y-76567057D01*
X150009523Y-76567057D02*
X150161904Y-76567057D01*
X150161904Y-76567057D02*
X150238094Y-76605152D01*
X150238094Y-76605152D02*
X150276189Y-76643247D01*
X150276189Y-76643247D02*
X150314285Y-76719438D01*
X149399999Y-76605152D02*
X149476189Y-76567057D01*
X149476189Y-76567057D02*
X149514284Y-76528961D01*
X149514284Y-76528961D02*
X149552380Y-76452771D01*
X149552380Y-76452771D02*
X149552380Y-76414676D01*
X149552380Y-76414676D02*
X149514284Y-76338485D01*
X149514284Y-76338485D02*
X149476189Y-76300390D01*
X149476189Y-76300390D02*
X149399999Y-76262295D01*
X149399999Y-76262295D02*
X149247618Y-76262295D01*
X149247618Y-76262295D02*
X149171427Y-76300390D01*
X149171427Y-76300390D02*
X149133332Y-76338485D01*
X149133332Y-76338485D02*
X149095237Y-76414676D01*
X149095237Y-76414676D02*
X149095237Y-76452771D01*
X149095237Y-76452771D02*
X149133332Y-76528961D01*
X149133332Y-76528961D02*
X149171427Y-76567057D01*
X149171427Y-76567057D02*
X149247618Y-76605152D01*
X149247618Y-76605152D02*
X149399999Y-76605152D01*
X149399999Y-76605152D02*
X149476189Y-76643247D01*
X149476189Y-76643247D02*
X149514284Y-76681342D01*
X149514284Y-76681342D02*
X149552380Y-76757533D01*
X149552380Y-76757533D02*
X149552380Y-76909914D01*
X149552380Y-76909914D02*
X149514284Y-76986104D01*
X149514284Y-76986104D02*
X149476189Y-77024200D01*
X149476189Y-77024200D02*
X149399999Y-77062295D01*
X149399999Y-77062295D02*
X149247618Y-77062295D01*
X149247618Y-77062295D02*
X149171427Y-77024200D01*
X149171427Y-77024200D02*
X149133332Y-76986104D01*
X149133332Y-76986104D02*
X149095237Y-76909914D01*
X149095237Y-76909914D02*
X149095237Y-76757533D01*
X149095237Y-76757533D02*
X149133332Y-76681342D01*
X149133332Y-76681342D02*
X149171427Y-76643247D01*
X149171427Y-76643247D02*
X149247618Y-76605152D01*
X148752379Y-77062295D02*
X148752379Y-76262295D01*
X148676189Y-76757533D02*
X148447617Y-77062295D01*
X148447617Y-76528961D02*
X148752379Y-76833723D01*
X148104760Y-77062295D02*
X148104760Y-76262295D01*
X148104760Y-76643247D02*
X147647617Y-76643247D01*
X147647617Y-77062295D02*
X147647617Y-76262295D01*
X147342856Y-76528961D02*
X146923808Y-76528961D01*
X146923808Y-76528961D02*
X147342856Y-77062295D01*
X147342856Y-77062295D02*
X146923808Y-77062295D01*
X156638095Y-77962295D02*
X156638095Y-78609914D01*
X156638095Y-78609914D02*
X156600000Y-78686104D01*
X156600000Y-78686104D02*
X156561905Y-78724200D01*
X156561905Y-78724200D02*
X156485714Y-78762295D01*
X156485714Y-78762295D02*
X156333333Y-78762295D01*
X156333333Y-78762295D02*
X156257143Y-78724200D01*
X156257143Y-78724200D02*
X156219048Y-78686104D01*
X156219048Y-78686104D02*
X156180952Y-78609914D01*
X156180952Y-78609914D02*
X156180952Y-77962295D01*
X155838096Y-78038485D02*
X155800000Y-78000390D01*
X155800000Y-78000390D02*
X155723810Y-77962295D01*
X155723810Y-77962295D02*
X155533334Y-77962295D01*
X155533334Y-77962295D02*
X155457143Y-78000390D01*
X155457143Y-78000390D02*
X155419048Y-78038485D01*
X155419048Y-78038485D02*
X155380953Y-78114676D01*
X155380953Y-78114676D02*
X155380953Y-78190866D01*
X155380953Y-78190866D02*
X155419048Y-78305152D01*
X155419048Y-78305152D02*
X155876191Y-78762295D01*
X155876191Y-78762295D02*
X155380953Y-78762295D01*
X153247619Y-78533723D02*
X152866666Y-78533723D01*
X153323809Y-78762295D02*
X153057142Y-77962295D01*
X153057142Y-77962295D02*
X152790476Y-78762295D01*
X152523809Y-78762295D02*
X152523809Y-77962295D01*
X152523809Y-77962295D02*
X152219047Y-77962295D01*
X152219047Y-77962295D02*
X152142857Y-78000390D01*
X152142857Y-78000390D02*
X152104762Y-78038485D01*
X152104762Y-78038485D02*
X152066666Y-78114676D01*
X152066666Y-78114676D02*
X152066666Y-78228961D01*
X152066666Y-78228961D02*
X152104762Y-78305152D01*
X152104762Y-78305152D02*
X152142857Y-78343247D01*
X152142857Y-78343247D02*
X152219047Y-78381342D01*
X152219047Y-78381342D02*
X152523809Y-78381342D01*
X151761905Y-78038485D02*
X151723809Y-78000390D01*
X151723809Y-78000390D02*
X151647619Y-77962295D01*
X151647619Y-77962295D02*
X151457143Y-77962295D01*
X151457143Y-77962295D02*
X151380952Y-78000390D01*
X151380952Y-78000390D02*
X151342857Y-78038485D01*
X151342857Y-78038485D02*
X151304762Y-78114676D01*
X151304762Y-78114676D02*
X151304762Y-78190866D01*
X151304762Y-78190866D02*
X151342857Y-78305152D01*
X151342857Y-78305152D02*
X151800000Y-78762295D01*
X151800000Y-78762295D02*
X151304762Y-78762295D01*
X150542857Y-78762295D02*
X151000000Y-78762295D01*
X150771428Y-78762295D02*
X150771428Y-77962295D01*
X150771428Y-77962295D02*
X150847619Y-78076580D01*
X150847619Y-78076580D02*
X150923809Y-78152771D01*
X150923809Y-78152771D02*
X151000000Y-78190866D01*
X149780952Y-78762295D02*
X150238095Y-78762295D01*
X150009523Y-78762295D02*
X150009523Y-77962295D01*
X150009523Y-77962295D02*
X150085714Y-78076580D01*
X150085714Y-78076580D02*
X150161904Y-78152771D01*
X150161904Y-78152771D02*
X150238095Y-78190866D01*
X149476190Y-78038485D02*
X149438094Y-78000390D01*
X149438094Y-78000390D02*
X149361904Y-77962295D01*
X149361904Y-77962295D02*
X149171428Y-77962295D01*
X149171428Y-77962295D02*
X149095237Y-78000390D01*
X149095237Y-78000390D02*
X149057142Y-78038485D01*
X149057142Y-78038485D02*
X149019047Y-78114676D01*
X149019047Y-78114676D02*
X149019047Y-78190866D01*
X149019047Y-78190866D02*
X149057142Y-78305152D01*
X149057142Y-78305152D02*
X149514285Y-78762295D01*
X149514285Y-78762295D02*
X149019047Y-78762295D01*
X148676189Y-78762295D02*
X148676189Y-77962295D01*
X148219046Y-78762295D02*
X148561904Y-78305152D01*
X148219046Y-77962295D02*
X148676189Y-78419438D01*
X147876189Y-78457533D02*
X147266666Y-78457533D01*
X146961904Y-77962295D02*
X146466666Y-77962295D01*
X146466666Y-77962295D02*
X146733332Y-78267057D01*
X146733332Y-78267057D02*
X146619047Y-78267057D01*
X146619047Y-78267057D02*
X146542856Y-78305152D01*
X146542856Y-78305152D02*
X146504761Y-78343247D01*
X146504761Y-78343247D02*
X146466666Y-78419438D01*
X146466666Y-78419438D02*
X146466666Y-78609914D01*
X146466666Y-78609914D02*
X146504761Y-78686104D01*
X146504761Y-78686104D02*
X146542856Y-78724200D01*
X146542856Y-78724200D02*
X146619047Y-78762295D01*
X146619047Y-78762295D02*
X146847618Y-78762295D01*
X146847618Y-78762295D02*
X146923809Y-78724200D01*
X146923809Y-78724200D02*
X146961904Y-78686104D01*
X146123808Y-78686104D02*
X146085713Y-78724200D01*
X146085713Y-78724200D02*
X146123808Y-78762295D01*
X146123808Y-78762295D02*
X146161904Y-78724200D01*
X146161904Y-78724200D02*
X146123808Y-78686104D01*
X146123808Y-78686104D02*
X146123808Y-78762295D01*
X145819047Y-77962295D02*
X145323809Y-77962295D01*
X145323809Y-77962295D02*
X145590475Y-78267057D01*
X145590475Y-78267057D02*
X145476190Y-78267057D01*
X145476190Y-78267057D02*
X145399999Y-78305152D01*
X145399999Y-78305152D02*
X145361904Y-78343247D01*
X145361904Y-78343247D02*
X145323809Y-78419438D01*
X145323809Y-78419438D02*
X145323809Y-78609914D01*
X145323809Y-78609914D02*
X145361904Y-78686104D01*
X145361904Y-78686104D02*
X145399999Y-78724200D01*
X145399999Y-78724200D02*
X145476190Y-78762295D01*
X145476190Y-78762295D02*
X145704761Y-78762295D01*
X145704761Y-78762295D02*
X145780952Y-78724200D01*
X145780952Y-78724200D02*
X145819047Y-78686104D01*
X155457143Y-80462295D02*
X155723810Y-80081342D01*
X155914286Y-80462295D02*
X155914286Y-79662295D01*
X155914286Y-79662295D02*
X155609524Y-79662295D01*
X155609524Y-79662295D02*
X155533334Y-79700390D01*
X155533334Y-79700390D02*
X155495239Y-79738485D01*
X155495239Y-79738485D02*
X155457143Y-79814676D01*
X155457143Y-79814676D02*
X155457143Y-79928961D01*
X155457143Y-79928961D02*
X155495239Y-80005152D01*
X155495239Y-80005152D02*
X155533334Y-80043247D01*
X155533334Y-80043247D02*
X155609524Y-80081342D01*
X155609524Y-80081342D02*
X155914286Y-80081342D01*
X154695239Y-80462295D02*
X155152382Y-80462295D01*
X154923810Y-80462295D02*
X154923810Y-79662295D01*
X154923810Y-79662295D02*
X155000001Y-79776580D01*
X155000001Y-79776580D02*
X155076191Y-79852771D01*
X155076191Y-79852771D02*
X155152382Y-79890866D01*
X152142857Y-79662295D02*
X152523809Y-79662295D01*
X152523809Y-79662295D02*
X152561905Y-80043247D01*
X152561905Y-80043247D02*
X152523809Y-80005152D01*
X152523809Y-80005152D02*
X152447619Y-79967057D01*
X152447619Y-79967057D02*
X152257143Y-79967057D01*
X152257143Y-79967057D02*
X152180952Y-80005152D01*
X152180952Y-80005152D02*
X152142857Y-80043247D01*
X152142857Y-80043247D02*
X152104762Y-80119438D01*
X152104762Y-80119438D02*
X152104762Y-80309914D01*
X152104762Y-80309914D02*
X152142857Y-80386104D01*
X152142857Y-80386104D02*
X152180952Y-80424200D01*
X152180952Y-80424200D02*
X152257143Y-80462295D01*
X152257143Y-80462295D02*
X152447619Y-80462295D01*
X152447619Y-80462295D02*
X152523809Y-80424200D01*
X152523809Y-80424200D02*
X152561905Y-80386104D01*
X151761904Y-80386104D02*
X151723809Y-80424200D01*
X151723809Y-80424200D02*
X151761904Y-80462295D01*
X151761904Y-80462295D02*
X151800000Y-80424200D01*
X151800000Y-80424200D02*
X151761904Y-80386104D01*
X151761904Y-80386104D02*
X151761904Y-80462295D01*
X150961905Y-80462295D02*
X151419048Y-80462295D01*
X151190476Y-80462295D02*
X151190476Y-79662295D01*
X151190476Y-79662295D02*
X151266667Y-79776580D01*
X151266667Y-79776580D02*
X151342857Y-79852771D01*
X151342857Y-79852771D02*
X151419048Y-79890866D01*
X150619047Y-80462295D02*
X150619047Y-79662295D01*
X150542857Y-80157533D02*
X150314285Y-80462295D01*
X150314285Y-79928961D02*
X150619047Y-80233723D01*
X155457143Y-82162295D02*
X155723810Y-81781342D01*
X155914286Y-82162295D02*
X155914286Y-81362295D01*
X155914286Y-81362295D02*
X155609524Y-81362295D01*
X155609524Y-81362295D02*
X155533334Y-81400390D01*
X155533334Y-81400390D02*
X155495239Y-81438485D01*
X155495239Y-81438485D02*
X155457143Y-81514676D01*
X155457143Y-81514676D02*
X155457143Y-81628961D01*
X155457143Y-81628961D02*
X155495239Y-81705152D01*
X155495239Y-81705152D02*
X155533334Y-81743247D01*
X155533334Y-81743247D02*
X155609524Y-81781342D01*
X155609524Y-81781342D02*
X155914286Y-81781342D01*
X155152382Y-81438485D02*
X155114286Y-81400390D01*
X155114286Y-81400390D02*
X155038096Y-81362295D01*
X155038096Y-81362295D02*
X154847620Y-81362295D01*
X154847620Y-81362295D02*
X154771429Y-81400390D01*
X154771429Y-81400390D02*
X154733334Y-81438485D01*
X154733334Y-81438485D02*
X154695239Y-81514676D01*
X154695239Y-81514676D02*
X154695239Y-81590866D01*
X154695239Y-81590866D02*
X154733334Y-81705152D01*
X154733334Y-81705152D02*
X155190477Y-82162295D01*
X155190477Y-82162295D02*
X154695239Y-82162295D01*
X152142857Y-81362295D02*
X152523809Y-81362295D01*
X152523809Y-81362295D02*
X152561905Y-81743247D01*
X152561905Y-81743247D02*
X152523809Y-81705152D01*
X152523809Y-81705152D02*
X152447619Y-81667057D01*
X152447619Y-81667057D02*
X152257143Y-81667057D01*
X152257143Y-81667057D02*
X152180952Y-81705152D01*
X152180952Y-81705152D02*
X152142857Y-81743247D01*
X152142857Y-81743247D02*
X152104762Y-81819438D01*
X152104762Y-81819438D02*
X152104762Y-82009914D01*
X152104762Y-82009914D02*
X152142857Y-82086104D01*
X152142857Y-82086104D02*
X152180952Y-82124200D01*
X152180952Y-82124200D02*
X152257143Y-82162295D01*
X152257143Y-82162295D02*
X152447619Y-82162295D01*
X152447619Y-82162295D02*
X152523809Y-82124200D01*
X152523809Y-82124200D02*
X152561905Y-82086104D01*
X151761904Y-82086104D02*
X151723809Y-82124200D01*
X151723809Y-82124200D02*
X151761904Y-82162295D01*
X151761904Y-82162295D02*
X151800000Y-82124200D01*
X151800000Y-82124200D02*
X151761904Y-82086104D01*
X151761904Y-82086104D02*
X151761904Y-82162295D01*
X150961905Y-82162295D02*
X151419048Y-82162295D01*
X151190476Y-82162295D02*
X151190476Y-81362295D01*
X151190476Y-81362295D02*
X151266667Y-81476580D01*
X151266667Y-81476580D02*
X151342857Y-81552771D01*
X151342857Y-81552771D02*
X151419048Y-81590866D01*
X150619047Y-82162295D02*
X150619047Y-81362295D01*
X150542857Y-81857533D02*
X150314285Y-82162295D01*
X150314285Y-81628961D02*
X150619047Y-81933723D01*
X155819047Y-83862295D02*
X156085714Y-83481342D01*
X156276190Y-83862295D02*
X156276190Y-83062295D01*
X156276190Y-83062295D02*
X155971428Y-83062295D01*
X155971428Y-83062295D02*
X155895238Y-83100390D01*
X155895238Y-83100390D02*
X155857143Y-83138485D01*
X155857143Y-83138485D02*
X155819047Y-83214676D01*
X155819047Y-83214676D02*
X155819047Y-83328961D01*
X155819047Y-83328961D02*
X155857143Y-83405152D01*
X155857143Y-83405152D02*
X155895238Y-83443247D01*
X155895238Y-83443247D02*
X155971428Y-83481342D01*
X155971428Y-83481342D02*
X156276190Y-83481342D01*
X155552381Y-83062295D02*
X155057143Y-83062295D01*
X155057143Y-83062295D02*
X155323809Y-83367057D01*
X155323809Y-83367057D02*
X155209524Y-83367057D01*
X155209524Y-83367057D02*
X155133333Y-83405152D01*
X155133333Y-83405152D02*
X155095238Y-83443247D01*
X155095238Y-83443247D02*
X155057143Y-83519438D01*
X155057143Y-83519438D02*
X155057143Y-83709914D01*
X155057143Y-83709914D02*
X155095238Y-83786104D01*
X155095238Y-83786104D02*
X155133333Y-83824200D01*
X155133333Y-83824200D02*
X155209524Y-83862295D01*
X155209524Y-83862295D02*
X155438095Y-83862295D01*
X155438095Y-83862295D02*
X155514286Y-83824200D01*
X155514286Y-83824200D02*
X155552381Y-83786104D01*
X152733332Y-83062295D02*
X152657142Y-83062295D01*
X152657142Y-83062295D02*
X152580951Y-83100390D01*
X152580951Y-83100390D02*
X152542856Y-83138485D01*
X152542856Y-83138485D02*
X152504761Y-83214676D01*
X152504761Y-83214676D02*
X152466666Y-83367057D01*
X152466666Y-83367057D02*
X152466666Y-83557533D01*
X152466666Y-83557533D02*
X152504761Y-83709914D01*
X152504761Y-83709914D02*
X152542856Y-83786104D01*
X152542856Y-83786104D02*
X152580951Y-83824200D01*
X152580951Y-83824200D02*
X152657142Y-83862295D01*
X152657142Y-83862295D02*
X152733332Y-83862295D01*
X152733332Y-83862295D02*
X152809523Y-83824200D01*
X152809523Y-83824200D02*
X152847618Y-83786104D01*
X152847618Y-83786104D02*
X152885713Y-83709914D01*
X152885713Y-83709914D02*
X152923809Y-83557533D01*
X152923809Y-83557533D02*
X152923809Y-83367057D01*
X152923809Y-83367057D02*
X152885713Y-83214676D01*
X152885713Y-83214676D02*
X152847618Y-83138485D01*
X152847618Y-83138485D02*
X152809523Y-83100390D01*
X152809523Y-83100390D02*
X152733332Y-83062295D01*
X151666665Y-83862295D02*
X151933332Y-83481342D01*
X152123808Y-83862295D02*
X152123808Y-83062295D01*
X152123808Y-83062295D02*
X151819046Y-83062295D01*
X151819046Y-83062295D02*
X151742856Y-83100390D01*
X151742856Y-83100390D02*
X151704761Y-83138485D01*
X151704761Y-83138485D02*
X151666665Y-83214676D01*
X151666665Y-83214676D02*
X151666665Y-83328961D01*
X151666665Y-83328961D02*
X151704761Y-83405152D01*
X151704761Y-83405152D02*
X151742856Y-83443247D01*
X151742856Y-83443247D02*
X151819046Y-83481342D01*
X151819046Y-83481342D02*
X152123808Y-83481342D01*
X150752380Y-83024200D02*
X151438094Y-84052771D01*
X150219047Y-83443247D02*
X150485713Y-83443247D01*
X150485713Y-83862295D02*
X150485713Y-83062295D01*
X150485713Y-83062295D02*
X150104761Y-83062295D01*
X149533333Y-83443247D02*
X149419047Y-83481342D01*
X149419047Y-83481342D02*
X149380952Y-83519438D01*
X149380952Y-83519438D02*
X149342856Y-83595628D01*
X149342856Y-83595628D02*
X149342856Y-83709914D01*
X149342856Y-83709914D02*
X149380952Y-83786104D01*
X149380952Y-83786104D02*
X149419047Y-83824200D01*
X149419047Y-83824200D02*
X149495237Y-83862295D01*
X149495237Y-83862295D02*
X149799999Y-83862295D01*
X149799999Y-83862295D02*
X149799999Y-83062295D01*
X149799999Y-83062295D02*
X149533333Y-83062295D01*
X149533333Y-83062295D02*
X149457142Y-83100390D01*
X149457142Y-83100390D02*
X149419047Y-83138485D01*
X149419047Y-83138485D02*
X149380952Y-83214676D01*
X149380952Y-83214676D02*
X149380952Y-83290866D01*
X149380952Y-83290866D02*
X149419047Y-83367057D01*
X149419047Y-83367057D02*
X149457142Y-83405152D01*
X149457142Y-83405152D02*
X149533333Y-83443247D01*
X149533333Y-83443247D02*
X149799999Y-83443247D01*
X155571429Y-85562295D02*
X155838096Y-85181342D01*
X156028572Y-85562295D02*
X156028572Y-84762295D01*
X156028572Y-84762295D02*
X155723810Y-84762295D01*
X155723810Y-84762295D02*
X155647620Y-84800390D01*
X155647620Y-84800390D02*
X155609525Y-84838485D01*
X155609525Y-84838485D02*
X155571429Y-84914676D01*
X155571429Y-84914676D02*
X155571429Y-85028961D01*
X155571429Y-85028961D02*
X155609525Y-85105152D01*
X155609525Y-85105152D02*
X155647620Y-85143247D01*
X155647620Y-85143247D02*
X155723810Y-85181342D01*
X155723810Y-85181342D02*
X156028572Y-85181342D01*
X154885715Y-85028961D02*
X154885715Y-85562295D01*
X155076191Y-84724200D02*
X155266668Y-85295628D01*
X155266668Y-85295628D02*
X154771429Y-85295628D01*
X152219048Y-85562295D02*
X152676191Y-85562295D01*
X152447619Y-85562295D02*
X152447619Y-84762295D01*
X152447619Y-84762295D02*
X152523810Y-84876580D01*
X152523810Y-84876580D02*
X152600000Y-84952771D01*
X152600000Y-84952771D02*
X152676191Y-84990866D01*
X151723809Y-84762295D02*
X151647619Y-84762295D01*
X151647619Y-84762295D02*
X151571428Y-84800390D01*
X151571428Y-84800390D02*
X151533333Y-84838485D01*
X151533333Y-84838485D02*
X151495238Y-84914676D01*
X151495238Y-84914676D02*
X151457143Y-85067057D01*
X151457143Y-85067057D02*
X151457143Y-85257533D01*
X151457143Y-85257533D02*
X151495238Y-85409914D01*
X151495238Y-85409914D02*
X151533333Y-85486104D01*
X151533333Y-85486104D02*
X151571428Y-85524200D01*
X151571428Y-85524200D02*
X151647619Y-85562295D01*
X151647619Y-85562295D02*
X151723809Y-85562295D01*
X151723809Y-85562295D02*
X151800000Y-85524200D01*
X151800000Y-85524200D02*
X151838095Y-85486104D01*
X151838095Y-85486104D02*
X151876190Y-85409914D01*
X151876190Y-85409914D02*
X151914286Y-85257533D01*
X151914286Y-85257533D02*
X151914286Y-85067057D01*
X151914286Y-85067057D02*
X151876190Y-84914676D01*
X151876190Y-84914676D02*
X151838095Y-84838485D01*
X151838095Y-84838485D02*
X151800000Y-84800390D01*
X151800000Y-84800390D02*
X151723809Y-84762295D01*
X151114285Y-85562295D02*
X151114285Y-84762295D01*
X151038095Y-85257533D02*
X150809523Y-85562295D01*
X150809523Y-85028961D02*
X151114285Y-85333723D01*
X155495238Y-87262295D02*
X155761905Y-86881342D01*
X155952381Y-87262295D02*
X155952381Y-86462295D01*
X155952381Y-86462295D02*
X155647619Y-86462295D01*
X155647619Y-86462295D02*
X155571429Y-86500390D01*
X155571429Y-86500390D02*
X155533334Y-86538485D01*
X155533334Y-86538485D02*
X155495238Y-86614676D01*
X155495238Y-86614676D02*
X155495238Y-86728961D01*
X155495238Y-86728961D02*
X155533334Y-86805152D01*
X155533334Y-86805152D02*
X155571429Y-86843247D01*
X155571429Y-86843247D02*
X155647619Y-86881342D01*
X155647619Y-86881342D02*
X155952381Y-86881342D01*
X154771429Y-86462295D02*
X155152381Y-86462295D01*
X155152381Y-86462295D02*
X155190477Y-86843247D01*
X155190477Y-86843247D02*
X155152381Y-86805152D01*
X155152381Y-86805152D02*
X155076191Y-86767057D01*
X155076191Y-86767057D02*
X154885715Y-86767057D01*
X154885715Y-86767057D02*
X154809524Y-86805152D01*
X154809524Y-86805152D02*
X154771429Y-86843247D01*
X154771429Y-86843247D02*
X154733334Y-86919438D01*
X154733334Y-86919438D02*
X154733334Y-87109914D01*
X154733334Y-87109914D02*
X154771429Y-87186104D01*
X154771429Y-87186104D02*
X154809524Y-87224200D01*
X154809524Y-87224200D02*
X154885715Y-87262295D01*
X154885715Y-87262295D02*
X155076191Y-87262295D01*
X155076191Y-87262295D02*
X155152381Y-87224200D01*
X155152381Y-87224200D02*
X155190477Y-87186104D01*
X152142857Y-87262295D02*
X152600000Y-87262295D01*
X152371428Y-87262295D02*
X152371428Y-86462295D01*
X152371428Y-86462295D02*
X152447619Y-86576580D01*
X152447619Y-86576580D02*
X152523809Y-86652771D01*
X152523809Y-86652771D02*
X152600000Y-86690866D01*
X151799999Y-87262295D02*
X151799999Y-86462295D01*
X151723809Y-86957533D02*
X151495237Y-87262295D01*
X151495237Y-86728961D02*
X151799999Y-87033723D01*
X156028572Y-88962295D02*
X156028572Y-88162295D01*
X156028572Y-88162295D02*
X155838096Y-88162295D01*
X155838096Y-88162295D02*
X155723810Y-88200390D01*
X155723810Y-88200390D02*
X155647620Y-88276580D01*
X155647620Y-88276580D02*
X155609525Y-88352771D01*
X155609525Y-88352771D02*
X155571429Y-88505152D01*
X155571429Y-88505152D02*
X155571429Y-88619438D01*
X155571429Y-88619438D02*
X155609525Y-88771819D01*
X155609525Y-88771819D02*
X155647620Y-88848009D01*
X155647620Y-88848009D02*
X155723810Y-88924200D01*
X155723810Y-88924200D02*
X155838096Y-88962295D01*
X155838096Y-88962295D02*
X156028572Y-88962295D01*
X154809525Y-88962295D02*
X155266668Y-88962295D01*
X155038096Y-88962295D02*
X155038096Y-88162295D01*
X155038096Y-88162295D02*
X155114287Y-88276580D01*
X155114287Y-88276580D02*
X155190477Y-88352771D01*
X155190477Y-88352771D02*
X155266668Y-88390866D01*
X152257143Y-88962295D02*
X152638095Y-88962295D01*
X152638095Y-88962295D02*
X152638095Y-88162295D01*
X151990476Y-88543247D02*
X151723810Y-88543247D01*
X151609524Y-88962295D02*
X151990476Y-88962295D01*
X151990476Y-88962295D02*
X151990476Y-88162295D01*
X151990476Y-88162295D02*
X151609524Y-88162295D01*
X151266666Y-88962295D02*
X151266666Y-88162295D01*
X151266666Y-88162295D02*
X151076190Y-88162295D01*
X151076190Y-88162295D02*
X150961904Y-88200390D01*
X150961904Y-88200390D02*
X150885714Y-88276580D01*
X150885714Y-88276580D02*
X150847619Y-88352771D01*
X150847619Y-88352771D02*
X150809523Y-88505152D01*
X150809523Y-88505152D02*
X150809523Y-88619438D01*
X150809523Y-88619438D02*
X150847619Y-88771819D01*
X150847619Y-88771819D02*
X150885714Y-88848009D01*
X150885714Y-88848009D02*
X150961904Y-88924200D01*
X150961904Y-88924200D02*
X151076190Y-88962295D01*
X151076190Y-88962295D02*
X151266666Y-88962295D01*
X170895238Y-75286104D02*
X170933334Y-75324200D01*
X170933334Y-75324200D02*
X171047619Y-75362295D01*
X171047619Y-75362295D02*
X171123810Y-75362295D01*
X171123810Y-75362295D02*
X171238096Y-75324200D01*
X171238096Y-75324200D02*
X171314286Y-75248009D01*
X171314286Y-75248009D02*
X171352381Y-75171819D01*
X171352381Y-75171819D02*
X171390477Y-75019438D01*
X171390477Y-75019438D02*
X171390477Y-74905152D01*
X171390477Y-74905152D02*
X171352381Y-74752771D01*
X171352381Y-74752771D02*
X171314286Y-74676580D01*
X171314286Y-74676580D02*
X171238096Y-74600390D01*
X171238096Y-74600390D02*
X171123810Y-74562295D01*
X171123810Y-74562295D02*
X171047619Y-74562295D01*
X171047619Y-74562295D02*
X170933334Y-74600390D01*
X170933334Y-74600390D02*
X170895238Y-74638485D01*
X170133334Y-75362295D02*
X170590477Y-75362295D01*
X170361905Y-75362295D02*
X170361905Y-74562295D01*
X170361905Y-74562295D02*
X170438096Y-74676580D01*
X170438096Y-74676580D02*
X170514286Y-74752771D01*
X170514286Y-74752771D02*
X170590477Y-74790866D01*
X167542857Y-75362295D02*
X168000000Y-75362295D01*
X167771428Y-75362295D02*
X167771428Y-74562295D01*
X167771428Y-74562295D02*
X167847619Y-74676580D01*
X167847619Y-74676580D02*
X167923809Y-74752771D01*
X167923809Y-74752771D02*
X168000000Y-74790866D01*
X167047618Y-74562295D02*
X166971428Y-74562295D01*
X166971428Y-74562295D02*
X166895237Y-74600390D01*
X166895237Y-74600390D02*
X166857142Y-74638485D01*
X166857142Y-74638485D02*
X166819047Y-74714676D01*
X166819047Y-74714676D02*
X166780952Y-74867057D01*
X166780952Y-74867057D02*
X166780952Y-75057533D01*
X166780952Y-75057533D02*
X166819047Y-75209914D01*
X166819047Y-75209914D02*
X166857142Y-75286104D01*
X166857142Y-75286104D02*
X166895237Y-75324200D01*
X166895237Y-75324200D02*
X166971428Y-75362295D01*
X166971428Y-75362295D02*
X167047618Y-75362295D01*
X167047618Y-75362295D02*
X167123809Y-75324200D01*
X167123809Y-75324200D02*
X167161904Y-75286104D01*
X167161904Y-75286104D02*
X167199999Y-75209914D01*
X167199999Y-75209914D02*
X167238095Y-75057533D01*
X167238095Y-75057533D02*
X167238095Y-74867057D01*
X167238095Y-74867057D02*
X167199999Y-74714676D01*
X167199999Y-74714676D02*
X167161904Y-74638485D01*
X167161904Y-74638485D02*
X167123809Y-74600390D01*
X167123809Y-74600390D02*
X167047618Y-74562295D01*
X166285713Y-74562295D02*
X166209523Y-74562295D01*
X166209523Y-74562295D02*
X166133332Y-74600390D01*
X166133332Y-74600390D02*
X166095237Y-74638485D01*
X166095237Y-74638485D02*
X166057142Y-74714676D01*
X166057142Y-74714676D02*
X166019047Y-74867057D01*
X166019047Y-74867057D02*
X166019047Y-75057533D01*
X166019047Y-75057533D02*
X166057142Y-75209914D01*
X166057142Y-75209914D02*
X166095237Y-75286104D01*
X166095237Y-75286104D02*
X166133332Y-75324200D01*
X166133332Y-75324200D02*
X166209523Y-75362295D01*
X166209523Y-75362295D02*
X166285713Y-75362295D01*
X166285713Y-75362295D02*
X166361904Y-75324200D01*
X166361904Y-75324200D02*
X166399999Y-75286104D01*
X166399999Y-75286104D02*
X166438094Y-75209914D01*
X166438094Y-75209914D02*
X166476190Y-75057533D01*
X166476190Y-75057533D02*
X166476190Y-74867057D01*
X166476190Y-74867057D02*
X166438094Y-74714676D01*
X166438094Y-74714676D02*
X166399999Y-74638485D01*
X166399999Y-74638485D02*
X166361904Y-74600390D01*
X166361904Y-74600390D02*
X166285713Y-74562295D01*
X165676189Y-74828961D02*
X165676189Y-75362295D01*
X165676189Y-74905152D02*
X165638094Y-74867057D01*
X165638094Y-74867057D02*
X165561904Y-74828961D01*
X165561904Y-74828961D02*
X165447618Y-74828961D01*
X165447618Y-74828961D02*
X165371427Y-74867057D01*
X165371427Y-74867057D02*
X165333332Y-74943247D01*
X165333332Y-74943247D02*
X165333332Y-75362295D01*
X164685713Y-74943247D02*
X164952379Y-74943247D01*
X164952379Y-75362295D02*
X164952379Y-74562295D01*
X164952379Y-74562295D02*
X164571427Y-74562295D01*
X170895238Y-76986104D02*
X170933334Y-77024200D01*
X170933334Y-77024200D02*
X171047619Y-77062295D01*
X171047619Y-77062295D02*
X171123810Y-77062295D01*
X171123810Y-77062295D02*
X171238096Y-77024200D01*
X171238096Y-77024200D02*
X171314286Y-76948009D01*
X171314286Y-76948009D02*
X171352381Y-76871819D01*
X171352381Y-76871819D02*
X171390477Y-76719438D01*
X171390477Y-76719438D02*
X171390477Y-76605152D01*
X171390477Y-76605152D02*
X171352381Y-76452771D01*
X171352381Y-76452771D02*
X171314286Y-76376580D01*
X171314286Y-76376580D02*
X171238096Y-76300390D01*
X171238096Y-76300390D02*
X171123810Y-76262295D01*
X171123810Y-76262295D02*
X171047619Y-76262295D01*
X171047619Y-76262295D02*
X170933334Y-76300390D01*
X170933334Y-76300390D02*
X170895238Y-76338485D01*
X170590477Y-76338485D02*
X170552381Y-76300390D01*
X170552381Y-76300390D02*
X170476191Y-76262295D01*
X170476191Y-76262295D02*
X170285715Y-76262295D01*
X170285715Y-76262295D02*
X170209524Y-76300390D01*
X170209524Y-76300390D02*
X170171429Y-76338485D01*
X170171429Y-76338485D02*
X170133334Y-76414676D01*
X170133334Y-76414676D02*
X170133334Y-76490866D01*
X170133334Y-76490866D02*
X170171429Y-76605152D01*
X170171429Y-76605152D02*
X170628572Y-77062295D01*
X170628572Y-77062295D02*
X170133334Y-77062295D01*
X167542857Y-77062295D02*
X168000000Y-77062295D01*
X167771428Y-77062295D02*
X167771428Y-76262295D01*
X167771428Y-76262295D02*
X167847619Y-76376580D01*
X167847619Y-76376580D02*
X167923809Y-76452771D01*
X167923809Y-76452771D02*
X168000000Y-76490866D01*
X167047618Y-76262295D02*
X166971428Y-76262295D01*
X166971428Y-76262295D02*
X166895237Y-76300390D01*
X166895237Y-76300390D02*
X166857142Y-76338485D01*
X166857142Y-76338485D02*
X166819047Y-76414676D01*
X166819047Y-76414676D02*
X166780952Y-76567057D01*
X166780952Y-76567057D02*
X166780952Y-76757533D01*
X166780952Y-76757533D02*
X166819047Y-76909914D01*
X166819047Y-76909914D02*
X166857142Y-76986104D01*
X166857142Y-76986104D02*
X166895237Y-77024200D01*
X166895237Y-77024200D02*
X166971428Y-77062295D01*
X166971428Y-77062295D02*
X167047618Y-77062295D01*
X167047618Y-77062295D02*
X167123809Y-77024200D01*
X167123809Y-77024200D02*
X167161904Y-76986104D01*
X167161904Y-76986104D02*
X167199999Y-76909914D01*
X167199999Y-76909914D02*
X167238095Y-76757533D01*
X167238095Y-76757533D02*
X167238095Y-76567057D01*
X167238095Y-76567057D02*
X167199999Y-76414676D01*
X167199999Y-76414676D02*
X167161904Y-76338485D01*
X167161904Y-76338485D02*
X167123809Y-76300390D01*
X167123809Y-76300390D02*
X167047618Y-76262295D01*
X166285713Y-76262295D02*
X166209523Y-76262295D01*
X166209523Y-76262295D02*
X166133332Y-76300390D01*
X166133332Y-76300390D02*
X166095237Y-76338485D01*
X166095237Y-76338485D02*
X166057142Y-76414676D01*
X166057142Y-76414676D02*
X166019047Y-76567057D01*
X166019047Y-76567057D02*
X166019047Y-76757533D01*
X166019047Y-76757533D02*
X166057142Y-76909914D01*
X166057142Y-76909914D02*
X166095237Y-76986104D01*
X166095237Y-76986104D02*
X166133332Y-77024200D01*
X166133332Y-77024200D02*
X166209523Y-77062295D01*
X166209523Y-77062295D02*
X166285713Y-77062295D01*
X166285713Y-77062295D02*
X166361904Y-77024200D01*
X166361904Y-77024200D02*
X166399999Y-76986104D01*
X166399999Y-76986104D02*
X166438094Y-76909914D01*
X166438094Y-76909914D02*
X166476190Y-76757533D01*
X166476190Y-76757533D02*
X166476190Y-76567057D01*
X166476190Y-76567057D02*
X166438094Y-76414676D01*
X166438094Y-76414676D02*
X166399999Y-76338485D01*
X166399999Y-76338485D02*
X166361904Y-76300390D01*
X166361904Y-76300390D02*
X166285713Y-76262295D01*
X165676189Y-76528961D02*
X165676189Y-77062295D01*
X165676189Y-76605152D02*
X165638094Y-76567057D01*
X165638094Y-76567057D02*
X165561904Y-76528961D01*
X165561904Y-76528961D02*
X165447618Y-76528961D01*
X165447618Y-76528961D02*
X165371427Y-76567057D01*
X165371427Y-76567057D02*
X165333332Y-76643247D01*
X165333332Y-76643247D02*
X165333332Y-77062295D01*
X164685713Y-76643247D02*
X164952379Y-76643247D01*
X164952379Y-77062295D02*
X164952379Y-76262295D01*
X164952379Y-76262295D02*
X164571427Y-76262295D01*
X170895238Y-78686104D02*
X170933334Y-78724200D01*
X170933334Y-78724200D02*
X171047619Y-78762295D01*
X171047619Y-78762295D02*
X171123810Y-78762295D01*
X171123810Y-78762295D02*
X171238096Y-78724200D01*
X171238096Y-78724200D02*
X171314286Y-78648009D01*
X171314286Y-78648009D02*
X171352381Y-78571819D01*
X171352381Y-78571819D02*
X171390477Y-78419438D01*
X171390477Y-78419438D02*
X171390477Y-78305152D01*
X171390477Y-78305152D02*
X171352381Y-78152771D01*
X171352381Y-78152771D02*
X171314286Y-78076580D01*
X171314286Y-78076580D02*
X171238096Y-78000390D01*
X171238096Y-78000390D02*
X171123810Y-77962295D01*
X171123810Y-77962295D02*
X171047619Y-77962295D01*
X171047619Y-77962295D02*
X170933334Y-78000390D01*
X170933334Y-78000390D02*
X170895238Y-78038485D01*
X170628572Y-77962295D02*
X170133334Y-77962295D01*
X170133334Y-77962295D02*
X170400000Y-78267057D01*
X170400000Y-78267057D02*
X170285715Y-78267057D01*
X170285715Y-78267057D02*
X170209524Y-78305152D01*
X170209524Y-78305152D02*
X170171429Y-78343247D01*
X170171429Y-78343247D02*
X170133334Y-78419438D01*
X170133334Y-78419438D02*
X170133334Y-78609914D01*
X170133334Y-78609914D02*
X170171429Y-78686104D01*
X170171429Y-78686104D02*
X170209524Y-78724200D01*
X170209524Y-78724200D02*
X170285715Y-78762295D01*
X170285715Y-78762295D02*
X170514286Y-78762295D01*
X170514286Y-78762295D02*
X170590477Y-78724200D01*
X170590477Y-78724200D02*
X170628572Y-78686104D01*
X167542857Y-78762295D02*
X168000000Y-78762295D01*
X167771428Y-78762295D02*
X167771428Y-77962295D01*
X167771428Y-77962295D02*
X167847619Y-78076580D01*
X167847619Y-78076580D02*
X167923809Y-78152771D01*
X167923809Y-78152771D02*
X168000000Y-78190866D01*
X167047618Y-77962295D02*
X166971428Y-77962295D01*
X166971428Y-77962295D02*
X166895237Y-78000390D01*
X166895237Y-78000390D02*
X166857142Y-78038485D01*
X166857142Y-78038485D02*
X166819047Y-78114676D01*
X166819047Y-78114676D02*
X166780952Y-78267057D01*
X166780952Y-78267057D02*
X166780952Y-78457533D01*
X166780952Y-78457533D02*
X166819047Y-78609914D01*
X166819047Y-78609914D02*
X166857142Y-78686104D01*
X166857142Y-78686104D02*
X166895237Y-78724200D01*
X166895237Y-78724200D02*
X166971428Y-78762295D01*
X166971428Y-78762295D02*
X167047618Y-78762295D01*
X167047618Y-78762295D02*
X167123809Y-78724200D01*
X167123809Y-78724200D02*
X167161904Y-78686104D01*
X167161904Y-78686104D02*
X167199999Y-78609914D01*
X167199999Y-78609914D02*
X167238095Y-78457533D01*
X167238095Y-78457533D02*
X167238095Y-78267057D01*
X167238095Y-78267057D02*
X167199999Y-78114676D01*
X167199999Y-78114676D02*
X167161904Y-78038485D01*
X167161904Y-78038485D02*
X167123809Y-78000390D01*
X167123809Y-78000390D02*
X167047618Y-77962295D01*
X166285713Y-77962295D02*
X166209523Y-77962295D01*
X166209523Y-77962295D02*
X166133332Y-78000390D01*
X166133332Y-78000390D02*
X166095237Y-78038485D01*
X166095237Y-78038485D02*
X166057142Y-78114676D01*
X166057142Y-78114676D02*
X166019047Y-78267057D01*
X166019047Y-78267057D02*
X166019047Y-78457533D01*
X166019047Y-78457533D02*
X166057142Y-78609914D01*
X166057142Y-78609914D02*
X166095237Y-78686104D01*
X166095237Y-78686104D02*
X166133332Y-78724200D01*
X166133332Y-78724200D02*
X166209523Y-78762295D01*
X166209523Y-78762295D02*
X166285713Y-78762295D01*
X166285713Y-78762295D02*
X166361904Y-78724200D01*
X166361904Y-78724200D02*
X166399999Y-78686104D01*
X166399999Y-78686104D02*
X166438094Y-78609914D01*
X166438094Y-78609914D02*
X166476190Y-78457533D01*
X166476190Y-78457533D02*
X166476190Y-78267057D01*
X166476190Y-78267057D02*
X166438094Y-78114676D01*
X166438094Y-78114676D02*
X166399999Y-78038485D01*
X166399999Y-78038485D02*
X166361904Y-78000390D01*
X166361904Y-78000390D02*
X166285713Y-77962295D01*
X165676189Y-78228961D02*
X165676189Y-78762295D01*
X165676189Y-78305152D02*
X165638094Y-78267057D01*
X165638094Y-78267057D02*
X165561904Y-78228961D01*
X165561904Y-78228961D02*
X165447618Y-78228961D01*
X165447618Y-78228961D02*
X165371427Y-78267057D01*
X165371427Y-78267057D02*
X165333332Y-78343247D01*
X165333332Y-78343247D02*
X165333332Y-78762295D01*
X164685713Y-78343247D02*
X164952379Y-78343247D01*
X164952379Y-78762295D02*
X164952379Y-77962295D01*
X164952379Y-77962295D02*
X164571427Y-77962295D01*
X170895238Y-80386104D02*
X170933334Y-80424200D01*
X170933334Y-80424200D02*
X171047619Y-80462295D01*
X171047619Y-80462295D02*
X171123810Y-80462295D01*
X171123810Y-80462295D02*
X171238096Y-80424200D01*
X171238096Y-80424200D02*
X171314286Y-80348009D01*
X171314286Y-80348009D02*
X171352381Y-80271819D01*
X171352381Y-80271819D02*
X171390477Y-80119438D01*
X171390477Y-80119438D02*
X171390477Y-80005152D01*
X171390477Y-80005152D02*
X171352381Y-79852771D01*
X171352381Y-79852771D02*
X171314286Y-79776580D01*
X171314286Y-79776580D02*
X171238096Y-79700390D01*
X171238096Y-79700390D02*
X171123810Y-79662295D01*
X171123810Y-79662295D02*
X171047619Y-79662295D01*
X171047619Y-79662295D02*
X170933334Y-79700390D01*
X170933334Y-79700390D02*
X170895238Y-79738485D01*
X170209524Y-79928961D02*
X170209524Y-80462295D01*
X170400000Y-79624200D02*
X170590477Y-80195628D01*
X170590477Y-80195628D02*
X170095238Y-80195628D01*
X167542857Y-80462295D02*
X168000000Y-80462295D01*
X167771428Y-80462295D02*
X167771428Y-79662295D01*
X167771428Y-79662295D02*
X167847619Y-79776580D01*
X167847619Y-79776580D02*
X167923809Y-79852771D01*
X167923809Y-79852771D02*
X168000000Y-79890866D01*
X167047618Y-79662295D02*
X166971428Y-79662295D01*
X166971428Y-79662295D02*
X166895237Y-79700390D01*
X166895237Y-79700390D02*
X166857142Y-79738485D01*
X166857142Y-79738485D02*
X166819047Y-79814676D01*
X166819047Y-79814676D02*
X166780952Y-79967057D01*
X166780952Y-79967057D02*
X166780952Y-80157533D01*
X166780952Y-80157533D02*
X166819047Y-80309914D01*
X166819047Y-80309914D02*
X166857142Y-80386104D01*
X166857142Y-80386104D02*
X166895237Y-80424200D01*
X166895237Y-80424200D02*
X166971428Y-80462295D01*
X166971428Y-80462295D02*
X167047618Y-80462295D01*
X167047618Y-80462295D02*
X167123809Y-80424200D01*
X167123809Y-80424200D02*
X167161904Y-80386104D01*
X167161904Y-80386104D02*
X167199999Y-80309914D01*
X167199999Y-80309914D02*
X167238095Y-80157533D01*
X167238095Y-80157533D02*
X167238095Y-79967057D01*
X167238095Y-79967057D02*
X167199999Y-79814676D01*
X167199999Y-79814676D02*
X167161904Y-79738485D01*
X167161904Y-79738485D02*
X167123809Y-79700390D01*
X167123809Y-79700390D02*
X167047618Y-79662295D01*
X166285713Y-79662295D02*
X166209523Y-79662295D01*
X166209523Y-79662295D02*
X166133332Y-79700390D01*
X166133332Y-79700390D02*
X166095237Y-79738485D01*
X166095237Y-79738485D02*
X166057142Y-79814676D01*
X166057142Y-79814676D02*
X166019047Y-79967057D01*
X166019047Y-79967057D02*
X166019047Y-80157533D01*
X166019047Y-80157533D02*
X166057142Y-80309914D01*
X166057142Y-80309914D02*
X166095237Y-80386104D01*
X166095237Y-80386104D02*
X166133332Y-80424200D01*
X166133332Y-80424200D02*
X166209523Y-80462295D01*
X166209523Y-80462295D02*
X166285713Y-80462295D01*
X166285713Y-80462295D02*
X166361904Y-80424200D01*
X166361904Y-80424200D02*
X166399999Y-80386104D01*
X166399999Y-80386104D02*
X166438094Y-80309914D01*
X166438094Y-80309914D02*
X166476190Y-80157533D01*
X166476190Y-80157533D02*
X166476190Y-79967057D01*
X166476190Y-79967057D02*
X166438094Y-79814676D01*
X166438094Y-79814676D02*
X166399999Y-79738485D01*
X166399999Y-79738485D02*
X166361904Y-79700390D01*
X166361904Y-79700390D02*
X166285713Y-79662295D01*
X165676189Y-79928961D02*
X165676189Y-80462295D01*
X165676189Y-80005152D02*
X165638094Y-79967057D01*
X165638094Y-79967057D02*
X165561904Y-79928961D01*
X165561904Y-79928961D02*
X165447618Y-79928961D01*
X165447618Y-79928961D02*
X165371427Y-79967057D01*
X165371427Y-79967057D02*
X165333332Y-80043247D01*
X165333332Y-80043247D02*
X165333332Y-80462295D01*
X164685713Y-80043247D02*
X164952379Y-80043247D01*
X164952379Y-80462295D02*
X164952379Y-79662295D01*
X164952379Y-79662295D02*
X164571427Y-79662295D01*
X170895238Y-82086104D02*
X170933334Y-82124200D01*
X170933334Y-82124200D02*
X171047619Y-82162295D01*
X171047619Y-82162295D02*
X171123810Y-82162295D01*
X171123810Y-82162295D02*
X171238096Y-82124200D01*
X171238096Y-82124200D02*
X171314286Y-82048009D01*
X171314286Y-82048009D02*
X171352381Y-81971819D01*
X171352381Y-81971819D02*
X171390477Y-81819438D01*
X171390477Y-81819438D02*
X171390477Y-81705152D01*
X171390477Y-81705152D02*
X171352381Y-81552771D01*
X171352381Y-81552771D02*
X171314286Y-81476580D01*
X171314286Y-81476580D02*
X171238096Y-81400390D01*
X171238096Y-81400390D02*
X171123810Y-81362295D01*
X171123810Y-81362295D02*
X171047619Y-81362295D01*
X171047619Y-81362295D02*
X170933334Y-81400390D01*
X170933334Y-81400390D02*
X170895238Y-81438485D01*
X170171429Y-81362295D02*
X170552381Y-81362295D01*
X170552381Y-81362295D02*
X170590477Y-81743247D01*
X170590477Y-81743247D02*
X170552381Y-81705152D01*
X170552381Y-81705152D02*
X170476191Y-81667057D01*
X170476191Y-81667057D02*
X170285715Y-81667057D01*
X170285715Y-81667057D02*
X170209524Y-81705152D01*
X170209524Y-81705152D02*
X170171429Y-81743247D01*
X170171429Y-81743247D02*
X170133334Y-81819438D01*
X170133334Y-81819438D02*
X170133334Y-82009914D01*
X170133334Y-82009914D02*
X170171429Y-82086104D01*
X170171429Y-82086104D02*
X170209524Y-82124200D01*
X170209524Y-82124200D02*
X170285715Y-82162295D01*
X170285715Y-82162295D02*
X170476191Y-82162295D01*
X170476191Y-82162295D02*
X170552381Y-82124200D01*
X170552381Y-82124200D02*
X170590477Y-82086104D01*
X167542857Y-82162295D02*
X168000000Y-82162295D01*
X167771428Y-82162295D02*
X167771428Y-81362295D01*
X167771428Y-81362295D02*
X167847619Y-81476580D01*
X167847619Y-81476580D02*
X167923809Y-81552771D01*
X167923809Y-81552771D02*
X168000000Y-81590866D01*
X167047618Y-81362295D02*
X166971428Y-81362295D01*
X166971428Y-81362295D02*
X166895237Y-81400390D01*
X166895237Y-81400390D02*
X166857142Y-81438485D01*
X166857142Y-81438485D02*
X166819047Y-81514676D01*
X166819047Y-81514676D02*
X166780952Y-81667057D01*
X166780952Y-81667057D02*
X166780952Y-81857533D01*
X166780952Y-81857533D02*
X166819047Y-82009914D01*
X166819047Y-82009914D02*
X166857142Y-82086104D01*
X166857142Y-82086104D02*
X166895237Y-82124200D01*
X166895237Y-82124200D02*
X166971428Y-82162295D01*
X166971428Y-82162295D02*
X167047618Y-82162295D01*
X167047618Y-82162295D02*
X167123809Y-82124200D01*
X167123809Y-82124200D02*
X167161904Y-82086104D01*
X167161904Y-82086104D02*
X167199999Y-82009914D01*
X167199999Y-82009914D02*
X167238095Y-81857533D01*
X167238095Y-81857533D02*
X167238095Y-81667057D01*
X167238095Y-81667057D02*
X167199999Y-81514676D01*
X167199999Y-81514676D02*
X167161904Y-81438485D01*
X167161904Y-81438485D02*
X167123809Y-81400390D01*
X167123809Y-81400390D02*
X167047618Y-81362295D01*
X166285713Y-81362295D02*
X166209523Y-81362295D01*
X166209523Y-81362295D02*
X166133332Y-81400390D01*
X166133332Y-81400390D02*
X166095237Y-81438485D01*
X166095237Y-81438485D02*
X166057142Y-81514676D01*
X166057142Y-81514676D02*
X166019047Y-81667057D01*
X166019047Y-81667057D02*
X166019047Y-81857533D01*
X166019047Y-81857533D02*
X166057142Y-82009914D01*
X166057142Y-82009914D02*
X166095237Y-82086104D01*
X166095237Y-82086104D02*
X166133332Y-82124200D01*
X166133332Y-82124200D02*
X166209523Y-82162295D01*
X166209523Y-82162295D02*
X166285713Y-82162295D01*
X166285713Y-82162295D02*
X166361904Y-82124200D01*
X166361904Y-82124200D02*
X166399999Y-82086104D01*
X166399999Y-82086104D02*
X166438094Y-82009914D01*
X166438094Y-82009914D02*
X166476190Y-81857533D01*
X166476190Y-81857533D02*
X166476190Y-81667057D01*
X166476190Y-81667057D02*
X166438094Y-81514676D01*
X166438094Y-81514676D02*
X166399999Y-81438485D01*
X166399999Y-81438485D02*
X166361904Y-81400390D01*
X166361904Y-81400390D02*
X166285713Y-81362295D01*
X165676189Y-81628961D02*
X165676189Y-82162295D01*
X165676189Y-81705152D02*
X165638094Y-81667057D01*
X165638094Y-81667057D02*
X165561904Y-81628961D01*
X165561904Y-81628961D02*
X165447618Y-81628961D01*
X165447618Y-81628961D02*
X165371427Y-81667057D01*
X165371427Y-81667057D02*
X165333332Y-81743247D01*
X165333332Y-81743247D02*
X165333332Y-82162295D01*
X164685713Y-81743247D02*
X164952379Y-81743247D01*
X164952379Y-82162295D02*
X164952379Y-81362295D01*
X164952379Y-81362295D02*
X164571427Y-81362295D01*
X170895238Y-83786104D02*
X170933334Y-83824200D01*
X170933334Y-83824200D02*
X171047619Y-83862295D01*
X171047619Y-83862295D02*
X171123810Y-83862295D01*
X171123810Y-83862295D02*
X171238096Y-83824200D01*
X171238096Y-83824200D02*
X171314286Y-83748009D01*
X171314286Y-83748009D02*
X171352381Y-83671819D01*
X171352381Y-83671819D02*
X171390477Y-83519438D01*
X171390477Y-83519438D02*
X171390477Y-83405152D01*
X171390477Y-83405152D02*
X171352381Y-83252771D01*
X171352381Y-83252771D02*
X171314286Y-83176580D01*
X171314286Y-83176580D02*
X171238096Y-83100390D01*
X171238096Y-83100390D02*
X171123810Y-83062295D01*
X171123810Y-83062295D02*
X171047619Y-83062295D01*
X171047619Y-83062295D02*
X170933334Y-83100390D01*
X170933334Y-83100390D02*
X170895238Y-83138485D01*
X170209524Y-83062295D02*
X170361905Y-83062295D01*
X170361905Y-83062295D02*
X170438096Y-83100390D01*
X170438096Y-83100390D02*
X170476191Y-83138485D01*
X170476191Y-83138485D02*
X170552381Y-83252771D01*
X170552381Y-83252771D02*
X170590477Y-83405152D01*
X170590477Y-83405152D02*
X170590477Y-83709914D01*
X170590477Y-83709914D02*
X170552381Y-83786104D01*
X170552381Y-83786104D02*
X170514286Y-83824200D01*
X170514286Y-83824200D02*
X170438096Y-83862295D01*
X170438096Y-83862295D02*
X170285715Y-83862295D01*
X170285715Y-83862295D02*
X170209524Y-83824200D01*
X170209524Y-83824200D02*
X170171429Y-83786104D01*
X170171429Y-83786104D02*
X170133334Y-83709914D01*
X170133334Y-83709914D02*
X170133334Y-83519438D01*
X170133334Y-83519438D02*
X170171429Y-83443247D01*
X170171429Y-83443247D02*
X170209524Y-83405152D01*
X170209524Y-83405152D02*
X170285715Y-83367057D01*
X170285715Y-83367057D02*
X170438096Y-83367057D01*
X170438096Y-83367057D02*
X170514286Y-83405152D01*
X170514286Y-83405152D02*
X170552381Y-83443247D01*
X170552381Y-83443247D02*
X170590477Y-83519438D01*
X167542857Y-83862295D02*
X168000000Y-83862295D01*
X167771428Y-83862295D02*
X167771428Y-83062295D01*
X167771428Y-83062295D02*
X167847619Y-83176580D01*
X167847619Y-83176580D02*
X167923809Y-83252771D01*
X167923809Y-83252771D02*
X168000000Y-83290866D01*
X167047618Y-83062295D02*
X166971428Y-83062295D01*
X166971428Y-83062295D02*
X166895237Y-83100390D01*
X166895237Y-83100390D02*
X166857142Y-83138485D01*
X166857142Y-83138485D02*
X166819047Y-83214676D01*
X166819047Y-83214676D02*
X166780952Y-83367057D01*
X166780952Y-83367057D02*
X166780952Y-83557533D01*
X166780952Y-83557533D02*
X166819047Y-83709914D01*
X166819047Y-83709914D02*
X166857142Y-83786104D01*
X166857142Y-83786104D02*
X166895237Y-83824200D01*
X166895237Y-83824200D02*
X166971428Y-83862295D01*
X166971428Y-83862295D02*
X167047618Y-83862295D01*
X167047618Y-83862295D02*
X167123809Y-83824200D01*
X167123809Y-83824200D02*
X167161904Y-83786104D01*
X167161904Y-83786104D02*
X167199999Y-83709914D01*
X167199999Y-83709914D02*
X167238095Y-83557533D01*
X167238095Y-83557533D02*
X167238095Y-83367057D01*
X167238095Y-83367057D02*
X167199999Y-83214676D01*
X167199999Y-83214676D02*
X167161904Y-83138485D01*
X167161904Y-83138485D02*
X167123809Y-83100390D01*
X167123809Y-83100390D02*
X167047618Y-83062295D01*
X166285713Y-83062295D02*
X166209523Y-83062295D01*
X166209523Y-83062295D02*
X166133332Y-83100390D01*
X166133332Y-83100390D02*
X166095237Y-83138485D01*
X166095237Y-83138485D02*
X166057142Y-83214676D01*
X166057142Y-83214676D02*
X166019047Y-83367057D01*
X166019047Y-83367057D02*
X166019047Y-83557533D01*
X166019047Y-83557533D02*
X166057142Y-83709914D01*
X166057142Y-83709914D02*
X166095237Y-83786104D01*
X166095237Y-83786104D02*
X166133332Y-83824200D01*
X166133332Y-83824200D02*
X166209523Y-83862295D01*
X166209523Y-83862295D02*
X166285713Y-83862295D01*
X166285713Y-83862295D02*
X166361904Y-83824200D01*
X166361904Y-83824200D02*
X166399999Y-83786104D01*
X166399999Y-83786104D02*
X166438094Y-83709914D01*
X166438094Y-83709914D02*
X166476190Y-83557533D01*
X166476190Y-83557533D02*
X166476190Y-83367057D01*
X166476190Y-83367057D02*
X166438094Y-83214676D01*
X166438094Y-83214676D02*
X166399999Y-83138485D01*
X166399999Y-83138485D02*
X166361904Y-83100390D01*
X166361904Y-83100390D02*
X166285713Y-83062295D01*
X165676189Y-83328961D02*
X165676189Y-83862295D01*
X165676189Y-83405152D02*
X165638094Y-83367057D01*
X165638094Y-83367057D02*
X165561904Y-83328961D01*
X165561904Y-83328961D02*
X165447618Y-83328961D01*
X165447618Y-83328961D02*
X165371427Y-83367057D01*
X165371427Y-83367057D02*
X165333332Y-83443247D01*
X165333332Y-83443247D02*
X165333332Y-83862295D01*
X164685713Y-83443247D02*
X164952379Y-83443247D01*
X164952379Y-83862295D02*
X164952379Y-83062295D01*
X164952379Y-83062295D02*
X164571427Y-83062295D01*
X170895238Y-85486104D02*
X170933334Y-85524200D01*
X170933334Y-85524200D02*
X171047619Y-85562295D01*
X171047619Y-85562295D02*
X171123810Y-85562295D01*
X171123810Y-85562295D02*
X171238096Y-85524200D01*
X171238096Y-85524200D02*
X171314286Y-85448009D01*
X171314286Y-85448009D02*
X171352381Y-85371819D01*
X171352381Y-85371819D02*
X171390477Y-85219438D01*
X171390477Y-85219438D02*
X171390477Y-85105152D01*
X171390477Y-85105152D02*
X171352381Y-84952771D01*
X171352381Y-84952771D02*
X171314286Y-84876580D01*
X171314286Y-84876580D02*
X171238096Y-84800390D01*
X171238096Y-84800390D02*
X171123810Y-84762295D01*
X171123810Y-84762295D02*
X171047619Y-84762295D01*
X171047619Y-84762295D02*
X170933334Y-84800390D01*
X170933334Y-84800390D02*
X170895238Y-84838485D01*
X170628572Y-84762295D02*
X170095238Y-84762295D01*
X170095238Y-84762295D02*
X170438096Y-85562295D01*
X167542857Y-85562295D02*
X168000000Y-85562295D01*
X167771428Y-85562295D02*
X167771428Y-84762295D01*
X167771428Y-84762295D02*
X167847619Y-84876580D01*
X167847619Y-84876580D02*
X167923809Y-84952771D01*
X167923809Y-84952771D02*
X168000000Y-84990866D01*
X167047618Y-84762295D02*
X166971428Y-84762295D01*
X166971428Y-84762295D02*
X166895237Y-84800390D01*
X166895237Y-84800390D02*
X166857142Y-84838485D01*
X166857142Y-84838485D02*
X166819047Y-84914676D01*
X166819047Y-84914676D02*
X166780952Y-85067057D01*
X166780952Y-85067057D02*
X166780952Y-85257533D01*
X166780952Y-85257533D02*
X166819047Y-85409914D01*
X166819047Y-85409914D02*
X166857142Y-85486104D01*
X166857142Y-85486104D02*
X166895237Y-85524200D01*
X166895237Y-85524200D02*
X166971428Y-85562295D01*
X166971428Y-85562295D02*
X167047618Y-85562295D01*
X167047618Y-85562295D02*
X167123809Y-85524200D01*
X167123809Y-85524200D02*
X167161904Y-85486104D01*
X167161904Y-85486104D02*
X167199999Y-85409914D01*
X167199999Y-85409914D02*
X167238095Y-85257533D01*
X167238095Y-85257533D02*
X167238095Y-85067057D01*
X167238095Y-85067057D02*
X167199999Y-84914676D01*
X167199999Y-84914676D02*
X167161904Y-84838485D01*
X167161904Y-84838485D02*
X167123809Y-84800390D01*
X167123809Y-84800390D02*
X167047618Y-84762295D01*
X166285713Y-84762295D02*
X166209523Y-84762295D01*
X166209523Y-84762295D02*
X166133332Y-84800390D01*
X166133332Y-84800390D02*
X166095237Y-84838485D01*
X166095237Y-84838485D02*
X166057142Y-84914676D01*
X166057142Y-84914676D02*
X166019047Y-85067057D01*
X166019047Y-85067057D02*
X166019047Y-85257533D01*
X166019047Y-85257533D02*
X166057142Y-85409914D01*
X166057142Y-85409914D02*
X166095237Y-85486104D01*
X166095237Y-85486104D02*
X166133332Y-85524200D01*
X166133332Y-85524200D02*
X166209523Y-85562295D01*
X166209523Y-85562295D02*
X166285713Y-85562295D01*
X166285713Y-85562295D02*
X166361904Y-85524200D01*
X166361904Y-85524200D02*
X166399999Y-85486104D01*
X166399999Y-85486104D02*
X166438094Y-85409914D01*
X166438094Y-85409914D02*
X166476190Y-85257533D01*
X166476190Y-85257533D02*
X166476190Y-85067057D01*
X166476190Y-85067057D02*
X166438094Y-84914676D01*
X166438094Y-84914676D02*
X166399999Y-84838485D01*
X166399999Y-84838485D02*
X166361904Y-84800390D01*
X166361904Y-84800390D02*
X166285713Y-84762295D01*
X165676189Y-85028961D02*
X165676189Y-85562295D01*
X165676189Y-85105152D02*
X165638094Y-85067057D01*
X165638094Y-85067057D02*
X165561904Y-85028961D01*
X165561904Y-85028961D02*
X165447618Y-85028961D01*
X165447618Y-85028961D02*
X165371427Y-85067057D01*
X165371427Y-85067057D02*
X165333332Y-85143247D01*
X165333332Y-85143247D02*
X165333332Y-85562295D01*
X164685713Y-85143247D02*
X164952379Y-85143247D01*
X164952379Y-85562295D02*
X164952379Y-84762295D01*
X164952379Y-84762295D02*
X164571427Y-84762295D01*
X170895238Y-87186104D02*
X170933334Y-87224200D01*
X170933334Y-87224200D02*
X171047619Y-87262295D01*
X171047619Y-87262295D02*
X171123810Y-87262295D01*
X171123810Y-87262295D02*
X171238096Y-87224200D01*
X171238096Y-87224200D02*
X171314286Y-87148009D01*
X171314286Y-87148009D02*
X171352381Y-87071819D01*
X171352381Y-87071819D02*
X171390477Y-86919438D01*
X171390477Y-86919438D02*
X171390477Y-86805152D01*
X171390477Y-86805152D02*
X171352381Y-86652771D01*
X171352381Y-86652771D02*
X171314286Y-86576580D01*
X171314286Y-86576580D02*
X171238096Y-86500390D01*
X171238096Y-86500390D02*
X171123810Y-86462295D01*
X171123810Y-86462295D02*
X171047619Y-86462295D01*
X171047619Y-86462295D02*
X170933334Y-86500390D01*
X170933334Y-86500390D02*
X170895238Y-86538485D01*
X170438096Y-86805152D02*
X170514286Y-86767057D01*
X170514286Y-86767057D02*
X170552381Y-86728961D01*
X170552381Y-86728961D02*
X170590477Y-86652771D01*
X170590477Y-86652771D02*
X170590477Y-86614676D01*
X170590477Y-86614676D02*
X170552381Y-86538485D01*
X170552381Y-86538485D02*
X170514286Y-86500390D01*
X170514286Y-86500390D02*
X170438096Y-86462295D01*
X170438096Y-86462295D02*
X170285715Y-86462295D01*
X170285715Y-86462295D02*
X170209524Y-86500390D01*
X170209524Y-86500390D02*
X170171429Y-86538485D01*
X170171429Y-86538485D02*
X170133334Y-86614676D01*
X170133334Y-86614676D02*
X170133334Y-86652771D01*
X170133334Y-86652771D02*
X170171429Y-86728961D01*
X170171429Y-86728961D02*
X170209524Y-86767057D01*
X170209524Y-86767057D02*
X170285715Y-86805152D01*
X170285715Y-86805152D02*
X170438096Y-86805152D01*
X170438096Y-86805152D02*
X170514286Y-86843247D01*
X170514286Y-86843247D02*
X170552381Y-86881342D01*
X170552381Y-86881342D02*
X170590477Y-86957533D01*
X170590477Y-86957533D02*
X170590477Y-87109914D01*
X170590477Y-87109914D02*
X170552381Y-87186104D01*
X170552381Y-87186104D02*
X170514286Y-87224200D01*
X170514286Y-87224200D02*
X170438096Y-87262295D01*
X170438096Y-87262295D02*
X170285715Y-87262295D01*
X170285715Y-87262295D02*
X170209524Y-87224200D01*
X170209524Y-87224200D02*
X170171429Y-87186104D01*
X170171429Y-87186104D02*
X170133334Y-87109914D01*
X170133334Y-87109914D02*
X170133334Y-86957533D01*
X170133334Y-86957533D02*
X170171429Y-86881342D01*
X170171429Y-86881342D02*
X170209524Y-86843247D01*
X170209524Y-86843247D02*
X170285715Y-86805152D01*
X167542857Y-87262295D02*
X168000000Y-87262295D01*
X167771428Y-87262295D02*
X167771428Y-86462295D01*
X167771428Y-86462295D02*
X167847619Y-86576580D01*
X167847619Y-86576580D02*
X167923809Y-86652771D01*
X167923809Y-86652771D02*
X168000000Y-86690866D01*
X167047618Y-86462295D02*
X166971428Y-86462295D01*
X166971428Y-86462295D02*
X166895237Y-86500390D01*
X166895237Y-86500390D02*
X166857142Y-86538485D01*
X166857142Y-86538485D02*
X166819047Y-86614676D01*
X166819047Y-86614676D02*
X166780952Y-86767057D01*
X166780952Y-86767057D02*
X166780952Y-86957533D01*
X166780952Y-86957533D02*
X166819047Y-87109914D01*
X166819047Y-87109914D02*
X166857142Y-87186104D01*
X166857142Y-87186104D02*
X166895237Y-87224200D01*
X166895237Y-87224200D02*
X166971428Y-87262295D01*
X166971428Y-87262295D02*
X167047618Y-87262295D01*
X167047618Y-87262295D02*
X167123809Y-87224200D01*
X167123809Y-87224200D02*
X167161904Y-87186104D01*
X167161904Y-87186104D02*
X167199999Y-87109914D01*
X167199999Y-87109914D02*
X167238095Y-86957533D01*
X167238095Y-86957533D02*
X167238095Y-86767057D01*
X167238095Y-86767057D02*
X167199999Y-86614676D01*
X167199999Y-86614676D02*
X167161904Y-86538485D01*
X167161904Y-86538485D02*
X167123809Y-86500390D01*
X167123809Y-86500390D02*
X167047618Y-86462295D01*
X166285713Y-86462295D02*
X166209523Y-86462295D01*
X166209523Y-86462295D02*
X166133332Y-86500390D01*
X166133332Y-86500390D02*
X166095237Y-86538485D01*
X166095237Y-86538485D02*
X166057142Y-86614676D01*
X166057142Y-86614676D02*
X166019047Y-86767057D01*
X166019047Y-86767057D02*
X166019047Y-86957533D01*
X166019047Y-86957533D02*
X166057142Y-87109914D01*
X166057142Y-87109914D02*
X166095237Y-87186104D01*
X166095237Y-87186104D02*
X166133332Y-87224200D01*
X166133332Y-87224200D02*
X166209523Y-87262295D01*
X166209523Y-87262295D02*
X166285713Y-87262295D01*
X166285713Y-87262295D02*
X166361904Y-87224200D01*
X166361904Y-87224200D02*
X166399999Y-87186104D01*
X166399999Y-87186104D02*
X166438094Y-87109914D01*
X166438094Y-87109914D02*
X166476190Y-86957533D01*
X166476190Y-86957533D02*
X166476190Y-86767057D01*
X166476190Y-86767057D02*
X166438094Y-86614676D01*
X166438094Y-86614676D02*
X166399999Y-86538485D01*
X166399999Y-86538485D02*
X166361904Y-86500390D01*
X166361904Y-86500390D02*
X166285713Y-86462295D01*
X165676189Y-86728961D02*
X165676189Y-87262295D01*
X165676189Y-86805152D02*
X165638094Y-86767057D01*
X165638094Y-86767057D02*
X165561904Y-86728961D01*
X165561904Y-86728961D02*
X165447618Y-86728961D01*
X165447618Y-86728961D02*
X165371427Y-86767057D01*
X165371427Y-86767057D02*
X165333332Y-86843247D01*
X165333332Y-86843247D02*
X165333332Y-87262295D01*
X164685713Y-86843247D02*
X164952379Y-86843247D01*
X164952379Y-87262295D02*
X164952379Y-86462295D01*
X164952379Y-86462295D02*
X164571427Y-86462295D01*
X170895238Y-88886104D02*
X170933334Y-88924200D01*
X170933334Y-88924200D02*
X171047619Y-88962295D01*
X171047619Y-88962295D02*
X171123810Y-88962295D01*
X171123810Y-88962295D02*
X171238096Y-88924200D01*
X171238096Y-88924200D02*
X171314286Y-88848009D01*
X171314286Y-88848009D02*
X171352381Y-88771819D01*
X171352381Y-88771819D02*
X171390477Y-88619438D01*
X171390477Y-88619438D02*
X171390477Y-88505152D01*
X171390477Y-88505152D02*
X171352381Y-88352771D01*
X171352381Y-88352771D02*
X171314286Y-88276580D01*
X171314286Y-88276580D02*
X171238096Y-88200390D01*
X171238096Y-88200390D02*
X171123810Y-88162295D01*
X171123810Y-88162295D02*
X171047619Y-88162295D01*
X171047619Y-88162295D02*
X170933334Y-88200390D01*
X170933334Y-88200390D02*
X170895238Y-88238485D01*
X170514286Y-88962295D02*
X170361905Y-88962295D01*
X170361905Y-88962295D02*
X170285715Y-88924200D01*
X170285715Y-88924200D02*
X170247619Y-88886104D01*
X170247619Y-88886104D02*
X170171429Y-88771819D01*
X170171429Y-88771819D02*
X170133334Y-88619438D01*
X170133334Y-88619438D02*
X170133334Y-88314676D01*
X170133334Y-88314676D02*
X170171429Y-88238485D01*
X170171429Y-88238485D02*
X170209524Y-88200390D01*
X170209524Y-88200390D02*
X170285715Y-88162295D01*
X170285715Y-88162295D02*
X170438096Y-88162295D01*
X170438096Y-88162295D02*
X170514286Y-88200390D01*
X170514286Y-88200390D02*
X170552381Y-88238485D01*
X170552381Y-88238485D02*
X170590477Y-88314676D01*
X170590477Y-88314676D02*
X170590477Y-88505152D01*
X170590477Y-88505152D02*
X170552381Y-88581342D01*
X170552381Y-88581342D02*
X170514286Y-88619438D01*
X170514286Y-88619438D02*
X170438096Y-88657533D01*
X170438096Y-88657533D02*
X170285715Y-88657533D01*
X170285715Y-88657533D02*
X170209524Y-88619438D01*
X170209524Y-88619438D02*
X170171429Y-88581342D01*
X170171429Y-88581342D02*
X170133334Y-88505152D01*
X167542857Y-88962295D02*
X168000000Y-88962295D01*
X167771428Y-88962295D02*
X167771428Y-88162295D01*
X167771428Y-88162295D02*
X167847619Y-88276580D01*
X167847619Y-88276580D02*
X167923809Y-88352771D01*
X167923809Y-88352771D02*
X168000000Y-88390866D01*
X167047618Y-88162295D02*
X166971428Y-88162295D01*
X166971428Y-88162295D02*
X166895237Y-88200390D01*
X166895237Y-88200390D02*
X166857142Y-88238485D01*
X166857142Y-88238485D02*
X166819047Y-88314676D01*
X166819047Y-88314676D02*
X166780952Y-88467057D01*
X166780952Y-88467057D02*
X166780952Y-88657533D01*
X166780952Y-88657533D02*
X166819047Y-88809914D01*
X166819047Y-88809914D02*
X166857142Y-88886104D01*
X166857142Y-88886104D02*
X166895237Y-88924200D01*
X166895237Y-88924200D02*
X166971428Y-88962295D01*
X166971428Y-88962295D02*
X167047618Y-88962295D01*
X167047618Y-88962295D02*
X167123809Y-88924200D01*
X167123809Y-88924200D02*
X167161904Y-88886104D01*
X167161904Y-88886104D02*
X167199999Y-88809914D01*
X167199999Y-88809914D02*
X167238095Y-88657533D01*
X167238095Y-88657533D02*
X167238095Y-88467057D01*
X167238095Y-88467057D02*
X167199999Y-88314676D01*
X167199999Y-88314676D02*
X167161904Y-88238485D01*
X167161904Y-88238485D02*
X167123809Y-88200390D01*
X167123809Y-88200390D02*
X167047618Y-88162295D01*
X166285713Y-88162295D02*
X166209523Y-88162295D01*
X166209523Y-88162295D02*
X166133332Y-88200390D01*
X166133332Y-88200390D02*
X166095237Y-88238485D01*
X166095237Y-88238485D02*
X166057142Y-88314676D01*
X166057142Y-88314676D02*
X166019047Y-88467057D01*
X166019047Y-88467057D02*
X166019047Y-88657533D01*
X166019047Y-88657533D02*
X166057142Y-88809914D01*
X166057142Y-88809914D02*
X166095237Y-88886104D01*
X166095237Y-88886104D02*
X166133332Y-88924200D01*
X166133332Y-88924200D02*
X166209523Y-88962295D01*
X166209523Y-88962295D02*
X166285713Y-88962295D01*
X166285713Y-88962295D02*
X166361904Y-88924200D01*
X166361904Y-88924200D02*
X166399999Y-88886104D01*
X166399999Y-88886104D02*
X166438094Y-88809914D01*
X166438094Y-88809914D02*
X166476190Y-88657533D01*
X166476190Y-88657533D02*
X166476190Y-88467057D01*
X166476190Y-88467057D02*
X166438094Y-88314676D01*
X166438094Y-88314676D02*
X166399999Y-88238485D01*
X166399999Y-88238485D02*
X166361904Y-88200390D01*
X166361904Y-88200390D02*
X166285713Y-88162295D01*
X165676189Y-88428961D02*
X165676189Y-88962295D01*
X165676189Y-88505152D02*
X165638094Y-88467057D01*
X165638094Y-88467057D02*
X165561904Y-88428961D01*
X165561904Y-88428961D02*
X165447618Y-88428961D01*
X165447618Y-88428961D02*
X165371427Y-88467057D01*
X165371427Y-88467057D02*
X165333332Y-88543247D01*
X165333332Y-88543247D02*
X165333332Y-88962295D01*
X164685713Y-88543247D02*
X164952379Y-88543247D01*
X164952379Y-88962295D02*
X164952379Y-88162295D01*
X164952379Y-88162295D02*
X164571427Y-88162295D01*
X170971428Y-90586104D02*
X171009524Y-90624200D01*
X171009524Y-90624200D02*
X171123809Y-90662295D01*
X171123809Y-90662295D02*
X171200000Y-90662295D01*
X171200000Y-90662295D02*
X171314286Y-90624200D01*
X171314286Y-90624200D02*
X171390476Y-90548009D01*
X171390476Y-90548009D02*
X171428571Y-90471819D01*
X171428571Y-90471819D02*
X171466667Y-90319438D01*
X171466667Y-90319438D02*
X171466667Y-90205152D01*
X171466667Y-90205152D02*
X171428571Y-90052771D01*
X171428571Y-90052771D02*
X171390476Y-89976580D01*
X171390476Y-89976580D02*
X171314286Y-89900390D01*
X171314286Y-89900390D02*
X171200000Y-89862295D01*
X171200000Y-89862295D02*
X171123809Y-89862295D01*
X171123809Y-89862295D02*
X171009524Y-89900390D01*
X171009524Y-89900390D02*
X170971428Y-89938485D01*
X170209524Y-90662295D02*
X170666667Y-90662295D01*
X170438095Y-90662295D02*
X170438095Y-89862295D01*
X170438095Y-89862295D02*
X170514286Y-89976580D01*
X170514286Y-89976580D02*
X170590476Y-90052771D01*
X170590476Y-90052771D02*
X170666667Y-90090866D01*
X169714285Y-89862295D02*
X169638095Y-89862295D01*
X169638095Y-89862295D02*
X169561904Y-89900390D01*
X169561904Y-89900390D02*
X169523809Y-89938485D01*
X169523809Y-89938485D02*
X169485714Y-90014676D01*
X169485714Y-90014676D02*
X169447619Y-90167057D01*
X169447619Y-90167057D02*
X169447619Y-90357533D01*
X169447619Y-90357533D02*
X169485714Y-90509914D01*
X169485714Y-90509914D02*
X169523809Y-90586104D01*
X169523809Y-90586104D02*
X169561904Y-90624200D01*
X169561904Y-90624200D02*
X169638095Y-90662295D01*
X169638095Y-90662295D02*
X169714285Y-90662295D01*
X169714285Y-90662295D02*
X169790476Y-90624200D01*
X169790476Y-90624200D02*
X169828571Y-90586104D01*
X169828571Y-90586104D02*
X169866666Y-90509914D01*
X169866666Y-90509914D02*
X169904762Y-90357533D01*
X169904762Y-90357533D02*
X169904762Y-90167057D01*
X169904762Y-90167057D02*
X169866666Y-90014676D01*
X169866666Y-90014676D02*
X169828571Y-89938485D01*
X169828571Y-89938485D02*
X169790476Y-89900390D01*
X169790476Y-89900390D02*
X169714285Y-89862295D01*
X167466666Y-90662295D02*
X167923809Y-90662295D01*
X167695237Y-90662295D02*
X167695237Y-89862295D01*
X167695237Y-89862295D02*
X167771428Y-89976580D01*
X167771428Y-89976580D02*
X167847618Y-90052771D01*
X167847618Y-90052771D02*
X167923809Y-90090866D01*
X166971427Y-89862295D02*
X166895237Y-89862295D01*
X166895237Y-89862295D02*
X166819046Y-89900390D01*
X166819046Y-89900390D02*
X166780951Y-89938485D01*
X166780951Y-89938485D02*
X166742856Y-90014676D01*
X166742856Y-90014676D02*
X166704761Y-90167057D01*
X166704761Y-90167057D02*
X166704761Y-90357533D01*
X166704761Y-90357533D02*
X166742856Y-90509914D01*
X166742856Y-90509914D02*
X166780951Y-90586104D01*
X166780951Y-90586104D02*
X166819046Y-90624200D01*
X166819046Y-90624200D02*
X166895237Y-90662295D01*
X166895237Y-90662295D02*
X166971427Y-90662295D01*
X166971427Y-90662295D02*
X167047618Y-90624200D01*
X167047618Y-90624200D02*
X167085713Y-90586104D01*
X167085713Y-90586104D02*
X167123808Y-90509914D01*
X167123808Y-90509914D02*
X167161904Y-90357533D01*
X167161904Y-90357533D02*
X167161904Y-90167057D01*
X167161904Y-90167057D02*
X167123808Y-90014676D01*
X167123808Y-90014676D02*
X167085713Y-89938485D01*
X167085713Y-89938485D02*
X167047618Y-89900390D01*
X167047618Y-89900390D02*
X166971427Y-89862295D01*
X166209522Y-89862295D02*
X166133332Y-89862295D01*
X166133332Y-89862295D02*
X166057141Y-89900390D01*
X166057141Y-89900390D02*
X166019046Y-89938485D01*
X166019046Y-89938485D02*
X165980951Y-90014676D01*
X165980951Y-90014676D02*
X165942856Y-90167057D01*
X165942856Y-90167057D02*
X165942856Y-90357533D01*
X165942856Y-90357533D02*
X165980951Y-90509914D01*
X165980951Y-90509914D02*
X166019046Y-90586104D01*
X166019046Y-90586104D02*
X166057141Y-90624200D01*
X166057141Y-90624200D02*
X166133332Y-90662295D01*
X166133332Y-90662295D02*
X166209522Y-90662295D01*
X166209522Y-90662295D02*
X166285713Y-90624200D01*
X166285713Y-90624200D02*
X166323808Y-90586104D01*
X166323808Y-90586104D02*
X166361903Y-90509914D01*
X166361903Y-90509914D02*
X166399999Y-90357533D01*
X166399999Y-90357533D02*
X166399999Y-90167057D01*
X166399999Y-90167057D02*
X166361903Y-90014676D01*
X166361903Y-90014676D02*
X166323808Y-89938485D01*
X166323808Y-89938485D02*
X166285713Y-89900390D01*
X166285713Y-89900390D02*
X166209522Y-89862295D01*
X165599998Y-90128961D02*
X165599998Y-90662295D01*
X165599998Y-90205152D02*
X165561903Y-90167057D01*
X165561903Y-90167057D02*
X165485713Y-90128961D01*
X165485713Y-90128961D02*
X165371427Y-90128961D01*
X165371427Y-90128961D02*
X165295236Y-90167057D01*
X165295236Y-90167057D02*
X165257141Y-90243247D01*
X165257141Y-90243247D02*
X165257141Y-90662295D01*
X164609522Y-90243247D02*
X164876188Y-90243247D01*
X164876188Y-90662295D02*
X164876188Y-89862295D01*
X164876188Y-89862295D02*
X164495236Y-89862295D01*
X170971428Y-92286104D02*
X171009524Y-92324200D01*
X171009524Y-92324200D02*
X171123809Y-92362295D01*
X171123809Y-92362295D02*
X171200000Y-92362295D01*
X171200000Y-92362295D02*
X171314286Y-92324200D01*
X171314286Y-92324200D02*
X171390476Y-92248009D01*
X171390476Y-92248009D02*
X171428571Y-92171819D01*
X171428571Y-92171819D02*
X171466667Y-92019438D01*
X171466667Y-92019438D02*
X171466667Y-91905152D01*
X171466667Y-91905152D02*
X171428571Y-91752771D01*
X171428571Y-91752771D02*
X171390476Y-91676580D01*
X171390476Y-91676580D02*
X171314286Y-91600390D01*
X171314286Y-91600390D02*
X171200000Y-91562295D01*
X171200000Y-91562295D02*
X171123809Y-91562295D01*
X171123809Y-91562295D02*
X171009524Y-91600390D01*
X171009524Y-91600390D02*
X170971428Y-91638485D01*
X170209524Y-92362295D02*
X170666667Y-92362295D01*
X170438095Y-92362295D02*
X170438095Y-91562295D01*
X170438095Y-91562295D02*
X170514286Y-91676580D01*
X170514286Y-91676580D02*
X170590476Y-91752771D01*
X170590476Y-91752771D02*
X170666667Y-91790866D01*
X169447619Y-92362295D02*
X169904762Y-92362295D01*
X169676190Y-92362295D02*
X169676190Y-91562295D01*
X169676190Y-91562295D02*
X169752381Y-91676580D01*
X169752381Y-91676580D02*
X169828571Y-91752771D01*
X169828571Y-91752771D02*
X169904762Y-91790866D01*
X167466666Y-92362295D02*
X167923809Y-92362295D01*
X167695237Y-92362295D02*
X167695237Y-91562295D01*
X167695237Y-91562295D02*
X167771428Y-91676580D01*
X167771428Y-91676580D02*
X167847618Y-91752771D01*
X167847618Y-91752771D02*
X167923809Y-91790866D01*
X166971427Y-91562295D02*
X166895237Y-91562295D01*
X166895237Y-91562295D02*
X166819046Y-91600390D01*
X166819046Y-91600390D02*
X166780951Y-91638485D01*
X166780951Y-91638485D02*
X166742856Y-91714676D01*
X166742856Y-91714676D02*
X166704761Y-91867057D01*
X166704761Y-91867057D02*
X166704761Y-92057533D01*
X166704761Y-92057533D02*
X166742856Y-92209914D01*
X166742856Y-92209914D02*
X166780951Y-92286104D01*
X166780951Y-92286104D02*
X166819046Y-92324200D01*
X166819046Y-92324200D02*
X166895237Y-92362295D01*
X166895237Y-92362295D02*
X166971427Y-92362295D01*
X166971427Y-92362295D02*
X167047618Y-92324200D01*
X167047618Y-92324200D02*
X167085713Y-92286104D01*
X167085713Y-92286104D02*
X167123808Y-92209914D01*
X167123808Y-92209914D02*
X167161904Y-92057533D01*
X167161904Y-92057533D02*
X167161904Y-91867057D01*
X167161904Y-91867057D02*
X167123808Y-91714676D01*
X167123808Y-91714676D02*
X167085713Y-91638485D01*
X167085713Y-91638485D02*
X167047618Y-91600390D01*
X167047618Y-91600390D02*
X166971427Y-91562295D01*
X166209522Y-91562295D02*
X166133332Y-91562295D01*
X166133332Y-91562295D02*
X166057141Y-91600390D01*
X166057141Y-91600390D02*
X166019046Y-91638485D01*
X166019046Y-91638485D02*
X165980951Y-91714676D01*
X165980951Y-91714676D02*
X165942856Y-91867057D01*
X165942856Y-91867057D02*
X165942856Y-92057533D01*
X165942856Y-92057533D02*
X165980951Y-92209914D01*
X165980951Y-92209914D02*
X166019046Y-92286104D01*
X166019046Y-92286104D02*
X166057141Y-92324200D01*
X166057141Y-92324200D02*
X166133332Y-92362295D01*
X166133332Y-92362295D02*
X166209522Y-92362295D01*
X166209522Y-92362295D02*
X166285713Y-92324200D01*
X166285713Y-92324200D02*
X166323808Y-92286104D01*
X166323808Y-92286104D02*
X166361903Y-92209914D01*
X166361903Y-92209914D02*
X166399999Y-92057533D01*
X166399999Y-92057533D02*
X166399999Y-91867057D01*
X166399999Y-91867057D02*
X166361903Y-91714676D01*
X166361903Y-91714676D02*
X166323808Y-91638485D01*
X166323808Y-91638485D02*
X166285713Y-91600390D01*
X166285713Y-91600390D02*
X166209522Y-91562295D01*
X165599998Y-91828961D02*
X165599998Y-92362295D01*
X165599998Y-91905152D02*
X165561903Y-91867057D01*
X165561903Y-91867057D02*
X165485713Y-91828961D01*
X165485713Y-91828961D02*
X165371427Y-91828961D01*
X165371427Y-91828961D02*
X165295236Y-91867057D01*
X165295236Y-91867057D02*
X165257141Y-91943247D01*
X165257141Y-91943247D02*
X165257141Y-92362295D01*
X164609522Y-91943247D02*
X164876188Y-91943247D01*
X164876188Y-92362295D02*
X164876188Y-91562295D01*
X164876188Y-91562295D02*
X164495236Y-91562295D01*
X170895238Y-93986104D02*
X170933334Y-94024200D01*
X170933334Y-94024200D02*
X171047619Y-94062295D01*
X171047619Y-94062295D02*
X171123810Y-94062295D01*
X171123810Y-94062295D02*
X171238096Y-94024200D01*
X171238096Y-94024200D02*
X171314286Y-93948009D01*
X171314286Y-93948009D02*
X171352381Y-93871819D01*
X171352381Y-93871819D02*
X171390477Y-93719438D01*
X171390477Y-93719438D02*
X171390477Y-93605152D01*
X171390477Y-93605152D02*
X171352381Y-93452771D01*
X171352381Y-93452771D02*
X171314286Y-93376580D01*
X171314286Y-93376580D02*
X171238096Y-93300390D01*
X171238096Y-93300390D02*
X171123810Y-93262295D01*
X171123810Y-93262295D02*
X171047619Y-93262295D01*
X171047619Y-93262295D02*
X170933334Y-93300390D01*
X170933334Y-93300390D02*
X170895238Y-93338485D01*
X170171429Y-93262295D02*
X170552381Y-93262295D01*
X170552381Y-93262295D02*
X170590477Y-93643247D01*
X170590477Y-93643247D02*
X170552381Y-93605152D01*
X170552381Y-93605152D02*
X170476191Y-93567057D01*
X170476191Y-93567057D02*
X170285715Y-93567057D01*
X170285715Y-93567057D02*
X170209524Y-93605152D01*
X170209524Y-93605152D02*
X170171429Y-93643247D01*
X170171429Y-93643247D02*
X170133334Y-93719438D01*
X170133334Y-93719438D02*
X170133334Y-93909914D01*
X170133334Y-93909914D02*
X170171429Y-93986104D01*
X170171429Y-93986104D02*
X170209524Y-94024200D01*
X170209524Y-94024200D02*
X170285715Y-94062295D01*
X170285715Y-94062295D02*
X170476191Y-94062295D01*
X170476191Y-94062295D02*
X170552381Y-94024200D01*
X170552381Y-94024200D02*
X170590477Y-93986104D01*
X169638095Y-93262295D02*
X169561905Y-93262295D01*
X169561905Y-93262295D02*
X169485714Y-93300390D01*
X169485714Y-93300390D02*
X169447619Y-93338485D01*
X169447619Y-93338485D02*
X169409524Y-93414676D01*
X169409524Y-93414676D02*
X169371429Y-93567057D01*
X169371429Y-93567057D02*
X169371429Y-93757533D01*
X169371429Y-93757533D02*
X169409524Y-93909914D01*
X169409524Y-93909914D02*
X169447619Y-93986104D01*
X169447619Y-93986104D02*
X169485714Y-94024200D01*
X169485714Y-94024200D02*
X169561905Y-94062295D01*
X169561905Y-94062295D02*
X169638095Y-94062295D01*
X169638095Y-94062295D02*
X169714286Y-94024200D01*
X169714286Y-94024200D02*
X169752381Y-93986104D01*
X169752381Y-93986104D02*
X169790476Y-93909914D01*
X169790476Y-93909914D02*
X169828572Y-93757533D01*
X169828572Y-93757533D02*
X169828572Y-93567057D01*
X169828572Y-93567057D02*
X169790476Y-93414676D01*
X169790476Y-93414676D02*
X169752381Y-93338485D01*
X169752381Y-93338485D02*
X169714286Y-93300390D01*
X169714286Y-93300390D02*
X169638095Y-93262295D01*
X167390476Y-94062295D02*
X167847619Y-94062295D01*
X167619047Y-94062295D02*
X167619047Y-93262295D01*
X167619047Y-93262295D02*
X167695238Y-93376580D01*
X167695238Y-93376580D02*
X167771428Y-93452771D01*
X167771428Y-93452771D02*
X167847619Y-93490866D01*
X166895237Y-93262295D02*
X166819047Y-93262295D01*
X166819047Y-93262295D02*
X166742856Y-93300390D01*
X166742856Y-93300390D02*
X166704761Y-93338485D01*
X166704761Y-93338485D02*
X166666666Y-93414676D01*
X166666666Y-93414676D02*
X166628571Y-93567057D01*
X166628571Y-93567057D02*
X166628571Y-93757533D01*
X166628571Y-93757533D02*
X166666666Y-93909914D01*
X166666666Y-93909914D02*
X166704761Y-93986104D01*
X166704761Y-93986104D02*
X166742856Y-94024200D01*
X166742856Y-94024200D02*
X166819047Y-94062295D01*
X166819047Y-94062295D02*
X166895237Y-94062295D01*
X166895237Y-94062295D02*
X166971428Y-94024200D01*
X166971428Y-94024200D02*
X167009523Y-93986104D01*
X167009523Y-93986104D02*
X167047618Y-93909914D01*
X167047618Y-93909914D02*
X167085714Y-93757533D01*
X167085714Y-93757533D02*
X167085714Y-93567057D01*
X167085714Y-93567057D02*
X167047618Y-93414676D01*
X167047618Y-93414676D02*
X167009523Y-93338485D01*
X167009523Y-93338485D02*
X166971428Y-93300390D01*
X166971428Y-93300390D02*
X166895237Y-93262295D01*
X165942856Y-93528961D02*
X165942856Y-94062295D01*
X166285713Y-93528961D02*
X166285713Y-93948009D01*
X166285713Y-93948009D02*
X166247618Y-94024200D01*
X166247618Y-94024200D02*
X166171428Y-94062295D01*
X166171428Y-94062295D02*
X166057142Y-94062295D01*
X166057142Y-94062295D02*
X165980951Y-94024200D01*
X165980951Y-94024200D02*
X165942856Y-93986104D01*
X165295237Y-93643247D02*
X165561903Y-93643247D01*
X165561903Y-94062295D02*
X165561903Y-93262295D01*
X165561903Y-93262295D02*
X165180951Y-93262295D01*
X170895238Y-95686104D02*
X170933334Y-95724200D01*
X170933334Y-95724200D02*
X171047619Y-95762295D01*
X171047619Y-95762295D02*
X171123810Y-95762295D01*
X171123810Y-95762295D02*
X171238096Y-95724200D01*
X171238096Y-95724200D02*
X171314286Y-95648009D01*
X171314286Y-95648009D02*
X171352381Y-95571819D01*
X171352381Y-95571819D02*
X171390477Y-95419438D01*
X171390477Y-95419438D02*
X171390477Y-95305152D01*
X171390477Y-95305152D02*
X171352381Y-95152771D01*
X171352381Y-95152771D02*
X171314286Y-95076580D01*
X171314286Y-95076580D02*
X171238096Y-95000390D01*
X171238096Y-95000390D02*
X171123810Y-94962295D01*
X171123810Y-94962295D02*
X171047619Y-94962295D01*
X171047619Y-94962295D02*
X170933334Y-95000390D01*
X170933334Y-95000390D02*
X170895238Y-95038485D01*
X170171429Y-94962295D02*
X170552381Y-94962295D01*
X170552381Y-94962295D02*
X170590477Y-95343247D01*
X170590477Y-95343247D02*
X170552381Y-95305152D01*
X170552381Y-95305152D02*
X170476191Y-95267057D01*
X170476191Y-95267057D02*
X170285715Y-95267057D01*
X170285715Y-95267057D02*
X170209524Y-95305152D01*
X170209524Y-95305152D02*
X170171429Y-95343247D01*
X170171429Y-95343247D02*
X170133334Y-95419438D01*
X170133334Y-95419438D02*
X170133334Y-95609914D01*
X170133334Y-95609914D02*
X170171429Y-95686104D01*
X170171429Y-95686104D02*
X170209524Y-95724200D01*
X170209524Y-95724200D02*
X170285715Y-95762295D01*
X170285715Y-95762295D02*
X170476191Y-95762295D01*
X170476191Y-95762295D02*
X170552381Y-95724200D01*
X170552381Y-95724200D02*
X170590477Y-95686104D01*
X169371429Y-95762295D02*
X169828572Y-95762295D01*
X169600000Y-95762295D02*
X169600000Y-94962295D01*
X169600000Y-94962295D02*
X169676191Y-95076580D01*
X169676191Y-95076580D02*
X169752381Y-95152771D01*
X169752381Y-95152771D02*
X169828572Y-95190866D01*
X167390476Y-95762295D02*
X167847619Y-95762295D01*
X167619047Y-95762295D02*
X167619047Y-94962295D01*
X167619047Y-94962295D02*
X167695238Y-95076580D01*
X167695238Y-95076580D02*
X167771428Y-95152771D01*
X167771428Y-95152771D02*
X167847619Y-95190866D01*
X166895237Y-94962295D02*
X166819047Y-94962295D01*
X166819047Y-94962295D02*
X166742856Y-95000390D01*
X166742856Y-95000390D02*
X166704761Y-95038485D01*
X166704761Y-95038485D02*
X166666666Y-95114676D01*
X166666666Y-95114676D02*
X166628571Y-95267057D01*
X166628571Y-95267057D02*
X166628571Y-95457533D01*
X166628571Y-95457533D02*
X166666666Y-95609914D01*
X166666666Y-95609914D02*
X166704761Y-95686104D01*
X166704761Y-95686104D02*
X166742856Y-95724200D01*
X166742856Y-95724200D02*
X166819047Y-95762295D01*
X166819047Y-95762295D02*
X166895237Y-95762295D01*
X166895237Y-95762295D02*
X166971428Y-95724200D01*
X166971428Y-95724200D02*
X167009523Y-95686104D01*
X167009523Y-95686104D02*
X167047618Y-95609914D01*
X167047618Y-95609914D02*
X167085714Y-95457533D01*
X167085714Y-95457533D02*
X167085714Y-95267057D01*
X167085714Y-95267057D02*
X167047618Y-95114676D01*
X167047618Y-95114676D02*
X167009523Y-95038485D01*
X167009523Y-95038485D02*
X166971428Y-95000390D01*
X166971428Y-95000390D02*
X166895237Y-94962295D01*
X165942856Y-95228961D02*
X165942856Y-95762295D01*
X166285713Y-95228961D02*
X166285713Y-95648009D01*
X166285713Y-95648009D02*
X166247618Y-95724200D01*
X166247618Y-95724200D02*
X166171428Y-95762295D01*
X166171428Y-95762295D02*
X166057142Y-95762295D01*
X166057142Y-95762295D02*
X165980951Y-95724200D01*
X165980951Y-95724200D02*
X165942856Y-95686104D01*
X165295237Y-95343247D02*
X165561903Y-95343247D01*
X165561903Y-95762295D02*
X165561903Y-94962295D01*
X165561903Y-94962295D02*
X165180951Y-94962295D01*
X170971428Y-97386104D02*
X171009524Y-97424200D01*
X171009524Y-97424200D02*
X171123809Y-97462295D01*
X171123809Y-97462295D02*
X171200000Y-97462295D01*
X171200000Y-97462295D02*
X171314286Y-97424200D01*
X171314286Y-97424200D02*
X171390476Y-97348009D01*
X171390476Y-97348009D02*
X171428571Y-97271819D01*
X171428571Y-97271819D02*
X171466667Y-97119438D01*
X171466667Y-97119438D02*
X171466667Y-97005152D01*
X171466667Y-97005152D02*
X171428571Y-96852771D01*
X171428571Y-96852771D02*
X171390476Y-96776580D01*
X171390476Y-96776580D02*
X171314286Y-96700390D01*
X171314286Y-96700390D02*
X171200000Y-96662295D01*
X171200000Y-96662295D02*
X171123809Y-96662295D01*
X171123809Y-96662295D02*
X171009524Y-96700390D01*
X171009524Y-96700390D02*
X170971428Y-96738485D01*
X170247619Y-96662295D02*
X170628571Y-96662295D01*
X170628571Y-96662295D02*
X170666667Y-97043247D01*
X170666667Y-97043247D02*
X170628571Y-97005152D01*
X170628571Y-97005152D02*
X170552381Y-96967057D01*
X170552381Y-96967057D02*
X170361905Y-96967057D01*
X170361905Y-96967057D02*
X170285714Y-97005152D01*
X170285714Y-97005152D02*
X170247619Y-97043247D01*
X170247619Y-97043247D02*
X170209524Y-97119438D01*
X170209524Y-97119438D02*
X170209524Y-97309914D01*
X170209524Y-97309914D02*
X170247619Y-97386104D01*
X170247619Y-97386104D02*
X170285714Y-97424200D01*
X170285714Y-97424200D02*
X170361905Y-97462295D01*
X170361905Y-97462295D02*
X170552381Y-97462295D01*
X170552381Y-97462295D02*
X170628571Y-97424200D01*
X170628571Y-97424200D02*
X170666667Y-97386104D01*
X169904762Y-96738485D02*
X169866666Y-96700390D01*
X169866666Y-96700390D02*
X169790476Y-96662295D01*
X169790476Y-96662295D02*
X169600000Y-96662295D01*
X169600000Y-96662295D02*
X169523809Y-96700390D01*
X169523809Y-96700390D02*
X169485714Y-96738485D01*
X169485714Y-96738485D02*
X169447619Y-96814676D01*
X169447619Y-96814676D02*
X169447619Y-96890866D01*
X169447619Y-96890866D02*
X169485714Y-97005152D01*
X169485714Y-97005152D02*
X169942857Y-97462295D01*
X169942857Y-97462295D02*
X169447619Y-97462295D01*
X167466666Y-97462295D02*
X167923809Y-97462295D01*
X167695237Y-97462295D02*
X167695237Y-96662295D01*
X167695237Y-96662295D02*
X167771428Y-96776580D01*
X167771428Y-96776580D02*
X167847618Y-96852771D01*
X167847618Y-96852771D02*
X167923809Y-96890866D01*
X166971427Y-96662295D02*
X166895237Y-96662295D01*
X166895237Y-96662295D02*
X166819046Y-96700390D01*
X166819046Y-96700390D02*
X166780951Y-96738485D01*
X166780951Y-96738485D02*
X166742856Y-96814676D01*
X166742856Y-96814676D02*
X166704761Y-96967057D01*
X166704761Y-96967057D02*
X166704761Y-97157533D01*
X166704761Y-97157533D02*
X166742856Y-97309914D01*
X166742856Y-97309914D02*
X166780951Y-97386104D01*
X166780951Y-97386104D02*
X166819046Y-97424200D01*
X166819046Y-97424200D02*
X166895237Y-97462295D01*
X166895237Y-97462295D02*
X166971427Y-97462295D01*
X166971427Y-97462295D02*
X167047618Y-97424200D01*
X167047618Y-97424200D02*
X167085713Y-97386104D01*
X167085713Y-97386104D02*
X167123808Y-97309914D01*
X167123808Y-97309914D02*
X167161904Y-97157533D01*
X167161904Y-97157533D02*
X167161904Y-96967057D01*
X167161904Y-96967057D02*
X167123808Y-96814676D01*
X167123808Y-96814676D02*
X167085713Y-96738485D01*
X167085713Y-96738485D02*
X167047618Y-96700390D01*
X167047618Y-96700390D02*
X166971427Y-96662295D01*
X166209522Y-96662295D02*
X166133332Y-96662295D01*
X166133332Y-96662295D02*
X166057141Y-96700390D01*
X166057141Y-96700390D02*
X166019046Y-96738485D01*
X166019046Y-96738485D02*
X165980951Y-96814676D01*
X165980951Y-96814676D02*
X165942856Y-96967057D01*
X165942856Y-96967057D02*
X165942856Y-97157533D01*
X165942856Y-97157533D02*
X165980951Y-97309914D01*
X165980951Y-97309914D02*
X166019046Y-97386104D01*
X166019046Y-97386104D02*
X166057141Y-97424200D01*
X166057141Y-97424200D02*
X166133332Y-97462295D01*
X166133332Y-97462295D02*
X166209522Y-97462295D01*
X166209522Y-97462295D02*
X166285713Y-97424200D01*
X166285713Y-97424200D02*
X166323808Y-97386104D01*
X166323808Y-97386104D02*
X166361903Y-97309914D01*
X166361903Y-97309914D02*
X166399999Y-97157533D01*
X166399999Y-97157533D02*
X166399999Y-96967057D01*
X166399999Y-96967057D02*
X166361903Y-96814676D01*
X166361903Y-96814676D02*
X166323808Y-96738485D01*
X166323808Y-96738485D02*
X166285713Y-96700390D01*
X166285713Y-96700390D02*
X166209522Y-96662295D01*
X165599998Y-96928961D02*
X165599998Y-97462295D01*
X165599998Y-97005152D02*
X165561903Y-96967057D01*
X165561903Y-96967057D02*
X165485713Y-96928961D01*
X165485713Y-96928961D02*
X165371427Y-96928961D01*
X165371427Y-96928961D02*
X165295236Y-96967057D01*
X165295236Y-96967057D02*
X165257141Y-97043247D01*
X165257141Y-97043247D02*
X165257141Y-97462295D01*
X164609522Y-97043247D02*
X164876188Y-97043247D01*
X164876188Y-97462295D02*
X164876188Y-96662295D01*
X164876188Y-96662295D02*
X164495236Y-96662295D01*
X170895238Y-99086104D02*
X170933334Y-99124200D01*
X170933334Y-99124200D02*
X171047619Y-99162295D01*
X171047619Y-99162295D02*
X171123810Y-99162295D01*
X171123810Y-99162295D02*
X171238096Y-99124200D01*
X171238096Y-99124200D02*
X171314286Y-99048009D01*
X171314286Y-99048009D02*
X171352381Y-98971819D01*
X171352381Y-98971819D02*
X171390477Y-98819438D01*
X171390477Y-98819438D02*
X171390477Y-98705152D01*
X171390477Y-98705152D02*
X171352381Y-98552771D01*
X171352381Y-98552771D02*
X171314286Y-98476580D01*
X171314286Y-98476580D02*
X171238096Y-98400390D01*
X171238096Y-98400390D02*
X171123810Y-98362295D01*
X171123810Y-98362295D02*
X171047619Y-98362295D01*
X171047619Y-98362295D02*
X170933334Y-98400390D01*
X170933334Y-98400390D02*
X170895238Y-98438485D01*
X170209524Y-98362295D02*
X170361905Y-98362295D01*
X170361905Y-98362295D02*
X170438096Y-98400390D01*
X170438096Y-98400390D02*
X170476191Y-98438485D01*
X170476191Y-98438485D02*
X170552381Y-98552771D01*
X170552381Y-98552771D02*
X170590477Y-98705152D01*
X170590477Y-98705152D02*
X170590477Y-99009914D01*
X170590477Y-99009914D02*
X170552381Y-99086104D01*
X170552381Y-99086104D02*
X170514286Y-99124200D01*
X170514286Y-99124200D02*
X170438096Y-99162295D01*
X170438096Y-99162295D02*
X170285715Y-99162295D01*
X170285715Y-99162295D02*
X170209524Y-99124200D01*
X170209524Y-99124200D02*
X170171429Y-99086104D01*
X170171429Y-99086104D02*
X170133334Y-99009914D01*
X170133334Y-99009914D02*
X170133334Y-98819438D01*
X170133334Y-98819438D02*
X170171429Y-98743247D01*
X170171429Y-98743247D02*
X170209524Y-98705152D01*
X170209524Y-98705152D02*
X170285715Y-98667057D01*
X170285715Y-98667057D02*
X170438096Y-98667057D01*
X170438096Y-98667057D02*
X170514286Y-98705152D01*
X170514286Y-98705152D02*
X170552381Y-98743247D01*
X170552381Y-98743247D02*
X170590477Y-98819438D01*
X169638095Y-98362295D02*
X169561905Y-98362295D01*
X169561905Y-98362295D02*
X169485714Y-98400390D01*
X169485714Y-98400390D02*
X169447619Y-98438485D01*
X169447619Y-98438485D02*
X169409524Y-98514676D01*
X169409524Y-98514676D02*
X169371429Y-98667057D01*
X169371429Y-98667057D02*
X169371429Y-98857533D01*
X169371429Y-98857533D02*
X169409524Y-99009914D01*
X169409524Y-99009914D02*
X169447619Y-99086104D01*
X169447619Y-99086104D02*
X169485714Y-99124200D01*
X169485714Y-99124200D02*
X169561905Y-99162295D01*
X169561905Y-99162295D02*
X169638095Y-99162295D01*
X169638095Y-99162295D02*
X169714286Y-99124200D01*
X169714286Y-99124200D02*
X169752381Y-99086104D01*
X169752381Y-99086104D02*
X169790476Y-99009914D01*
X169790476Y-99009914D02*
X169828572Y-98857533D01*
X169828572Y-98857533D02*
X169828572Y-98667057D01*
X169828572Y-98667057D02*
X169790476Y-98514676D01*
X169790476Y-98514676D02*
X169752381Y-98438485D01*
X169752381Y-98438485D02*
X169714286Y-98400390D01*
X169714286Y-98400390D02*
X169638095Y-98362295D01*
X167390476Y-99162295D02*
X167847619Y-99162295D01*
X167619047Y-99162295D02*
X167619047Y-98362295D01*
X167619047Y-98362295D02*
X167695238Y-98476580D01*
X167695238Y-98476580D02*
X167771428Y-98552771D01*
X167771428Y-98552771D02*
X167847619Y-98590866D01*
X166895237Y-98362295D02*
X166819047Y-98362295D01*
X166819047Y-98362295D02*
X166742856Y-98400390D01*
X166742856Y-98400390D02*
X166704761Y-98438485D01*
X166704761Y-98438485D02*
X166666666Y-98514676D01*
X166666666Y-98514676D02*
X166628571Y-98667057D01*
X166628571Y-98667057D02*
X166628571Y-98857533D01*
X166628571Y-98857533D02*
X166666666Y-99009914D01*
X166666666Y-99009914D02*
X166704761Y-99086104D01*
X166704761Y-99086104D02*
X166742856Y-99124200D01*
X166742856Y-99124200D02*
X166819047Y-99162295D01*
X166819047Y-99162295D02*
X166895237Y-99162295D01*
X166895237Y-99162295D02*
X166971428Y-99124200D01*
X166971428Y-99124200D02*
X167009523Y-99086104D01*
X167009523Y-99086104D02*
X167047618Y-99009914D01*
X167047618Y-99009914D02*
X167085714Y-98857533D01*
X167085714Y-98857533D02*
X167085714Y-98667057D01*
X167085714Y-98667057D02*
X167047618Y-98514676D01*
X167047618Y-98514676D02*
X167009523Y-98438485D01*
X167009523Y-98438485D02*
X166971428Y-98400390D01*
X166971428Y-98400390D02*
X166895237Y-98362295D01*
X166285713Y-98628961D02*
X166285713Y-99428961D01*
X166285713Y-98667057D02*
X166209523Y-98628961D01*
X166209523Y-98628961D02*
X166057142Y-98628961D01*
X166057142Y-98628961D02*
X165980951Y-98667057D01*
X165980951Y-98667057D02*
X165942856Y-98705152D01*
X165942856Y-98705152D02*
X165904761Y-98781342D01*
X165904761Y-98781342D02*
X165904761Y-99009914D01*
X165904761Y-99009914D02*
X165942856Y-99086104D01*
X165942856Y-99086104D02*
X165980951Y-99124200D01*
X165980951Y-99124200D02*
X166057142Y-99162295D01*
X166057142Y-99162295D02*
X166209523Y-99162295D01*
X166209523Y-99162295D02*
X166285713Y-99124200D01*
X165295237Y-98743247D02*
X165561903Y-98743247D01*
X165561903Y-99162295D02*
X165561903Y-98362295D01*
X165561903Y-98362295D02*
X165180951Y-98362295D01*
X170895238Y-100786104D02*
X170933334Y-100824200D01*
X170933334Y-100824200D02*
X171047619Y-100862295D01*
X171047619Y-100862295D02*
X171123810Y-100862295D01*
X171123810Y-100862295D02*
X171238096Y-100824200D01*
X171238096Y-100824200D02*
X171314286Y-100748009D01*
X171314286Y-100748009D02*
X171352381Y-100671819D01*
X171352381Y-100671819D02*
X171390477Y-100519438D01*
X171390477Y-100519438D02*
X171390477Y-100405152D01*
X171390477Y-100405152D02*
X171352381Y-100252771D01*
X171352381Y-100252771D02*
X171314286Y-100176580D01*
X171314286Y-100176580D02*
X171238096Y-100100390D01*
X171238096Y-100100390D02*
X171123810Y-100062295D01*
X171123810Y-100062295D02*
X171047619Y-100062295D01*
X171047619Y-100062295D02*
X170933334Y-100100390D01*
X170933334Y-100100390D02*
X170895238Y-100138485D01*
X170209524Y-100062295D02*
X170361905Y-100062295D01*
X170361905Y-100062295D02*
X170438096Y-100100390D01*
X170438096Y-100100390D02*
X170476191Y-100138485D01*
X170476191Y-100138485D02*
X170552381Y-100252771D01*
X170552381Y-100252771D02*
X170590477Y-100405152D01*
X170590477Y-100405152D02*
X170590477Y-100709914D01*
X170590477Y-100709914D02*
X170552381Y-100786104D01*
X170552381Y-100786104D02*
X170514286Y-100824200D01*
X170514286Y-100824200D02*
X170438096Y-100862295D01*
X170438096Y-100862295D02*
X170285715Y-100862295D01*
X170285715Y-100862295D02*
X170209524Y-100824200D01*
X170209524Y-100824200D02*
X170171429Y-100786104D01*
X170171429Y-100786104D02*
X170133334Y-100709914D01*
X170133334Y-100709914D02*
X170133334Y-100519438D01*
X170133334Y-100519438D02*
X170171429Y-100443247D01*
X170171429Y-100443247D02*
X170209524Y-100405152D01*
X170209524Y-100405152D02*
X170285715Y-100367057D01*
X170285715Y-100367057D02*
X170438096Y-100367057D01*
X170438096Y-100367057D02*
X170514286Y-100405152D01*
X170514286Y-100405152D02*
X170552381Y-100443247D01*
X170552381Y-100443247D02*
X170590477Y-100519438D01*
X169371429Y-100862295D02*
X169828572Y-100862295D01*
X169600000Y-100862295D02*
X169600000Y-100062295D01*
X169600000Y-100062295D02*
X169676191Y-100176580D01*
X169676191Y-100176580D02*
X169752381Y-100252771D01*
X169752381Y-100252771D02*
X169828572Y-100290866D01*
X167390476Y-100862295D02*
X167847619Y-100862295D01*
X167619047Y-100862295D02*
X167619047Y-100062295D01*
X167619047Y-100062295D02*
X167695238Y-100176580D01*
X167695238Y-100176580D02*
X167771428Y-100252771D01*
X167771428Y-100252771D02*
X167847619Y-100290866D01*
X166895237Y-100062295D02*
X166819047Y-100062295D01*
X166819047Y-100062295D02*
X166742856Y-100100390D01*
X166742856Y-100100390D02*
X166704761Y-100138485D01*
X166704761Y-100138485D02*
X166666666Y-100214676D01*
X166666666Y-100214676D02*
X166628571Y-100367057D01*
X166628571Y-100367057D02*
X166628571Y-100557533D01*
X166628571Y-100557533D02*
X166666666Y-100709914D01*
X166666666Y-100709914D02*
X166704761Y-100786104D01*
X166704761Y-100786104D02*
X166742856Y-100824200D01*
X166742856Y-100824200D02*
X166819047Y-100862295D01*
X166819047Y-100862295D02*
X166895237Y-100862295D01*
X166895237Y-100862295D02*
X166971428Y-100824200D01*
X166971428Y-100824200D02*
X167009523Y-100786104D01*
X167009523Y-100786104D02*
X167047618Y-100709914D01*
X167047618Y-100709914D02*
X167085714Y-100557533D01*
X167085714Y-100557533D02*
X167085714Y-100367057D01*
X167085714Y-100367057D02*
X167047618Y-100214676D01*
X167047618Y-100214676D02*
X167009523Y-100138485D01*
X167009523Y-100138485D02*
X166971428Y-100100390D01*
X166971428Y-100100390D02*
X166895237Y-100062295D01*
X166285713Y-100328961D02*
X166285713Y-101128961D01*
X166285713Y-100367057D02*
X166209523Y-100328961D01*
X166209523Y-100328961D02*
X166057142Y-100328961D01*
X166057142Y-100328961D02*
X165980951Y-100367057D01*
X165980951Y-100367057D02*
X165942856Y-100405152D01*
X165942856Y-100405152D02*
X165904761Y-100481342D01*
X165904761Y-100481342D02*
X165904761Y-100709914D01*
X165904761Y-100709914D02*
X165942856Y-100786104D01*
X165942856Y-100786104D02*
X165980951Y-100824200D01*
X165980951Y-100824200D02*
X166057142Y-100862295D01*
X166057142Y-100862295D02*
X166209523Y-100862295D01*
X166209523Y-100862295D02*
X166285713Y-100824200D01*
X165295237Y-100443247D02*
X165561903Y-100443247D01*
X165561903Y-100862295D02*
X165561903Y-100062295D01*
X165561903Y-100062295D02*
X165180951Y-100062295D01*
X170780952Y-102486104D02*
X170819048Y-102524200D01*
X170819048Y-102524200D02*
X170933333Y-102562295D01*
X170933333Y-102562295D02*
X171009524Y-102562295D01*
X171009524Y-102562295D02*
X171123810Y-102524200D01*
X171123810Y-102524200D02*
X171200000Y-102448009D01*
X171200000Y-102448009D02*
X171238095Y-102371819D01*
X171238095Y-102371819D02*
X171276191Y-102219438D01*
X171276191Y-102219438D02*
X171276191Y-102105152D01*
X171276191Y-102105152D02*
X171238095Y-101952771D01*
X171238095Y-101952771D02*
X171200000Y-101876580D01*
X171200000Y-101876580D02*
X171123810Y-101800390D01*
X171123810Y-101800390D02*
X171009524Y-101762295D01*
X171009524Y-101762295D02*
X170933333Y-101762295D01*
X170933333Y-101762295D02*
X170819048Y-101800390D01*
X170819048Y-101800390D02*
X170780952Y-101838485D01*
X170095238Y-101762295D02*
X170247619Y-101762295D01*
X170247619Y-101762295D02*
X170323810Y-101800390D01*
X170323810Y-101800390D02*
X170361905Y-101838485D01*
X170361905Y-101838485D02*
X170438095Y-101952771D01*
X170438095Y-101952771D02*
X170476191Y-102105152D01*
X170476191Y-102105152D02*
X170476191Y-102409914D01*
X170476191Y-102409914D02*
X170438095Y-102486104D01*
X170438095Y-102486104D02*
X170400000Y-102524200D01*
X170400000Y-102524200D02*
X170323810Y-102562295D01*
X170323810Y-102562295D02*
X170171429Y-102562295D01*
X170171429Y-102562295D02*
X170095238Y-102524200D01*
X170095238Y-102524200D02*
X170057143Y-102486104D01*
X170057143Y-102486104D02*
X170019048Y-102409914D01*
X170019048Y-102409914D02*
X170019048Y-102219438D01*
X170019048Y-102219438D02*
X170057143Y-102143247D01*
X170057143Y-102143247D02*
X170095238Y-102105152D01*
X170095238Y-102105152D02*
X170171429Y-102067057D01*
X170171429Y-102067057D02*
X170323810Y-102067057D01*
X170323810Y-102067057D02*
X170400000Y-102105152D01*
X170400000Y-102105152D02*
X170438095Y-102143247D01*
X170438095Y-102143247D02*
X170476191Y-102219438D01*
X169714286Y-101838485D02*
X169676190Y-101800390D01*
X169676190Y-101800390D02*
X169600000Y-101762295D01*
X169600000Y-101762295D02*
X169409524Y-101762295D01*
X169409524Y-101762295D02*
X169333333Y-101800390D01*
X169333333Y-101800390D02*
X169295238Y-101838485D01*
X169295238Y-101838485D02*
X169257143Y-101914676D01*
X169257143Y-101914676D02*
X169257143Y-101990866D01*
X169257143Y-101990866D02*
X169295238Y-102105152D01*
X169295238Y-102105152D02*
X169752381Y-102562295D01*
X169752381Y-102562295D02*
X169257143Y-102562295D01*
X167352380Y-101762295D02*
X167504761Y-101762295D01*
X167504761Y-101762295D02*
X167580952Y-101800390D01*
X167580952Y-101800390D02*
X167619047Y-101838485D01*
X167619047Y-101838485D02*
X167695237Y-101952771D01*
X167695237Y-101952771D02*
X167733333Y-102105152D01*
X167733333Y-102105152D02*
X167733333Y-102409914D01*
X167733333Y-102409914D02*
X167695237Y-102486104D01*
X167695237Y-102486104D02*
X167657142Y-102524200D01*
X167657142Y-102524200D02*
X167580952Y-102562295D01*
X167580952Y-102562295D02*
X167428571Y-102562295D01*
X167428571Y-102562295D02*
X167352380Y-102524200D01*
X167352380Y-102524200D02*
X167314285Y-102486104D01*
X167314285Y-102486104D02*
X167276190Y-102409914D01*
X167276190Y-102409914D02*
X167276190Y-102219438D01*
X167276190Y-102219438D02*
X167314285Y-102143247D01*
X167314285Y-102143247D02*
X167352380Y-102105152D01*
X167352380Y-102105152D02*
X167428571Y-102067057D01*
X167428571Y-102067057D02*
X167580952Y-102067057D01*
X167580952Y-102067057D02*
X167657142Y-102105152D01*
X167657142Y-102105152D02*
X167695237Y-102143247D01*
X167695237Y-102143247D02*
X167733333Y-102219438D01*
X166933332Y-102486104D02*
X166895237Y-102524200D01*
X166895237Y-102524200D02*
X166933332Y-102562295D01*
X166933332Y-102562295D02*
X166971428Y-102524200D01*
X166971428Y-102524200D02*
X166933332Y-102486104D01*
X166933332Y-102486104D02*
X166933332Y-102562295D01*
X166438095Y-102105152D02*
X166514285Y-102067057D01*
X166514285Y-102067057D02*
X166552380Y-102028961D01*
X166552380Y-102028961D02*
X166590476Y-101952771D01*
X166590476Y-101952771D02*
X166590476Y-101914676D01*
X166590476Y-101914676D02*
X166552380Y-101838485D01*
X166552380Y-101838485D02*
X166514285Y-101800390D01*
X166514285Y-101800390D02*
X166438095Y-101762295D01*
X166438095Y-101762295D02*
X166285714Y-101762295D01*
X166285714Y-101762295D02*
X166209523Y-101800390D01*
X166209523Y-101800390D02*
X166171428Y-101838485D01*
X166171428Y-101838485D02*
X166133333Y-101914676D01*
X166133333Y-101914676D02*
X166133333Y-101952771D01*
X166133333Y-101952771D02*
X166171428Y-102028961D01*
X166171428Y-102028961D02*
X166209523Y-102067057D01*
X166209523Y-102067057D02*
X166285714Y-102105152D01*
X166285714Y-102105152D02*
X166438095Y-102105152D01*
X166438095Y-102105152D02*
X166514285Y-102143247D01*
X166514285Y-102143247D02*
X166552380Y-102181342D01*
X166552380Y-102181342D02*
X166590476Y-102257533D01*
X166590476Y-102257533D02*
X166590476Y-102409914D01*
X166590476Y-102409914D02*
X166552380Y-102486104D01*
X166552380Y-102486104D02*
X166514285Y-102524200D01*
X166514285Y-102524200D02*
X166438095Y-102562295D01*
X166438095Y-102562295D02*
X166285714Y-102562295D01*
X166285714Y-102562295D02*
X166209523Y-102524200D01*
X166209523Y-102524200D02*
X166171428Y-102486104D01*
X166171428Y-102486104D02*
X166133333Y-102409914D01*
X166133333Y-102409914D02*
X166133333Y-102257533D01*
X166133333Y-102257533D02*
X166171428Y-102181342D01*
X166171428Y-102181342D02*
X166209523Y-102143247D01*
X166209523Y-102143247D02*
X166285714Y-102105152D01*
X165790475Y-102028961D02*
X165790475Y-102828961D01*
X165790475Y-102067057D02*
X165714285Y-102028961D01*
X165714285Y-102028961D02*
X165561904Y-102028961D01*
X165561904Y-102028961D02*
X165485713Y-102067057D01*
X165485713Y-102067057D02*
X165447618Y-102105152D01*
X165447618Y-102105152D02*
X165409523Y-102181342D01*
X165409523Y-102181342D02*
X165409523Y-102409914D01*
X165409523Y-102409914D02*
X165447618Y-102486104D01*
X165447618Y-102486104D02*
X165485713Y-102524200D01*
X165485713Y-102524200D02*
X165561904Y-102562295D01*
X165561904Y-102562295D02*
X165714285Y-102562295D01*
X165714285Y-102562295D02*
X165790475Y-102524200D01*
X164799999Y-102143247D02*
X165066665Y-102143247D01*
X165066665Y-102562295D02*
X165066665Y-101762295D01*
X165066665Y-101762295D02*
X164685713Y-101762295D01*
X170780952Y-104186104D02*
X170819048Y-104224200D01*
X170819048Y-104224200D02*
X170933333Y-104262295D01*
X170933333Y-104262295D02*
X171009524Y-104262295D01*
X171009524Y-104262295D02*
X171123810Y-104224200D01*
X171123810Y-104224200D02*
X171200000Y-104148009D01*
X171200000Y-104148009D02*
X171238095Y-104071819D01*
X171238095Y-104071819D02*
X171276191Y-103919438D01*
X171276191Y-103919438D02*
X171276191Y-103805152D01*
X171276191Y-103805152D02*
X171238095Y-103652771D01*
X171238095Y-103652771D02*
X171200000Y-103576580D01*
X171200000Y-103576580D02*
X171123810Y-103500390D01*
X171123810Y-103500390D02*
X171009524Y-103462295D01*
X171009524Y-103462295D02*
X170933333Y-103462295D01*
X170933333Y-103462295D02*
X170819048Y-103500390D01*
X170819048Y-103500390D02*
X170780952Y-103538485D01*
X170095238Y-103462295D02*
X170247619Y-103462295D01*
X170247619Y-103462295D02*
X170323810Y-103500390D01*
X170323810Y-103500390D02*
X170361905Y-103538485D01*
X170361905Y-103538485D02*
X170438095Y-103652771D01*
X170438095Y-103652771D02*
X170476191Y-103805152D01*
X170476191Y-103805152D02*
X170476191Y-104109914D01*
X170476191Y-104109914D02*
X170438095Y-104186104D01*
X170438095Y-104186104D02*
X170400000Y-104224200D01*
X170400000Y-104224200D02*
X170323810Y-104262295D01*
X170323810Y-104262295D02*
X170171429Y-104262295D01*
X170171429Y-104262295D02*
X170095238Y-104224200D01*
X170095238Y-104224200D02*
X170057143Y-104186104D01*
X170057143Y-104186104D02*
X170019048Y-104109914D01*
X170019048Y-104109914D02*
X170019048Y-103919438D01*
X170019048Y-103919438D02*
X170057143Y-103843247D01*
X170057143Y-103843247D02*
X170095238Y-103805152D01*
X170095238Y-103805152D02*
X170171429Y-103767057D01*
X170171429Y-103767057D02*
X170323810Y-103767057D01*
X170323810Y-103767057D02*
X170400000Y-103805152D01*
X170400000Y-103805152D02*
X170438095Y-103843247D01*
X170438095Y-103843247D02*
X170476191Y-103919438D01*
X169752381Y-103462295D02*
X169257143Y-103462295D01*
X169257143Y-103462295D02*
X169523809Y-103767057D01*
X169523809Y-103767057D02*
X169409524Y-103767057D01*
X169409524Y-103767057D02*
X169333333Y-103805152D01*
X169333333Y-103805152D02*
X169295238Y-103843247D01*
X169295238Y-103843247D02*
X169257143Y-103919438D01*
X169257143Y-103919438D02*
X169257143Y-104109914D01*
X169257143Y-104109914D02*
X169295238Y-104186104D01*
X169295238Y-104186104D02*
X169333333Y-104224200D01*
X169333333Y-104224200D02*
X169409524Y-104262295D01*
X169409524Y-104262295D02*
X169638095Y-104262295D01*
X169638095Y-104262295D02*
X169714286Y-104224200D01*
X169714286Y-104224200D02*
X169752381Y-104186104D01*
X167352380Y-103462295D02*
X167504761Y-103462295D01*
X167504761Y-103462295D02*
X167580952Y-103500390D01*
X167580952Y-103500390D02*
X167619047Y-103538485D01*
X167619047Y-103538485D02*
X167695237Y-103652771D01*
X167695237Y-103652771D02*
X167733333Y-103805152D01*
X167733333Y-103805152D02*
X167733333Y-104109914D01*
X167733333Y-104109914D02*
X167695237Y-104186104D01*
X167695237Y-104186104D02*
X167657142Y-104224200D01*
X167657142Y-104224200D02*
X167580952Y-104262295D01*
X167580952Y-104262295D02*
X167428571Y-104262295D01*
X167428571Y-104262295D02*
X167352380Y-104224200D01*
X167352380Y-104224200D02*
X167314285Y-104186104D01*
X167314285Y-104186104D02*
X167276190Y-104109914D01*
X167276190Y-104109914D02*
X167276190Y-103919438D01*
X167276190Y-103919438D02*
X167314285Y-103843247D01*
X167314285Y-103843247D02*
X167352380Y-103805152D01*
X167352380Y-103805152D02*
X167428571Y-103767057D01*
X167428571Y-103767057D02*
X167580952Y-103767057D01*
X167580952Y-103767057D02*
X167657142Y-103805152D01*
X167657142Y-103805152D02*
X167695237Y-103843247D01*
X167695237Y-103843247D02*
X167733333Y-103919438D01*
X166933332Y-104186104D02*
X166895237Y-104224200D01*
X166895237Y-104224200D02*
X166933332Y-104262295D01*
X166933332Y-104262295D02*
X166971428Y-104224200D01*
X166971428Y-104224200D02*
X166933332Y-104186104D01*
X166933332Y-104186104D02*
X166933332Y-104262295D01*
X166438095Y-103805152D02*
X166514285Y-103767057D01*
X166514285Y-103767057D02*
X166552380Y-103728961D01*
X166552380Y-103728961D02*
X166590476Y-103652771D01*
X166590476Y-103652771D02*
X166590476Y-103614676D01*
X166590476Y-103614676D02*
X166552380Y-103538485D01*
X166552380Y-103538485D02*
X166514285Y-103500390D01*
X166514285Y-103500390D02*
X166438095Y-103462295D01*
X166438095Y-103462295D02*
X166285714Y-103462295D01*
X166285714Y-103462295D02*
X166209523Y-103500390D01*
X166209523Y-103500390D02*
X166171428Y-103538485D01*
X166171428Y-103538485D02*
X166133333Y-103614676D01*
X166133333Y-103614676D02*
X166133333Y-103652771D01*
X166133333Y-103652771D02*
X166171428Y-103728961D01*
X166171428Y-103728961D02*
X166209523Y-103767057D01*
X166209523Y-103767057D02*
X166285714Y-103805152D01*
X166285714Y-103805152D02*
X166438095Y-103805152D01*
X166438095Y-103805152D02*
X166514285Y-103843247D01*
X166514285Y-103843247D02*
X166552380Y-103881342D01*
X166552380Y-103881342D02*
X166590476Y-103957533D01*
X166590476Y-103957533D02*
X166590476Y-104109914D01*
X166590476Y-104109914D02*
X166552380Y-104186104D01*
X166552380Y-104186104D02*
X166514285Y-104224200D01*
X166514285Y-104224200D02*
X166438095Y-104262295D01*
X166438095Y-104262295D02*
X166285714Y-104262295D01*
X166285714Y-104262295D02*
X166209523Y-104224200D01*
X166209523Y-104224200D02*
X166171428Y-104186104D01*
X166171428Y-104186104D02*
X166133333Y-104109914D01*
X166133333Y-104109914D02*
X166133333Y-103957533D01*
X166133333Y-103957533D02*
X166171428Y-103881342D01*
X166171428Y-103881342D02*
X166209523Y-103843247D01*
X166209523Y-103843247D02*
X166285714Y-103805152D01*
X165790475Y-103728961D02*
X165790475Y-104528961D01*
X165790475Y-103767057D02*
X165714285Y-103728961D01*
X165714285Y-103728961D02*
X165561904Y-103728961D01*
X165561904Y-103728961D02*
X165485713Y-103767057D01*
X165485713Y-103767057D02*
X165447618Y-103805152D01*
X165447618Y-103805152D02*
X165409523Y-103881342D01*
X165409523Y-103881342D02*
X165409523Y-104109914D01*
X165409523Y-104109914D02*
X165447618Y-104186104D01*
X165447618Y-104186104D02*
X165485713Y-104224200D01*
X165485713Y-104224200D02*
X165561904Y-104262295D01*
X165561904Y-104262295D02*
X165714285Y-104262295D01*
X165714285Y-104262295D02*
X165790475Y-104224200D01*
X164799999Y-103843247D02*
X165066665Y-103843247D01*
X165066665Y-104262295D02*
X165066665Y-103462295D01*
X165066665Y-103462295D02*
X164685713Y-103462295D01*
X170971428Y-105886104D02*
X171009524Y-105924200D01*
X171009524Y-105924200D02*
X171123809Y-105962295D01*
X171123809Y-105962295D02*
X171200000Y-105962295D01*
X171200000Y-105962295D02*
X171314286Y-105924200D01*
X171314286Y-105924200D02*
X171390476Y-105848009D01*
X171390476Y-105848009D02*
X171428571Y-105771819D01*
X171428571Y-105771819D02*
X171466667Y-105619438D01*
X171466667Y-105619438D02*
X171466667Y-105505152D01*
X171466667Y-105505152D02*
X171428571Y-105352771D01*
X171428571Y-105352771D02*
X171390476Y-105276580D01*
X171390476Y-105276580D02*
X171314286Y-105200390D01*
X171314286Y-105200390D02*
X171200000Y-105162295D01*
X171200000Y-105162295D02*
X171123809Y-105162295D01*
X171123809Y-105162295D02*
X171009524Y-105200390D01*
X171009524Y-105200390D02*
X170971428Y-105238485D01*
X170704762Y-105162295D02*
X170171428Y-105162295D01*
X170171428Y-105162295D02*
X170514286Y-105962295D01*
X169714285Y-105162295D02*
X169638095Y-105162295D01*
X169638095Y-105162295D02*
X169561904Y-105200390D01*
X169561904Y-105200390D02*
X169523809Y-105238485D01*
X169523809Y-105238485D02*
X169485714Y-105314676D01*
X169485714Y-105314676D02*
X169447619Y-105467057D01*
X169447619Y-105467057D02*
X169447619Y-105657533D01*
X169447619Y-105657533D02*
X169485714Y-105809914D01*
X169485714Y-105809914D02*
X169523809Y-105886104D01*
X169523809Y-105886104D02*
X169561904Y-105924200D01*
X169561904Y-105924200D02*
X169638095Y-105962295D01*
X169638095Y-105962295D02*
X169714285Y-105962295D01*
X169714285Y-105962295D02*
X169790476Y-105924200D01*
X169790476Y-105924200D02*
X169828571Y-105886104D01*
X169828571Y-105886104D02*
X169866666Y-105809914D01*
X169866666Y-105809914D02*
X169904762Y-105657533D01*
X169904762Y-105657533D02*
X169904762Y-105467057D01*
X169904762Y-105467057D02*
X169866666Y-105314676D01*
X169866666Y-105314676D02*
X169828571Y-105238485D01*
X169828571Y-105238485D02*
X169790476Y-105200390D01*
X169790476Y-105200390D02*
X169714285Y-105162295D01*
X167466666Y-105962295D02*
X167923809Y-105962295D01*
X167695237Y-105962295D02*
X167695237Y-105162295D01*
X167695237Y-105162295D02*
X167771428Y-105276580D01*
X167771428Y-105276580D02*
X167847618Y-105352771D01*
X167847618Y-105352771D02*
X167923809Y-105390866D01*
X166971427Y-105162295D02*
X166895237Y-105162295D01*
X166895237Y-105162295D02*
X166819046Y-105200390D01*
X166819046Y-105200390D02*
X166780951Y-105238485D01*
X166780951Y-105238485D02*
X166742856Y-105314676D01*
X166742856Y-105314676D02*
X166704761Y-105467057D01*
X166704761Y-105467057D02*
X166704761Y-105657533D01*
X166704761Y-105657533D02*
X166742856Y-105809914D01*
X166742856Y-105809914D02*
X166780951Y-105886104D01*
X166780951Y-105886104D02*
X166819046Y-105924200D01*
X166819046Y-105924200D02*
X166895237Y-105962295D01*
X166895237Y-105962295D02*
X166971427Y-105962295D01*
X166971427Y-105962295D02*
X167047618Y-105924200D01*
X167047618Y-105924200D02*
X167085713Y-105886104D01*
X167085713Y-105886104D02*
X167123808Y-105809914D01*
X167123808Y-105809914D02*
X167161904Y-105657533D01*
X167161904Y-105657533D02*
X167161904Y-105467057D01*
X167161904Y-105467057D02*
X167123808Y-105314676D01*
X167123808Y-105314676D02*
X167085713Y-105238485D01*
X167085713Y-105238485D02*
X167047618Y-105200390D01*
X167047618Y-105200390D02*
X166971427Y-105162295D01*
X166209522Y-105162295D02*
X166133332Y-105162295D01*
X166133332Y-105162295D02*
X166057141Y-105200390D01*
X166057141Y-105200390D02*
X166019046Y-105238485D01*
X166019046Y-105238485D02*
X165980951Y-105314676D01*
X165980951Y-105314676D02*
X165942856Y-105467057D01*
X165942856Y-105467057D02*
X165942856Y-105657533D01*
X165942856Y-105657533D02*
X165980951Y-105809914D01*
X165980951Y-105809914D02*
X166019046Y-105886104D01*
X166019046Y-105886104D02*
X166057141Y-105924200D01*
X166057141Y-105924200D02*
X166133332Y-105962295D01*
X166133332Y-105962295D02*
X166209522Y-105962295D01*
X166209522Y-105962295D02*
X166285713Y-105924200D01*
X166285713Y-105924200D02*
X166323808Y-105886104D01*
X166323808Y-105886104D02*
X166361903Y-105809914D01*
X166361903Y-105809914D02*
X166399999Y-105657533D01*
X166399999Y-105657533D02*
X166399999Y-105467057D01*
X166399999Y-105467057D02*
X166361903Y-105314676D01*
X166361903Y-105314676D02*
X166323808Y-105238485D01*
X166323808Y-105238485D02*
X166285713Y-105200390D01*
X166285713Y-105200390D02*
X166209522Y-105162295D01*
X165599998Y-105428961D02*
X165599998Y-105962295D01*
X165599998Y-105505152D02*
X165561903Y-105467057D01*
X165561903Y-105467057D02*
X165485713Y-105428961D01*
X165485713Y-105428961D02*
X165371427Y-105428961D01*
X165371427Y-105428961D02*
X165295236Y-105467057D01*
X165295236Y-105467057D02*
X165257141Y-105543247D01*
X165257141Y-105543247D02*
X165257141Y-105962295D01*
X164609522Y-105543247D02*
X164876188Y-105543247D01*
X164876188Y-105962295D02*
X164876188Y-105162295D01*
X164876188Y-105162295D02*
X164495236Y-105162295D01*
X170819047Y-107586104D02*
X170857143Y-107624200D01*
X170857143Y-107624200D02*
X170971428Y-107662295D01*
X170971428Y-107662295D02*
X171047619Y-107662295D01*
X171047619Y-107662295D02*
X171161905Y-107624200D01*
X171161905Y-107624200D02*
X171238095Y-107548009D01*
X171238095Y-107548009D02*
X171276190Y-107471819D01*
X171276190Y-107471819D02*
X171314286Y-107319438D01*
X171314286Y-107319438D02*
X171314286Y-107205152D01*
X171314286Y-107205152D02*
X171276190Y-107052771D01*
X171276190Y-107052771D02*
X171238095Y-106976580D01*
X171238095Y-106976580D02*
X171161905Y-106900390D01*
X171161905Y-106900390D02*
X171047619Y-106862295D01*
X171047619Y-106862295D02*
X170971428Y-106862295D01*
X170971428Y-106862295D02*
X170857143Y-106900390D01*
X170857143Y-106900390D02*
X170819047Y-106938485D01*
X170552381Y-106862295D02*
X170019047Y-106862295D01*
X170019047Y-106862295D02*
X170361905Y-107662295D01*
X169295238Y-107662295D02*
X169752381Y-107662295D01*
X169523809Y-107662295D02*
X169523809Y-106862295D01*
X169523809Y-106862295D02*
X169600000Y-106976580D01*
X169600000Y-106976580D02*
X169676190Y-107052771D01*
X169676190Y-107052771D02*
X169752381Y-107090866D01*
X167314285Y-107662295D02*
X167771428Y-107662295D01*
X167542856Y-107662295D02*
X167542856Y-106862295D01*
X167542856Y-106862295D02*
X167619047Y-106976580D01*
X167619047Y-106976580D02*
X167695237Y-107052771D01*
X167695237Y-107052771D02*
X167771428Y-107090866D01*
X166628570Y-107128961D02*
X166628570Y-107662295D01*
X166971427Y-107128961D02*
X166971427Y-107548009D01*
X166971427Y-107548009D02*
X166933332Y-107624200D01*
X166933332Y-107624200D02*
X166857142Y-107662295D01*
X166857142Y-107662295D02*
X166742856Y-107662295D01*
X166742856Y-107662295D02*
X166666665Y-107624200D01*
X166666665Y-107624200D02*
X166628570Y-107586104D01*
X165980951Y-107243247D02*
X166247617Y-107243247D01*
X166247617Y-107662295D02*
X166247617Y-106862295D01*
X166247617Y-106862295D02*
X165866665Y-106862295D01*
X170780952Y-109286104D02*
X170819048Y-109324200D01*
X170819048Y-109324200D02*
X170933333Y-109362295D01*
X170933333Y-109362295D02*
X171009524Y-109362295D01*
X171009524Y-109362295D02*
X171123810Y-109324200D01*
X171123810Y-109324200D02*
X171200000Y-109248009D01*
X171200000Y-109248009D02*
X171238095Y-109171819D01*
X171238095Y-109171819D02*
X171276191Y-109019438D01*
X171276191Y-109019438D02*
X171276191Y-108905152D01*
X171276191Y-108905152D02*
X171238095Y-108752771D01*
X171238095Y-108752771D02*
X171200000Y-108676580D01*
X171200000Y-108676580D02*
X171123810Y-108600390D01*
X171123810Y-108600390D02*
X171009524Y-108562295D01*
X171009524Y-108562295D02*
X170933333Y-108562295D01*
X170933333Y-108562295D02*
X170819048Y-108600390D01*
X170819048Y-108600390D02*
X170780952Y-108638485D01*
X170514286Y-108562295D02*
X169980952Y-108562295D01*
X169980952Y-108562295D02*
X170323810Y-109362295D01*
X169714286Y-108638485D02*
X169676190Y-108600390D01*
X169676190Y-108600390D02*
X169600000Y-108562295D01*
X169600000Y-108562295D02*
X169409524Y-108562295D01*
X169409524Y-108562295D02*
X169333333Y-108600390D01*
X169333333Y-108600390D02*
X169295238Y-108638485D01*
X169295238Y-108638485D02*
X169257143Y-108714676D01*
X169257143Y-108714676D02*
X169257143Y-108790866D01*
X169257143Y-108790866D02*
X169295238Y-108905152D01*
X169295238Y-108905152D02*
X169752381Y-109362295D01*
X169752381Y-109362295D02*
X169257143Y-109362295D01*
X167733333Y-108638485D02*
X167695237Y-108600390D01*
X167695237Y-108600390D02*
X167619047Y-108562295D01*
X167619047Y-108562295D02*
X167428571Y-108562295D01*
X167428571Y-108562295D02*
X167352380Y-108600390D01*
X167352380Y-108600390D02*
X167314285Y-108638485D01*
X167314285Y-108638485D02*
X167276190Y-108714676D01*
X167276190Y-108714676D02*
X167276190Y-108790866D01*
X167276190Y-108790866D02*
X167314285Y-108905152D01*
X167314285Y-108905152D02*
X167771428Y-109362295D01*
X167771428Y-109362295D02*
X167276190Y-109362295D01*
X166933332Y-109286104D02*
X166895237Y-109324200D01*
X166895237Y-109324200D02*
X166933332Y-109362295D01*
X166933332Y-109362295D02*
X166971428Y-109324200D01*
X166971428Y-109324200D02*
X166933332Y-109286104D01*
X166933332Y-109286104D02*
X166933332Y-109362295D01*
X166590476Y-108638485D02*
X166552380Y-108600390D01*
X166552380Y-108600390D02*
X166476190Y-108562295D01*
X166476190Y-108562295D02*
X166285714Y-108562295D01*
X166285714Y-108562295D02*
X166209523Y-108600390D01*
X166209523Y-108600390D02*
X166171428Y-108638485D01*
X166171428Y-108638485D02*
X166133333Y-108714676D01*
X166133333Y-108714676D02*
X166133333Y-108790866D01*
X166133333Y-108790866D02*
X166171428Y-108905152D01*
X166171428Y-108905152D02*
X166628571Y-109362295D01*
X166628571Y-109362295D02*
X166133333Y-109362295D01*
X165447618Y-108828961D02*
X165447618Y-109362295D01*
X165790475Y-108828961D02*
X165790475Y-109248009D01*
X165790475Y-109248009D02*
X165752380Y-109324200D01*
X165752380Y-109324200D02*
X165676190Y-109362295D01*
X165676190Y-109362295D02*
X165561904Y-109362295D01*
X165561904Y-109362295D02*
X165485713Y-109324200D01*
X165485713Y-109324200D02*
X165447618Y-109286104D01*
X164799999Y-108943247D02*
X165066665Y-108943247D01*
X165066665Y-109362295D02*
X165066665Y-108562295D01*
X165066665Y-108562295D02*
X164685713Y-108562295D01*
X170780952Y-110986103D02*
X170819048Y-111024199D01*
X170819048Y-111024199D02*
X170933333Y-111062294D01*
X170933333Y-111062294D02*
X171009524Y-111062294D01*
X171009524Y-111062294D02*
X171123810Y-111024199D01*
X171123810Y-111024199D02*
X171200000Y-110948008D01*
X171200000Y-110948008D02*
X171238095Y-110871818D01*
X171238095Y-110871818D02*
X171276191Y-110719437D01*
X171276191Y-110719437D02*
X171276191Y-110605151D01*
X171276191Y-110605151D02*
X171238095Y-110452770D01*
X171238095Y-110452770D02*
X171200000Y-110376579D01*
X171200000Y-110376579D02*
X171123810Y-110300389D01*
X171123810Y-110300389D02*
X171009524Y-110262294D01*
X171009524Y-110262294D02*
X170933333Y-110262294D01*
X170933333Y-110262294D02*
X170819048Y-110300389D01*
X170819048Y-110300389D02*
X170780952Y-110338484D01*
X170514286Y-110262294D02*
X169980952Y-110262294D01*
X169980952Y-110262294D02*
X170323810Y-111062294D01*
X169752381Y-110262294D02*
X169257143Y-110262294D01*
X169257143Y-110262294D02*
X169523809Y-110567056D01*
X169523809Y-110567056D02*
X169409524Y-110567056D01*
X169409524Y-110567056D02*
X169333333Y-110605151D01*
X169333333Y-110605151D02*
X169295238Y-110643246D01*
X169295238Y-110643246D02*
X169257143Y-110719437D01*
X169257143Y-110719437D02*
X169257143Y-110909913D01*
X169257143Y-110909913D02*
X169295238Y-110986103D01*
X169295238Y-110986103D02*
X169333333Y-111024199D01*
X169333333Y-111024199D02*
X169409524Y-111062294D01*
X169409524Y-111062294D02*
X169638095Y-111062294D01*
X169638095Y-111062294D02*
X169714286Y-111024199D01*
X169714286Y-111024199D02*
X169752381Y-110986103D01*
X167733333Y-110338484D02*
X167695237Y-110300389D01*
X167695237Y-110300389D02*
X167619047Y-110262294D01*
X167619047Y-110262294D02*
X167428571Y-110262294D01*
X167428571Y-110262294D02*
X167352380Y-110300389D01*
X167352380Y-110300389D02*
X167314285Y-110338484D01*
X167314285Y-110338484D02*
X167276190Y-110414675D01*
X167276190Y-110414675D02*
X167276190Y-110490865D01*
X167276190Y-110490865D02*
X167314285Y-110605151D01*
X167314285Y-110605151D02*
X167771428Y-111062294D01*
X167771428Y-111062294D02*
X167276190Y-111062294D01*
X166933332Y-110986103D02*
X166895237Y-111024199D01*
X166895237Y-111024199D02*
X166933332Y-111062294D01*
X166933332Y-111062294D02*
X166971428Y-111024199D01*
X166971428Y-111024199D02*
X166933332Y-110986103D01*
X166933332Y-110986103D02*
X166933332Y-111062294D01*
X166590476Y-110338484D02*
X166552380Y-110300389D01*
X166552380Y-110300389D02*
X166476190Y-110262294D01*
X166476190Y-110262294D02*
X166285714Y-110262294D01*
X166285714Y-110262294D02*
X166209523Y-110300389D01*
X166209523Y-110300389D02*
X166171428Y-110338484D01*
X166171428Y-110338484D02*
X166133333Y-110414675D01*
X166133333Y-110414675D02*
X166133333Y-110490865D01*
X166133333Y-110490865D02*
X166171428Y-110605151D01*
X166171428Y-110605151D02*
X166628571Y-111062294D01*
X166628571Y-111062294D02*
X166133333Y-111062294D01*
X165447618Y-110528960D02*
X165447618Y-111062294D01*
X165790475Y-110528960D02*
X165790475Y-110948008D01*
X165790475Y-110948008D02*
X165752380Y-111024199D01*
X165752380Y-111024199D02*
X165676190Y-111062294D01*
X165676190Y-111062294D02*
X165561904Y-111062294D01*
X165561904Y-111062294D02*
X165485713Y-111024199D01*
X165485713Y-111024199D02*
X165447618Y-110986103D01*
X164799999Y-110643246D02*
X165066665Y-110643246D01*
X165066665Y-111062294D02*
X165066665Y-110262294D01*
X165066665Y-110262294D02*
X164685713Y-110262294D01*
X170971428Y-112686104D02*
X171009524Y-112724200D01*
X171009524Y-112724200D02*
X171123809Y-112762295D01*
X171123809Y-112762295D02*
X171200000Y-112762295D01*
X171200000Y-112762295D02*
X171314286Y-112724200D01*
X171314286Y-112724200D02*
X171390476Y-112648009D01*
X171390476Y-112648009D02*
X171428571Y-112571819D01*
X171428571Y-112571819D02*
X171466667Y-112419438D01*
X171466667Y-112419438D02*
X171466667Y-112305152D01*
X171466667Y-112305152D02*
X171428571Y-112152771D01*
X171428571Y-112152771D02*
X171390476Y-112076580D01*
X171390476Y-112076580D02*
X171314286Y-112000390D01*
X171314286Y-112000390D02*
X171200000Y-111962295D01*
X171200000Y-111962295D02*
X171123809Y-111962295D01*
X171123809Y-111962295D02*
X171009524Y-112000390D01*
X171009524Y-112000390D02*
X170971428Y-112038485D01*
X170704762Y-111962295D02*
X170171428Y-111962295D01*
X170171428Y-111962295D02*
X170514286Y-112762295D01*
X169523809Y-112228961D02*
X169523809Y-112762295D01*
X169714285Y-111924200D02*
X169904762Y-112495628D01*
X169904762Y-112495628D02*
X169409523Y-112495628D01*
X167466666Y-112762295D02*
X167923809Y-112762295D01*
X167695237Y-112762295D02*
X167695237Y-111962295D01*
X167695237Y-111962295D02*
X167771428Y-112076580D01*
X167771428Y-112076580D02*
X167847618Y-112152771D01*
X167847618Y-112152771D02*
X167923809Y-112190866D01*
X166971427Y-111962295D02*
X166895237Y-111962295D01*
X166895237Y-111962295D02*
X166819046Y-112000390D01*
X166819046Y-112000390D02*
X166780951Y-112038485D01*
X166780951Y-112038485D02*
X166742856Y-112114676D01*
X166742856Y-112114676D02*
X166704761Y-112267057D01*
X166704761Y-112267057D02*
X166704761Y-112457533D01*
X166704761Y-112457533D02*
X166742856Y-112609914D01*
X166742856Y-112609914D02*
X166780951Y-112686104D01*
X166780951Y-112686104D02*
X166819046Y-112724200D01*
X166819046Y-112724200D02*
X166895237Y-112762295D01*
X166895237Y-112762295D02*
X166971427Y-112762295D01*
X166971427Y-112762295D02*
X167047618Y-112724200D01*
X167047618Y-112724200D02*
X167085713Y-112686104D01*
X167085713Y-112686104D02*
X167123808Y-112609914D01*
X167123808Y-112609914D02*
X167161904Y-112457533D01*
X167161904Y-112457533D02*
X167161904Y-112267057D01*
X167161904Y-112267057D02*
X167123808Y-112114676D01*
X167123808Y-112114676D02*
X167085713Y-112038485D01*
X167085713Y-112038485D02*
X167047618Y-112000390D01*
X167047618Y-112000390D02*
X166971427Y-111962295D01*
X166209522Y-111962295D02*
X166133332Y-111962295D01*
X166133332Y-111962295D02*
X166057141Y-112000390D01*
X166057141Y-112000390D02*
X166019046Y-112038485D01*
X166019046Y-112038485D02*
X165980951Y-112114676D01*
X165980951Y-112114676D02*
X165942856Y-112267057D01*
X165942856Y-112267057D02*
X165942856Y-112457533D01*
X165942856Y-112457533D02*
X165980951Y-112609914D01*
X165980951Y-112609914D02*
X166019046Y-112686104D01*
X166019046Y-112686104D02*
X166057141Y-112724200D01*
X166057141Y-112724200D02*
X166133332Y-112762295D01*
X166133332Y-112762295D02*
X166209522Y-112762295D01*
X166209522Y-112762295D02*
X166285713Y-112724200D01*
X166285713Y-112724200D02*
X166323808Y-112686104D01*
X166323808Y-112686104D02*
X166361903Y-112609914D01*
X166361903Y-112609914D02*
X166399999Y-112457533D01*
X166399999Y-112457533D02*
X166399999Y-112267057D01*
X166399999Y-112267057D02*
X166361903Y-112114676D01*
X166361903Y-112114676D02*
X166323808Y-112038485D01*
X166323808Y-112038485D02*
X166285713Y-112000390D01*
X166285713Y-112000390D02*
X166209522Y-111962295D01*
X165599998Y-112228961D02*
X165599998Y-112762295D01*
X165599998Y-112305152D02*
X165561903Y-112267057D01*
X165561903Y-112267057D02*
X165485713Y-112228961D01*
X165485713Y-112228961D02*
X165371427Y-112228961D01*
X165371427Y-112228961D02*
X165295236Y-112267057D01*
X165295236Y-112267057D02*
X165257141Y-112343247D01*
X165257141Y-112343247D02*
X165257141Y-112762295D01*
X164609522Y-112343247D02*
X164876188Y-112343247D01*
X164876188Y-112762295D02*
X164876188Y-111962295D01*
X164876188Y-111962295D02*
X164495236Y-111962295D01*
X170780952Y-114386104D02*
X170819048Y-114424200D01*
X170819048Y-114424200D02*
X170933333Y-114462295D01*
X170933333Y-114462295D02*
X171009524Y-114462295D01*
X171009524Y-114462295D02*
X171123810Y-114424200D01*
X171123810Y-114424200D02*
X171200000Y-114348009D01*
X171200000Y-114348009D02*
X171238095Y-114271819D01*
X171238095Y-114271819D02*
X171276191Y-114119438D01*
X171276191Y-114119438D02*
X171276191Y-114005152D01*
X171276191Y-114005152D02*
X171238095Y-113852771D01*
X171238095Y-113852771D02*
X171200000Y-113776580D01*
X171200000Y-113776580D02*
X171123810Y-113700390D01*
X171123810Y-113700390D02*
X171009524Y-113662295D01*
X171009524Y-113662295D02*
X170933333Y-113662295D01*
X170933333Y-113662295D02*
X170819048Y-113700390D01*
X170819048Y-113700390D02*
X170780952Y-113738485D01*
X170514286Y-113662295D02*
X169980952Y-113662295D01*
X169980952Y-113662295D02*
X170323810Y-114462295D01*
X169295238Y-113662295D02*
X169676190Y-113662295D01*
X169676190Y-113662295D02*
X169714286Y-114043247D01*
X169714286Y-114043247D02*
X169676190Y-114005152D01*
X169676190Y-114005152D02*
X169600000Y-113967057D01*
X169600000Y-113967057D02*
X169409524Y-113967057D01*
X169409524Y-113967057D02*
X169333333Y-114005152D01*
X169333333Y-114005152D02*
X169295238Y-114043247D01*
X169295238Y-114043247D02*
X169257143Y-114119438D01*
X169257143Y-114119438D02*
X169257143Y-114309914D01*
X169257143Y-114309914D02*
X169295238Y-114386104D01*
X169295238Y-114386104D02*
X169333333Y-114424200D01*
X169333333Y-114424200D02*
X169409524Y-114462295D01*
X169409524Y-114462295D02*
X169600000Y-114462295D01*
X169600000Y-114462295D02*
X169676190Y-114424200D01*
X169676190Y-114424200D02*
X169714286Y-114386104D01*
X167352380Y-113928961D02*
X167352380Y-114462295D01*
X167542856Y-113624200D02*
X167733333Y-114195628D01*
X167733333Y-114195628D02*
X167238094Y-114195628D01*
X166933332Y-114386104D02*
X166895237Y-114424200D01*
X166895237Y-114424200D02*
X166933332Y-114462295D01*
X166933332Y-114462295D02*
X166971428Y-114424200D01*
X166971428Y-114424200D02*
X166933332Y-114386104D01*
X166933332Y-114386104D02*
X166933332Y-114462295D01*
X166628571Y-113662295D02*
X166095237Y-113662295D01*
X166095237Y-113662295D02*
X166438095Y-114462295D01*
X165447618Y-113928961D02*
X165447618Y-114462295D01*
X165790475Y-113928961D02*
X165790475Y-114348009D01*
X165790475Y-114348009D02*
X165752380Y-114424200D01*
X165752380Y-114424200D02*
X165676190Y-114462295D01*
X165676190Y-114462295D02*
X165561904Y-114462295D01*
X165561904Y-114462295D02*
X165485713Y-114424200D01*
X165485713Y-114424200D02*
X165447618Y-114386104D01*
X164799999Y-114043247D02*
X165066665Y-114043247D01*
X165066665Y-114462295D02*
X165066665Y-113662295D01*
X165066665Y-113662295D02*
X164685713Y-113662295D01*
X170780952Y-116086104D02*
X170819048Y-116124200D01*
X170819048Y-116124200D02*
X170933333Y-116162295D01*
X170933333Y-116162295D02*
X171009524Y-116162295D01*
X171009524Y-116162295D02*
X171123810Y-116124200D01*
X171123810Y-116124200D02*
X171200000Y-116048009D01*
X171200000Y-116048009D02*
X171238095Y-115971819D01*
X171238095Y-115971819D02*
X171276191Y-115819438D01*
X171276191Y-115819438D02*
X171276191Y-115705152D01*
X171276191Y-115705152D02*
X171238095Y-115552771D01*
X171238095Y-115552771D02*
X171200000Y-115476580D01*
X171200000Y-115476580D02*
X171123810Y-115400390D01*
X171123810Y-115400390D02*
X171009524Y-115362295D01*
X171009524Y-115362295D02*
X170933333Y-115362295D01*
X170933333Y-115362295D02*
X170819048Y-115400390D01*
X170819048Y-115400390D02*
X170780952Y-115438485D01*
X170514286Y-115362295D02*
X169980952Y-115362295D01*
X169980952Y-115362295D02*
X170323810Y-116162295D01*
X169333333Y-115362295D02*
X169485714Y-115362295D01*
X169485714Y-115362295D02*
X169561905Y-115400390D01*
X169561905Y-115400390D02*
X169600000Y-115438485D01*
X169600000Y-115438485D02*
X169676190Y-115552771D01*
X169676190Y-115552771D02*
X169714286Y-115705152D01*
X169714286Y-115705152D02*
X169714286Y-116009914D01*
X169714286Y-116009914D02*
X169676190Y-116086104D01*
X169676190Y-116086104D02*
X169638095Y-116124200D01*
X169638095Y-116124200D02*
X169561905Y-116162295D01*
X169561905Y-116162295D02*
X169409524Y-116162295D01*
X169409524Y-116162295D02*
X169333333Y-116124200D01*
X169333333Y-116124200D02*
X169295238Y-116086104D01*
X169295238Y-116086104D02*
X169257143Y-116009914D01*
X169257143Y-116009914D02*
X169257143Y-115819438D01*
X169257143Y-115819438D02*
X169295238Y-115743247D01*
X169295238Y-115743247D02*
X169333333Y-115705152D01*
X169333333Y-115705152D02*
X169409524Y-115667057D01*
X169409524Y-115667057D02*
X169561905Y-115667057D01*
X169561905Y-115667057D02*
X169638095Y-115705152D01*
X169638095Y-115705152D02*
X169676190Y-115743247D01*
X169676190Y-115743247D02*
X169714286Y-115819438D01*
X167352380Y-115628961D02*
X167352380Y-116162295D01*
X167542856Y-115324200D02*
X167733333Y-115895628D01*
X167733333Y-115895628D02*
X167238094Y-115895628D01*
X166933332Y-116086104D02*
X166895237Y-116124200D01*
X166895237Y-116124200D02*
X166933332Y-116162295D01*
X166933332Y-116162295D02*
X166971428Y-116124200D01*
X166971428Y-116124200D02*
X166933332Y-116086104D01*
X166933332Y-116086104D02*
X166933332Y-116162295D01*
X166628571Y-115362295D02*
X166095237Y-115362295D01*
X166095237Y-115362295D02*
X166438095Y-116162295D01*
X165447618Y-115628961D02*
X165447618Y-116162295D01*
X165790475Y-115628961D02*
X165790475Y-116048009D01*
X165790475Y-116048009D02*
X165752380Y-116124200D01*
X165752380Y-116124200D02*
X165676190Y-116162295D01*
X165676190Y-116162295D02*
X165561904Y-116162295D01*
X165561904Y-116162295D02*
X165485713Y-116124200D01*
X165485713Y-116124200D02*
X165447618Y-116086104D01*
X164799999Y-115743247D02*
X165066665Y-115743247D01*
X165066665Y-116162295D02*
X165066665Y-115362295D01*
X165066665Y-115362295D02*
X164685713Y-115362295D01*
X170971428Y-117786104D02*
X171009524Y-117824200D01*
X171009524Y-117824200D02*
X171123809Y-117862295D01*
X171123809Y-117862295D02*
X171200000Y-117862295D01*
X171200000Y-117862295D02*
X171314286Y-117824200D01*
X171314286Y-117824200D02*
X171390476Y-117748009D01*
X171390476Y-117748009D02*
X171428571Y-117671819D01*
X171428571Y-117671819D02*
X171466667Y-117519438D01*
X171466667Y-117519438D02*
X171466667Y-117405152D01*
X171466667Y-117405152D02*
X171428571Y-117252771D01*
X171428571Y-117252771D02*
X171390476Y-117176580D01*
X171390476Y-117176580D02*
X171314286Y-117100390D01*
X171314286Y-117100390D02*
X171200000Y-117062295D01*
X171200000Y-117062295D02*
X171123809Y-117062295D01*
X171123809Y-117062295D02*
X171009524Y-117100390D01*
X171009524Y-117100390D02*
X170971428Y-117138485D01*
X170704762Y-117062295D02*
X170171428Y-117062295D01*
X170171428Y-117062295D02*
X170514286Y-117862295D01*
X169942857Y-117062295D02*
X169409523Y-117062295D01*
X169409523Y-117062295D02*
X169752381Y-117862295D01*
X167466666Y-117862295D02*
X167923809Y-117862295D01*
X167695237Y-117862295D02*
X167695237Y-117062295D01*
X167695237Y-117062295D02*
X167771428Y-117176580D01*
X167771428Y-117176580D02*
X167847618Y-117252771D01*
X167847618Y-117252771D02*
X167923809Y-117290866D01*
X166971427Y-117062295D02*
X166895237Y-117062295D01*
X166895237Y-117062295D02*
X166819046Y-117100390D01*
X166819046Y-117100390D02*
X166780951Y-117138485D01*
X166780951Y-117138485D02*
X166742856Y-117214676D01*
X166742856Y-117214676D02*
X166704761Y-117367057D01*
X166704761Y-117367057D02*
X166704761Y-117557533D01*
X166704761Y-117557533D02*
X166742856Y-117709914D01*
X166742856Y-117709914D02*
X166780951Y-117786104D01*
X166780951Y-117786104D02*
X166819046Y-117824200D01*
X166819046Y-117824200D02*
X166895237Y-117862295D01*
X166895237Y-117862295D02*
X166971427Y-117862295D01*
X166971427Y-117862295D02*
X167047618Y-117824200D01*
X167047618Y-117824200D02*
X167085713Y-117786104D01*
X167085713Y-117786104D02*
X167123808Y-117709914D01*
X167123808Y-117709914D02*
X167161904Y-117557533D01*
X167161904Y-117557533D02*
X167161904Y-117367057D01*
X167161904Y-117367057D02*
X167123808Y-117214676D01*
X167123808Y-117214676D02*
X167085713Y-117138485D01*
X167085713Y-117138485D02*
X167047618Y-117100390D01*
X167047618Y-117100390D02*
X166971427Y-117062295D01*
X166209522Y-117062295D02*
X166133332Y-117062295D01*
X166133332Y-117062295D02*
X166057141Y-117100390D01*
X166057141Y-117100390D02*
X166019046Y-117138485D01*
X166019046Y-117138485D02*
X165980951Y-117214676D01*
X165980951Y-117214676D02*
X165942856Y-117367057D01*
X165942856Y-117367057D02*
X165942856Y-117557533D01*
X165942856Y-117557533D02*
X165980951Y-117709914D01*
X165980951Y-117709914D02*
X166019046Y-117786104D01*
X166019046Y-117786104D02*
X166057141Y-117824200D01*
X166057141Y-117824200D02*
X166133332Y-117862295D01*
X166133332Y-117862295D02*
X166209522Y-117862295D01*
X166209522Y-117862295D02*
X166285713Y-117824200D01*
X166285713Y-117824200D02*
X166323808Y-117786104D01*
X166323808Y-117786104D02*
X166361903Y-117709914D01*
X166361903Y-117709914D02*
X166399999Y-117557533D01*
X166399999Y-117557533D02*
X166399999Y-117367057D01*
X166399999Y-117367057D02*
X166361903Y-117214676D01*
X166361903Y-117214676D02*
X166323808Y-117138485D01*
X166323808Y-117138485D02*
X166285713Y-117100390D01*
X166285713Y-117100390D02*
X166209522Y-117062295D01*
X165599998Y-117328961D02*
X165599998Y-117862295D01*
X165599998Y-117405152D02*
X165561903Y-117367057D01*
X165561903Y-117367057D02*
X165485713Y-117328961D01*
X165485713Y-117328961D02*
X165371427Y-117328961D01*
X165371427Y-117328961D02*
X165295236Y-117367057D01*
X165295236Y-117367057D02*
X165257141Y-117443247D01*
X165257141Y-117443247D02*
X165257141Y-117862295D01*
X164609522Y-117443247D02*
X164876188Y-117443247D01*
X164876188Y-117862295D02*
X164876188Y-117062295D01*
X164876188Y-117062295D02*
X164495236Y-117062295D01*
X148533332Y-100051104D02*
X148571428Y-100089200D01*
X148571428Y-100089200D02*
X148685713Y-100127295D01*
X148685713Y-100127295D02*
X148761904Y-100127295D01*
X148761904Y-100127295D02*
X148876190Y-100089200D01*
X148876190Y-100089200D02*
X148952380Y-100013009D01*
X148952380Y-100013009D02*
X148990475Y-99936819D01*
X148990475Y-99936819D02*
X149028571Y-99784438D01*
X149028571Y-99784438D02*
X149028571Y-99670152D01*
X149028571Y-99670152D02*
X148990475Y-99517771D01*
X148990475Y-99517771D02*
X148952380Y-99441580D01*
X148952380Y-99441580D02*
X148876190Y-99365390D01*
X148876190Y-99365390D02*
X148761904Y-99327295D01*
X148761904Y-99327295D02*
X148685713Y-99327295D01*
X148685713Y-99327295D02*
X148571428Y-99365390D01*
X148571428Y-99365390D02*
X148533332Y-99403485D01*
X147847618Y-99327295D02*
X147999999Y-99327295D01*
X147999999Y-99327295D02*
X148076190Y-99365390D01*
X148076190Y-99365390D02*
X148114285Y-99403485D01*
X148114285Y-99403485D02*
X148190475Y-99517771D01*
X148190475Y-99517771D02*
X148228571Y-99670152D01*
X148228571Y-99670152D02*
X148228571Y-99974914D01*
X148228571Y-99974914D02*
X148190475Y-100051104D01*
X148190475Y-100051104D02*
X148152380Y-100089200D01*
X148152380Y-100089200D02*
X148076190Y-100127295D01*
X148076190Y-100127295D02*
X147923809Y-100127295D01*
X147923809Y-100127295D02*
X147847618Y-100089200D01*
X147847618Y-100089200D02*
X147809523Y-100051104D01*
X147809523Y-100051104D02*
X147771428Y-99974914D01*
X147771428Y-99974914D02*
X147771428Y-99784438D01*
X147771428Y-99784438D02*
X147809523Y-99708247D01*
X147809523Y-99708247D02*
X147847618Y-99670152D01*
X147847618Y-99670152D02*
X147923809Y-99632057D01*
X147923809Y-99632057D02*
X148076190Y-99632057D01*
X148076190Y-99632057D02*
X148152380Y-99670152D01*
X148152380Y-99670152D02*
X148190475Y-99708247D01*
X148190475Y-99708247D02*
X148228571Y-99784438D01*
X193609523Y-109977295D02*
X193609523Y-110624914D01*
X193609523Y-110624914D02*
X193571428Y-110701104D01*
X193571428Y-110701104D02*
X193533333Y-110739200D01*
X193533333Y-110739200D02*
X193457142Y-110777295D01*
X193457142Y-110777295D02*
X193304761Y-110777295D01*
X193304761Y-110777295D02*
X193228571Y-110739200D01*
X193228571Y-110739200D02*
X193190476Y-110701104D01*
X193190476Y-110701104D02*
X193152380Y-110624914D01*
X193152380Y-110624914D02*
X193152380Y-109977295D01*
X192809524Y-110053485D02*
X192771428Y-110015390D01*
X192771428Y-110015390D02*
X192695238Y-109977295D01*
X192695238Y-109977295D02*
X192504762Y-109977295D01*
X192504762Y-109977295D02*
X192428571Y-110015390D01*
X192428571Y-110015390D02*
X192390476Y-110053485D01*
X192390476Y-110053485D02*
X192352381Y-110129676D01*
X192352381Y-110129676D02*
X192352381Y-110205866D01*
X192352381Y-110205866D02*
X192390476Y-110320152D01*
X192390476Y-110320152D02*
X192847619Y-110777295D01*
X192847619Y-110777295D02*
X192352381Y-110777295D01*
X143048332Y-98686104D02*
X143086428Y-98724200D01*
X143086428Y-98724200D02*
X143200713Y-98762295D01*
X143200713Y-98762295D02*
X143276904Y-98762295D01*
X143276904Y-98762295D02*
X143391190Y-98724200D01*
X143391190Y-98724200D02*
X143467380Y-98648009D01*
X143467380Y-98648009D02*
X143505475Y-98571819D01*
X143505475Y-98571819D02*
X143543571Y-98419438D01*
X143543571Y-98419438D02*
X143543571Y-98305152D01*
X143543571Y-98305152D02*
X143505475Y-98152771D01*
X143505475Y-98152771D02*
X143467380Y-98076580D01*
X143467380Y-98076580D02*
X143391190Y-98000390D01*
X143391190Y-98000390D02*
X143276904Y-97962295D01*
X143276904Y-97962295D02*
X143200713Y-97962295D01*
X143200713Y-97962295D02*
X143086428Y-98000390D01*
X143086428Y-98000390D02*
X143048332Y-98038485D01*
X142286428Y-98762295D02*
X142743571Y-98762295D01*
X142514999Y-98762295D02*
X142514999Y-97962295D01*
X142514999Y-97962295D02*
X142591190Y-98076580D01*
X142591190Y-98076580D02*
X142667380Y-98152771D01*
X142667380Y-98152771D02*
X142743571Y-98190866D01*
X154018332Y-96851104D02*
X154056428Y-96889200D01*
X154056428Y-96889200D02*
X154170713Y-96927295D01*
X154170713Y-96927295D02*
X154246904Y-96927295D01*
X154246904Y-96927295D02*
X154361190Y-96889200D01*
X154361190Y-96889200D02*
X154437380Y-96813009D01*
X154437380Y-96813009D02*
X154475475Y-96736819D01*
X154475475Y-96736819D02*
X154513571Y-96584438D01*
X154513571Y-96584438D02*
X154513571Y-96470152D01*
X154513571Y-96470152D02*
X154475475Y-96317771D01*
X154475475Y-96317771D02*
X154437380Y-96241580D01*
X154437380Y-96241580D02*
X154361190Y-96165390D01*
X154361190Y-96165390D02*
X154246904Y-96127295D01*
X154246904Y-96127295D02*
X154170713Y-96127295D01*
X154170713Y-96127295D02*
X154056428Y-96165390D01*
X154056428Y-96165390D02*
X154018332Y-96203485D01*
X153561190Y-96470152D02*
X153637380Y-96432057D01*
X153637380Y-96432057D02*
X153675475Y-96393961D01*
X153675475Y-96393961D02*
X153713571Y-96317771D01*
X153713571Y-96317771D02*
X153713571Y-96279676D01*
X153713571Y-96279676D02*
X153675475Y-96203485D01*
X153675475Y-96203485D02*
X153637380Y-96165390D01*
X153637380Y-96165390D02*
X153561190Y-96127295D01*
X153561190Y-96127295D02*
X153408809Y-96127295D01*
X153408809Y-96127295D02*
X153332618Y-96165390D01*
X153332618Y-96165390D02*
X153294523Y-96203485D01*
X153294523Y-96203485D02*
X153256428Y-96279676D01*
X153256428Y-96279676D02*
X153256428Y-96317771D01*
X153256428Y-96317771D02*
X153294523Y-96393961D01*
X153294523Y-96393961D02*
X153332618Y-96432057D01*
X153332618Y-96432057D02*
X153408809Y-96470152D01*
X153408809Y-96470152D02*
X153561190Y-96470152D01*
X153561190Y-96470152D02*
X153637380Y-96508247D01*
X153637380Y-96508247D02*
X153675475Y-96546342D01*
X153675475Y-96546342D02*
X153713571Y-96622533D01*
X153713571Y-96622533D02*
X153713571Y-96774914D01*
X153713571Y-96774914D02*
X153675475Y-96851104D01*
X153675475Y-96851104D02*
X153637380Y-96889200D01*
X153637380Y-96889200D02*
X153561190Y-96927295D01*
X153561190Y-96927295D02*
X153408809Y-96927295D01*
X153408809Y-96927295D02*
X153332618Y-96889200D01*
X153332618Y-96889200D02*
X153294523Y-96851104D01*
X153294523Y-96851104D02*
X153256428Y-96774914D01*
X153256428Y-96774914D02*
X153256428Y-96622533D01*
X153256428Y-96622533D02*
X153294523Y-96546342D01*
X153294523Y-96546342D02*
X153332618Y-96508247D01*
X153332618Y-96508247D02*
X153408809Y-96470152D01*
X143048332Y-101886104D02*
X143086428Y-101924200D01*
X143086428Y-101924200D02*
X143200713Y-101962295D01*
X143200713Y-101962295D02*
X143276904Y-101962295D01*
X143276904Y-101962295D02*
X143391190Y-101924200D01*
X143391190Y-101924200D02*
X143467380Y-101848009D01*
X143467380Y-101848009D02*
X143505475Y-101771819D01*
X143505475Y-101771819D02*
X143543571Y-101619438D01*
X143543571Y-101619438D02*
X143543571Y-101505152D01*
X143543571Y-101505152D02*
X143505475Y-101352771D01*
X143505475Y-101352771D02*
X143467380Y-101276580D01*
X143467380Y-101276580D02*
X143391190Y-101200390D01*
X143391190Y-101200390D02*
X143276904Y-101162295D01*
X143276904Y-101162295D02*
X143200713Y-101162295D01*
X143200713Y-101162295D02*
X143086428Y-101200390D01*
X143086428Y-101200390D02*
X143048332Y-101238485D01*
X142781666Y-101162295D02*
X142286428Y-101162295D01*
X142286428Y-101162295D02*
X142553094Y-101467057D01*
X142553094Y-101467057D02*
X142438809Y-101467057D01*
X142438809Y-101467057D02*
X142362618Y-101505152D01*
X142362618Y-101505152D02*
X142324523Y-101543247D01*
X142324523Y-101543247D02*
X142286428Y-101619438D01*
X142286428Y-101619438D02*
X142286428Y-101809914D01*
X142286428Y-101809914D02*
X142324523Y-101886104D01*
X142324523Y-101886104D02*
X142362618Y-101924200D01*
X142362618Y-101924200D02*
X142438809Y-101962295D01*
X142438809Y-101962295D02*
X142667380Y-101962295D01*
X142667380Y-101962295D02*
X142743571Y-101924200D01*
X142743571Y-101924200D02*
X142781666Y-101886104D01*
X194228331Y-101102295D02*
X194494998Y-100721342D01*
X194685474Y-101102295D02*
X194685474Y-100302295D01*
X194685474Y-100302295D02*
X194380712Y-100302295D01*
X194380712Y-100302295D02*
X194304522Y-100340390D01*
X194304522Y-100340390D02*
X194266427Y-100378485D01*
X194266427Y-100378485D02*
X194228331Y-100454676D01*
X194228331Y-100454676D02*
X194228331Y-100568961D01*
X194228331Y-100568961D02*
X194266427Y-100645152D01*
X194266427Y-100645152D02*
X194304522Y-100683247D01*
X194304522Y-100683247D02*
X194380712Y-100721342D01*
X194380712Y-100721342D02*
X194685474Y-100721342D01*
X193466427Y-101102295D02*
X193923570Y-101102295D01*
X193694998Y-101102295D02*
X193694998Y-100302295D01*
X193694998Y-100302295D02*
X193771189Y-100416580D01*
X193771189Y-100416580D02*
X193847379Y-100492771D01*
X193847379Y-100492771D02*
X193923570Y-100530866D01*
X148533332Y-106921103D02*
X148571428Y-106959199D01*
X148571428Y-106959199D02*
X148685713Y-106997294D01*
X148685713Y-106997294D02*
X148761904Y-106997294D01*
X148761904Y-106997294D02*
X148876190Y-106959199D01*
X148876190Y-106959199D02*
X148952380Y-106883008D01*
X148952380Y-106883008D02*
X148990475Y-106806818D01*
X148990475Y-106806818D02*
X149028571Y-106654437D01*
X149028571Y-106654437D02*
X149028571Y-106540151D01*
X149028571Y-106540151D02*
X148990475Y-106387770D01*
X148990475Y-106387770D02*
X148952380Y-106311579D01*
X148952380Y-106311579D02*
X148876190Y-106235389D01*
X148876190Y-106235389D02*
X148761904Y-106197294D01*
X148761904Y-106197294D02*
X148685713Y-106197294D01*
X148685713Y-106197294D02*
X148571428Y-106235389D01*
X148571428Y-106235389D02*
X148533332Y-106273484D01*
X147847618Y-106463960D02*
X147847618Y-106997294D01*
X148038094Y-106159199D02*
X148228571Y-106730627D01*
X148228571Y-106730627D02*
X147733332Y-106730627D01*
X157599285Y-96851104D02*
X157637381Y-96889200D01*
X157637381Y-96889200D02*
X157751666Y-96927295D01*
X157751666Y-96927295D02*
X157827857Y-96927295D01*
X157827857Y-96927295D02*
X157942143Y-96889200D01*
X157942143Y-96889200D02*
X158018333Y-96813009D01*
X158018333Y-96813009D02*
X158056428Y-96736819D01*
X158056428Y-96736819D02*
X158094524Y-96584438D01*
X158094524Y-96584438D02*
X158094524Y-96470152D01*
X158094524Y-96470152D02*
X158056428Y-96317771D01*
X158056428Y-96317771D02*
X158018333Y-96241580D01*
X158018333Y-96241580D02*
X157942143Y-96165390D01*
X157942143Y-96165390D02*
X157827857Y-96127295D01*
X157827857Y-96127295D02*
X157751666Y-96127295D01*
X157751666Y-96127295D02*
X157637381Y-96165390D01*
X157637381Y-96165390D02*
X157599285Y-96203485D01*
X157332619Y-96127295D02*
X156799285Y-96127295D01*
X156799285Y-96127295D02*
X157142143Y-96927295D01*
X156151666Y-96393961D02*
X156151666Y-96927295D01*
X156342142Y-96089200D02*
X156532619Y-96660628D01*
X156532619Y-96660628D02*
X156037380Y-96660628D01*
X193514285Y-126881104D02*
X193552381Y-126919200D01*
X193552381Y-126919200D02*
X193666666Y-126957295D01*
X193666666Y-126957295D02*
X193742857Y-126957295D01*
X193742857Y-126957295D02*
X193857143Y-126919200D01*
X193857143Y-126919200D02*
X193933333Y-126843009D01*
X193933333Y-126843009D02*
X193971428Y-126766819D01*
X193971428Y-126766819D02*
X194009524Y-126614438D01*
X194009524Y-126614438D02*
X194009524Y-126500152D01*
X194009524Y-126500152D02*
X193971428Y-126347771D01*
X193971428Y-126347771D02*
X193933333Y-126271580D01*
X193933333Y-126271580D02*
X193857143Y-126195390D01*
X193857143Y-126195390D02*
X193742857Y-126157295D01*
X193742857Y-126157295D02*
X193666666Y-126157295D01*
X193666666Y-126157295D02*
X193552381Y-126195390D01*
X193552381Y-126195390D02*
X193514285Y-126233485D01*
X192790476Y-126157295D02*
X193171428Y-126157295D01*
X193171428Y-126157295D02*
X193209524Y-126538247D01*
X193209524Y-126538247D02*
X193171428Y-126500152D01*
X193171428Y-126500152D02*
X193095238Y-126462057D01*
X193095238Y-126462057D02*
X192904762Y-126462057D01*
X192904762Y-126462057D02*
X192828571Y-126500152D01*
X192828571Y-126500152D02*
X192790476Y-126538247D01*
X192790476Y-126538247D02*
X192752381Y-126614438D01*
X192752381Y-126614438D02*
X192752381Y-126804914D01*
X192752381Y-126804914D02*
X192790476Y-126881104D01*
X192790476Y-126881104D02*
X192828571Y-126919200D01*
X192828571Y-126919200D02*
X192904762Y-126957295D01*
X192904762Y-126957295D02*
X193095238Y-126957295D01*
X193095238Y-126957295D02*
X193171428Y-126919200D01*
X193171428Y-126919200D02*
X193209524Y-126881104D01*
X192447619Y-126233485D02*
X192409523Y-126195390D01*
X192409523Y-126195390D02*
X192333333Y-126157295D01*
X192333333Y-126157295D02*
X192142857Y-126157295D01*
X192142857Y-126157295D02*
X192066666Y-126195390D01*
X192066666Y-126195390D02*
X192028571Y-126233485D01*
X192028571Y-126233485D02*
X191990476Y-126309676D01*
X191990476Y-126309676D02*
X191990476Y-126385866D01*
X191990476Y-126385866D02*
X192028571Y-126500152D01*
X192028571Y-126500152D02*
X192485714Y-126957295D01*
X192485714Y-126957295D02*
X191990476Y-126957295D01*
X137574285Y-96601104D02*
X137612381Y-96639200D01*
X137612381Y-96639200D02*
X137726666Y-96677295D01*
X137726666Y-96677295D02*
X137802857Y-96677295D01*
X137802857Y-96677295D02*
X137917143Y-96639200D01*
X137917143Y-96639200D02*
X137993333Y-96563009D01*
X137993333Y-96563009D02*
X138031428Y-96486819D01*
X138031428Y-96486819D02*
X138069524Y-96334438D01*
X138069524Y-96334438D02*
X138069524Y-96220152D01*
X138069524Y-96220152D02*
X138031428Y-96067771D01*
X138031428Y-96067771D02*
X137993333Y-95991580D01*
X137993333Y-95991580D02*
X137917143Y-95915390D01*
X137917143Y-95915390D02*
X137802857Y-95877295D01*
X137802857Y-95877295D02*
X137726666Y-95877295D01*
X137726666Y-95877295D02*
X137612381Y-95915390D01*
X137612381Y-95915390D02*
X137574285Y-95953485D01*
X136888571Y-95877295D02*
X137040952Y-95877295D01*
X137040952Y-95877295D02*
X137117143Y-95915390D01*
X137117143Y-95915390D02*
X137155238Y-95953485D01*
X137155238Y-95953485D02*
X137231428Y-96067771D01*
X137231428Y-96067771D02*
X137269524Y-96220152D01*
X137269524Y-96220152D02*
X137269524Y-96524914D01*
X137269524Y-96524914D02*
X137231428Y-96601104D01*
X137231428Y-96601104D02*
X137193333Y-96639200D01*
X137193333Y-96639200D02*
X137117143Y-96677295D01*
X137117143Y-96677295D02*
X136964762Y-96677295D01*
X136964762Y-96677295D02*
X136888571Y-96639200D01*
X136888571Y-96639200D02*
X136850476Y-96601104D01*
X136850476Y-96601104D02*
X136812381Y-96524914D01*
X136812381Y-96524914D02*
X136812381Y-96334438D01*
X136812381Y-96334438D02*
X136850476Y-96258247D01*
X136850476Y-96258247D02*
X136888571Y-96220152D01*
X136888571Y-96220152D02*
X136964762Y-96182057D01*
X136964762Y-96182057D02*
X137117143Y-96182057D01*
X137117143Y-96182057D02*
X137193333Y-96220152D01*
X137193333Y-96220152D02*
X137231428Y-96258247D01*
X137231428Y-96258247D02*
X137269524Y-96334438D01*
X136317142Y-95877295D02*
X136240952Y-95877295D01*
X136240952Y-95877295D02*
X136164761Y-95915390D01*
X136164761Y-95915390D02*
X136126666Y-95953485D01*
X136126666Y-95953485D02*
X136088571Y-96029676D01*
X136088571Y-96029676D02*
X136050476Y-96182057D01*
X136050476Y-96182057D02*
X136050476Y-96372533D01*
X136050476Y-96372533D02*
X136088571Y-96524914D01*
X136088571Y-96524914D02*
X136126666Y-96601104D01*
X136126666Y-96601104D02*
X136164761Y-96639200D01*
X136164761Y-96639200D02*
X136240952Y-96677295D01*
X136240952Y-96677295D02*
X136317142Y-96677295D01*
X136317142Y-96677295D02*
X136393333Y-96639200D01*
X136393333Y-96639200D02*
X136431428Y-96601104D01*
X136431428Y-96601104D02*
X136469523Y-96524914D01*
X136469523Y-96524914D02*
X136507619Y-96372533D01*
X136507619Y-96372533D02*
X136507619Y-96182057D01*
X136507619Y-96182057D02*
X136469523Y-96029676D01*
X136469523Y-96029676D02*
X136431428Y-95953485D01*
X136431428Y-95953485D02*
X136393333Y-95915390D01*
X136393333Y-95915390D02*
X136317142Y-95877295D01*
X137574285Y-100301104D02*
X137612381Y-100339200D01*
X137612381Y-100339200D02*
X137726666Y-100377295D01*
X137726666Y-100377295D02*
X137802857Y-100377295D01*
X137802857Y-100377295D02*
X137917143Y-100339200D01*
X137917143Y-100339200D02*
X137993333Y-100263009D01*
X137993333Y-100263009D02*
X138031428Y-100186819D01*
X138031428Y-100186819D02*
X138069524Y-100034438D01*
X138069524Y-100034438D02*
X138069524Y-99920152D01*
X138069524Y-99920152D02*
X138031428Y-99767771D01*
X138031428Y-99767771D02*
X137993333Y-99691580D01*
X137993333Y-99691580D02*
X137917143Y-99615390D01*
X137917143Y-99615390D02*
X137802857Y-99577295D01*
X137802857Y-99577295D02*
X137726666Y-99577295D01*
X137726666Y-99577295D02*
X137612381Y-99615390D01*
X137612381Y-99615390D02*
X137574285Y-99653485D01*
X136888571Y-99577295D02*
X137040952Y-99577295D01*
X137040952Y-99577295D02*
X137117143Y-99615390D01*
X137117143Y-99615390D02*
X137155238Y-99653485D01*
X137155238Y-99653485D02*
X137231428Y-99767771D01*
X137231428Y-99767771D02*
X137269524Y-99920152D01*
X137269524Y-99920152D02*
X137269524Y-100224914D01*
X137269524Y-100224914D02*
X137231428Y-100301104D01*
X137231428Y-100301104D02*
X137193333Y-100339200D01*
X137193333Y-100339200D02*
X137117143Y-100377295D01*
X137117143Y-100377295D02*
X136964762Y-100377295D01*
X136964762Y-100377295D02*
X136888571Y-100339200D01*
X136888571Y-100339200D02*
X136850476Y-100301104D01*
X136850476Y-100301104D02*
X136812381Y-100224914D01*
X136812381Y-100224914D02*
X136812381Y-100034438D01*
X136812381Y-100034438D02*
X136850476Y-99958247D01*
X136850476Y-99958247D02*
X136888571Y-99920152D01*
X136888571Y-99920152D02*
X136964762Y-99882057D01*
X136964762Y-99882057D02*
X137117143Y-99882057D01*
X137117143Y-99882057D02*
X137193333Y-99920152D01*
X137193333Y-99920152D02*
X137231428Y-99958247D01*
X137231428Y-99958247D02*
X137269524Y-100034438D01*
X136050476Y-100377295D02*
X136507619Y-100377295D01*
X136279047Y-100377295D02*
X136279047Y-99577295D01*
X136279047Y-99577295D02*
X136355238Y-99691580D01*
X136355238Y-99691580D02*
X136431428Y-99767771D01*
X136431428Y-99767771D02*
X136507619Y-99805866D01*
X157218332Y-101886104D02*
X157256428Y-101924200D01*
X157256428Y-101924200D02*
X157370713Y-101962295D01*
X157370713Y-101962295D02*
X157446904Y-101962295D01*
X157446904Y-101962295D02*
X157561190Y-101924200D01*
X157561190Y-101924200D02*
X157637380Y-101848009D01*
X157637380Y-101848009D02*
X157675475Y-101771819D01*
X157675475Y-101771819D02*
X157713571Y-101619438D01*
X157713571Y-101619438D02*
X157713571Y-101505152D01*
X157713571Y-101505152D02*
X157675475Y-101352771D01*
X157675475Y-101352771D02*
X157637380Y-101276580D01*
X157637380Y-101276580D02*
X157561190Y-101200390D01*
X157561190Y-101200390D02*
X157446904Y-101162295D01*
X157446904Y-101162295D02*
X157370713Y-101162295D01*
X157370713Y-101162295D02*
X157256428Y-101200390D01*
X157256428Y-101200390D02*
X157218332Y-101238485D01*
X156951666Y-101162295D02*
X156418332Y-101162295D01*
X156418332Y-101162295D02*
X156761190Y-101962295D01*
X129574285Y-106231104D02*
X129612381Y-106269200D01*
X129612381Y-106269200D02*
X129726666Y-106307295D01*
X129726666Y-106307295D02*
X129802857Y-106307295D01*
X129802857Y-106307295D02*
X129917143Y-106269200D01*
X129917143Y-106269200D02*
X129993333Y-106193009D01*
X129993333Y-106193009D02*
X130031428Y-106116819D01*
X130031428Y-106116819D02*
X130069524Y-105964438D01*
X130069524Y-105964438D02*
X130069524Y-105850152D01*
X130069524Y-105850152D02*
X130031428Y-105697771D01*
X130031428Y-105697771D02*
X129993333Y-105621580D01*
X129993333Y-105621580D02*
X129917143Y-105545390D01*
X129917143Y-105545390D02*
X129802857Y-105507295D01*
X129802857Y-105507295D02*
X129726666Y-105507295D01*
X129726666Y-105507295D02*
X129612381Y-105545390D01*
X129612381Y-105545390D02*
X129574285Y-105583485D01*
X129307619Y-105507295D02*
X128774285Y-105507295D01*
X128774285Y-105507295D02*
X129117143Y-106307295D01*
X128050476Y-106307295D02*
X128507619Y-106307295D01*
X128279047Y-106307295D02*
X128279047Y-105507295D01*
X128279047Y-105507295D02*
X128355238Y-105621580D01*
X128355238Y-105621580D02*
X128431428Y-105697771D01*
X128431428Y-105697771D02*
X128507619Y-105735866D01*
X151733332Y-93651104D02*
X151771428Y-93689200D01*
X151771428Y-93689200D02*
X151885713Y-93727295D01*
X151885713Y-93727295D02*
X151961904Y-93727295D01*
X151961904Y-93727295D02*
X152076190Y-93689200D01*
X152076190Y-93689200D02*
X152152380Y-93613009D01*
X152152380Y-93613009D02*
X152190475Y-93536819D01*
X152190475Y-93536819D02*
X152228571Y-93384438D01*
X152228571Y-93384438D02*
X152228571Y-93270152D01*
X152228571Y-93270152D02*
X152190475Y-93117771D01*
X152190475Y-93117771D02*
X152152380Y-93041580D01*
X152152380Y-93041580D02*
X152076190Y-92965390D01*
X152076190Y-92965390D02*
X151961904Y-92927295D01*
X151961904Y-92927295D02*
X151885713Y-92927295D01*
X151885713Y-92927295D02*
X151771428Y-92965390D01*
X151771428Y-92965390D02*
X151733332Y-93003485D01*
X151352380Y-93727295D02*
X151199999Y-93727295D01*
X151199999Y-93727295D02*
X151123809Y-93689200D01*
X151123809Y-93689200D02*
X151085713Y-93651104D01*
X151085713Y-93651104D02*
X151009523Y-93536819D01*
X151009523Y-93536819D02*
X150971428Y-93384438D01*
X150971428Y-93384438D02*
X150971428Y-93079676D01*
X150971428Y-93079676D02*
X151009523Y-93003485D01*
X151009523Y-93003485D02*
X151047618Y-92965390D01*
X151047618Y-92965390D02*
X151123809Y-92927295D01*
X151123809Y-92927295D02*
X151276190Y-92927295D01*
X151276190Y-92927295D02*
X151352380Y-92965390D01*
X151352380Y-92965390D02*
X151390475Y-93003485D01*
X151390475Y-93003485D02*
X151428571Y-93079676D01*
X151428571Y-93079676D02*
X151428571Y-93270152D01*
X151428571Y-93270152D02*
X151390475Y-93346342D01*
X151390475Y-93346342D02*
X151352380Y-93384438D01*
X151352380Y-93384438D02*
X151276190Y-93422533D01*
X151276190Y-93422533D02*
X151123809Y-93422533D01*
X151123809Y-93422533D02*
X151047618Y-93384438D01*
X151047618Y-93384438D02*
X151009523Y-93346342D01*
X151009523Y-93346342D02*
X150971428Y-93270152D01*
X145714285Y-93651104D02*
X145752381Y-93689200D01*
X145752381Y-93689200D02*
X145866666Y-93727295D01*
X145866666Y-93727295D02*
X145942857Y-93727295D01*
X145942857Y-93727295D02*
X146057143Y-93689200D01*
X146057143Y-93689200D02*
X146133333Y-93613009D01*
X146133333Y-93613009D02*
X146171428Y-93536819D01*
X146171428Y-93536819D02*
X146209524Y-93384438D01*
X146209524Y-93384438D02*
X146209524Y-93270152D01*
X146209524Y-93270152D02*
X146171428Y-93117771D01*
X146171428Y-93117771D02*
X146133333Y-93041580D01*
X146133333Y-93041580D02*
X146057143Y-92965390D01*
X146057143Y-92965390D02*
X145942857Y-92927295D01*
X145942857Y-92927295D02*
X145866666Y-92927295D01*
X145866666Y-92927295D02*
X145752381Y-92965390D01*
X145752381Y-92965390D02*
X145714285Y-93003485D01*
X144952381Y-93727295D02*
X145409524Y-93727295D01*
X145180952Y-93727295D02*
X145180952Y-92927295D01*
X145180952Y-92927295D02*
X145257143Y-93041580D01*
X145257143Y-93041580D02*
X145333333Y-93117771D01*
X145333333Y-93117771D02*
X145409524Y-93155866D01*
X144190476Y-93727295D02*
X144647619Y-93727295D01*
X144419047Y-93727295D02*
X144419047Y-92927295D01*
X144419047Y-92927295D02*
X144495238Y-93041580D01*
X144495238Y-93041580D02*
X144571428Y-93117771D01*
X144571428Y-93117771D02*
X144647619Y-93155866D01*
X174514285Y-121016058D02*
X174552381Y-121054154D01*
X174552381Y-121054154D02*
X174666666Y-121092249D01*
X174666666Y-121092249D02*
X174742857Y-121092249D01*
X174742857Y-121092249D02*
X174857143Y-121054154D01*
X174857143Y-121054154D02*
X174933333Y-120977963D01*
X174933333Y-120977963D02*
X174971428Y-120901773D01*
X174971428Y-120901773D02*
X175009524Y-120749392D01*
X175009524Y-120749392D02*
X175009524Y-120635106D01*
X175009524Y-120635106D02*
X174971428Y-120482725D01*
X174971428Y-120482725D02*
X174933333Y-120406534D01*
X174933333Y-120406534D02*
X174857143Y-120330344D01*
X174857143Y-120330344D02*
X174742857Y-120292249D01*
X174742857Y-120292249D02*
X174666666Y-120292249D01*
X174666666Y-120292249D02*
X174552381Y-120330344D01*
X174552381Y-120330344D02*
X174514285Y-120368439D01*
X174247619Y-120292249D02*
X173714285Y-120292249D01*
X173714285Y-120292249D02*
X174057143Y-121092249D01*
X173066666Y-120292249D02*
X173219047Y-120292249D01*
X173219047Y-120292249D02*
X173295238Y-120330344D01*
X173295238Y-120330344D02*
X173333333Y-120368439D01*
X173333333Y-120368439D02*
X173409523Y-120482725D01*
X173409523Y-120482725D02*
X173447619Y-120635106D01*
X173447619Y-120635106D02*
X173447619Y-120939868D01*
X173447619Y-120939868D02*
X173409523Y-121016058D01*
X173409523Y-121016058D02*
X173371428Y-121054154D01*
X173371428Y-121054154D02*
X173295238Y-121092249D01*
X173295238Y-121092249D02*
X173142857Y-121092249D01*
X173142857Y-121092249D02*
X173066666Y-121054154D01*
X173066666Y-121054154D02*
X173028571Y-121016058D01*
X173028571Y-121016058D02*
X172990476Y-120939868D01*
X172990476Y-120939868D02*
X172990476Y-120749392D01*
X172990476Y-120749392D02*
X173028571Y-120673201D01*
X173028571Y-120673201D02*
X173066666Y-120635106D01*
X173066666Y-120635106D02*
X173142857Y-120597011D01*
X173142857Y-120597011D02*
X173295238Y-120597011D01*
X173295238Y-120597011D02*
X173371428Y-120635106D01*
X173371428Y-120635106D02*
X173409523Y-120673201D01*
X173409523Y-120673201D02*
X173447619Y-120749392D01*
X155914285Y-108541104D02*
X155952381Y-108579200D01*
X155952381Y-108579200D02*
X156066666Y-108617295D01*
X156066666Y-108617295D02*
X156142857Y-108617295D01*
X156142857Y-108617295D02*
X156257143Y-108579200D01*
X156257143Y-108579200D02*
X156333333Y-108503009D01*
X156333333Y-108503009D02*
X156371428Y-108426819D01*
X156371428Y-108426819D02*
X156409524Y-108274438D01*
X156409524Y-108274438D02*
X156409524Y-108160152D01*
X156409524Y-108160152D02*
X156371428Y-108007771D01*
X156371428Y-108007771D02*
X156333333Y-107931580D01*
X156333333Y-107931580D02*
X156257143Y-107855390D01*
X156257143Y-107855390D02*
X156142857Y-107817295D01*
X156142857Y-107817295D02*
X156066666Y-107817295D01*
X156066666Y-107817295D02*
X155952381Y-107855390D01*
X155952381Y-107855390D02*
X155914285Y-107893485D01*
X155647619Y-107817295D02*
X155114285Y-107817295D01*
X155114285Y-107817295D02*
X155457143Y-108617295D01*
X154847619Y-107893485D02*
X154809523Y-107855390D01*
X154809523Y-107855390D02*
X154733333Y-107817295D01*
X154733333Y-107817295D02*
X154542857Y-107817295D01*
X154542857Y-107817295D02*
X154466666Y-107855390D01*
X154466666Y-107855390D02*
X154428571Y-107893485D01*
X154428571Y-107893485D02*
X154390476Y-107969676D01*
X154390476Y-107969676D02*
X154390476Y-108045866D01*
X154390476Y-108045866D02*
X154428571Y-108160152D01*
X154428571Y-108160152D02*
X154885714Y-108617295D01*
X154885714Y-108617295D02*
X154390476Y-108617295D01*
X148914285Y-93651104D02*
X148952381Y-93689200D01*
X148952381Y-93689200D02*
X149066666Y-93727295D01*
X149066666Y-93727295D02*
X149142857Y-93727295D01*
X149142857Y-93727295D02*
X149257143Y-93689200D01*
X149257143Y-93689200D02*
X149333333Y-93613009D01*
X149333333Y-93613009D02*
X149371428Y-93536819D01*
X149371428Y-93536819D02*
X149409524Y-93384438D01*
X149409524Y-93384438D02*
X149409524Y-93270152D01*
X149409524Y-93270152D02*
X149371428Y-93117771D01*
X149371428Y-93117771D02*
X149333333Y-93041580D01*
X149333333Y-93041580D02*
X149257143Y-92965390D01*
X149257143Y-92965390D02*
X149142857Y-92927295D01*
X149142857Y-92927295D02*
X149066666Y-92927295D01*
X149066666Y-92927295D02*
X148952381Y-92965390D01*
X148952381Y-92965390D02*
X148914285Y-93003485D01*
X148152381Y-93727295D02*
X148609524Y-93727295D01*
X148380952Y-93727295D02*
X148380952Y-92927295D01*
X148380952Y-92927295D02*
X148457143Y-93041580D01*
X148457143Y-93041580D02*
X148533333Y-93117771D01*
X148533333Y-93117771D02*
X148609524Y-93155866D01*
X147657142Y-92927295D02*
X147580952Y-92927295D01*
X147580952Y-92927295D02*
X147504761Y-92965390D01*
X147504761Y-92965390D02*
X147466666Y-93003485D01*
X147466666Y-93003485D02*
X147428571Y-93079676D01*
X147428571Y-93079676D02*
X147390476Y-93232057D01*
X147390476Y-93232057D02*
X147390476Y-93422533D01*
X147390476Y-93422533D02*
X147428571Y-93574914D01*
X147428571Y-93574914D02*
X147466666Y-93651104D01*
X147466666Y-93651104D02*
X147504761Y-93689200D01*
X147504761Y-93689200D02*
X147580952Y-93727295D01*
X147580952Y-93727295D02*
X147657142Y-93727295D01*
X147657142Y-93727295D02*
X147733333Y-93689200D01*
X147733333Y-93689200D02*
X147771428Y-93651104D01*
X147771428Y-93651104D02*
X147809523Y-93574914D01*
X147809523Y-93574914D02*
X147847619Y-93422533D01*
X147847619Y-93422533D02*
X147847619Y-93232057D01*
X147847619Y-93232057D02*
X147809523Y-93079676D01*
X147809523Y-93079676D02*
X147771428Y-93003485D01*
X147771428Y-93003485D02*
X147733333Y-92965390D01*
X147733333Y-92965390D02*
X147657142Y-92927295D01*
X145333332Y-106921103D02*
X145371428Y-106959199D01*
X145371428Y-106959199D02*
X145485713Y-106997294D01*
X145485713Y-106997294D02*
X145561904Y-106997294D01*
X145561904Y-106997294D02*
X145676190Y-106959199D01*
X145676190Y-106959199D02*
X145752380Y-106883008D01*
X145752380Y-106883008D02*
X145790475Y-106806818D01*
X145790475Y-106806818D02*
X145828571Y-106654437D01*
X145828571Y-106654437D02*
X145828571Y-106540151D01*
X145828571Y-106540151D02*
X145790475Y-106387770D01*
X145790475Y-106387770D02*
X145752380Y-106311579D01*
X145752380Y-106311579D02*
X145676190Y-106235389D01*
X145676190Y-106235389D02*
X145561904Y-106197294D01*
X145561904Y-106197294D02*
X145485713Y-106197294D01*
X145485713Y-106197294D02*
X145371428Y-106235389D01*
X145371428Y-106235389D02*
X145333332Y-106273484D01*
X145028571Y-106273484D02*
X144990475Y-106235389D01*
X144990475Y-106235389D02*
X144914285Y-106197294D01*
X144914285Y-106197294D02*
X144723809Y-106197294D01*
X144723809Y-106197294D02*
X144647618Y-106235389D01*
X144647618Y-106235389D02*
X144609523Y-106273484D01*
X144609523Y-106273484D02*
X144571428Y-106349675D01*
X144571428Y-106349675D02*
X144571428Y-106425865D01*
X144571428Y-106425865D02*
X144609523Y-106540151D01*
X144609523Y-106540151D02*
X145066666Y-106997294D01*
X145066666Y-106997294D02*
X144571428Y-106997294D01*
X190211104Y-116975714D02*
X190249200Y-116937618D01*
X190249200Y-116937618D02*
X190287295Y-116823333D01*
X190287295Y-116823333D02*
X190287295Y-116747142D01*
X190287295Y-116747142D02*
X190249200Y-116632856D01*
X190249200Y-116632856D02*
X190173009Y-116556666D01*
X190173009Y-116556666D02*
X190096819Y-116518571D01*
X190096819Y-116518571D02*
X189944438Y-116480475D01*
X189944438Y-116480475D02*
X189830152Y-116480475D01*
X189830152Y-116480475D02*
X189677771Y-116518571D01*
X189677771Y-116518571D02*
X189601580Y-116556666D01*
X189601580Y-116556666D02*
X189525390Y-116632856D01*
X189525390Y-116632856D02*
X189487295Y-116747142D01*
X189487295Y-116747142D02*
X189487295Y-116823333D01*
X189487295Y-116823333D02*
X189525390Y-116937618D01*
X189525390Y-116937618D02*
X189563485Y-116975714D01*
X189487295Y-117699523D02*
X189487295Y-117318571D01*
X189487295Y-117318571D02*
X189868247Y-117280475D01*
X189868247Y-117280475D02*
X189830152Y-117318571D01*
X189830152Y-117318571D02*
X189792057Y-117394761D01*
X189792057Y-117394761D02*
X189792057Y-117585237D01*
X189792057Y-117585237D02*
X189830152Y-117661428D01*
X189830152Y-117661428D02*
X189868247Y-117699523D01*
X189868247Y-117699523D02*
X189944438Y-117737618D01*
X189944438Y-117737618D02*
X190134914Y-117737618D01*
X190134914Y-117737618D02*
X190211104Y-117699523D01*
X190211104Y-117699523D02*
X190249200Y-117661428D01*
X190249200Y-117661428D02*
X190287295Y-117585237D01*
X190287295Y-117585237D02*
X190287295Y-117394761D01*
X190287295Y-117394761D02*
X190249200Y-117318571D01*
X190249200Y-117318571D02*
X190211104Y-117280475D01*
X189487295Y-118232857D02*
X189487295Y-118309047D01*
X189487295Y-118309047D02*
X189525390Y-118385238D01*
X189525390Y-118385238D02*
X189563485Y-118423333D01*
X189563485Y-118423333D02*
X189639676Y-118461428D01*
X189639676Y-118461428D02*
X189792057Y-118499523D01*
X189792057Y-118499523D02*
X189982533Y-118499523D01*
X189982533Y-118499523D02*
X190134914Y-118461428D01*
X190134914Y-118461428D02*
X190211104Y-118423333D01*
X190211104Y-118423333D02*
X190249200Y-118385238D01*
X190249200Y-118385238D02*
X190287295Y-118309047D01*
X190287295Y-118309047D02*
X190287295Y-118232857D01*
X190287295Y-118232857D02*
X190249200Y-118156666D01*
X190249200Y-118156666D02*
X190211104Y-118118571D01*
X190211104Y-118118571D02*
X190134914Y-118080476D01*
X190134914Y-118080476D02*
X189982533Y-118042380D01*
X189982533Y-118042380D02*
X189792057Y-118042380D01*
X189792057Y-118042380D02*
X189639676Y-118080476D01*
X189639676Y-118080476D02*
X189563485Y-118118571D01*
X189563485Y-118118571D02*
X189525390Y-118156666D01*
X189525390Y-118156666D02*
X189487295Y-118232857D01*
X129193332Y-116257295D02*
X129459999Y-115876342D01*
X129650475Y-116257295D02*
X129650475Y-115457295D01*
X129650475Y-115457295D02*
X129345713Y-115457295D01*
X129345713Y-115457295D02*
X129269523Y-115495390D01*
X129269523Y-115495390D02*
X129231428Y-115533485D01*
X129231428Y-115533485D02*
X129193332Y-115609676D01*
X129193332Y-115609676D02*
X129193332Y-115723961D01*
X129193332Y-115723961D02*
X129231428Y-115800152D01*
X129231428Y-115800152D02*
X129269523Y-115838247D01*
X129269523Y-115838247D02*
X129345713Y-115876342D01*
X129345713Y-115876342D02*
X129650475Y-115876342D01*
X128926666Y-115457295D02*
X128431428Y-115457295D01*
X128431428Y-115457295D02*
X128698094Y-115762057D01*
X128698094Y-115762057D02*
X128583809Y-115762057D01*
X128583809Y-115762057D02*
X128507618Y-115800152D01*
X128507618Y-115800152D02*
X128469523Y-115838247D01*
X128469523Y-115838247D02*
X128431428Y-115914438D01*
X128431428Y-115914438D02*
X128431428Y-116104914D01*
X128431428Y-116104914D02*
X128469523Y-116181104D01*
X128469523Y-116181104D02*
X128507618Y-116219200D01*
X128507618Y-116219200D02*
X128583809Y-116257295D01*
X128583809Y-116257295D02*
X128812380Y-116257295D01*
X128812380Y-116257295D02*
X128888571Y-116219200D01*
X128888571Y-116219200D02*
X128926666Y-116181104D01*
X117686104Y-113000714D02*
X117724200Y-112962618D01*
X117724200Y-112962618D02*
X117762295Y-112848333D01*
X117762295Y-112848333D02*
X117762295Y-112772142D01*
X117762295Y-112772142D02*
X117724200Y-112657856D01*
X117724200Y-112657856D02*
X117648009Y-112581666D01*
X117648009Y-112581666D02*
X117571819Y-112543571D01*
X117571819Y-112543571D02*
X117419438Y-112505475D01*
X117419438Y-112505475D02*
X117305152Y-112505475D01*
X117305152Y-112505475D02*
X117152771Y-112543571D01*
X117152771Y-112543571D02*
X117076580Y-112581666D01*
X117076580Y-112581666D02*
X117000390Y-112657856D01*
X117000390Y-112657856D02*
X116962295Y-112772142D01*
X116962295Y-112772142D02*
X116962295Y-112848333D01*
X116962295Y-112848333D02*
X117000390Y-112962618D01*
X117000390Y-112962618D02*
X117038485Y-113000714D01*
X116962295Y-113267380D02*
X116962295Y-113800714D01*
X116962295Y-113800714D02*
X117762295Y-113457856D01*
X116962295Y-114029285D02*
X116962295Y-114562619D01*
X116962295Y-114562619D02*
X117762295Y-114219761D01*
X151733332Y-103721103D02*
X151771428Y-103759199D01*
X151771428Y-103759199D02*
X151885713Y-103797294D01*
X151885713Y-103797294D02*
X151961904Y-103797294D01*
X151961904Y-103797294D02*
X152076190Y-103759199D01*
X152076190Y-103759199D02*
X152152380Y-103683008D01*
X152152380Y-103683008D02*
X152190475Y-103606818D01*
X152190475Y-103606818D02*
X152228571Y-103454437D01*
X152228571Y-103454437D02*
X152228571Y-103340151D01*
X152228571Y-103340151D02*
X152190475Y-103187770D01*
X152190475Y-103187770D02*
X152152380Y-103111579D01*
X152152380Y-103111579D02*
X152076190Y-103035389D01*
X152076190Y-103035389D02*
X151961904Y-102997294D01*
X151961904Y-102997294D02*
X151885713Y-102997294D01*
X151885713Y-102997294D02*
X151771428Y-103035389D01*
X151771428Y-103035389D02*
X151733332Y-103073484D01*
X151009523Y-102997294D02*
X151390475Y-102997294D01*
X151390475Y-102997294D02*
X151428571Y-103378246D01*
X151428571Y-103378246D02*
X151390475Y-103340151D01*
X151390475Y-103340151D02*
X151314285Y-103302056D01*
X151314285Y-103302056D02*
X151123809Y-103302056D01*
X151123809Y-103302056D02*
X151047618Y-103340151D01*
X151047618Y-103340151D02*
X151009523Y-103378246D01*
X151009523Y-103378246D02*
X150971428Y-103454437D01*
X150971428Y-103454437D02*
X150971428Y-103644913D01*
X150971428Y-103644913D02*
X151009523Y-103721103D01*
X151009523Y-103721103D02*
X151047618Y-103759199D01*
X151047618Y-103759199D02*
X151123809Y-103797294D01*
X151123809Y-103797294D02*
X151314285Y-103797294D01*
X151314285Y-103797294D02*
X151390475Y-103759199D01*
X151390475Y-103759199D02*
X151428571Y-103721103D01*
X131440951Y-86506342D02*
X131440951Y-86887295D01*
X131707618Y-86087295D02*
X131440951Y-86506342D01*
X131440951Y-86506342D02*
X131174285Y-86087295D01*
X130945714Y-86163485D02*
X130907618Y-86125390D01*
X130907618Y-86125390D02*
X130831428Y-86087295D01*
X130831428Y-86087295D02*
X130640952Y-86087295D01*
X130640952Y-86087295D02*
X130564761Y-86125390D01*
X130564761Y-86125390D02*
X130526666Y-86163485D01*
X130526666Y-86163485D02*
X130488571Y-86239676D01*
X130488571Y-86239676D02*
X130488571Y-86315866D01*
X130488571Y-86315866D02*
X130526666Y-86430152D01*
X130526666Y-86430152D02*
X130983809Y-86887295D01*
X130983809Y-86887295D02*
X130488571Y-86887295D01*
X190211104Y-120475714D02*
X190249200Y-120437618D01*
X190249200Y-120437618D02*
X190287295Y-120323333D01*
X190287295Y-120323333D02*
X190287295Y-120247142D01*
X190287295Y-120247142D02*
X190249200Y-120132856D01*
X190249200Y-120132856D02*
X190173009Y-120056666D01*
X190173009Y-120056666D02*
X190096819Y-120018571D01*
X190096819Y-120018571D02*
X189944438Y-119980475D01*
X189944438Y-119980475D02*
X189830152Y-119980475D01*
X189830152Y-119980475D02*
X189677771Y-120018571D01*
X189677771Y-120018571D02*
X189601580Y-120056666D01*
X189601580Y-120056666D02*
X189525390Y-120132856D01*
X189525390Y-120132856D02*
X189487295Y-120247142D01*
X189487295Y-120247142D02*
X189487295Y-120323333D01*
X189487295Y-120323333D02*
X189525390Y-120437618D01*
X189525390Y-120437618D02*
X189563485Y-120475714D01*
X189487295Y-121199523D02*
X189487295Y-120818571D01*
X189487295Y-120818571D02*
X189868247Y-120780475D01*
X189868247Y-120780475D02*
X189830152Y-120818571D01*
X189830152Y-120818571D02*
X189792057Y-120894761D01*
X189792057Y-120894761D02*
X189792057Y-121085237D01*
X189792057Y-121085237D02*
X189830152Y-121161428D01*
X189830152Y-121161428D02*
X189868247Y-121199523D01*
X189868247Y-121199523D02*
X189944438Y-121237618D01*
X189944438Y-121237618D02*
X190134914Y-121237618D01*
X190134914Y-121237618D02*
X190211104Y-121199523D01*
X190211104Y-121199523D02*
X190249200Y-121161428D01*
X190249200Y-121161428D02*
X190287295Y-121085237D01*
X190287295Y-121085237D02*
X190287295Y-120894761D01*
X190287295Y-120894761D02*
X190249200Y-120818571D01*
X190249200Y-120818571D02*
X190211104Y-120780475D01*
X190287295Y-121999523D02*
X190287295Y-121542380D01*
X190287295Y-121770952D02*
X189487295Y-121770952D01*
X189487295Y-121770952D02*
X189601580Y-121694761D01*
X189601580Y-121694761D02*
X189677771Y-121618571D01*
X189677771Y-121618571D02*
X189715866Y-121542380D01*
X126514285Y-79556150D02*
X126552381Y-79594246D01*
X126552381Y-79594246D02*
X126666666Y-79632341D01*
X126666666Y-79632341D02*
X126742857Y-79632341D01*
X126742857Y-79632341D02*
X126857143Y-79594246D01*
X126857143Y-79594246D02*
X126933333Y-79518055D01*
X126933333Y-79518055D02*
X126971428Y-79441865D01*
X126971428Y-79441865D02*
X127009524Y-79289484D01*
X127009524Y-79289484D02*
X127009524Y-79175198D01*
X127009524Y-79175198D02*
X126971428Y-79022817D01*
X126971428Y-79022817D02*
X126933333Y-78946626D01*
X126933333Y-78946626D02*
X126857143Y-78870436D01*
X126857143Y-78870436D02*
X126742857Y-78832341D01*
X126742857Y-78832341D02*
X126666666Y-78832341D01*
X126666666Y-78832341D02*
X126552381Y-78870436D01*
X126552381Y-78870436D02*
X126514285Y-78908531D01*
X126247619Y-78832341D02*
X125714285Y-78832341D01*
X125714285Y-78832341D02*
X126057143Y-79632341D01*
X125028571Y-78832341D02*
X125409523Y-78832341D01*
X125409523Y-78832341D02*
X125447619Y-79213293D01*
X125447619Y-79213293D02*
X125409523Y-79175198D01*
X125409523Y-79175198D02*
X125333333Y-79137103D01*
X125333333Y-79137103D02*
X125142857Y-79137103D01*
X125142857Y-79137103D02*
X125066666Y-79175198D01*
X125066666Y-79175198D02*
X125028571Y-79213293D01*
X125028571Y-79213293D02*
X124990476Y-79289484D01*
X124990476Y-79289484D02*
X124990476Y-79479960D01*
X124990476Y-79479960D02*
X125028571Y-79556150D01*
X125028571Y-79556150D02*
X125066666Y-79594246D01*
X125066666Y-79594246D02*
X125142857Y-79632341D01*
X125142857Y-79632341D02*
X125333333Y-79632341D01*
X125333333Y-79632341D02*
X125409523Y-79594246D01*
X125409523Y-79594246D02*
X125447619Y-79556150D01*
X131440951Y-95461341D02*
X131440951Y-95842294D01*
X131707618Y-95042294D02*
X131440951Y-95461341D01*
X131440951Y-95461341D02*
X131174285Y-95042294D01*
X130488571Y-95842294D02*
X130945714Y-95842294D01*
X130717142Y-95842294D02*
X130717142Y-95042294D01*
X130717142Y-95042294D02*
X130793333Y-95156579D01*
X130793333Y-95156579D02*
X130869523Y-95232770D01*
X130869523Y-95232770D02*
X130945714Y-95270865D01*
X137574285Y-93371104D02*
X137612381Y-93409200D01*
X137612381Y-93409200D02*
X137726666Y-93447295D01*
X137726666Y-93447295D02*
X137802857Y-93447295D01*
X137802857Y-93447295D02*
X137917143Y-93409200D01*
X137917143Y-93409200D02*
X137993333Y-93333009D01*
X137993333Y-93333009D02*
X138031428Y-93256819D01*
X138031428Y-93256819D02*
X138069524Y-93104438D01*
X138069524Y-93104438D02*
X138069524Y-92990152D01*
X138069524Y-92990152D02*
X138031428Y-92837771D01*
X138031428Y-92837771D02*
X137993333Y-92761580D01*
X137993333Y-92761580D02*
X137917143Y-92685390D01*
X137917143Y-92685390D02*
X137802857Y-92647295D01*
X137802857Y-92647295D02*
X137726666Y-92647295D01*
X137726666Y-92647295D02*
X137612381Y-92685390D01*
X137612381Y-92685390D02*
X137574285Y-92723485D01*
X136888571Y-92647295D02*
X137040952Y-92647295D01*
X137040952Y-92647295D02*
X137117143Y-92685390D01*
X137117143Y-92685390D02*
X137155238Y-92723485D01*
X137155238Y-92723485D02*
X137231428Y-92837771D01*
X137231428Y-92837771D02*
X137269524Y-92990152D01*
X137269524Y-92990152D02*
X137269524Y-93294914D01*
X137269524Y-93294914D02*
X137231428Y-93371104D01*
X137231428Y-93371104D02*
X137193333Y-93409200D01*
X137193333Y-93409200D02*
X137117143Y-93447295D01*
X137117143Y-93447295D02*
X136964762Y-93447295D01*
X136964762Y-93447295D02*
X136888571Y-93409200D01*
X136888571Y-93409200D02*
X136850476Y-93371104D01*
X136850476Y-93371104D02*
X136812381Y-93294914D01*
X136812381Y-93294914D02*
X136812381Y-93104438D01*
X136812381Y-93104438D02*
X136850476Y-93028247D01*
X136850476Y-93028247D02*
X136888571Y-92990152D01*
X136888571Y-92990152D02*
X136964762Y-92952057D01*
X136964762Y-92952057D02*
X137117143Y-92952057D01*
X137117143Y-92952057D02*
X137193333Y-92990152D01*
X137193333Y-92990152D02*
X137231428Y-93028247D01*
X137231428Y-93028247D02*
X137269524Y-93104438D01*
X136545714Y-92647295D02*
X136050476Y-92647295D01*
X136050476Y-92647295D02*
X136317142Y-92952057D01*
X136317142Y-92952057D02*
X136202857Y-92952057D01*
X136202857Y-92952057D02*
X136126666Y-92990152D01*
X136126666Y-92990152D02*
X136088571Y-93028247D01*
X136088571Y-93028247D02*
X136050476Y-93104438D01*
X136050476Y-93104438D02*
X136050476Y-93294914D01*
X136050476Y-93294914D02*
X136088571Y-93371104D01*
X136088571Y-93371104D02*
X136126666Y-93409200D01*
X136126666Y-93409200D02*
X136202857Y-93447295D01*
X136202857Y-93447295D02*
X136431428Y-93447295D01*
X136431428Y-93447295D02*
X136507619Y-93409200D01*
X136507619Y-93409200D02*
X136545714Y-93371104D01*
X155914285Y-92781103D02*
X155952381Y-92819199D01*
X155952381Y-92819199D02*
X156066666Y-92857294D01*
X156066666Y-92857294D02*
X156142857Y-92857294D01*
X156142857Y-92857294D02*
X156257143Y-92819199D01*
X156257143Y-92819199D02*
X156333333Y-92743008D01*
X156333333Y-92743008D02*
X156371428Y-92666818D01*
X156371428Y-92666818D02*
X156409524Y-92514437D01*
X156409524Y-92514437D02*
X156409524Y-92400151D01*
X156409524Y-92400151D02*
X156371428Y-92247770D01*
X156371428Y-92247770D02*
X156333333Y-92171579D01*
X156333333Y-92171579D02*
X156257143Y-92095389D01*
X156257143Y-92095389D02*
X156142857Y-92057294D01*
X156142857Y-92057294D02*
X156066666Y-92057294D01*
X156066666Y-92057294D02*
X155952381Y-92095389D01*
X155952381Y-92095389D02*
X155914285Y-92133484D01*
X155647619Y-92057294D02*
X155114285Y-92057294D01*
X155114285Y-92057294D02*
X155457143Y-92857294D01*
X154885714Y-92057294D02*
X154390476Y-92057294D01*
X154390476Y-92057294D02*
X154657142Y-92362056D01*
X154657142Y-92362056D02*
X154542857Y-92362056D01*
X154542857Y-92362056D02*
X154466666Y-92400151D01*
X154466666Y-92400151D02*
X154428571Y-92438246D01*
X154428571Y-92438246D02*
X154390476Y-92514437D01*
X154390476Y-92514437D02*
X154390476Y-92704913D01*
X154390476Y-92704913D02*
X154428571Y-92781103D01*
X154428571Y-92781103D02*
X154466666Y-92819199D01*
X154466666Y-92819199D02*
X154542857Y-92857294D01*
X154542857Y-92857294D02*
X154771428Y-92857294D01*
X154771428Y-92857294D02*
X154847619Y-92819199D01*
X154847619Y-92819199D02*
X154885714Y-92781103D01*
X194228331Y-98102295D02*
X194494998Y-97721342D01*
X194685474Y-98102295D02*
X194685474Y-97302295D01*
X194685474Y-97302295D02*
X194380712Y-97302295D01*
X194380712Y-97302295D02*
X194304522Y-97340390D01*
X194304522Y-97340390D02*
X194266427Y-97378485D01*
X194266427Y-97378485D02*
X194228331Y-97454676D01*
X194228331Y-97454676D02*
X194228331Y-97568961D01*
X194228331Y-97568961D02*
X194266427Y-97645152D01*
X194266427Y-97645152D02*
X194304522Y-97683247D01*
X194304522Y-97683247D02*
X194380712Y-97721342D01*
X194380712Y-97721342D02*
X194685474Y-97721342D01*
X193923570Y-97378485D02*
X193885474Y-97340390D01*
X193885474Y-97340390D02*
X193809284Y-97302295D01*
X193809284Y-97302295D02*
X193618808Y-97302295D01*
X193618808Y-97302295D02*
X193542617Y-97340390D01*
X193542617Y-97340390D02*
X193504522Y-97378485D01*
X193504522Y-97378485D02*
X193466427Y-97454676D01*
X193466427Y-97454676D02*
X193466427Y-97530866D01*
X193466427Y-97530866D02*
X193504522Y-97645152D01*
X193504522Y-97645152D02*
X193961665Y-98102295D01*
X193961665Y-98102295D02*
X193466427Y-98102295D01*
X137574285Y-87201104D02*
X137612381Y-87239200D01*
X137612381Y-87239200D02*
X137726666Y-87277295D01*
X137726666Y-87277295D02*
X137802857Y-87277295D01*
X137802857Y-87277295D02*
X137917143Y-87239200D01*
X137917143Y-87239200D02*
X137993333Y-87163009D01*
X137993333Y-87163009D02*
X138031428Y-87086819D01*
X138031428Y-87086819D02*
X138069524Y-86934438D01*
X138069524Y-86934438D02*
X138069524Y-86820152D01*
X138069524Y-86820152D02*
X138031428Y-86667771D01*
X138031428Y-86667771D02*
X137993333Y-86591580D01*
X137993333Y-86591580D02*
X137917143Y-86515390D01*
X137917143Y-86515390D02*
X137802857Y-86477295D01*
X137802857Y-86477295D02*
X137726666Y-86477295D01*
X137726666Y-86477295D02*
X137612381Y-86515390D01*
X137612381Y-86515390D02*
X137574285Y-86553485D01*
X136888571Y-86477295D02*
X137040952Y-86477295D01*
X137040952Y-86477295D02*
X137117143Y-86515390D01*
X137117143Y-86515390D02*
X137155238Y-86553485D01*
X137155238Y-86553485D02*
X137231428Y-86667771D01*
X137231428Y-86667771D02*
X137269524Y-86820152D01*
X137269524Y-86820152D02*
X137269524Y-87124914D01*
X137269524Y-87124914D02*
X137231428Y-87201104D01*
X137231428Y-87201104D02*
X137193333Y-87239200D01*
X137193333Y-87239200D02*
X137117143Y-87277295D01*
X137117143Y-87277295D02*
X136964762Y-87277295D01*
X136964762Y-87277295D02*
X136888571Y-87239200D01*
X136888571Y-87239200D02*
X136850476Y-87201104D01*
X136850476Y-87201104D02*
X136812381Y-87124914D01*
X136812381Y-87124914D02*
X136812381Y-86934438D01*
X136812381Y-86934438D02*
X136850476Y-86858247D01*
X136850476Y-86858247D02*
X136888571Y-86820152D01*
X136888571Y-86820152D02*
X136964762Y-86782057D01*
X136964762Y-86782057D02*
X137117143Y-86782057D01*
X137117143Y-86782057D02*
X137193333Y-86820152D01*
X137193333Y-86820152D02*
X137231428Y-86858247D01*
X137231428Y-86858247D02*
X137269524Y-86934438D01*
X136507619Y-86553485D02*
X136469523Y-86515390D01*
X136469523Y-86515390D02*
X136393333Y-86477295D01*
X136393333Y-86477295D02*
X136202857Y-86477295D01*
X136202857Y-86477295D02*
X136126666Y-86515390D01*
X136126666Y-86515390D02*
X136088571Y-86553485D01*
X136088571Y-86553485D02*
X136050476Y-86629676D01*
X136050476Y-86629676D02*
X136050476Y-86705866D01*
X136050476Y-86705866D02*
X136088571Y-86820152D01*
X136088571Y-86820152D02*
X136545714Y-87277295D01*
X136545714Y-87277295D02*
X136050476Y-87277295D01*
X127061104Y-110535714D02*
X127099200Y-110497618D01*
X127099200Y-110497618D02*
X127137295Y-110383333D01*
X127137295Y-110383333D02*
X127137295Y-110307142D01*
X127137295Y-110307142D02*
X127099200Y-110192856D01*
X127099200Y-110192856D02*
X127023009Y-110116666D01*
X127023009Y-110116666D02*
X126946819Y-110078571D01*
X126946819Y-110078571D02*
X126794438Y-110040475D01*
X126794438Y-110040475D02*
X126680152Y-110040475D01*
X126680152Y-110040475D02*
X126527771Y-110078571D01*
X126527771Y-110078571D02*
X126451580Y-110116666D01*
X126451580Y-110116666D02*
X126375390Y-110192856D01*
X126375390Y-110192856D02*
X126337295Y-110307142D01*
X126337295Y-110307142D02*
X126337295Y-110383333D01*
X126337295Y-110383333D02*
X126375390Y-110497618D01*
X126375390Y-110497618D02*
X126413485Y-110535714D01*
X126337295Y-110802380D02*
X126337295Y-111335714D01*
X126337295Y-111335714D02*
X127137295Y-110992856D01*
X126337295Y-111792857D02*
X126337295Y-111869047D01*
X126337295Y-111869047D02*
X126375390Y-111945238D01*
X126375390Y-111945238D02*
X126413485Y-111983333D01*
X126413485Y-111983333D02*
X126489676Y-112021428D01*
X126489676Y-112021428D02*
X126642057Y-112059523D01*
X126642057Y-112059523D02*
X126832533Y-112059523D01*
X126832533Y-112059523D02*
X126984914Y-112021428D01*
X126984914Y-112021428D02*
X127061104Y-111983333D01*
X127061104Y-111983333D02*
X127099200Y-111945238D01*
X127099200Y-111945238D02*
X127137295Y-111869047D01*
X127137295Y-111869047D02*
X127137295Y-111792857D01*
X127137295Y-111792857D02*
X127099200Y-111716666D01*
X127099200Y-111716666D02*
X127061104Y-111678571D01*
X127061104Y-111678571D02*
X126984914Y-111640476D01*
X126984914Y-111640476D02*
X126832533Y-111602380D01*
X126832533Y-111602380D02*
X126642057Y-111602380D01*
X126642057Y-111602380D02*
X126489676Y-111640476D01*
X126489676Y-111640476D02*
X126413485Y-111678571D01*
X126413485Y-111678571D02*
X126375390Y-111716666D01*
X126375390Y-111716666D02*
X126337295Y-111792857D01*
%TO.C,C6*%
D11*
X148292164Y-101240000D02*
X148507836Y-101240000D01*
X148292164Y-101960000D02*
X148507836Y-101960000D01*
%TO.C,U2*%
X192090000Y-111930000D02*
X192090000Y-111980000D01*
X192090000Y-115000000D02*
X192090000Y-115050000D01*
X192090000Y-115050000D02*
X193910000Y-115050000D01*
X193910000Y-111930000D02*
X192090000Y-111930000D01*
X193910000Y-111980000D02*
X193910000Y-111930000D01*
X193910000Y-113880000D02*
X193910000Y-113100000D01*
X193910000Y-115050000D02*
X193910000Y-115000000D01*
X191550000Y-115000000D02*
X191310000Y-115330000D01*
X191790000Y-115330000D01*
X191550000Y-115000000D01*
G36*
X191790000Y-115330000D02*
G01*
X191310000Y-115330000D01*
X191550000Y-115000000D01*
X191790000Y-115330000D01*
G37*
%TO.C,C1*%
X145092164Y-98040000D02*
X145307836Y-98040000D01*
X145092164Y-98760000D02*
X145307836Y-98760000D01*
%TO.C,C8*%
X151492164Y-98040000D02*
X151707836Y-98040000D01*
X151492164Y-98760000D02*
X151707836Y-98760000D01*
%TO.C,C3*%
X145092164Y-101240000D02*
X145307836Y-101240000D01*
X145092164Y-101960000D02*
X145307836Y-101960000D01*
%TO.C,R1*%
X196246359Y-100360000D02*
X196553641Y-100360000D01*
X196246359Y-101120000D02*
X196553641Y-101120000D01*
%TO.C,C4*%
X148292164Y-104440000D02*
X148507836Y-104440000D01*
X148292164Y-105160000D02*
X148507836Y-105160000D01*
%TO.C,C74*%
X154692164Y-98040000D02*
X154907836Y-98040000D01*
X154692164Y-98760000D02*
X154907836Y-98760000D01*
%TO.C,C52*%
X192859420Y-123980000D02*
X193140580Y-123980000D01*
X192859420Y-125000000D02*
X193140580Y-125000000D01*
%TO.C,C60*%
X136952164Y-97790000D02*
X137167836Y-97790000D01*
X136952164Y-98510000D02*
X137167836Y-98510000D01*
%TO.C,C61*%
X136952164Y-101490000D02*
X137167836Y-101490000D01*
X136952164Y-102210000D02*
X137167836Y-102210000D01*
%TO.C,C7*%
X154692164Y-101240000D02*
X154907836Y-101240000D01*
X154692164Y-101960000D02*
X154907836Y-101960000D01*
%TO.C,C71*%
X129200581Y-107540000D02*
X128919419Y-107540000D01*
X129200581Y-108560000D02*
X128919419Y-108560000D01*
%TO.C,C9*%
X151492164Y-94840000D02*
X151707836Y-94840000D01*
X151492164Y-95560000D02*
X151707836Y-95560000D01*
%TO.C,C11*%
X145092164Y-94840000D02*
X145307836Y-94840000D01*
X145092164Y-95560000D02*
X145307836Y-95560000D01*
%TO.C,C76*%
X173665010Y-123295543D02*
X173295543Y-123665010D01*
X174704457Y-124334990D02*
X174334990Y-124704457D01*
%TO.C,C72*%
X154890000Y-105540581D02*
X154890000Y-105259419D01*
X155910000Y-105540581D02*
X155910000Y-105259419D01*
%TO.C,C10*%
X148292164Y-94840000D02*
X148507836Y-94840000D01*
X148292164Y-95560000D02*
X148507836Y-95560000D01*
%TO.C,C2*%
X145092164Y-104440000D02*
X145307836Y-104440000D01*
X145092164Y-105160000D02*
X145307836Y-105160000D01*
%TO.C,C50*%
X192738748Y-116755000D02*
X193261252Y-116755000D01*
X192738748Y-118225000D02*
X193261252Y-118225000D01*
%TO.C,R3*%
X128906359Y-113670000D02*
X129213641Y-113670000D01*
X128906359Y-114430000D02*
X129213641Y-114430000D01*
%TO.C,C77*%
X117292164Y-115640000D02*
X117507836Y-115640000D01*
X117292164Y-116360000D02*
X117507836Y-116360000D01*
%TO.C,C5*%
X151492164Y-101240000D02*
X151707836Y-101240000D01*
X151492164Y-101960000D02*
X151707836Y-101960000D01*
%TO.C,Y2*%
X130050000Y-89510000D02*
X130050000Y-90490000D01*
X130160000Y-87990000D02*
X131960000Y-87990000D01*
X132070000Y-89510000D02*
X132070000Y-90490000D01*
%TO.C,C51*%
X192738748Y-120255000D02*
X193261252Y-120255000D01*
X192738748Y-121725000D02*
X193261252Y-121725000D01*
%TO.C,C75*%
X125295543Y-76334990D02*
X125665010Y-76704457D01*
X126334990Y-75295543D02*
X126704457Y-75665010D01*
%TO.C,Y1*%
X129200000Y-96890000D02*
X132920000Y-96890000D01*
X129200000Y-102760000D02*
X129200000Y-96890000D01*
X132920000Y-96890000D02*
X132920000Y-102760000D01*
%TO.C,C63*%
X136952164Y-90890000D02*
X137167836Y-90890000D01*
X136952164Y-91610000D02*
X137167836Y-91610000D01*
%TO.C,C73*%
X155540581Y-94090000D02*
X155259419Y-94090000D01*
X155540581Y-95110000D02*
X155259419Y-95110000D01*
%TO.C,R2*%
X196246359Y-97360000D02*
X196553641Y-97360000D01*
X196246359Y-98120000D02*
X196553641Y-98120000D01*
%TO.C,C62*%
X136952164Y-88390000D02*
X137167836Y-88390000D01*
X136952164Y-89110000D02*
X137167836Y-89110000D01*
%TO.C,C70*%
X129167836Y-110690000D02*
X128952164Y-110690000D01*
X129167836Y-111410000D02*
X128952164Y-111410000D01*
%TD*%
M02*
