%TF.GenerationSoftware,KiCad,Pcbnew,10.0.3*%
%TF.CreationDate,2026-08-18T23:42:30+01:00*%
%TF.ProjectId,STM32H723ZG-CoreBoard,53544d33-3248-4373-9233-5a472d436f72,rev?*%
%TF.SameCoordinates,Original*%
%TF.FileFunction,Paste,Top*%
%TF.FilePolarity,Positive*%
%FSLAX46Y46*%
G04 Gerber Fmt 4.6, Leading zero omitted, Abs format (unit mm)*
G04 Created by KiCad (PCBNEW 10.0.3) date 2026-08-18 23:42:30*
%MOMM*%
%LPD*%
G01*
G04 APERTURE LIST*
G04 Aperture macros list*
%AMRoundRect*
0 Rectangle with rounded corners*
0 $1 Rounding radius*
0 $2 $3 $4 $5 $6 $7 $8 $9 X,Y pos of 4 corners*
0 Add a 4 corners polygon primitive as box body*
4,1,4,$2,$3,$4,$5,$6,$7,$8,$9,$2,$3,0*
0 Add four circle primitives for the rounded corners*
1,1,$1+$1,$2,$3*
1,1,$1+$1,$4,$5*
1,1,$1+$1,$6,$7*
1,1,$1+$1,$8,$9*
0 Add four rect primitives between the rounded corners*
20,1,$1+$1,$2,$3,$4,$5,0*
20,1,$1+$1,$4,$5,$6,$7,0*
20,1,$1+$1,$6,$7,$8,$9,0*
20,1,$1+$1,$8,$9,$2,$3,0*%
G04 Aperture macros list end*
%ADD10RoundRect,0.243750X-0.494975X-0.150260X-0.150260X-0.494975X0.494975X0.150260X0.150260X0.494975X0*%
%ADD11R,1.800000X1.100000*%
%ADD12RoundRect,0.150000X0.575000X-0.150000X0.575000X0.150000X-0.575000X0.150000X-0.575000X-0.150000X0*%
%ADD13RoundRect,0.075000X0.650000X-0.075000X0.650000X0.075000X-0.650000X0.075000X-0.650000X-0.075000X0*%
%ADD14RoundRect,0.075000X-0.662500X-0.075000X0.662500X-0.075000X0.662500X0.075000X-0.662500X0.075000X0*%
%ADD15RoundRect,0.075000X-0.075000X-0.662500X0.075000X-0.662500X0.075000X0.662500X-0.075000X0.662500X0*%
%ADD16RoundRect,0.135000X0.226274X0.035355X0.035355X0.226274X-0.226274X-0.035355X-0.035355X-0.226274X0*%
%ADD17RoundRect,0.135000X0.135000X0.185000X-0.135000X0.185000X-0.135000X-0.185000X0.135000X-0.185000X0*%
G04 APERTURE END LIST*
D10*
%TO.C,D1*%
X121337087Y-128837087D03*
X122662913Y-130162913D03*
%TD*%
D11*
%TO.C,SW2*%
X121400000Y-57150000D03*
X127600000Y-57150000D03*
X121400000Y-60850000D03*
X127600000Y-60850000D03*
%TD*%
D12*
%TO.C,J1*%
X189710000Y-102740000D03*
X189710000Y-101940000D03*
D13*
X189710000Y-100740000D03*
X189710000Y-99740000D03*
X189710000Y-99240000D03*
X189710000Y-98240000D03*
D12*
X189710000Y-97040000D03*
X189710000Y-96240000D03*
X189710000Y-96240000D03*
X189710000Y-97040000D03*
D13*
X189710000Y-97740000D03*
X189710000Y-98740000D03*
X189710000Y-100240000D03*
X189710000Y-101240000D03*
D12*
X189710000Y-101940000D03*
X189710000Y-102740000D03*
%TD*%
D14*
%TO.C,U1*%
X139337500Y-91250000D03*
X139337500Y-91750000D03*
X139337500Y-92250000D03*
X139337500Y-92750000D03*
X139337500Y-93250000D03*
X139337500Y-93750000D03*
X139337500Y-94250000D03*
X139337500Y-94750000D03*
X139337500Y-95250000D03*
X139337500Y-95750000D03*
X139337500Y-96250000D03*
X139337500Y-96750000D03*
X139337500Y-97250000D03*
X139337500Y-97750000D03*
X139337500Y-98250000D03*
X139337500Y-98750000D03*
X139337500Y-99250000D03*
X139337500Y-99750000D03*
X139337500Y-100250000D03*
X139337500Y-100750000D03*
X139337500Y-101250000D03*
X139337500Y-101750000D03*
X139337500Y-102250000D03*
X139337500Y-102750000D03*
X139337500Y-103250000D03*
X139337500Y-103750000D03*
X139337500Y-104250000D03*
X139337500Y-104750000D03*
X139337500Y-105250000D03*
X139337500Y-105750000D03*
X139337500Y-106250000D03*
X139337500Y-106750000D03*
X139337500Y-107250000D03*
X139337500Y-107750000D03*
X139337500Y-108250000D03*
X139337500Y-108750000D03*
D15*
X141250000Y-110662500D03*
X141750000Y-110662500D03*
X142250000Y-110662500D03*
X142750000Y-110662500D03*
X143250000Y-110662500D03*
X143750000Y-110662500D03*
X144250000Y-110662500D03*
X144750000Y-110662500D03*
X145250000Y-110662500D03*
X145750000Y-110662500D03*
X146250000Y-110662500D03*
X146750000Y-110662500D03*
X147250000Y-110662500D03*
X147750000Y-110662500D03*
X148250000Y-110662500D03*
X148750000Y-110662500D03*
X149250000Y-110662500D03*
X149750000Y-110662500D03*
X150250000Y-110662500D03*
X150750000Y-110662500D03*
X151250000Y-110662500D03*
X151750000Y-110662500D03*
X152250000Y-110662500D03*
X152750000Y-110662500D03*
X153250000Y-110662500D03*
X153750000Y-110662500D03*
X154250000Y-110662500D03*
X154750000Y-110662500D03*
X155250000Y-110662500D03*
X155750000Y-110662500D03*
X156250000Y-110662500D03*
X156750000Y-110662500D03*
X157250000Y-110662500D03*
X157750000Y-110662500D03*
X158250000Y-110662500D03*
X158750000Y-110662500D03*
D14*
X160662500Y-108750000D03*
X160662500Y-108250000D03*
X160662500Y-107750000D03*
X160662500Y-107250000D03*
X160662500Y-106750000D03*
X160662500Y-106250000D03*
X160662500Y-105750000D03*
X160662500Y-105250000D03*
X160662500Y-104750000D03*
X160662500Y-104250000D03*
X160662500Y-103750000D03*
X160662500Y-103250000D03*
X160662500Y-102750000D03*
X160662500Y-102250000D03*
X160662500Y-101750000D03*
X160662500Y-101250000D03*
X160662500Y-100750000D03*
X160662500Y-100250000D03*
X160662500Y-99750000D03*
X160662500Y-99250000D03*
X160662500Y-98750000D03*
X160662500Y-98250000D03*
X160662500Y-97750000D03*
X160662500Y-97250000D03*
X160662500Y-96750000D03*
X160662500Y-96250000D03*
X160662500Y-95750000D03*
X160662500Y-95250000D03*
X160662500Y-94750000D03*
X160662500Y-94250000D03*
X160662500Y-93750000D03*
X160662500Y-93250000D03*
X160662500Y-92750000D03*
X160662500Y-92250000D03*
X160662500Y-91750000D03*
X160662500Y-91250000D03*
D15*
X158750000Y-89337500D03*
X158250000Y-89337500D03*
X157750000Y-89337500D03*
X157250000Y-89337500D03*
X156750000Y-89337500D03*
X156250000Y-89337500D03*
X155750000Y-89337500D03*
X155250000Y-89337500D03*
X154750000Y-89337500D03*
X154250000Y-89337500D03*
X153750000Y-89337500D03*
X153250000Y-89337500D03*
X152750000Y-89337500D03*
X152250000Y-89337500D03*
X151750000Y-89337500D03*
X151250000Y-89337500D03*
X150750000Y-89337500D03*
X150250000Y-89337500D03*
X149750000Y-89337500D03*
X149250000Y-89337500D03*
X148750000Y-89337500D03*
X148250000Y-89337500D03*
X147750000Y-89337500D03*
X147250000Y-89337500D03*
X146750000Y-89337500D03*
X146250000Y-89337500D03*
X145750000Y-89337500D03*
X145250000Y-89337500D03*
X144750000Y-89337500D03*
X144250000Y-89337500D03*
X143750000Y-89337500D03*
X143250000Y-89337500D03*
X142750000Y-89337500D03*
X142250000Y-89337500D03*
X141750000Y-89337500D03*
X141250000Y-89337500D03*
%TD*%
D16*
%TO.C,R5*%
X119360624Y-126860624D03*
X118639376Y-126139376D03*
%TD*%
D11*
%TO.C,SW1*%
X117900000Y-67150000D03*
X124100000Y-67150000D03*
X117900000Y-70850000D03*
X124100000Y-70850000D03*
%TD*%
D17*
%TO.C,R4*%
X119710000Y-59000000D03*
X118690000Y-59000000D03*
%TD*%
M02*
