%TF.GenerationSoftware,KiCad,Pcbnew,10.0.5*%
%TF.CreationDate,2026-10-09T13:46:10+01:00*%
%TF.ProjectId,Volt-Unit,566f6c74-2d55-46e6-9974-2e6b69636164,rev?*%
%TF.SameCoordinates,Original*%
%TF.FileFunction,Copper,L1,Top*%
%TF.FilePolarity,Positive*%
%FSLAX46Y46*%
G04 Gerber Fmt 4.6, Leading zero omitted, Abs format (unit mm)*
G04 Created by KiCad (PCBNEW 10.0.5) date 2026-10-09 13:46:10*
%MOMM*%
%LPD*%
G01*
G04 APERTURE LIST*
G04 Aperture macros list*
%AMRoundRect*
0 Rectangle with rounded corners*
0 $1 Rounding radius*
0 $2 $3 $4 $5 $6 $7 $8 $9 X,Y pos of 4 corners*
0 Add a 4 corners polygon primitive as box body*
4,1,4,$2,$3,$4,$5,$6,$7,$8,$9,$2,$3,0*
0 Add four circle primitives for the rounded corners*
1,1,$1+$1,$2,$3*
1,1,$1+$1,$4,$5*
1,1,$1+$1,$6,$7*
1,1,$1+$1,$8,$9*
0 Add four rect primitives between the rounded corners*
20,1,$1+$1,$2,$3,$4,$5,0*
20,1,$1+$1,$4,$5,$6,$7,0*
20,1,$1+$1,$6,$7,$8,$9,0*
20,1,$1+$1,$8,$9,$2,$3,0*%
G04 Aperture macros list end*
%TA.AperFunction,SMDPad,CuDef*%
%ADD10RoundRect,0.135000X-0.135000X-0.185000X0.135000X-0.185000X0.135000X0.185000X-0.135000X0.185000X0*%
%TD*%
%TA.AperFunction,SMDPad,CuDef*%
%ADD11RoundRect,0.140000X0.140000X0.170000X-0.140000X0.170000X-0.140000X-0.170000X0.140000X-0.170000X0*%
%TD*%
%TA.AperFunction,SMDPad,CuDef*%
%ADD12RoundRect,0.250000X-0.450000X0.262500X-0.450000X-0.262500X0.450000X-0.262500X0.450000X0.262500X0*%
%TD*%
%TA.AperFunction,SMDPad,CuDef*%
%ADD13RoundRect,0.140000X0.170000X-0.140000X0.170000X0.140000X-0.170000X0.140000X-0.170000X-0.140000X0*%
%TD*%
%TA.AperFunction,ComponentPad*%
%ADD14R,1.700000X1.700000*%
%TD*%
%TA.AperFunction,ComponentPad*%
%ADD15C,1.700000*%
%TD*%
%TA.AperFunction,SMDPad,CuDef*%
%ADD16RoundRect,0.135000X-0.185000X0.135000X-0.185000X-0.135000X0.185000X-0.135000X0.185000X0.135000X0*%
%TD*%
%TA.AperFunction,SMDPad,CuDef*%
%ADD17RoundRect,0.135000X0.185000X-0.135000X0.185000X0.135000X-0.185000X0.135000X-0.185000X-0.135000X0*%
%TD*%
%TA.AperFunction,SMDPad,CuDef*%
%ADD18RoundRect,0.150000X-0.150000X0.587500X-0.150000X-0.587500X0.150000X-0.587500X0.150000X0.587500X0*%
%TD*%
%TA.AperFunction,SMDPad,CuDef*%
%ADD19RoundRect,0.150000X0.825000X0.150000X-0.825000X0.150000X-0.825000X-0.150000X0.825000X-0.150000X0*%
%TD*%
%TA.AperFunction,SMDPad,CuDef*%
%ADD20RoundRect,0.150000X0.587500X0.150000X-0.587500X0.150000X-0.587500X-0.150000X0.587500X-0.150000X0*%
%TD*%
%TA.AperFunction,ViaPad*%
%ADD21C,0.500000*%
%TD*%
%TA.AperFunction,Conductor*%
%ADD22C,0.250000*%
%TD*%
G04 APERTURE END LIST*
D10*
%TO.P,R3,1*%
%TO.N,INP*%
X116020000Y-104250000D03*
%TO.P,R3,2*%
%TO.N,VREF*%
X117040000Y-104250000D03*
%TD*%
D11*
%TO.P,C2,1*%
%TO.N,VREFD*%
X115980000Y-99000000D03*
%TO.P,C2,2*%
%TO.N,GND*%
X115020000Y-99000000D03*
%TD*%
D12*
%TO.P,R2,1*%
%TO.N,VIN-*%
X125500000Y-95677500D03*
%TO.P,R2,2*%
%TO.N,FB*%
X125500000Y-97502500D03*
%TD*%
D10*
%TO.P,R7,1*%
%TO.N,AOUT*%
X122980000Y-107000000D03*
%TO.P,R7,2*%
%TO.N,OUT*%
X124000000Y-107000000D03*
%TD*%
D12*
%TO.P,R1,1*%
%TO.N,VIN+*%
X113500000Y-95497500D03*
%TO.P,R1,2*%
%TO.N,INP*%
X113500000Y-97322500D03*
%TD*%
D11*
%TO.P,C3,1*%
%TO.N,+3V3*%
X126500000Y-99000000D03*
%TO.P,C3,2*%
%TO.N,GND*%
X125540000Y-99000000D03*
%TD*%
D13*
%TO.P,C1,1*%
%TO.N,OUT*%
X126500000Y-108460000D03*
%TO.P,C1,2*%
%TO.N,GND*%
X126500000Y-107500000D03*
%TD*%
D14*
%TO.P,J1,1*%
%TO.N,+3V3*%
X117500000Y-110000000D03*
D15*
%TO.P,J1,2*%
%TO.N,GND*%
X120040000Y-110000000D03*
%TO.P,J1,3*%
%TO.N,OUT*%
X122580000Y-110000000D03*
%TD*%
D16*
%TO.P,R4,1*%
%TO.N,FB*%
X122520000Y-104740000D03*
%TO.P,R4,2*%
%TO.N,AOUT*%
X122520000Y-105760000D03*
%TD*%
D10*
%TO.P,R6,1*%
%TO.N,VREFD*%
X117500000Y-107000000D03*
%TO.P,R6,2*%
%TO.N,GND*%
X118520000Y-107000000D03*
%TD*%
D14*
%TO.P,J2,1*%
%TO.N,VIN+*%
X119460000Y-96000000D03*
D15*
%TO.P,J2,2*%
%TO.N,VIN-*%
X122000000Y-96000000D03*
%TD*%
D17*
%TO.P,R5,1*%
%TO.N,+3V3*%
X114500000Y-108020000D03*
%TO.P,R5,2*%
%TO.N,VREFD*%
X114500000Y-107000000D03*
%TD*%
D18*
%TO.P,D1,1*%
%TO.N,GND*%
X115510000Y-101002500D03*
%TO.P,D1,2*%
%TO.N,+3V3*%
X113610000Y-101002500D03*
%TO.P,D1,3*%
%TO.N,INP*%
X114560000Y-102877500D03*
%TD*%
D19*
%TO.P,U1,1*%
%TO.N,AOUT*%
X123005000Y-102815000D03*
%TO.P,U1,2*%
%TO.N,FB*%
X123005000Y-101545000D03*
%TO.P,U1,3*%
%TO.N,INP*%
X123005000Y-100275000D03*
%TO.P,U1,4*%
%TO.N,GND*%
X123005000Y-99005000D03*
%TO.P,U1,5*%
%TO.N,VREFD*%
X118055000Y-99005000D03*
%TO.P,U1,6*%
%TO.N,VREF*%
X118055000Y-100275000D03*
%TO.P,U1,7*%
X118055000Y-101545000D03*
%TO.P,U1,8*%
%TO.N,+3V3*%
X118055000Y-102815000D03*
%TD*%
D20*
%TO.P,D2,1*%
%TO.N,GND*%
X126497500Y-105450000D03*
%TO.P,D2,2*%
%TO.N,+3V3*%
X126497500Y-103550000D03*
%TO.P,D2,3*%
%TO.N,FB*%
X124622500Y-104500000D03*
%TD*%
D21*
%TO.N,VREFD*%
X115900000Y-107600000D03*
X116700000Y-99750000D03*
%TO.N,GND*%
X120800000Y-106200000D03*
X125700000Y-100700000D03*
X115400000Y-100200000D03*
X127200000Y-110700000D03*
X113000000Y-110700000D03*
X120700000Y-94650000D03*
X125850000Y-105900000D03*
X120600000Y-98300000D03*
X117800000Y-105500000D03*
X126900000Y-94600000D03*
%TO.N,+3V3*%
X127350000Y-104500000D03*
X115900000Y-109200000D03*
%TD*%
%TO.N,INP*%
D22*
X114562000Y-103600000D02*
X115400000Y-104251000D01*
X124350000Y-98150000D02*
X124350000Y-99800000D01*
X114562000Y-102875000D02*
X114562000Y-103600000D01*
X113500000Y-98000000D02*
X114400000Y-98700000D01*
X114400000Y-98700000D02*
X114400000Y-102300000D01*
X113780000Y-97600000D02*
X123900000Y-97600000D01*
X124350000Y-99800000D02*
X123780000Y-100270000D01*
X113500000Y-97325000D02*
X113780000Y-97600000D01*
X123900000Y-97600000D02*
X124350000Y-98150000D01*
X113500000Y-97325000D02*
X113500000Y-98000000D01*
X114400000Y-102300000D02*
X114562000Y-102875000D01*
X115400000Y-104251000D02*
X116022000Y-104251000D01*
X123780000Y-100270000D02*
X123000000Y-100270000D01*
%TO.N,VREF*%
X116650000Y-103800000D02*
X116650000Y-102100000D01*
X117042000Y-104251000D02*
X116650000Y-103800000D01*
X118050000Y-100270000D02*
X118050000Y-101540000D01*
X117300000Y-101540000D02*
X118050000Y-101540000D01*
X116650000Y-102100000D02*
X117300000Y-101540000D01*
%TO.N,VREFD*%
X116700000Y-99000000D02*
X116700000Y-99750000D01*
X115900000Y-107600000D02*
X115900000Y-107000000D01*
X114795000Y-107000000D02*
X117205000Y-107000000D01*
X115980000Y-99000000D02*
X118050000Y-99000000D01*
%TO.N,GND*%
X125540000Y-100200000D02*
X125700000Y-100700000D01*
X115020000Y-99295000D02*
X115513000Y-100600000D01*
X125540000Y-99295000D02*
X125540000Y-100200000D01*
X115513000Y-100600000D02*
X115513000Y-101000000D01*
%TO.N,VIN-*%
X123200000Y-95000000D02*
X125000000Y-95000000D01*
X122000000Y-96000000D02*
X123200000Y-95000000D01*
X125000000Y-95000000D02*
X125500000Y-95675000D01*
%TO.N,FB*%
X124625000Y-104500000D02*
X123500000Y-104740000D01*
X124900000Y-101200000D02*
X124000000Y-101540000D01*
X125500000Y-98100000D02*
X124900000Y-98550000D01*
X124900000Y-98550000D02*
X124900000Y-103900000D01*
X125500000Y-97500000D02*
X125500000Y-98100000D01*
X124000000Y-101540000D02*
X123000000Y-101540000D01*
X124900000Y-103900000D02*
X124625000Y-104500000D01*
X123500000Y-104740000D02*
X122518000Y-104740000D01*
%TO.N,AOUT*%
X122980000Y-106800000D02*
X122980000Y-107000000D01*
X122518000Y-106300000D02*
X122980000Y-106800000D01*
X123000000Y-102810000D02*
X123000000Y-103300000D01*
X122518000Y-105760000D02*
X122518000Y-106300000D01*
X121800000Y-105760000D02*
X122223000Y-105760000D01*
X121800000Y-104000000D02*
X121800000Y-105760000D01*
X123000000Y-103300000D02*
X121800000Y-104000000D01*
%TO.N,OUT*%
X124000000Y-107000000D02*
X125200000Y-107800000D01*
X125200000Y-107800000D02*
X126500000Y-108460000D01*
X124000000Y-107000000D02*
X123200000Y-108600000D01*
X123200000Y-108600000D02*
X122580000Y-110000000D01*
%TO.N,VIN+*%
X119460000Y-96000000D02*
X118300000Y-95000000D01*
X114100000Y-95000000D02*
X113500000Y-95500000D01*
X118300000Y-95000000D02*
X114100000Y-95000000D01*
%TO.N,+3V3*%
X119250000Y-108500000D02*
X119250000Y-103900000D01*
X114500000Y-108020000D02*
X113500000Y-108020000D01*
X113500000Y-108020000D02*
X112750000Y-107300000D01*
X112750000Y-101400000D02*
X113200000Y-101000000D01*
X119250000Y-103900000D02*
X118500000Y-103300000D01*
X114600000Y-108300000D02*
X114500000Y-108020000D01*
X117500000Y-110000000D02*
X115100000Y-108600000D01*
X115100000Y-108600000D02*
X114600000Y-108300000D01*
X118500000Y-103300000D02*
X118300000Y-103110000D01*
X118600000Y-109000000D02*
X119250000Y-108500000D01*
X126500000Y-101500000D02*
X127350000Y-102200000D01*
X117500000Y-110000000D02*
X118600000Y-109000000D01*
X118300000Y-103110000D02*
X118300000Y-102810000D01*
X112750000Y-107300000D02*
X112750000Y-101400000D01*
X126500000Y-99000000D02*
X126500000Y-103550000D01*
X115900000Y-109200000D02*
X116250000Y-109270000D01*
X127350000Y-102200000D02*
X127350000Y-104500000D01*
%TD*%
%TA.AperFunction,Conductor*%
%TO.N,GND*%
G36*
X123733334Y-97994407D02*
G01*
X123751765Y-98011809D01*
X123775520Y-98040843D01*
X123930745Y-98230562D01*
X123941175Y-98243309D01*
X123963390Y-98300319D01*
X123947853Y-98359499D01*
X123900498Y-98398244D01*
X123864553Y-98405000D01*
X123205001Y-98405000D01*
X123205000Y-98405001D01*
X123205000Y-98906000D01*
X123186093Y-98964191D01*
X123136593Y-99000155D01*
X123106000Y-99005000D01*
X123005001Y-99005000D01*
X123005000Y-99005001D01*
X123005000Y-99106000D01*
X122986093Y-99164191D01*
X122936593Y-99200155D01*
X122906000Y-99205000D01*
X121730002Y-99205000D01*
X121730001Y-99205001D01*
X121730001Y-99209203D01*
X121732850Y-99239600D01*
X121732850Y-99239602D01*
X121777654Y-99367647D01*
X121858207Y-99476790D01*
X121858209Y-99476792D01*
X121967353Y-99557345D01*
X122012285Y-99573067D01*
X122060966Y-99610132D01*
X122078564Y-99668732D01*
X122058357Y-99726484D01*
X122024535Y-99754721D01*
X121941659Y-99796949D01*
X121851949Y-99886659D01*
X121794354Y-99999695D01*
X121779500Y-100093477D01*
X121779500Y-100456520D01*
X121779501Y-100456523D01*
X121794352Y-100550299D01*
X121794354Y-100550304D01*
X121851950Y-100663342D01*
X121941658Y-100753050D01*
X122054696Y-100810646D01*
X122064625Y-100812218D01*
X122119140Y-100839993D01*
X122146919Y-100894509D01*
X122137349Y-100954941D01*
X122094086Y-100998207D01*
X122064628Y-101007780D01*
X122054698Y-101009353D01*
X122054695Y-101009354D01*
X121941659Y-101066949D01*
X121851949Y-101156659D01*
X121794354Y-101269695D01*
X121779500Y-101363477D01*
X121779500Y-101726520D01*
X121779501Y-101726523D01*
X121794352Y-101820299D01*
X121794354Y-101820304D01*
X121851950Y-101933342D01*
X121941658Y-102023050D01*
X122054696Y-102080646D01*
X122064625Y-102082218D01*
X122119140Y-102109993D01*
X122146919Y-102164509D01*
X122137349Y-102224941D01*
X122094086Y-102268207D01*
X122064628Y-102277780D01*
X122054698Y-102279353D01*
X122054695Y-102279354D01*
X121941659Y-102336949D01*
X121851949Y-102426659D01*
X121794354Y-102539695D01*
X121779500Y-102633477D01*
X121779500Y-102996520D01*
X121779501Y-102996523D01*
X121794352Y-103090299D01*
X121794354Y-103090304D01*
X121851950Y-103203342D01*
X121941658Y-103293050D01*
X121953548Y-103299108D01*
X121996812Y-103342372D01*
X122006383Y-103402805D01*
X121978605Y-103457321D01*
X121958485Y-103472831D01*
X121741442Y-103599440D01*
X121621447Y-103669438D01*
X121611958Y-103674973D01*
X121611577Y-103675195D01*
X121569402Y-103699545D01*
X121569069Y-103699804D01*
X121568693Y-103700095D01*
X121568127Y-103700528D01*
X121534129Y-103734830D01*
X121533822Y-103735138D01*
X121499499Y-103769463D01*
X121499145Y-103769930D01*
X121498807Y-103770372D01*
X121498511Y-103770757D01*
X121474399Y-103812954D01*
X121474256Y-103813202D01*
X121471460Y-103818047D01*
X121450076Y-103855084D01*
X121449919Y-103855471D01*
X121449713Y-103855971D01*
X121449454Y-103856594D01*
X121437212Y-103903116D01*
X121437099Y-103903543D01*
X121424492Y-103950592D01*
X121424432Y-103951071D01*
X121424375Y-103951514D01*
X121424282Y-103952213D01*
X121424437Y-103986681D01*
X121424500Y-104000785D01*
X121424500Y-105809435D01*
X121425361Y-105812647D01*
X121450091Y-105904942D01*
X121499523Y-105990559D01*
X121499525Y-105990562D01*
X121569438Y-106060475D01*
X121569440Y-106060476D01*
X121655058Y-106109908D01*
X121655056Y-106109908D01*
X121655060Y-106109909D01*
X121655062Y-106109910D01*
X121750565Y-106135500D01*
X121849435Y-106135500D01*
X121989314Y-106135500D01*
X122016259Y-106144255D01*
X122043589Y-106151704D01*
X122046518Y-106154086D01*
X122047505Y-106154407D01*
X122048477Y-106155679D01*
X122059317Y-106164496D01*
X122113503Y-106218681D01*
X122141281Y-106273197D01*
X122142500Y-106288685D01*
X122142500Y-106290623D01*
X122142423Y-106294531D01*
X122140840Y-106334581D01*
X122141433Y-106341038D01*
X122141170Y-106341062D01*
X122141391Y-106343034D01*
X122141653Y-106343000D01*
X122142500Y-106349436D01*
X122152868Y-106388132D01*
X122153804Y-106391921D01*
X122162642Y-106431015D01*
X122164887Y-106437103D01*
X122164642Y-106437193D01*
X122165366Y-106439044D01*
X122165608Y-106438945D01*
X122168089Y-106444936D01*
X122188128Y-106479644D01*
X122190015Y-106483068D01*
X122208656Y-106518519D01*
X122212400Y-106523818D01*
X122212186Y-106523969D01*
X122213373Y-106525580D01*
X122213581Y-106525421D01*
X122217525Y-106530562D01*
X122245864Y-106558901D01*
X122248572Y-106561719D01*
X122433212Y-106761545D01*
X122458816Y-106817114D01*
X122459500Y-106828730D01*
X122459500Y-107221582D01*
X122470418Y-107296518D01*
X122526924Y-107412102D01*
X122617898Y-107503076D01*
X122733482Y-107559582D01*
X122808418Y-107570500D01*
X122808421Y-107570500D01*
X123134743Y-107570500D01*
X123192934Y-107589407D01*
X123228898Y-107638907D01*
X123228898Y-107700093D01*
X123223291Y-107713774D01*
X122887047Y-108386260D01*
X122880027Y-108397186D01*
X122880060Y-108397207D01*
X122876679Y-108402749D01*
X122861150Y-108437812D01*
X122859181Y-108441992D01*
X122842037Y-108476281D01*
X122839918Y-108482415D01*
X122839879Y-108482401D01*
X122835925Y-108494773D01*
X122682779Y-108840588D01*
X122641928Y-108886138D01*
X122592258Y-108899500D01*
X122493386Y-108899500D01*
X122322297Y-108926597D01*
X122322293Y-108926598D01*
X122157561Y-108980123D01*
X122157558Y-108980125D01*
X122003214Y-109058766D01*
X121863073Y-109160585D01*
X121740585Y-109283073D01*
X121638766Y-109423214D01*
X121560125Y-109577558D01*
X121560123Y-109577561D01*
X121506598Y-109742293D01*
X121506597Y-109742297D01*
X121479500Y-109913385D01*
X121479500Y-110086614D01*
X121506597Y-110257702D01*
X121506598Y-110257706D01*
X121560123Y-110422438D01*
X121560125Y-110422441D01*
X121560126Y-110422444D01*
X121560127Y-110422445D01*
X121638768Y-110576788D01*
X121740586Y-110716928D01*
X121863072Y-110839414D01*
X122003212Y-110941232D01*
X122157555Y-111019873D01*
X122157557Y-111019873D01*
X122157558Y-111019874D01*
X122157561Y-111019876D01*
X122322293Y-111073401D01*
X122322297Y-111073402D01*
X122493386Y-111100500D01*
X122493389Y-111100500D01*
X122666614Y-111100500D01*
X122837702Y-111073402D01*
X122837706Y-111073401D01*
X123002438Y-111019876D01*
X123002440Y-111019874D01*
X123002445Y-111019873D01*
X123156788Y-110941232D01*
X123296928Y-110839414D01*
X123419414Y-110716928D01*
X123521232Y-110576788D01*
X123599873Y-110422445D01*
X123599874Y-110422440D01*
X123599876Y-110422438D01*
X123653401Y-110257706D01*
X123653402Y-110257702D01*
X123680500Y-110086614D01*
X123680500Y-109913385D01*
X123653402Y-109742297D01*
X123653401Y-109742293D01*
X123599876Y-109577561D01*
X123599874Y-109577558D01*
X123599873Y-109577557D01*
X123599873Y-109577555D01*
X123521232Y-109423212D01*
X123419414Y-109283072D01*
X123419411Y-109283069D01*
X123390324Y-109253981D01*
X123362548Y-109199464D01*
X123369808Y-109143891D01*
X123538865Y-108762149D01*
X123540822Y-108757996D01*
X124095479Y-107648683D01*
X124138412Y-107605094D01*
X124198769Y-107595064D01*
X124238939Y-107610586D01*
X124963319Y-108093508D01*
X124974531Y-108102205D01*
X124982811Y-108109638D01*
X124985936Y-108112444D01*
X125004973Y-108122108D01*
X125015077Y-108128013D01*
X125032841Y-108139856D01*
X125032842Y-108139856D01*
X125032843Y-108139857D01*
X125047345Y-108144763D01*
X125060434Y-108150265D01*
X125404835Y-108325115D01*
X125888555Y-108570696D01*
X125931882Y-108613898D01*
X125941519Y-108643483D01*
X125948713Y-108688899D01*
X125952757Y-108714437D01*
X125953983Y-108722174D01*
X125953984Y-108722178D01*
X125993380Y-108799496D01*
X126010141Y-108832391D01*
X126097609Y-108919859D01*
X126207825Y-108976017D01*
X126299265Y-108990500D01*
X126700734Y-108990499D01*
X126700737Y-108990499D01*
X126727332Y-108986286D01*
X126792175Y-108976017D01*
X126902391Y-108919859D01*
X126989859Y-108832391D01*
X127046017Y-108722175D01*
X127060500Y-108630735D01*
X127060499Y-108289266D01*
X127060499Y-108289262D01*
X127054882Y-108253801D01*
X127046017Y-108197825D01*
X126989859Y-108087609D01*
X126989855Y-108087605D01*
X126985278Y-108081304D01*
X126986554Y-108080376D01*
X126962858Y-108033869D01*
X126972429Y-107973437D01*
X126980985Y-107959592D01*
X127063405Y-107847920D01*
X127107211Y-107722729D01*
X127107212Y-107722727D01*
X127109344Y-107700000D01*
X125856205Y-107700000D01*
X125811388Y-107689275D01*
X125395020Y-107477888D01*
X125384922Y-107471986D01*
X125301969Y-107416684D01*
X125126943Y-107300000D01*
X125890656Y-107300000D01*
X126299999Y-107300000D01*
X126300000Y-107299999D01*
X126300000Y-106920001D01*
X126700000Y-106920001D01*
X126700000Y-107299999D01*
X126700001Y-107300000D01*
X127109343Y-107300000D01*
X127109343Y-107299999D01*
X127107213Y-107277279D01*
X127107212Y-107277273D01*
X127063405Y-107152079D01*
X126984641Y-107045360D01*
X126984639Y-107045358D01*
X126877920Y-106966594D01*
X126752727Y-106922787D01*
X126723000Y-106920000D01*
X126700001Y-106920000D01*
X126700000Y-106920001D01*
X126300000Y-106920001D01*
X126300000Y-106920000D01*
X126299999Y-106919999D01*
X126276997Y-106920000D01*
X126276996Y-106920000D01*
X126247278Y-106922786D01*
X126247273Y-106922787D01*
X126122079Y-106966594D01*
X126015360Y-107045358D01*
X126015358Y-107045360D01*
X125936594Y-107152079D01*
X125892788Y-107277270D01*
X125892787Y-107277272D01*
X125890656Y-107300000D01*
X125126943Y-107300000D01*
X124564585Y-106925094D01*
X124526655Y-106877084D01*
X124520500Y-106842721D01*
X124520500Y-106778421D01*
X124518041Y-106761544D01*
X124509582Y-106703482D01*
X124453076Y-106587898D01*
X124362102Y-106496924D01*
X124246518Y-106440418D01*
X124171582Y-106429500D01*
X123828418Y-106429500D01*
X123753489Y-106440417D01*
X123753482Y-106440418D01*
X123637899Y-106496923D01*
X123637898Y-106496923D01*
X123637898Y-106496924D01*
X123560001Y-106574820D01*
X123505487Y-106602596D01*
X123445055Y-106593025D01*
X123419999Y-106574821D01*
X123342102Y-106496924D01*
X123226518Y-106440418D01*
X123226515Y-106440417D01*
X123226514Y-106440417D01*
X123183162Y-106434100D01*
X123128306Y-106407000D01*
X123124725Y-106403321D01*
X123005436Y-106274221D01*
X122979832Y-106218651D01*
X122991781Y-106158644D01*
X123008142Y-106137035D01*
X123023076Y-106122102D01*
X123079582Y-106006518D01*
X123090500Y-105931582D01*
X123090500Y-105650001D01*
X125460001Y-105650001D01*
X125460001Y-105654203D01*
X125462850Y-105684600D01*
X125462850Y-105684602D01*
X125507654Y-105812647D01*
X125588207Y-105921790D01*
X125588209Y-105921792D01*
X125697352Y-106002345D01*
X125825398Y-106047149D01*
X125855789Y-106049999D01*
X126297498Y-106049999D01*
X126297500Y-106049998D01*
X126297500Y-105650001D01*
X126297499Y-105650000D01*
X125460002Y-105650000D01*
X125460001Y-105650001D01*
X123090500Y-105650001D01*
X123090500Y-105588418D01*
X123079582Y-105513482D01*
X123023076Y-105397898D01*
X122945179Y-105320001D01*
X122917404Y-105265487D01*
X122926975Y-105205055D01*
X122945179Y-105179998D01*
X122980683Y-105144495D01*
X123035200Y-105116719D01*
X123050686Y-105115500D01*
X123487762Y-105115500D01*
X123492870Y-105115632D01*
X123529995Y-105117550D01*
X123529995Y-105117549D01*
X123529997Y-105117550D01*
X123529998Y-105117549D01*
X123532506Y-105117350D01*
X123546962Y-105115825D01*
X123549430Y-105115500D01*
X123549435Y-105115500D01*
X123585412Y-105105859D01*
X123590291Y-105104686D01*
X123894139Y-105039865D01*
X123930279Y-105038906D01*
X124003481Y-105050500D01*
X125241518Y-105050499D01*
X125241521Y-105050499D01*
X125241522Y-105050498D01*
X125308658Y-105039866D01*
X125335299Y-105035647D01*
X125335301Y-105035646D01*
X125335304Y-105035646D01*
X125347164Y-105029602D01*
X125407594Y-105020029D01*
X125462112Y-105047805D01*
X125489892Y-105102320D01*
X125485556Y-105150508D01*
X125462850Y-105215398D01*
X125460000Y-105245788D01*
X125460000Y-105249999D01*
X125460001Y-105250000D01*
X126297499Y-105250000D01*
X126297500Y-105249999D01*
X126297500Y-104850001D01*
X126297499Y-104850000D01*
X125855796Y-104850000D01*
X125825399Y-104852850D01*
X125825397Y-104852850D01*
X125725561Y-104887784D01*
X125664391Y-104889156D01*
X125614097Y-104854312D01*
X125593889Y-104796559D01*
X125595083Y-104778851D01*
X125595644Y-104775307D01*
X125595646Y-104775304D01*
X125610500Y-104681519D01*
X125610499Y-104318482D01*
X125605501Y-104286923D01*
X125595647Y-104224700D01*
X125595646Y-104224695D01*
X125571989Y-104178267D01*
X125562417Y-104117835D01*
X125590194Y-104063318D01*
X125644710Y-104035540D01*
X125705141Y-104045110D01*
X125784696Y-104085646D01*
X125878481Y-104100500D01*
X126831250Y-104100499D01*
X126889441Y-104119406D01*
X126925405Y-104168906D01*
X126925405Y-104230092D01*
X126916987Y-104248998D01*
X126883609Y-104306810D01*
X126883608Y-104306814D01*
X126849500Y-104434108D01*
X126849500Y-104565892D01*
X126875279Y-104662100D01*
X126883609Y-104693189D01*
X126888408Y-104701501D01*
X126901129Y-104761349D01*
X126876242Y-104817245D01*
X126823253Y-104847837D01*
X126802671Y-104850000D01*
X126697501Y-104850000D01*
X126697500Y-104850001D01*
X126697500Y-106049998D01*
X126697501Y-106049999D01*
X127139203Y-106049999D01*
X127169600Y-106047149D01*
X127169602Y-106047149D01*
X127297647Y-106002345D01*
X127406790Y-105921792D01*
X127406792Y-105921790D01*
X127487344Y-105812647D01*
X127507055Y-105756318D01*
X127544120Y-105707637D01*
X127602721Y-105690040D01*
X127660473Y-105710248D01*
X127695317Y-105760542D01*
X127699500Y-105789015D01*
X127699500Y-110795138D01*
X127699023Y-110804842D01*
X127683171Y-110965780D01*
X127679385Y-110984814D01*
X127633860Y-111134891D01*
X127626433Y-111152822D01*
X127552502Y-111291136D01*
X127541720Y-111307272D01*
X127442227Y-111428504D01*
X127428504Y-111442227D01*
X127307272Y-111541720D01*
X127291136Y-111552502D01*
X127152822Y-111626433D01*
X127134891Y-111633860D01*
X126984814Y-111679385D01*
X126965780Y-111683171D01*
X126804843Y-111699023D01*
X126795139Y-111699500D01*
X113204861Y-111699500D01*
X113195157Y-111699023D01*
X113034219Y-111683171D01*
X113015185Y-111679385D01*
X112865108Y-111633860D01*
X112847177Y-111626433D01*
X112708863Y-111552502D01*
X112692727Y-111541720D01*
X112571495Y-111442227D01*
X112557772Y-111428504D01*
X112458279Y-111307272D01*
X112447497Y-111291136D01*
X112373566Y-111152822D01*
X112366139Y-111134891D01*
X112320614Y-110984814D01*
X112316828Y-110965780D01*
X112315051Y-110947742D01*
X112300977Y-110804842D01*
X112300500Y-110795138D01*
X112300500Y-107621280D01*
X112319407Y-107563089D01*
X112368907Y-107527125D01*
X112430093Y-107527125D01*
X112468060Y-107549862D01*
X112478184Y-107559581D01*
X112486441Y-107567508D01*
X112487884Y-107568921D01*
X112519439Y-107600476D01*
X112521786Y-107602277D01*
X112530080Y-107609402D01*
X113064149Y-108122108D01*
X113236441Y-108287508D01*
X113237884Y-108288921D01*
X113269441Y-108320478D01*
X113271792Y-108322282D01*
X113272017Y-108322475D01*
X113272968Y-108323190D01*
X113273216Y-108323352D01*
X113275613Y-108325115D01*
X113299026Y-108338002D01*
X113314727Y-108346645D01*
X113316373Y-108347573D01*
X113355062Y-108369910D01*
X113355064Y-108369910D01*
X113355067Y-108369912D01*
X113357797Y-108371043D01*
X113358068Y-108371173D01*
X113359197Y-108371627D01*
X113359469Y-108371716D01*
X113362230Y-108372794D01*
X113362232Y-108372795D01*
X113405537Y-108383456D01*
X113407495Y-108383959D01*
X113450565Y-108395500D01*
X113450576Y-108395500D01*
X113453503Y-108395886D01*
X113453799Y-108395941D01*
X113454997Y-108396087D01*
X113455296Y-108396104D01*
X113458234Y-108396429D01*
X113458236Y-108396430D01*
X113458237Y-108396429D01*
X113458238Y-108396430D01*
X113489838Y-108395785D01*
X113502785Y-108395520D01*
X113504805Y-108395500D01*
X113969314Y-108395500D01*
X114027505Y-108414407D01*
X114039317Y-108424496D01*
X114083438Y-108468616D01*
X114087898Y-108473076D01*
X114203482Y-108529582D01*
X114278418Y-108540500D01*
X114278424Y-108540500D01*
X114280085Y-108540742D01*
X114329902Y-108563253D01*
X114339157Y-108571114D01*
X114346233Y-108577748D01*
X114364417Y-108596554D01*
X114364418Y-108596555D01*
X114373414Y-108601953D01*
X114386571Y-108611391D01*
X114394574Y-108618189D01*
X114394575Y-108618189D01*
X114394576Y-108618190D01*
X114413099Y-108626964D01*
X114418213Y-108629386D01*
X114426768Y-108633964D01*
X114847056Y-108886138D01*
X114859170Y-108893406D01*
X114867411Y-108899041D01*
X114893113Y-108914033D01*
X114903100Y-108919859D01*
X114908225Y-108922848D01*
X114909170Y-108923406D01*
X114949197Y-108947423D01*
X114949198Y-108947423D01*
X114949878Y-108947831D01*
X114958789Y-108952344D01*
X115350383Y-109180773D01*
X115391120Y-109226425D01*
X115398080Y-109259533D01*
X115398653Y-109259458D01*
X115399499Y-109265889D01*
X115433609Y-109393190D01*
X115499496Y-109507309D01*
X115499498Y-109507311D01*
X115499500Y-109507314D01*
X115592686Y-109600500D01*
X115592688Y-109600501D01*
X115592690Y-109600503D01*
X115706810Y-109666390D01*
X115706808Y-109666390D01*
X115706812Y-109666391D01*
X115706814Y-109666392D01*
X115834108Y-109700500D01*
X115834110Y-109700500D01*
X115965890Y-109700500D01*
X115965892Y-109700500D01*
X116093186Y-109666392D01*
X116093197Y-109666385D01*
X116099181Y-109663908D01*
X116100298Y-109666605D01*
X116148258Y-109656364D01*
X116187885Y-109669316D01*
X116350383Y-109764107D01*
X116391120Y-109809759D01*
X116399500Y-109849621D01*
X116399500Y-110874672D01*
X116399501Y-110874684D01*
X116414033Y-110947736D01*
X116414035Y-110947742D01*
X116469397Y-111030599D01*
X116469400Y-111030602D01*
X116533455Y-111073401D01*
X116552260Y-111085966D01*
X116607808Y-111097015D01*
X116625315Y-111100498D01*
X116625320Y-111100498D01*
X116625326Y-111100500D01*
X116625327Y-111100500D01*
X118374673Y-111100500D01*
X118374674Y-111100500D01*
X118447740Y-111085966D01*
X118530601Y-111030601D01*
X118585966Y-110947740D01*
X118600500Y-110874674D01*
X118600500Y-109550813D01*
X118619407Y-109492622D01*
X118632901Y-109477563D01*
X118838192Y-109290934D01*
X118844383Y-109285754D01*
X118965269Y-109192765D01*
X119022918Y-109172273D01*
X119081605Y-109189581D01*
X119118910Y-109238078D01*
X119120585Y-109299240D01*
X119105722Y-109329426D01*
X119056430Y-109397271D01*
X118974250Y-109558559D01*
X118918316Y-109730710D01*
X118890000Y-109909489D01*
X118890000Y-110090510D01*
X118918316Y-110269289D01*
X118974250Y-110441440D01*
X119056430Y-110602728D01*
X119097668Y-110659488D01*
X119571980Y-110185176D01*
X119574075Y-110192993D01*
X119639901Y-110307007D01*
X119732993Y-110400099D01*
X119847007Y-110465925D01*
X119854821Y-110468019D01*
X119380511Y-110942330D01*
X119437275Y-110983571D01*
X119598559Y-111065749D01*
X119770710Y-111121683D01*
X119949490Y-111150000D01*
X120130510Y-111150000D01*
X120309289Y-111121683D01*
X120481440Y-111065749D01*
X120642728Y-110983569D01*
X120699487Y-110942330D01*
X120225176Y-110468019D01*
X120232993Y-110465925D01*
X120347007Y-110400099D01*
X120440099Y-110307007D01*
X120505925Y-110192993D01*
X120508019Y-110185176D01*
X120982330Y-110659487D01*
X121023569Y-110602728D01*
X121105749Y-110441440D01*
X121161683Y-110269289D01*
X121190000Y-110090510D01*
X121190000Y-109909489D01*
X121161683Y-109730710D01*
X121105749Y-109558559D01*
X121023571Y-109397275D01*
X120982330Y-109340511D01*
X120508019Y-109814821D01*
X120505925Y-109807007D01*
X120440099Y-109692993D01*
X120347007Y-109599901D01*
X120232993Y-109534075D01*
X120225176Y-109531980D01*
X120699489Y-109057668D01*
X120642728Y-109016430D01*
X120481440Y-108934250D01*
X120309289Y-108878316D01*
X120130510Y-108850000D01*
X119949490Y-108850000D01*
X119770710Y-108878316D01*
X119624194Y-108925921D01*
X119563009Y-108925920D01*
X119513509Y-108889956D01*
X119494602Y-108831765D01*
X119513510Y-108773575D01*
X119514987Y-108771594D01*
X119518127Y-108767490D01*
X119518130Y-108767489D01*
X119529104Y-108753150D01*
X119537703Y-108743333D01*
X119550475Y-108730562D01*
X119559786Y-108714433D01*
X119566907Y-108703762D01*
X119578225Y-108688977D01*
X119585116Y-108672283D01*
X119590883Y-108660571D01*
X119599910Y-108644938D01*
X119604731Y-108626942D01*
X119608842Y-108614809D01*
X119615952Y-108597588D01*
X119618285Y-108579692D01*
X119620827Y-108566871D01*
X119625500Y-108549435D01*
X119625500Y-108530813D01*
X119626332Y-108518006D01*
X119628740Y-108499546D01*
X119626362Y-108481656D01*
X119625500Y-108468616D01*
X119625500Y-103935928D01*
X119626629Y-103921021D01*
X119627693Y-103914034D01*
X119628663Y-103907667D01*
X119626105Y-103884654D01*
X119625500Y-103873721D01*
X119625500Y-103850564D01*
X119623146Y-103841780D01*
X119622002Y-103837514D01*
X119619235Y-103822829D01*
X119617744Y-103809400D01*
X119609314Y-103787823D01*
X119605902Y-103777429D01*
X119599910Y-103755062D01*
X119593151Y-103743354D01*
X119586684Y-103729898D01*
X119581765Y-103717308D01*
X119568038Y-103698648D01*
X119562052Y-103689490D01*
X119556284Y-103679500D01*
X119550475Y-103669438D01*
X119550473Y-103669436D01*
X119540920Y-103659882D01*
X119531180Y-103648546D01*
X119523176Y-103637666D01*
X119505094Y-103623200D01*
X119496938Y-103615900D01*
X119480560Y-103599523D01*
X119480561Y-103599523D01*
X119468858Y-103592766D01*
X119456518Y-103584339D01*
X119281233Y-103444112D01*
X119193184Y-103373672D01*
X119159557Y-103322559D01*
X119162396Y-103261439D01*
X119185026Y-103226365D01*
X119208050Y-103203342D01*
X119265646Y-103090304D01*
X119280500Y-102996519D01*
X119280499Y-102633482D01*
X119265646Y-102539696D01*
X119208050Y-102426658D01*
X119118342Y-102336950D01*
X119005304Y-102279354D01*
X119005306Y-102279354D01*
X118995372Y-102277781D01*
X118940856Y-102250002D01*
X118913080Y-102195485D01*
X118922652Y-102135053D01*
X118965917Y-102091790D01*
X118995376Y-102082218D01*
X119005304Y-102080646D01*
X119118342Y-102023050D01*
X119208050Y-101933342D01*
X119265646Y-101820304D01*
X119280500Y-101726519D01*
X119280499Y-101363482D01*
X119280498Y-101363478D01*
X119280498Y-101363476D01*
X119278758Y-101352492D01*
X119265646Y-101269696D01*
X119208050Y-101156658D01*
X119118342Y-101066950D01*
X119005304Y-101009354D01*
X119005306Y-101009354D01*
X118995372Y-101007781D01*
X118940856Y-100980002D01*
X118913080Y-100925485D01*
X118922652Y-100865053D01*
X118965917Y-100821790D01*
X118995376Y-100812218D01*
X119005304Y-100810646D01*
X119118342Y-100753050D01*
X119208050Y-100663342D01*
X119265646Y-100550304D01*
X119280500Y-100456519D01*
X119280499Y-100093482D01*
X119270901Y-100032879D01*
X119265647Y-99999700D01*
X119265646Y-99999698D01*
X119265646Y-99999696D01*
X119208050Y-99886658D01*
X119118342Y-99796950D01*
X119005304Y-99739354D01*
X119005306Y-99739354D01*
X118995372Y-99737781D01*
X118940856Y-99710002D01*
X118913080Y-99655485D01*
X118922652Y-99595053D01*
X118965917Y-99551790D01*
X118995376Y-99542218D01*
X119005304Y-99540646D01*
X119118342Y-99483050D01*
X119208050Y-99393342D01*
X119265646Y-99280304D01*
X119280500Y-99186519D01*
X119280499Y-98823482D01*
X119278992Y-98813966D01*
X119278992Y-98813963D01*
X119276905Y-98800788D01*
X121730000Y-98800788D01*
X121730000Y-98804999D01*
X121730001Y-98805000D01*
X122804999Y-98805000D01*
X122805000Y-98804999D01*
X122805000Y-98405001D01*
X122804999Y-98405000D01*
X122125796Y-98405000D01*
X122095399Y-98407850D01*
X122095397Y-98407850D01*
X121967352Y-98452654D01*
X121858209Y-98533207D01*
X121858207Y-98533209D01*
X121777654Y-98642352D01*
X121732850Y-98770398D01*
X121730000Y-98800788D01*
X119276905Y-98800788D01*
X119265647Y-98729699D01*
X119265646Y-98729697D01*
X119265646Y-98729696D01*
X119208050Y-98616658D01*
X119118342Y-98526950D01*
X119005304Y-98469354D01*
X119005305Y-98469354D01*
X118911521Y-98454500D01*
X117198478Y-98454500D01*
X117198476Y-98454501D01*
X117104700Y-98469352D01*
X117104695Y-98469354D01*
X116991659Y-98526949D01*
X116991658Y-98526949D01*
X116991658Y-98526950D01*
X116923102Y-98595505D01*
X116868588Y-98623281D01*
X116853101Y-98624500D01*
X116507757Y-98624500D01*
X116449566Y-98605593D01*
X116437759Y-98595509D01*
X116352391Y-98510141D01*
X116242175Y-98453983D01*
X116242176Y-98453983D01*
X116150736Y-98439500D01*
X115809262Y-98439500D01*
X115717825Y-98453983D01*
X115717821Y-98453984D01*
X115607609Y-98510141D01*
X115601304Y-98514722D01*
X115600377Y-98513446D01*
X115553859Y-98537143D01*
X115493428Y-98527565D01*
X115479593Y-98519014D01*
X115367922Y-98436595D01*
X115242729Y-98392788D01*
X115242727Y-98392787D01*
X115220000Y-98390656D01*
X115220000Y-99609343D01*
X115242720Y-99607213D01*
X115242726Y-99607212D01*
X115367920Y-99563405D01*
X115479592Y-99480985D01*
X115537640Y-99461642D01*
X115595971Y-99480112D01*
X115606636Y-99489151D01*
X115607605Y-99489855D01*
X115607609Y-99489859D01*
X115717825Y-99546017D01*
X115809265Y-99560500D01*
X116103601Y-99560499D01*
X116161791Y-99579406D01*
X116197755Y-99628906D01*
X116199031Y-99677502D01*
X116200347Y-99677676D01*
X116199500Y-99684107D01*
X116199500Y-99684108D01*
X116199500Y-99815892D01*
X116218462Y-99886658D01*
X116233609Y-99943190D01*
X116299496Y-100057309D01*
X116299498Y-100057311D01*
X116299500Y-100057314D01*
X116392686Y-100150500D01*
X116392688Y-100150501D01*
X116392690Y-100150503D01*
X116506810Y-100216390D01*
X116506808Y-100216390D01*
X116506812Y-100216391D01*
X116506814Y-100216392D01*
X116634108Y-100250500D01*
X116634110Y-100250500D01*
X116730501Y-100250500D01*
X116788692Y-100269407D01*
X116824656Y-100318907D01*
X116829501Y-100349500D01*
X116829501Y-100456523D01*
X116844352Y-100550299D01*
X116844354Y-100550304D01*
X116901950Y-100663342D01*
X116991658Y-100753050D01*
X117104696Y-100810646D01*
X117114625Y-100812218D01*
X117169140Y-100839993D01*
X117196919Y-100894509D01*
X117187349Y-100954941D01*
X117144086Y-100998207D01*
X117114628Y-101007780D01*
X117104698Y-101009353D01*
X117104695Y-101009354D01*
X116991659Y-101066949D01*
X116901949Y-101156659D01*
X116844354Y-101269695D01*
X116829500Y-101363478D01*
X116829500Y-101404332D01*
X116810593Y-101462523D01*
X116795118Y-101479335D01*
X116438720Y-101786386D01*
X116423610Y-101797115D01*
X116419445Y-101799520D01*
X116419437Y-101799525D01*
X116396942Y-101822019D01*
X116391564Y-101827012D01*
X116367455Y-101847784D01*
X116367453Y-101847786D01*
X116364746Y-101851762D01*
X116352928Y-101866034D01*
X116349525Y-101869437D01*
X116333622Y-101896980D01*
X116329719Y-101903196D01*
X116311805Y-101929505D01*
X116311802Y-101929511D01*
X116310211Y-101934064D01*
X116302497Y-101950890D01*
X116300091Y-101955057D01*
X116300088Y-101955065D01*
X116291855Y-101985787D01*
X116289694Y-101992801D01*
X116279200Y-102022848D01*
X116278843Y-102027650D01*
X116275745Y-102045914D01*
X116274501Y-102050557D01*
X116274500Y-102050566D01*
X116274500Y-102082383D01*
X116274227Y-102089727D01*
X116271867Y-102121444D01*
X116272764Y-102126168D01*
X116274500Y-102144628D01*
X116274500Y-103580500D01*
X116255593Y-103638691D01*
X116206093Y-103674655D01*
X116175500Y-103679500D01*
X115848418Y-103679500D01*
X115773482Y-103690418D01*
X115657899Y-103746923D01*
X115657896Y-103746925D01*
X115590818Y-103814003D01*
X115536301Y-103841780D01*
X115475869Y-103832208D01*
X115460080Y-103822180D01*
X115303483Y-103700528D01*
X115148634Y-103580234D01*
X115114281Y-103529605D01*
X115111305Y-103500409D01*
X115110500Y-103500409D01*
X115110499Y-102258478D01*
X115110498Y-102258476D01*
X115095647Y-102164700D01*
X115095646Y-102164695D01*
X115089602Y-102152834D01*
X115080030Y-102092403D01*
X115107806Y-102037886D01*
X115162322Y-102010107D01*
X115210509Y-102014444D01*
X115275392Y-102037148D01*
X115305807Y-102040000D01*
X115309999Y-102039999D01*
X115310000Y-102039999D01*
X115310000Y-101202501D01*
X115710000Y-101202501D01*
X115710000Y-102039998D01*
X115710001Y-102039999D01*
X115714203Y-102039999D01*
X115744600Y-102037149D01*
X115744602Y-102037149D01*
X115872647Y-101992345D01*
X115981790Y-101911792D01*
X115981792Y-101911790D01*
X116062345Y-101802647D01*
X116107149Y-101674601D01*
X116109999Y-101644211D01*
X116110000Y-101644210D01*
X116110000Y-101202501D01*
X116109999Y-101202500D01*
X115710001Y-101202500D01*
X115710000Y-101202501D01*
X115310000Y-101202501D01*
X115310000Y-99965001D01*
X115710000Y-99965001D01*
X115710000Y-100802499D01*
X115710001Y-100802500D01*
X116109998Y-100802500D01*
X116109999Y-100802499D01*
X116109999Y-100360796D01*
X116107149Y-100330399D01*
X116107149Y-100330397D01*
X116062345Y-100202352D01*
X115981792Y-100093209D01*
X115981790Y-100093207D01*
X115872647Y-100012654D01*
X115744601Y-99967850D01*
X115714211Y-99965000D01*
X115710001Y-99965000D01*
X115710000Y-99965001D01*
X115310000Y-99965001D01*
X115310000Y-99965000D01*
X115305806Y-99965001D01*
X115305784Y-99965002D01*
X115275399Y-99967850D01*
X115275397Y-99967850D01*
X115147352Y-100012654D01*
X115038209Y-100093207D01*
X115038207Y-100093209D01*
X114954155Y-100207095D01*
X114904387Y-100242687D01*
X114843203Y-100242229D01*
X114793974Y-100205895D01*
X114775500Y-100148306D01*
X114775500Y-99693610D01*
X114794407Y-99635419D01*
X114807844Y-99620412D01*
X114820000Y-99609342D01*
X114820000Y-98390656D01*
X114797273Y-98392787D01*
X114727254Y-98417288D01*
X114666084Y-98418660D01*
X114634291Y-98402386D01*
X114630567Y-98399528D01*
X114628343Y-98398244D01*
X114616023Y-98391130D01*
X114604761Y-98383551D01*
X114380076Y-98208796D01*
X114307883Y-98152646D01*
X114273558Y-98101996D01*
X114275560Y-98040843D01*
X114313124Y-97992546D01*
X114368663Y-97975500D01*
X123675143Y-97975500D01*
X123733334Y-97994407D01*
G37*
%TD.AperFunction*%
%TA.AperFunction,Conductor*%
G36*
X113269442Y-101942397D02*
G01*
X113334696Y-101975646D01*
X113428481Y-101990500D01*
X113791518Y-101990499D01*
X113791520Y-101990499D01*
X113791521Y-101990498D01*
X113838411Y-101983072D01*
X113885299Y-101975647D01*
X113885300Y-101975646D01*
X113885304Y-101975646D01*
X113885307Y-101975644D01*
X113892712Y-101973239D01*
X113893609Y-101976001D01*
X113940965Y-101968490D01*
X113995488Y-101996256D01*
X114023278Y-102050766D01*
X114024500Y-102066275D01*
X114024500Y-102155981D01*
X114023281Y-102171468D01*
X114009500Y-102258477D01*
X114009500Y-103496521D01*
X114009501Y-103496523D01*
X114024352Y-103590299D01*
X114024354Y-103590304D01*
X114081950Y-103703342D01*
X114171658Y-103793050D01*
X114258120Y-103837104D01*
X114287739Y-103861890D01*
X114288039Y-103861594D01*
X114291158Y-103864750D01*
X114292075Y-103865518D01*
X114292598Y-103866208D01*
X114308204Y-103878331D01*
X114317455Y-103886492D01*
X114331438Y-103900475D01*
X114331440Y-103900476D01*
X114331441Y-103900477D01*
X114346081Y-103908929D01*
X114357317Y-103916485D01*
X114594191Y-104100500D01*
X115146198Y-104529327D01*
X115155465Y-104537503D01*
X115169436Y-104551473D01*
X115169439Y-104551476D01*
X115184081Y-104559929D01*
X115195311Y-104567480D01*
X115208676Y-104577863D01*
X115226893Y-104585536D01*
X115237948Y-104591029D01*
X115245447Y-104595359D01*
X115255059Y-104600909D01*
X115255065Y-104600911D01*
X115260870Y-104602466D01*
X115271396Y-104605286D01*
X115284204Y-104609676D01*
X115299795Y-104616244D01*
X115306607Y-104617182D01*
X115319370Y-104618940D01*
X115331481Y-104621386D01*
X115350565Y-104626500D01*
X115367473Y-104626500D01*
X115380982Y-104627426D01*
X115397740Y-104629734D01*
X115417342Y-104627271D01*
X115429680Y-104626500D01*
X115490545Y-104626500D01*
X115548736Y-104645407D01*
X115560330Y-104657094D01*
X115561124Y-104656301D01*
X115566923Y-104662100D01*
X115566924Y-104662102D01*
X115657898Y-104753076D01*
X115773482Y-104809582D01*
X115848418Y-104820500D01*
X115848421Y-104820500D01*
X116191578Y-104820500D01*
X116191582Y-104820500D01*
X116266518Y-104809582D01*
X116382102Y-104753076D01*
X116459998Y-104675179D01*
X116514513Y-104647404D01*
X116574945Y-104656975D01*
X116600000Y-104675178D01*
X116677898Y-104753076D01*
X116793482Y-104809582D01*
X116868418Y-104820500D01*
X116868421Y-104820500D01*
X117211578Y-104820500D01*
X117211582Y-104820500D01*
X117286518Y-104809582D01*
X117402102Y-104753076D01*
X117493076Y-104662102D01*
X117549582Y-104546518D01*
X117560500Y-104471582D01*
X117560500Y-104028418D01*
X117549582Y-103953482D01*
X117493076Y-103837898D01*
X117402102Y-103746924D01*
X117286518Y-103690418D01*
X117211582Y-103679500D01*
X117211579Y-103679500D01*
X117124500Y-103679500D01*
X117066309Y-103660593D01*
X117030345Y-103611093D01*
X117025500Y-103580500D01*
X117025500Y-103454016D01*
X117044407Y-103395825D01*
X117093907Y-103359861D01*
X117139985Y-103356235D01*
X117198481Y-103365500D01*
X117983454Y-103365499D01*
X118041645Y-103384406D01*
X118053456Y-103394494D01*
X118069434Y-103410472D01*
X118073922Y-103413914D01*
X118081846Y-103420684D01*
X118161674Y-103496521D01*
X118210889Y-103543276D01*
X118222445Y-103556381D01*
X118226825Y-103562334D01*
X118249669Y-103580609D01*
X118256003Y-103586134D01*
X118271099Y-103600475D01*
X118277215Y-103606285D01*
X118282560Y-103609191D01*
X118283704Y-103609813D01*
X118298261Y-103619483D01*
X118837345Y-104050750D01*
X118870973Y-104101866D01*
X118874500Y-104128056D01*
X118874500Y-106291417D01*
X118855593Y-106349608D01*
X118806093Y-106385572D01*
X118744907Y-106385572D01*
X118742803Y-106384862D01*
X118736784Y-106382756D01*
X118736788Y-106382756D01*
X118720000Y-106381182D01*
X118720000Y-107618816D01*
X118736781Y-107617244D01*
X118736787Y-107617243D01*
X118742801Y-107615139D01*
X118803971Y-107613765D01*
X118854266Y-107648608D01*
X118874475Y-107706360D01*
X118874500Y-107708583D01*
X118874500Y-108266355D01*
X118855593Y-108324546D01*
X118835861Y-108344825D01*
X118404930Y-108676309D01*
X118389945Y-108685828D01*
X118383991Y-108688898D01*
X118383990Y-108688898D01*
X118361840Y-108709035D01*
X118355612Y-108714246D01*
X118331871Y-108732509D01*
X118331867Y-108732513D01*
X118327798Y-108737829D01*
X118315785Y-108750902D01*
X118180650Y-108873754D01*
X118124874Y-108898907D01*
X118114055Y-108899500D01*
X116625326Y-108899500D01*
X116625325Y-108899500D01*
X116625315Y-108899501D01*
X116552263Y-108914033D01*
X116552258Y-108914035D01*
X116525416Y-108931969D01*
X116466527Y-108948575D01*
X116426542Y-108938397D01*
X116421724Y-108936015D01*
X116415717Y-108932783D01*
X116314524Y-108873754D01*
X116246492Y-108834069D01*
X116226378Y-108818564D01*
X116207314Y-108799500D01*
X116207311Y-108799498D01*
X116207309Y-108799496D01*
X116093189Y-108733609D01*
X116093187Y-108733608D01*
X116071008Y-108727665D01*
X116046750Y-108717553D01*
X115855744Y-108606133D01*
X115291755Y-108277139D01*
X115290703Y-108276517D01*
X115118565Y-108173234D01*
X115078394Y-108127082D01*
X115070500Y-108088342D01*
X115070500Y-107848421D01*
X115062453Y-107793190D01*
X115059582Y-107773482D01*
X115003076Y-107657898D01*
X114925179Y-107580001D01*
X114897404Y-107525487D01*
X114906975Y-107465055D01*
X114925179Y-107439998D01*
X114960683Y-107404495D01*
X115015200Y-107376719D01*
X115030686Y-107375500D01*
X115312980Y-107375500D01*
X115371171Y-107394407D01*
X115407135Y-107443907D01*
X115408606Y-107500120D01*
X115399500Y-107534108D01*
X115399500Y-107665892D01*
X115428328Y-107773482D01*
X115433609Y-107793190D01*
X115499496Y-107907309D01*
X115499498Y-107907311D01*
X115499500Y-107907314D01*
X115592686Y-108000500D01*
X115592688Y-108000501D01*
X115592690Y-108000503D01*
X115706810Y-108066390D01*
X115706808Y-108066390D01*
X115706812Y-108066391D01*
X115706814Y-108066392D01*
X115834108Y-108100500D01*
X115834110Y-108100500D01*
X115965890Y-108100500D01*
X115965892Y-108100500D01*
X116093186Y-108066392D01*
X116093188Y-108066390D01*
X116093190Y-108066390D01*
X116207309Y-108000503D01*
X116207309Y-108000502D01*
X116207314Y-108000500D01*
X116300500Y-107907314D01*
X116366392Y-107793186D01*
X116400500Y-107665892D01*
X116400500Y-107534108D01*
X116391393Y-107500120D01*
X116394595Y-107439022D01*
X116433100Y-107391472D01*
X116487020Y-107375500D01*
X116969831Y-107375500D01*
X117028022Y-107394407D01*
X117040468Y-107406956D01*
X117041124Y-107406301D01*
X117046923Y-107412100D01*
X117046924Y-107412102D01*
X117137898Y-107503076D01*
X117253482Y-107559582D01*
X117328418Y-107570500D01*
X117328421Y-107570500D01*
X117671578Y-107570500D01*
X117671582Y-107570500D01*
X117746518Y-107559582D01*
X117862102Y-107503076D01*
X117905615Y-107459562D01*
X117960129Y-107431786D01*
X118020561Y-107441357D01*
X118055271Y-107470777D01*
X118073933Y-107496062D01*
X118073936Y-107496065D01*
X118179445Y-107573935D01*
X118179444Y-107573935D01*
X118303208Y-107617242D01*
X118303218Y-107617244D01*
X118320000Y-107618817D01*
X118320000Y-106381182D01*
X118303211Y-106382756D01*
X118303210Y-106382757D01*
X118179445Y-106426064D01*
X118073936Y-106503934D01*
X118073931Y-106503939D01*
X118055270Y-106529223D01*
X118005501Y-106564814D01*
X117944317Y-106564354D01*
X117905615Y-106540437D01*
X117862102Y-106496924D01*
X117746518Y-106440418D01*
X117671582Y-106429500D01*
X117328418Y-106429500D01*
X117253489Y-106440417D01*
X117253482Y-106440418D01*
X117137899Y-106496923D01*
X117137898Y-106496923D01*
X117137898Y-106496924D01*
X117046924Y-106587898D01*
X117046923Y-106587899D01*
X117041124Y-106593699D01*
X117038932Y-106591507D01*
X117001192Y-106619401D01*
X116969831Y-106624500D01*
X115030686Y-106624500D01*
X114972495Y-106605593D01*
X114960683Y-106595504D01*
X114912103Y-106546925D01*
X114912102Y-106546924D01*
X114796518Y-106490418D01*
X114721582Y-106479500D01*
X114278418Y-106479500D01*
X114203482Y-106490418D01*
X114087899Y-106546923D01*
X113996923Y-106637899D01*
X113940418Y-106753482D01*
X113929500Y-106828418D01*
X113929500Y-107171582D01*
X113940418Y-107246518D01*
X113996924Y-107362102D01*
X114074819Y-107439997D01*
X114102595Y-107494512D01*
X114093024Y-107554944D01*
X114074819Y-107580002D01*
X114039319Y-107615503D01*
X113984802Y-107643281D01*
X113969314Y-107644500D01*
X113690896Y-107644500D01*
X113632705Y-107625593D01*
X113622335Y-107616917D01*
X113155939Y-107169176D01*
X113127055Y-107115238D01*
X113125500Y-107097759D01*
X113125500Y-102030608D01*
X113144407Y-101972417D01*
X113193907Y-101936453D01*
X113255093Y-101936453D01*
X113269442Y-101942397D01*
G37*
%TD.AperFunction*%
%TA.AperFunction,Conductor*%
G36*
X125699191Y-99018907D02*
G01*
X125735155Y-99068407D01*
X125740000Y-99099000D01*
X125740000Y-99609343D01*
X125762720Y-99607213D01*
X125762726Y-99607212D01*
X125887920Y-99563405D01*
X125966711Y-99505254D01*
X126024759Y-99485912D01*
X126083089Y-99504383D01*
X126119423Y-99553612D01*
X126124500Y-99584909D01*
X126124500Y-101460685D01*
X126123150Y-101476978D01*
X126121484Y-101486962D01*
X126124040Y-101513373D01*
X126124500Y-101522910D01*
X126124500Y-102900500D01*
X126105593Y-102958691D01*
X126056093Y-102994655D01*
X126025501Y-102999500D01*
X125878479Y-102999500D01*
X125878476Y-102999501D01*
X125784700Y-103014352D01*
X125784695Y-103014354D01*
X125671659Y-103071949D01*
X125581949Y-103161659D01*
X125524354Y-103274695D01*
X125509500Y-103368477D01*
X125509500Y-103731520D01*
X125509501Y-103731523D01*
X125524352Y-103825299D01*
X125524353Y-103825302D01*
X125524353Y-103825303D01*
X125524354Y-103825304D01*
X125540315Y-103856630D01*
X125548011Y-103871733D01*
X125557582Y-103932165D01*
X125529805Y-103986681D01*
X125475288Y-104014459D01*
X125414856Y-104004888D01*
X125414855Y-104004887D01*
X125329554Y-103961423D01*
X125286290Y-103918158D01*
X125275500Y-103873214D01*
X125275500Y-101238610D01*
X125276803Y-101222600D01*
X125278552Y-101211927D01*
X125275989Y-101186228D01*
X125275500Y-101176403D01*
X125275500Y-99711823D01*
X125294407Y-99653632D01*
X125307844Y-99638625D01*
X125340000Y-99609342D01*
X125340000Y-99099000D01*
X125358907Y-99040809D01*
X125408407Y-99004845D01*
X125439000Y-99000000D01*
X125641000Y-99000000D01*
X125699191Y-99018907D01*
G37*
%TD.AperFunction*%
%TA.AperFunction,Conductor*%
G36*
X126804842Y-94300976D02*
G01*
X126965782Y-94316828D01*
X126984812Y-94320613D01*
X127084000Y-94350701D01*
X127134891Y-94366139D01*
X127152822Y-94373566D01*
X127291136Y-94447497D01*
X127307272Y-94458279D01*
X127428504Y-94557772D01*
X127442227Y-94571495D01*
X127541720Y-94692727D01*
X127552502Y-94708863D01*
X127626433Y-94847177D01*
X127633860Y-94865108D01*
X127679385Y-95015185D01*
X127683171Y-95034219D01*
X127699023Y-95195157D01*
X127699500Y-95204861D01*
X127699500Y-101791601D01*
X127680593Y-101849792D01*
X127631093Y-101885756D01*
X127569907Y-101885756D01*
X127537565Y-101868022D01*
X126911565Y-101352492D01*
X126878665Y-101300905D01*
X126875500Y-101276071D01*
X126875500Y-99527757D01*
X126894407Y-99469566D01*
X126904490Y-99457759D01*
X126959859Y-99402391D01*
X127016017Y-99292175D01*
X127030500Y-99200735D01*
X127030499Y-98799266D01*
X127030499Y-98799265D01*
X127030499Y-98799262D01*
X127019481Y-98729699D01*
X127016017Y-98707825D01*
X126959859Y-98597609D01*
X126872391Y-98510141D01*
X126762175Y-98453983D01*
X126762176Y-98453983D01*
X126670736Y-98439500D01*
X126329262Y-98439500D01*
X126237825Y-98453983D01*
X126237821Y-98453984D01*
X126127609Y-98510141D01*
X126121304Y-98514722D01*
X126120377Y-98513446D01*
X126073859Y-98537143D01*
X126013428Y-98527565D01*
X125999593Y-98519014D01*
X125898163Y-98444153D01*
X125862571Y-98394385D01*
X125863029Y-98333202D01*
X125899363Y-98283972D01*
X125956952Y-98265499D01*
X125997867Y-98265499D01*
X125997872Y-98265499D01*
X126057483Y-98259091D01*
X126180183Y-98213327D01*
X126192329Y-98208797D01*
X126192329Y-98208796D01*
X126192331Y-98208796D01*
X126307546Y-98122546D01*
X126393796Y-98007331D01*
X126398617Y-97994407D01*
X126444089Y-97872488D01*
X126444088Y-97872488D01*
X126444091Y-97872483D01*
X126450500Y-97812873D01*
X126450499Y-97192128D01*
X126444091Y-97132517D01*
X126441474Y-97125500D01*
X126393797Y-96997670D01*
X126307549Y-96882458D01*
X126307548Y-96882457D01*
X126307546Y-96882454D01*
X126297167Y-96874684D01*
X126192329Y-96796202D01*
X126057488Y-96745910D01*
X126057483Y-96745909D01*
X126057481Y-96745908D01*
X126057477Y-96745908D01*
X126026249Y-96742550D01*
X125997873Y-96739500D01*
X125997870Y-96739500D01*
X125002133Y-96739500D01*
X125002129Y-96739500D01*
X125002128Y-96739501D01*
X124994949Y-96740272D01*
X124942519Y-96745908D01*
X124942514Y-96745909D01*
X124807670Y-96796202D01*
X124692458Y-96882450D01*
X124692450Y-96882458D01*
X124606202Y-96997670D01*
X124555910Y-97132511D01*
X124555908Y-97132522D01*
X124549500Y-97192129D01*
X124549500Y-97523510D01*
X124530593Y-97581701D01*
X124481093Y-97617665D01*
X124419907Y-97617665D01*
X124373879Y-97586201D01*
X124215024Y-97392045D01*
X124205922Y-97378873D01*
X124200475Y-97369438D01*
X124200472Y-97369435D01*
X124182246Y-97351208D01*
X124175637Y-97343906D01*
X124159317Y-97323959D01*
X124159315Y-97323957D01*
X124159313Y-97323955D01*
X124150479Y-97317605D01*
X124138264Y-97307226D01*
X124130565Y-97299527D01*
X124130562Y-97299525D01*
X124108228Y-97286630D01*
X124099968Y-97281296D01*
X124079035Y-97266248D01*
X124079033Y-97266247D01*
X124074105Y-97264384D01*
X124068849Y-97262396D01*
X124054367Y-97255533D01*
X124044940Y-97250090D01*
X124044936Y-97250089D01*
X124020038Y-97243417D01*
X124010654Y-97240394D01*
X123986554Y-97231283D01*
X123975715Y-97230198D01*
X123959956Y-97227319D01*
X123949435Y-97224500D01*
X123949433Y-97224500D01*
X123923663Y-97224500D01*
X123913814Y-97224009D01*
X123888173Y-97221445D01*
X123888169Y-97221445D01*
X123877430Y-97223202D01*
X123861451Y-97224500D01*
X122417731Y-97224500D01*
X122359540Y-97205593D01*
X122323576Y-97156093D01*
X122323576Y-97094907D01*
X122359540Y-97045407D01*
X122387138Y-97031346D01*
X122422438Y-97019876D01*
X122422440Y-97019874D01*
X122422445Y-97019873D01*
X122576788Y-96941232D01*
X122716928Y-96839414D01*
X122839414Y-96716928D01*
X122941232Y-96576788D01*
X123019873Y-96422445D01*
X123019874Y-96422440D01*
X123019876Y-96422438D01*
X123073401Y-96257706D01*
X123073402Y-96257702D01*
X123100500Y-96086614D01*
X123100500Y-95913385D01*
X123073403Y-95742302D01*
X123073402Y-95742300D01*
X123056268Y-95689567D01*
X123056267Y-95628382D01*
X123087043Y-95582920D01*
X123278693Y-95423214D01*
X123308415Y-95398446D01*
X123365223Y-95375718D01*
X123371793Y-95375500D01*
X124450500Y-95375500D01*
X124508691Y-95394407D01*
X124544655Y-95443907D01*
X124549500Y-95474500D01*
X124549500Y-95987866D01*
X124549501Y-95987870D01*
X124555908Y-96047480D01*
X124555909Y-96047485D01*
X124606202Y-96182329D01*
X124664721Y-96260500D01*
X124692454Y-96297546D01*
X124692457Y-96297548D01*
X124692458Y-96297549D01*
X124807670Y-96383797D01*
X124942511Y-96434089D01*
X124942512Y-96434089D01*
X124942517Y-96434091D01*
X125002127Y-96440500D01*
X125997872Y-96440499D01*
X126057483Y-96434091D01*
X126124907Y-96408943D01*
X126192329Y-96383797D01*
X126192329Y-96383796D01*
X126192331Y-96383796D01*
X126307546Y-96297546D01*
X126393796Y-96182331D01*
X126444091Y-96047483D01*
X126450500Y-95987873D01*
X126450499Y-95367128D01*
X126444091Y-95307517D01*
X126403990Y-95200000D01*
X126393797Y-95172670D01*
X126307549Y-95057458D01*
X126307548Y-95057457D01*
X126307546Y-95057454D01*
X126294999Y-95048061D01*
X126192329Y-94971202D01*
X126057488Y-94920910D01*
X126057483Y-94920909D01*
X126057481Y-94920908D01*
X126057477Y-94920908D01*
X126026249Y-94917550D01*
X125997873Y-94914500D01*
X125997870Y-94914500D01*
X125453832Y-94914500D01*
X125395641Y-94895593D01*
X125374280Y-94874427D01*
X125367377Y-94865108D01*
X125317842Y-94798235D01*
X125311662Y-94788814D01*
X125300474Y-94769437D01*
X125290364Y-94759326D01*
X125280822Y-94748258D01*
X125272311Y-94736768D01*
X125254788Y-94722844D01*
X125246384Y-94715347D01*
X125230563Y-94699526D01*
X125230562Y-94699525D01*
X125218176Y-94692374D01*
X125206099Y-94684155D01*
X125194902Y-94675258D01*
X125194901Y-94675257D01*
X125194898Y-94675255D01*
X125194899Y-94675255D01*
X125174381Y-94666347D01*
X125164309Y-94661274D01*
X125144938Y-94650089D01*
X125131131Y-94646390D01*
X125117327Y-94641573D01*
X125104214Y-94635879D01*
X125082082Y-94632583D01*
X125071044Y-94630290D01*
X125063783Y-94628344D01*
X125049435Y-94624500D01*
X125049434Y-94624500D01*
X125035144Y-94624500D01*
X125020560Y-94623420D01*
X125006419Y-94621314D01*
X125006417Y-94621313D01*
X124984190Y-94623858D01*
X124972933Y-94624500D01*
X123221523Y-94624500D01*
X123212558Y-94624093D01*
X123184764Y-94621565D01*
X123184762Y-94621565D01*
X123176153Y-94623054D01*
X123159293Y-94624500D01*
X123150563Y-94624500D01*
X123123595Y-94631725D01*
X123114843Y-94633650D01*
X123087338Y-94638405D01*
X123087337Y-94638405D01*
X123083153Y-94640339D01*
X123079412Y-94642067D01*
X123063507Y-94647827D01*
X123055062Y-94650089D01*
X123055059Y-94650091D01*
X123030889Y-94664045D01*
X123022930Y-94668171D01*
X122997589Y-94679884D01*
X122990875Y-94685479D01*
X122977002Y-94695157D01*
X122969436Y-94699524D01*
X122949696Y-94719265D01*
X122943072Y-94725314D01*
X122605928Y-95006266D01*
X122549120Y-95028994D01*
X122497606Y-95018422D01*
X122422447Y-94980127D01*
X122422438Y-94980123D01*
X122257706Y-94926598D01*
X122257702Y-94926597D01*
X122086614Y-94899500D01*
X122086611Y-94899500D01*
X121913389Y-94899500D01*
X121913386Y-94899500D01*
X121742297Y-94926597D01*
X121742293Y-94926598D01*
X121577561Y-94980123D01*
X121577558Y-94980125D01*
X121423214Y-95058766D01*
X121283073Y-95160585D01*
X121160585Y-95283073D01*
X121058766Y-95423214D01*
X120980125Y-95577558D01*
X120980123Y-95577561D01*
X120926598Y-95742293D01*
X120926597Y-95742297D01*
X120899500Y-95913385D01*
X120899500Y-96086614D01*
X120926597Y-96257702D01*
X120926598Y-96257706D01*
X120980123Y-96422438D01*
X120980125Y-96422441D01*
X121053224Y-96565909D01*
X121058768Y-96576788D01*
X121160586Y-96716928D01*
X121283072Y-96839414D01*
X121423212Y-96941232D01*
X121577555Y-97019873D01*
X121577557Y-97019873D01*
X121577558Y-97019874D01*
X121577561Y-97019876D01*
X121612862Y-97031346D01*
X121662362Y-97067310D01*
X121681269Y-97125500D01*
X121662361Y-97183691D01*
X121612861Y-97219655D01*
X121582269Y-97224500D01*
X120526770Y-97224500D01*
X120468579Y-97205593D01*
X120432615Y-97156093D01*
X120432615Y-97094907D01*
X120468579Y-97045407D01*
X120471770Y-97043183D01*
X120490601Y-97030601D01*
X120545966Y-96947740D01*
X120560500Y-96874674D01*
X120560500Y-95125326D01*
X120545966Y-95052260D01*
X120533912Y-95034219D01*
X120490602Y-94969400D01*
X120490599Y-94969397D01*
X120407742Y-94914035D01*
X120407740Y-94914034D01*
X120407737Y-94914033D01*
X120407736Y-94914033D01*
X120334684Y-94899501D01*
X120334674Y-94899500D01*
X120334673Y-94899500D01*
X118795294Y-94899500D01*
X118737103Y-94880593D01*
X118730653Y-94875484D01*
X118558471Y-94727051D01*
X118553110Y-94722072D01*
X118530563Y-94699526D01*
X118530560Y-94699523D01*
X118526461Y-94697157D01*
X118511324Y-94686407D01*
X118507735Y-94683313D01*
X118507732Y-94683311D01*
X118479022Y-94669455D01*
X118472555Y-94666034D01*
X118450018Y-94653023D01*
X118444938Y-94650090D01*
X118444937Y-94650089D01*
X118444936Y-94650089D01*
X118440361Y-94648863D01*
X118422964Y-94642400D01*
X118418693Y-94640339D01*
X118418689Y-94640338D01*
X118387356Y-94634380D01*
X118380234Y-94632752D01*
X118349435Y-94624500D01*
X118349432Y-94624500D01*
X118344702Y-94624500D01*
X118326212Y-94622758D01*
X118321559Y-94621873D01*
X118291606Y-94624093D01*
X118289769Y-94624229D01*
X118282456Y-94624500D01*
X114121523Y-94624500D01*
X114112558Y-94624093D01*
X114084764Y-94621565D01*
X114084762Y-94621565D01*
X114076153Y-94623054D01*
X114059293Y-94624500D01*
X114050563Y-94624500D01*
X114023595Y-94631725D01*
X114014843Y-94633650D01*
X113987338Y-94638405D01*
X113987337Y-94638405D01*
X113983153Y-94640339D01*
X113979412Y-94642067D01*
X113963507Y-94647827D01*
X113955062Y-94650089D01*
X113955059Y-94650091D01*
X113930889Y-94664045D01*
X113922930Y-94668171D01*
X113897589Y-94679884D01*
X113890875Y-94685479D01*
X113877002Y-94695157D01*
X113869436Y-94699525D01*
X113863454Y-94705507D01*
X113808936Y-94733282D01*
X113793454Y-94734500D01*
X113002133Y-94734500D01*
X113002129Y-94734500D01*
X113002128Y-94734501D01*
X112994949Y-94735272D01*
X112942519Y-94740908D01*
X112942514Y-94740909D01*
X112807670Y-94791202D01*
X112692458Y-94877450D01*
X112692450Y-94877458D01*
X112606202Y-94992670D01*
X112555910Y-95127511D01*
X112555908Y-95127522D01*
X112551533Y-95168209D01*
X112551055Y-95172669D01*
X112549500Y-95187129D01*
X112549500Y-95807866D01*
X112549501Y-95807870D01*
X112555908Y-95867480D01*
X112555909Y-95867485D01*
X112606202Y-96002329D01*
X112669296Y-96086611D01*
X112692454Y-96117546D01*
X112692457Y-96117548D01*
X112692458Y-96117549D01*
X112807670Y-96203797D01*
X112942511Y-96254089D01*
X112942512Y-96254089D01*
X112942517Y-96254091D01*
X113002127Y-96260500D01*
X113997872Y-96260499D01*
X114057483Y-96254091D01*
X114124907Y-96228943D01*
X114192329Y-96203797D01*
X114192329Y-96203796D01*
X114192331Y-96203796D01*
X114307546Y-96117546D01*
X114393796Y-96002331D01*
X114399189Y-95987873D01*
X114444089Y-95867488D01*
X114444090Y-95867485D01*
X114444091Y-95867483D01*
X114450500Y-95807873D01*
X114450499Y-95474499D01*
X114469406Y-95416309D01*
X114518906Y-95380345D01*
X114549499Y-95375500D01*
X118123707Y-95375500D01*
X118181898Y-95394407D01*
X118188344Y-95399513D01*
X118215835Y-95423212D01*
X118325141Y-95517440D01*
X118356870Y-95569756D01*
X118359500Y-95592424D01*
X118359500Y-96874672D01*
X118359501Y-96874684D01*
X118374033Y-96947736D01*
X118374035Y-96947742D01*
X118429397Y-97030599D01*
X118429399Y-97030601D01*
X118448230Y-97043183D01*
X118486110Y-97091233D01*
X118488514Y-97152371D01*
X118454522Y-97203245D01*
X118397119Y-97224424D01*
X118393230Y-97224500D01*
X114549499Y-97224500D01*
X114491308Y-97205593D01*
X114455344Y-97156093D01*
X114450499Y-97125500D01*
X114450499Y-97012133D01*
X114450499Y-97012128D01*
X114444091Y-96952517D01*
X114442308Y-96947736D01*
X114393797Y-96817670D01*
X114307549Y-96702458D01*
X114307548Y-96702457D01*
X114307546Y-96702454D01*
X114307541Y-96702450D01*
X114192329Y-96616202D01*
X114057488Y-96565910D01*
X114057483Y-96565909D01*
X114057481Y-96565908D01*
X114057477Y-96565908D01*
X114026249Y-96562550D01*
X113997873Y-96559500D01*
X113997870Y-96559500D01*
X113002133Y-96559500D01*
X113002129Y-96559500D01*
X113002128Y-96559501D01*
X112994949Y-96560272D01*
X112942519Y-96565908D01*
X112942514Y-96565909D01*
X112807670Y-96616202D01*
X112692458Y-96702450D01*
X112692450Y-96702458D01*
X112606202Y-96817670D01*
X112555910Y-96952511D01*
X112555909Y-96952517D01*
X112551055Y-96997669D01*
X112549500Y-97012129D01*
X112549500Y-97632866D01*
X112549501Y-97632870D01*
X112555908Y-97692480D01*
X112555909Y-97692485D01*
X112606202Y-97827329D01*
X112692450Y-97942541D01*
X112692454Y-97942546D01*
X112692457Y-97942548D01*
X112692458Y-97942549D01*
X112807670Y-98028797D01*
X112942511Y-98079089D01*
X112942512Y-98079089D01*
X112942517Y-98079091D01*
X113002127Y-98085500D01*
X113059318Y-98085499D01*
X113117508Y-98104405D01*
X113145602Y-98140037D01*
X113146846Y-98139319D01*
X113158479Y-98159468D01*
X113164452Y-98171683D01*
X113170766Y-98187215D01*
X113170772Y-98187225D01*
X113182772Y-98203077D01*
X113189573Y-98213327D01*
X113199523Y-98230560D01*
X113211390Y-98242427D01*
X113220320Y-98252678D01*
X113230443Y-98266051D01*
X113246143Y-98278262D01*
X113255367Y-98286404D01*
X113269438Y-98300475D01*
X113283970Y-98308865D01*
X113295234Y-98316445D01*
X113934905Y-98813966D01*
X113986280Y-98853924D01*
X114020605Y-98904574D01*
X114024500Y-98932070D01*
X114024500Y-99938724D01*
X114005593Y-99996915D01*
X113956093Y-100032879D01*
X113894907Y-100032879D01*
X113890367Y-100030999D01*
X113885305Y-100029354D01*
X113791522Y-100014500D01*
X113428479Y-100014500D01*
X113428476Y-100014501D01*
X113334700Y-100029352D01*
X113334695Y-100029354D01*
X113221659Y-100086949D01*
X113131949Y-100176659D01*
X113074354Y-100289695D01*
X113059500Y-100383478D01*
X113059500Y-100589283D01*
X113040593Y-100647474D01*
X113004882Y-100677777D01*
X112987483Y-100686502D01*
X112536655Y-101087236D01*
X112520397Y-101098971D01*
X112519442Y-101099522D01*
X112519433Y-101099529D01*
X112494333Y-101124628D01*
X112490106Y-101128614D01*
X112465274Y-101150688D01*
X112409221Y-101175218D01*
X112349455Y-101162115D01*
X112308804Y-101116386D01*
X112300500Y-101076696D01*
X112300500Y-95204861D01*
X112300977Y-95195157D01*
X112304397Y-95160438D01*
X112316828Y-95034215D01*
X112320614Y-95015185D01*
X112327445Y-94992669D01*
X112366139Y-94865106D01*
X112373566Y-94847177D01*
X112403485Y-94791204D01*
X112447498Y-94708861D01*
X112458279Y-94692727D01*
X112557774Y-94571492D01*
X112571492Y-94557774D01*
X112692729Y-94458277D01*
X112708863Y-94447497D01*
X112847179Y-94373564D01*
X112865106Y-94366139D01*
X113015189Y-94320613D01*
X113034215Y-94316828D01*
X113195157Y-94300976D01*
X113204861Y-94300500D01*
X113247595Y-94300500D01*
X126752405Y-94300500D01*
X126795139Y-94300500D01*
X126804842Y-94300976D01*
G37*
%TD.AperFunction*%
%TD*%
M02*
