%TF.GenerationSoftware,KiCad,Pcbnew,10.0.5*%
%TF.CreationDate,2026-10-09T13:46:10+01:00*%
%TF.ProjectId,Volt-Unit,566f6c74-2d55-46e6-9974-2e6b69636164,rev?*%
%TF.SameCoordinates,Original*%
%TF.FileFunction,Legend,Bot*%
%TF.FilePolarity,Positive*%
%FSLAX46Y46*%
G04 Gerber Fmt 4.6, Leading zero omitted, Abs format (unit mm)*
G04 Created by KiCad (PCBNEW 10.0.5) date 2026-10-09 13:46:10*
%MOMM*%
%LPD*%
G01*
G04 APERTURE LIST*
%ADD10C,0.120000*%
%ADD11C,0.250000*%
%ADD12C,0.420000*%
G04 APERTURE END LIST*
D10*
X118747143Y-102754188D02*
X118775715Y-102782760D01*
X118775715Y-102782760D02*
X118861429Y-102811331D01*
X118861429Y-102811331D02*
X118918572Y-102811331D01*
X118918572Y-102811331D02*
X119004286Y-102782760D01*
X119004286Y-102782760D02*
X119061429Y-102725617D01*
X119061429Y-102725617D02*
X119090000Y-102668474D01*
X119090000Y-102668474D02*
X119118572Y-102554188D01*
X119118572Y-102554188D02*
X119118572Y-102468474D01*
X119118572Y-102468474D02*
X119090000Y-102354188D01*
X119090000Y-102354188D02*
X119061429Y-102297045D01*
X119061429Y-102297045D02*
X119004286Y-102239902D01*
X119004286Y-102239902D02*
X118918572Y-102211331D01*
X118918572Y-102211331D02*
X118861429Y-102211331D01*
X118861429Y-102211331D02*
X118775715Y-102239902D01*
X118775715Y-102239902D02*
X118747143Y-102268474D01*
X118518572Y-102268474D02*
X118490000Y-102239902D01*
X118490000Y-102239902D02*
X118432858Y-102211331D01*
X118432858Y-102211331D02*
X118290000Y-102211331D01*
X118290000Y-102211331D02*
X118232858Y-102239902D01*
X118232858Y-102239902D02*
X118204286Y-102268474D01*
X118204286Y-102268474D02*
X118175715Y-102325617D01*
X118175715Y-102325617D02*
X118175715Y-102382760D01*
X118175715Y-102382760D02*
X118204286Y-102468474D01*
X118204286Y-102468474D02*
X118547143Y-102811331D01*
X118547143Y-102811331D02*
X118175715Y-102811331D01*
X117890000Y-102782760D02*
X117890000Y-102811331D01*
X117890000Y-102811331D02*
X117918571Y-102868474D01*
X117918571Y-102868474D02*
X117947143Y-102897045D01*
X116832857Y-102754188D02*
X116861429Y-102782760D01*
X116861429Y-102782760D02*
X116947143Y-102811331D01*
X116947143Y-102811331D02*
X117004286Y-102811331D01*
X117004286Y-102811331D02*
X117090000Y-102782760D01*
X117090000Y-102782760D02*
X117147143Y-102725617D01*
X117147143Y-102725617D02*
X117175714Y-102668474D01*
X117175714Y-102668474D02*
X117204286Y-102554188D01*
X117204286Y-102554188D02*
X117204286Y-102468474D01*
X117204286Y-102468474D02*
X117175714Y-102354188D01*
X117175714Y-102354188D02*
X117147143Y-102297045D01*
X117147143Y-102297045D02*
X117090000Y-102239902D01*
X117090000Y-102239902D02*
X117004286Y-102211331D01*
X117004286Y-102211331D02*
X116947143Y-102211331D01*
X116947143Y-102211331D02*
X116861429Y-102239902D01*
X116861429Y-102239902D02*
X116832857Y-102268474D01*
X116632857Y-102211331D02*
X116261429Y-102211331D01*
X116261429Y-102211331D02*
X116461429Y-102439902D01*
X116461429Y-102439902D02*
X116375714Y-102439902D01*
X116375714Y-102439902D02*
X116318572Y-102468474D01*
X116318572Y-102468474D02*
X116290000Y-102497045D01*
X116290000Y-102497045D02*
X116261429Y-102554188D01*
X116261429Y-102554188D02*
X116261429Y-102697045D01*
X116261429Y-102697045D02*
X116290000Y-102754188D01*
X116290000Y-102754188D02*
X116318572Y-102782760D01*
X116318572Y-102782760D02*
X116375714Y-102811331D01*
X116375714Y-102811331D02*
X116547143Y-102811331D01*
X116547143Y-102811331D02*
X116604286Y-102782760D01*
X116604286Y-102782760D02*
X116632857Y-102754188D01*
X116004285Y-102754188D02*
X115975714Y-102782760D01*
X115975714Y-102782760D02*
X116004285Y-102811331D01*
X116004285Y-102811331D02*
X116032857Y-102782760D01*
X116032857Y-102782760D02*
X116004285Y-102754188D01*
X116004285Y-102754188D02*
X116004285Y-102811331D01*
X116004285Y-102439902D02*
X115975714Y-102468474D01*
X115975714Y-102468474D02*
X116004285Y-102497045D01*
X116004285Y-102497045D02*
X116032857Y-102468474D01*
X116032857Y-102468474D02*
X116004285Y-102439902D01*
X116004285Y-102439902D02*
X116004285Y-102497045D01*
X114947143Y-102811331D02*
X115290000Y-102811331D01*
X115118571Y-102811331D02*
X115118571Y-102211331D01*
X115118571Y-102211331D02*
X115175714Y-102297045D01*
X115175714Y-102297045D02*
X115232857Y-102354188D01*
X115232857Y-102354188D02*
X115290000Y-102382760D01*
X114575714Y-102211331D02*
X114518571Y-102211331D01*
X114518571Y-102211331D02*
X114461428Y-102239902D01*
X114461428Y-102239902D02*
X114432857Y-102268474D01*
X114432857Y-102268474D02*
X114404285Y-102325617D01*
X114404285Y-102325617D02*
X114375714Y-102439902D01*
X114375714Y-102439902D02*
X114375714Y-102582760D01*
X114375714Y-102582760D02*
X114404285Y-102697045D01*
X114404285Y-102697045D02*
X114432857Y-102754188D01*
X114432857Y-102754188D02*
X114461428Y-102782760D01*
X114461428Y-102782760D02*
X114518571Y-102811331D01*
X114518571Y-102811331D02*
X114575714Y-102811331D01*
X114575714Y-102811331D02*
X114632857Y-102782760D01*
X114632857Y-102782760D02*
X114661428Y-102754188D01*
X114661428Y-102754188D02*
X114689999Y-102697045D01*
X114689999Y-102697045D02*
X114718571Y-102582760D01*
X114718571Y-102582760D02*
X114718571Y-102439902D01*
X114718571Y-102439902D02*
X114689999Y-102325617D01*
X114689999Y-102325617D02*
X114661428Y-102268474D01*
X114661428Y-102268474D02*
X114632857Y-102239902D01*
X114632857Y-102239902D02*
X114575714Y-102211331D01*
X114004285Y-102211331D02*
X113947142Y-102211331D01*
X113947142Y-102211331D02*
X113889999Y-102239902D01*
X113889999Y-102239902D02*
X113861428Y-102268474D01*
X113861428Y-102268474D02*
X113832856Y-102325617D01*
X113832856Y-102325617D02*
X113804285Y-102439902D01*
X113804285Y-102439902D02*
X113804285Y-102582760D01*
X113804285Y-102582760D02*
X113832856Y-102697045D01*
X113832856Y-102697045D02*
X113861428Y-102754188D01*
X113861428Y-102754188D02*
X113889999Y-102782760D01*
X113889999Y-102782760D02*
X113947142Y-102811331D01*
X113947142Y-102811331D02*
X114004285Y-102811331D01*
X114004285Y-102811331D02*
X114061428Y-102782760D01*
X114061428Y-102782760D02*
X114089999Y-102754188D01*
X114089999Y-102754188D02*
X114118570Y-102697045D01*
X114118570Y-102697045D02*
X114147142Y-102582760D01*
X114147142Y-102582760D02*
X114147142Y-102439902D01*
X114147142Y-102439902D02*
X114118570Y-102325617D01*
X114118570Y-102325617D02*
X114089999Y-102268474D01*
X114089999Y-102268474D02*
X114061428Y-102239902D01*
X114061428Y-102239902D02*
X114004285Y-102211331D01*
X113547141Y-102411331D02*
X113547141Y-102811331D01*
X113547141Y-102468474D02*
X113518570Y-102439902D01*
X113518570Y-102439902D02*
X113461427Y-102411331D01*
X113461427Y-102411331D02*
X113375713Y-102411331D01*
X113375713Y-102411331D02*
X113318570Y-102439902D01*
X113318570Y-102439902D02*
X113289999Y-102497045D01*
X113289999Y-102497045D02*
X113289999Y-102811331D01*
X118742857Y-100771331D02*
X118942857Y-100485617D01*
X119085714Y-100771331D02*
X119085714Y-100171331D01*
X119085714Y-100171331D02*
X118857143Y-100171331D01*
X118857143Y-100171331D02*
X118800000Y-100199902D01*
X118800000Y-100199902D02*
X118771429Y-100228474D01*
X118771429Y-100228474D02*
X118742857Y-100285617D01*
X118742857Y-100285617D02*
X118742857Y-100371331D01*
X118742857Y-100371331D02*
X118771429Y-100428474D01*
X118771429Y-100428474D02*
X118800000Y-100457045D01*
X118800000Y-100457045D02*
X118857143Y-100485617D01*
X118857143Y-100485617D02*
X119085714Y-100485617D01*
X118542857Y-100171331D02*
X118171429Y-100171331D01*
X118171429Y-100171331D02*
X118371429Y-100399902D01*
X118371429Y-100399902D02*
X118285714Y-100399902D01*
X118285714Y-100399902D02*
X118228572Y-100428474D01*
X118228572Y-100428474D02*
X118200000Y-100457045D01*
X118200000Y-100457045D02*
X118171429Y-100514188D01*
X118171429Y-100514188D02*
X118171429Y-100657045D01*
X118171429Y-100657045D02*
X118200000Y-100714188D01*
X118200000Y-100714188D02*
X118228572Y-100742760D01*
X118228572Y-100742760D02*
X118285714Y-100771331D01*
X118285714Y-100771331D02*
X118457143Y-100771331D01*
X118457143Y-100771331D02*
X118514286Y-100742760D01*
X118514286Y-100742760D02*
X118542857Y-100714188D01*
X117885714Y-100742760D02*
X117885714Y-100771331D01*
X117885714Y-100771331D02*
X117914285Y-100828474D01*
X117914285Y-100828474D02*
X117942857Y-100857045D01*
X116828571Y-100771331D02*
X117028571Y-100485617D01*
X117171428Y-100771331D02*
X117171428Y-100171331D01*
X117171428Y-100171331D02*
X116942857Y-100171331D01*
X116942857Y-100171331D02*
X116885714Y-100199902D01*
X116885714Y-100199902D02*
X116857143Y-100228474D01*
X116857143Y-100228474D02*
X116828571Y-100285617D01*
X116828571Y-100285617D02*
X116828571Y-100371331D01*
X116828571Y-100371331D02*
X116857143Y-100428474D01*
X116857143Y-100428474D02*
X116885714Y-100457045D01*
X116885714Y-100457045D02*
X116942857Y-100485617D01*
X116942857Y-100485617D02*
X117171428Y-100485617D01*
X116314286Y-100371331D02*
X116314286Y-100771331D01*
X116457143Y-100142760D02*
X116600000Y-100571331D01*
X116600000Y-100571331D02*
X116228571Y-100571331D01*
X115999999Y-100714188D02*
X115971428Y-100742760D01*
X115971428Y-100742760D02*
X115999999Y-100771331D01*
X115999999Y-100771331D02*
X116028571Y-100742760D01*
X116028571Y-100742760D02*
X115999999Y-100714188D01*
X115999999Y-100714188D02*
X115999999Y-100771331D01*
X115999999Y-100399902D02*
X115971428Y-100428474D01*
X115971428Y-100428474D02*
X115999999Y-100457045D01*
X115999999Y-100457045D02*
X116028571Y-100428474D01*
X116028571Y-100428474D02*
X115999999Y-100399902D01*
X115999999Y-100399902D02*
X115999999Y-100457045D01*
X114942857Y-100771331D02*
X115285714Y-100771331D01*
X115114285Y-100771331D02*
X115114285Y-100171331D01*
X115114285Y-100171331D02*
X115171428Y-100257045D01*
X115171428Y-100257045D02*
X115228571Y-100314188D01*
X115228571Y-100314188D02*
X115285714Y-100342760D01*
X114599999Y-100428474D02*
X114657142Y-100399902D01*
X114657142Y-100399902D02*
X114685713Y-100371331D01*
X114685713Y-100371331D02*
X114714285Y-100314188D01*
X114714285Y-100314188D02*
X114714285Y-100285617D01*
X114714285Y-100285617D02*
X114685713Y-100228474D01*
X114685713Y-100228474D02*
X114657142Y-100199902D01*
X114657142Y-100199902D02*
X114599999Y-100171331D01*
X114599999Y-100171331D02*
X114485713Y-100171331D01*
X114485713Y-100171331D02*
X114428571Y-100199902D01*
X114428571Y-100199902D02*
X114399999Y-100228474D01*
X114399999Y-100228474D02*
X114371428Y-100285617D01*
X114371428Y-100285617D02*
X114371428Y-100314188D01*
X114371428Y-100314188D02*
X114399999Y-100371331D01*
X114399999Y-100371331D02*
X114428571Y-100399902D01*
X114428571Y-100399902D02*
X114485713Y-100428474D01*
X114485713Y-100428474D02*
X114599999Y-100428474D01*
X114599999Y-100428474D02*
X114657142Y-100457045D01*
X114657142Y-100457045D02*
X114685713Y-100485617D01*
X114685713Y-100485617D02*
X114714285Y-100542760D01*
X114714285Y-100542760D02*
X114714285Y-100657045D01*
X114714285Y-100657045D02*
X114685713Y-100714188D01*
X114685713Y-100714188D02*
X114657142Y-100742760D01*
X114657142Y-100742760D02*
X114599999Y-100771331D01*
X114599999Y-100771331D02*
X114485713Y-100771331D01*
X114485713Y-100771331D02*
X114428571Y-100742760D01*
X114428571Y-100742760D02*
X114399999Y-100714188D01*
X114399999Y-100714188D02*
X114371428Y-100657045D01*
X114371428Y-100657045D02*
X114371428Y-100542760D01*
X114371428Y-100542760D02*
X114399999Y-100485617D01*
X114399999Y-100485617D02*
X114428571Y-100457045D01*
X114428571Y-100457045D02*
X114485713Y-100428474D01*
X114114284Y-100771331D02*
X114114284Y-100171331D01*
X114057142Y-100542760D02*
X113885713Y-100771331D01*
X113885713Y-100371331D02*
X114114284Y-100599902D01*
X118742857Y-101771331D02*
X118942857Y-101485617D01*
X119085714Y-101771331D02*
X119085714Y-101171331D01*
X119085714Y-101171331D02*
X118857143Y-101171331D01*
X118857143Y-101171331D02*
X118800000Y-101199902D01*
X118800000Y-101199902D02*
X118771429Y-101228474D01*
X118771429Y-101228474D02*
X118742857Y-101285617D01*
X118742857Y-101285617D02*
X118742857Y-101371331D01*
X118742857Y-101371331D02*
X118771429Y-101428474D01*
X118771429Y-101428474D02*
X118800000Y-101457045D01*
X118800000Y-101457045D02*
X118857143Y-101485617D01*
X118857143Y-101485617D02*
X119085714Y-101485617D01*
X118200000Y-101171331D02*
X118485714Y-101171331D01*
X118485714Y-101171331D02*
X118514286Y-101457045D01*
X118514286Y-101457045D02*
X118485714Y-101428474D01*
X118485714Y-101428474D02*
X118428572Y-101399902D01*
X118428572Y-101399902D02*
X118285714Y-101399902D01*
X118285714Y-101399902D02*
X118228572Y-101428474D01*
X118228572Y-101428474D02*
X118200000Y-101457045D01*
X118200000Y-101457045D02*
X118171429Y-101514188D01*
X118171429Y-101514188D02*
X118171429Y-101657045D01*
X118171429Y-101657045D02*
X118200000Y-101714188D01*
X118200000Y-101714188D02*
X118228572Y-101742760D01*
X118228572Y-101742760D02*
X118285714Y-101771331D01*
X118285714Y-101771331D02*
X118428572Y-101771331D01*
X118428572Y-101771331D02*
X118485714Y-101742760D01*
X118485714Y-101742760D02*
X118514286Y-101714188D01*
X117885714Y-101742760D02*
X117885714Y-101771331D01*
X117885714Y-101771331D02*
X117914285Y-101828474D01*
X117914285Y-101828474D02*
X117942857Y-101857045D01*
X116828571Y-101771331D02*
X117028571Y-101485617D01*
X117171428Y-101771331D02*
X117171428Y-101171331D01*
X117171428Y-101171331D02*
X116942857Y-101171331D01*
X116942857Y-101171331D02*
X116885714Y-101199902D01*
X116885714Y-101199902D02*
X116857143Y-101228474D01*
X116857143Y-101228474D02*
X116828571Y-101285617D01*
X116828571Y-101285617D02*
X116828571Y-101371331D01*
X116828571Y-101371331D02*
X116857143Y-101428474D01*
X116857143Y-101428474D02*
X116885714Y-101457045D01*
X116885714Y-101457045D02*
X116942857Y-101485617D01*
X116942857Y-101485617D02*
X117171428Y-101485617D01*
X116314286Y-101171331D02*
X116428571Y-101171331D01*
X116428571Y-101171331D02*
X116485714Y-101199902D01*
X116485714Y-101199902D02*
X116514286Y-101228474D01*
X116514286Y-101228474D02*
X116571428Y-101314188D01*
X116571428Y-101314188D02*
X116600000Y-101428474D01*
X116600000Y-101428474D02*
X116600000Y-101657045D01*
X116600000Y-101657045D02*
X116571428Y-101714188D01*
X116571428Y-101714188D02*
X116542857Y-101742760D01*
X116542857Y-101742760D02*
X116485714Y-101771331D01*
X116485714Y-101771331D02*
X116371428Y-101771331D01*
X116371428Y-101771331D02*
X116314286Y-101742760D01*
X116314286Y-101742760D02*
X116285714Y-101714188D01*
X116285714Y-101714188D02*
X116257143Y-101657045D01*
X116257143Y-101657045D02*
X116257143Y-101514188D01*
X116257143Y-101514188D02*
X116285714Y-101457045D01*
X116285714Y-101457045D02*
X116314286Y-101428474D01*
X116314286Y-101428474D02*
X116371428Y-101399902D01*
X116371428Y-101399902D02*
X116485714Y-101399902D01*
X116485714Y-101399902D02*
X116542857Y-101428474D01*
X116542857Y-101428474D02*
X116571428Y-101457045D01*
X116571428Y-101457045D02*
X116600000Y-101514188D01*
X115999999Y-101714188D02*
X115971428Y-101742760D01*
X115971428Y-101742760D02*
X115999999Y-101771331D01*
X115999999Y-101771331D02*
X116028571Y-101742760D01*
X116028571Y-101742760D02*
X115999999Y-101714188D01*
X115999999Y-101714188D02*
X115999999Y-101771331D01*
X115999999Y-101399902D02*
X115971428Y-101428474D01*
X115971428Y-101428474D02*
X115999999Y-101457045D01*
X115999999Y-101457045D02*
X116028571Y-101428474D01*
X116028571Y-101428474D02*
X115999999Y-101399902D01*
X115999999Y-101399902D02*
X115999999Y-101457045D01*
X114942857Y-101771331D02*
X115285714Y-101771331D01*
X115114285Y-101771331D02*
X115114285Y-101171331D01*
X115114285Y-101171331D02*
X115171428Y-101257045D01*
X115171428Y-101257045D02*
X115228571Y-101314188D01*
X115228571Y-101314188D02*
X115285714Y-101342760D01*
X114571428Y-101171331D02*
X114514285Y-101171331D01*
X114514285Y-101171331D02*
X114457142Y-101199902D01*
X114457142Y-101199902D02*
X114428571Y-101228474D01*
X114428571Y-101228474D02*
X114399999Y-101285617D01*
X114399999Y-101285617D02*
X114371428Y-101399902D01*
X114371428Y-101399902D02*
X114371428Y-101542760D01*
X114371428Y-101542760D02*
X114399999Y-101657045D01*
X114399999Y-101657045D02*
X114428571Y-101714188D01*
X114428571Y-101714188D02*
X114457142Y-101742760D01*
X114457142Y-101742760D02*
X114514285Y-101771331D01*
X114514285Y-101771331D02*
X114571428Y-101771331D01*
X114571428Y-101771331D02*
X114628571Y-101742760D01*
X114628571Y-101742760D02*
X114657142Y-101714188D01*
X114657142Y-101714188D02*
X114685713Y-101657045D01*
X114685713Y-101657045D02*
X114714285Y-101542760D01*
X114714285Y-101542760D02*
X114714285Y-101399902D01*
X114714285Y-101399902D02*
X114685713Y-101285617D01*
X114685713Y-101285617D02*
X114657142Y-101228474D01*
X114657142Y-101228474D02*
X114628571Y-101199902D01*
X114628571Y-101199902D02*
X114571428Y-101171331D01*
X114114284Y-101771331D02*
X114114284Y-101171331D01*
X114057142Y-101542760D02*
X113885713Y-101771331D01*
X113885713Y-101371331D02*
X114114284Y-101599902D01*
X119028571Y-103171331D02*
X119028571Y-103657045D01*
X119028571Y-103657045D02*
X119000000Y-103714188D01*
X119000000Y-103714188D02*
X118971429Y-103742760D01*
X118971429Y-103742760D02*
X118914286Y-103771331D01*
X118914286Y-103771331D02*
X118800000Y-103771331D01*
X118800000Y-103771331D02*
X118742857Y-103742760D01*
X118742857Y-103742760D02*
X118714286Y-103714188D01*
X118714286Y-103714188D02*
X118685714Y-103657045D01*
X118685714Y-103657045D02*
X118685714Y-103171331D01*
X118085715Y-103771331D02*
X118428572Y-103771331D01*
X118257143Y-103771331D02*
X118257143Y-103171331D01*
X118257143Y-103171331D02*
X118314286Y-103257045D01*
X118314286Y-103257045D02*
X118371429Y-103314188D01*
X118371429Y-103314188D02*
X118428572Y-103342760D01*
X117828571Y-103714188D02*
X117800000Y-103742760D01*
X117800000Y-103742760D02*
X117828571Y-103771331D01*
X117828571Y-103771331D02*
X117857143Y-103742760D01*
X117857143Y-103742760D02*
X117828571Y-103714188D01*
X117828571Y-103714188D02*
X117828571Y-103771331D01*
X117828571Y-103399902D02*
X117800000Y-103428474D01*
X117800000Y-103428474D02*
X117828571Y-103457045D01*
X117828571Y-103457045D02*
X117857143Y-103428474D01*
X117857143Y-103428474D02*
X117828571Y-103399902D01*
X117828571Y-103399902D02*
X117828571Y-103457045D01*
X116800000Y-103771331D02*
X117085714Y-103771331D01*
X117085714Y-103771331D02*
X117085714Y-103171331D01*
X116600000Y-103771331D02*
X116600000Y-103171331D01*
X116600000Y-103171331D02*
X116400000Y-103599902D01*
X116400000Y-103599902D02*
X116200000Y-103171331D01*
X116200000Y-103171331D02*
X116200000Y-103771331D01*
X116000001Y-103171331D02*
X115800001Y-103771331D01*
X115800001Y-103771331D02*
X115600001Y-103171331D01*
X115457143Y-103171331D02*
X115085715Y-103171331D01*
X115085715Y-103171331D02*
X115285715Y-103399902D01*
X115285715Y-103399902D02*
X115200000Y-103399902D01*
X115200000Y-103399902D02*
X115142858Y-103428474D01*
X115142858Y-103428474D02*
X115114286Y-103457045D01*
X115114286Y-103457045D02*
X115085715Y-103514188D01*
X115085715Y-103514188D02*
X115085715Y-103657045D01*
X115085715Y-103657045D02*
X115114286Y-103714188D01*
X115114286Y-103714188D02*
X115142858Y-103742760D01*
X115142858Y-103742760D02*
X115200000Y-103771331D01*
X115200000Y-103771331D02*
X115371429Y-103771331D01*
X115371429Y-103771331D02*
X115428572Y-103742760D01*
X115428572Y-103742760D02*
X115457143Y-103714188D01*
X114542857Y-103171331D02*
X114828571Y-103171331D01*
X114828571Y-103171331D02*
X114857143Y-103457045D01*
X114857143Y-103457045D02*
X114828571Y-103428474D01*
X114828571Y-103428474D02*
X114771429Y-103399902D01*
X114771429Y-103399902D02*
X114628571Y-103399902D01*
X114628571Y-103399902D02*
X114571429Y-103428474D01*
X114571429Y-103428474D02*
X114542857Y-103457045D01*
X114542857Y-103457045D02*
X114514286Y-103514188D01*
X114514286Y-103514188D02*
X114514286Y-103657045D01*
X114514286Y-103657045D02*
X114542857Y-103714188D01*
X114542857Y-103714188D02*
X114571429Y-103742760D01*
X114571429Y-103742760D02*
X114628571Y-103771331D01*
X114628571Y-103771331D02*
X114771429Y-103771331D01*
X114771429Y-103771331D02*
X114828571Y-103742760D01*
X114828571Y-103742760D02*
X114857143Y-103714188D01*
X114171428Y-103428474D02*
X114228571Y-103399902D01*
X114228571Y-103399902D02*
X114257142Y-103371331D01*
X114257142Y-103371331D02*
X114285714Y-103314188D01*
X114285714Y-103314188D02*
X114285714Y-103285617D01*
X114285714Y-103285617D02*
X114257142Y-103228474D01*
X114257142Y-103228474D02*
X114228571Y-103199902D01*
X114228571Y-103199902D02*
X114171428Y-103171331D01*
X114171428Y-103171331D02*
X114057142Y-103171331D01*
X114057142Y-103171331D02*
X114000000Y-103199902D01*
X114000000Y-103199902D02*
X113971428Y-103228474D01*
X113971428Y-103228474D02*
X113942857Y-103285617D01*
X113942857Y-103285617D02*
X113942857Y-103314188D01*
X113942857Y-103314188D02*
X113971428Y-103371331D01*
X113971428Y-103371331D02*
X114000000Y-103399902D01*
X114000000Y-103399902D02*
X114057142Y-103428474D01*
X114057142Y-103428474D02*
X114171428Y-103428474D01*
X114171428Y-103428474D02*
X114228571Y-103457045D01*
X114228571Y-103457045D02*
X114257142Y-103485617D01*
X114257142Y-103485617D02*
X114285714Y-103542760D01*
X114285714Y-103542760D02*
X114285714Y-103657045D01*
X114285714Y-103657045D02*
X114257142Y-103714188D01*
X114257142Y-103714188D02*
X114228571Y-103742760D01*
X114228571Y-103742760D02*
X114171428Y-103771331D01*
X114171428Y-103771331D02*
X114057142Y-103771331D01*
X114057142Y-103771331D02*
X114000000Y-103742760D01*
X114000000Y-103742760D02*
X113971428Y-103714188D01*
X113971428Y-103714188D02*
X113942857Y-103657045D01*
X113942857Y-103657045D02*
X113942857Y-103542760D01*
X113942857Y-103542760D02*
X113971428Y-103485617D01*
X113971428Y-103485617D02*
X114000000Y-103457045D01*
X114000000Y-103457045D02*
X114057142Y-103428474D01*
X124942857Y-99171331D02*
X124742857Y-99771331D01*
X124742857Y-99771331D02*
X124542857Y-99171331D01*
X124342856Y-99457045D02*
X123885714Y-99457045D01*
X123885714Y-99628474D02*
X124342856Y-99628474D01*
X123428571Y-99999902D02*
X123457142Y-99971331D01*
X123457142Y-99971331D02*
X123514285Y-99885617D01*
X123514285Y-99885617D02*
X123542857Y-99828474D01*
X123542857Y-99828474D02*
X123571428Y-99742760D01*
X123571428Y-99742760D02*
X123599999Y-99599902D01*
X123599999Y-99599902D02*
X123599999Y-99485617D01*
X123599999Y-99485617D02*
X123571428Y-99342760D01*
X123571428Y-99342760D02*
X123542857Y-99257045D01*
X123542857Y-99257045D02*
X123514285Y-99199902D01*
X123514285Y-99199902D02*
X123457142Y-99114188D01*
X123457142Y-99114188D02*
X123428571Y-99085617D01*
X123085714Y-99171331D02*
X122971428Y-99171331D01*
X122971428Y-99171331D02*
X122914285Y-99199902D01*
X122914285Y-99199902D02*
X122857142Y-99257045D01*
X122857142Y-99257045D02*
X122828571Y-99371331D01*
X122828571Y-99371331D02*
X122828571Y-99571331D01*
X122828571Y-99571331D02*
X122857142Y-99685617D01*
X122857142Y-99685617D02*
X122914285Y-99742760D01*
X122914285Y-99742760D02*
X122971428Y-99771331D01*
X122971428Y-99771331D02*
X123085714Y-99771331D01*
X123085714Y-99771331D02*
X123142857Y-99742760D01*
X123142857Y-99742760D02*
X123199999Y-99685617D01*
X123199999Y-99685617D02*
X123228571Y-99571331D01*
X123228571Y-99571331D02*
X123228571Y-99371331D01*
X123228571Y-99371331D02*
X123199999Y-99257045D01*
X123199999Y-99257045D02*
X123142857Y-99199902D01*
X123142857Y-99199902D02*
X123085714Y-99171331D01*
X122571428Y-99171331D02*
X122571428Y-99657045D01*
X122571428Y-99657045D02*
X122542857Y-99714188D01*
X122542857Y-99714188D02*
X122514286Y-99742760D01*
X122514286Y-99742760D02*
X122457143Y-99771331D01*
X122457143Y-99771331D02*
X122342857Y-99771331D01*
X122342857Y-99771331D02*
X122285714Y-99742760D01*
X122285714Y-99742760D02*
X122257143Y-99714188D01*
X122257143Y-99714188D02*
X122228571Y-99657045D01*
X122228571Y-99657045D02*
X122228571Y-99171331D01*
X122028572Y-99171331D02*
X121685715Y-99171331D01*
X121857143Y-99771331D02*
X121857143Y-99171331D01*
X121485714Y-99542760D02*
X121028572Y-99542760D01*
X120428572Y-99771331D02*
X120771429Y-99771331D01*
X120600000Y-99771331D02*
X120600000Y-99171331D01*
X120600000Y-99171331D02*
X120657143Y-99257045D01*
X120657143Y-99257045D02*
X120714286Y-99314188D01*
X120714286Y-99314188D02*
X120771429Y-99342760D01*
X120171428Y-99714188D02*
X120142857Y-99742760D01*
X120142857Y-99742760D02*
X120171428Y-99771331D01*
X120171428Y-99771331D02*
X120200000Y-99742760D01*
X120200000Y-99742760D02*
X120171428Y-99714188D01*
X120171428Y-99714188D02*
X120171428Y-99771331D01*
X119628572Y-99171331D02*
X119742857Y-99171331D01*
X119742857Y-99171331D02*
X119800000Y-99199902D01*
X119800000Y-99199902D02*
X119828572Y-99228474D01*
X119828572Y-99228474D02*
X119885714Y-99314188D01*
X119885714Y-99314188D02*
X119914286Y-99428474D01*
X119914286Y-99428474D02*
X119914286Y-99657045D01*
X119914286Y-99657045D02*
X119885714Y-99714188D01*
X119885714Y-99714188D02*
X119857143Y-99742760D01*
X119857143Y-99742760D02*
X119800000Y-99771331D01*
X119800000Y-99771331D02*
X119685714Y-99771331D01*
X119685714Y-99771331D02*
X119628572Y-99742760D01*
X119628572Y-99742760D02*
X119600000Y-99714188D01*
X119600000Y-99714188D02*
X119571429Y-99657045D01*
X119571429Y-99657045D02*
X119571429Y-99514188D01*
X119571429Y-99514188D02*
X119600000Y-99457045D01*
X119600000Y-99457045D02*
X119628572Y-99428474D01*
X119628572Y-99428474D02*
X119685714Y-99399902D01*
X119685714Y-99399902D02*
X119800000Y-99399902D01*
X119800000Y-99399902D02*
X119857143Y-99428474D01*
X119857143Y-99428474D02*
X119885714Y-99457045D01*
X119885714Y-99457045D02*
X119914286Y-99514188D01*
X119028571Y-99171331D02*
X119314285Y-99171331D01*
X119314285Y-99171331D02*
X119342857Y-99457045D01*
X119342857Y-99457045D02*
X119314285Y-99428474D01*
X119314285Y-99428474D02*
X119257143Y-99399902D01*
X119257143Y-99399902D02*
X119114285Y-99399902D01*
X119114285Y-99399902D02*
X119057143Y-99428474D01*
X119057143Y-99428474D02*
X119028571Y-99457045D01*
X119028571Y-99457045D02*
X119000000Y-99514188D01*
X119000000Y-99514188D02*
X119000000Y-99657045D01*
X119000000Y-99657045D02*
X119028571Y-99714188D01*
X119028571Y-99714188D02*
X119057143Y-99742760D01*
X119057143Y-99742760D02*
X119114285Y-99771331D01*
X119114285Y-99771331D02*
X119257143Y-99771331D01*
X119257143Y-99771331D02*
X119314285Y-99742760D01*
X119314285Y-99742760D02*
X119342857Y-99714188D01*
X118799999Y-99999902D02*
X118771428Y-99971331D01*
X118771428Y-99971331D02*
X118714285Y-99885617D01*
X118714285Y-99885617D02*
X118685714Y-99828474D01*
X118685714Y-99828474D02*
X118657142Y-99742760D01*
X118657142Y-99742760D02*
X118628571Y-99599902D01*
X118628571Y-99599902D02*
X118628571Y-99485617D01*
X118628571Y-99485617D02*
X118657142Y-99342760D01*
X118657142Y-99342760D02*
X118685714Y-99257045D01*
X118685714Y-99257045D02*
X118714285Y-99199902D01*
X118714285Y-99199902D02*
X118771428Y-99114188D01*
X118771428Y-99114188D02*
X118799999Y-99085617D01*
X118399999Y-99771331D02*
X118085714Y-99371331D01*
X118399999Y-99371331D02*
X118085714Y-99771331D01*
X117885714Y-99228474D02*
X117857142Y-99199902D01*
X117857142Y-99199902D02*
X117800000Y-99171331D01*
X117800000Y-99171331D02*
X117657142Y-99171331D01*
X117657142Y-99171331D02*
X117600000Y-99199902D01*
X117600000Y-99199902D02*
X117571428Y-99228474D01*
X117571428Y-99228474D02*
X117542857Y-99285617D01*
X117542857Y-99285617D02*
X117542857Y-99342760D01*
X117542857Y-99342760D02*
X117571428Y-99428474D01*
X117571428Y-99428474D02*
X117914285Y-99771331D01*
X117914285Y-99771331D02*
X117542857Y-99771331D01*
X117342856Y-99171331D02*
X116942856Y-99171331D01*
X116942856Y-99171331D02*
X117199999Y-99771331D01*
X116714284Y-99714188D02*
X116685713Y-99742760D01*
X116685713Y-99742760D02*
X116714284Y-99771331D01*
X116714284Y-99771331D02*
X116742856Y-99742760D01*
X116742856Y-99742760D02*
X116714284Y-99714188D01*
X116714284Y-99714188D02*
X116714284Y-99771331D01*
X116114285Y-99771331D02*
X116457142Y-99771331D01*
X116285713Y-99771331D02*
X116285713Y-99171331D01*
X116285713Y-99171331D02*
X116342856Y-99257045D01*
X116342856Y-99257045D02*
X116399999Y-99314188D01*
X116399999Y-99314188D02*
X116457142Y-99342760D01*
X126914286Y-103771331D02*
X126914286Y-103171331D01*
X126914286Y-103171331D02*
X126771429Y-103171331D01*
X126771429Y-103171331D02*
X126685715Y-103199902D01*
X126685715Y-103199902D02*
X126628572Y-103257045D01*
X126628572Y-103257045D02*
X126600001Y-103314188D01*
X126600001Y-103314188D02*
X126571429Y-103428474D01*
X126571429Y-103428474D02*
X126571429Y-103514188D01*
X126571429Y-103514188D02*
X126600001Y-103628474D01*
X126600001Y-103628474D02*
X126628572Y-103685617D01*
X126628572Y-103685617D02*
X126685715Y-103742760D01*
X126685715Y-103742760D02*
X126771429Y-103771331D01*
X126771429Y-103771331D02*
X126914286Y-103771331D01*
X126000001Y-103771331D02*
X126342858Y-103771331D01*
X126171429Y-103771331D02*
X126171429Y-103171331D01*
X126171429Y-103171331D02*
X126228572Y-103257045D01*
X126228572Y-103257045D02*
X126285715Y-103314188D01*
X126285715Y-103314188D02*
X126342858Y-103342760D01*
X125714286Y-103742760D02*
X125714286Y-103771331D01*
X125714286Y-103771331D02*
X125742857Y-103828474D01*
X125742857Y-103828474D02*
X125771429Y-103857045D01*
X125000000Y-103771331D02*
X125000000Y-103171331D01*
X125000000Y-103171331D02*
X124857143Y-103171331D01*
X124857143Y-103171331D02*
X124771429Y-103199902D01*
X124771429Y-103199902D02*
X124714286Y-103257045D01*
X124714286Y-103257045D02*
X124685715Y-103314188D01*
X124685715Y-103314188D02*
X124657143Y-103428474D01*
X124657143Y-103428474D02*
X124657143Y-103514188D01*
X124657143Y-103514188D02*
X124685715Y-103628474D01*
X124685715Y-103628474D02*
X124714286Y-103685617D01*
X124714286Y-103685617D02*
X124771429Y-103742760D01*
X124771429Y-103742760D02*
X124857143Y-103771331D01*
X124857143Y-103771331D02*
X125000000Y-103771331D01*
X124428572Y-103228474D02*
X124400000Y-103199902D01*
X124400000Y-103199902D02*
X124342858Y-103171331D01*
X124342858Y-103171331D02*
X124200000Y-103171331D01*
X124200000Y-103171331D02*
X124142858Y-103199902D01*
X124142858Y-103199902D02*
X124114286Y-103228474D01*
X124114286Y-103228474D02*
X124085715Y-103285617D01*
X124085715Y-103285617D02*
X124085715Y-103342760D01*
X124085715Y-103342760D02*
X124114286Y-103428474D01*
X124114286Y-103428474D02*
X124457143Y-103771331D01*
X124457143Y-103771331D02*
X124085715Y-103771331D01*
X123828571Y-103714188D02*
X123800000Y-103742760D01*
X123800000Y-103742760D02*
X123828571Y-103771331D01*
X123828571Y-103771331D02*
X123857143Y-103742760D01*
X123857143Y-103742760D02*
X123828571Y-103714188D01*
X123828571Y-103714188D02*
X123828571Y-103771331D01*
X123828571Y-103399902D02*
X123800000Y-103428474D01*
X123800000Y-103428474D02*
X123828571Y-103457045D01*
X123828571Y-103457045D02*
X123857143Y-103428474D01*
X123857143Y-103428474D02*
X123828571Y-103399902D01*
X123828571Y-103399902D02*
X123828571Y-103457045D01*
X122885714Y-103457045D02*
X122800000Y-103485617D01*
X122800000Y-103485617D02*
X122771429Y-103514188D01*
X122771429Y-103514188D02*
X122742857Y-103571331D01*
X122742857Y-103571331D02*
X122742857Y-103657045D01*
X122742857Y-103657045D02*
X122771429Y-103714188D01*
X122771429Y-103714188D02*
X122800000Y-103742760D01*
X122800000Y-103742760D02*
X122857143Y-103771331D01*
X122857143Y-103771331D02*
X123085714Y-103771331D01*
X123085714Y-103771331D02*
X123085714Y-103171331D01*
X123085714Y-103171331D02*
X122885714Y-103171331D01*
X122885714Y-103171331D02*
X122828572Y-103199902D01*
X122828572Y-103199902D02*
X122800000Y-103228474D01*
X122800000Y-103228474D02*
X122771429Y-103285617D01*
X122771429Y-103285617D02*
X122771429Y-103342760D01*
X122771429Y-103342760D02*
X122800000Y-103399902D01*
X122800000Y-103399902D02*
X122828572Y-103428474D01*
X122828572Y-103428474D02*
X122885714Y-103457045D01*
X122885714Y-103457045D02*
X123085714Y-103457045D01*
X122514286Y-103599902D02*
X122228572Y-103599902D01*
X122571429Y-103771331D02*
X122371429Y-103171331D01*
X122371429Y-103171331D02*
X122171429Y-103771331D01*
X122057143Y-103171331D02*
X121714286Y-103171331D01*
X121885714Y-103771331D02*
X121885714Y-103171331D01*
X121228571Y-103171331D02*
X121514285Y-103171331D01*
X121514285Y-103171331D02*
X121542857Y-103457045D01*
X121542857Y-103457045D02*
X121514285Y-103428474D01*
X121514285Y-103428474D02*
X121457143Y-103399902D01*
X121457143Y-103399902D02*
X121314285Y-103399902D01*
X121314285Y-103399902D02*
X121257143Y-103428474D01*
X121257143Y-103428474D02*
X121228571Y-103457045D01*
X121228571Y-103457045D02*
X121200000Y-103514188D01*
X121200000Y-103514188D02*
X121200000Y-103657045D01*
X121200000Y-103657045D02*
X121228571Y-103714188D01*
X121228571Y-103714188D02*
X121257143Y-103742760D01*
X121257143Y-103742760D02*
X121314285Y-103771331D01*
X121314285Y-103771331D02*
X121457143Y-103771331D01*
X121457143Y-103771331D02*
X121514285Y-103742760D01*
X121514285Y-103742760D02*
X121542857Y-103714188D01*
X120685714Y-103371331D02*
X120685714Y-103771331D01*
X120828571Y-103142760D02*
X120971428Y-103571331D01*
X120971428Y-103571331D02*
X120599999Y-103571331D01*
X120399999Y-103742760D02*
X120314285Y-103771331D01*
X120314285Y-103771331D02*
X120171427Y-103771331D01*
X120171427Y-103771331D02*
X120114285Y-103742760D01*
X120114285Y-103742760D02*
X120085713Y-103714188D01*
X120085713Y-103714188D02*
X120057142Y-103657045D01*
X120057142Y-103657045D02*
X120057142Y-103599902D01*
X120057142Y-103599902D02*
X120085713Y-103542760D01*
X120085713Y-103542760D02*
X120114285Y-103514188D01*
X120114285Y-103514188D02*
X120171427Y-103485617D01*
X120171427Y-103485617D02*
X120285713Y-103457045D01*
X120285713Y-103457045D02*
X120342856Y-103428474D01*
X120342856Y-103428474D02*
X120371427Y-103399902D01*
X120371427Y-103399902D02*
X120399999Y-103342760D01*
X120399999Y-103342760D02*
X120399999Y-103285617D01*
X120399999Y-103285617D02*
X120371427Y-103228474D01*
X120371427Y-103228474D02*
X120342856Y-103199902D01*
X120342856Y-103199902D02*
X120285713Y-103171331D01*
X120285713Y-103171331D02*
X120142856Y-103171331D01*
X120142856Y-103171331D02*
X120057142Y-103199902D01*
X126618571Y-100831331D02*
X126818571Y-100545617D01*
X126961428Y-100831331D02*
X126961428Y-100231331D01*
X126961428Y-100231331D02*
X126732857Y-100231331D01*
X126732857Y-100231331D02*
X126675714Y-100259902D01*
X126675714Y-100259902D02*
X126647143Y-100288474D01*
X126647143Y-100288474D02*
X126618571Y-100345617D01*
X126618571Y-100345617D02*
X126618571Y-100431331D01*
X126618571Y-100431331D02*
X126647143Y-100488474D01*
X126647143Y-100488474D02*
X126675714Y-100517045D01*
X126675714Y-100517045D02*
X126732857Y-100545617D01*
X126732857Y-100545617D02*
X126961428Y-100545617D01*
X126047143Y-100831331D02*
X126390000Y-100831331D01*
X126218571Y-100831331D02*
X126218571Y-100231331D01*
X126218571Y-100231331D02*
X126275714Y-100317045D01*
X126275714Y-100317045D02*
X126332857Y-100374188D01*
X126332857Y-100374188D02*
X126390000Y-100402760D01*
X125761428Y-100802760D02*
X125761428Y-100831331D01*
X125761428Y-100831331D02*
X125789999Y-100888474D01*
X125789999Y-100888474D02*
X125818571Y-100917045D01*
X124704285Y-100831331D02*
X124904285Y-100545617D01*
X125047142Y-100831331D02*
X125047142Y-100231331D01*
X125047142Y-100231331D02*
X124818571Y-100231331D01*
X124818571Y-100231331D02*
X124761428Y-100259902D01*
X124761428Y-100259902D02*
X124732857Y-100288474D01*
X124732857Y-100288474D02*
X124704285Y-100345617D01*
X124704285Y-100345617D02*
X124704285Y-100431331D01*
X124704285Y-100431331D02*
X124732857Y-100488474D01*
X124732857Y-100488474D02*
X124761428Y-100517045D01*
X124761428Y-100517045D02*
X124818571Y-100545617D01*
X124818571Y-100545617D02*
X125047142Y-100545617D01*
X124475714Y-100288474D02*
X124447142Y-100259902D01*
X124447142Y-100259902D02*
X124390000Y-100231331D01*
X124390000Y-100231331D02*
X124247142Y-100231331D01*
X124247142Y-100231331D02*
X124190000Y-100259902D01*
X124190000Y-100259902D02*
X124161428Y-100288474D01*
X124161428Y-100288474D02*
X124132857Y-100345617D01*
X124132857Y-100345617D02*
X124132857Y-100402760D01*
X124132857Y-100402760D02*
X124161428Y-100488474D01*
X124161428Y-100488474D02*
X124504285Y-100831331D01*
X124504285Y-100831331D02*
X124132857Y-100831331D01*
X123875713Y-100774188D02*
X123847142Y-100802760D01*
X123847142Y-100802760D02*
X123875713Y-100831331D01*
X123875713Y-100831331D02*
X123904285Y-100802760D01*
X123904285Y-100802760D02*
X123875713Y-100774188D01*
X123875713Y-100774188D02*
X123875713Y-100831331D01*
X123875713Y-100459902D02*
X123847142Y-100488474D01*
X123847142Y-100488474D02*
X123875713Y-100517045D01*
X123875713Y-100517045D02*
X123904285Y-100488474D01*
X123904285Y-100488474D02*
X123875713Y-100459902D01*
X123875713Y-100459902D02*
X123875713Y-100517045D01*
X122875714Y-100431331D02*
X122875714Y-100831331D01*
X123018571Y-100202760D02*
X123161428Y-100631331D01*
X123161428Y-100631331D02*
X122789999Y-100631331D01*
X122618570Y-100231331D02*
X122218570Y-100231331D01*
X122218570Y-100231331D02*
X122475713Y-100831331D01*
X121875713Y-100231331D02*
X121818570Y-100231331D01*
X121818570Y-100231331D02*
X121761427Y-100259902D01*
X121761427Y-100259902D02*
X121732856Y-100288474D01*
X121732856Y-100288474D02*
X121704284Y-100345617D01*
X121704284Y-100345617D02*
X121675713Y-100459902D01*
X121675713Y-100459902D02*
X121675713Y-100602760D01*
X121675713Y-100602760D02*
X121704284Y-100717045D01*
X121704284Y-100717045D02*
X121732856Y-100774188D01*
X121732856Y-100774188D02*
X121761427Y-100802760D01*
X121761427Y-100802760D02*
X121818570Y-100831331D01*
X121818570Y-100831331D02*
X121875713Y-100831331D01*
X121875713Y-100831331D02*
X121932856Y-100802760D01*
X121932856Y-100802760D02*
X121961427Y-100774188D01*
X121961427Y-100774188D02*
X121989998Y-100717045D01*
X121989998Y-100717045D02*
X122018570Y-100602760D01*
X122018570Y-100602760D02*
X122018570Y-100459902D01*
X122018570Y-100459902D02*
X121989998Y-100345617D01*
X121989998Y-100345617D02*
X121961427Y-100288474D01*
X121961427Y-100288474D02*
X121932856Y-100259902D01*
X121932856Y-100259902D02*
X121875713Y-100231331D01*
X121418569Y-100831331D02*
X121418569Y-100231331D01*
X121361427Y-100602760D02*
X121189998Y-100831331D01*
X121189998Y-100431331D02*
X121418569Y-100659902D01*
X126608571Y-101831331D02*
X126808571Y-101545617D01*
X126951428Y-101831331D02*
X126951428Y-101231331D01*
X126951428Y-101231331D02*
X126722857Y-101231331D01*
X126722857Y-101231331D02*
X126665714Y-101259902D01*
X126665714Y-101259902D02*
X126637143Y-101288474D01*
X126637143Y-101288474D02*
X126608571Y-101345617D01*
X126608571Y-101345617D02*
X126608571Y-101431331D01*
X126608571Y-101431331D02*
X126637143Y-101488474D01*
X126637143Y-101488474D02*
X126665714Y-101517045D01*
X126665714Y-101517045D02*
X126722857Y-101545617D01*
X126722857Y-101545617D02*
X126951428Y-101545617D01*
X126408571Y-101231331D02*
X126008571Y-101231331D01*
X126008571Y-101231331D02*
X126265714Y-101831331D01*
X125779999Y-101774188D02*
X125751428Y-101802760D01*
X125751428Y-101802760D02*
X125779999Y-101831331D01*
X125779999Y-101831331D02*
X125808571Y-101802760D01*
X125808571Y-101802760D02*
X125779999Y-101774188D01*
X125779999Y-101774188D02*
X125779999Y-101831331D01*
X125779999Y-101459902D02*
X125751428Y-101488474D01*
X125751428Y-101488474D02*
X125779999Y-101517045D01*
X125779999Y-101517045D02*
X125808571Y-101488474D01*
X125808571Y-101488474D02*
X125779999Y-101459902D01*
X125779999Y-101459902D02*
X125779999Y-101517045D01*
X125065714Y-101288474D02*
X125037142Y-101259902D01*
X125037142Y-101259902D02*
X124980000Y-101231331D01*
X124980000Y-101231331D02*
X124837142Y-101231331D01*
X124837142Y-101231331D02*
X124780000Y-101259902D01*
X124780000Y-101259902D02*
X124751428Y-101288474D01*
X124751428Y-101288474D02*
X124722857Y-101345617D01*
X124722857Y-101345617D02*
X124722857Y-101402760D01*
X124722857Y-101402760D02*
X124751428Y-101488474D01*
X124751428Y-101488474D02*
X125094285Y-101831331D01*
X125094285Y-101831331D02*
X124722857Y-101831331D01*
X124494285Y-101288474D02*
X124465713Y-101259902D01*
X124465713Y-101259902D02*
X124408571Y-101231331D01*
X124408571Y-101231331D02*
X124265713Y-101231331D01*
X124265713Y-101231331D02*
X124208571Y-101259902D01*
X124208571Y-101259902D02*
X124179999Y-101288474D01*
X124179999Y-101288474D02*
X124151428Y-101345617D01*
X124151428Y-101345617D02*
X124151428Y-101402760D01*
X124151428Y-101402760D02*
X124179999Y-101488474D01*
X124179999Y-101488474D02*
X124522856Y-101831331D01*
X124522856Y-101831331D02*
X124151428Y-101831331D01*
X123779999Y-101231331D02*
X123722856Y-101231331D01*
X123722856Y-101231331D02*
X123665713Y-101259902D01*
X123665713Y-101259902D02*
X123637142Y-101288474D01*
X123637142Y-101288474D02*
X123608570Y-101345617D01*
X123608570Y-101345617D02*
X123579999Y-101459902D01*
X123579999Y-101459902D02*
X123579999Y-101602760D01*
X123579999Y-101602760D02*
X123608570Y-101717045D01*
X123608570Y-101717045D02*
X123637142Y-101774188D01*
X123637142Y-101774188D02*
X123665713Y-101802760D01*
X123665713Y-101802760D02*
X123722856Y-101831331D01*
X123722856Y-101831331D02*
X123779999Y-101831331D01*
X123779999Y-101831331D02*
X123837142Y-101802760D01*
X123837142Y-101802760D02*
X123865713Y-101774188D01*
X123865713Y-101774188D02*
X123894284Y-101717045D01*
X123894284Y-101717045D02*
X123922856Y-101602760D01*
X123922856Y-101602760D02*
X123922856Y-101459902D01*
X123922856Y-101459902D02*
X123894284Y-101345617D01*
X123894284Y-101345617D02*
X123865713Y-101288474D01*
X123865713Y-101288474D02*
X123837142Y-101259902D01*
X123837142Y-101259902D02*
X123779999Y-101231331D01*
X122979998Y-101831331D02*
X123179998Y-101545617D01*
X123322855Y-101831331D02*
X123322855Y-101231331D01*
X123322855Y-101231331D02*
X123094284Y-101231331D01*
X123094284Y-101231331D02*
X123037141Y-101259902D01*
X123037141Y-101259902D02*
X123008570Y-101288474D01*
X123008570Y-101288474D02*
X122979998Y-101345617D01*
X122979998Y-101345617D02*
X122979998Y-101431331D01*
X122979998Y-101431331D02*
X123008570Y-101488474D01*
X123008570Y-101488474D02*
X123037141Y-101517045D01*
X123037141Y-101517045D02*
X123094284Y-101545617D01*
X123094284Y-101545617D02*
X123322855Y-101545617D01*
X126600000Y-102714188D02*
X126628572Y-102742760D01*
X126628572Y-102742760D02*
X126714286Y-102771331D01*
X126714286Y-102771331D02*
X126771429Y-102771331D01*
X126771429Y-102771331D02*
X126857143Y-102742760D01*
X126857143Y-102742760D02*
X126914286Y-102685617D01*
X126914286Y-102685617D02*
X126942857Y-102628474D01*
X126942857Y-102628474D02*
X126971429Y-102514188D01*
X126971429Y-102514188D02*
X126971429Y-102428474D01*
X126971429Y-102428474D02*
X126942857Y-102314188D01*
X126942857Y-102314188D02*
X126914286Y-102257045D01*
X126914286Y-102257045D02*
X126857143Y-102199902D01*
X126857143Y-102199902D02*
X126771429Y-102171331D01*
X126771429Y-102171331D02*
X126714286Y-102171331D01*
X126714286Y-102171331D02*
X126628572Y-102199902D01*
X126628572Y-102199902D02*
X126600000Y-102228474D01*
X126028572Y-102771331D02*
X126371429Y-102771331D01*
X126200000Y-102771331D02*
X126200000Y-102171331D01*
X126200000Y-102171331D02*
X126257143Y-102257045D01*
X126257143Y-102257045D02*
X126314286Y-102314188D01*
X126314286Y-102314188D02*
X126371429Y-102342760D01*
X125771428Y-102714188D02*
X125742857Y-102742760D01*
X125742857Y-102742760D02*
X125771428Y-102771331D01*
X125771428Y-102771331D02*
X125800000Y-102742760D01*
X125800000Y-102742760D02*
X125771428Y-102714188D01*
X125771428Y-102714188D02*
X125771428Y-102771331D01*
X125771428Y-102399902D02*
X125742857Y-102428474D01*
X125742857Y-102428474D02*
X125771428Y-102457045D01*
X125771428Y-102457045D02*
X125800000Y-102428474D01*
X125800000Y-102428474D02*
X125771428Y-102399902D01*
X125771428Y-102399902D02*
X125771428Y-102457045D01*
X124771429Y-102371331D02*
X124771429Y-102771331D01*
X124914286Y-102142760D02*
X125057143Y-102571331D01*
X125057143Y-102571331D02*
X124685714Y-102571331D01*
X124514285Y-102171331D02*
X124114285Y-102171331D01*
X124114285Y-102171331D02*
X124371428Y-102771331D01*
X123771428Y-102171331D02*
X123714285Y-102171331D01*
X123714285Y-102171331D02*
X123657142Y-102199902D01*
X123657142Y-102199902D02*
X123628571Y-102228474D01*
X123628571Y-102228474D02*
X123599999Y-102285617D01*
X123599999Y-102285617D02*
X123571428Y-102399902D01*
X123571428Y-102399902D02*
X123571428Y-102542760D01*
X123571428Y-102542760D02*
X123599999Y-102657045D01*
X123599999Y-102657045D02*
X123628571Y-102714188D01*
X123628571Y-102714188D02*
X123657142Y-102742760D01*
X123657142Y-102742760D02*
X123714285Y-102771331D01*
X123714285Y-102771331D02*
X123771428Y-102771331D01*
X123771428Y-102771331D02*
X123828571Y-102742760D01*
X123828571Y-102742760D02*
X123857142Y-102714188D01*
X123857142Y-102714188D02*
X123885713Y-102657045D01*
X123885713Y-102657045D02*
X123914285Y-102542760D01*
X123914285Y-102542760D02*
X123914285Y-102399902D01*
X123914285Y-102399902D02*
X123885713Y-102285617D01*
X123885713Y-102285617D02*
X123857142Y-102228474D01*
X123857142Y-102228474D02*
X123828571Y-102199902D01*
X123828571Y-102199902D02*
X123771428Y-102171331D01*
X123314284Y-102371331D02*
X123314284Y-102971331D01*
X123314284Y-102399902D02*
X123257142Y-102371331D01*
X123257142Y-102371331D02*
X123142856Y-102371331D01*
X123142856Y-102371331D02*
X123085713Y-102399902D01*
X123085713Y-102399902D02*
X123057142Y-102428474D01*
X123057142Y-102428474D02*
X123028570Y-102485617D01*
X123028570Y-102485617D02*
X123028570Y-102657045D01*
X123028570Y-102657045D02*
X123057142Y-102714188D01*
X123057142Y-102714188D02*
X123085713Y-102742760D01*
X123085713Y-102742760D02*
X123142856Y-102771331D01*
X123142856Y-102771331D02*
X123257142Y-102771331D01*
X123257142Y-102771331D02*
X123314284Y-102742760D01*
D11*
X115738094Y-109949619D02*
X115119047Y-109949619D01*
X115119047Y-109949619D02*
X115452380Y-110330571D01*
X115452380Y-110330571D02*
X115309523Y-110330571D01*
X115309523Y-110330571D02*
X115214285Y-110378190D01*
X115214285Y-110378190D02*
X115166666Y-110425809D01*
X115166666Y-110425809D02*
X115119047Y-110521047D01*
X115119047Y-110521047D02*
X115119047Y-110759142D01*
X115119047Y-110759142D02*
X115166666Y-110854380D01*
X115166666Y-110854380D02*
X115214285Y-110902000D01*
X115214285Y-110902000D02*
X115309523Y-110949619D01*
X115309523Y-110949619D02*
X115595237Y-110949619D01*
X115595237Y-110949619D02*
X115690475Y-110902000D01*
X115690475Y-110902000D02*
X115738094Y-110854380D01*
X114833332Y-109949619D02*
X114499999Y-110949619D01*
X114499999Y-110949619D02*
X114166666Y-109949619D01*
X113928570Y-109949619D02*
X113309523Y-109949619D01*
X113309523Y-109949619D02*
X113642856Y-110330571D01*
X113642856Y-110330571D02*
X113499999Y-110330571D01*
X113499999Y-110330571D02*
X113404761Y-110378190D01*
X113404761Y-110378190D02*
X113357142Y-110425809D01*
X113357142Y-110425809D02*
X113309523Y-110521047D01*
X113309523Y-110521047D02*
X113309523Y-110759142D01*
X113309523Y-110759142D02*
X113357142Y-110854380D01*
X113357142Y-110854380D02*
X113404761Y-110902000D01*
X113404761Y-110902000D02*
X113499999Y-110949619D01*
X113499999Y-110949619D02*
X113785713Y-110949619D01*
X113785713Y-110949619D02*
X113880951Y-110902000D01*
X113880951Y-110902000D02*
X113928570Y-110854380D01*
X117452380Y-95449619D02*
X117119047Y-96449619D01*
X117119047Y-96449619D02*
X116785714Y-95449619D01*
X116452380Y-96068666D02*
X115690476Y-96068666D01*
X116071428Y-96449619D02*
X116071428Y-95687714D01*
X120801904Y-107497238D02*
X120897142Y-107449619D01*
X120897142Y-107449619D02*
X121039999Y-107449619D01*
X121039999Y-107449619D02*
X121182856Y-107497238D01*
X121182856Y-107497238D02*
X121278094Y-107592476D01*
X121278094Y-107592476D02*
X121325713Y-107687714D01*
X121325713Y-107687714D02*
X121373332Y-107878190D01*
X121373332Y-107878190D02*
X121373332Y-108021047D01*
X121373332Y-108021047D02*
X121325713Y-108211523D01*
X121325713Y-108211523D02*
X121278094Y-108306761D01*
X121278094Y-108306761D02*
X121182856Y-108402000D01*
X121182856Y-108402000D02*
X121039999Y-108449619D01*
X121039999Y-108449619D02*
X120944761Y-108449619D01*
X120944761Y-108449619D02*
X120801904Y-108402000D01*
X120801904Y-108402000D02*
X120754285Y-108354380D01*
X120754285Y-108354380D02*
X120754285Y-108021047D01*
X120754285Y-108021047D02*
X120944761Y-108021047D01*
X120325713Y-108449619D02*
X120325713Y-107449619D01*
X120325713Y-107449619D02*
X119754285Y-108449619D01*
X119754285Y-108449619D02*
X119754285Y-107449619D01*
X119278094Y-108449619D02*
X119278094Y-107449619D01*
X119278094Y-107449619D02*
X119039999Y-107449619D01*
X119039999Y-107449619D02*
X118897142Y-107497238D01*
X118897142Y-107497238D02*
X118801904Y-107592476D01*
X118801904Y-107592476D02*
X118754285Y-107687714D01*
X118754285Y-107687714D02*
X118706666Y-107878190D01*
X118706666Y-107878190D02*
X118706666Y-108021047D01*
X118706666Y-108021047D02*
X118754285Y-108211523D01*
X118754285Y-108211523D02*
X118801904Y-108306761D01*
X118801904Y-108306761D02*
X118897142Y-108402000D01*
X118897142Y-108402000D02*
X119039999Y-108449619D01*
X119039999Y-108449619D02*
X119278094Y-108449619D01*
X124878094Y-98559619D02*
X124878094Y-97559619D01*
X124878094Y-97559619D02*
X124544761Y-98273904D01*
X124544761Y-98273904D02*
X124211428Y-97559619D01*
X124211428Y-97559619D02*
X124211428Y-98559619D01*
X123782856Y-98273904D02*
X123306666Y-98273904D01*
X123878094Y-98559619D02*
X123544761Y-97559619D01*
X123544761Y-97559619D02*
X123211428Y-98559619D01*
X122973332Y-97559619D02*
X122306666Y-98559619D01*
X122306666Y-97559619D02*
X122973332Y-98559619D01*
X121163808Y-98178666D02*
X120401904Y-98178666D01*
X120782856Y-98559619D02*
X120782856Y-97797714D01*
X119925713Y-98178666D02*
X119163809Y-98178666D01*
X118259047Y-97892952D02*
X118259047Y-98559619D01*
X118497142Y-97512000D02*
X118735237Y-98226285D01*
X118735237Y-98226285D02*
X118116190Y-98226285D01*
X117306666Y-97892952D02*
X117306666Y-98559619D01*
X117544761Y-97512000D02*
X117782856Y-98226285D01*
X117782856Y-98226285D02*
X117163809Y-98226285D01*
X116925713Y-97559619D02*
X116592380Y-98559619D01*
X116592380Y-98559619D02*
X116259047Y-97559619D01*
X125452380Y-95449619D02*
X125119047Y-96449619D01*
X125119047Y-96449619D02*
X124785714Y-95449619D01*
X124452380Y-96068666D02*
X123690476Y-96068666D01*
X126499999Y-109949619D02*
X126309523Y-109949619D01*
X126309523Y-109949619D02*
X126214285Y-109997238D01*
X126214285Y-109997238D02*
X126119047Y-110092476D01*
X126119047Y-110092476D02*
X126071428Y-110282952D01*
X126071428Y-110282952D02*
X126071428Y-110616285D01*
X126071428Y-110616285D02*
X126119047Y-110806761D01*
X126119047Y-110806761D02*
X126214285Y-110902000D01*
X126214285Y-110902000D02*
X126309523Y-110949619D01*
X126309523Y-110949619D02*
X126499999Y-110949619D01*
X126499999Y-110949619D02*
X126595237Y-110902000D01*
X126595237Y-110902000D02*
X126690475Y-110806761D01*
X126690475Y-110806761D02*
X126738094Y-110616285D01*
X126738094Y-110616285D02*
X126738094Y-110282952D01*
X126738094Y-110282952D02*
X126690475Y-110092476D01*
X126690475Y-110092476D02*
X126595237Y-109997238D01*
X126595237Y-109997238D02*
X126499999Y-109949619D01*
X125642856Y-109949619D02*
X125642856Y-110759142D01*
X125642856Y-110759142D02*
X125595237Y-110854380D01*
X125595237Y-110854380D02*
X125547618Y-110902000D01*
X125547618Y-110902000D02*
X125452380Y-110949619D01*
X125452380Y-110949619D02*
X125261904Y-110949619D01*
X125261904Y-110949619D02*
X125166666Y-110902000D01*
X125166666Y-110902000D02*
X125119047Y-110854380D01*
X125119047Y-110854380D02*
X125071428Y-110759142D01*
X125071428Y-110759142D02*
X125071428Y-109949619D01*
X124738094Y-109949619D02*
X124166666Y-109949619D01*
X124452380Y-110949619D02*
X124452380Y-109949619D01*
D12*
X126314285Y-105778899D02*
X125504761Y-105778899D01*
X126476190Y-106264613D02*
X125909523Y-104564613D01*
X125909523Y-104564613D02*
X125342856Y-106264613D01*
X124857142Y-106183661D02*
X124614285Y-106264613D01*
X124614285Y-106264613D02*
X124209523Y-106264613D01*
X124209523Y-106264613D02*
X124047618Y-106183661D01*
X124047618Y-106183661D02*
X123966666Y-106102708D01*
X123966666Y-106102708D02*
X123885713Y-105940803D01*
X123885713Y-105940803D02*
X123885713Y-105778899D01*
X123885713Y-105778899D02*
X123966666Y-105616994D01*
X123966666Y-105616994D02*
X124047618Y-105536041D01*
X124047618Y-105536041D02*
X124209523Y-105455089D01*
X124209523Y-105455089D02*
X124533332Y-105374137D01*
X124533332Y-105374137D02*
X124695237Y-105293184D01*
X124695237Y-105293184D02*
X124776190Y-105212232D01*
X124776190Y-105212232D02*
X124857142Y-105050327D01*
X124857142Y-105050327D02*
X124857142Y-104888422D01*
X124857142Y-104888422D02*
X124776190Y-104726518D01*
X124776190Y-104726518D02*
X124695237Y-104645565D01*
X124695237Y-104645565D02*
X124533332Y-104564613D01*
X124533332Y-104564613D02*
X124128571Y-104564613D01*
X124128571Y-104564613D02*
X123885713Y-104645565D01*
X123399999Y-104564613D02*
X122428570Y-104564613D01*
X122914284Y-106264613D02*
X122914284Y-104564613D01*
X121214285Y-106183661D02*
X121376189Y-106264613D01*
X121376189Y-106264613D02*
X121699999Y-106264613D01*
X121699999Y-106264613D02*
X121861904Y-106183661D01*
X121861904Y-106183661D02*
X121942856Y-106021756D01*
X121942856Y-106021756D02*
X121942856Y-105374137D01*
X121942856Y-105374137D02*
X121861904Y-105212232D01*
X121861904Y-105212232D02*
X121699999Y-105131280D01*
X121699999Y-105131280D02*
X121376189Y-105131280D01*
X121376189Y-105131280D02*
X121214285Y-105212232D01*
X121214285Y-105212232D02*
X121133332Y-105374137D01*
X121133332Y-105374137D02*
X121133332Y-105536041D01*
X121133332Y-105536041D02*
X121942856Y-105697946D01*
X119676189Y-106183661D02*
X119838094Y-106264613D01*
X119838094Y-106264613D02*
X120161903Y-106264613D01*
X120161903Y-106264613D02*
X120323808Y-106183661D01*
X120323808Y-106183661D02*
X120404761Y-106102708D01*
X120404761Y-106102708D02*
X120485713Y-105940803D01*
X120485713Y-105940803D02*
X120485713Y-105455089D01*
X120485713Y-105455089D02*
X120404761Y-105293184D01*
X120404761Y-105293184D02*
X120323808Y-105212232D01*
X120323808Y-105212232D02*
X120161903Y-105131280D01*
X120161903Y-105131280D02*
X119838094Y-105131280D01*
X119838094Y-105131280D02*
X119676189Y-105212232D01*
X118947618Y-106264613D02*
X118947618Y-104564613D01*
X118219046Y-106264613D02*
X118219046Y-105374137D01*
X118219046Y-105374137D02*
X118299999Y-105212232D01*
X118299999Y-105212232D02*
X118461903Y-105131280D01*
X118461903Y-105131280D02*
X118704760Y-105131280D01*
X118704760Y-105131280D02*
X118866665Y-105212232D01*
X118866665Y-105212232D02*
X118947618Y-105293184D01*
X116599999Y-106264613D02*
X117409523Y-106264613D01*
X117409523Y-106264613D02*
X117409523Y-104564613D01*
X115304761Y-106264613D02*
X115304761Y-105374137D01*
X115304761Y-105374137D02*
X115385714Y-105212232D01*
X115385714Y-105212232D02*
X115547618Y-105131280D01*
X115547618Y-105131280D02*
X115871428Y-105131280D01*
X115871428Y-105131280D02*
X116033333Y-105212232D01*
X115304761Y-106183661D02*
X115466666Y-106264613D01*
X115466666Y-106264613D02*
X115871428Y-106264613D01*
X115871428Y-106264613D02*
X116033333Y-106183661D01*
X116033333Y-106183661D02*
X116114285Y-106021756D01*
X116114285Y-106021756D02*
X116114285Y-105859851D01*
X116114285Y-105859851D02*
X116033333Y-105697946D01*
X116033333Y-105697946D02*
X115871428Y-105616994D01*
X115871428Y-105616994D02*
X115466666Y-105616994D01*
X115466666Y-105616994D02*
X115304761Y-105536041D01*
X114495238Y-106264613D02*
X114495238Y-104564613D01*
X114495238Y-105212232D02*
X114333333Y-105131280D01*
X114333333Y-105131280D02*
X114009523Y-105131280D01*
X114009523Y-105131280D02*
X113847619Y-105212232D01*
X113847619Y-105212232D02*
X113766666Y-105293184D01*
X113766666Y-105293184D02*
X113685714Y-105455089D01*
X113685714Y-105455089D02*
X113685714Y-105940803D01*
X113685714Y-105940803D02*
X113766666Y-106102708D01*
X113766666Y-106102708D02*
X113847619Y-106183661D01*
X113847619Y-106183661D02*
X114009523Y-106264613D01*
X114009523Y-106264613D02*
X114333333Y-106264613D01*
X114333333Y-106264613D02*
X114495238Y-106183661D01*
M02*
