%TF.GenerationSoftware,KiCad,Pcbnew,10.0.5*%
%TF.CreationDate,2026-10-09T13:46:10+01:00*%
%TF.ProjectId,Volt-Unit,566f6c74-2d55-46e6-9974-2e6b69636164,rev?*%
%TF.SameCoordinates,Original*%
%TF.FileFunction,Copper,L2,Bot*%
%TF.FilePolarity,Positive*%
%FSLAX46Y46*%
G04 Gerber Fmt 4.6, Leading zero omitted, Abs format (unit mm)*
G04 Created by KiCad (PCBNEW 10.0.5) date 2026-10-09 13:46:10*
%MOMM*%
%LPD*%
G01*
G04 APERTURE LIST*
%TA.AperFunction,ComponentPad*%
%ADD10R,1.700000X1.700000*%
%TD*%
%TA.AperFunction,ComponentPad*%
%ADD11C,1.700000*%
%TD*%
%TA.AperFunction,ViaPad*%
%ADD12C,0.500000*%
%TD*%
%TA.AperFunction,Conductor*%
%ADD13C,0.250000*%
%TD*%
G04 APERTURE END LIST*
D10*
%TO.P,J1,1*%
%TO.N,+3V3*%
X117500000Y-110000000D03*
D11*
%TO.P,J1,2*%
%TO.N,GND*%
X120040000Y-110000000D03*
%TO.P,J1,3*%
%TO.N,OUT*%
X122580000Y-110000000D03*
%TD*%
D10*
%TO.P,J2,1*%
%TO.N,VIN+*%
X119460000Y-96000000D03*
D11*
%TO.P,J2,2*%
%TO.N,VIN-*%
X122000000Y-96000000D03*
%TD*%
D12*
%TO.N,VREFD*%
X115900000Y-107600000D03*
X116700000Y-99750000D03*
%TO.N,GND*%
X120800000Y-106200000D03*
X125700000Y-100700000D03*
X115400000Y-100200000D03*
X127200000Y-110700000D03*
X113000000Y-110700000D03*
X120700000Y-94650000D03*
X125850000Y-105900000D03*
X120600000Y-98300000D03*
X117800000Y-105500000D03*
X126900000Y-94600000D03*
%TO.N,+3V3*%
X127350000Y-104500000D03*
X115900000Y-109200000D03*
%TD*%
%TO.N,VREFD*%
D13*
X116700000Y-99750000D02*
X116400000Y-99750000D01*
X116400000Y-99750000D02*
X115900000Y-107600000D01*
%TO.N,+3V3*%
X116000000Y-109200000D02*
X115900000Y-109200000D01*
X127350000Y-104500000D02*
X116000000Y-109200000D01*
%TD*%
%TA.AperFunction,Conductor*%
%TO.N,GND*%
G36*
X126804842Y-94300976D02*
G01*
X126965782Y-94316828D01*
X126984812Y-94320613D01*
X127084000Y-94350701D01*
X127134891Y-94366139D01*
X127152822Y-94373566D01*
X127291136Y-94447497D01*
X127307272Y-94458279D01*
X127428504Y-94557772D01*
X127442227Y-94571495D01*
X127541720Y-94692727D01*
X127552502Y-94708863D01*
X127626433Y-94847177D01*
X127633860Y-94865108D01*
X127679385Y-95015185D01*
X127683171Y-95034219D01*
X127699023Y-95195157D01*
X127699500Y-95204861D01*
X127699500Y-103952382D01*
X127680593Y-104010573D01*
X127631093Y-104046537D01*
X127569907Y-104046537D01*
X127551003Y-104038120D01*
X127543189Y-104033609D01*
X127543191Y-104033609D01*
X127493799Y-104020375D01*
X127415892Y-103999500D01*
X127284108Y-103999500D01*
X127206200Y-104020375D01*
X127156809Y-104033609D01*
X127042690Y-104099496D01*
X126949498Y-104192688D01*
X126915667Y-104251284D01*
X126870197Y-104292225D01*
X126867808Y-104293251D01*
X116155578Y-108729152D01*
X116094580Y-108733946D01*
X116092079Y-108733311D01*
X116001466Y-108709032D01*
X115965892Y-108699500D01*
X115834108Y-108699500D01*
X115756200Y-108720375D01*
X115706809Y-108733609D01*
X115592690Y-108799496D01*
X115499496Y-108892690D01*
X115433609Y-109006809D01*
X115433608Y-109006814D01*
X115399500Y-109134108D01*
X115399500Y-109265892D01*
X115404104Y-109283073D01*
X115433609Y-109393190D01*
X115499496Y-109507309D01*
X115499498Y-109507311D01*
X115499500Y-109507314D01*
X115592686Y-109600500D01*
X115592688Y-109600501D01*
X115592690Y-109600503D01*
X115706810Y-109666390D01*
X115706808Y-109666390D01*
X115706812Y-109666391D01*
X115706814Y-109666392D01*
X115834108Y-109700500D01*
X115834110Y-109700500D01*
X115965890Y-109700500D01*
X115965892Y-109700500D01*
X116093186Y-109666392D01*
X116093188Y-109666390D01*
X116093190Y-109666390D01*
X116207309Y-109600503D01*
X116207309Y-109600502D01*
X116207314Y-109600500D01*
X116230498Y-109577315D01*
X116285013Y-109549540D01*
X116345445Y-109559111D01*
X116388710Y-109602376D01*
X116399500Y-109647321D01*
X116399500Y-110874672D01*
X116399501Y-110874684D01*
X116414033Y-110947736D01*
X116414035Y-110947742D01*
X116469397Y-111030599D01*
X116469400Y-111030602D01*
X116533455Y-111073401D01*
X116552260Y-111085966D01*
X116607808Y-111097015D01*
X116625315Y-111100498D01*
X116625320Y-111100498D01*
X116625326Y-111100500D01*
X116625327Y-111100500D01*
X118374673Y-111100500D01*
X118374674Y-111100500D01*
X118447740Y-111085966D01*
X118530601Y-111030601D01*
X118585966Y-110947740D01*
X118600500Y-110874674D01*
X118600500Y-109909489D01*
X118890000Y-109909489D01*
X118890000Y-110090510D01*
X118918316Y-110269289D01*
X118974250Y-110441440D01*
X119056430Y-110602728D01*
X119097667Y-110659488D01*
X119571980Y-110185174D01*
X119574075Y-110192993D01*
X119639901Y-110307007D01*
X119732993Y-110400099D01*
X119847007Y-110465925D01*
X119854821Y-110468019D01*
X119380511Y-110942330D01*
X119437275Y-110983571D01*
X119598559Y-111065749D01*
X119770710Y-111121683D01*
X119949490Y-111150000D01*
X120130510Y-111150000D01*
X120309289Y-111121683D01*
X120481440Y-111065749D01*
X120642728Y-110983569D01*
X120699487Y-110942330D01*
X120225176Y-110468019D01*
X120232993Y-110465925D01*
X120347007Y-110400099D01*
X120440099Y-110307007D01*
X120505925Y-110192993D01*
X120508019Y-110185176D01*
X120982330Y-110659487D01*
X121023569Y-110602728D01*
X121105749Y-110441440D01*
X121161683Y-110269289D01*
X121190000Y-110090510D01*
X121190000Y-109913385D01*
X121479500Y-109913385D01*
X121479500Y-110086614D01*
X121506597Y-110257702D01*
X121506598Y-110257706D01*
X121560123Y-110422438D01*
X121560125Y-110422441D01*
X121560126Y-110422444D01*
X121560127Y-110422445D01*
X121638768Y-110576788D01*
X121740586Y-110716928D01*
X121863072Y-110839414D01*
X122003212Y-110941232D01*
X122157555Y-111019873D01*
X122157557Y-111019873D01*
X122157558Y-111019874D01*
X122157561Y-111019876D01*
X122322293Y-111073401D01*
X122322297Y-111073402D01*
X122493386Y-111100500D01*
X122493389Y-111100500D01*
X122666614Y-111100500D01*
X122837702Y-111073402D01*
X122837706Y-111073401D01*
X123002438Y-111019876D01*
X123002440Y-111019874D01*
X123002445Y-111019873D01*
X123156788Y-110941232D01*
X123296928Y-110839414D01*
X123419414Y-110716928D01*
X123521232Y-110576788D01*
X123599873Y-110422445D01*
X123599874Y-110422440D01*
X123599876Y-110422438D01*
X123653401Y-110257706D01*
X123653402Y-110257702D01*
X123680500Y-110086614D01*
X123680500Y-109913385D01*
X123653402Y-109742297D01*
X123653401Y-109742293D01*
X123599876Y-109577561D01*
X123599874Y-109577558D01*
X123599873Y-109577557D01*
X123599873Y-109577555D01*
X123521232Y-109423212D01*
X123419414Y-109283072D01*
X123296928Y-109160586D01*
X123156788Y-109058768D01*
X123156787Y-109058767D01*
X123156785Y-109058766D01*
X123002441Y-108980125D01*
X123002438Y-108980123D01*
X122837706Y-108926598D01*
X122837702Y-108926597D01*
X122666614Y-108899500D01*
X122666611Y-108899500D01*
X122493389Y-108899500D01*
X122493386Y-108899500D01*
X122322297Y-108926597D01*
X122322293Y-108926598D01*
X122157561Y-108980123D01*
X122157558Y-108980125D01*
X122003214Y-109058766D01*
X121863073Y-109160585D01*
X121740585Y-109283073D01*
X121638766Y-109423214D01*
X121560125Y-109577558D01*
X121560123Y-109577561D01*
X121506598Y-109742293D01*
X121506597Y-109742297D01*
X121479500Y-109913385D01*
X121190000Y-109913385D01*
X121190000Y-109909489D01*
X121161683Y-109730710D01*
X121105749Y-109558559D01*
X121023571Y-109397275D01*
X120982330Y-109340511D01*
X120508019Y-109814821D01*
X120505925Y-109807007D01*
X120440099Y-109692993D01*
X120347007Y-109599901D01*
X120232993Y-109534075D01*
X120225174Y-109531980D01*
X120699488Y-109057667D01*
X120642728Y-109016430D01*
X120481440Y-108934250D01*
X120309289Y-108878316D01*
X120130510Y-108850000D01*
X119949490Y-108850000D01*
X119770710Y-108878316D01*
X119598559Y-108934250D01*
X119437267Y-109016432D01*
X119380510Y-109057667D01*
X119854823Y-109531980D01*
X119847007Y-109534075D01*
X119732993Y-109599901D01*
X119639901Y-109692993D01*
X119574075Y-109807007D01*
X119571980Y-109814823D01*
X119097667Y-109340510D01*
X119056432Y-109397267D01*
X118974250Y-109558559D01*
X118918316Y-109730710D01*
X118890000Y-109909489D01*
X118600500Y-109909489D01*
X118600500Y-109125326D01*
X118598389Y-109114713D01*
X118598389Y-109114710D01*
X118591714Y-109081161D01*
X118585966Y-109052260D01*
X118562026Y-109016430D01*
X118530602Y-108969400D01*
X118530599Y-108969397D01*
X118447742Y-108914035D01*
X118447740Y-108914034D01*
X118447737Y-108914033D01*
X118447736Y-108914033D01*
X118374684Y-108899501D01*
X118374674Y-108899500D01*
X118374673Y-108899500D01*
X118204976Y-108899500D01*
X118146785Y-108880593D01*
X118110821Y-108831093D01*
X118110821Y-108769907D01*
X118146785Y-108720407D01*
X118167099Y-108709032D01*
X119636639Y-108100500D01*
X127155134Y-104987114D01*
X127216131Y-104982321D01*
X127218632Y-104982956D01*
X127284108Y-105000500D01*
X127284109Y-105000500D01*
X127415890Y-105000500D01*
X127415892Y-105000500D01*
X127543186Y-104966392D01*
X127550998Y-104961882D01*
X127610846Y-104949159D01*
X127666742Y-104974044D01*
X127697336Y-105027031D01*
X127699500Y-105047617D01*
X127699500Y-110795138D01*
X127699023Y-110804842D01*
X127683171Y-110965780D01*
X127679385Y-110984814D01*
X127633860Y-111134891D01*
X127626433Y-111152822D01*
X127552502Y-111291136D01*
X127541720Y-111307272D01*
X127442227Y-111428504D01*
X127428504Y-111442227D01*
X127307272Y-111541720D01*
X127291136Y-111552502D01*
X127152822Y-111626433D01*
X127134891Y-111633860D01*
X126984814Y-111679385D01*
X126965780Y-111683171D01*
X126804843Y-111699023D01*
X126795139Y-111699500D01*
X113204861Y-111699500D01*
X113195157Y-111699023D01*
X113034219Y-111683171D01*
X113015185Y-111679385D01*
X112865108Y-111633860D01*
X112847177Y-111626433D01*
X112708863Y-111552502D01*
X112692727Y-111541720D01*
X112571495Y-111442227D01*
X112557772Y-111428504D01*
X112458279Y-111307272D01*
X112447497Y-111291136D01*
X112373566Y-111152822D01*
X112366139Y-111134891D01*
X112320614Y-110984814D01*
X112316828Y-110965780D01*
X112315051Y-110947742D01*
X112300977Y-110804842D01*
X112300500Y-110795138D01*
X112300500Y-107534108D01*
X115399500Y-107534108D01*
X115399500Y-107665892D01*
X115429579Y-107778151D01*
X115433609Y-107793190D01*
X115499496Y-107907309D01*
X115499498Y-107907311D01*
X115499500Y-107907314D01*
X115592686Y-108000500D01*
X115592688Y-108000501D01*
X115592690Y-108000503D01*
X115706810Y-108066390D01*
X115706808Y-108066390D01*
X115706812Y-108066391D01*
X115706814Y-108066392D01*
X115834108Y-108100500D01*
X115834110Y-108100500D01*
X115965890Y-108100500D01*
X115965892Y-108100500D01*
X116093186Y-108066392D01*
X116093188Y-108066390D01*
X116093190Y-108066390D01*
X116207309Y-108000503D01*
X116207309Y-108000502D01*
X116207314Y-108000500D01*
X116300500Y-107907314D01*
X116366392Y-107793186D01*
X116400500Y-107665892D01*
X116400500Y-107534108D01*
X116366392Y-107406814D01*
X116366390Y-107406811D01*
X116366390Y-107406809D01*
X116311264Y-107311329D01*
X116298200Y-107255538D01*
X116739490Y-100327299D01*
X116762058Y-100270429D01*
X116812664Y-100237967D01*
X116893186Y-100216392D01*
X116893188Y-100216390D01*
X116893190Y-100216390D01*
X117007309Y-100150503D01*
X117007309Y-100150502D01*
X117007314Y-100150500D01*
X117100500Y-100057314D01*
X117166392Y-99943186D01*
X117200500Y-99815892D01*
X117200500Y-99684108D01*
X117166392Y-99556814D01*
X117166390Y-99556811D01*
X117166390Y-99556809D01*
X117100503Y-99442690D01*
X117100501Y-99442688D01*
X117100500Y-99442686D01*
X117007314Y-99349500D01*
X117007311Y-99349498D01*
X117007309Y-99349496D01*
X116893189Y-99283609D01*
X116893191Y-99283609D01*
X116843799Y-99270375D01*
X116765892Y-99249500D01*
X116634108Y-99249500D01*
X116556200Y-99270375D01*
X116506809Y-99283609D01*
X116392684Y-99349500D01*
X116387536Y-99353451D01*
X116387012Y-99352769D01*
X116348325Y-99375099D01*
X116317386Y-99383388D01*
X116311263Y-99384822D01*
X116277596Y-99391584D01*
X116275565Y-99392591D01*
X116257256Y-99399502D01*
X116255063Y-99400089D01*
X116255055Y-99400092D01*
X116225319Y-99417261D01*
X116219773Y-99420232D01*
X116189005Y-99435476D01*
X116188993Y-99435484D01*
X116187294Y-99436980D01*
X116171409Y-99448385D01*
X116169449Y-99449516D01*
X116169434Y-99449528D01*
X116145158Y-99473803D01*
X116140573Y-99478105D01*
X116114791Y-99500801D01*
X116114783Y-99500810D01*
X116113527Y-99502698D01*
X116101133Y-99517829D01*
X116099527Y-99519435D01*
X116099525Y-99519436D01*
X116082353Y-99549179D01*
X116079036Y-99554524D01*
X116060011Y-99583112D01*
X116060007Y-99583118D01*
X116059282Y-99585269D01*
X116051230Y-99603086D01*
X116050091Y-99605059D01*
X116050090Y-99605062D01*
X116041202Y-99638230D01*
X116039381Y-99644252D01*
X116028403Y-99676790D01*
X116028400Y-99676803D01*
X116028257Y-99679059D01*
X116025088Y-99698370D01*
X116024500Y-99700565D01*
X116024500Y-99734904D01*
X116024300Y-99741197D01*
X115548668Y-107208603D01*
X115526100Y-107265474D01*
X115519873Y-107272312D01*
X115499499Y-107292685D01*
X115433609Y-107406809D01*
X115433608Y-107406814D01*
X115399500Y-107534108D01*
X112300500Y-107534108D01*
X112300500Y-95204861D01*
X112300977Y-95195157D01*
X112307855Y-95125327D01*
X118359500Y-95125327D01*
X118359500Y-96874672D01*
X118359501Y-96874684D01*
X118374033Y-96947736D01*
X118374035Y-96947742D01*
X118429397Y-97030599D01*
X118429399Y-97030601D01*
X118512260Y-97085966D01*
X118567808Y-97097015D01*
X118585315Y-97100498D01*
X118585320Y-97100498D01*
X118585326Y-97100500D01*
X118585327Y-97100500D01*
X120334673Y-97100500D01*
X120334674Y-97100500D01*
X120407740Y-97085966D01*
X120490601Y-97030601D01*
X120545966Y-96947740D01*
X120560500Y-96874674D01*
X120560500Y-95913385D01*
X120899500Y-95913385D01*
X120899500Y-96086614D01*
X120926597Y-96257702D01*
X120926598Y-96257706D01*
X120980123Y-96422438D01*
X120980125Y-96422441D01*
X120980126Y-96422444D01*
X120980127Y-96422445D01*
X121058768Y-96576788D01*
X121160586Y-96716928D01*
X121283072Y-96839414D01*
X121423212Y-96941232D01*
X121577555Y-97019873D01*
X121577557Y-97019873D01*
X121577558Y-97019874D01*
X121577561Y-97019876D01*
X121742293Y-97073401D01*
X121742297Y-97073402D01*
X121913386Y-97100500D01*
X121913389Y-97100500D01*
X122086614Y-97100500D01*
X122257702Y-97073402D01*
X122257706Y-97073401D01*
X122422438Y-97019876D01*
X122422440Y-97019874D01*
X122422445Y-97019873D01*
X122576788Y-96941232D01*
X122716928Y-96839414D01*
X122839414Y-96716928D01*
X122941232Y-96576788D01*
X123019873Y-96422445D01*
X123019874Y-96422440D01*
X123019876Y-96422438D01*
X123073401Y-96257706D01*
X123073402Y-96257702D01*
X123100500Y-96086614D01*
X123100500Y-95913385D01*
X123073402Y-95742297D01*
X123073401Y-95742293D01*
X123019876Y-95577561D01*
X123019874Y-95577558D01*
X123019873Y-95577557D01*
X123019873Y-95577555D01*
X122941232Y-95423212D01*
X122839414Y-95283072D01*
X122716928Y-95160586D01*
X122576788Y-95058768D01*
X122576787Y-95058767D01*
X122576785Y-95058766D01*
X122422441Y-94980125D01*
X122422438Y-94980123D01*
X122257706Y-94926598D01*
X122257702Y-94926597D01*
X122086614Y-94899500D01*
X122086611Y-94899500D01*
X121913389Y-94899500D01*
X121913386Y-94899500D01*
X121742297Y-94926597D01*
X121742293Y-94926598D01*
X121577561Y-94980123D01*
X121577558Y-94980125D01*
X121423214Y-95058766D01*
X121283073Y-95160585D01*
X121160585Y-95283073D01*
X121058766Y-95423214D01*
X120980125Y-95577558D01*
X120980123Y-95577561D01*
X120926598Y-95742293D01*
X120926597Y-95742297D01*
X120899500Y-95913385D01*
X120560500Y-95913385D01*
X120560500Y-95125326D01*
X120545966Y-95052260D01*
X120497768Y-94980125D01*
X120490602Y-94969400D01*
X120490599Y-94969397D01*
X120407742Y-94914035D01*
X120407740Y-94914034D01*
X120407737Y-94914033D01*
X120407736Y-94914033D01*
X120334684Y-94899501D01*
X120334674Y-94899500D01*
X118585326Y-94899500D01*
X118585325Y-94899500D01*
X118585315Y-94899501D01*
X118512263Y-94914033D01*
X118512257Y-94914035D01*
X118429400Y-94969397D01*
X118429397Y-94969400D01*
X118374035Y-95052257D01*
X118374033Y-95052263D01*
X118359501Y-95125315D01*
X118359500Y-95125327D01*
X112307855Y-95125327D01*
X112309290Y-95110758D01*
X112309290Y-95110757D01*
X112316828Y-95034220D01*
X112320614Y-95015185D01*
X112331250Y-94980125D01*
X112366139Y-94865106D01*
X112373566Y-94847177D01*
X112447497Y-94708863D01*
X112458279Y-94692727D01*
X112473410Y-94674290D01*
X112557774Y-94571492D01*
X112571492Y-94557774D01*
X112692729Y-94458277D01*
X112708863Y-94447497D01*
X112847179Y-94373564D01*
X112865106Y-94366139D01*
X113015189Y-94320613D01*
X113034215Y-94316828D01*
X113195157Y-94300976D01*
X113204861Y-94300500D01*
X113247595Y-94300500D01*
X126752405Y-94300500D01*
X126795139Y-94300500D01*
X126804842Y-94300976D01*
G37*
%TD.AperFunction*%
%TD*%
M02*
