M48
; DRILL file KiCad 10.0.5 date 2026-10-08T21:47:21
; FORMAT={-:-/ absolute / metric / decimal}
; #@! TF.CreationDate,2026-10-08T21:47:21+01:00
; #@! TF.GenerationSoftware,Kicad,Pcbnew,10.0.5
; #@! TF.FileFunction,Plated,1,2,PTH
FMAT,2
METRIC
; #@! TA.AperFunction,Plated,PTH,ViaDrill
T1C0.250
; #@! TA.AperFunction,Plated,PTH,ComponentDrill
T2C1.000
%
G90
G05
T1
X115.0Y-107.5
X115.1Y-97.3
X116.4Y-106.4
X116.5Y-100.0
X117.15Y-111.1
X119.0Y-106.9
X120.9Y-101.6
X121.5Y-99.7
X123.05Y-99.5
X123.2Y-101.5
X127.1Y-96.5
X127.4Y-104.9
X127.4Y-111.5
X129.0Y-103.0
X129.0Y-104.9
X129.3Y-99.8
X130.05Y-104.7
X130.8Y-103.6
X130.8Y-106.2
X130.9Y-109.6
T2
X116.38Y-96.0
X117.3Y-114.0
X118.92Y-96.0
X119.84Y-114.0
X121.46Y-96.0
X122.38Y-114.0
X124.0Y-96.0
X124.92Y-114.0
X127.46Y-114.0
X130.0Y-114.0
M30
