%TF.GenerationSoftware,KiCad,Pcbnew,10.0.5*%
%TF.CreationDate,2026-10-08T21:47:20+01:00*%
%TF.ProjectId,LIN-Unit,4c494e2d-556e-4697-942e-6b696361645f,rev?*%
%TF.SameCoordinates,Original*%
%TF.FileFunction,Copper,L2,Bot*%
%TF.FilePolarity,Positive*%
%FSLAX46Y46*%
G04 Gerber Fmt 4.6, Leading zero omitted, Abs format (unit mm)*
G04 Created by KiCad (PCBNEW 10.0.5) date 2026-10-08 21:47:20*
%MOMM*%
%LPD*%
G01*
G04 APERTURE LIST*
%TA.AperFunction,ComponentPad*%
%ADD10R,1.700000X1.700000*%
%TD*%
%TA.AperFunction,ComponentPad*%
%ADD11C,1.700000*%
%TD*%
%TA.AperFunction,ViaPad*%
%ADD12C,0.500000*%
%TD*%
%TA.AperFunction,Conductor*%
%ADD13C,0.250000*%
%TD*%
G04 APERTURE END LIST*
D10*
%TO.P,J2,1*%
%TO.N,+3V3*%
X117300000Y-114000000D03*
D11*
%TO.P,J2,2*%
%TO.N,GND*%
X119840000Y-114000000D03*
%TO.P,J2,3*%
%TO.N,TX1*%
X122380000Y-114000000D03*
%TO.P,J2,4*%
%TO.N,RX1*%
X124920000Y-114000000D03*
%TO.P,J2,5*%
%TO.N,TX2*%
X127460000Y-114000000D03*
%TO.P,J2,6*%
%TO.N,RX2*%
X130000000Y-114000000D03*
%TD*%
D10*
%TO.P,J3,1*%
%TO.N,+12V*%
X116380000Y-96000000D03*
D11*
%TO.P,J3,2*%
%TO.N,GND*%
X118920000Y-96000000D03*
%TO.P,J3,3*%
%TO.N,LIN1*%
X121460000Y-96000000D03*
%TO.P,J3,4*%
%TO.N,LIN2*%
X124000000Y-96000000D03*
%TD*%
D12*
%TO.N,+3V3*%
X119000000Y-106900000D03*
X116400000Y-106400000D03*
X127400000Y-104900000D03*
%TO.N,GND*%
X123200000Y-101500000D03*
X129300000Y-99800000D03*
X130900000Y-109600000D03*
X120900000Y-101600000D03*
X116500000Y-100000000D03*
X129000000Y-103000000D03*
%TO.N,TX1*%
X117150000Y-111100000D03*
%TO.N,RX1*%
X115000000Y-107500000D03*
%TO.N,TX2*%
X130050000Y-104700000D03*
%TO.N,RX2*%
X121500000Y-99700000D03*
X123050000Y-99500000D03*
%TO.N,VS*%
X129000000Y-104900000D03*
X115100000Y-97300000D03*
X127100000Y-96500000D03*
X127400000Y-111500000D03*
%TO.N,PU2*%
X130800000Y-103600000D03*
X130800000Y-106200000D03*
%TD*%
%TO.N,+3V3*%
D13*
X126800000Y-105300000D02*
X127400000Y-104900000D01*
X116150000Y-107100000D02*
X116400000Y-106400000D01*
X119000000Y-106900000D02*
X126800000Y-105300000D01*
X116150000Y-107100000D02*
X119000000Y-106900000D01*
X117300000Y-114000000D02*
X116150000Y-112600000D01*
X116150000Y-112600000D02*
X116150000Y-107100000D01*
%TO.N,TX1*%
X117150000Y-111100000D02*
X122380000Y-114000000D01*
%TO.N,RX1*%
X114450000Y-109300000D02*
X114450000Y-112200000D01*
X114300000Y-115300000D02*
X124920000Y-115300000D01*
X124920000Y-115300000D02*
X124920000Y-114000000D01*
X114450000Y-112200000D02*
X114300000Y-113200000D01*
X114300000Y-113200000D02*
X114300000Y-115300000D01*
X115000000Y-107500000D02*
X114450000Y-109300000D01*
%TO.N,TX2*%
X130000000Y-110500000D02*
X129300000Y-112600000D01*
X130050000Y-104700000D02*
X130000000Y-110500000D01*
X129300000Y-112600000D02*
X127460000Y-114000000D01*
%TO.N,RX2*%
X123050000Y-99500000D02*
X121500000Y-99700000D01*
%TO.N,VS*%
X128300000Y-96500000D02*
X127100000Y-96500000D01*
X128300000Y-95000000D02*
X128300000Y-96500000D01*
X127900000Y-94600000D02*
X128300000Y-95000000D01*
X129000000Y-104900000D02*
X128300000Y-104500000D01*
X129000000Y-110500000D02*
X129000000Y-104900000D01*
X114700000Y-95300000D02*
X115300000Y-94600000D01*
X128300000Y-104500000D02*
X128300000Y-96500000D01*
X115300000Y-94600000D02*
X127900000Y-94600000D01*
X127400000Y-111500000D02*
X129000000Y-110500000D01*
X115100000Y-97300000D02*
X114700000Y-95300000D01*
%TO.N,PU2*%
X130800000Y-106200000D02*
X130800000Y-103600000D01*
%TD*%
%TA.AperFunction,Conductor*%
%TO.N,GND*%
G36*
X116704593Y-111330617D02*
G01*
X116710233Y-111339302D01*
X116749500Y-111407314D01*
X116842686Y-111500500D01*
X116842688Y-111500501D01*
X116842690Y-111500503D01*
X116956810Y-111566390D01*
X116956808Y-111566390D01*
X116956812Y-111566391D01*
X116956814Y-111566392D01*
X117084108Y-111600500D01*
X117084110Y-111600500D01*
X117215890Y-111600500D01*
X117215892Y-111600500D01*
X117219313Y-111599583D01*
X117221848Y-111599715D01*
X117222326Y-111599653D01*
X117222337Y-111599741D01*
X117280413Y-111602781D01*
X117292948Y-111608626D01*
X119379559Y-112765639D01*
X119384317Y-112768277D01*
X119426039Y-112813031D01*
X119433487Y-112873762D01*
X119403817Y-112927272D01*
X119381254Y-112943068D01*
X119237267Y-113016432D01*
X119180510Y-113057667D01*
X119654823Y-113531980D01*
X119647007Y-113534075D01*
X119532993Y-113599901D01*
X119439901Y-113692993D01*
X119374075Y-113807007D01*
X119371980Y-113814823D01*
X118897667Y-113340510D01*
X118856432Y-113397267D01*
X118774250Y-113558559D01*
X118718316Y-113730710D01*
X118690000Y-113909489D01*
X118690000Y-114090510D01*
X118718316Y-114269289D01*
X118774250Y-114441440D01*
X118856430Y-114602728D01*
X118897667Y-114659488D01*
X119371980Y-114185174D01*
X119374075Y-114192993D01*
X119439901Y-114307007D01*
X119532993Y-114400099D01*
X119647007Y-114465925D01*
X119654822Y-114468019D01*
X119227338Y-114895504D01*
X119172821Y-114923281D01*
X119157334Y-114924500D01*
X118499500Y-114924500D01*
X118441309Y-114905593D01*
X118405345Y-114856093D01*
X118400500Y-114825500D01*
X118400500Y-113125327D01*
X118400498Y-113125315D01*
X118390227Y-113073683D01*
X118385966Y-113052260D01*
X118337768Y-112980125D01*
X118330602Y-112969400D01*
X118330599Y-112969397D01*
X118247742Y-112914035D01*
X118247740Y-112914034D01*
X118247737Y-112914033D01*
X118247736Y-112914033D01*
X118174684Y-112899501D01*
X118174674Y-112899500D01*
X118174673Y-112899500D01*
X116928755Y-112899500D01*
X116870564Y-112880593D01*
X116852255Y-112863339D01*
X116806962Y-112808200D01*
X116654705Y-112622842D01*
X116548000Y-112492940D01*
X116525674Y-112435973D01*
X116525500Y-112430101D01*
X116525500Y-111388808D01*
X116544407Y-111330617D01*
X116593907Y-111294653D01*
X116655093Y-111294653D01*
X116704593Y-111330617D01*
G37*
%TD.AperFunction*%
%TA.AperFunction,Conductor*%
G36*
X121123987Y-113732913D02*
G01*
X121232605Y-113793141D01*
X121274327Y-113837895D01*
X121282379Y-113895204D01*
X121279500Y-113913387D01*
X121279500Y-114086614D01*
X121306597Y-114257702D01*
X121306598Y-114257706D01*
X121360123Y-114422438D01*
X121360125Y-114422441D01*
X121360126Y-114422444D01*
X121360127Y-114422445D01*
X121438768Y-114576788D01*
X121540586Y-114716928D01*
X121579156Y-114755498D01*
X121606932Y-114810013D01*
X121597361Y-114870445D01*
X121554096Y-114913710D01*
X121509151Y-114924500D01*
X120522666Y-114924500D01*
X120464475Y-114905593D01*
X120452662Y-114895504D01*
X120025177Y-114468019D01*
X120032993Y-114465925D01*
X120147007Y-114400099D01*
X120240099Y-114307007D01*
X120305925Y-114192993D01*
X120308019Y-114185177D01*
X120782330Y-114659488D01*
X120823569Y-114602728D01*
X120905749Y-114441440D01*
X120961683Y-114269289D01*
X120990000Y-114090510D01*
X120990000Y-113909491D01*
X120978198Y-113834982D01*
X120987769Y-113774550D01*
X121031033Y-113731285D01*
X121091465Y-113721713D01*
X121123987Y-113732913D01*
G37*
%TD.AperFunction*%
%TA.AperFunction,Conductor*%
G36*
X133004842Y-93600976D02*
G01*
X133165782Y-93616828D01*
X133184812Y-93620613D01*
X133284000Y-93650701D01*
X133334891Y-93666139D01*
X133352822Y-93673566D01*
X133491136Y-93747497D01*
X133507272Y-93758279D01*
X133628504Y-93857771D01*
X133642227Y-93871494D01*
X133741721Y-93992727D01*
X133752503Y-94008864D01*
X133826432Y-94147176D01*
X133833859Y-94165106D01*
X133879385Y-94315186D01*
X133883171Y-94334220D01*
X133899022Y-94495155D01*
X133899499Y-94504859D01*
X133899499Y-115495137D01*
X133899022Y-115504841D01*
X133883170Y-115665778D01*
X133879384Y-115684812D01*
X133833858Y-115834892D01*
X133826431Y-115852822D01*
X133752502Y-115991134D01*
X133741720Y-116007271D01*
X133642226Y-116128504D01*
X133628503Y-116142227D01*
X133507271Y-116241719D01*
X133491135Y-116252501D01*
X133352821Y-116326433D01*
X133334890Y-116333860D01*
X133184812Y-116379385D01*
X133165778Y-116383171D01*
X133004842Y-116399023D01*
X132995138Y-116399500D01*
X113404860Y-116399500D01*
X113395156Y-116399023D01*
X113234218Y-116383171D01*
X113215184Y-116379385D01*
X113065107Y-116333860D01*
X113047176Y-116326433D01*
X112908862Y-116252502D01*
X112892726Y-116241720D01*
X112771494Y-116142227D01*
X112757771Y-116128504D01*
X112658278Y-116007272D01*
X112647496Y-115991136D01*
X112573565Y-115852822D01*
X112566138Y-115834891D01*
X112520613Y-115684814D01*
X112516827Y-115665780D01*
X112500976Y-115504842D01*
X112500499Y-115495138D01*
X112500499Y-113193186D01*
X113921321Y-113193186D01*
X113921771Y-113197157D01*
X113921771Y-113197161D01*
X113923870Y-113215665D01*
X113924500Y-113226819D01*
X113924500Y-115349435D01*
X113947067Y-115433657D01*
X113950091Y-115444942D01*
X113999523Y-115530559D01*
X113999525Y-115530562D01*
X114069438Y-115600475D01*
X114097979Y-115616953D01*
X114155058Y-115649908D01*
X114155056Y-115649908D01*
X114155060Y-115649909D01*
X114155062Y-115649910D01*
X114250565Y-115675500D01*
X114250567Y-115675500D01*
X124969433Y-115675500D01*
X124969435Y-115675500D01*
X125064938Y-115649910D01*
X125064940Y-115649908D01*
X125064942Y-115649908D01*
X125090377Y-115635222D01*
X125150562Y-115600475D01*
X125220475Y-115530562D01*
X125255222Y-115470377D01*
X125269908Y-115444942D01*
X125269908Y-115444940D01*
X125269910Y-115444938D01*
X125295500Y-115349435D01*
X125295500Y-115104460D01*
X125314407Y-115046269D01*
X125349554Y-115016250D01*
X125496788Y-114941232D01*
X125636928Y-114839414D01*
X125759414Y-114716928D01*
X125861232Y-114576788D01*
X125939873Y-114422445D01*
X125939874Y-114422440D01*
X125939876Y-114422438D01*
X125993401Y-114257706D01*
X125993402Y-114257702D01*
X126020500Y-114086614D01*
X126020500Y-113913385D01*
X125993402Y-113742297D01*
X125993401Y-113742293D01*
X125939876Y-113577561D01*
X125939874Y-113577558D01*
X125939873Y-113577557D01*
X125939873Y-113577555D01*
X125861232Y-113423212D01*
X125759414Y-113283072D01*
X125636928Y-113160586D01*
X125496788Y-113058768D01*
X125496787Y-113058767D01*
X125496785Y-113058766D01*
X125342441Y-112980125D01*
X125342438Y-112980123D01*
X125177706Y-112926598D01*
X125177702Y-112926597D01*
X125006614Y-112899500D01*
X125006611Y-112899500D01*
X124833389Y-112899500D01*
X124833386Y-112899500D01*
X124662297Y-112926597D01*
X124662293Y-112926598D01*
X124497561Y-112980123D01*
X124497558Y-112980125D01*
X124343214Y-113058766D01*
X124203073Y-113160585D01*
X124080585Y-113283073D01*
X123978766Y-113423214D01*
X123900125Y-113577558D01*
X123900123Y-113577561D01*
X123846598Y-113742293D01*
X123846597Y-113742297D01*
X123819500Y-113913385D01*
X123819500Y-114086614D01*
X123846597Y-114257702D01*
X123846598Y-114257706D01*
X123900123Y-114422438D01*
X123900125Y-114422441D01*
X123900126Y-114422444D01*
X123900127Y-114422445D01*
X123978768Y-114576788D01*
X124080586Y-114716928D01*
X124119156Y-114755498D01*
X124146932Y-114810013D01*
X124137361Y-114870445D01*
X124094096Y-114913710D01*
X124049151Y-114924500D01*
X123250849Y-114924500D01*
X123192658Y-114905593D01*
X123156694Y-114856093D01*
X123156694Y-114794907D01*
X123180843Y-114755498D01*
X123219414Y-114716928D01*
X123321232Y-114576788D01*
X123399873Y-114422445D01*
X123399874Y-114422440D01*
X123399876Y-114422438D01*
X123453401Y-114257706D01*
X123453402Y-114257702D01*
X123480500Y-114086614D01*
X123480500Y-113913385D01*
X123453402Y-113742297D01*
X123453401Y-113742293D01*
X123399876Y-113577561D01*
X123399874Y-113577558D01*
X123399873Y-113577557D01*
X123399873Y-113577555D01*
X123321232Y-113423212D01*
X123219414Y-113283072D01*
X123096928Y-113160586D01*
X122956788Y-113058768D01*
X122956787Y-113058767D01*
X122956785Y-113058766D01*
X122802441Y-112980125D01*
X122802438Y-112980123D01*
X122637706Y-112926598D01*
X122637702Y-112926597D01*
X122466614Y-112899500D01*
X122466611Y-112899500D01*
X122293389Y-112899500D01*
X122293386Y-112899500D01*
X122122297Y-112926597D01*
X122122293Y-112926598D01*
X121957561Y-112980123D01*
X121957558Y-112980125D01*
X121803213Y-113058766D01*
X121704332Y-113130609D01*
X121646141Y-113149516D01*
X121598134Y-113137097D01*
X119367996Y-111900500D01*
X117658683Y-110952697D01*
X117620618Y-110911866D01*
X117619637Y-110912433D01*
X117617180Y-110908178D01*
X117616961Y-110907943D01*
X117616692Y-110907333D01*
X117550503Y-110792690D01*
X117550501Y-110792688D01*
X117550500Y-110792686D01*
X117457314Y-110699500D01*
X117457311Y-110699498D01*
X117457309Y-110699496D01*
X117343189Y-110633609D01*
X117343191Y-110633609D01*
X117293799Y-110620375D01*
X117215892Y-110599500D01*
X117084108Y-110599500D01*
X117006200Y-110620375D01*
X116956809Y-110633609D01*
X116842690Y-110699496D01*
X116749498Y-110792688D01*
X116710236Y-110860692D01*
X116664766Y-110901632D01*
X116603916Y-110908027D01*
X116550928Y-110877434D01*
X116526042Y-110821539D01*
X116525500Y-110811191D01*
X116525500Y-107542367D01*
X116544407Y-107484176D01*
X116593907Y-107448212D01*
X116617562Y-107443611D01*
X118658601Y-107300380D01*
X118715030Y-107313401D01*
X118806810Y-107366390D01*
X118806808Y-107366390D01*
X118806812Y-107366391D01*
X118806814Y-107366392D01*
X118934108Y-107400500D01*
X118934110Y-107400500D01*
X119065890Y-107400500D01*
X119065892Y-107400500D01*
X119193186Y-107366392D01*
X119193188Y-107366390D01*
X119193190Y-107366390D01*
X119307309Y-107300503D01*
X119307309Y-107300502D01*
X119307314Y-107300500D01*
X119387230Y-107220583D01*
X119437338Y-107193607D01*
X126843361Y-105674423D01*
X126856862Y-105672612D01*
X126873499Y-105671540D01*
X126892457Y-105665126D01*
X126904279Y-105661927D01*
X126923881Y-105657907D01*
X126938782Y-105650447D01*
X126951366Y-105645197D01*
X126967158Y-105639856D01*
X126983810Y-105628753D01*
X126994397Y-105622606D01*
X127012294Y-105613648D01*
X127024766Y-105602576D01*
X127035547Y-105594261D01*
X127301250Y-105417127D01*
X127356165Y-105400500D01*
X127465890Y-105400500D01*
X127465892Y-105400500D01*
X127593186Y-105366392D01*
X127593188Y-105366390D01*
X127593190Y-105366390D01*
X127707309Y-105300503D01*
X127707309Y-105300502D01*
X127707314Y-105300500D01*
X127800500Y-105207314D01*
X127866392Y-105093186D01*
X127900500Y-104965892D01*
X127900500Y-104870544D01*
X127919407Y-104812353D01*
X127968907Y-104776389D01*
X128030093Y-104776389D01*
X128063877Y-104797092D01*
X128064305Y-104796535D01*
X128065859Y-104797728D01*
X128066153Y-104797984D01*
X128070039Y-104800937D01*
X128070415Y-104801225D01*
X128070752Y-104801484D01*
X128112789Y-104825505D01*
X128113170Y-104825724D01*
X128158762Y-104852046D01*
X128162090Y-104853677D01*
X128489449Y-105040738D01*
X128530592Y-105086025D01*
X128531796Y-105088810D01*
X128533606Y-105093180D01*
X128533608Y-105093186D01*
X128599497Y-105207309D01*
X128599500Y-105207314D01*
X128603449Y-105212460D01*
X128601086Y-105214273D01*
X128623281Y-105257834D01*
X128624500Y-105273321D01*
X128624500Y-110237008D01*
X128605593Y-110295199D01*
X128577970Y-110320960D01*
X127516384Y-110984452D01*
X127463914Y-110999500D01*
X127334108Y-110999500D01*
X127256200Y-111020375D01*
X127206809Y-111033609D01*
X127092690Y-111099496D01*
X126999496Y-111192690D01*
X126933609Y-111306809D01*
X126933608Y-111306814D01*
X126899500Y-111434108D01*
X126899500Y-111565892D01*
X126916474Y-111629241D01*
X126933609Y-111693190D01*
X126999496Y-111807309D01*
X126999498Y-111807311D01*
X126999500Y-111807314D01*
X127092686Y-111900500D01*
X127092688Y-111900501D01*
X127092690Y-111900503D01*
X127206810Y-111966390D01*
X127206808Y-111966390D01*
X127206812Y-111966391D01*
X127206814Y-111966392D01*
X127334108Y-112000500D01*
X127334110Y-112000500D01*
X127465890Y-112000500D01*
X127465892Y-112000500D01*
X127593186Y-111966392D01*
X127593188Y-111966390D01*
X127593190Y-111966390D01*
X127707309Y-111900503D01*
X127707309Y-111900502D01*
X127707314Y-111900500D01*
X127800500Y-111807314D01*
X127866392Y-111693186D01*
X127869776Y-111680554D01*
X127903095Y-111629241D01*
X127912917Y-111622233D01*
X129191992Y-110822811D01*
X129194932Y-110821045D01*
X129230562Y-110800475D01*
X129230569Y-110800467D01*
X129235713Y-110796522D01*
X129235963Y-110796848D01*
X129236190Y-110796667D01*
X129235928Y-110796350D01*
X129240926Y-110792228D01*
X129240935Y-110792223D01*
X129269006Y-110762113D01*
X129271356Y-110759679D01*
X129300475Y-110730562D01*
X129300480Y-110730553D01*
X129304426Y-110725411D01*
X129304753Y-110725661D01*
X129304926Y-110725427D01*
X129304591Y-110725189D01*
X129308358Y-110719907D01*
X129327670Y-110683577D01*
X129329352Y-110680543D01*
X129337579Y-110666294D01*
X129349910Y-110644938D01*
X129351636Y-110638493D01*
X129354767Y-110632605D01*
X129364020Y-110592507D01*
X129364844Y-110589199D01*
X129375500Y-110549435D01*
X129375500Y-110549432D01*
X129376347Y-110543002D01*
X129376751Y-110543055D01*
X129376784Y-110542764D01*
X129376378Y-110542725D01*
X129376997Y-110536275D01*
X129377000Y-110536265D01*
X129375561Y-110495169D01*
X129375500Y-110491705D01*
X129375500Y-105273321D01*
X129394407Y-105215130D01*
X129396633Y-105212523D01*
X129396551Y-105212460D01*
X129400496Y-105207317D01*
X129400500Y-105207314D01*
X129466392Y-105093186D01*
X129476572Y-105055190D01*
X129509893Y-105003878D01*
X129567014Y-104981950D01*
X129626115Y-104997784D01*
X129664622Y-105045333D01*
X129671194Y-105081667D01*
X129625159Y-110421858D01*
X129620083Y-110452311D01*
X129551950Y-110656712D01*
X129551950Y-110656713D01*
X129528083Y-110728313D01*
X128990072Y-112342347D01*
X128956099Y-112389827D01*
X128110310Y-113033361D01*
X128052551Y-113053550D01*
X128005418Y-113042784D01*
X127882442Y-112980125D01*
X127882438Y-112980123D01*
X127717706Y-112926598D01*
X127717702Y-112926597D01*
X127546614Y-112899500D01*
X127546611Y-112899500D01*
X127373389Y-112899500D01*
X127373386Y-112899500D01*
X127202297Y-112926597D01*
X127202293Y-112926598D01*
X127037561Y-112980123D01*
X127037558Y-112980125D01*
X126883214Y-113058766D01*
X126743073Y-113160585D01*
X126620585Y-113283073D01*
X126518766Y-113423214D01*
X126440125Y-113577558D01*
X126440123Y-113577561D01*
X126386598Y-113742293D01*
X126386597Y-113742297D01*
X126359500Y-113913385D01*
X126359500Y-114086614D01*
X126386597Y-114257702D01*
X126386598Y-114257706D01*
X126440123Y-114422438D01*
X126440125Y-114422441D01*
X126440126Y-114422444D01*
X126440127Y-114422445D01*
X126518768Y-114576788D01*
X126620586Y-114716928D01*
X126743072Y-114839414D01*
X126883212Y-114941232D01*
X127037555Y-115019873D01*
X127037557Y-115019873D01*
X127037558Y-115019874D01*
X127037561Y-115019876D01*
X127202293Y-115073401D01*
X127202297Y-115073402D01*
X127373386Y-115100500D01*
X127373389Y-115100500D01*
X127546614Y-115100500D01*
X127717702Y-115073402D01*
X127717706Y-115073401D01*
X127882438Y-115019876D01*
X127882440Y-115019874D01*
X127882445Y-115019873D01*
X128036788Y-114941232D01*
X128176928Y-114839414D01*
X128299414Y-114716928D01*
X128401232Y-114576788D01*
X128479873Y-114422445D01*
X128479874Y-114422440D01*
X128479876Y-114422438D01*
X128533401Y-114257706D01*
X128533402Y-114257702D01*
X128560500Y-114086614D01*
X128560500Y-113913385D01*
X128533403Y-113742305D01*
X128533402Y-113742304D01*
X128533402Y-113742299D01*
X128532403Y-113739224D01*
X128532404Y-113678041D01*
X128566609Y-113629848D01*
X128853505Y-113411558D01*
X128911263Y-113391370D01*
X128969857Y-113408987D01*
X129006906Y-113457680D01*
X129008259Y-113518850D01*
X129001661Y-113535290D01*
X128980127Y-113577552D01*
X128980123Y-113577561D01*
X128926598Y-113742293D01*
X128926597Y-113742297D01*
X128899500Y-113913385D01*
X128899500Y-114086614D01*
X128926597Y-114257702D01*
X128926598Y-114257706D01*
X128980123Y-114422438D01*
X128980125Y-114422441D01*
X128980126Y-114422444D01*
X128980127Y-114422445D01*
X129058768Y-114576788D01*
X129160586Y-114716928D01*
X129283072Y-114839414D01*
X129423212Y-114941232D01*
X129577555Y-115019873D01*
X129577557Y-115019873D01*
X129577558Y-115019874D01*
X129577561Y-115019876D01*
X129742293Y-115073401D01*
X129742297Y-115073402D01*
X129913386Y-115100500D01*
X129913389Y-115100500D01*
X130086614Y-115100500D01*
X130257702Y-115073402D01*
X130257706Y-115073401D01*
X130422438Y-115019876D01*
X130422440Y-115019874D01*
X130422445Y-115019873D01*
X130576788Y-114941232D01*
X130716928Y-114839414D01*
X130839414Y-114716928D01*
X130941232Y-114576788D01*
X131019873Y-114422445D01*
X131019874Y-114422440D01*
X131019876Y-114422438D01*
X131073401Y-114257706D01*
X131073402Y-114257702D01*
X131100500Y-114086614D01*
X131100500Y-113913385D01*
X131073402Y-113742297D01*
X131073401Y-113742293D01*
X131019876Y-113577561D01*
X131019874Y-113577558D01*
X131019873Y-113577557D01*
X131019873Y-113577555D01*
X130941232Y-113423212D01*
X130839414Y-113283072D01*
X130716928Y-113160586D01*
X130576788Y-113058768D01*
X130576787Y-113058767D01*
X130576785Y-113058766D01*
X130422441Y-112980125D01*
X130422438Y-112980123D01*
X130257706Y-112926598D01*
X130257702Y-112926597D01*
X130086614Y-112899500D01*
X130086611Y-112899500D01*
X129913389Y-112899500D01*
X129913386Y-112899500D01*
X129742294Y-112926598D01*
X129740911Y-112926930D01*
X129740436Y-112926892D01*
X129738457Y-112927206D01*
X129738381Y-112926730D01*
X129679916Y-112922116D01*
X129633399Y-112882369D01*
X129619128Y-112822871D01*
X129626512Y-112792403D01*
X129627221Y-112790708D01*
X129627224Y-112790706D01*
X129629155Y-112786094D01*
X129637845Y-112769810D01*
X129640598Y-112765642D01*
X129650605Y-112735619D01*
X129653200Y-112728707D01*
X129665432Y-112699517D01*
X129666102Y-112694575D01*
X129670279Y-112676593D01*
X130340380Y-110666291D01*
X130347546Y-110650542D01*
X130348649Y-110647946D01*
X130358599Y-110612048D01*
X130360075Y-110607206D01*
X130371863Y-110571846D01*
X130371863Y-110571843D01*
X130371864Y-110571841D01*
X130372396Y-110569086D01*
X130374669Y-110555451D01*
X130375058Y-110552676D01*
X130375060Y-110552670D01*
X130375381Y-110515409D01*
X130375555Y-110510332D01*
X130376465Y-110495169D01*
X130377787Y-110473151D01*
X130377785Y-110473142D01*
X130377588Y-110470358D01*
X130375918Y-110453121D01*
X130377280Y-110295199D01*
X130408080Y-106722269D01*
X130427488Y-106664244D01*
X130477296Y-106628708D01*
X130538479Y-106629236D01*
X130556572Y-106637384D01*
X130606814Y-106666392D01*
X130734108Y-106700500D01*
X130734110Y-106700500D01*
X130865890Y-106700500D01*
X130865892Y-106700500D01*
X130993186Y-106666392D01*
X130993188Y-106666390D01*
X130993190Y-106666390D01*
X131107309Y-106600503D01*
X131107309Y-106600502D01*
X131107314Y-106600500D01*
X131200500Y-106507314D01*
X131200503Y-106507309D01*
X131266390Y-106393190D01*
X131266390Y-106393188D01*
X131266392Y-106393186D01*
X131300500Y-106265892D01*
X131300500Y-106134108D01*
X131266392Y-106006814D01*
X131266390Y-106006811D01*
X131266390Y-106006809D01*
X131200503Y-105892690D01*
X131196551Y-105887540D01*
X131198901Y-105885735D01*
X131176706Y-105842082D01*
X131175500Y-105826678D01*
X131175500Y-103973321D01*
X131194407Y-103915130D01*
X131196633Y-103912523D01*
X131196551Y-103912460D01*
X131200496Y-103907317D01*
X131200500Y-103907314D01*
X131266392Y-103793186D01*
X131300500Y-103665892D01*
X131300500Y-103534108D01*
X131266392Y-103406814D01*
X131266390Y-103406811D01*
X131266390Y-103406809D01*
X131200503Y-103292690D01*
X131200501Y-103292688D01*
X131200500Y-103292686D01*
X131107314Y-103199500D01*
X131107311Y-103199498D01*
X131107309Y-103199496D01*
X130993189Y-103133609D01*
X130993191Y-103133609D01*
X130943799Y-103120375D01*
X130865892Y-103099500D01*
X130734108Y-103099500D01*
X130656200Y-103120375D01*
X130606809Y-103133609D01*
X130492690Y-103199496D01*
X130399496Y-103292690D01*
X130333609Y-103406809D01*
X130333608Y-103406814D01*
X130299500Y-103534108D01*
X130299500Y-103665892D01*
X130329579Y-103778151D01*
X130333609Y-103793190D01*
X130399496Y-103907309D01*
X130403449Y-103912460D01*
X130401086Y-103914273D01*
X130423281Y-103957834D01*
X130424500Y-103973321D01*
X130424500Y-104166816D01*
X130405593Y-104225007D01*
X130356093Y-104260971D01*
X130294907Y-104260971D01*
X130276001Y-104252553D01*
X130243189Y-104233609D01*
X130243186Y-104233608D01*
X130115892Y-104199500D01*
X129984108Y-104199500D01*
X129906200Y-104220375D01*
X129856809Y-104233609D01*
X129742690Y-104299496D01*
X129649496Y-104392690D01*
X129583609Y-104506809D01*
X129583608Y-104506814D01*
X129572686Y-104547578D01*
X129571121Y-104553418D01*
X129537797Y-104604732D01*
X129480675Y-104626659D01*
X129421575Y-104610823D01*
X129405967Y-104596395D01*
X129405088Y-104597275D01*
X129400501Y-104592688D01*
X129400500Y-104592686D01*
X129307314Y-104499500D01*
X129307311Y-104499498D01*
X129307309Y-104499496D01*
X129193189Y-104433609D01*
X129193191Y-104433609D01*
X129143799Y-104420375D01*
X129065892Y-104399500D01*
X128934108Y-104399500D01*
X128927672Y-104400347D01*
X128927380Y-104398129D01*
X128876174Y-104395437D01*
X128862552Y-104388975D01*
X128725382Y-104310592D01*
X128684239Y-104265305D01*
X128675500Y-104224636D01*
X128675500Y-94950568D01*
X128675500Y-94950565D01*
X128675324Y-94949910D01*
X128649910Y-94855063D01*
X128649910Y-94855062D01*
X128649910Y-94855061D01*
X128600475Y-94769438D01*
X128530562Y-94699524D01*
X128530562Y-94699525D01*
X128130563Y-94299526D01*
X128130563Y-94299525D01*
X128044941Y-94250091D01*
X128044937Y-94250089D01*
X127967714Y-94229397D01*
X127967713Y-94229397D01*
X127949438Y-94224500D01*
X127949436Y-94224500D01*
X127949435Y-94224500D01*
X115344021Y-94224500D01*
X115325807Y-94222810D01*
X115320490Y-94221814D01*
X115320489Y-94221814D01*
X115291126Y-94224073D01*
X115289380Y-94224208D01*
X115281788Y-94224500D01*
X115250559Y-94224500D01*
X115245321Y-94225904D01*
X115227313Y-94228982D01*
X115221909Y-94229398D01*
X115192472Y-94239763D01*
X115185220Y-94242008D01*
X115155058Y-94250091D01*
X115155054Y-94250092D01*
X115150361Y-94252802D01*
X115133760Y-94260438D01*
X115128652Y-94262237D01*
X115102897Y-94279870D01*
X115096470Y-94283918D01*
X115069436Y-94299525D01*
X115065605Y-94303357D01*
X115051540Y-94315034D01*
X115047069Y-94318095D01*
X115026765Y-94341783D01*
X115021606Y-94347355D01*
X114999528Y-94369433D01*
X114999520Y-94369444D01*
X114996813Y-94374133D01*
X114986248Y-94389052D01*
X114436734Y-95030152D01*
X114426923Y-95040086D01*
X114414990Y-95050573D01*
X114414985Y-95050578D01*
X114403457Y-95067871D01*
X114396253Y-95077380D01*
X114382729Y-95093158D01*
X114375859Y-95107494D01*
X114368960Y-95119614D01*
X114360142Y-95132842D01*
X114353479Y-95152538D01*
X114348984Y-95163583D01*
X114340005Y-95182324D01*
X114337082Y-95197940D01*
X114333552Y-95211445D01*
X114328460Y-95226497D01*
X114328459Y-95226504D01*
X114327120Y-95247249D01*
X114325637Y-95259079D01*
X114321815Y-95279505D01*
X114321815Y-95279508D01*
X114323033Y-95295346D01*
X114323119Y-95309301D01*
X114322096Y-95325165D01*
X114322097Y-95325169D01*
X114326173Y-95345554D01*
X114327803Y-95357366D01*
X114329398Y-95378090D01*
X114329398Y-95378091D01*
X114334675Y-95393078D01*
X114338371Y-95406541D01*
X114659575Y-97012563D01*
X114652447Y-97073331D01*
X114648236Y-97081475D01*
X114633609Y-97106810D01*
X114633608Y-97106814D01*
X114599500Y-97234108D01*
X114599500Y-97365892D01*
X114629579Y-97478151D01*
X114633609Y-97493190D01*
X114699496Y-97607309D01*
X114699498Y-97607311D01*
X114699500Y-97607314D01*
X114792686Y-97700500D01*
X114792688Y-97700501D01*
X114792690Y-97700503D01*
X114906810Y-97766390D01*
X114906808Y-97766390D01*
X114906812Y-97766391D01*
X114906814Y-97766392D01*
X115034108Y-97800500D01*
X115034110Y-97800500D01*
X115165890Y-97800500D01*
X115165892Y-97800500D01*
X115293186Y-97766392D01*
X115293188Y-97766390D01*
X115293190Y-97766390D01*
X115407309Y-97700503D01*
X115407309Y-97700502D01*
X115407314Y-97700500D01*
X115500500Y-97607314D01*
X115566392Y-97493186D01*
X115600500Y-97365892D01*
X115600500Y-97234108D01*
X115598092Y-97225121D01*
X115601295Y-97164021D01*
X115639800Y-97116472D01*
X115693719Y-97100500D01*
X117254673Y-97100500D01*
X117254674Y-97100500D01*
X117327740Y-97085966D01*
X117410601Y-97030601D01*
X117465966Y-96947740D01*
X117478390Y-96885282D01*
X117480499Y-96874681D01*
X117480500Y-96874672D01*
X117480500Y-95125327D01*
X117480499Y-95125323D01*
X117474232Y-95093814D01*
X117481424Y-95033053D01*
X117522956Y-94988123D01*
X117571330Y-94975500D01*
X118159879Y-94975500D01*
X118218070Y-94994407D01*
X118254034Y-95043907D01*
X118255011Y-95052168D01*
X118734823Y-95531980D01*
X118727007Y-95534075D01*
X118612993Y-95599901D01*
X118519901Y-95692993D01*
X118454075Y-95807007D01*
X118451980Y-95814823D01*
X117977667Y-95340510D01*
X117936432Y-95397267D01*
X117854250Y-95558559D01*
X117798316Y-95730710D01*
X117770000Y-95909489D01*
X117770000Y-96090510D01*
X117798316Y-96269289D01*
X117854250Y-96441440D01*
X117936430Y-96602728D01*
X117977667Y-96659488D01*
X118451980Y-96185174D01*
X118454075Y-96192993D01*
X118519901Y-96307007D01*
X118612993Y-96400099D01*
X118727007Y-96465925D01*
X118734821Y-96468019D01*
X118260511Y-96942330D01*
X118317275Y-96983571D01*
X118478559Y-97065749D01*
X118650710Y-97121683D01*
X118829490Y-97150000D01*
X119010510Y-97150000D01*
X119189289Y-97121683D01*
X119361440Y-97065749D01*
X119522728Y-96983569D01*
X119579487Y-96942330D01*
X119105176Y-96468019D01*
X119112993Y-96465925D01*
X119227007Y-96400099D01*
X119320099Y-96307007D01*
X119385925Y-96192993D01*
X119388019Y-96185176D01*
X119862330Y-96659487D01*
X119903569Y-96602728D01*
X119985749Y-96441440D01*
X120041683Y-96269289D01*
X120070000Y-96090510D01*
X120070000Y-95909489D01*
X120041683Y-95730710D01*
X119985749Y-95558559D01*
X119903571Y-95397275D01*
X119862330Y-95340511D01*
X119388019Y-95814821D01*
X119385925Y-95807007D01*
X119320099Y-95692993D01*
X119227007Y-95599901D01*
X119112993Y-95534075D01*
X119105174Y-95531980D01*
X119589808Y-95047347D01*
X119595708Y-95022773D01*
X119642233Y-94983036D01*
X119680120Y-94975500D01*
X120693130Y-94975500D01*
X120751321Y-94994407D01*
X120787285Y-95043907D01*
X120787285Y-95105093D01*
X120751322Y-95154592D01*
X120743074Y-95160584D01*
X120620585Y-95283073D01*
X120518766Y-95423214D01*
X120440125Y-95577558D01*
X120440123Y-95577561D01*
X120386598Y-95742293D01*
X120386597Y-95742297D01*
X120359500Y-95913385D01*
X120359500Y-96086614D01*
X120386597Y-96257702D01*
X120386598Y-96257706D01*
X120440123Y-96422438D01*
X120440125Y-96422441D01*
X120440126Y-96422444D01*
X120440127Y-96422445D01*
X120518768Y-96576788D01*
X120620586Y-96716928D01*
X120743072Y-96839414D01*
X120883212Y-96941232D01*
X121037555Y-97019873D01*
X121037557Y-97019873D01*
X121037558Y-97019874D01*
X121037561Y-97019876D01*
X121202293Y-97073401D01*
X121202297Y-97073402D01*
X121373386Y-97100500D01*
X121373389Y-97100500D01*
X121546614Y-97100500D01*
X121717702Y-97073402D01*
X121717706Y-97073401D01*
X121882438Y-97019876D01*
X121882440Y-97019874D01*
X121882445Y-97019873D01*
X122036788Y-96941232D01*
X122176928Y-96839414D01*
X122299414Y-96716928D01*
X122401232Y-96576788D01*
X122479873Y-96422445D01*
X122479874Y-96422440D01*
X122479876Y-96422438D01*
X122533401Y-96257706D01*
X122533402Y-96257702D01*
X122560500Y-96086614D01*
X122560500Y-95913385D01*
X122533402Y-95742297D01*
X122533401Y-95742293D01*
X122479876Y-95577561D01*
X122479874Y-95577558D01*
X122479873Y-95577557D01*
X122479873Y-95577555D01*
X122401232Y-95423212D01*
X122299414Y-95283072D01*
X122176928Y-95160586D01*
X122168678Y-95154592D01*
X122132715Y-95105091D01*
X122132716Y-95043906D01*
X122168681Y-94994406D01*
X122226870Y-94975500D01*
X123233130Y-94975500D01*
X123291321Y-94994407D01*
X123327285Y-95043907D01*
X123327285Y-95105093D01*
X123291322Y-95154592D01*
X123283074Y-95160584D01*
X123160585Y-95283073D01*
X123058766Y-95423214D01*
X122980125Y-95577558D01*
X122980123Y-95577561D01*
X122926598Y-95742293D01*
X122926597Y-95742297D01*
X122899500Y-95913385D01*
X122899500Y-96086614D01*
X122926597Y-96257702D01*
X122926598Y-96257706D01*
X122980123Y-96422438D01*
X122980125Y-96422441D01*
X122980126Y-96422444D01*
X122980127Y-96422445D01*
X123058768Y-96576788D01*
X123160586Y-96716928D01*
X123283072Y-96839414D01*
X123423212Y-96941232D01*
X123577555Y-97019873D01*
X123577557Y-97019873D01*
X123577558Y-97019874D01*
X123577561Y-97019876D01*
X123742293Y-97073401D01*
X123742297Y-97073402D01*
X123913386Y-97100500D01*
X123913389Y-97100500D01*
X124086614Y-97100500D01*
X124257702Y-97073402D01*
X124257706Y-97073401D01*
X124422438Y-97019876D01*
X124422440Y-97019874D01*
X124422445Y-97019873D01*
X124576788Y-96941232D01*
X124716928Y-96839414D01*
X124839414Y-96716928D01*
X124941232Y-96576788D01*
X125019873Y-96422445D01*
X125019874Y-96422440D01*
X125019876Y-96422438D01*
X125073401Y-96257706D01*
X125073402Y-96257702D01*
X125100500Y-96086614D01*
X125100500Y-95913385D01*
X125073402Y-95742297D01*
X125073401Y-95742293D01*
X125019876Y-95577561D01*
X125019874Y-95577558D01*
X125019873Y-95577557D01*
X125019873Y-95577555D01*
X124941232Y-95423212D01*
X124839414Y-95283072D01*
X124716928Y-95160586D01*
X124708678Y-95154592D01*
X124672715Y-95105091D01*
X124672716Y-95043906D01*
X124708681Y-94994406D01*
X124766870Y-94975500D01*
X127703455Y-94975500D01*
X127761646Y-94994407D01*
X127773459Y-95004496D01*
X127895504Y-95126541D01*
X127923281Y-95181058D01*
X127924500Y-95196545D01*
X127924500Y-96025500D01*
X127905593Y-96083691D01*
X127856093Y-96119655D01*
X127825500Y-96124500D01*
X127473321Y-96124500D01*
X127415130Y-96105593D01*
X127412523Y-96103366D01*
X127412460Y-96103449D01*
X127407309Y-96099496D01*
X127293189Y-96033609D01*
X127293191Y-96033609D01*
X127243799Y-96020375D01*
X127165892Y-95999500D01*
X127034108Y-95999500D01*
X126956200Y-96020375D01*
X126906809Y-96033609D01*
X126792690Y-96099496D01*
X126699496Y-96192690D01*
X126633609Y-96306809D01*
X126633608Y-96306814D01*
X126599500Y-96434108D01*
X126599500Y-96565892D01*
X126624579Y-96659488D01*
X126633609Y-96693190D01*
X126699496Y-96807309D01*
X126699498Y-96807311D01*
X126699500Y-96807314D01*
X126792686Y-96900500D01*
X126792688Y-96900501D01*
X126792690Y-96900503D01*
X126906810Y-96966390D01*
X126906808Y-96966390D01*
X126906812Y-96966391D01*
X126906814Y-96966392D01*
X127034108Y-97000500D01*
X127034110Y-97000500D01*
X127165890Y-97000500D01*
X127165892Y-97000500D01*
X127293186Y-96966392D01*
X127293188Y-96966390D01*
X127293190Y-96966390D01*
X127407309Y-96900503D01*
X127407309Y-96900502D01*
X127407314Y-96900500D01*
X127407317Y-96900496D01*
X127412460Y-96896551D01*
X127414273Y-96898913D01*
X127457834Y-96876719D01*
X127473321Y-96875500D01*
X127825500Y-96875500D01*
X127883691Y-96894407D01*
X127919655Y-96943907D01*
X127924500Y-96974500D01*
X127924500Y-104444271D01*
X127924264Y-104447985D01*
X127924394Y-104477136D01*
X127905745Y-104535409D01*
X127856404Y-104571592D01*
X127795220Y-104571863D01*
X127755393Y-104547579D01*
X127707314Y-104499500D01*
X127707311Y-104499498D01*
X127707309Y-104499496D01*
X127593189Y-104433609D01*
X127593191Y-104433609D01*
X127543799Y-104420375D01*
X127465892Y-104399500D01*
X127334108Y-104399500D01*
X127256200Y-104420375D01*
X127206809Y-104433609D01*
X127092690Y-104499496D01*
X126999496Y-104592690D01*
X126933609Y-104706810D01*
X126933608Y-104706811D01*
X126926035Y-104735074D01*
X126892710Y-104786387D01*
X126885325Y-104791821D01*
X126668806Y-104936168D01*
X126633783Y-104950776D01*
X119285539Y-106458108D01*
X119224736Y-106451279D01*
X119216146Y-106446864D01*
X119193187Y-106433608D01*
X119150754Y-106422238D01*
X119065892Y-106399500D01*
X118934108Y-106399500D01*
X118856200Y-106420375D01*
X118806809Y-106433609D01*
X118692686Y-106499499D01*
X118669760Y-106522425D01*
X118615243Y-106550201D01*
X118606688Y-106551177D01*
X116983001Y-106665119D01*
X116923630Y-106650332D01*
X116884289Y-106603471D01*
X116880006Y-106542435D01*
X116880417Y-106540841D01*
X116900500Y-106465892D01*
X116900500Y-106334108D01*
X116866392Y-106206814D01*
X116866390Y-106206811D01*
X116866390Y-106206809D01*
X116800503Y-106092690D01*
X116800501Y-106092688D01*
X116800500Y-106092686D01*
X116707314Y-105999500D01*
X116707311Y-105999498D01*
X116707309Y-105999496D01*
X116593189Y-105933609D01*
X116593191Y-105933609D01*
X116543799Y-105920375D01*
X116465892Y-105899500D01*
X116334108Y-105899500D01*
X116256200Y-105920375D01*
X116206809Y-105933609D01*
X116092690Y-105999496D01*
X115999496Y-106092690D01*
X115933609Y-106206809D01*
X115899500Y-106334109D01*
X115899500Y-106465891D01*
X115925043Y-106561222D01*
X115922648Y-106620142D01*
X115810822Y-106933251D01*
X115803332Y-106949443D01*
X115800094Y-106955051D01*
X115800088Y-106955066D01*
X115799102Y-106958746D01*
X115792478Y-106976470D01*
X115790804Y-106979904D01*
X115790802Y-106979911D01*
X115788233Y-106993143D01*
X115784284Y-107007559D01*
X115779749Y-107020258D01*
X115779748Y-107020266D01*
X115779222Y-107026725D01*
X115776177Y-107044304D01*
X115774500Y-107050560D01*
X115774500Y-107054373D01*
X115772687Y-107073235D01*
X115771961Y-107076973D01*
X115771961Y-107076979D01*
X115772903Y-107090413D01*
X115772820Y-107105364D01*
X115771726Y-107118804D01*
X115772890Y-107125175D01*
X115774500Y-107142959D01*
X115774500Y-112576790D01*
X115774028Y-112586449D01*
X115771468Y-112612562D01*
X115773170Y-112622842D01*
X115774500Y-112639013D01*
X115774500Y-112649437D01*
X115781287Y-112674768D01*
X115783330Y-112684217D01*
X115787615Y-112710100D01*
X115787616Y-112710102D01*
X115791924Y-112719599D01*
X115797392Y-112734870D01*
X115800089Y-112744938D01*
X115813203Y-112767650D01*
X115817623Y-112776251D01*
X115828462Y-112800144D01*
X115828463Y-112800145D01*
X115835079Y-112808200D01*
X115844313Y-112821535D01*
X115849523Y-112830560D01*
X115849526Y-112830563D01*
X115868077Y-112849115D01*
X115874572Y-112856278D01*
X116177000Y-113224450D01*
X116199326Y-113281415D01*
X116199500Y-113287288D01*
X116199500Y-114825500D01*
X116180593Y-114883691D01*
X116131093Y-114919655D01*
X116100500Y-114924500D01*
X114774500Y-114924500D01*
X114716309Y-114905593D01*
X114680345Y-114856093D01*
X114675500Y-114825500D01*
X114675500Y-113235389D01*
X114676595Y-113220703D01*
X114690901Y-113125327D01*
X114817371Y-112282195D01*
X114819643Y-112271290D01*
X114825500Y-112249435D01*
X114825500Y-112235392D01*
X114826595Y-112220708D01*
X114826810Y-112219269D01*
X114828679Y-112206814D01*
X114826130Y-112184334D01*
X114825500Y-112173180D01*
X114825500Y-109370875D01*
X114829821Y-109341945D01*
X114844633Y-109293470D01*
X115250928Y-107963775D01*
X115286014Y-107913652D01*
X115296104Y-107906971D01*
X115307314Y-107900500D01*
X115400500Y-107807314D01*
X115466392Y-107693186D01*
X115500500Y-107565892D01*
X115500500Y-107434108D01*
X115466392Y-107306814D01*
X115466390Y-107306811D01*
X115466390Y-107306809D01*
X115400503Y-107192690D01*
X115400501Y-107192688D01*
X115400500Y-107192686D01*
X115307314Y-107099500D01*
X115307311Y-107099498D01*
X115307309Y-107099496D01*
X115193189Y-107033609D01*
X115193191Y-107033609D01*
X115143799Y-107020375D01*
X115065892Y-106999500D01*
X114934108Y-106999500D01*
X114856200Y-107020375D01*
X114806809Y-107033609D01*
X114692690Y-107099496D01*
X114599496Y-107192690D01*
X114533609Y-107306809D01*
X114499500Y-107434109D01*
X114499500Y-107565891D01*
X114533142Y-107691449D01*
X114532194Y-107746001D01*
X114106696Y-109138537D01*
X114102191Y-109148909D01*
X114102573Y-109149067D01*
X114100090Y-109155060D01*
X114089433Y-109194831D01*
X114088487Y-109198132D01*
X114076442Y-109237553D01*
X114075373Y-109243949D01*
X114074971Y-109243881D01*
X114074941Y-109244082D01*
X114075346Y-109244136D01*
X114074500Y-109250565D01*
X114074500Y-109291756D01*
X114074440Y-109295197D01*
X114073008Y-109336358D01*
X114073632Y-109342822D01*
X114073217Y-109342861D01*
X114074500Y-109354104D01*
X114074500Y-112164610D01*
X114073405Y-112179296D01*
X113932629Y-113117789D01*
X113930352Y-113128720D01*
X113924500Y-113150561D01*
X113924500Y-113164608D01*
X113923838Y-113173476D01*
X113924023Y-113174317D01*
X113923777Y-113176811D01*
X113921321Y-113193186D01*
X112500499Y-113193186D01*
X112500499Y-99634108D01*
X120999500Y-99634108D01*
X120999500Y-99765892D01*
X121010598Y-99807309D01*
X121033609Y-99893190D01*
X121099496Y-100007309D01*
X121099498Y-100007311D01*
X121099500Y-100007314D01*
X121192686Y-100100500D01*
X121192688Y-100100501D01*
X121192690Y-100100503D01*
X121306810Y-100166390D01*
X121306808Y-100166390D01*
X121306812Y-100166391D01*
X121306814Y-100166392D01*
X121434108Y-100200500D01*
X121434110Y-100200500D01*
X121565890Y-100200500D01*
X121565892Y-100200500D01*
X121693186Y-100166392D01*
X121693188Y-100166390D01*
X121693190Y-100166390D01*
X121807310Y-100100503D01*
X121807311Y-100100501D01*
X121807314Y-100100500D01*
X121854107Y-100053705D01*
X121908623Y-100025928D01*
X121911432Y-100025524D01*
X122734648Y-99919302D01*
X122794779Y-99930607D01*
X122796793Y-99931738D01*
X122856814Y-99966392D01*
X122984108Y-100000500D01*
X122984110Y-100000500D01*
X123115890Y-100000500D01*
X123115892Y-100000500D01*
X123243186Y-99966392D01*
X123243188Y-99966390D01*
X123243190Y-99966390D01*
X123357309Y-99900503D01*
X123357309Y-99900502D01*
X123357314Y-99900500D01*
X123450500Y-99807314D01*
X123516392Y-99693186D01*
X123550500Y-99565892D01*
X123550500Y-99434108D01*
X123516392Y-99306814D01*
X123516390Y-99306811D01*
X123516390Y-99306809D01*
X123450503Y-99192690D01*
X123450501Y-99192688D01*
X123450500Y-99192686D01*
X123357314Y-99099500D01*
X123357311Y-99099498D01*
X123357309Y-99099496D01*
X123243189Y-99033609D01*
X123243191Y-99033609D01*
X123193799Y-99020375D01*
X123115892Y-98999500D01*
X122984108Y-98999500D01*
X122906200Y-99020375D01*
X122856809Y-99033609D01*
X122742685Y-99099499D01*
X122695890Y-99146294D01*
X122641373Y-99174070D01*
X122638557Y-99174475D01*
X121815351Y-99280696D01*
X121755219Y-99269391D01*
X121753182Y-99268246D01*
X121693189Y-99233609D01*
X121693191Y-99233609D01*
X121643799Y-99220375D01*
X121565892Y-99199500D01*
X121434108Y-99199500D01*
X121356200Y-99220375D01*
X121306809Y-99233609D01*
X121192690Y-99299496D01*
X121099496Y-99392690D01*
X121033609Y-99506809D01*
X121033608Y-99506814D01*
X120999500Y-99634108D01*
X112500499Y-99634108D01*
X112500499Y-94504861D01*
X112500976Y-94495157D01*
X112511069Y-94392682D01*
X112516827Y-94334215D01*
X112520613Y-94315185D01*
X112522233Y-94309847D01*
X112566138Y-94165106D01*
X112573565Y-94147177D01*
X112647496Y-94008864D01*
X112647497Y-94008861D01*
X112658278Y-93992727D01*
X112673409Y-93974290D01*
X112757773Y-93871492D01*
X112771491Y-93857774D01*
X112892728Y-93758277D01*
X112908862Y-93747497D01*
X113047178Y-93673564D01*
X113065105Y-93666139D01*
X113215188Y-93620613D01*
X113234214Y-93616828D01*
X113395156Y-93600976D01*
X113404860Y-93600500D01*
X113447594Y-93600500D01*
X132952405Y-93600500D01*
X132995139Y-93600500D01*
X133004842Y-93600976D01*
G37*
%TD.AperFunction*%
%TD*%
M02*
