%TF.GenerationSoftware,KiCad,Pcbnew,10.0.5*%
%TF.CreationDate,2026-10-08T21:47:21+01:00*%
%TF.ProjectId,LIN-Unit,4c494e2d-556e-4697-942e-6b696361645f,rev?*%
%TF.SameCoordinates,Original*%
%TF.FileFunction,Soldermask,Top*%
%TF.FilePolarity,Negative*%
%FSLAX46Y46*%
G04 Gerber Fmt 4.6, Leading zero omitted, Abs format (unit mm)*
G04 Created by KiCad (PCBNEW 10.0.5) date 2026-10-08 21:47:21*
%MOMM*%
%LPD*%
G01*
G04 APERTURE LIST*
G04 Aperture macros list*
%AMRoundRect*
0 Rectangle with rounded corners*
0 $1 Rounding radius*
0 $2 $3 $4 $5 $6 $7 $8 $9 X,Y pos of 4 corners*
0 Add a 4 corners polygon primitive as box body*
4,1,4,$2,$3,$4,$5,$6,$7,$8,$9,$2,$3,0*
0 Add four circle primitives for the rounded corners*
1,1,$1+$1,$2,$3*
1,1,$1+$1,$4,$5*
1,1,$1+$1,$6,$7*
1,1,$1+$1,$8,$9*
0 Add four rect primitives between the rounded corners*
20,1,$1+$1,$2,$3,$4,$5,0*
20,1,$1+$1,$4,$5,$6,$7,0*
20,1,$1+$1,$6,$7,$8,$9,0*
20,1,$1+$1,$8,$9,$2,$3,0*%
%AMFreePoly0*
4,1,6,1.000000,0.000000,0.500000,-0.750000,-0.500000,-0.750000,-0.500000,0.750000,0.500000,0.750000,1.000000,0.000000,1.000000,0.000000,$1*%
%AMFreePoly1*
4,1,6,0.500000,-0.750000,-0.650000,-0.750000,-0.150000,0.000000,-0.650000,0.750000,0.500000,0.750000,0.500000,-0.750000,0.500000,-0.750000,$1*%
G04 Aperture macros list end*
%ADD10R,1.700000X1.700000*%
%ADD11C,1.700000*%
%ADD12RoundRect,0.135000X-0.135000X-0.185000X0.135000X-0.185000X0.135000X0.185000X-0.135000X0.185000X0*%
%ADD13RoundRect,0.075000X0.075000X-0.362500X0.075000X0.362500X-0.075000X0.362500X-0.075000X-0.362500X0*%
%ADD14R,2.400000X1.600000*%
%ADD15RoundRect,0.250000X-0.262500X-0.450000X0.262500X-0.450000X0.262500X0.450000X-0.262500X0.450000X0*%
%ADD16FreePoly0,90.000000*%
%ADD17FreePoly1,90.000000*%
%ADD18RoundRect,0.225000X-0.225000X-0.250000X0.225000X-0.250000X0.225000X0.250000X-0.225000X0.250000X0*%
%ADD19RoundRect,0.112500X0.112500X-0.187500X0.112500X0.187500X-0.112500X0.187500X-0.112500X-0.187500X0*%
%ADD20RoundRect,0.140000X-0.140000X-0.170000X0.140000X-0.170000X0.140000X0.170000X-0.140000X0.170000X0*%
%ADD21RoundRect,0.250000X1.000000X0.650000X-1.000000X0.650000X-1.000000X-0.650000X1.000000X-0.650000X0*%
%ADD22RoundRect,0.135000X0.185000X-0.135000X0.185000X0.135000X-0.185000X0.135000X-0.185000X-0.135000X0*%
%ADD23RoundRect,0.225000X-0.225000X-0.375000X0.225000X-0.375000X0.225000X0.375000X-0.225000X0.375000X0*%
%ADD24RoundRect,0.140000X0.170000X-0.140000X0.170000X0.140000X-0.170000X0.140000X-0.170000X-0.140000X0*%
G04 APERTURE END LIST*
%TO.C,JP2*%
G36*
X131250000Y-94495000D02*
G01*
X132750000Y-94495000D01*
X132750000Y-96945000D01*
X131250000Y-96945000D01*
X131250000Y-94495000D01*
G37*
%TO.C,JP1*%
G36*
X131250000Y-104055000D02*
G01*
X132750000Y-104055000D01*
X132750000Y-106505000D01*
X131250000Y-106505000D01*
X131250000Y-104055000D01*
G37*
%TD*%
D10*
%TO.C,J2*%
X117300000Y-114000000D03*
D11*
X119840000Y-114000000D03*
X122380000Y-114000000D03*
X124920000Y-114000000D03*
X127460000Y-114000000D03*
X130000000Y-114000000D03*
%TD*%
D12*
%TO.C,R4*%
X118980000Y-108000000D03*
X120000000Y-108000000D03*
%TD*%
D13*
%TO.C,U1*%
X114925000Y-101437500D03*
X115575000Y-101437500D03*
X116225000Y-101437500D03*
X116875000Y-101437500D03*
X116875000Y-98562500D03*
X116225000Y-98562500D03*
X115575000Y-98562500D03*
X114925000Y-98562500D03*
D14*
X115900000Y-100000000D03*
%TD*%
D15*
%TO.C,R2*%
X126677500Y-107000000D03*
X128502500Y-107000000D03*
%TD*%
D16*
%TO.C,JP2*%
X132000000Y-96445000D03*
D17*
X132000000Y-94995000D03*
%TD*%
D18*
%TO.C,C3*%
X128445000Y-110500000D03*
X129995000Y-110500000D03*
%TD*%
D15*
%TO.C,R1*%
X122177500Y-110500000D03*
X124002500Y-110500000D03*
%TD*%
D19*
%TO.C,D4*%
X124000000Y-100550000D03*
X124000000Y-98450000D03*
%TD*%
D20*
%TO.C,C1*%
X128040000Y-96500000D03*
X129000000Y-96500000D03*
%TD*%
D19*
%TO.C,D3*%
X120500000Y-100500000D03*
X120500000Y-98400000D03*
%TD*%
D10*
%TO.C,J3*%
X116380000Y-96000000D03*
D11*
X118920000Y-96000000D03*
X121460000Y-96000000D03*
X124000000Y-96000000D03*
%TD*%
D21*
%TO.C,D2*%
X124000000Y-103500000D03*
X120000000Y-103500000D03*
%TD*%
D16*
%TO.C,JP1*%
X132000000Y-106005000D03*
D17*
X132000000Y-104555000D03*
%TD*%
D22*
%TO.C,R3*%
X115500000Y-105510000D03*
X115500000Y-104490000D03*
%TD*%
D23*
%TO.C,D1*%
X115200000Y-110500000D03*
X118500000Y-110500000D03*
%TD*%
D13*
%TO.C,U2*%
X127925000Y-100937500D03*
X128575000Y-100937500D03*
X129225000Y-100937500D03*
X129875000Y-100937500D03*
X129875000Y-98062500D03*
X129225000Y-98062500D03*
X128575000Y-98062500D03*
X127925000Y-98062500D03*
D14*
X128900000Y-99500000D03*
%TD*%
D24*
%TO.C,C2*%
X129000000Y-103960000D03*
X129000000Y-103000000D03*
%TD*%
M02*
