%TF.GenerationSoftware,KiCad,Pcbnew,10.0.5*%
%TF.CreationDate,2026-10-08T21:47:21+01:00*%
%TF.ProjectId,LIN-Unit,4c494e2d-556e-4697-942e-6b696361645f,rev?*%
%TF.SameCoordinates,Original*%
%TF.FileFunction,Legend,Bot*%
%TF.FilePolarity,Positive*%
%FSLAX46Y46*%
G04 Gerber Fmt 4.6, Leading zero omitted, Abs format (unit mm)*
G04 Created by KiCad (PCBNEW 10.0.5) date 2026-10-08 21:47:21*
%MOMM*%
%LPD*%
G01*
G04 APERTURE LIST*
%ADD10C,0.120000*%
%ADD11C,0.200000*%
%ADD12C,0.450000*%
G04 APERTURE END LIST*
D10*
X116641429Y-98771331D02*
X116984286Y-98771331D01*
X116812857Y-98771331D02*
X116812857Y-98171331D01*
X116812857Y-98171331D02*
X116870000Y-98257045D01*
X116870000Y-98257045D02*
X116927143Y-98314188D01*
X116927143Y-98314188D02*
X116984286Y-98342760D01*
X116412857Y-98228474D02*
X116384285Y-98199902D01*
X116384285Y-98199902D02*
X116327143Y-98171331D01*
X116327143Y-98171331D02*
X116184285Y-98171331D01*
X116184285Y-98171331D02*
X116127143Y-98199902D01*
X116127143Y-98199902D02*
X116098571Y-98228474D01*
X116098571Y-98228474D02*
X116070000Y-98285617D01*
X116070000Y-98285617D02*
X116070000Y-98342760D01*
X116070000Y-98342760D02*
X116098571Y-98428474D01*
X116098571Y-98428474D02*
X116441428Y-98771331D01*
X116441428Y-98771331D02*
X116070000Y-98771331D01*
X115898571Y-98171331D02*
X115698571Y-98771331D01*
X115698571Y-98771331D02*
X115498571Y-98171331D01*
X118172857Y-111521331D02*
X117801429Y-111521331D01*
X117801429Y-111521331D02*
X118001429Y-111749902D01*
X118001429Y-111749902D02*
X117915714Y-111749902D01*
X117915714Y-111749902D02*
X117858572Y-111778474D01*
X117858572Y-111778474D02*
X117830000Y-111807045D01*
X117830000Y-111807045D02*
X117801429Y-111864188D01*
X117801429Y-111864188D02*
X117801429Y-112007045D01*
X117801429Y-112007045D02*
X117830000Y-112064188D01*
X117830000Y-112064188D02*
X117858572Y-112092760D01*
X117858572Y-112092760D02*
X117915714Y-112121331D01*
X117915714Y-112121331D02*
X118087143Y-112121331D01*
X118087143Y-112121331D02*
X118144286Y-112092760D01*
X118144286Y-112092760D02*
X118172857Y-112064188D01*
X117630000Y-111521331D02*
X117430000Y-112121331D01*
X117430000Y-112121331D02*
X117230000Y-111521331D01*
X117087142Y-111521331D02*
X116715714Y-111521331D01*
X116715714Y-111521331D02*
X116915714Y-111749902D01*
X116915714Y-111749902D02*
X116829999Y-111749902D01*
X116829999Y-111749902D02*
X116772857Y-111778474D01*
X116772857Y-111778474D02*
X116744285Y-111807045D01*
X116744285Y-111807045D02*
X116715714Y-111864188D01*
X116715714Y-111864188D02*
X116715714Y-112007045D01*
X116715714Y-112007045D02*
X116744285Y-112064188D01*
X116744285Y-112064188D02*
X116772857Y-112092760D01*
X116772857Y-112092760D02*
X116829999Y-112121331D01*
X116829999Y-112121331D02*
X117001428Y-112121331D01*
X117001428Y-112121331D02*
X117058571Y-112092760D01*
X117058571Y-112092760D02*
X117087142Y-112064188D01*
X119267142Y-98199902D02*
X119324285Y-98171331D01*
X119324285Y-98171331D02*
X119409999Y-98171331D01*
X119409999Y-98171331D02*
X119495713Y-98199902D01*
X119495713Y-98199902D02*
X119552856Y-98257045D01*
X119552856Y-98257045D02*
X119581427Y-98314188D01*
X119581427Y-98314188D02*
X119609999Y-98428474D01*
X119609999Y-98428474D02*
X119609999Y-98514188D01*
X119609999Y-98514188D02*
X119581427Y-98628474D01*
X119581427Y-98628474D02*
X119552856Y-98685617D01*
X119552856Y-98685617D02*
X119495713Y-98742760D01*
X119495713Y-98742760D02*
X119409999Y-98771331D01*
X119409999Y-98771331D02*
X119352856Y-98771331D01*
X119352856Y-98771331D02*
X119267142Y-98742760D01*
X119267142Y-98742760D02*
X119238570Y-98714188D01*
X119238570Y-98714188D02*
X119238570Y-98514188D01*
X119238570Y-98514188D02*
X119352856Y-98514188D01*
X118981427Y-98771331D02*
X118981427Y-98171331D01*
X118981427Y-98171331D02*
X118638570Y-98771331D01*
X118638570Y-98771331D02*
X118638570Y-98171331D01*
X118352856Y-98771331D02*
X118352856Y-98171331D01*
X118352856Y-98171331D02*
X118209999Y-98171331D01*
X118209999Y-98171331D02*
X118124285Y-98199902D01*
X118124285Y-98199902D02*
X118067142Y-98257045D01*
X118067142Y-98257045D02*
X118038571Y-98314188D01*
X118038571Y-98314188D02*
X118009999Y-98428474D01*
X118009999Y-98428474D02*
X118009999Y-98514188D01*
X118009999Y-98514188D02*
X118038571Y-98628474D01*
X118038571Y-98628474D02*
X118067142Y-98685617D01*
X118067142Y-98685617D02*
X118124285Y-98742760D01*
X118124285Y-98742760D02*
X118209999Y-98771331D01*
X118209999Y-98771331D02*
X118352856Y-98771331D01*
X120427142Y-111549902D02*
X120484285Y-111521331D01*
X120484285Y-111521331D02*
X120569999Y-111521331D01*
X120569999Y-111521331D02*
X120655713Y-111549902D01*
X120655713Y-111549902D02*
X120712856Y-111607045D01*
X120712856Y-111607045D02*
X120741427Y-111664188D01*
X120741427Y-111664188D02*
X120769999Y-111778474D01*
X120769999Y-111778474D02*
X120769999Y-111864188D01*
X120769999Y-111864188D02*
X120741427Y-111978474D01*
X120741427Y-111978474D02*
X120712856Y-112035617D01*
X120712856Y-112035617D02*
X120655713Y-112092760D01*
X120655713Y-112092760D02*
X120569999Y-112121331D01*
X120569999Y-112121331D02*
X120512856Y-112121331D01*
X120512856Y-112121331D02*
X120427142Y-112092760D01*
X120427142Y-112092760D02*
X120398570Y-112064188D01*
X120398570Y-112064188D02*
X120398570Y-111864188D01*
X120398570Y-111864188D02*
X120512856Y-111864188D01*
X120141427Y-112121331D02*
X120141427Y-111521331D01*
X120141427Y-111521331D02*
X119798570Y-112121331D01*
X119798570Y-112121331D02*
X119798570Y-111521331D01*
X119512856Y-112121331D02*
X119512856Y-111521331D01*
X119512856Y-111521331D02*
X119369999Y-111521331D01*
X119369999Y-111521331D02*
X119284285Y-111549902D01*
X119284285Y-111549902D02*
X119227142Y-111607045D01*
X119227142Y-111607045D02*
X119198571Y-111664188D01*
X119198571Y-111664188D02*
X119169999Y-111778474D01*
X119169999Y-111778474D02*
X119169999Y-111864188D01*
X119169999Y-111864188D02*
X119198571Y-111978474D01*
X119198571Y-111978474D02*
X119227142Y-112035617D01*
X119227142Y-112035617D02*
X119284285Y-112092760D01*
X119284285Y-112092760D02*
X119369999Y-112121331D01*
X119369999Y-112121331D02*
X119512856Y-112121331D01*
X121907142Y-98771331D02*
X122192856Y-98771331D01*
X122192856Y-98771331D02*
X122192856Y-98171331D01*
X121707142Y-98771331D02*
X121707142Y-98171331D01*
X121421428Y-98771331D02*
X121421428Y-98171331D01*
X121421428Y-98171331D02*
X121078571Y-98771331D01*
X121078571Y-98771331D02*
X121078571Y-98171331D01*
X120478572Y-98771331D02*
X120821429Y-98771331D01*
X120650000Y-98771331D02*
X120650000Y-98171331D01*
X120650000Y-98171331D02*
X120707143Y-98257045D01*
X120707143Y-98257045D02*
X120764286Y-98314188D01*
X120764286Y-98314188D02*
X120821429Y-98342760D01*
X123252857Y-111521331D02*
X122910000Y-111521331D01*
X123081428Y-112121331D02*
X123081428Y-111521331D01*
X122767142Y-111521331D02*
X122367142Y-112121331D01*
X122367142Y-111521331D02*
X122767142Y-112121331D01*
X121824285Y-112121331D02*
X122167142Y-112121331D01*
X121995713Y-112121331D02*
X121995713Y-111521331D01*
X121995713Y-111521331D02*
X122052856Y-111607045D01*
X122052856Y-111607045D02*
X122109999Y-111664188D01*
X122109999Y-111664188D02*
X122167142Y-111692760D01*
X124447142Y-98771331D02*
X124732856Y-98771331D01*
X124732856Y-98771331D02*
X124732856Y-98171331D01*
X124247142Y-98771331D02*
X124247142Y-98171331D01*
X123961428Y-98771331D02*
X123961428Y-98171331D01*
X123961428Y-98171331D02*
X123618571Y-98771331D01*
X123618571Y-98771331D02*
X123618571Y-98171331D01*
X123361429Y-98228474D02*
X123332857Y-98199902D01*
X123332857Y-98199902D02*
X123275715Y-98171331D01*
X123275715Y-98171331D02*
X123132857Y-98171331D01*
X123132857Y-98171331D02*
X123075715Y-98199902D01*
X123075715Y-98199902D02*
X123047143Y-98228474D01*
X123047143Y-98228474D02*
X123018572Y-98285617D01*
X123018572Y-98285617D02*
X123018572Y-98342760D01*
X123018572Y-98342760D02*
X123047143Y-98428474D01*
X123047143Y-98428474D02*
X123390000Y-98771331D01*
X123390000Y-98771331D02*
X123018572Y-98771331D01*
X125435714Y-112121331D02*
X125635714Y-111835617D01*
X125778571Y-112121331D02*
X125778571Y-111521331D01*
X125778571Y-111521331D02*
X125550000Y-111521331D01*
X125550000Y-111521331D02*
X125492857Y-111549902D01*
X125492857Y-111549902D02*
X125464286Y-111578474D01*
X125464286Y-111578474D02*
X125435714Y-111635617D01*
X125435714Y-111635617D02*
X125435714Y-111721331D01*
X125435714Y-111721331D02*
X125464286Y-111778474D01*
X125464286Y-111778474D02*
X125492857Y-111807045D01*
X125492857Y-111807045D02*
X125550000Y-111835617D01*
X125550000Y-111835617D02*
X125778571Y-111835617D01*
X125235714Y-111521331D02*
X124835714Y-112121331D01*
X124835714Y-111521331D02*
X125235714Y-112121331D01*
X124292857Y-112121331D02*
X124635714Y-112121331D01*
X124464285Y-112121331D02*
X124464285Y-111521331D01*
X124464285Y-111521331D02*
X124521428Y-111607045D01*
X124521428Y-111607045D02*
X124578571Y-111664188D01*
X124578571Y-111664188D02*
X124635714Y-111692760D01*
X128332857Y-111521331D02*
X127990000Y-111521331D01*
X128161428Y-112121331D02*
X128161428Y-111521331D01*
X127847142Y-111521331D02*
X127447142Y-112121331D01*
X127447142Y-111521331D02*
X127847142Y-112121331D01*
X127247142Y-111578474D02*
X127218570Y-111549902D01*
X127218570Y-111549902D02*
X127161428Y-111521331D01*
X127161428Y-111521331D02*
X127018570Y-111521331D01*
X127018570Y-111521331D02*
X126961428Y-111549902D01*
X126961428Y-111549902D02*
X126932856Y-111578474D01*
X126932856Y-111578474D02*
X126904285Y-111635617D01*
X126904285Y-111635617D02*
X126904285Y-111692760D01*
X126904285Y-111692760D02*
X126932856Y-111778474D01*
X126932856Y-111778474D02*
X127275713Y-112121331D01*
X127275713Y-112121331D02*
X126904285Y-112121331D01*
X132985714Y-103851331D02*
X132985714Y-104337045D01*
X132985714Y-104337045D02*
X132957143Y-104394188D01*
X132957143Y-104394188D02*
X132928572Y-104422760D01*
X132928572Y-104422760D02*
X132871429Y-104451331D01*
X132871429Y-104451331D02*
X132757143Y-104451331D01*
X132757143Y-104451331D02*
X132700000Y-104422760D01*
X132700000Y-104422760D02*
X132671429Y-104394188D01*
X132671429Y-104394188D02*
X132642857Y-104337045D01*
X132642857Y-104337045D02*
X132642857Y-103851331D01*
X132042858Y-104451331D02*
X132385715Y-104451331D01*
X132214286Y-104451331D02*
X132214286Y-103851331D01*
X132214286Y-103851331D02*
X132271429Y-103937045D01*
X132271429Y-103937045D02*
X132328572Y-103994188D01*
X132328572Y-103994188D02*
X132385715Y-104022760D01*
X131757143Y-104422760D02*
X131757143Y-104451331D01*
X131757143Y-104451331D02*
X131785714Y-104508474D01*
X131785714Y-104508474D02*
X131814286Y-104537045D01*
X131042857Y-103851331D02*
X131042857Y-104337045D01*
X131042857Y-104337045D02*
X131014286Y-104394188D01*
X131014286Y-104394188D02*
X130985715Y-104422760D01*
X130985715Y-104422760D02*
X130928572Y-104451331D01*
X130928572Y-104451331D02*
X130814286Y-104451331D01*
X130814286Y-104451331D02*
X130757143Y-104422760D01*
X130757143Y-104422760D02*
X130728572Y-104394188D01*
X130728572Y-104394188D02*
X130700000Y-104337045D01*
X130700000Y-104337045D02*
X130700000Y-103851331D01*
X130442858Y-103908474D02*
X130414286Y-103879902D01*
X130414286Y-103879902D02*
X130357144Y-103851331D01*
X130357144Y-103851331D02*
X130214286Y-103851331D01*
X130214286Y-103851331D02*
X130157144Y-103879902D01*
X130157144Y-103879902D02*
X130128572Y-103908474D01*
X130128572Y-103908474D02*
X130100001Y-103965617D01*
X130100001Y-103965617D02*
X130100001Y-104022760D01*
X130100001Y-104022760D02*
X130128572Y-104108474D01*
X130128572Y-104108474D02*
X130471429Y-104451331D01*
X130471429Y-104451331D02*
X130100001Y-104451331D01*
X129842857Y-104394188D02*
X129814286Y-104422760D01*
X129814286Y-104422760D02*
X129842857Y-104451331D01*
X129842857Y-104451331D02*
X129871429Y-104422760D01*
X129871429Y-104422760D02*
X129842857Y-104394188D01*
X129842857Y-104394188D02*
X129842857Y-104451331D01*
X129842857Y-104079902D02*
X129814286Y-104108474D01*
X129814286Y-104108474D02*
X129842857Y-104137045D01*
X129842857Y-104137045D02*
X129871429Y-104108474D01*
X129871429Y-104108474D02*
X129842857Y-104079902D01*
X129842857Y-104079902D02*
X129842857Y-104137045D01*
X129185715Y-103851331D02*
X128842858Y-103851331D01*
X129014286Y-104451331D02*
X129014286Y-103851331D01*
X128357143Y-104451331D02*
X128642857Y-104451331D01*
X128642857Y-104451331D02*
X128642857Y-103851331D01*
X128157143Y-104137045D02*
X127957143Y-104137045D01*
X127871429Y-104451331D02*
X128157143Y-104451331D01*
X128157143Y-104451331D02*
X128157143Y-103851331D01*
X128157143Y-103851331D02*
X127871429Y-103851331D01*
X127671429Y-103851331D02*
X127271429Y-103851331D01*
X127271429Y-103851331D02*
X127528572Y-104451331D01*
X127071429Y-103908474D02*
X127042857Y-103879902D01*
X127042857Y-103879902D02*
X126985715Y-103851331D01*
X126985715Y-103851331D02*
X126842857Y-103851331D01*
X126842857Y-103851331D02*
X126785715Y-103879902D01*
X126785715Y-103879902D02*
X126757143Y-103908474D01*
X126757143Y-103908474D02*
X126728572Y-103965617D01*
X126728572Y-103965617D02*
X126728572Y-104022760D01*
X126728572Y-104022760D02*
X126757143Y-104108474D01*
X126757143Y-104108474D02*
X127100000Y-104451331D01*
X127100000Y-104451331D02*
X126728572Y-104451331D01*
X126185714Y-103851331D02*
X126471428Y-103851331D01*
X126471428Y-103851331D02*
X126500000Y-104137045D01*
X126500000Y-104137045D02*
X126471428Y-104108474D01*
X126471428Y-104108474D02*
X126414286Y-104079902D01*
X126414286Y-104079902D02*
X126271428Y-104079902D01*
X126271428Y-104079902D02*
X126214286Y-104108474D01*
X126214286Y-104108474D02*
X126185714Y-104137045D01*
X126185714Y-104137045D02*
X126157143Y-104194188D01*
X126157143Y-104194188D02*
X126157143Y-104337045D01*
X126157143Y-104337045D02*
X126185714Y-104394188D01*
X126185714Y-104394188D02*
X126214286Y-104422760D01*
X126214286Y-104422760D02*
X126271428Y-104451331D01*
X126271428Y-104451331D02*
X126414286Y-104451331D01*
X126414286Y-104451331D02*
X126471428Y-104422760D01*
X126471428Y-104422760D02*
X126500000Y-104394188D01*
X125814285Y-104108474D02*
X125871428Y-104079902D01*
X125871428Y-104079902D02*
X125899999Y-104051331D01*
X125899999Y-104051331D02*
X125928571Y-103994188D01*
X125928571Y-103994188D02*
X125928571Y-103965617D01*
X125928571Y-103965617D02*
X125899999Y-103908474D01*
X125899999Y-103908474D02*
X125871428Y-103879902D01*
X125871428Y-103879902D02*
X125814285Y-103851331D01*
X125814285Y-103851331D02*
X125699999Y-103851331D01*
X125699999Y-103851331D02*
X125642857Y-103879902D01*
X125642857Y-103879902D02*
X125614285Y-103908474D01*
X125614285Y-103908474D02*
X125585714Y-103965617D01*
X125585714Y-103965617D02*
X125585714Y-103994188D01*
X125585714Y-103994188D02*
X125614285Y-104051331D01*
X125614285Y-104051331D02*
X125642857Y-104079902D01*
X125642857Y-104079902D02*
X125699999Y-104108474D01*
X125699999Y-104108474D02*
X125814285Y-104108474D01*
X125814285Y-104108474D02*
X125871428Y-104137045D01*
X125871428Y-104137045D02*
X125899999Y-104165617D01*
X125899999Y-104165617D02*
X125928571Y-104222760D01*
X125928571Y-104222760D02*
X125928571Y-104337045D01*
X125928571Y-104337045D02*
X125899999Y-104394188D01*
X125899999Y-104394188D02*
X125871428Y-104422760D01*
X125871428Y-104422760D02*
X125814285Y-104451331D01*
X125814285Y-104451331D02*
X125699999Y-104451331D01*
X125699999Y-104451331D02*
X125642857Y-104422760D01*
X125642857Y-104422760D02*
X125614285Y-104394188D01*
X125614285Y-104394188D02*
X125585714Y-104337045D01*
X125585714Y-104337045D02*
X125585714Y-104222760D01*
X125585714Y-104222760D02*
X125614285Y-104165617D01*
X125614285Y-104165617D02*
X125642857Y-104137045D01*
X125642857Y-104137045D02*
X125699999Y-104108474D01*
X125328570Y-104451331D02*
X125328570Y-103851331D01*
X125328570Y-103851331D02*
X125185713Y-103851331D01*
X125185713Y-103851331D02*
X125099999Y-103879902D01*
X125099999Y-103879902D02*
X125042856Y-103937045D01*
X125042856Y-103937045D02*
X125014285Y-103994188D01*
X125014285Y-103994188D02*
X124985713Y-104108474D01*
X124985713Y-104108474D02*
X124985713Y-104194188D01*
X124985713Y-104194188D02*
X125014285Y-104308474D01*
X125014285Y-104308474D02*
X125042856Y-104365617D01*
X125042856Y-104365617D02*
X125099999Y-104422760D01*
X125099999Y-104422760D02*
X125185713Y-104451331D01*
X125185713Y-104451331D02*
X125328570Y-104451331D01*
X133044285Y-103161331D02*
X133044285Y-102561331D01*
X133044285Y-102561331D02*
X132901428Y-102561331D01*
X132901428Y-102561331D02*
X132815714Y-102589902D01*
X132815714Y-102589902D02*
X132758571Y-102647045D01*
X132758571Y-102647045D02*
X132730000Y-102704188D01*
X132730000Y-102704188D02*
X132701428Y-102818474D01*
X132701428Y-102818474D02*
X132701428Y-102904188D01*
X132701428Y-102904188D02*
X132730000Y-103018474D01*
X132730000Y-103018474D02*
X132758571Y-103075617D01*
X132758571Y-103075617D02*
X132815714Y-103132760D01*
X132815714Y-103132760D02*
X132901428Y-103161331D01*
X132901428Y-103161331D02*
X133044285Y-103161331D01*
X132501428Y-102561331D02*
X132130000Y-102561331D01*
X132130000Y-102561331D02*
X132330000Y-102789902D01*
X132330000Y-102789902D02*
X132244285Y-102789902D01*
X132244285Y-102789902D02*
X132187143Y-102818474D01*
X132187143Y-102818474D02*
X132158571Y-102847045D01*
X132158571Y-102847045D02*
X132130000Y-102904188D01*
X132130000Y-102904188D02*
X132130000Y-103047045D01*
X132130000Y-103047045D02*
X132158571Y-103104188D01*
X132158571Y-103104188D02*
X132187143Y-103132760D01*
X132187143Y-103132760D02*
X132244285Y-103161331D01*
X132244285Y-103161331D02*
X132415714Y-103161331D01*
X132415714Y-103161331D02*
X132472857Y-103132760D01*
X132472857Y-103132760D02*
X132501428Y-103104188D01*
X131844285Y-103132760D02*
X131844285Y-103161331D01*
X131844285Y-103161331D02*
X131872856Y-103218474D01*
X131872856Y-103218474D02*
X131901428Y-103247045D01*
X131129999Y-103161331D02*
X131129999Y-102561331D01*
X131129999Y-102561331D02*
X130987142Y-102561331D01*
X130987142Y-102561331D02*
X130901428Y-102589902D01*
X130901428Y-102589902D02*
X130844285Y-102647045D01*
X130844285Y-102647045D02*
X130815714Y-102704188D01*
X130815714Y-102704188D02*
X130787142Y-102818474D01*
X130787142Y-102818474D02*
X130787142Y-102904188D01*
X130787142Y-102904188D02*
X130815714Y-103018474D01*
X130815714Y-103018474D02*
X130844285Y-103075617D01*
X130844285Y-103075617D02*
X130901428Y-103132760D01*
X130901428Y-103132760D02*
X130987142Y-103161331D01*
X130987142Y-103161331D02*
X131129999Y-103161331D01*
X130272857Y-102761331D02*
X130272857Y-103161331D01*
X130415714Y-102532760D02*
X130558571Y-102961331D01*
X130558571Y-102961331D02*
X130187142Y-102961331D01*
X129958570Y-103104188D02*
X129929999Y-103132760D01*
X129929999Y-103132760D02*
X129958570Y-103161331D01*
X129958570Y-103161331D02*
X129987142Y-103132760D01*
X129987142Y-103132760D02*
X129958570Y-103104188D01*
X129958570Y-103104188D02*
X129958570Y-103161331D01*
X129958570Y-102789902D02*
X129929999Y-102818474D01*
X129929999Y-102818474D02*
X129958570Y-102847045D01*
X129958570Y-102847045D02*
X129987142Y-102818474D01*
X129987142Y-102818474D02*
X129958570Y-102789902D01*
X129958570Y-102789902D02*
X129958570Y-102847045D01*
X129215713Y-103161331D02*
X129215713Y-102561331D01*
X129215713Y-102561331D02*
X128987142Y-102561331D01*
X128987142Y-102561331D02*
X128929999Y-102589902D01*
X128929999Y-102589902D02*
X128901428Y-102618474D01*
X128901428Y-102618474D02*
X128872856Y-102675617D01*
X128872856Y-102675617D02*
X128872856Y-102761331D01*
X128872856Y-102761331D02*
X128901428Y-102818474D01*
X128901428Y-102818474D02*
X128929999Y-102847045D01*
X128929999Y-102847045D02*
X128987142Y-102875617D01*
X128987142Y-102875617D02*
X129215713Y-102875617D01*
X128615713Y-102847045D02*
X128415713Y-102847045D01*
X128329999Y-103161331D02*
X128615713Y-103161331D01*
X128615713Y-103161331D02*
X128615713Y-102561331D01*
X128615713Y-102561331D02*
X128329999Y-102561331D01*
X128101428Y-103132760D02*
X128015714Y-103161331D01*
X128015714Y-103161331D02*
X127872856Y-103161331D01*
X127872856Y-103161331D02*
X127815714Y-103132760D01*
X127815714Y-103132760D02*
X127787142Y-103104188D01*
X127787142Y-103104188D02*
X127758571Y-103047045D01*
X127758571Y-103047045D02*
X127758571Y-102989902D01*
X127758571Y-102989902D02*
X127787142Y-102932760D01*
X127787142Y-102932760D02*
X127815714Y-102904188D01*
X127815714Y-102904188D02*
X127872856Y-102875617D01*
X127872856Y-102875617D02*
X127987142Y-102847045D01*
X127987142Y-102847045D02*
X128044285Y-102818474D01*
X128044285Y-102818474D02*
X128072856Y-102789902D01*
X128072856Y-102789902D02*
X128101428Y-102732760D01*
X128101428Y-102732760D02*
X128101428Y-102675617D01*
X128101428Y-102675617D02*
X128072856Y-102618474D01*
X128072856Y-102618474D02*
X128044285Y-102589902D01*
X128044285Y-102589902D02*
X127987142Y-102561331D01*
X127987142Y-102561331D02*
X127844285Y-102561331D01*
X127844285Y-102561331D02*
X127758571Y-102589902D01*
X127501427Y-103161331D02*
X127501427Y-102561331D01*
X127501427Y-102561331D02*
X127358570Y-102561331D01*
X127358570Y-102561331D02*
X127272856Y-102589902D01*
X127272856Y-102589902D02*
X127215713Y-102647045D01*
X127215713Y-102647045D02*
X127187142Y-102704188D01*
X127187142Y-102704188D02*
X127158570Y-102818474D01*
X127158570Y-102818474D02*
X127158570Y-102904188D01*
X127158570Y-102904188D02*
X127187142Y-103018474D01*
X127187142Y-103018474D02*
X127215713Y-103075617D01*
X127215713Y-103075617D02*
X127272856Y-103132760D01*
X127272856Y-103132760D02*
X127358570Y-103161331D01*
X127358570Y-103161331D02*
X127501427Y-103161331D01*
X126587142Y-103161331D02*
X126929999Y-103161331D01*
X126758570Y-103161331D02*
X126758570Y-102561331D01*
X126758570Y-102561331D02*
X126815713Y-102647045D01*
X126815713Y-102647045D02*
X126872856Y-102704188D01*
X126872856Y-102704188D02*
X126929999Y-102732760D01*
X126044284Y-103161331D02*
X126329998Y-103161331D01*
X126329998Y-103161331D02*
X126329998Y-102561331D01*
X125844284Y-103161331D02*
X125844284Y-102561331D01*
X125558570Y-103161331D02*
X125558570Y-102561331D01*
X125558570Y-102561331D02*
X125215713Y-103161331D01*
X125215713Y-103161331D02*
X125215713Y-102561331D01*
X132585714Y-95941331D02*
X132785714Y-95655617D01*
X132928571Y-95941331D02*
X132928571Y-95341331D01*
X132928571Y-95341331D02*
X132700000Y-95341331D01*
X132700000Y-95341331D02*
X132642857Y-95369902D01*
X132642857Y-95369902D02*
X132614286Y-95398474D01*
X132614286Y-95398474D02*
X132585714Y-95455617D01*
X132585714Y-95455617D02*
X132585714Y-95541331D01*
X132585714Y-95541331D02*
X132614286Y-95598474D01*
X132614286Y-95598474D02*
X132642857Y-95627045D01*
X132642857Y-95627045D02*
X132700000Y-95655617D01*
X132700000Y-95655617D02*
X132928571Y-95655617D01*
X132014286Y-95941331D02*
X132357143Y-95941331D01*
X132185714Y-95941331D02*
X132185714Y-95341331D01*
X132185714Y-95341331D02*
X132242857Y-95427045D01*
X132242857Y-95427045D02*
X132300000Y-95484188D01*
X132300000Y-95484188D02*
X132357143Y-95512760D01*
X131728571Y-95912760D02*
X131728571Y-95941331D01*
X131728571Y-95941331D02*
X131757142Y-95998474D01*
X131757142Y-95998474D02*
X131785714Y-96027045D01*
X130671428Y-95941331D02*
X130871428Y-95655617D01*
X131014285Y-95941331D02*
X131014285Y-95341331D01*
X131014285Y-95341331D02*
X130785714Y-95341331D01*
X130785714Y-95341331D02*
X130728571Y-95369902D01*
X130728571Y-95369902D02*
X130700000Y-95398474D01*
X130700000Y-95398474D02*
X130671428Y-95455617D01*
X130671428Y-95455617D02*
X130671428Y-95541331D01*
X130671428Y-95541331D02*
X130700000Y-95598474D01*
X130700000Y-95598474D02*
X130728571Y-95627045D01*
X130728571Y-95627045D02*
X130785714Y-95655617D01*
X130785714Y-95655617D02*
X131014285Y-95655617D01*
X130442857Y-95398474D02*
X130414285Y-95369902D01*
X130414285Y-95369902D02*
X130357143Y-95341331D01*
X130357143Y-95341331D02*
X130214285Y-95341331D01*
X130214285Y-95341331D02*
X130157143Y-95369902D01*
X130157143Y-95369902D02*
X130128571Y-95398474D01*
X130128571Y-95398474D02*
X130100000Y-95455617D01*
X130100000Y-95455617D02*
X130100000Y-95512760D01*
X130100000Y-95512760D02*
X130128571Y-95598474D01*
X130128571Y-95598474D02*
X130471428Y-95941331D01*
X130471428Y-95941331D02*
X130100000Y-95941331D01*
X129842856Y-95884188D02*
X129814285Y-95912760D01*
X129814285Y-95912760D02*
X129842856Y-95941331D01*
X129842856Y-95941331D02*
X129871428Y-95912760D01*
X129871428Y-95912760D02*
X129842856Y-95884188D01*
X129842856Y-95884188D02*
X129842856Y-95941331D01*
X129842856Y-95569902D02*
X129814285Y-95598474D01*
X129814285Y-95598474D02*
X129842856Y-95627045D01*
X129842856Y-95627045D02*
X129871428Y-95598474D01*
X129871428Y-95598474D02*
X129842856Y-95569902D01*
X129842856Y-95569902D02*
X129842856Y-95627045D01*
X128814285Y-95341331D02*
X129099999Y-95341331D01*
X129099999Y-95341331D02*
X129128571Y-95627045D01*
X129128571Y-95627045D02*
X129099999Y-95598474D01*
X129099999Y-95598474D02*
X129042857Y-95569902D01*
X129042857Y-95569902D02*
X128899999Y-95569902D01*
X128899999Y-95569902D02*
X128842857Y-95598474D01*
X128842857Y-95598474D02*
X128814285Y-95627045D01*
X128814285Y-95627045D02*
X128785714Y-95684188D01*
X128785714Y-95684188D02*
X128785714Y-95827045D01*
X128785714Y-95827045D02*
X128814285Y-95884188D01*
X128814285Y-95884188D02*
X128842857Y-95912760D01*
X128842857Y-95912760D02*
X128899999Y-95941331D01*
X128899999Y-95941331D02*
X129042857Y-95941331D01*
X129042857Y-95941331D02*
X129099999Y-95912760D01*
X129099999Y-95912760D02*
X129128571Y-95884188D01*
X128214285Y-95941331D02*
X128557142Y-95941331D01*
X128385713Y-95941331D02*
X128385713Y-95341331D01*
X128385713Y-95341331D02*
X128442856Y-95427045D01*
X128442856Y-95427045D02*
X128499999Y-95484188D01*
X128499999Y-95484188D02*
X128557142Y-95512760D01*
X127842856Y-95341331D02*
X127785713Y-95341331D01*
X127785713Y-95341331D02*
X127728570Y-95369902D01*
X127728570Y-95369902D02*
X127699999Y-95398474D01*
X127699999Y-95398474D02*
X127671427Y-95455617D01*
X127671427Y-95455617D02*
X127642856Y-95569902D01*
X127642856Y-95569902D02*
X127642856Y-95712760D01*
X127642856Y-95712760D02*
X127671427Y-95827045D01*
X127671427Y-95827045D02*
X127699999Y-95884188D01*
X127699999Y-95884188D02*
X127728570Y-95912760D01*
X127728570Y-95912760D02*
X127785713Y-95941331D01*
X127785713Y-95941331D02*
X127842856Y-95941331D01*
X127842856Y-95941331D02*
X127899999Y-95912760D01*
X127899999Y-95912760D02*
X127928570Y-95884188D01*
X127928570Y-95884188D02*
X127957141Y-95827045D01*
X127957141Y-95827045D02*
X127985713Y-95712760D01*
X127985713Y-95712760D02*
X127985713Y-95569902D01*
X127985713Y-95569902D02*
X127957141Y-95455617D01*
X127957141Y-95455617D02*
X127928570Y-95398474D01*
X127928570Y-95398474D02*
X127899999Y-95369902D01*
X127899999Y-95369902D02*
X127842856Y-95341331D01*
X127042855Y-95941331D02*
X127242855Y-95655617D01*
X127385712Y-95941331D02*
X127385712Y-95341331D01*
X127385712Y-95341331D02*
X127157141Y-95341331D01*
X127157141Y-95341331D02*
X127099998Y-95369902D01*
X127099998Y-95369902D02*
X127071427Y-95398474D01*
X127071427Y-95398474D02*
X127042855Y-95455617D01*
X127042855Y-95455617D02*
X127042855Y-95541331D01*
X127042855Y-95541331D02*
X127071427Y-95598474D01*
X127071427Y-95598474D02*
X127099998Y-95627045D01*
X127099998Y-95627045D02*
X127157141Y-95655617D01*
X127157141Y-95655617D02*
X127385712Y-95655617D01*
X133057143Y-101951331D02*
X133057143Y-101351331D01*
X133057143Y-101351331D02*
X132914286Y-101351331D01*
X132914286Y-101351331D02*
X132828572Y-101379902D01*
X132828572Y-101379902D02*
X132771429Y-101437045D01*
X132771429Y-101437045D02*
X132742858Y-101494188D01*
X132742858Y-101494188D02*
X132714286Y-101608474D01*
X132714286Y-101608474D02*
X132714286Y-101694188D01*
X132714286Y-101694188D02*
X132742858Y-101808474D01*
X132742858Y-101808474D02*
X132771429Y-101865617D01*
X132771429Y-101865617D02*
X132828572Y-101922760D01*
X132828572Y-101922760D02*
X132914286Y-101951331D01*
X132914286Y-101951331D02*
X133057143Y-101951331D01*
X132485715Y-101408474D02*
X132457143Y-101379902D01*
X132457143Y-101379902D02*
X132400001Y-101351331D01*
X132400001Y-101351331D02*
X132257143Y-101351331D01*
X132257143Y-101351331D02*
X132200001Y-101379902D01*
X132200001Y-101379902D02*
X132171429Y-101408474D01*
X132171429Y-101408474D02*
X132142858Y-101465617D01*
X132142858Y-101465617D02*
X132142858Y-101522760D01*
X132142858Y-101522760D02*
X132171429Y-101608474D01*
X132171429Y-101608474D02*
X132514286Y-101951331D01*
X132514286Y-101951331D02*
X132142858Y-101951331D01*
X131885714Y-101894188D02*
X131857143Y-101922760D01*
X131857143Y-101922760D02*
X131885714Y-101951331D01*
X131885714Y-101951331D02*
X131914286Y-101922760D01*
X131914286Y-101922760D02*
X131885714Y-101894188D01*
X131885714Y-101894188D02*
X131885714Y-101951331D01*
X131885714Y-101579902D02*
X131857143Y-101608474D01*
X131857143Y-101608474D02*
X131885714Y-101637045D01*
X131885714Y-101637045D02*
X131914286Y-101608474D01*
X131914286Y-101608474D02*
X131885714Y-101579902D01*
X131885714Y-101579902D02*
X131885714Y-101637045D01*
X131171429Y-101922760D02*
X131085715Y-101951331D01*
X131085715Y-101951331D02*
X130942857Y-101951331D01*
X130942857Y-101951331D02*
X130885715Y-101922760D01*
X130885715Y-101922760D02*
X130857143Y-101894188D01*
X130857143Y-101894188D02*
X130828572Y-101837045D01*
X130828572Y-101837045D02*
X130828572Y-101779902D01*
X130828572Y-101779902D02*
X130857143Y-101722760D01*
X130857143Y-101722760D02*
X130885715Y-101694188D01*
X130885715Y-101694188D02*
X130942857Y-101665617D01*
X130942857Y-101665617D02*
X131057143Y-101637045D01*
X131057143Y-101637045D02*
X131114286Y-101608474D01*
X131114286Y-101608474D02*
X131142857Y-101579902D01*
X131142857Y-101579902D02*
X131171429Y-101522760D01*
X131171429Y-101522760D02*
X131171429Y-101465617D01*
X131171429Y-101465617D02*
X131142857Y-101408474D01*
X131142857Y-101408474D02*
X131114286Y-101379902D01*
X131114286Y-101379902D02*
X131057143Y-101351331D01*
X131057143Y-101351331D02*
X130914286Y-101351331D01*
X130914286Y-101351331D02*
X130828572Y-101379902D01*
X130571428Y-101951331D02*
X130571428Y-101351331D01*
X130571428Y-101351331D02*
X130371428Y-101779902D01*
X130371428Y-101779902D02*
X130171428Y-101351331D01*
X130171428Y-101351331D02*
X130171428Y-101951331D01*
X129914286Y-101779902D02*
X129628572Y-101779902D01*
X129971429Y-101951331D02*
X129771429Y-101351331D01*
X129771429Y-101351331D02*
X129571429Y-101951331D01*
X129200000Y-101351331D02*
X129200000Y-101779902D01*
X129200000Y-101779902D02*
X129228571Y-101865617D01*
X129228571Y-101865617D02*
X129285714Y-101922760D01*
X129285714Y-101922760D02*
X129371428Y-101951331D01*
X129371428Y-101951331D02*
X129428571Y-101951331D01*
X128942857Y-101408474D02*
X128914285Y-101379902D01*
X128914285Y-101379902D02*
X128857143Y-101351331D01*
X128857143Y-101351331D02*
X128714285Y-101351331D01*
X128714285Y-101351331D02*
X128657143Y-101379902D01*
X128657143Y-101379902D02*
X128628571Y-101408474D01*
X128628571Y-101408474D02*
X128600000Y-101465617D01*
X128600000Y-101465617D02*
X128600000Y-101522760D01*
X128600000Y-101522760D02*
X128628571Y-101608474D01*
X128628571Y-101608474D02*
X128971428Y-101951331D01*
X128971428Y-101951331D02*
X128600000Y-101951331D01*
X128085714Y-101551331D02*
X128085714Y-101951331D01*
X128228571Y-101322760D02*
X128371428Y-101751331D01*
X128371428Y-101751331D02*
X127999999Y-101751331D01*
X127428570Y-101894188D02*
X127457142Y-101922760D01*
X127457142Y-101922760D02*
X127542856Y-101951331D01*
X127542856Y-101951331D02*
X127599999Y-101951331D01*
X127599999Y-101951331D02*
X127685713Y-101922760D01*
X127685713Y-101922760D02*
X127742856Y-101865617D01*
X127742856Y-101865617D02*
X127771427Y-101808474D01*
X127771427Y-101808474D02*
X127799999Y-101694188D01*
X127799999Y-101694188D02*
X127799999Y-101608474D01*
X127799999Y-101608474D02*
X127771427Y-101494188D01*
X127771427Y-101494188D02*
X127742856Y-101437045D01*
X127742856Y-101437045D02*
X127685713Y-101379902D01*
X127685713Y-101379902D02*
X127599999Y-101351331D01*
X127599999Y-101351331D02*
X127542856Y-101351331D01*
X127542856Y-101351331D02*
X127457142Y-101379902D01*
X127457142Y-101379902D02*
X127428570Y-101408474D01*
X127199999Y-101779902D02*
X126914285Y-101779902D01*
X127257142Y-101951331D02*
X127057142Y-101351331D01*
X127057142Y-101351331D02*
X126857142Y-101951331D01*
X130515714Y-112121331D02*
X130715714Y-111835617D01*
X130858571Y-112121331D02*
X130858571Y-111521331D01*
X130858571Y-111521331D02*
X130630000Y-111521331D01*
X130630000Y-111521331D02*
X130572857Y-111549902D01*
X130572857Y-111549902D02*
X130544286Y-111578474D01*
X130544286Y-111578474D02*
X130515714Y-111635617D01*
X130515714Y-111635617D02*
X130515714Y-111721331D01*
X130515714Y-111721331D02*
X130544286Y-111778474D01*
X130544286Y-111778474D02*
X130572857Y-111807045D01*
X130572857Y-111807045D02*
X130630000Y-111835617D01*
X130630000Y-111835617D02*
X130858571Y-111835617D01*
X130315714Y-111521331D02*
X129915714Y-112121331D01*
X129915714Y-111521331D02*
X130315714Y-112121331D01*
X129715714Y-111578474D02*
X129687142Y-111549902D01*
X129687142Y-111549902D02*
X129630000Y-111521331D01*
X129630000Y-111521331D02*
X129487142Y-111521331D01*
X129487142Y-111521331D02*
X129430000Y-111549902D01*
X129430000Y-111549902D02*
X129401428Y-111578474D01*
X129401428Y-111578474D02*
X129372857Y-111635617D01*
X129372857Y-111635617D02*
X129372857Y-111692760D01*
X129372857Y-111692760D02*
X129401428Y-111778474D01*
X129401428Y-111778474D02*
X129744285Y-112121331D01*
X129744285Y-112121331D02*
X129372857Y-112121331D01*
X132787142Y-98364188D02*
X132815714Y-98392760D01*
X132815714Y-98392760D02*
X132901428Y-98421331D01*
X132901428Y-98421331D02*
X132958571Y-98421331D01*
X132958571Y-98421331D02*
X133044285Y-98392760D01*
X133044285Y-98392760D02*
X133101428Y-98335617D01*
X133101428Y-98335617D02*
X133129999Y-98278474D01*
X133129999Y-98278474D02*
X133158571Y-98164188D01*
X133158571Y-98164188D02*
X133158571Y-98078474D01*
X133158571Y-98078474D02*
X133129999Y-97964188D01*
X133129999Y-97964188D02*
X133101428Y-97907045D01*
X133101428Y-97907045D02*
X133044285Y-97849902D01*
X133044285Y-97849902D02*
X132958571Y-97821331D01*
X132958571Y-97821331D02*
X132901428Y-97821331D01*
X132901428Y-97821331D02*
X132815714Y-97849902D01*
X132815714Y-97849902D02*
X132787142Y-97878474D01*
X132215714Y-98421331D02*
X132558571Y-98421331D01*
X132387142Y-98421331D02*
X132387142Y-97821331D01*
X132387142Y-97821331D02*
X132444285Y-97907045D01*
X132444285Y-97907045D02*
X132501428Y-97964188D01*
X132501428Y-97964188D02*
X132558571Y-97992760D01*
X131929999Y-98392760D02*
X131929999Y-98421331D01*
X131929999Y-98421331D02*
X131958570Y-98478474D01*
X131958570Y-98478474D02*
X131987142Y-98507045D01*
X130872856Y-98364188D02*
X130901428Y-98392760D01*
X130901428Y-98392760D02*
X130987142Y-98421331D01*
X130987142Y-98421331D02*
X131044285Y-98421331D01*
X131044285Y-98421331D02*
X131129999Y-98392760D01*
X131129999Y-98392760D02*
X131187142Y-98335617D01*
X131187142Y-98335617D02*
X131215713Y-98278474D01*
X131215713Y-98278474D02*
X131244285Y-98164188D01*
X131244285Y-98164188D02*
X131244285Y-98078474D01*
X131244285Y-98078474D02*
X131215713Y-97964188D01*
X131215713Y-97964188D02*
X131187142Y-97907045D01*
X131187142Y-97907045D02*
X131129999Y-97849902D01*
X131129999Y-97849902D02*
X131044285Y-97821331D01*
X131044285Y-97821331D02*
X130987142Y-97821331D01*
X130987142Y-97821331D02*
X130901428Y-97849902D01*
X130901428Y-97849902D02*
X130872856Y-97878474D01*
X130644285Y-97878474D02*
X130615713Y-97849902D01*
X130615713Y-97849902D02*
X130558571Y-97821331D01*
X130558571Y-97821331D02*
X130415713Y-97821331D01*
X130415713Y-97821331D02*
X130358571Y-97849902D01*
X130358571Y-97849902D02*
X130329999Y-97878474D01*
X130329999Y-97878474D02*
X130301428Y-97935617D01*
X130301428Y-97935617D02*
X130301428Y-97992760D01*
X130301428Y-97992760D02*
X130329999Y-98078474D01*
X130329999Y-98078474D02*
X130672856Y-98421331D01*
X130672856Y-98421331D02*
X130301428Y-98421331D01*
X130044284Y-98364188D02*
X130015713Y-98392760D01*
X130015713Y-98392760D02*
X130044284Y-98421331D01*
X130044284Y-98421331D02*
X130072856Y-98392760D01*
X130072856Y-98392760D02*
X130044284Y-98364188D01*
X130044284Y-98364188D02*
X130044284Y-98421331D01*
X130044284Y-98049902D02*
X130015713Y-98078474D01*
X130015713Y-98078474D02*
X130044284Y-98107045D01*
X130044284Y-98107045D02*
X130072856Y-98078474D01*
X130072856Y-98078474D02*
X130044284Y-98049902D01*
X130044284Y-98049902D02*
X130044284Y-98107045D01*
X128987142Y-98421331D02*
X129329999Y-98421331D01*
X129158570Y-98421331D02*
X129158570Y-97821331D01*
X129158570Y-97821331D02*
X129215713Y-97907045D01*
X129215713Y-97907045D02*
X129272856Y-97964188D01*
X129272856Y-97964188D02*
X129329999Y-97992760D01*
X128615713Y-97821331D02*
X128558570Y-97821331D01*
X128558570Y-97821331D02*
X128501427Y-97849902D01*
X128501427Y-97849902D02*
X128472856Y-97878474D01*
X128472856Y-97878474D02*
X128444284Y-97935617D01*
X128444284Y-97935617D02*
X128415713Y-98049902D01*
X128415713Y-98049902D02*
X128415713Y-98192760D01*
X128415713Y-98192760D02*
X128444284Y-98307045D01*
X128444284Y-98307045D02*
X128472856Y-98364188D01*
X128472856Y-98364188D02*
X128501427Y-98392760D01*
X128501427Y-98392760D02*
X128558570Y-98421331D01*
X128558570Y-98421331D02*
X128615713Y-98421331D01*
X128615713Y-98421331D02*
X128672856Y-98392760D01*
X128672856Y-98392760D02*
X128701427Y-98364188D01*
X128701427Y-98364188D02*
X128729998Y-98307045D01*
X128729998Y-98307045D02*
X128758570Y-98192760D01*
X128758570Y-98192760D02*
X128758570Y-98049902D01*
X128758570Y-98049902D02*
X128729998Y-97935617D01*
X128729998Y-97935617D02*
X128701427Y-97878474D01*
X128701427Y-97878474D02*
X128672856Y-97849902D01*
X128672856Y-97849902D02*
X128615713Y-97821331D01*
X128044284Y-97821331D02*
X127987141Y-97821331D01*
X127987141Y-97821331D02*
X127929998Y-97849902D01*
X127929998Y-97849902D02*
X127901427Y-97878474D01*
X127901427Y-97878474D02*
X127872855Y-97935617D01*
X127872855Y-97935617D02*
X127844284Y-98049902D01*
X127844284Y-98049902D02*
X127844284Y-98192760D01*
X127844284Y-98192760D02*
X127872855Y-98307045D01*
X127872855Y-98307045D02*
X127901427Y-98364188D01*
X127901427Y-98364188D02*
X127929998Y-98392760D01*
X127929998Y-98392760D02*
X127987141Y-98421331D01*
X127987141Y-98421331D02*
X128044284Y-98421331D01*
X128044284Y-98421331D02*
X128101427Y-98392760D01*
X128101427Y-98392760D02*
X128129998Y-98364188D01*
X128129998Y-98364188D02*
X128158569Y-98307045D01*
X128158569Y-98307045D02*
X128187141Y-98192760D01*
X128187141Y-98192760D02*
X128187141Y-98049902D01*
X128187141Y-98049902D02*
X128158569Y-97935617D01*
X128158569Y-97935617D02*
X128129998Y-97878474D01*
X128129998Y-97878474D02*
X128101427Y-97849902D01*
X128101427Y-97849902D02*
X128044284Y-97821331D01*
X127587140Y-98021331D02*
X127587140Y-98421331D01*
X127587140Y-98078474D02*
X127558569Y-98049902D01*
X127558569Y-98049902D02*
X127501426Y-98021331D01*
X127501426Y-98021331D02*
X127415712Y-98021331D01*
X127415712Y-98021331D02*
X127358569Y-98049902D01*
X127358569Y-98049902D02*
X127329998Y-98107045D01*
X127329998Y-98107045D02*
X127329998Y-98421331D01*
X132742857Y-97171331D02*
X132942857Y-96885617D01*
X133085714Y-97171331D02*
X133085714Y-96571331D01*
X133085714Y-96571331D02*
X132857143Y-96571331D01*
X132857143Y-96571331D02*
X132800000Y-96599902D01*
X132800000Y-96599902D02*
X132771429Y-96628474D01*
X132771429Y-96628474D02*
X132742857Y-96685617D01*
X132742857Y-96685617D02*
X132742857Y-96771331D01*
X132742857Y-96771331D02*
X132771429Y-96828474D01*
X132771429Y-96828474D02*
X132800000Y-96857045D01*
X132800000Y-96857045D02*
X132857143Y-96885617D01*
X132857143Y-96885617D02*
X133085714Y-96885617D01*
X132542857Y-96571331D02*
X132171429Y-96571331D01*
X132171429Y-96571331D02*
X132371429Y-96799902D01*
X132371429Y-96799902D02*
X132285714Y-96799902D01*
X132285714Y-96799902D02*
X132228572Y-96828474D01*
X132228572Y-96828474D02*
X132200000Y-96857045D01*
X132200000Y-96857045D02*
X132171429Y-96914188D01*
X132171429Y-96914188D02*
X132171429Y-97057045D01*
X132171429Y-97057045D02*
X132200000Y-97114188D01*
X132200000Y-97114188D02*
X132228572Y-97142760D01*
X132228572Y-97142760D02*
X132285714Y-97171331D01*
X132285714Y-97171331D02*
X132457143Y-97171331D01*
X132457143Y-97171331D02*
X132514286Y-97142760D01*
X132514286Y-97142760D02*
X132542857Y-97114188D01*
X131885714Y-97142760D02*
X131885714Y-97171331D01*
X131885714Y-97171331D02*
X131914285Y-97228474D01*
X131914285Y-97228474D02*
X131942857Y-97257045D01*
X130828571Y-97171331D02*
X131028571Y-96885617D01*
X131171428Y-97171331D02*
X131171428Y-96571331D01*
X131171428Y-96571331D02*
X130942857Y-96571331D01*
X130942857Y-96571331D02*
X130885714Y-96599902D01*
X130885714Y-96599902D02*
X130857143Y-96628474D01*
X130857143Y-96628474D02*
X130828571Y-96685617D01*
X130828571Y-96685617D02*
X130828571Y-96771331D01*
X130828571Y-96771331D02*
X130857143Y-96828474D01*
X130857143Y-96828474D02*
X130885714Y-96857045D01*
X130885714Y-96857045D02*
X130942857Y-96885617D01*
X130942857Y-96885617D02*
X131171428Y-96885617D01*
X130314286Y-96771331D02*
X130314286Y-97171331D01*
X130457143Y-96542760D02*
X130600000Y-96971331D01*
X130600000Y-96971331D02*
X130228571Y-96971331D01*
X129999999Y-97114188D02*
X129971428Y-97142760D01*
X129971428Y-97142760D02*
X129999999Y-97171331D01*
X129999999Y-97171331D02*
X130028571Y-97142760D01*
X130028571Y-97142760D02*
X129999999Y-97114188D01*
X129999999Y-97114188D02*
X129999999Y-97171331D01*
X129999999Y-96799902D02*
X129971428Y-96828474D01*
X129971428Y-96828474D02*
X129999999Y-96857045D01*
X129999999Y-96857045D02*
X130028571Y-96828474D01*
X130028571Y-96828474D02*
X129999999Y-96799902D01*
X129999999Y-96799902D02*
X129999999Y-96857045D01*
X128942857Y-97171331D02*
X129285714Y-97171331D01*
X129114285Y-97171331D02*
X129114285Y-96571331D01*
X129114285Y-96571331D02*
X129171428Y-96657045D01*
X129171428Y-96657045D02*
X129228571Y-96714188D01*
X129228571Y-96714188D02*
X129285714Y-96742760D01*
X128571428Y-96571331D02*
X128514285Y-96571331D01*
X128514285Y-96571331D02*
X128457142Y-96599902D01*
X128457142Y-96599902D02*
X128428571Y-96628474D01*
X128428571Y-96628474D02*
X128399999Y-96685617D01*
X128399999Y-96685617D02*
X128371428Y-96799902D01*
X128371428Y-96799902D02*
X128371428Y-96942760D01*
X128371428Y-96942760D02*
X128399999Y-97057045D01*
X128399999Y-97057045D02*
X128428571Y-97114188D01*
X128428571Y-97114188D02*
X128457142Y-97142760D01*
X128457142Y-97142760D02*
X128514285Y-97171331D01*
X128514285Y-97171331D02*
X128571428Y-97171331D01*
X128571428Y-97171331D02*
X128628571Y-97142760D01*
X128628571Y-97142760D02*
X128657142Y-97114188D01*
X128657142Y-97114188D02*
X128685713Y-97057045D01*
X128685713Y-97057045D02*
X128714285Y-96942760D01*
X128714285Y-96942760D02*
X128714285Y-96799902D01*
X128714285Y-96799902D02*
X128685713Y-96685617D01*
X128685713Y-96685617D02*
X128657142Y-96628474D01*
X128657142Y-96628474D02*
X128628571Y-96599902D01*
X128628571Y-96599902D02*
X128571428Y-96571331D01*
X128114284Y-97171331D02*
X128114284Y-96571331D01*
X128057142Y-96942760D02*
X127885713Y-97171331D01*
X127885713Y-96771331D02*
X128114284Y-96999902D01*
X133057143Y-99581331D02*
X133057143Y-98981331D01*
X133057143Y-98981331D02*
X132914286Y-98981331D01*
X132914286Y-98981331D02*
X132828572Y-99009902D01*
X132828572Y-99009902D02*
X132771429Y-99067045D01*
X132771429Y-99067045D02*
X132742858Y-99124188D01*
X132742858Y-99124188D02*
X132714286Y-99238474D01*
X132714286Y-99238474D02*
X132714286Y-99324188D01*
X132714286Y-99324188D02*
X132742858Y-99438474D01*
X132742858Y-99438474D02*
X132771429Y-99495617D01*
X132771429Y-99495617D02*
X132828572Y-99552760D01*
X132828572Y-99552760D02*
X132914286Y-99581331D01*
X132914286Y-99581331D02*
X133057143Y-99581331D01*
X132142858Y-99581331D02*
X132485715Y-99581331D01*
X132314286Y-99581331D02*
X132314286Y-98981331D01*
X132314286Y-98981331D02*
X132371429Y-99067045D01*
X132371429Y-99067045D02*
X132428572Y-99124188D01*
X132428572Y-99124188D02*
X132485715Y-99152760D01*
X131885714Y-99524188D02*
X131857143Y-99552760D01*
X131857143Y-99552760D02*
X131885714Y-99581331D01*
X131885714Y-99581331D02*
X131914286Y-99552760D01*
X131914286Y-99552760D02*
X131885714Y-99524188D01*
X131885714Y-99524188D02*
X131885714Y-99581331D01*
X131885714Y-99209902D02*
X131857143Y-99238474D01*
X131857143Y-99238474D02*
X131885714Y-99267045D01*
X131885714Y-99267045D02*
X131914286Y-99238474D01*
X131914286Y-99238474D02*
X131885714Y-99209902D01*
X131885714Y-99209902D02*
X131885714Y-99267045D01*
X130828572Y-99581331D02*
X131171429Y-99581331D01*
X131000000Y-99581331D02*
X131000000Y-98981331D01*
X131000000Y-98981331D02*
X131057143Y-99067045D01*
X131057143Y-99067045D02*
X131114286Y-99124188D01*
X131114286Y-99124188D02*
X131171429Y-99152760D01*
X130571428Y-99581331D02*
X130571428Y-98981331D01*
X130571428Y-98981331D02*
X130228571Y-99581331D01*
X130228571Y-99581331D02*
X130228571Y-98981331D01*
X129685715Y-99181331D02*
X129685715Y-99581331D01*
X129828572Y-98952760D02*
X129971429Y-99381331D01*
X129971429Y-99381331D02*
X129600000Y-99381331D01*
X129057143Y-99581331D02*
X129400000Y-99581331D01*
X129228571Y-99581331D02*
X129228571Y-98981331D01*
X129228571Y-98981331D02*
X129285714Y-99067045D01*
X129285714Y-99067045D02*
X129342857Y-99124188D01*
X129342857Y-99124188D02*
X129400000Y-99152760D01*
X128542857Y-99181331D02*
X128542857Y-99581331D01*
X128685714Y-98952760D02*
X128828571Y-99381331D01*
X128828571Y-99381331D02*
X128457142Y-99381331D01*
X128142856Y-99238474D02*
X128199999Y-99209902D01*
X128199999Y-99209902D02*
X128228570Y-99181331D01*
X128228570Y-99181331D02*
X128257142Y-99124188D01*
X128257142Y-99124188D02*
X128257142Y-99095617D01*
X128257142Y-99095617D02*
X128228570Y-99038474D01*
X128228570Y-99038474D02*
X128199999Y-99009902D01*
X128199999Y-99009902D02*
X128142856Y-98981331D01*
X128142856Y-98981331D02*
X128028570Y-98981331D01*
X128028570Y-98981331D02*
X127971428Y-99009902D01*
X127971428Y-99009902D02*
X127942856Y-99038474D01*
X127942856Y-99038474D02*
X127914285Y-99095617D01*
X127914285Y-99095617D02*
X127914285Y-99124188D01*
X127914285Y-99124188D02*
X127942856Y-99181331D01*
X127942856Y-99181331D02*
X127971428Y-99209902D01*
X127971428Y-99209902D02*
X128028570Y-99238474D01*
X128028570Y-99238474D02*
X128142856Y-99238474D01*
X128142856Y-99238474D02*
X128199999Y-99267045D01*
X128199999Y-99267045D02*
X128228570Y-99295617D01*
X128228570Y-99295617D02*
X128257142Y-99352760D01*
X128257142Y-99352760D02*
X128257142Y-99467045D01*
X128257142Y-99467045D02*
X128228570Y-99524188D01*
X128228570Y-99524188D02*
X128199999Y-99552760D01*
X128199999Y-99552760D02*
X128142856Y-99581331D01*
X128142856Y-99581331D02*
X128028570Y-99581331D01*
X128028570Y-99581331D02*
X127971428Y-99552760D01*
X127971428Y-99552760D02*
X127942856Y-99524188D01*
X127942856Y-99524188D02*
X127914285Y-99467045D01*
X127914285Y-99467045D02*
X127914285Y-99352760D01*
X127914285Y-99352760D02*
X127942856Y-99295617D01*
X127942856Y-99295617D02*
X127971428Y-99267045D01*
X127971428Y-99267045D02*
X128028570Y-99238474D01*
X132785714Y-100714188D02*
X132814286Y-100742760D01*
X132814286Y-100742760D02*
X132900000Y-100771331D01*
X132900000Y-100771331D02*
X132957143Y-100771331D01*
X132957143Y-100771331D02*
X133042857Y-100742760D01*
X133042857Y-100742760D02*
X133100000Y-100685617D01*
X133100000Y-100685617D02*
X133128571Y-100628474D01*
X133128571Y-100628474D02*
X133157143Y-100514188D01*
X133157143Y-100514188D02*
X133157143Y-100428474D01*
X133157143Y-100428474D02*
X133128571Y-100314188D01*
X133128571Y-100314188D02*
X133100000Y-100257045D01*
X133100000Y-100257045D02*
X133042857Y-100199902D01*
X133042857Y-100199902D02*
X132957143Y-100171331D01*
X132957143Y-100171331D02*
X132900000Y-100171331D01*
X132900000Y-100171331D02*
X132814286Y-100199902D01*
X132814286Y-100199902D02*
X132785714Y-100228474D01*
X132585714Y-100171331D02*
X132214286Y-100171331D01*
X132214286Y-100171331D02*
X132414286Y-100399902D01*
X132414286Y-100399902D02*
X132328571Y-100399902D01*
X132328571Y-100399902D02*
X132271429Y-100428474D01*
X132271429Y-100428474D02*
X132242857Y-100457045D01*
X132242857Y-100457045D02*
X132214286Y-100514188D01*
X132214286Y-100514188D02*
X132214286Y-100657045D01*
X132214286Y-100657045D02*
X132242857Y-100714188D01*
X132242857Y-100714188D02*
X132271429Y-100742760D01*
X132271429Y-100742760D02*
X132328571Y-100771331D01*
X132328571Y-100771331D02*
X132500000Y-100771331D01*
X132500000Y-100771331D02*
X132557143Y-100742760D01*
X132557143Y-100742760D02*
X132585714Y-100714188D01*
X131957142Y-100714188D02*
X131928571Y-100742760D01*
X131928571Y-100742760D02*
X131957142Y-100771331D01*
X131957142Y-100771331D02*
X131985714Y-100742760D01*
X131985714Y-100742760D02*
X131957142Y-100714188D01*
X131957142Y-100714188D02*
X131957142Y-100771331D01*
X131957142Y-100399902D02*
X131928571Y-100428474D01*
X131928571Y-100428474D02*
X131957142Y-100457045D01*
X131957142Y-100457045D02*
X131985714Y-100428474D01*
X131985714Y-100428474D02*
X131957142Y-100399902D01*
X131957142Y-100399902D02*
X131957142Y-100457045D01*
X130900000Y-100771331D02*
X131242857Y-100771331D01*
X131071428Y-100771331D02*
X131071428Y-100171331D01*
X131071428Y-100171331D02*
X131128571Y-100257045D01*
X131128571Y-100257045D02*
X131185714Y-100314188D01*
X131185714Y-100314188D02*
X131242857Y-100342760D01*
X130385714Y-100371331D02*
X130385714Y-100771331D01*
X130642856Y-100371331D02*
X130642856Y-100685617D01*
X130642856Y-100685617D02*
X130614285Y-100742760D01*
X130614285Y-100742760D02*
X130557142Y-100771331D01*
X130557142Y-100771331D02*
X130471428Y-100771331D01*
X130471428Y-100771331D02*
X130414285Y-100742760D01*
X130414285Y-100742760D02*
X130385714Y-100714188D01*
X129899999Y-100457045D02*
X130099999Y-100457045D01*
X130099999Y-100771331D02*
X130099999Y-100171331D01*
X130099999Y-100171331D02*
X129814285Y-100171331D01*
D11*
X125407142Y-110059695D02*
X125407142Y-110707314D01*
X125407142Y-110707314D02*
X125369047Y-110783504D01*
X125369047Y-110783504D02*
X125330952Y-110821600D01*
X125330952Y-110821600D02*
X125254761Y-110859695D01*
X125254761Y-110859695D02*
X125102380Y-110859695D01*
X125102380Y-110859695D02*
X125026190Y-110821600D01*
X125026190Y-110821600D02*
X124988095Y-110783504D01*
X124988095Y-110783504D02*
X124949999Y-110707314D01*
X124949999Y-110707314D02*
X124949999Y-110059695D01*
X124607143Y-110631123D02*
X124226190Y-110631123D01*
X124683333Y-110859695D02*
X124416666Y-110059695D01*
X124416666Y-110059695D02*
X124150000Y-110859695D01*
X123426190Y-110859695D02*
X123692857Y-110478742D01*
X123883333Y-110859695D02*
X123883333Y-110059695D01*
X123883333Y-110059695D02*
X123578571Y-110059695D01*
X123578571Y-110059695D02*
X123502381Y-110097790D01*
X123502381Y-110097790D02*
X123464286Y-110135885D01*
X123464286Y-110135885D02*
X123426190Y-110212076D01*
X123426190Y-110212076D02*
X123426190Y-110326361D01*
X123426190Y-110326361D02*
X123464286Y-110402552D01*
X123464286Y-110402552D02*
X123502381Y-110440647D01*
X123502381Y-110440647D02*
X123578571Y-110478742D01*
X123578571Y-110478742D02*
X123883333Y-110478742D01*
X123197619Y-110059695D02*
X122740476Y-110059695D01*
X122969048Y-110859695D02*
X122969048Y-110059695D01*
X122054762Y-110859695D02*
X122511905Y-110859695D01*
X122283333Y-110859695D02*
X122283333Y-110059695D01*
X122283333Y-110059695D02*
X122359524Y-110173980D01*
X122359524Y-110173980D02*
X122435714Y-110250171D01*
X122435714Y-110250171D02*
X122511905Y-110288266D01*
X130307142Y-110059695D02*
X130307142Y-110707314D01*
X130307142Y-110707314D02*
X130269047Y-110783504D01*
X130269047Y-110783504D02*
X130230952Y-110821600D01*
X130230952Y-110821600D02*
X130154761Y-110859695D01*
X130154761Y-110859695D02*
X130002380Y-110859695D01*
X130002380Y-110859695D02*
X129926190Y-110821600D01*
X129926190Y-110821600D02*
X129888095Y-110783504D01*
X129888095Y-110783504D02*
X129849999Y-110707314D01*
X129849999Y-110707314D02*
X129849999Y-110059695D01*
X129507143Y-110631123D02*
X129126190Y-110631123D01*
X129583333Y-110859695D02*
X129316666Y-110059695D01*
X129316666Y-110059695D02*
X129050000Y-110859695D01*
X128326190Y-110859695D02*
X128592857Y-110478742D01*
X128783333Y-110859695D02*
X128783333Y-110059695D01*
X128783333Y-110059695D02*
X128478571Y-110059695D01*
X128478571Y-110059695D02*
X128402381Y-110097790D01*
X128402381Y-110097790D02*
X128364286Y-110135885D01*
X128364286Y-110135885D02*
X128326190Y-110212076D01*
X128326190Y-110212076D02*
X128326190Y-110326361D01*
X128326190Y-110326361D02*
X128364286Y-110402552D01*
X128364286Y-110402552D02*
X128402381Y-110440647D01*
X128402381Y-110440647D02*
X128478571Y-110478742D01*
X128478571Y-110478742D02*
X128783333Y-110478742D01*
X128097619Y-110059695D02*
X127640476Y-110059695D01*
X127869048Y-110859695D02*
X127869048Y-110059695D01*
X127411905Y-110135885D02*
X127373809Y-110097790D01*
X127373809Y-110097790D02*
X127297619Y-110059695D01*
X127297619Y-110059695D02*
X127107143Y-110059695D01*
X127107143Y-110059695D02*
X127030952Y-110097790D01*
X127030952Y-110097790D02*
X126992857Y-110135885D01*
X126992857Y-110135885D02*
X126954762Y-110212076D01*
X126954762Y-110212076D02*
X126954762Y-110288266D01*
X126954762Y-110288266D02*
X126992857Y-110402552D01*
X126992857Y-110402552D02*
X127450000Y-110859695D01*
X127450000Y-110859695D02*
X126954762Y-110859695D01*
X132380952Y-109452219D02*
X132857142Y-109452219D01*
X132857142Y-109452219D02*
X132857142Y-108452219D01*
X132047618Y-109452219D02*
X132047618Y-108452219D01*
X131571428Y-109452219D02*
X131571428Y-108452219D01*
X131571428Y-108452219D02*
X131000000Y-109452219D01*
X131000000Y-109452219D02*
X131000000Y-108452219D01*
X130476190Y-109404600D02*
X130476190Y-109452219D01*
X130476190Y-109452219D02*
X130523809Y-109547457D01*
X130523809Y-109547457D02*
X130571428Y-109595076D01*
X129285714Y-109452219D02*
X129285714Y-108452219D01*
X128714286Y-109452219D02*
X129142857Y-108880790D01*
X128714286Y-108452219D02*
X129285714Y-109023647D01*
X128285714Y-109071266D02*
X127523810Y-109071266D01*
X126571429Y-109452219D02*
X127047619Y-109452219D01*
X127047619Y-109452219D02*
X127047619Y-108452219D01*
X126238095Y-109452219D02*
X126238095Y-108785552D01*
X126238095Y-108452219D02*
X126285714Y-108499838D01*
X126285714Y-108499838D02*
X126238095Y-108547457D01*
X126238095Y-108547457D02*
X126190476Y-108499838D01*
X126190476Y-108499838D02*
X126238095Y-108452219D01*
X126238095Y-108452219D02*
X126238095Y-108547457D01*
X125761905Y-108785552D02*
X125761905Y-109452219D01*
X125761905Y-108880790D02*
X125714286Y-108833171D01*
X125714286Y-108833171D02*
X125619048Y-108785552D01*
X125619048Y-108785552D02*
X125476191Y-108785552D01*
X125476191Y-108785552D02*
X125380953Y-108833171D01*
X125380953Y-108833171D02*
X125333334Y-108928409D01*
X125333334Y-108928409D02*
X125333334Y-109452219D01*
X124476191Y-109404600D02*
X124571429Y-109452219D01*
X124571429Y-109452219D02*
X124761905Y-109452219D01*
X124761905Y-109452219D02*
X124857143Y-109404600D01*
X124857143Y-109404600D02*
X124904762Y-109309361D01*
X124904762Y-109309361D02*
X124904762Y-108928409D01*
X124904762Y-108928409D02*
X124857143Y-108833171D01*
X124857143Y-108833171D02*
X124761905Y-108785552D01*
X124761905Y-108785552D02*
X124571429Y-108785552D01*
X124571429Y-108785552D02*
X124476191Y-108833171D01*
X124476191Y-108833171D02*
X124428572Y-108928409D01*
X124428572Y-108928409D02*
X124428572Y-109023647D01*
X124428572Y-109023647D02*
X124904762Y-109118885D01*
X123952381Y-109404600D02*
X123952381Y-109452219D01*
X123952381Y-109452219D02*
X124000000Y-109547457D01*
X124000000Y-109547457D02*
X124047619Y-109595076D01*
X122285715Y-109452219D02*
X122761905Y-109452219D01*
X122761905Y-109452219D02*
X122761905Y-108452219D01*
X121952381Y-109071266D02*
X121190477Y-109071266D01*
X120238096Y-109452219D02*
X120714286Y-109452219D01*
X120714286Y-109452219D02*
X120714286Y-108452219D01*
X119904762Y-109452219D02*
X119904762Y-108785552D01*
X119904762Y-108452219D02*
X119952381Y-108499838D01*
X119952381Y-108499838D02*
X119904762Y-108547457D01*
X119904762Y-108547457D02*
X119857143Y-108499838D01*
X119857143Y-108499838D02*
X119904762Y-108452219D01*
X119904762Y-108452219D02*
X119904762Y-108547457D01*
X119428572Y-108785552D02*
X119428572Y-109452219D01*
X119428572Y-108880790D02*
X119380953Y-108833171D01*
X119380953Y-108833171D02*
X119285715Y-108785552D01*
X119285715Y-108785552D02*
X119142858Y-108785552D01*
X119142858Y-108785552D02*
X119047620Y-108833171D01*
X119047620Y-108833171D02*
X119000001Y-108928409D01*
X119000001Y-108928409D02*
X119000001Y-109452219D01*
X118142858Y-109404600D02*
X118238096Y-109452219D01*
X118238096Y-109452219D02*
X118428572Y-109452219D01*
X118428572Y-109452219D02*
X118523810Y-109404600D01*
X118523810Y-109404600D02*
X118571429Y-109309361D01*
X118571429Y-109309361D02*
X118571429Y-108928409D01*
X118571429Y-108928409D02*
X118523810Y-108833171D01*
X118523810Y-108833171D02*
X118428572Y-108785552D01*
X118428572Y-108785552D02*
X118238096Y-108785552D01*
X118238096Y-108785552D02*
X118142858Y-108833171D01*
X118142858Y-108833171D02*
X118095239Y-108928409D01*
X118095239Y-108928409D02*
X118095239Y-109023647D01*
X118095239Y-109023647D02*
X118571429Y-109118885D01*
X116904762Y-109452219D02*
X116904762Y-108452219D01*
X116904762Y-108833171D02*
X116809524Y-108785552D01*
X116809524Y-108785552D02*
X116619048Y-108785552D01*
X116619048Y-108785552D02*
X116523810Y-108833171D01*
X116523810Y-108833171D02*
X116476191Y-108880790D01*
X116476191Y-108880790D02*
X116428572Y-108976028D01*
X116428572Y-108976028D02*
X116428572Y-109261742D01*
X116428572Y-109261742D02*
X116476191Y-109356980D01*
X116476191Y-109356980D02*
X116523810Y-109404600D01*
X116523810Y-109404600D02*
X116619048Y-109452219D01*
X116619048Y-109452219D02*
X116809524Y-109452219D01*
X116809524Y-109452219D02*
X116904762Y-109404600D01*
X115857143Y-109452219D02*
X115952381Y-109404600D01*
X115952381Y-109404600D02*
X116000000Y-109356980D01*
X116000000Y-109356980D02*
X116047619Y-109261742D01*
X116047619Y-109261742D02*
X116047619Y-108976028D01*
X116047619Y-108976028D02*
X116000000Y-108880790D01*
X116000000Y-108880790D02*
X115952381Y-108833171D01*
X115952381Y-108833171D02*
X115857143Y-108785552D01*
X115857143Y-108785552D02*
X115714286Y-108785552D01*
X115714286Y-108785552D02*
X115619048Y-108833171D01*
X115619048Y-108833171D02*
X115571429Y-108880790D01*
X115571429Y-108880790D02*
X115523810Y-108976028D01*
X115523810Y-108976028D02*
X115523810Y-109261742D01*
X115523810Y-109261742D02*
X115571429Y-109356980D01*
X115571429Y-109356980D02*
X115619048Y-109404600D01*
X115619048Y-109404600D02*
X115714286Y-109452219D01*
X115714286Y-109452219D02*
X115857143Y-109452219D01*
X114666667Y-109452219D02*
X114666667Y-108928409D01*
X114666667Y-108928409D02*
X114714286Y-108833171D01*
X114714286Y-108833171D02*
X114809524Y-108785552D01*
X114809524Y-108785552D02*
X115000000Y-108785552D01*
X115000000Y-108785552D02*
X115095238Y-108833171D01*
X114666667Y-109404600D02*
X114761905Y-109452219D01*
X114761905Y-109452219D02*
X115000000Y-109452219D01*
X115000000Y-109452219D02*
X115095238Y-109404600D01*
X115095238Y-109404600D02*
X115142857Y-109309361D01*
X115142857Y-109309361D02*
X115142857Y-109214123D01*
X115142857Y-109214123D02*
X115095238Y-109118885D01*
X115095238Y-109118885D02*
X115000000Y-109071266D01*
X115000000Y-109071266D02*
X114761905Y-109071266D01*
X114761905Y-109071266D02*
X114666667Y-109023647D01*
X114190476Y-109452219D02*
X114190476Y-108785552D01*
X114190476Y-108976028D02*
X114142857Y-108880790D01*
X114142857Y-108880790D02*
X114095238Y-108833171D01*
X114095238Y-108833171D02*
X114000000Y-108785552D01*
X114000000Y-108785552D02*
X113904762Y-108785552D01*
X113142857Y-109452219D02*
X113142857Y-108452219D01*
X113142857Y-109404600D02*
X113238095Y-109452219D01*
X113238095Y-109452219D02*
X113428571Y-109452219D01*
X113428571Y-109452219D02*
X113523809Y-109404600D01*
X113523809Y-109404600D02*
X113571428Y-109356980D01*
X113571428Y-109356980D02*
X113619047Y-109261742D01*
X113619047Y-109261742D02*
X113619047Y-108976028D01*
X113619047Y-108976028D02*
X113571428Y-108880790D01*
X113571428Y-108880790D02*
X113523809Y-108833171D01*
X113523809Y-108833171D02*
X113428571Y-108785552D01*
X113428571Y-108785552D02*
X113238095Y-108785552D01*
X113238095Y-108785552D02*
X113142857Y-108833171D01*
D12*
X131671427Y-106865790D02*
X130623808Y-106865790D01*
X131880951Y-107494361D02*
X131147617Y-105294361D01*
X131147617Y-105294361D02*
X130414284Y-107494361D01*
X129785713Y-107389600D02*
X129471427Y-107494361D01*
X129471427Y-107494361D02*
X128947618Y-107494361D01*
X128947618Y-107494361D02*
X128738094Y-107389600D01*
X128738094Y-107389600D02*
X128633332Y-107284838D01*
X128633332Y-107284838D02*
X128528570Y-107075314D01*
X128528570Y-107075314D02*
X128528570Y-106865790D01*
X128528570Y-106865790D02*
X128633332Y-106656266D01*
X128633332Y-106656266D02*
X128738094Y-106551504D01*
X128738094Y-106551504D02*
X128947618Y-106446742D01*
X128947618Y-106446742D02*
X129366665Y-106341980D01*
X129366665Y-106341980D02*
X129576189Y-106237219D01*
X129576189Y-106237219D02*
X129680951Y-106132457D01*
X129680951Y-106132457D02*
X129785713Y-105922933D01*
X129785713Y-105922933D02*
X129785713Y-105713409D01*
X129785713Y-105713409D02*
X129680951Y-105503885D01*
X129680951Y-105503885D02*
X129576189Y-105399123D01*
X129576189Y-105399123D02*
X129366665Y-105294361D01*
X129366665Y-105294361D02*
X128842856Y-105294361D01*
X128842856Y-105294361D02*
X128528570Y-105399123D01*
X127899999Y-105294361D02*
X126642856Y-105294361D01*
X127271427Y-107494361D02*
X127271427Y-105294361D01*
X125071428Y-107389600D02*
X125280952Y-107494361D01*
X125280952Y-107494361D02*
X125699999Y-107494361D01*
X125699999Y-107494361D02*
X125909523Y-107389600D01*
X125909523Y-107389600D02*
X126014285Y-107180076D01*
X126014285Y-107180076D02*
X126014285Y-106341980D01*
X126014285Y-106341980D02*
X125909523Y-106132457D01*
X125909523Y-106132457D02*
X125699999Y-106027695D01*
X125699999Y-106027695D02*
X125280952Y-106027695D01*
X125280952Y-106027695D02*
X125071428Y-106132457D01*
X125071428Y-106132457D02*
X124966666Y-106341980D01*
X124966666Y-106341980D02*
X124966666Y-106551504D01*
X124966666Y-106551504D02*
X126014285Y-106761028D01*
X123080952Y-107389600D02*
X123290476Y-107494361D01*
X123290476Y-107494361D02*
X123709523Y-107494361D01*
X123709523Y-107494361D02*
X123919047Y-107389600D01*
X123919047Y-107389600D02*
X124023809Y-107284838D01*
X124023809Y-107284838D02*
X124128571Y-107075314D01*
X124128571Y-107075314D02*
X124128571Y-106446742D01*
X124128571Y-106446742D02*
X124023809Y-106237219D01*
X124023809Y-106237219D02*
X123919047Y-106132457D01*
X123919047Y-106132457D02*
X123709523Y-106027695D01*
X123709523Y-106027695D02*
X123290476Y-106027695D01*
X123290476Y-106027695D02*
X123080952Y-106132457D01*
X122138095Y-107494361D02*
X122138095Y-105294361D01*
X121195238Y-107494361D02*
X121195238Y-106341980D01*
X121195238Y-106341980D02*
X121300000Y-106132457D01*
X121300000Y-106132457D02*
X121509524Y-106027695D01*
X121509524Y-106027695D02*
X121823809Y-106027695D01*
X121823809Y-106027695D02*
X122033333Y-106132457D01*
X122033333Y-106132457D02*
X122138095Y-106237219D01*
X119100000Y-107494361D02*
X120147619Y-107494361D01*
X120147619Y-107494361D02*
X120147619Y-105294361D01*
X117423810Y-107494361D02*
X117423810Y-106341980D01*
X117423810Y-106341980D02*
X117528572Y-106132457D01*
X117528572Y-106132457D02*
X117738096Y-106027695D01*
X117738096Y-106027695D02*
X118157143Y-106027695D01*
X118157143Y-106027695D02*
X118366667Y-106132457D01*
X117423810Y-107389600D02*
X117633334Y-107494361D01*
X117633334Y-107494361D02*
X118157143Y-107494361D01*
X118157143Y-107494361D02*
X118366667Y-107389600D01*
X118366667Y-107389600D02*
X118471429Y-107180076D01*
X118471429Y-107180076D02*
X118471429Y-106970552D01*
X118471429Y-106970552D02*
X118366667Y-106761028D01*
X118366667Y-106761028D02*
X118157143Y-106656266D01*
X118157143Y-106656266D02*
X117633334Y-106656266D01*
X117633334Y-106656266D02*
X117423810Y-106551504D01*
X116376191Y-107494361D02*
X116376191Y-105294361D01*
X116376191Y-106132457D02*
X116166667Y-106027695D01*
X116166667Y-106027695D02*
X115747620Y-106027695D01*
X115747620Y-106027695D02*
X115538096Y-106132457D01*
X115538096Y-106132457D02*
X115433334Y-106237219D01*
X115433334Y-106237219D02*
X115328572Y-106446742D01*
X115328572Y-106446742D02*
X115328572Y-107075314D01*
X115328572Y-107075314D02*
X115433334Y-107284838D01*
X115433334Y-107284838D02*
X115538096Y-107389600D01*
X115538096Y-107389600D02*
X115747620Y-107494361D01*
X115747620Y-107494361D02*
X116166667Y-107494361D01*
X116166667Y-107494361D02*
X116376191Y-107389600D01*
M02*
